<?xml version="1.0" encoding="utf-8" standalone="no"?>
<!DOCTYPE svg PUBLIC "-//W3C//DTD SVG 1.1//EN"
  "http://www.w3.org/Graphics/SVG/1.1/DTD/svg11.dtd">
<svg xmlns:xlink="http://www.w3.org/1999/xlink" width="720pt" height="720pt" viewBox="0 0 720 720" xmlns="http://www.w3.org/2000/svg" version="1.1">
 <metadata>
  <rdf:RDF xmlns:dc="http://purl.org/dc/elements/1.1/" xmlns:cc="http://creativecommons.org/ns#" xmlns:rdf="http://www.w3.org/1999/02/22-rdf-syntax-ns#">
   <cc:Work>
    <dc:type rdf:resource="http://purl.org/dc/dcmitype/StillImage"/>
    <dc:date>2024-11-13T21:26:21.997496</dc:date>
    <dc:format>image/svg+xml</dc:format>
    <dc:creator>
     <cc:Agent>
      <dc:title>Matplotlib v3.8.1, https://matplotlib.org/</dc:title>
     </cc:Agent>
    </dc:creator>
   </cc:Work>
  </rdf:RDF>
 </metadata>
 <defs>
  <style type="text/css">*{stroke-linejoin: round; stroke-linecap: butt}</style>
 </defs>
 <g id="figure_1">
  <g id="patch_1">
   <path d="M 0 720 
L 720 720 
L 720 0 
L 0 0 
z
" style="fill: #ffffff"/>
  </g>
  <g id="axes_1">
   <g id="patch_2">
    <path d="M 329.107465 166.192349 
C 312.892642 158.8235 295.359765 154.791716 277.554873 154.337538 
C 259.749982 153.883361 242.03435 157.016007 225.464922 163.548577 
C 208.895493 170.081148 193.808474 179.881091 181.103978 192.363729 
C 168.399483 204.846366 158.335296 219.758415 151.511862 236.210198 
C 144.688428 252.661982 141.2442 270.319682 141.384666 288.129811 
C 141.525133 305.93994 145.247443 323.541119 152.329518 339.883231 
C 159.411593 356.225344 169.709733 370.976798 182.609533 383.257497 
C 195.509334 395.538196 210.749049 405.098957 227.419453 411.369369 
C 229.718126 392.602402 235.14549 374.352614 243.475711 357.379389 
C 251.805931 340.406163 262.921841 324.948234 276.360901 311.648812 
C 272.237045 284.9266 274.907471 257.591262 284.12506 232.172395 
C 293.34265 206.753527 308.814022 184.060168 329.107465 166.192349 
" clip-path="url(#pe6e6ea4321)" style="fill: #ffff00; opacity: 0.6"/>
   </g>
   <g id="patch_3">
    <path d="M 329.107465 166.192349 
C 348.574323 175.03909 365.619321 188.458419 378.787873 205.305158 
C 391.956425 222.151897 400.862971 241.932792 404.747444 262.95978 
C 440.686277 264.946132 475.071196 278.346501 502.876819 301.202412 
C 530.682443 324.058323 550.484793 355.199284 559.389744 390.07402 
C 585.315122 358.900126 598.537261 319.058392 596.394341 278.569569 
C 594.25142 238.080746 576.897585 199.857282 547.826429 171.594148 
C 518.755273 143.331014 480.057946 127.061236 439.524814 126.060171 
C 398.991683 125.059107 359.538381 139.398764 329.107465 166.192349 
" clip-path="url(#pe6e6ea4321)" style="fill: #0000ff; opacity: 0.6"/>
   </g>
   <g id="patch_4">
    <path d="M 329.107465 166.192349 
C 308.814022 184.060168 293.34265 206.753527 284.12506 232.172395 
C 274.907471 257.591262 272.237045 284.9266 276.360901 311.648812 
C 293.170637 295.013737 313.282008 282.085259 335.394647 273.69931 
C 357.507286 265.313361 381.134108 261.654663 404.747444 262.95978 
C 400.862971 241.932792 391.956425 222.151897 378.787873 205.305158 
C 365.619321 188.458419 348.574323 175.03909 329.107465 166.192349 
" clip-path="url(#pe6e6ea4321)" style="fill: #b2b2b2; opacity: 0.6"/>
   </g>
   <g id="patch_5">
    <path d="M 227.419453 411.369369 
C 224.395182 436.060309 226.851397 461.117056 234.612739 484.750725 
C 242.374082 508.384394 255.251348 530.018847 272.325186 548.109529 
C 289.399025 566.200212 310.253213 580.306111 333.3989 589.42016 
C 356.544588 598.53421 381.417533 602.434229 406.241974 600.841781 
C 431.066414 599.249334 455.237184 592.203242 477.028652 580.206547 
C 498.82012 568.209853 517.701057 551.555011 532.32349 531.431065 
C 546.945923 511.307119 556.953388 488.204648 561.63142 463.773013 
C 566.309453 439.341379 565.544011 414.176172 559.389744 390.07402 
C 545.620773 406.630477 528.67042 420.258892 509.54349 430.151384 
C 490.41656 440.043875 469.498614 446.001029 448.029652 447.669709 
C 426.56069 449.33839 404.973484 446.68496 384.547707 439.866714 
C 364.12193 433.048467 345.269327 422.202846 329.107465 407.97277 
C 313.213564 415.195776 296.050123 419.213932 278.601679 419.796748 
C 261.153234 420.379563 243.759918 417.515677 227.419453 411.369369 
" clip-path="url(#pe6e6ea4321)" style="fill: #ff0000; opacity: 0.6"/>
   </g>
   <g id="patch_6">
    <path d="M 227.419453 411.369369 
C 243.759918 417.515677 261.153234 420.379563 278.601679 419.796748 
C 296.050123 419.213932 313.213564 415.195776 329.107465 407.97277 
C 315.053788 395.598894 303.264872 380.868618 294.271368 364.44499 
C 285.277864 348.021363 279.216766 330.15456 276.360901 311.648812 
C 262.921841 324.948234 251.805931 340.406163 243.475711 357.379389 
C 235.14549 374.352614 229.718126 392.602402 227.419453 411.369369 
" clip-path="url(#pe6e6ea4321)" style="fill: #ffb200; opacity: 0.6"/>
   </g>
   <g id="patch_7">
    <path d="M 404.747444 262.95978 
C 410.130721 292.099929 405.607683 322.219984 391.903063 348.49376 
C 378.198443 374.767537 356.085514 395.712558 329.107465 407.97277 
C 345.269327 422.202846 364.12193 433.048467 384.547707 439.866714 
C 404.973484 446.68496 426.56069 449.33839 448.029652 447.669709 
C 469.498614 446.001029 490.41656 440.043875 509.54349 430.151384 
C 528.67042 420.258892 545.620773 406.630477 559.389744 390.07402 
C 550.484793 355.199284 530.682443 324.058323 502.876819 301.202412 
C 475.071196 278.346501 440.686277 264.946132 404.747444 262.95978 
" clip-path="url(#pe6e6ea4321)" style="fill: #b200b2; opacity: 0.6"/>
   </g>
   <g id="patch_8">
    <path d="M 276.360901 311.648812 
C 279.216766 330.15456 285.277864 348.021363 294.271368 364.44499 
C 303.264872 380.868618 315.053788 395.598894 329.107465 407.97277 
C 356.085514 395.712558 378.198443 374.767537 391.903063 348.49376 
C 405.607683 322.219984 410.130721 292.099929 404.747444 262.95978 
C 381.134108 261.654663 357.507286 265.313361 335.394647 273.69931 
C 313.282008 282.085259 293.170637 295.013737 276.360901 311.648812 
" clip-path="url(#pe6e6ea4321)" style="fill: #cc6666; opacity: 0.6"/>
   </g>
   <g id="patch_9">
    <path d="M 274.168739 419.870762 
C 309.384582 419.870762 343.162816 405.879359 368.064177 380.977998 
C 392.965538 356.076637 406.956941 322.298403 406.956941 287.08256 
C 406.956941 251.866717 392.965538 218.088483 368.064177 193.187122 
C 343.162816 168.28576 309.384582 154.294358 274.168739 154.294358 
C 238.952896 154.294358 205.174662 168.28576 180.273301 193.187122 
C 155.371939 218.088483 141.380537 251.866717 141.380537 287.08256 
C 141.380537 322.298403 155.371939 356.076637 180.273301 380.977998 
C 205.174662 405.879359 238.952896 419.870762 274.168739 419.870762 
L 274.168739 419.870762 
z
" clip-path="url(#pe6e6ea4321)" style="fill: none; stroke: #000000; stroke-width: 2; stroke-linejoin: miter"/>
   </g>
   <g id="patch_10">
    <path d="M 435.547973 448.15405 
C 478.264632 448.15405 519.237477 431.182541 549.442716 400.977303 
C 579.647955 370.772064 596.619463 329.799218 596.619463 287.08256 
C 596.619463 244.365901 579.647955 203.393056 549.442716 173.187817 
C 519.237477 142.982578 478.264632 126.01107 435.547973 126.01107 
C 392.831315 126.01107 351.85847 142.982578 321.653231 173.187817 
C 291.447992 203.393056 274.476484 244.365901 274.476484 287.08256 
C 274.476484 329.799218 291.447992 370.772064 321.653231 400.977303 
C 351.85847 431.182541 392.831315 448.15405 435.547973 448.15405 
L 435.547973 448.15405 
z
" clip-path="url(#pe6e6ea4321)" style="fill: none; stroke: #000000; stroke-width: 2; stroke-linejoin: miter"/>
   </g>
   <g id="patch_11">
    <path d="M 395.407548 601.18893 
C 440.291457 601.18893 483.34308 583.356364 515.080796 551.618647 
C 546.818513 519.880931 564.651079 476.829308 564.651079 431.945399 
C 564.651079 387.061489 546.818513 344.009866 515.080796 312.27215 
C 483.34308 280.534433 440.291457 262.701867 395.407548 262.701867 
C 350.523639 262.701867 307.472016 280.534433 275.734299 312.27215 
C 243.996583 344.009866 226.164016 387.061489 226.164016 431.945399 
C 226.164016 476.829308 243.996583 519.880931 275.734299 551.618647 
C 307.472016 583.356364 350.523639 601.18893 395.407548 601.18893 
L 395.407548 601.18893 
z
" clip-path="url(#pe6e6ea4321)" style="fill: none; stroke: #000000; stroke-width: 2; stroke-linejoin: miter"/>
   </g>
   <g id="text_1">
    <!-- 1,410 -->
    <g transform="translate(151.271206 259.714987) scale(0.28 -0.28)">
     <defs>
      <path id="DejaVuSans-31" d="M 794 531 
L 1825 531 
L 1825 4091 
L 703 3866 
L 703 4441 
L 1819 4666 
L 2450 4666 
L 2450 531 
L 3481 531 
L 3481 0 
L 794 0 
L 794 531 
z
" transform="scale(0.015625)"/>
      <path id="DejaVuSans-2c" d="M 750 794 
L 1409 794 
L 1409 256 
L 897 -744 
L 494 -744 
L 750 256 
L 750 794 
z
" transform="scale(0.015625)"/>
      <path id="DejaVuSans-34" d="M 2419 4116 
L 825 1625 
L 2419 1625 
L 2419 4116 
z
M 2253 4666 
L 3047 4666 
L 3047 1625 
L 3713 1625 
L 3713 1100 
L 3047 1100 
L 3047 0 
L 2419 0 
L 2419 1100 
L 313 1100 
L 313 1709 
L 2253 4666 
z
" transform="scale(0.015625)"/>
      <path id="DejaVuSans-30" d="M 2034 4250 
Q 1547 4250 1301 3770 
Q 1056 3291 1056 2328 
Q 1056 1369 1301 889 
Q 1547 409 2034 409 
Q 2525 409 2770 889 
Q 3016 1369 3016 2328 
Q 3016 3291 2770 3770 
Q 2525 4250 2034 4250 
z
M 2034 4750 
Q 2819 4750 3233 4129 
Q 3647 3509 3647 2328 
Q 3647 1150 3233 529 
Q 2819 -91 2034 -91 
Q 1250 -91 836 529 
Q 422 1150 422 2328 
Q 422 3509 836 4129 
Q 1250 4750 2034 4750 
z
" transform="scale(0.015625)"/>
     </defs>
     <use xlink:href="#DejaVuSans-31"/>
     <use xlink:href="#DejaVuSans-2c" x="63.623047"/>
     <use xlink:href="#DejaVuSans-34" x="95.410156"/>
     <use xlink:href="#DejaVuSans-31" x="159.033203"/>
     <use xlink:href="#DejaVuSans-30" x="222.65625"/>
    </g>
   </g>
   <g id="text_2">
    <!-- 2,336 -->
    <g transform="translate(465.659163 216.999785) scale(0.28 -0.28)">
     <defs>
      <path id="DejaVuSans-32" d="M 1228 531 
L 3431 531 
L 3431 0 
L 469 0 
L 469 531 
Q 828 903 1448 1529 
Q 2069 2156 2228 2338 
Q 2531 2678 2651 2914 
Q 2772 3150 2772 3378 
Q 2772 3750 2511 3984 
Q 2250 4219 1831 4219 
Q 1534 4219 1204 4116 
Q 875 4013 500 3803 
L 500 4441 
Q 881 4594 1212 4672 
Q 1544 4750 1819 4750 
Q 2544 4750 2975 4387 
Q 3406 4025 3406 3419 
Q 3406 3131 3298 2873 
Q 3191 2616 2906 2266 
Q 2828 2175 2409 1742 
Q 1991 1309 1228 531 
z
" transform="scale(0.015625)"/>
      <path id="DejaVuSans-33" d="M 2597 2516 
Q 3050 2419 3304 2112 
Q 3559 1806 3559 1356 
Q 3559 666 3084 287 
Q 2609 -91 1734 -91 
Q 1441 -91 1130 -33 
Q 819 25 488 141 
L 488 750 
Q 750 597 1062 519 
Q 1375 441 1716 441 
Q 2309 441 2620 675 
Q 2931 909 2931 1356 
Q 2931 1769 2642 2001 
Q 2353 2234 1838 2234 
L 1294 2234 
L 1294 2753 
L 1863 2753 
Q 2328 2753 2575 2939 
Q 2822 3125 2822 3475 
Q 2822 3834 2567 4026 
Q 2313 4219 1838 4219 
Q 1578 4219 1281 4162 
Q 984 4106 628 3988 
L 628 4550 
Q 988 4650 1302 4700 
Q 1616 4750 1894 4750 
Q 2613 4750 3031 4423 
Q 3450 4097 3450 3541 
Q 3450 3153 3228 2886 
Q 3006 2619 2597 2516 
z
" transform="scale(0.015625)"/>
      <path id="DejaVuSans-36" d="M 2113 2584 
Q 1688 2584 1439 2293 
Q 1191 2003 1191 1497 
Q 1191 994 1439 701 
Q 1688 409 2113 409 
Q 2538 409 2786 701 
Q 3034 994 3034 1497 
Q 3034 2003 2786 2293 
Q 2538 2584 2113 2584 
z
M 3366 4563 
L 3366 3988 
Q 3128 4100 2886 4159 
Q 2644 4219 2406 4219 
Q 1781 4219 1451 3797 
Q 1122 3375 1075 2522 
Q 1259 2794 1537 2939 
Q 1816 3084 2150 3084 
Q 2853 3084 3261 2657 
Q 3669 2231 3669 1497 
Q 3669 778 3244 343 
Q 2819 -91 2113 -91 
Q 1303 -91 875 529 
Q 447 1150 447 2328 
Q 447 3434 972 4092 
Q 1497 4750 2381 4750 
Q 2619 4750 2861 4703 
Q 3103 4656 3366 4563 
z
" transform="scale(0.015625)"/>
     </defs>
     <use xlink:href="#DejaVuSans-32"/>
     <use xlink:href="#DejaVuSans-2c" x="63.623047"/>
     <use xlink:href="#DejaVuSans-33" x="95.410156"/>
     <use xlink:href="#DejaVuSans-33" x="159.033203"/>
     <use xlink:href="#DejaVuSans-36" x="222.65625"/>
    </g>
   </g>
   <g id="text_3">
    <!-- 504 -->
    <g transform="translate(305.225831 243.062858) scale(0.28 -0.28)">
     <defs>
      <path id="DejaVuSans-35" d="M 691 4666 
L 3169 4666 
L 3169 4134 
L 1269 4134 
L 1269 2991 
Q 1406 3038 1543 3061 
Q 1681 3084 1819 3084 
Q 2600 3084 3056 2656 
Q 3513 2228 3513 1497 
Q 3513 744 3044 326 
Q 2575 -91 1722 -91 
Q 1428 -91 1123 -41 
Q 819 9 494 109 
L 494 744 
Q 775 591 1075 516 
Q 1375 441 1709 441 
Q 2250 441 2565 725 
Q 2881 1009 2881 1497 
Q 2881 1984 2565 2268 
Q 2250 2553 1709 2553 
Q 1456 2553 1204 2497 
Q 953 2441 691 2322 
L 691 4666 
z
" transform="scale(0.015625)"/>
     </defs>
     <use xlink:href="#DejaVuSans-35"/>
     <use xlink:href="#DejaVuSans-30" x="63.623047"/>
     <use xlink:href="#DejaVuSans-34" x="127.246094"/>
    </g>
   </g>
   <g id="text_4">
    <!-- 4,777 -->
    <g transform="translate(360.475248 542.913929) scale(0.28 -0.28)">
     <defs>
      <path id="DejaVuSans-37" d="M 525 4666 
L 3525 4666 
L 3525 4397 
L 1831 0 
L 1172 0 
L 2766 4134 
L 525 4134 
L 525 4666 
z
" transform="scale(0.015625)"/>
     </defs>
     <use xlink:href="#DejaVuSans-34"/>
     <use xlink:href="#DejaVuSans-2c" x="63.623047"/>
     <use xlink:href="#DejaVuSans-37" x="95.410156"/>
     <use xlink:href="#DejaVuSans-37" x="159.033203"/>
     <use xlink:href="#DejaVuSans-37" x="222.65625"/>
    </g>
   </g>
   <g id="text_5">
    <!-- 237 -->
    <g transform="translate(246.026586 390.210438) scale(0.28 -0.28)">
     <use xlink:href="#DejaVuSans-32"/>
     <use xlink:href="#DejaVuSans-33" x="63.623047"/>
     <use xlink:href="#DejaVuSans-37" x="127.246094"/>
    </g>
   </g>
   <g id="text_6">
    <!-- 2,198 -->
    <g transform="translate(406.742564 379.774724) scale(0.28 -0.28)">
     <defs>
      <path id="DejaVuSans-39" d="M 703 97 
L 703 672 
Q 941 559 1184 500 
Q 1428 441 1663 441 
Q 2288 441 2617 861 
Q 2947 1281 2994 2138 
Q 2813 1869 2534 1725 
Q 2256 1581 1919 1581 
Q 1219 1581 811 2004 
Q 403 2428 403 3163 
Q 403 3881 828 4315 
Q 1253 4750 1959 4750 
Q 2769 4750 3195 4129 
Q 3622 3509 3622 2328 
Q 3622 1225 3098 567 
Q 2575 -91 1691 -91 
Q 1453 -91 1209 -44 
Q 966 3 703 97 
z
M 1959 2075 
Q 2384 2075 2632 2365 
Q 2881 2656 2881 3163 
Q 2881 3666 2632 3958 
Q 2384 4250 1959 4250 
Q 1534 4250 1286 3958 
Q 1038 3666 1038 3163 
Q 1038 2656 1286 2365 
Q 1534 2075 1959 2075 
z
" transform="scale(0.015625)"/>
      <path id="DejaVuSans-38" d="M 2034 2216 
Q 1584 2216 1326 1975 
Q 1069 1734 1069 1313 
Q 1069 891 1326 650 
Q 1584 409 2034 409 
Q 2484 409 2743 651 
Q 3003 894 3003 1313 
Q 3003 1734 2745 1975 
Q 2488 2216 2034 2216 
z
M 1403 2484 
Q 997 2584 770 2862 
Q 544 3141 544 3541 
Q 544 4100 942 4425 
Q 1341 4750 2034 4750 
Q 2731 4750 3128 4425 
Q 3525 4100 3525 3541 
Q 3525 3141 3298 2862 
Q 3072 2584 2669 2484 
Q 3125 2378 3379 2068 
Q 3634 1759 3634 1313 
Q 3634 634 3220 271 
Q 2806 -91 2034 -91 
Q 1263 -91 848 271 
Q 434 634 434 1313 
Q 434 1759 690 2068 
Q 947 2378 1403 2484 
z
M 1172 3481 
Q 1172 3119 1398 2916 
Q 1625 2713 2034 2713 
Q 2441 2713 2670 2916 
Q 2900 3119 2900 3481 
Q 2900 3844 2670 4047 
Q 2441 4250 2034 4250 
Q 1625 4250 1398 4047 
Q 1172 3844 1172 3481 
z
" transform="scale(0.015625)"/>
     </defs>
     <use xlink:href="#DejaVuSans-32"/>
     <use xlink:href="#DejaVuSans-2c" x="63.623047"/>
     <use xlink:href="#DejaVuSans-31" x="95.410156"/>
     <use xlink:href="#DejaVuSans-39" x="159.033203"/>
     <use xlink:href="#DejaVuSans-38" x="222.65625"/>
    </g>
   </g>
   <g id="text_7">
    <!-- 204 -->
    <g transform="translate(324.896524 338.241365) scale(0.28 -0.28)">
     <use xlink:href="#DejaVuSans-32"/>
     <use xlink:href="#DejaVuSans-30" x="63.623047"/>
     <use xlink:href="#DejaVuSans-34" x="127.246094"/>
    </g>
   </g>
   <g id="text_8">
    <!-- BIOGRID -->
    <g transform="translate(87.291513 154.294358) scale(0.28 -0.28)">
     <defs>
      <path id="DejaVuSans-42" d="M 1259 2228 
L 1259 519 
L 2272 519 
Q 2781 519 3026 730 
Q 3272 941 3272 1375 
Q 3272 1813 3026 2020 
Q 2781 2228 2272 2228 
L 1259 2228 
z
M 1259 4147 
L 1259 2741 
L 2194 2741 
Q 2656 2741 2882 2914 
Q 3109 3088 3109 3444 
Q 3109 3797 2882 3972 
Q 2656 4147 2194 4147 
L 1259 4147 
z
M 628 4666 
L 2241 4666 
Q 2963 4666 3353 4366 
Q 3744 4066 3744 3513 
Q 3744 3084 3544 2831 
Q 3344 2578 2956 2516 
Q 3422 2416 3680 2098 
Q 3938 1781 3938 1306 
Q 3938 681 3513 340 
Q 3088 0 2303 0 
L 628 0 
L 628 4666 
z
" transform="scale(0.015625)"/>
      <path id="DejaVuSans-49" d="M 628 4666 
L 1259 4666 
L 1259 0 
L 628 0 
L 628 4666 
z
" transform="scale(0.015625)"/>
      <path id="DejaVuSans-4f" d="M 2522 4238 
Q 1834 4238 1429 3725 
Q 1025 3213 1025 2328 
Q 1025 1447 1429 934 
Q 1834 422 2522 422 
Q 3209 422 3611 934 
Q 4013 1447 4013 2328 
Q 4013 3213 3611 3725 
Q 3209 4238 2522 4238 
z
M 2522 4750 
Q 3503 4750 4090 4092 
Q 4678 3434 4678 2328 
Q 4678 1225 4090 567 
Q 3503 -91 2522 -91 
Q 1538 -91 948 565 
Q 359 1222 359 2328 
Q 359 3434 948 4092 
Q 1538 4750 2522 4750 
z
" transform="scale(0.015625)"/>
      <path id="DejaVuSans-47" d="M 3809 666 
L 3809 1919 
L 2778 1919 
L 2778 2438 
L 4434 2438 
L 4434 434 
Q 4069 175 3628 42 
Q 3188 -91 2688 -91 
Q 1594 -91 976 548 
Q 359 1188 359 2328 
Q 359 3472 976 4111 
Q 1594 4750 2688 4750 
Q 3144 4750 3555 4637 
Q 3966 4525 4313 4306 
L 4313 3634 
Q 3963 3931 3569 4081 
Q 3175 4231 2741 4231 
Q 1884 4231 1454 3753 
Q 1025 3275 1025 2328 
Q 1025 1384 1454 906 
Q 1884 428 2741 428 
Q 3075 428 3337 486 
Q 3600 544 3809 666 
z
" transform="scale(0.015625)"/>
      <path id="DejaVuSans-52" d="M 2841 2188 
Q 3044 2119 3236 1894 
Q 3428 1669 3622 1275 
L 4263 0 
L 3584 0 
L 2988 1197 
Q 2756 1666 2539 1819 
Q 2322 1972 1947 1972 
L 1259 1972 
L 1259 0 
L 628 0 
L 628 4666 
L 2053 4666 
Q 2853 4666 3247 4331 
Q 3641 3997 3641 3322 
Q 3641 2881 3436 2590 
Q 3231 2300 2841 2188 
z
M 1259 4147 
L 1259 2491 
L 2053 2491 
Q 2509 2491 2742 2702 
Q 2975 2913 2975 3322 
Q 2975 3731 2742 3939 
Q 2509 4147 2053 4147 
L 1259 4147 
z
" transform="scale(0.015625)"/>
      <path id="DejaVuSans-44" d="M 1259 4147 
L 1259 519 
L 2022 519 
Q 2988 519 3436 956 
Q 3884 1394 3884 2338 
Q 3884 3275 3436 3711 
Q 2988 4147 2022 4147 
L 1259 4147 
z
M 628 4666 
L 1925 4666 
Q 3281 4666 3915 4102 
Q 4550 3538 4550 2338 
Q 4550 1131 3912 565 
Q 3275 0 1925 0 
L 628 0 
L 628 4666 
z
" transform="scale(0.015625)"/>
     </defs>
     <use xlink:href="#DejaVuSans-42"/>
     <use xlink:href="#DejaVuSans-49" x="68.603516"/>
     <use xlink:href="#DejaVuSans-4f" x="98.095703"/>
     <use xlink:href="#DejaVuSans-47" x="176.806641"/>
     <use xlink:href="#DejaVuSans-52" x="254.296875"/>
     <use xlink:href="#DejaVuSans-49" x="323.779297"/>
     <use xlink:href="#DejaVuSans-44" x="353.271484"/>
    </g>
   </g>
   <g id="text_9">
    <!-- IntAct -->
    <g transform="translate(516.083718 126.01107) scale(0.28 -0.28)">
     <defs>
      <path id="DejaVuSans-6e" d="M 3513 2113 
L 3513 0 
L 2938 0 
L 2938 2094 
Q 2938 2591 2744 2837 
Q 2550 3084 2163 3084 
Q 1697 3084 1428 2787 
Q 1159 2491 1159 1978 
L 1159 0 
L 581 0 
L 581 3500 
L 1159 3500 
L 1159 2956 
Q 1366 3272 1645 3428 
Q 1925 3584 2291 3584 
Q 2894 3584 3203 3211 
Q 3513 2838 3513 2113 
z
" transform="scale(0.015625)"/>
      <path id="DejaVuSans-74" d="M 1172 4494 
L 1172 3500 
L 2356 3500 
L 2356 3053 
L 1172 3053 
L 1172 1153 
Q 1172 725 1289 603 
Q 1406 481 1766 481 
L 2356 481 
L 2356 0 
L 1766 0 
Q 1100 0 847 248 
Q 594 497 594 1153 
L 594 3053 
L 172 3053 
L 172 3500 
L 594 3500 
L 594 4494 
L 1172 4494 
z
" transform="scale(0.015625)"/>
      <path id="DejaVuSans-41" d="M 2188 4044 
L 1331 1722 
L 3047 1722 
L 2188 4044 
z
M 1831 4666 
L 2547 4666 
L 4325 0 
L 3669 0 
L 3244 1197 
L 1141 1197 
L 716 0 
L 50 0 
L 1831 4666 
z
" transform="scale(0.015625)"/>
      <path id="DejaVuSans-63" d="M 3122 3366 
L 3122 2828 
Q 2878 2963 2633 3030 
Q 2388 3097 2138 3097 
Q 1578 3097 1268 2742 
Q 959 2388 959 1747 
Q 959 1106 1268 751 
Q 1578 397 2138 397 
Q 2388 397 2633 464 
Q 2878 531 3122 666 
L 3122 134 
Q 2881 22 2623 -34 
Q 2366 -91 2075 -91 
Q 1284 -91 818 406 
Q 353 903 353 1747 
Q 353 2603 823 3093 
Q 1294 3584 2113 3584 
Q 2378 3584 2631 3529 
Q 2884 3475 3122 3366 
z
" transform="scale(0.015625)"/>
     </defs>
     <use xlink:href="#DejaVuSans-49"/>
     <use xlink:href="#DejaVuSans-6e" x="29.492188"/>
     <use xlink:href="#DejaVuSans-74" x="92.871094"/>
     <use xlink:href="#DejaVuSans-41" x="132.080078"/>
     <use xlink:href="#DejaVuSans-63" x="198.738281"/>
     <use xlink:href="#DejaVuSans-74" x="253.71875"/>
    </g>
   </g>
   <g id="text_10">
    <!-- virhostnet -->
    <g transform="translate(324.525985 639.388908) scale(0.28 -0.28)">
     <defs>
      <path id="DejaVuSans-76" d="M 191 3500 
L 800 3500 
L 1894 563 
L 2988 3500 
L 3597 3500 
L 2284 0 
L 1503 0 
L 191 3500 
z
" transform="scale(0.015625)"/>
      <path id="DejaVuSans-69" d="M 603 3500 
L 1178 3500 
L 1178 0 
L 603 0 
L 603 3500 
z
M 603 4863 
L 1178 4863 
L 1178 4134 
L 603 4134 
L 603 4863 
z
" transform="scale(0.015625)"/>
      <path id="DejaVuSans-72" d="M 2631 2963 
Q 2534 3019 2420 3045 
Q 2306 3072 2169 3072 
Q 1681 3072 1420 2755 
Q 1159 2438 1159 1844 
L 1159 0 
L 581 0 
L 581 3500 
L 1159 3500 
L 1159 2956 
Q 1341 3275 1631 3429 
Q 1922 3584 2338 3584 
Q 2397 3584 2469 3576 
Q 2541 3569 2628 3553 
L 2631 2963 
z
" transform="scale(0.015625)"/>
      <path id="DejaVuSans-68" d="M 3513 2113 
L 3513 0 
L 2938 0 
L 2938 2094 
Q 2938 2591 2744 2837 
Q 2550 3084 2163 3084 
Q 1697 3084 1428 2787 
Q 1159 2491 1159 1978 
L 1159 0 
L 581 0 
L 581 4863 
L 1159 4863 
L 1159 2956 
Q 1366 3272 1645 3428 
Q 1925 3584 2291 3584 
Q 2894 3584 3203 3211 
Q 3513 2838 3513 2113 
z
" transform="scale(0.015625)"/>
      <path id="DejaVuSans-6f" d="M 1959 3097 
Q 1497 3097 1228 2736 
Q 959 2375 959 1747 
Q 959 1119 1226 758 
Q 1494 397 1959 397 
Q 2419 397 2687 759 
Q 2956 1122 2956 1747 
Q 2956 2369 2687 2733 
Q 2419 3097 1959 3097 
z
M 1959 3584 
Q 2709 3584 3137 3096 
Q 3566 2609 3566 1747 
Q 3566 888 3137 398 
Q 2709 -91 1959 -91 
Q 1206 -91 779 398 
Q 353 888 353 1747 
Q 353 2609 779 3096 
Q 1206 3584 1959 3584 
z
" transform="scale(0.015625)"/>
      <path id="DejaVuSans-73" d="M 2834 3397 
L 2834 2853 
Q 2591 2978 2328 3040 
Q 2066 3103 1784 3103 
Q 1356 3103 1142 2972 
Q 928 2841 928 2578 
Q 928 2378 1081 2264 
Q 1234 2150 1697 2047 
L 1894 2003 
Q 2506 1872 2764 1633 
Q 3022 1394 3022 966 
Q 3022 478 2636 193 
Q 2250 -91 1575 -91 
Q 1294 -91 989 -36 
Q 684 19 347 128 
L 347 722 
Q 666 556 975 473 
Q 1284 391 1588 391 
Q 1994 391 2212 530 
Q 2431 669 2431 922 
Q 2431 1156 2273 1281 
Q 2116 1406 1581 1522 
L 1381 1569 
Q 847 1681 609 1914 
Q 372 2147 372 2553 
Q 372 3047 722 3315 
Q 1072 3584 1716 3584 
Q 2034 3584 2315 3537 
Q 2597 3491 2834 3397 
z
" transform="scale(0.015625)"/>
      <path id="DejaVuSans-65" d="M 3597 1894 
L 3597 1613 
L 953 1613 
Q 991 1019 1311 708 
Q 1631 397 2203 397 
Q 2534 397 2845 478 
Q 3156 559 3463 722 
L 3463 178 
Q 3153 47 2828 -22 
Q 2503 -91 2169 -91 
Q 1331 -91 842 396 
Q 353 884 353 1716 
Q 353 2575 817 3079 
Q 1281 3584 2069 3584 
Q 2775 3584 3186 3129 
Q 3597 2675 3597 1894 
z
M 3022 2063 
Q 3016 2534 2758 2815 
Q 2500 3097 2075 3097 
Q 1594 3097 1305 2825 
Q 1016 2553 972 2059 
L 3022 2063 
z
" transform="scale(0.015625)"/>
     </defs>
     <use xlink:href="#DejaVuSans-76"/>
     <use xlink:href="#DejaVuSans-69" x="59.179688"/>
     <use xlink:href="#DejaVuSans-72" x="86.962891"/>
     <use xlink:href="#DejaVuSans-68" x="126.326172"/>
     <use xlink:href="#DejaVuSans-6f" x="189.705078"/>
     <use xlink:href="#DejaVuSans-73" x="250.886719"/>
     <use xlink:href="#DejaVuSans-74" x="302.986328"/>
     <use xlink:href="#DejaVuSans-6e" x="342.195312"/>
     <use xlink:href="#DejaVuSans-65" x="405.574219"/>
     <use xlink:href="#DejaVuSans-74" x="467.097656"/>
    </g>
   </g>
  </g>
 </g>
 <defs>
  <clipPath id="pe6e6ea4321">
   <rect x="101.769467" y="86.4" width="534.461067" height="554.4"/>
  </clipPath>
 </defs>
</svg>
