<?xml version="1.0" encoding="utf-8" standalone="no"?>
<!DOCTYPE svg PUBLIC "-//W3C//DTD SVG 1.1//EN"
  "http://www.w3.org/Graphics/SVG/1.1/DTD/svg11.dtd">
<svg xmlns:xlink="http://www.w3.org/1999/xlink" width="720pt" height="720pt" viewBox="0 0 720 720" xmlns="http://www.w3.org/2000/svg" version="1.1">
 <metadata>
  <rdf:RDF xmlns:dc="http://purl.org/dc/elements/1.1/" xmlns:cc="http://creativecommons.org/ns#" xmlns:rdf="http://www.w3.org/1999/02/22-rdf-syntax-ns#">
   <cc:Work>
    <dc:type rdf:resource="http://purl.org/dc/dcmitype/StillImage"/>
    <dc:date>2024-11-13T21:27:21.275612</dc:date>
    <dc:format>image/svg+xml</dc:format>
    <dc:creator>
     <cc:Agent>
      <dc:title>Matplotlib v3.8.1, https://matplotlib.org/</dc:title>
     </cc:Agent>
    </dc:creator>
   </cc:Work>
  </rdf:RDF>
 </metadata>
 <defs>
  <style type="text/css">*{stroke-linejoin: round; stroke-linecap: butt}</style>
 </defs>
 <g id="figure_1">
  <g id="patch_1">
   <path d="M 0 720 
L 720 720 
L 720 0 
L 0 0 
z
" style="fill: #ffffff"/>
  </g>
  <g id="axes_1">
   <g id="patch_2">
    <path d="M 289.786724 189.574291 
C 272.029783 187.145936 253.942314 189.615176 237.486019 196.714206 
C 221.029725 203.813236 206.82185 215.275784 196.403333 229.858663 
C 185.984815 244.441541 179.746434 261.597773 178.364781 279.466654 
C 176.983129 297.335535 180.510029 315.246835 188.562966 331.257958 
C 197.333158 318.972427 207.688125 307.899224 219.358817 298.32606 
C 231.02951 288.752896 243.913967 280.763407 257.677416 274.565181 
C 258.86184 259.237135 262.221282 244.155303 267.654613 229.773691 
C 273.087944 215.392078 280.540091 201.856458 289.786724 189.574291 
" clip-path="url(#p01cce9bc71)" style="fill: #ffff00; opacity: 0.6"/>
   </g>
   <g id="patch_3">
    <path d="M 289.786724 189.574291 
C 309.623749 192.287108 328.16783 200.991749 342.928455 214.519161 
C 357.68908 228.046572 367.974484 245.762785 372.403314 265.288471 
C 408.357671 274.921194 440.213458 296.009878 463.124051 325.346031 
C 486.034644 354.682184 498.776075 390.698565 499.40983 427.915544 
C 520.329826 416.012943 538.337958 399.598174 552.122208 379.867168 
C 565.906458 360.136162 575.123734 337.580025 579.102493 313.842131 
C 583.081252 290.104237 581.722462 265.775423 575.125121 242.628215 
C 568.52778 219.481007 556.856096 198.091541 540.960433 180.018189 
C 525.064771 161.944837 505.340774 147.637447 483.225474 138.138412 
C 461.110174 128.639377 437.154024 124.18513 413.102396 125.100193 
C 389.050768 126.015256 365.50231 132.276854 344.172693 143.428785 
C 322.843075 154.580716 304.263194 170.345407 289.786724 189.574291 
" clip-path="url(#p01cce9bc71)" style="fill: #0000ff; opacity: 0.6"/>
   </g>
   <g id="patch_4">
    <path d="M 289.786724 189.574291 
C 280.540091 201.856458 273.087944 215.392078 267.654613 229.773691 
C 262.221282 244.155303 258.86184 259.237135 257.677416 274.565181 
C 275.559025 266.512385 294.690895 261.588268 314.238304 260.007669 
C 333.785713 258.427069 353.460181 260.213315 372.403314 265.288471 
C 367.974484 245.762785 357.68908 228.046572 342.928455 214.519161 
C 328.16783 200.991749 309.623749 192.287108 289.786724 189.574291 
" clip-path="url(#p01cce9bc71)" style="fill: #b2b2b2; opacity: 0.6"/>
   </g>
   <g id="patch_5">
    <path d="M 188.562966 331.257958 
C 172.813165 353.320721 162.520264 378.808612 158.532457 405.621279 
C 154.54465 432.433947 156.974571 459.814084 165.62198 485.505406 
C 174.269389 511.196729 188.890046 534.473602 208.279122 553.417874 
C 227.668199 572.362147 251.278062 586.43875 277.163122 594.487689 
C 303.048182 602.536628 330.47733 604.330565 357.190245 599.72167 
C 383.903161 595.112775 409.145352 584.231224 430.836716 567.973718 
C 452.52808 551.716213 470.055957 530.541938 481.975947 506.195777 
C 493.895938 481.849615 499.871369 455.019211 499.40983 427.915544 
C 465.174953 447.393755 424.986304 453.738963 386.415655 445.755695 
C 347.845006 437.772427 313.476986 415.995644 289.786724 384.528215 
C 269.469995 387.306634 248.784149 383.66494 230.637767 374.115182 
C 212.491384 364.565423 197.776791 349.577197 188.562966 331.257958 
" clip-path="url(#p01cce9bc71)" style="fill: #ff0000; opacity: 0.6"/>
   </g>
   <g id="patch_6">
    <path d="M 188.562966 331.257958 
C 197.776791 349.577197 212.491384 364.565423 230.637767 374.115182 
C 248.784149 383.66494 269.469995 387.306634 289.786724 384.528215 
C 278.018015 368.896011 269.17699 351.260932 263.692438 332.47828 
C 258.207886 313.695628 256.169932 294.074046 257.677416 274.565181 
C 243.913967 280.763407 231.02951 288.752896 219.358817 298.32606 
C 207.688125 307.899224 197.333158 318.972427 188.562966 331.257958 
" clip-path="url(#p01cce9bc71)" style="fill: #ffb200; opacity: 0.6"/>
   </g>
   <g id="patch_7">
    <path d="M 372.403314 265.288471 
C 375.4208 278.591868 375.638722 292.37859 373.043204 305.770711 
C 370.447685 319.162831 365.095015 331.86992 357.326044 343.082802 
C 349.557074 354.295683 339.540288 363.771187 327.913544 370.905923 
C 316.286801 378.040658 303.302246 382.679897 289.786724 384.528215 
C 313.476986 415.995644 347.845006 437.772427 386.415655 445.755695 
C 424.986304 453.738963 465.174953 447.393755 499.40983 427.915544 
C 498.776075 390.698565 486.034644 354.682184 463.124051 325.346031 
C 440.213458 296.009878 408.357671 274.921194 372.403314 265.288471 
" clip-path="url(#p01cce9bc71)" style="fill: #b200b2; opacity: 0.6"/>
   </g>
   <g id="patch_8">
    <path d="M 257.677416 274.565181 
C 256.169932 294.074046 258.207886 313.695628 263.692438 332.47828 
C 269.17699 351.260932 278.018015 368.896011 289.786724 384.528215 
C 303.302246 382.679897 316.286801 378.040658 327.913544 370.905923 
C 339.540288 363.771187 349.557074 354.295683 357.326044 343.082802 
C 365.095015 331.86992 370.447685 319.162831 373.043204 305.770711 
C 375.638722 292.37859 375.4208 278.591868 372.403314 265.288471 
C 353.460181 260.213315 333.785713 258.427069 314.238304 260.007669 
C 294.690895 261.588268 275.559025 266.512385 257.677416 274.565181 
" clip-path="url(#p01cce9bc71)" style="fill: #cc6666; opacity: 0.6"/>
   </g>
   <g id="patch_9">
    <path d="M 276.456238 385.4355 
C 302.548045 385.4355 327.574712 375.069115 346.024406 356.619421 
C 364.4741 338.169727 374.840485 313.14306 374.840485 287.051253 
C 374.840485 260.959446 364.4741 235.932779 346.024406 217.483085 
C 327.574712 199.033391 302.548045 188.667006 276.456238 188.667006 
C 250.364431 188.667006 225.337764 199.033391 206.88807 217.483085 
C 188.438376 235.932779 178.071991 260.959446 178.071991 287.051253 
C 178.071991 313.14306 188.438376 338.169727 206.88807 356.619421 
C 225.337764 375.069115 250.364431 385.4355 276.456238 385.4355 
L 276.456238 385.4355 
z
" clip-path="url(#p01cce9bc71)" style="fill: none; stroke: #000000; stroke-width: 2; stroke-linejoin: miter"/>
   </g>
   <g id="patch_10">
    <path d="M 419.263951 449.119481 
C 462.244948 449.119481 503.47134 432.04295 533.863494 401.650796 
C 564.255648 371.258642 581.332179 330.032249 581.332179 287.051253 
C 581.332179 244.070256 564.255648 202.843864 533.863494 172.45171 
C 503.47134 142.059556 462.244948 124.983025 419.263951 124.983025 
C 376.282955 124.983025 335.056562 142.059556 304.664408 172.45171 
C 274.272254 202.843864 257.195723 244.070256 257.195723 287.051253 
C 257.195723 330.032249 274.272254 371.258642 304.664408 401.650796 
C 335.056562 432.04295 376.282955 449.119481 419.263951 449.119481 
L 419.263951 449.119481 
z
" clip-path="url(#p01cce9bc71)" style="fill: none; stroke: #000000; stroke-width: 2; stroke-linejoin: miter"/>
   </g>
   <g id="patch_11">
    <path d="M 328.051247 602.216975 
C 373.502663 602.216975 417.098626 584.158936 449.23763 552.019932 
C 481.376634 519.880927 499.434673 476.284965 499.434673 430.833549 
C 499.434673 385.382133 481.376634 341.78617 449.23763 309.647166 
C 417.098626 277.508162 373.502663 259.450123 328.051247 259.450123 
C 282.599831 259.450123 239.003869 277.508162 206.864864 309.647166 
C 174.72586 341.78617 156.667821 385.382133 156.667821 430.833549 
C 156.667821 476.284965 174.72586 519.880927 206.864864 552.019932 
C 239.003869 584.158936 282.599831 602.216975 328.051247 602.216975 
L 328.051247 602.216975 
z
" clip-path="url(#p01cce9bc71)" style="fill: none; stroke: #000000; stroke-width: 2; stroke-linejoin: miter"/>
   </g>
   <g id="text_1">
    <!-- 27 -->
    <g transform="translate(194.680368 248.623623) scale(0.28 -0.28)">
     <defs>
      <path id="DejaVuSans-32" d="M 1228 531 
L 3431 531 
L 3431 0 
L 469 0 
L 469 531 
Q 828 903 1448 1529 
Q 2069 2156 2228 2338 
Q 2531 2678 2651 2914 
Q 2772 3150 2772 3378 
Q 2772 3750 2511 3984 
Q 2250 4219 1831 4219 
Q 1534 4219 1204 4116 
Q 875 4013 500 3803 
L 500 4441 
Q 881 4594 1212 4672 
Q 1544 4750 1819 4750 
Q 2544 4750 2975 4387 
Q 3406 4025 3406 3419 
Q 3406 3131 3298 2873 
Q 3191 2616 2906 2266 
Q 2828 2175 2409 1742 
Q 1991 1309 1228 531 
z
" transform="scale(0.015625)"/>
      <path id="DejaVuSans-37" d="M 525 4666 
L 3525 4666 
L 3525 4397 
L 1831 0 
L 1172 0 
L 2766 4134 
L 525 4134 
L 525 4666 
z
" transform="scale(0.015625)"/>
     </defs>
     <use xlink:href="#DejaVuSans-32"/>
     <use xlink:href="#DejaVuSans-37" x="63.623047"/>
    </g>
   </g>
   <g id="text_2">
    <!-- 976 -->
    <g transform="translate(457.982817 225.667737) scale(0.28 -0.28)">
     <defs>
      <path id="DejaVuSans-39" d="M 703 97 
L 703 672 
Q 941 559 1184 500 
Q 1428 441 1663 441 
Q 2288 441 2617 861 
Q 2947 1281 2994 2138 
Q 2813 1869 2534 1725 
Q 2256 1581 1919 1581 
Q 1219 1581 811 2004 
Q 403 2428 403 3163 
Q 403 3881 828 4315 
Q 1253 4750 1959 4750 
Q 2769 4750 3195 4129 
Q 3622 3509 3622 2328 
Q 3622 1225 3098 567 
Q 2575 -91 1691 -91 
Q 1453 -91 1209 -44 
Q 966 3 703 97 
z
M 1959 2075 
Q 2384 2075 2632 2365 
Q 2881 2656 2881 3163 
Q 2881 3666 2632 3958 
Q 2384 4250 1959 4250 
Q 1534 4250 1286 3958 
Q 1038 3666 1038 3163 
Q 1038 2656 1286 2365 
Q 1534 2075 1959 2075 
z
" transform="scale(0.015625)"/>
      <path id="DejaVuSans-36" d="M 2113 2584 
Q 1688 2584 1439 2293 
Q 1191 2003 1191 1497 
Q 1191 994 1439 701 
Q 1688 409 2113 409 
Q 2538 409 2786 701 
Q 3034 994 3034 1497 
Q 3034 2003 2786 2293 
Q 2538 2584 2113 2584 
z
M 3366 4563 
L 3366 3988 
Q 3128 4100 2886 4159 
Q 2644 4219 2406 4219 
Q 1781 4219 1451 3797 
Q 1122 3375 1075 2522 
Q 1259 2794 1537 2939 
Q 1816 3084 2150 3084 
Q 2853 3084 3261 2657 
Q 3669 2231 3669 1497 
Q 3669 778 3244 343 
Q 2819 -91 2113 -91 
Q 1303 -91 875 529 
Q 447 1150 447 2328 
Q 447 3434 972 4092 
Q 1497 4750 2381 4750 
Q 2619 4750 2861 4703 
Q 3103 4656 3366 4563 
z
" transform="scale(0.015625)"/>
     </defs>
     <use xlink:href="#DejaVuSans-39"/>
     <use xlink:href="#DejaVuSans-37" x="63.623047"/>
     <use xlink:href="#DejaVuSans-36" x="127.246094"/>
    </g>
   </g>
   <g id="text_3">
    <!-- 21 -->
    <g transform="translate(299.790009 238.401123) scale(0.28 -0.28)">
     <defs>
      <path id="DejaVuSans-31" d="M 794 531 
L 1825 531 
L 1825 4091 
L 703 3866 
L 703 4441 
L 1819 4666 
L 2450 4666 
L 2450 531 
L 3481 531 
L 3481 0 
L 794 0 
L 794 531 
z
" transform="scale(0.015625)"/>
     </defs>
     <use xlink:href="#DejaVuSans-32"/>
     <use xlink:href="#DejaVuSans-31" x="63.623047"/>
    </g>
   </g>
   <g id="text_4">
    <!-- 1,468 -->
    <g transform="translate(252.543386 526.696118) scale(0.28 -0.28)">
     <defs>
      <path id="DejaVuSans-2c" d="M 750 794 
L 1409 794 
L 1409 256 
L 897 -744 
L 494 -744 
L 750 256 
L 750 794 
z
" transform="scale(0.015625)"/>
      <path id="DejaVuSans-34" d="M 2419 4116 
L 825 1625 
L 2419 1625 
L 2419 4116 
z
M 2253 4666 
L 3047 4666 
L 3047 1625 
L 3713 1625 
L 3713 1100 
L 3047 1100 
L 3047 0 
L 2419 0 
L 2419 1100 
L 313 1100 
L 313 1709 
L 2253 4666 
z
" transform="scale(0.015625)"/>
      <path id="DejaVuSans-38" d="M 2034 2216 
Q 1584 2216 1326 1975 
Q 1069 1734 1069 1313 
Q 1069 891 1326 650 
Q 1584 409 2034 409 
Q 2484 409 2743 651 
Q 3003 894 3003 1313 
Q 3003 1734 2745 1975 
Q 2488 2216 2034 2216 
z
M 1403 2484 
Q 997 2584 770 2862 
Q 544 3141 544 3541 
Q 544 4100 942 4425 
Q 1341 4750 2034 4750 
Q 2731 4750 3128 4425 
Q 3525 4100 3525 3541 
Q 3525 3141 3298 2862 
Q 3072 2584 2669 2484 
Q 3125 2378 3379 2068 
Q 3634 1759 3634 1313 
Q 3634 634 3220 271 
Q 2806 -91 2034 -91 
Q 1263 -91 848 271 
Q 434 634 434 1313 
Q 434 1759 690 2068 
Q 947 2378 1403 2484 
z
M 1172 3481 
Q 1172 3119 1398 2916 
Q 1625 2713 2034 2713 
Q 2441 2713 2670 2916 
Q 2900 3119 2900 3481 
Q 2900 3844 2670 4047 
Q 2441 4250 2034 4250 
Q 1625 4250 1398 4047 
Q 1172 3844 1172 3481 
z
" transform="scale(0.015625)"/>
     </defs>
     <use xlink:href="#DejaVuSans-31"/>
     <use xlink:href="#DejaVuSans-2c" x="63.623047"/>
     <use xlink:href="#DejaVuSans-34" x="95.410156"/>
     <use xlink:href="#DejaVuSans-36" x="159.033203"/>
     <use xlink:href="#DejaVuSans-38" x="222.65625"/>
    </g>
   </g>
   <g id="text_5">
    <!-- 21 -->
    <g transform="translate(220.020481 353.708862) scale(0.28 -0.28)">
     <use xlink:href="#DejaVuSans-32"/>
     <use xlink:href="#DejaVuSans-31" x="63.623047"/>
    </g>
   </g>
   <g id="text_6">
    <!-- 266 -->
    <g transform="translate(371.275768 379.31459) scale(0.28 -0.28)">
     <use xlink:href="#DejaVuSans-32"/>
     <use xlink:href="#DejaVuSans-36" x="63.623047"/>
     <use xlink:href="#DejaVuSans-36" x="127.246094"/>
    </g>
   </g>
   <g id="text_7">
    <!-- 59 -->
    <g transform="translate(307.815451 329.747445) scale(0.28 -0.28)">
     <defs>
      <path id="DejaVuSans-35" d="M 691 4666 
L 3169 4666 
L 3169 4134 
L 1269 4134 
L 1269 2991 
Q 1406 3038 1543 3061 
Q 1681 3084 1819 3084 
Q 2600 3084 3056 2656 
Q 3513 2228 3513 1497 
Q 3513 744 3044 326 
Q 2575 -91 1722 -91 
Q 1428 -91 1123 -41 
Q 819 9 494 109 
L 494 744 
Q 775 591 1075 516 
Q 1375 441 1709 441 
Q 2250 441 2565 725 
Q 2881 1009 2881 1497 
Q 2881 1984 2565 2268 
Q 2250 2553 1709 2553 
Q 1456 2553 1204 2497 
Q 953 2441 691 2322 
L 691 4666 
z
" transform="scale(0.015625)"/>
     </defs>
     <use xlink:href="#DejaVuSans-35"/>
     <use xlink:href="#DejaVuSans-39" x="63.623047"/>
    </g>
   </g>
   <g id="text_8">
    <!-- BIOGRID -->
    <g transform="translate(106.78099 188.667006) scale(0.28 -0.28)">
     <defs>
      <path id="DejaVuSans-42" d="M 1259 2228 
L 1259 519 
L 2272 519 
Q 2781 519 3026 730 
Q 3272 941 3272 1375 
Q 3272 1813 3026 2020 
Q 2781 2228 2272 2228 
L 1259 2228 
z
M 1259 4147 
L 1259 2741 
L 2194 2741 
Q 2656 2741 2882 2914 
Q 3109 3088 3109 3444 
Q 3109 3797 2882 3972 
Q 2656 4147 2194 4147 
L 1259 4147 
z
M 628 4666 
L 2241 4666 
Q 2963 4666 3353 4366 
Q 3744 4066 3744 3513 
Q 3744 3084 3544 2831 
Q 3344 2578 2956 2516 
Q 3422 2416 3680 2098 
Q 3938 1781 3938 1306 
Q 3938 681 3513 340 
Q 3088 0 2303 0 
L 628 0 
L 628 4666 
z
" transform="scale(0.015625)"/>
      <path id="DejaVuSans-49" d="M 628 4666 
L 1259 4666 
L 1259 0 
L 628 0 
L 628 4666 
z
" transform="scale(0.015625)"/>
      <path id="DejaVuSans-4f" d="M 2522 4238 
Q 1834 4238 1429 3725 
Q 1025 3213 1025 2328 
Q 1025 1447 1429 934 
Q 1834 422 2522 422 
Q 3209 422 3611 934 
Q 4013 1447 4013 2328 
Q 4013 3213 3611 3725 
Q 3209 4238 2522 4238 
z
M 2522 4750 
Q 3503 4750 4090 4092 
Q 4678 3434 4678 2328 
Q 4678 1225 4090 567 
Q 3503 -91 2522 -91 
Q 1538 -91 948 565 
Q 359 1222 359 2328 
Q 359 3434 948 4092 
Q 1538 4750 2522 4750 
z
" transform="scale(0.015625)"/>
      <path id="DejaVuSans-47" d="M 3809 666 
L 3809 1919 
L 2778 1919 
L 2778 2438 
L 4434 2438 
L 4434 434 
Q 4069 175 3628 42 
Q 3188 -91 2688 -91 
Q 1594 -91 976 548 
Q 359 1188 359 2328 
Q 359 3472 976 4111 
Q 1594 4750 2688 4750 
Q 3144 4750 3555 4637 
Q 3966 4525 4313 4306 
L 4313 3634 
Q 3963 3931 3569 4081 
Q 3175 4231 2741 4231 
Q 1884 4231 1454 3753 
Q 1025 3275 1025 2328 
Q 1025 1384 1454 906 
Q 1884 428 2741 428 
Q 3075 428 3337 486 
Q 3600 544 3809 666 
z
" transform="scale(0.015625)"/>
      <path id="DejaVuSans-52" d="M 2841 2188 
Q 3044 2119 3236 1894 
Q 3428 1669 3622 1275 
L 4263 0 
L 3584 0 
L 2988 1197 
Q 2756 1666 2539 1819 
Q 2322 1972 1947 1972 
L 1259 1972 
L 1259 0 
L 628 0 
L 628 4666 
L 2053 4666 
Q 2853 4666 3247 4331 
Q 3641 3997 3641 3322 
Q 3641 2881 3436 2590 
Q 3231 2300 2841 2188 
z
M 1259 4147 
L 1259 2491 
L 2053 2491 
Q 2509 2491 2742 2702 
Q 2975 2913 2975 3322 
Q 2975 3731 2742 3939 
Q 2509 4147 2053 4147 
L 1259 4147 
z
" transform="scale(0.015625)"/>
      <path id="DejaVuSans-44" d="M 1259 4147 
L 1259 519 
L 2022 519 
Q 2988 519 3436 956 
Q 3884 1394 3884 2338 
Q 3884 3275 3436 3711 
Q 2988 4147 2022 4147 
L 1259 4147 
z
M 628 4666 
L 1925 4666 
Q 3281 4666 3915 4102 
Q 4550 3538 4550 2338 
Q 4550 1131 3912 565 
Q 3275 0 1925 0 
L 628 0 
L 628 4666 
z
" transform="scale(0.015625)"/>
     </defs>
     <use xlink:href="#DejaVuSans-42"/>
     <use xlink:href="#DejaVuSans-49" x="68.603516"/>
     <use xlink:href="#DejaVuSans-4f" x="98.095703"/>
     <use xlink:href="#DejaVuSans-47" x="176.806641"/>
     <use xlink:href="#DejaVuSans-52" x="254.296875"/>
     <use xlink:href="#DejaVuSans-49" x="323.779297"/>
     <use xlink:href="#DejaVuSans-44" x="353.271484"/>
    </g>
   </g>
   <g id="text_9">
    <!-- IntAct -->
    <g transform="translate(500.298065 124.983025) scale(0.28 -0.28)">
     <defs>
      <path id="DejaVuSans-6e" d="M 3513 2113 
L 3513 0 
L 2938 0 
L 2938 2094 
Q 2938 2591 2744 2837 
Q 2550 3084 2163 3084 
Q 1697 3084 1428 2787 
Q 1159 2491 1159 1978 
L 1159 0 
L 581 0 
L 581 3500 
L 1159 3500 
L 1159 2956 
Q 1366 3272 1645 3428 
Q 1925 3584 2291 3584 
Q 2894 3584 3203 3211 
Q 3513 2838 3513 2113 
z
" transform="scale(0.015625)"/>
      <path id="DejaVuSans-74" d="M 1172 4494 
L 1172 3500 
L 2356 3500 
L 2356 3053 
L 1172 3053 
L 1172 1153 
Q 1172 725 1289 603 
Q 1406 481 1766 481 
L 2356 481 
L 2356 0 
L 1766 0 
Q 1100 0 847 248 
Q 594 497 594 1153 
L 594 3053 
L 172 3053 
L 172 3500 
L 594 3500 
L 594 4494 
L 1172 4494 
z
" transform="scale(0.015625)"/>
      <path id="DejaVuSans-41" d="M 2188 4044 
L 1331 1722 
L 3047 1722 
L 2188 4044 
z
M 1831 4666 
L 2547 4666 
L 4325 0 
L 3669 0 
L 3244 1197 
L 1141 1197 
L 716 0 
L 50 0 
L 1831 4666 
z
" transform="scale(0.015625)"/>
      <path id="DejaVuSans-63" d="M 3122 3366 
L 3122 2828 
Q 2878 2963 2633 3030 
Q 2388 3097 2138 3097 
Q 1578 3097 1268 2742 
Q 959 2388 959 1747 
Q 959 1106 1268 751 
Q 1578 397 2138 397 
Q 2388 397 2633 464 
Q 2878 531 3122 666 
L 3122 134 
Q 2881 22 2623 -34 
Q 2366 -91 2075 -91 
Q 1284 -91 818 406 
Q 353 903 353 1747 
Q 353 2603 823 3093 
Q 1294 3584 2113 3584 
Q 2378 3584 2631 3529 
Q 2884 3475 3122 3366 
z
" transform="scale(0.015625)"/>
     </defs>
     <use xlink:href="#DejaVuSans-49"/>
     <use xlink:href="#DejaVuSans-6e" x="29.492188"/>
     <use xlink:href="#DejaVuSans-74" x="92.871094"/>
     <use xlink:href="#DejaVuSans-41" x="132.080078"/>
     <use xlink:href="#DejaVuSans-63" x="198.738281"/>
     <use xlink:href="#DejaVuSans-74" x="253.71875"/>
    </g>
   </g>
   <g id="text_10">
    <!-- virhostnet -->
    <g transform="translate(257.169685 640.630943) scale(0.28 -0.28)">
     <defs>
      <path id="DejaVuSans-76" d="M 191 3500 
L 800 3500 
L 1894 563 
L 2988 3500 
L 3597 3500 
L 2284 0 
L 1503 0 
L 191 3500 
z
" transform="scale(0.015625)"/>
      <path id="DejaVuSans-69" d="M 603 3500 
L 1178 3500 
L 1178 0 
L 603 0 
L 603 3500 
z
M 603 4863 
L 1178 4863 
L 1178 4134 
L 603 4134 
L 603 4863 
z
" transform="scale(0.015625)"/>
      <path id="DejaVuSans-72" d="M 2631 2963 
Q 2534 3019 2420 3045 
Q 2306 3072 2169 3072 
Q 1681 3072 1420 2755 
Q 1159 2438 1159 1844 
L 1159 0 
L 581 0 
L 581 3500 
L 1159 3500 
L 1159 2956 
Q 1341 3275 1631 3429 
Q 1922 3584 2338 3584 
Q 2397 3584 2469 3576 
Q 2541 3569 2628 3553 
L 2631 2963 
z
" transform="scale(0.015625)"/>
      <path id="DejaVuSans-68" d="M 3513 2113 
L 3513 0 
L 2938 0 
L 2938 2094 
Q 2938 2591 2744 2837 
Q 2550 3084 2163 3084 
Q 1697 3084 1428 2787 
Q 1159 2491 1159 1978 
L 1159 0 
L 581 0 
L 581 4863 
L 1159 4863 
L 1159 2956 
Q 1366 3272 1645 3428 
Q 1925 3584 2291 3584 
Q 2894 3584 3203 3211 
Q 3513 2838 3513 2113 
z
" transform="scale(0.015625)"/>
      <path id="DejaVuSans-6f" d="M 1959 3097 
Q 1497 3097 1228 2736 
Q 959 2375 959 1747 
Q 959 1119 1226 758 
Q 1494 397 1959 397 
Q 2419 397 2687 759 
Q 2956 1122 2956 1747 
Q 2956 2369 2687 2733 
Q 2419 3097 1959 3097 
z
M 1959 3584 
Q 2709 3584 3137 3096 
Q 3566 2609 3566 1747 
Q 3566 888 3137 398 
Q 2709 -91 1959 -91 
Q 1206 -91 779 398 
Q 353 888 353 1747 
Q 353 2609 779 3096 
Q 1206 3584 1959 3584 
z
" transform="scale(0.015625)"/>
      <path id="DejaVuSans-73" d="M 2834 3397 
L 2834 2853 
Q 2591 2978 2328 3040 
Q 2066 3103 1784 3103 
Q 1356 3103 1142 2972 
Q 928 2841 928 2578 
Q 928 2378 1081 2264 
Q 1234 2150 1697 2047 
L 1894 2003 
Q 2506 1872 2764 1633 
Q 3022 1394 3022 966 
Q 3022 478 2636 193 
Q 2250 -91 1575 -91 
Q 1294 -91 989 -36 
Q 684 19 347 128 
L 347 722 
Q 666 556 975 473 
Q 1284 391 1588 391 
Q 1994 391 2212 530 
Q 2431 669 2431 922 
Q 2431 1156 2273 1281 
Q 2116 1406 1581 1522 
L 1381 1569 
Q 847 1681 609 1914 
Q 372 2147 372 2553 
Q 372 3047 722 3315 
Q 1072 3584 1716 3584 
Q 2034 3584 2315 3537 
Q 2597 3491 2834 3397 
z
" transform="scale(0.015625)"/>
      <path id="DejaVuSans-65" d="M 3597 1894 
L 3597 1613 
L 953 1613 
Q 991 1019 1311 708 
Q 1631 397 2203 397 
Q 2534 397 2845 478 
Q 3156 559 3463 722 
L 3463 178 
Q 3153 47 2828 -22 
Q 2503 -91 2169 -91 
Q 1331 -91 842 396 
Q 353 884 353 1716 
Q 353 2575 817 3079 
Q 1281 3584 2069 3584 
Q 2775 3584 3186 3129 
Q 3597 2675 3597 1894 
z
M 3022 2063 
Q 3016 2534 2758 2815 
Q 2500 3097 2075 3097 
Q 1594 3097 1305 2825 
Q 1016 2553 972 2059 
L 3022 2063 
z
" transform="scale(0.015625)"/>
     </defs>
     <use xlink:href="#DejaVuSans-76"/>
     <use xlink:href="#DejaVuSans-69" x="59.179688"/>
     <use xlink:href="#DejaVuSans-72" x="86.962891"/>
     <use xlink:href="#DejaVuSans-68" x="126.326172"/>
     <use xlink:href="#DejaVuSans-6f" x="189.705078"/>
     <use xlink:href="#DejaVuSans-73" x="250.886719"/>
     <use xlink:href="#DejaVuSans-74" x="302.986328"/>
     <use xlink:href="#DejaVuSans-6e" x="342.195312"/>
     <use xlink:href="#DejaVuSans-65" x="405.574219"/>
     <use xlink:href="#DejaVuSans-74" x="467.097656"/>
    </g>
   </g>
  </g>
 </g>
 <defs>
  <clipPath id="p01cce9bc71">
   <rect x="118.084796" y="86.4" width="501.830408" height="554.4"/>
  </clipPath>
 </defs>
</svg>
