<?xml version="1.0" encoding="utf-8" standalone="no"?>
<!DOCTYPE svg PUBLIC "-//W3C//DTD SVG 1.1//EN"
  "http://www.w3.org/Graphics/SVG/1.1/DTD/svg11.dtd">
<!-- Created with matplotlib (https://matplotlib.org/) -->
<svg height="374.41625pt" version="1.1" viewBox="0 0 415.546875 374.41625" width="415.546875pt" xmlns="http://www.w3.org/2000/svg" xmlns:xlink="http://www.w3.org/1999/xlink">
 <defs>
  <style type="text/css">
*{stroke-linecap:butt;stroke-linejoin:round;}
  </style>
 </defs>
 <g id="figure_1">
  <g id="patch_1">
   <path d="M 0 374.41625 
L 415.546875 374.41625 
L 415.546875 0 
L 0 0 
z
" style="fill:#ffffff;"/>
  </g>
  <g id="axes_1">
   <g id="patch_2">
    <path d="M 70.046875 336.86 
L 404.846875 336.86 
L 404.846875 10.7 
L 70.046875 10.7 
z
" style="fill:#ffffff;"/>
   </g>
   <g id="PolyCollection_1">
    <defs>
     <path d="M 21.012002 -92.814762 
L 21.012002 -52.381705 
L 404.846875 -52.381705 
L 404.846875 -92.814762 
L 404.846875 -92.814762 
L 21.012002 -92.814762 
z
" id="m45138db485"/>
    </defs>
    <g>
     <use style="fill:#800080;fill-opacity:0.1;" x="0" xlink:href="#m45138db485" y="374.41625"/>
    </g>
   </g>
   <g id="PolyCollection_2">
    <defs>
     <path d="M 21.012002 -146.725506 
L 21.012002 -92.814762 
L 404.846875 -92.814762 
L 404.846875 -146.725506 
L 404.846875 -146.725506 
L 21.012002 -146.725506 
z
" id="ma6f4ad0238"/>
    </defs>
    <g>
     <use style="fill:#00ffff;fill-opacity:0.1;" x="0" xlink:href="#ma6f4ad0238" y="374.41625"/>
    </g>
   </g>
   <g id="PolyCollection_3">
    <defs>
     <path d="M 21.012002 -214.113936 
L 21.012002 -146.725506 
L 404.846875 -146.725506 
L 404.846875 -214.113936 
L 404.846875 -214.113936 
L 21.012002 -214.113936 
z
" id="ma35dbfbd22"/>
    </defs>
    <g>
     <use style="fill:#008000;fill-opacity:0.1;" x="0" xlink:href="#ma35dbfbd22" y="374.41625"/>
    </g>
   </g>
   <g id="PolyCollection_4">
    <defs>
     <path d="M 21.012002 -268.02468 
L 21.012002 -214.113936 
L 404.846875 -214.113936 
L 404.846875 -268.02468 
L 404.846875 -268.02468 
L 21.012002 -268.02468 
z
" id="m4d91f3ebf3"/>
    </defs>
    <g>
     <use style="fill:#ffff00;fill-opacity:0.1;" x="0" xlink:href="#m4d91f3ebf3" y="374.41625"/>
    </g>
   </g>
   <g id="PolyCollection_5">
    <defs>
     <path d="M 21.012002 -321.935424 
L 21.012002 -268.02468 
L 404.846875 -268.02468 
L 404.846875 -321.935424 
L 404.846875 -321.935424 
L 21.012002 -321.935424 
z
" id="me17d2ddd8d"/>
    </defs>
    <g>
     <use style="fill:#ffa500;fill-opacity:0.1;" x="0" xlink:href="#me17d2ddd8d" y="374.41625"/>
    </g>
   </g>
   <g id="PolyCollection_6">
    <defs>
     <path d="M 21.012002 -348.890795 
L 21.012002 -321.935424 
L 404.846875 -321.935424 
L 404.846875 -348.890795 
L 404.846875 -348.890795 
L 21.012002 -348.890795 
z
" id="me9050a0e14"/>
    </defs>
    <g>
     <use style="fill:#ff0000;fill-opacity:0.1;" x="0" xlink:href="#me9050a0e14" y="374.41625"/>
    </g>
   </g>
   <g id="patch_3">
    <path clip-path="url(#pe46fc45118)" d="M 244.01137 319.339008 
L 273.172717 319.339008 
L 273.172717 297.774711 
L 244.01137 297.774711 
z
" style="fill:#ff0000;"/>
   </g>
   <g id="patch_4">
    <path clip-path="url(#pe46fc45118)" d="M 244.01137 292.383636 
L 345.171802 292.383636 
L 345.171802 270.819339 
L 244.01137 270.819339 
z
" style="fill:#ff0000;"/>
   </g>
   <g id="patch_5">
    <path clip-path="url(#pe46fc45118)" d="M 244.01137 265.428264 
L 305.56889 265.428264 
L 305.56889 243.863967 
L 244.01137 243.863967 
z
" style="fill:#ff0000;"/>
   </g>
   <g id="patch_6">
    <path clip-path="url(#pe46fc45118)" d="M 244.01137 238.472893 
L 257.37196 238.472893 
L 257.37196 216.908595 
L 244.01137 216.908595 
z
" style="fill:#ff0000;"/>
   </g>
   <g id="patch_7">
    <path clip-path="url(#pe46fc45118)" d="M 244.01137 211.517521 
L 185.114329 211.517521 
L 185.114329 189.953223 
L 244.01137 189.953223 
z
" style="fill:#add8e6;"/>
   </g>
   <g id="patch_8">
    <path clip-path="url(#pe46fc45118)" d="M 244.01137 184.562149 
L 195.642747 184.562149 
L 195.642747 162.997851 
L 244.01137 162.997851 
z
" style="fill:#add8e6;"/>
   </g>
   <g id="patch_9">
    <path clip-path="url(#pe46fc45118)" d="M 244.01137 157.606777 
L 85.265057 157.606777 
L 85.265057 136.042479 
L 244.01137 136.042479 
z
" style="fill:#add8e6;"/>
   </g>
   <g id="patch_10">
    <path clip-path="url(#pe46fc45118)" d="M 244.01137 130.651405 
L 172.355867 130.651405 
L 172.355867 109.087107 
L 244.01137 109.087107 
z
" style="fill:#add8e6;"/>
   </g>
   <g id="patch_11">
    <path clip-path="url(#pe46fc45118)" d="M 244.01137 103.696033 
L 228.175892 103.696033 
L 228.175892 82.131736 
L 244.01137 82.131736 
z
" style="fill:#add8e6;"/>
   </g>
   <g id="patch_12">
    <path clip-path="url(#pe46fc45118)" d="M 244.01137 76.740661 
L 310.368943 76.740661 
L 310.368943 55.176364 
L 244.01137 55.176364 
z
" style="fill:#ff0000;"/>
   </g>
   <g id="patch_13">
    <path clip-path="url(#pe46fc45118)" d="M 244.01137 49.785289 
L 389.628693 49.785289 
L 389.628693 28.220992 
L 244.01137 28.220992 
z
" style="fill:#ff0000;"/>
   </g>
   <g id="matplotlib.axis_1">
    <g id="xtick_1">
     <g id="line2d_1">
      <defs>
       <path d="M 0 0 
L 0 3.5 
" id="m6967eac64f" style="stroke:#000000;stroke-width:0.8;"/>
      </defs>
      <g>
       <use style="stroke:#000000;stroke-width:0.8;" x="91.966346" xlink:href="#m6967eac64f" y="336.86"/>
      </g>
     </g>
     <g id="text_1">
      <!-- −0.3 -->
      <defs>
       <path d="M 10.59375 35.5 
L 73.1875 35.5 
L 73.1875 27.203125 
L 10.59375 27.203125 
z
" id="DejaVuSans-8722"/>
       <path d="M 31.78125 66.40625 
Q 24.171875 66.40625 20.328125 58.90625 
Q 16.5 51.421875 16.5 36.375 
Q 16.5 21.390625 20.328125 13.890625 
Q 24.171875 6.390625 31.78125 6.390625 
Q 39.453125 6.390625 43.28125 13.890625 
Q 47.125 21.390625 47.125 36.375 
Q 47.125 51.421875 43.28125 58.90625 
Q 39.453125 66.40625 31.78125 66.40625 
z
M 31.78125 74.21875 
Q 44.046875 74.21875 50.515625 64.515625 
Q 56.984375 54.828125 56.984375 36.375 
Q 56.984375 17.96875 50.515625 8.265625 
Q 44.046875 -1.421875 31.78125 -1.421875 
Q 19.53125 -1.421875 13.0625 8.265625 
Q 6.59375 17.96875 6.59375 36.375 
Q 6.59375 54.828125 13.0625 64.515625 
Q 19.53125 74.21875 31.78125 74.21875 
z
" id="DejaVuSans-48"/>
       <path d="M 10.6875 12.40625 
L 21 12.40625 
L 21 0 
L 10.6875 0 
z
" id="DejaVuSans-46"/>
       <path d="M 40.578125 39.3125 
Q 47.65625 37.796875 51.625 33 
Q 55.609375 28.21875 55.609375 21.1875 
Q 55.609375 10.40625 48.1875 4.484375 
Q 40.765625 -1.421875 27.09375 -1.421875 
Q 22.515625 -1.421875 17.65625 -0.515625 
Q 12.796875 0.390625 7.625 2.203125 
L 7.625 11.71875 
Q 11.71875 9.328125 16.59375 8.109375 
Q 21.484375 6.890625 26.8125 6.890625 
Q 36.078125 6.890625 40.9375 10.546875 
Q 45.796875 14.203125 45.796875 21.1875 
Q 45.796875 27.640625 41.28125 31.265625 
Q 36.765625 34.90625 28.71875 34.90625 
L 20.21875 34.90625 
L 20.21875 43.015625 
L 29.109375 43.015625 
Q 36.375 43.015625 40.234375 45.921875 
Q 44.09375 48.828125 44.09375 54.296875 
Q 44.09375 59.90625 40.109375 62.90625 
Q 36.140625 65.921875 28.71875 65.921875 
Q 24.65625 65.921875 20.015625 65.03125 
Q 15.375 64.15625 9.8125 62.3125 
L 9.8125 71.09375 
Q 15.4375 72.65625 20.34375 73.4375 
Q 25.25 74.21875 29.59375 74.21875 
Q 40.828125 74.21875 47.359375 69.109375 
Q 53.90625 64.015625 53.90625 55.328125 
Q 53.90625 49.265625 50.4375 45.09375 
Q 46.96875 40.921875 40.578125 39.3125 
z
" id="DejaVuSans-51"/>
      </defs>
      <g transform="translate(79.82494 351.458437)scale(0.1 -0.1)">
       <use xlink:href="#DejaVuSans-8722"/>
       <use x="83.789062" xlink:href="#DejaVuSans-48"/>
       <use x="147.412109" xlink:href="#DejaVuSans-46"/>
       <use x="179.199219" xlink:href="#DejaVuSans-51"/>
      </g>
     </g>
    </g>
    <g id="xtick_2">
     <g id="line2d_2">
      <g>
       <use style="stroke:#000000;stroke-width:0.8;" x="142.648021" xlink:href="#m6967eac64f" y="336.86"/>
      </g>
     </g>
     <g id="text_2">
      <!-- −0.2 -->
      <defs>
       <path d="M 19.1875 8.296875 
L 53.609375 8.296875 
L 53.609375 0 
L 7.328125 0 
L 7.328125 8.296875 
Q 12.9375 14.109375 22.625 23.890625 
Q 32.328125 33.6875 34.8125 36.53125 
Q 39.546875 41.84375 41.421875 45.53125 
Q 43.3125 49.21875 43.3125 52.78125 
Q 43.3125 58.59375 39.234375 62.25 
Q 35.15625 65.921875 28.609375 65.921875 
Q 23.96875 65.921875 18.8125 64.3125 
Q 13.671875 62.703125 7.8125 59.421875 
L 7.8125 69.390625 
Q 13.765625 71.78125 18.9375 73 
Q 24.125 74.21875 28.421875 74.21875 
Q 39.75 74.21875 46.484375 68.546875 
Q 53.21875 62.890625 53.21875 53.421875 
Q 53.21875 48.921875 51.53125 44.890625 
Q 49.859375 40.875 45.40625 35.40625 
Q 44.1875 33.984375 37.640625 27.21875 
Q 31.109375 20.453125 19.1875 8.296875 
z
" id="DejaVuSans-50"/>
      </defs>
      <g transform="translate(130.506615 351.458437)scale(0.1 -0.1)">
       <use xlink:href="#DejaVuSans-8722"/>
       <use x="83.789062" xlink:href="#DejaVuSans-48"/>
       <use x="147.412109" xlink:href="#DejaVuSans-46"/>
       <use x="179.199219" xlink:href="#DejaVuSans-50"/>
      </g>
     </g>
    </g>
    <g id="xtick_3">
     <g id="line2d_3">
      <g>
       <use style="stroke:#000000;stroke-width:0.8;" x="193.329695" xlink:href="#m6967eac64f" y="336.86"/>
      </g>
     </g>
     <g id="text_3">
      <!-- −0.1 -->
      <defs>
       <path d="M 12.40625 8.296875 
L 28.515625 8.296875 
L 28.515625 63.921875 
L 10.984375 60.40625 
L 10.984375 69.390625 
L 28.421875 72.90625 
L 38.28125 72.90625 
L 38.28125 8.296875 
L 54.390625 8.296875 
L 54.390625 0 
L 12.40625 0 
z
" id="DejaVuSans-49"/>
      </defs>
      <g transform="translate(181.188289 351.458437)scale(0.1 -0.1)">
       <use xlink:href="#DejaVuSans-8722"/>
       <use x="83.789062" xlink:href="#DejaVuSans-48"/>
       <use x="147.412109" xlink:href="#DejaVuSans-46"/>
       <use x="179.199219" xlink:href="#DejaVuSans-49"/>
      </g>
     </g>
    </g>
    <g id="xtick_4">
     <g id="line2d_4">
      <g>
       <use style="stroke:#000000;stroke-width:0.8;" x="244.01137" xlink:href="#m6967eac64f" y="336.86"/>
      </g>
     </g>
     <g id="text_4">
      <!-- 0.0 -->
      <g transform="translate(236.059807 351.458437)scale(0.1 -0.1)">
       <use xlink:href="#DejaVuSans-48"/>
       <use x="63.623047" xlink:href="#DejaVuSans-46"/>
       <use x="95.410156" xlink:href="#DejaVuSans-48"/>
      </g>
     </g>
    </g>
    <g id="xtick_5">
     <g id="line2d_5">
      <g>
       <use style="stroke:#000000;stroke-width:0.8;" x="294.693044" xlink:href="#m6967eac64f" y="336.86"/>
      </g>
     </g>
     <g id="text_5">
      <!-- 0.1 -->
      <g transform="translate(286.741482 351.458437)scale(0.1 -0.1)">
       <use xlink:href="#DejaVuSans-48"/>
       <use x="63.623047" xlink:href="#DejaVuSans-46"/>
       <use x="95.410156" xlink:href="#DejaVuSans-49"/>
      </g>
     </g>
    </g>
    <g id="xtick_6">
     <g id="line2d_6">
      <g>
       <use style="stroke:#000000;stroke-width:0.8;" x="345.374719" xlink:href="#m6967eac64f" y="336.86"/>
      </g>
     </g>
     <g id="text_6">
      <!-- 0.2 -->
      <g transform="translate(337.423156 351.458437)scale(0.1 -0.1)">
       <use xlink:href="#DejaVuSans-48"/>
       <use x="63.623047" xlink:href="#DejaVuSans-46"/>
       <use x="95.410156" xlink:href="#DejaVuSans-50"/>
      </g>
     </g>
    </g>
    <g id="xtick_7">
     <g id="line2d_7">
      <g>
       <use style="stroke:#000000;stroke-width:0.8;" x="396.056393" xlink:href="#m6967eac64f" y="336.86"/>
      </g>
     </g>
     <g id="text_7">
      <!-- 0.3 -->
      <g transform="translate(388.104831 351.458437)scale(0.1 -0.1)">
       <use xlink:href="#DejaVuSans-48"/>
       <use x="63.623047" xlink:href="#DejaVuSans-46"/>
       <use x="95.410156" xlink:href="#DejaVuSans-51"/>
      </g>
     </g>
    </g>
    <g id="text_8">
     <!-- Adjusted NMI score -->
     <defs>
      <path d="M 34.1875 63.1875 
L 20.796875 26.90625 
L 47.609375 26.90625 
z
M 28.609375 72.90625 
L 39.796875 72.90625 
L 67.578125 0 
L 57.328125 0 
L 50.6875 18.703125 
L 17.828125 18.703125 
L 11.1875 0 
L 0.78125 0 
z
" id="DejaVuSans-65"/>
      <path d="M 45.40625 46.390625 
L 45.40625 75.984375 
L 54.390625 75.984375 
L 54.390625 0 
L 45.40625 0 
L 45.40625 8.203125 
Q 42.578125 3.328125 38.25 0.953125 
Q 33.9375 -1.421875 27.875 -1.421875 
Q 17.96875 -1.421875 11.734375 6.484375 
Q 5.515625 14.40625 5.515625 27.296875 
Q 5.515625 40.1875 11.734375 48.09375 
Q 17.96875 56 27.875 56 
Q 33.9375 56 38.25 53.625 
Q 42.578125 51.265625 45.40625 46.390625 
z
M 14.796875 27.296875 
Q 14.796875 17.390625 18.875 11.75 
Q 22.953125 6.109375 30.078125 6.109375 
Q 37.203125 6.109375 41.296875 11.75 
Q 45.40625 17.390625 45.40625 27.296875 
Q 45.40625 37.203125 41.296875 42.84375 
Q 37.203125 48.484375 30.078125 48.484375 
Q 22.953125 48.484375 18.875 42.84375 
Q 14.796875 37.203125 14.796875 27.296875 
z
" id="DejaVuSans-100"/>
      <path d="M 9.421875 54.6875 
L 18.40625 54.6875 
L 18.40625 -0.984375 
Q 18.40625 -11.421875 14.421875 -16.109375 
Q 10.453125 -20.796875 1.609375 -20.796875 
L -1.8125 -20.796875 
L -1.8125 -13.1875 
L 0.59375 -13.1875 
Q 5.71875 -13.1875 7.5625 -10.8125 
Q 9.421875 -8.453125 9.421875 -0.984375 
z
M 9.421875 75.984375 
L 18.40625 75.984375 
L 18.40625 64.59375 
L 9.421875 64.59375 
z
" id="DejaVuSans-106"/>
      <path d="M 8.5 21.578125 
L 8.5 54.6875 
L 17.484375 54.6875 
L 17.484375 21.921875 
Q 17.484375 14.15625 20.5 10.265625 
Q 23.53125 6.390625 29.59375 6.390625 
Q 36.859375 6.390625 41.078125 11.03125 
Q 45.3125 15.671875 45.3125 23.6875 
L 45.3125 54.6875 
L 54.296875 54.6875 
L 54.296875 0 
L 45.3125 0 
L 45.3125 8.40625 
Q 42.046875 3.421875 37.71875 1 
Q 33.40625 -1.421875 27.6875 -1.421875 
Q 18.265625 -1.421875 13.375 4.4375 
Q 8.5 10.296875 8.5 21.578125 
z
M 31.109375 56 
z
" id="DejaVuSans-117"/>
      <path d="M 44.28125 53.078125 
L 44.28125 44.578125 
Q 40.484375 46.53125 36.375 47.5 
Q 32.28125 48.484375 27.875 48.484375 
Q 21.1875 48.484375 17.84375 46.4375 
Q 14.5 44.390625 14.5 40.28125 
Q 14.5 37.15625 16.890625 35.375 
Q 19.28125 33.59375 26.515625 31.984375 
L 29.59375 31.296875 
Q 39.15625 29.25 43.1875 25.515625 
Q 47.21875 21.78125 47.21875 15.09375 
Q 47.21875 7.46875 41.1875 3.015625 
Q 35.15625 -1.421875 24.609375 -1.421875 
Q 20.21875 -1.421875 15.453125 -0.5625 
Q 10.6875 0.296875 5.421875 2 
L 5.421875 11.28125 
Q 10.40625 8.6875 15.234375 7.390625 
Q 20.0625 6.109375 24.8125 6.109375 
Q 31.15625 6.109375 34.5625 8.28125 
Q 37.984375 10.453125 37.984375 14.40625 
Q 37.984375 18.0625 35.515625 20.015625 
Q 33.0625 21.96875 24.703125 23.78125 
L 21.578125 24.515625 
Q 13.234375 26.265625 9.515625 29.90625 
Q 5.8125 33.546875 5.8125 39.890625 
Q 5.8125 47.609375 11.28125 51.796875 
Q 16.75 56 26.8125 56 
Q 31.78125 56 36.171875 55.265625 
Q 40.578125 54.546875 44.28125 53.078125 
z
" id="DejaVuSans-115"/>
      <path d="M 18.3125 70.21875 
L 18.3125 54.6875 
L 36.8125 54.6875 
L 36.8125 47.703125 
L 18.3125 47.703125 
L 18.3125 18.015625 
Q 18.3125 11.328125 20.140625 9.421875 
Q 21.96875 7.515625 27.59375 7.515625 
L 36.8125 7.515625 
L 36.8125 0 
L 27.59375 0 
Q 17.1875 0 13.234375 3.875 
Q 9.28125 7.765625 9.28125 18.015625 
L 9.28125 47.703125 
L 2.6875 47.703125 
L 2.6875 54.6875 
L 9.28125 54.6875 
L 9.28125 70.21875 
z
" id="DejaVuSans-116"/>
      <path d="M 56.203125 29.59375 
L 56.203125 25.203125 
L 14.890625 25.203125 
Q 15.484375 15.921875 20.484375 11.0625 
Q 25.484375 6.203125 34.421875 6.203125 
Q 39.59375 6.203125 44.453125 7.46875 
Q 49.3125 8.734375 54.109375 11.28125 
L 54.109375 2.78125 
Q 49.265625 0.734375 44.1875 -0.34375 
Q 39.109375 -1.421875 33.890625 -1.421875 
Q 20.796875 -1.421875 13.15625 6.1875 
Q 5.515625 13.8125 5.515625 26.8125 
Q 5.515625 40.234375 12.765625 48.109375 
Q 20.015625 56 32.328125 56 
Q 43.359375 56 49.78125 48.890625 
Q 56.203125 41.796875 56.203125 29.59375 
z
M 47.21875 32.234375 
Q 47.125 39.59375 43.09375 43.984375 
Q 39.0625 48.390625 32.421875 48.390625 
Q 24.90625 48.390625 20.390625 44.140625 
Q 15.875 39.890625 15.1875 32.171875 
z
" id="DejaVuSans-101"/>
      <path id="DejaVuSans-32"/>
      <path d="M 9.8125 72.90625 
L 23.09375 72.90625 
L 55.421875 11.921875 
L 55.421875 72.90625 
L 64.984375 72.90625 
L 64.984375 0 
L 51.703125 0 
L 19.390625 60.984375 
L 19.390625 0 
L 9.8125 0 
z
" id="DejaVuSans-78"/>
      <path d="M 9.8125 72.90625 
L 24.515625 72.90625 
L 43.109375 23.296875 
L 61.8125 72.90625 
L 76.515625 72.90625 
L 76.515625 0 
L 66.890625 0 
L 66.890625 64.015625 
L 48.09375 14.015625 
L 38.1875 14.015625 
L 19.390625 64.015625 
L 19.390625 0 
L 9.8125 0 
z
" id="DejaVuSans-77"/>
      <path d="M 9.8125 72.90625 
L 19.671875 72.90625 
L 19.671875 0 
L 9.8125 0 
z
" id="DejaVuSans-73"/>
      <path d="M 48.78125 52.59375 
L 48.78125 44.1875 
Q 44.96875 46.296875 41.140625 47.34375 
Q 37.3125 48.390625 33.40625 48.390625 
Q 24.65625 48.390625 19.8125 42.84375 
Q 14.984375 37.3125 14.984375 27.296875 
Q 14.984375 17.28125 19.8125 11.734375 
Q 24.65625 6.203125 33.40625 6.203125 
Q 37.3125 6.203125 41.140625 7.25 
Q 44.96875 8.296875 48.78125 10.40625 
L 48.78125 2.09375 
Q 45.015625 0.34375 40.984375 -0.53125 
Q 36.96875 -1.421875 32.421875 -1.421875 
Q 20.0625 -1.421875 12.78125 6.34375 
Q 5.515625 14.109375 5.515625 27.296875 
Q 5.515625 40.671875 12.859375 48.328125 
Q 20.21875 56 33.015625 56 
Q 37.15625 56 41.109375 55.140625 
Q 45.0625 54.296875 48.78125 52.59375 
z
" id="DejaVuSans-99"/>
      <path d="M 30.609375 48.390625 
Q 23.390625 48.390625 19.1875 42.75 
Q 14.984375 37.109375 14.984375 27.296875 
Q 14.984375 17.484375 19.15625 11.84375 
Q 23.34375 6.203125 30.609375 6.203125 
Q 37.796875 6.203125 41.984375 11.859375 
Q 46.1875 17.53125 46.1875 27.296875 
Q 46.1875 37.015625 41.984375 42.703125 
Q 37.796875 48.390625 30.609375 48.390625 
z
M 30.609375 56 
Q 42.328125 56 49.015625 48.375 
Q 55.71875 40.765625 55.71875 27.296875 
Q 55.71875 13.875 49.015625 6.21875 
Q 42.328125 -1.421875 30.609375 -1.421875 
Q 18.84375 -1.421875 12.171875 6.21875 
Q 5.515625 13.875 5.515625 27.296875 
Q 5.515625 40.765625 12.171875 48.375 
Q 18.84375 56 30.609375 56 
z
" id="DejaVuSans-111"/>
      <path d="M 41.109375 46.296875 
Q 39.59375 47.171875 37.8125 47.578125 
Q 36.03125 48 33.890625 48 
Q 26.265625 48 22.1875 43.046875 
Q 18.109375 38.09375 18.109375 28.8125 
L 18.109375 0 
L 9.078125 0 
L 9.078125 54.6875 
L 18.109375 54.6875 
L 18.109375 46.1875 
Q 20.953125 51.171875 25.484375 53.578125 
Q 30.03125 56 36.53125 56 
Q 37.453125 56 38.578125 55.875 
Q 39.703125 55.765625 41.0625 55.515625 
z
" id="DejaVuSans-114"/>
     </defs>
     <g transform="translate(189.228125 365.136562)scale(0.1 -0.1)">
      <use xlink:href="#DejaVuSans-65"/>
      <use x="68.392578" xlink:href="#DejaVuSans-100"/>
      <use x="131.869141" xlink:href="#DejaVuSans-106"/>
      <use x="159.652344" xlink:href="#DejaVuSans-117"/>
      <use x="223.03125" xlink:href="#DejaVuSans-115"/>
      <use x="275.130859" xlink:href="#DejaVuSans-116"/>
      <use x="314.339844" xlink:href="#DejaVuSans-101"/>
      <use x="375.863281" xlink:href="#DejaVuSans-100"/>
      <use x="439.339844" xlink:href="#DejaVuSans-32"/>
      <use x="471.126953" xlink:href="#DejaVuSans-78"/>
      <use x="545.931641" xlink:href="#DejaVuSans-77"/>
      <use x="632.210938" xlink:href="#DejaVuSans-73"/>
      <use x="661.703125" xlink:href="#DejaVuSans-32"/>
      <use x="693.490234" xlink:href="#DejaVuSans-115"/>
      <use x="745.589844" xlink:href="#DejaVuSans-99"/>
      <use x="800.570312" xlink:href="#DejaVuSans-111"/>
      <use x="861.751953" xlink:href="#DejaVuSans-114"/>
      <use x="902.833984" xlink:href="#DejaVuSans-101"/>
     </g>
    </g>
   </g>
   <g id="matplotlib.axis_2">
    <g id="ytick_1">
     <g id="line2d_8">
      <defs>
       <path d="M 0 0 
L -3.5 0 
" id="mb7fe0ef5fd" style="stroke:#000000;stroke-width:0.8;"/>
      </defs>
      <g>
       <use style="stroke:#000000;stroke-width:0.8;" x="70.046875" xlink:href="#mb7fe0ef5fd" y="308.55686"/>
      </g>
     </g>
     <g id="text_9">
      <!-- PSB1 -->
      <defs>
       <path d="M 19.671875 64.796875 
L 19.671875 37.40625 
L 32.078125 37.40625 
Q 38.96875 37.40625 42.71875 40.96875 
Q 46.484375 44.53125 46.484375 51.125 
Q 46.484375 57.671875 42.71875 61.234375 
Q 38.96875 64.796875 32.078125 64.796875 
z
M 9.8125 72.90625 
L 32.078125 72.90625 
Q 44.34375 72.90625 50.609375 67.359375 
Q 56.890625 61.8125 56.890625 51.125 
Q 56.890625 40.328125 50.609375 34.8125 
Q 44.34375 29.296875 32.078125 29.296875 
L 19.671875 29.296875 
L 19.671875 0 
L 9.8125 0 
z
" id="DejaVuSans-80"/>
       <path d="M 53.515625 70.515625 
L 53.515625 60.890625 
Q 47.90625 63.578125 42.921875 64.890625 
Q 37.9375 66.21875 33.296875 66.21875 
Q 25.25 66.21875 20.875 63.09375 
Q 16.5 59.96875 16.5 54.203125 
Q 16.5 49.359375 19.40625 46.890625 
Q 22.3125 44.4375 30.421875 42.921875 
L 36.375 41.703125 
Q 47.40625 39.59375 52.65625 34.296875 
Q 57.90625 29 57.90625 20.125 
Q 57.90625 9.515625 50.796875 4.046875 
Q 43.703125 -1.421875 29.984375 -1.421875 
Q 24.8125 -1.421875 18.96875 -0.25 
Q 13.140625 0.921875 6.890625 3.21875 
L 6.890625 13.375 
Q 12.890625 10.015625 18.65625 8.296875 
Q 24.421875 6.59375 29.984375 6.59375 
Q 38.421875 6.59375 43.015625 9.90625 
Q 47.609375 13.234375 47.609375 19.390625 
Q 47.609375 24.75 44.3125 27.78125 
Q 41.015625 30.8125 33.5 32.328125 
L 27.484375 33.5 
Q 16.453125 35.6875 11.515625 40.375 
Q 6.59375 45.0625 6.59375 53.421875 
Q 6.59375 63.09375 13.40625 68.65625 
Q 20.21875 74.21875 32.171875 74.21875 
Q 37.3125 74.21875 42.625 73.28125 
Q 47.953125 72.359375 53.515625 70.515625 
z
" id="DejaVuSans-83"/>
       <path d="M 19.671875 34.8125 
L 19.671875 8.109375 
L 35.5 8.109375 
Q 43.453125 8.109375 47.28125 11.40625 
Q 51.125 14.703125 51.125 21.484375 
Q 51.125 28.328125 47.28125 31.5625 
Q 43.453125 34.8125 35.5 34.8125 
z
M 19.671875 64.796875 
L 19.671875 42.828125 
L 34.28125 42.828125 
Q 41.5 42.828125 45.03125 45.53125 
Q 48.578125 48.25 48.578125 53.8125 
Q 48.578125 59.328125 45.03125 62.0625 
Q 41.5 64.796875 34.28125 64.796875 
z
M 9.8125 72.90625 
L 35.015625 72.90625 
Q 46.296875 72.90625 52.390625 68.21875 
Q 58.5 63.53125 58.5 54.890625 
Q 58.5 48.1875 55.375 44.234375 
Q 52.25 40.28125 46.1875 39.3125 
Q 53.46875 37.75 57.5 32.78125 
Q 61.53125 27.828125 61.53125 20.40625 
Q 61.53125 10.640625 54.890625 5.3125 
Q 48.25 0 35.984375 0 
L 9.8125 0 
z
" id="DejaVuSans-66"/>
      </defs>
      <g transform="translate(37.445312 312.356078)scale(0.1 -0.1)">
       <use xlink:href="#DejaVuSans-80"/>
       <use x="60.302734" xlink:href="#DejaVuSans-83"/>
       <use x="123.779297" xlink:href="#DejaVuSans-66"/>
       <use x="192.382812" xlink:href="#DejaVuSans-49"/>
      </g>
     </g>
    </g>
    <g id="ytick_2">
     <g id="line2d_9">
      <g>
       <use style="stroke:#000000;stroke-width:0.8;" x="70.046875" xlink:href="#mb7fe0ef5fd" y="281.601488"/>
      </g>
     </g>
     <g id="text_10">
      <!-- UBE3A* -->
      <defs>
       <path d="M 8.6875 72.90625 
L 18.609375 72.90625 
L 18.609375 28.609375 
Q 18.609375 16.890625 22.84375 11.734375 
Q 27.09375 6.59375 36.625 6.59375 
Q 46.09375 6.59375 50.34375 11.734375 
Q 54.59375 16.890625 54.59375 28.609375 
L 54.59375 72.90625 
L 64.5 72.90625 
L 64.5 27.390625 
Q 64.5 13.140625 57.4375 5.859375 
Q 50.390625 -1.421875 36.625 -1.421875 
Q 22.796875 -1.421875 15.734375 5.859375 
Q 8.6875 13.140625 8.6875 27.390625 
z
" id="DejaVuSans-85"/>
       <path d="M 9.8125 72.90625 
L 55.90625 72.90625 
L 55.90625 64.59375 
L 19.671875 64.59375 
L 19.671875 43.015625 
L 54.390625 43.015625 
L 54.390625 34.71875 
L 19.671875 34.71875 
L 19.671875 8.296875 
L 56.78125 8.296875 
L 56.78125 0 
L 9.8125 0 
z
" id="DejaVuSans-69"/>
       <path d="M 47.015625 60.890625 
L 29.5 51.421875 
L 47.015625 41.890625 
L 44.1875 37.109375 
L 27.78125 47.015625 
L 27.78125 28.609375 
L 22.21875 28.609375 
L 22.21875 47.015625 
L 5.8125 37.109375 
L 2.984375 41.890625 
L 20.515625 51.421875 
L 2.984375 60.890625 
L 5.8125 65.71875 
L 22.21875 55.8125 
L 22.21875 74.21875 
L 27.78125 74.21875 
L 27.78125 55.8125 
L 44.1875 65.71875 
z
" id="DejaVuSans-42"/>
      </defs>
      <g transform="translate(24.345312 285.400706)scale(0.1 -0.1)">
       <use xlink:href="#DejaVuSans-85"/>
       <use x="73.193359" xlink:href="#DejaVuSans-66"/>
       <use x="141.796875" xlink:href="#DejaVuSans-69"/>
       <use x="204.980469" xlink:href="#DejaVuSans-51"/>
       <use x="268.603516" xlink:href="#DejaVuSans-65"/>
       <use x="337.011719" xlink:href="#DejaVuSans-42"/>
      </g>
     </g>
    </g>
    <g id="ytick_3">
     <g id="line2d_10">
      <g>
       <use style="stroke:#000000;stroke-width:0.8;" x="70.046875" xlink:href="#mb7fe0ef5fd" y="254.646116"/>
      </g>
     </g>
     <g id="text_11">
      <!-- CDN1A -->
      <defs>
       <path d="M 64.40625 67.28125 
L 64.40625 56.890625 
Q 59.421875 61.53125 53.78125 63.8125 
Q 48.140625 66.109375 41.796875 66.109375 
Q 29.296875 66.109375 22.65625 58.46875 
Q 16.015625 50.828125 16.015625 36.375 
Q 16.015625 21.96875 22.65625 14.328125 
Q 29.296875 6.6875 41.796875 6.6875 
Q 48.140625 6.6875 53.78125 8.984375 
Q 59.421875 11.28125 64.40625 15.921875 
L 64.40625 5.609375 
Q 59.234375 2.09375 53.4375 0.328125 
Q 47.65625 -1.421875 41.21875 -1.421875 
Q 24.65625 -1.421875 15.125 8.703125 
Q 5.609375 18.84375 5.609375 36.375 
Q 5.609375 53.953125 15.125 64.078125 
Q 24.65625 74.21875 41.21875 74.21875 
Q 47.75 74.21875 53.53125 72.484375 
Q 59.328125 70.75 64.40625 67.28125 
z
" id="DejaVuSans-67"/>
       <path d="M 19.671875 64.796875 
L 19.671875 8.109375 
L 31.59375 8.109375 
Q 46.6875 8.109375 53.6875 14.9375 
Q 60.6875 21.78125 60.6875 36.53125 
Q 60.6875 51.171875 53.6875 57.984375 
Q 46.6875 64.796875 31.59375 64.796875 
z
M 9.8125 72.90625 
L 30.078125 72.90625 
Q 51.265625 72.90625 61.171875 64.09375 
Q 71.09375 55.28125 71.09375 36.53125 
Q 71.09375 17.671875 61.125 8.828125 
Q 51.171875 0 30.078125 0 
L 9.8125 0 
z
" id="DejaVuSans-68"/>
      </defs>
      <g transform="translate(27.679688 258.445334)scale(0.1 -0.1)">
       <use xlink:href="#DejaVuSans-67"/>
       <use x="69.824219" xlink:href="#DejaVuSans-68"/>
       <use x="146.826172" xlink:href="#DejaVuSans-78"/>
       <use x="221.630859" xlink:href="#DejaVuSans-49"/>
       <use x="285.253906" xlink:href="#DejaVuSans-65"/>
      </g>
     </g>
    </g>
    <g id="ytick_4">
     <g id="line2d_11">
      <g>
       <use style="stroke:#000000;stroke-width:0.8;" x="70.046875" xlink:href="#mb7fe0ef5fd" y="227.690744"/>
      </g>
     </g>
     <g id="text_12">
      <!-- TFDP2 -->
      <defs>
       <path d="M -0.296875 72.90625 
L 61.375 72.90625 
L 61.375 64.59375 
L 35.5 64.59375 
L 35.5 0 
L 25.59375 0 
L 25.59375 64.59375 
L -0.296875 64.59375 
z
" id="DejaVuSans-84"/>
       <path d="M 9.8125 72.90625 
L 51.703125 72.90625 
L 51.703125 64.59375 
L 19.671875 64.59375 
L 19.671875 43.109375 
L 48.578125 43.109375 
L 48.578125 34.8125 
L 19.671875 34.8125 
L 19.671875 0 
L 9.8125 0 
z
" id="DejaVuSans-70"/>
      </defs>
      <g transform="translate(31.095312 231.489963)scale(0.1 -0.1)">
       <use xlink:href="#DejaVuSans-84"/>
       <use x="61.083984" xlink:href="#DejaVuSans-70"/>
       <use x="118.603516" xlink:href="#DejaVuSans-68"/>
       <use x="195.605469" xlink:href="#DejaVuSans-80"/>
       <use x="255.908203" xlink:href="#DejaVuSans-50"/>
      </g>
     </g>
    </g>
    <g id="ytick_5">
     <g id="line2d_12">
      <g>
       <use style="stroke:#000000;stroke-width:0.8;" x="70.046875" xlink:href="#mb7fe0ef5fd" y="200.735372"/>
      </g>
     </g>
     <g id="text_13">
      <!-- AP2A -->
      <g transform="translate(36.973438 204.534591)scale(0.1 -0.1)">
       <use xlink:href="#DejaVuSans-65"/>
       <use x="68.408203" xlink:href="#DejaVuSans-80"/>
       <use x="128.710938" xlink:href="#DejaVuSans-50"/>
       <use x="192.333984" xlink:href="#DejaVuSans-65"/>
      </g>
     </g>
    </g>
    <g id="ytick_6">
     <g id="line2d_13">
      <g>
       <use style="stroke:#000000;stroke-width:0.8;" x="70.046875" xlink:href="#mb7fe0ef5fd" y="173.78"/>
      </g>
     </g>
     <g id="text_14">
      <!-- IRF6 -->
      <defs>
       <path d="M 44.390625 34.1875 
Q 47.5625 33.109375 50.5625 29.59375 
Q 53.5625 26.078125 56.59375 19.921875 
L 66.609375 0 
L 56 0 
L 46.6875 18.703125 
Q 43.0625 26.03125 39.671875 28.421875 
Q 36.28125 30.8125 30.421875 30.8125 
L 19.671875 30.8125 
L 19.671875 0 
L 9.8125 0 
L 9.8125 72.90625 
L 32.078125 72.90625 
Q 44.578125 72.90625 50.734375 67.671875 
Q 56.890625 62.453125 56.890625 51.90625 
Q 56.890625 45.015625 53.6875 40.46875 
Q 50.484375 35.9375 44.390625 34.1875 
z
M 19.671875 64.796875 
L 19.671875 38.921875 
L 32.078125 38.921875 
Q 39.203125 38.921875 42.84375 42.21875 
Q 46.484375 45.515625 46.484375 51.90625 
Q 46.484375 58.296875 42.84375 61.546875 
Q 39.203125 64.796875 32.078125 64.796875 
z
" id="DejaVuSans-82"/>
       <path d="M 33.015625 40.375 
Q 26.375 40.375 22.484375 35.828125 
Q 18.609375 31.296875 18.609375 23.390625 
Q 18.609375 15.53125 22.484375 10.953125 
Q 26.375 6.390625 33.015625 6.390625 
Q 39.65625 6.390625 43.53125 10.953125 
Q 47.40625 15.53125 47.40625 23.390625 
Q 47.40625 31.296875 43.53125 35.828125 
Q 39.65625 40.375 33.015625 40.375 
z
M 52.59375 71.296875 
L 52.59375 62.3125 
Q 48.875 64.0625 45.09375 64.984375 
Q 41.3125 65.921875 37.59375 65.921875 
Q 27.828125 65.921875 22.671875 59.328125 
Q 17.53125 52.734375 16.796875 39.40625 
Q 19.671875 43.65625 24.015625 45.921875 
Q 28.375 48.1875 33.59375 48.1875 
Q 44.578125 48.1875 50.953125 41.515625 
Q 57.328125 34.859375 57.328125 23.390625 
Q 57.328125 12.15625 50.6875 5.359375 
Q 44.046875 -1.421875 33.015625 -1.421875 
Q 20.359375 -1.421875 13.671875 8.265625 
Q 6.984375 17.96875 6.984375 36.375 
Q 6.984375 53.65625 15.1875 63.9375 
Q 23.390625 74.21875 37.203125 74.21875 
Q 40.921875 74.21875 44.703125 73.484375 
Q 48.484375 72.75 52.59375 71.296875 
z
" id="DejaVuSans-54"/>
      </defs>
      <g transform="translate(41.034375 177.579219)scale(0.1 -0.1)">
       <use xlink:href="#DejaVuSans-73"/>
       <use x="29.492188" xlink:href="#DejaVuSans-82"/>
       <use x="98.974609" xlink:href="#DejaVuSans-70"/>
       <use x="156.494141" xlink:href="#DejaVuSans-54"/>
      </g>
     </g>
    </g>
    <g id="ytick_7">
     <g id="line2d_14">
      <g>
       <use style="stroke:#000000;stroke-width:0.8;" x="70.046875" xlink:href="#mb7fe0ef5fd" y="146.824628"/>
      </g>
     </g>
     <g id="text_15">
      <!-- GPR87 -->
      <defs>
       <path d="M 59.515625 10.40625 
L 59.515625 29.984375 
L 43.40625 29.984375 
L 43.40625 38.09375 
L 69.28125 38.09375 
L 69.28125 6.78125 
Q 63.578125 2.734375 56.6875 0.65625 
Q 49.8125 -1.421875 42 -1.421875 
Q 24.90625 -1.421875 15.25 8.5625 
Q 5.609375 18.5625 5.609375 36.375 
Q 5.609375 54.25 15.25 64.234375 
Q 24.90625 74.21875 42 74.21875 
Q 49.125 74.21875 55.546875 72.453125 
Q 61.96875 70.703125 67.390625 67.28125 
L 67.390625 56.78125 
Q 61.921875 61.421875 55.765625 63.765625 
Q 49.609375 66.109375 42.828125 66.109375 
Q 29.4375 66.109375 22.71875 58.640625 
Q 16.015625 51.171875 16.015625 36.375 
Q 16.015625 21.625 22.71875 14.15625 
Q 29.4375 6.6875 42.828125 6.6875 
Q 48.046875 6.6875 52.140625 7.59375 
Q 56.25 8.5 59.515625 10.40625 
z
" id="DejaVuSans-71"/>
       <path d="M 31.78125 34.625 
Q 24.75 34.625 20.71875 30.859375 
Q 16.703125 27.09375 16.703125 20.515625 
Q 16.703125 13.921875 20.71875 10.15625 
Q 24.75 6.390625 31.78125 6.390625 
Q 38.8125 6.390625 42.859375 10.171875 
Q 46.921875 13.96875 46.921875 20.515625 
Q 46.921875 27.09375 42.890625 30.859375 
Q 38.875 34.625 31.78125 34.625 
z
M 21.921875 38.8125 
Q 15.578125 40.375 12.03125 44.71875 
Q 8.5 49.078125 8.5 55.328125 
Q 8.5 64.0625 14.71875 69.140625 
Q 20.953125 74.21875 31.78125 74.21875 
Q 42.671875 74.21875 48.875 69.140625 
Q 55.078125 64.0625 55.078125 55.328125 
Q 55.078125 49.078125 51.53125 44.71875 
Q 48 40.375 41.703125 38.8125 
Q 48.828125 37.15625 52.796875 32.3125 
Q 56.78125 27.484375 56.78125 20.515625 
Q 56.78125 9.90625 50.3125 4.234375 
Q 43.84375 -1.421875 31.78125 -1.421875 
Q 19.734375 -1.421875 13.25 4.234375 
Q 6.78125 9.90625 6.78125 20.515625 
Q 6.78125 27.484375 10.78125 32.3125 
Q 14.796875 37.15625 21.921875 38.8125 
z
M 18.3125 54.390625 
Q 18.3125 48.734375 21.84375 45.5625 
Q 25.390625 42.390625 31.78125 42.390625 
Q 38.140625 42.390625 41.71875 45.5625 
Q 45.3125 48.734375 45.3125 54.390625 
Q 45.3125 60.0625 41.71875 63.234375 
Q 38.140625 66.40625 31.78125 66.40625 
Q 25.390625 66.40625 21.84375 63.234375 
Q 18.3125 60.0625 18.3125 54.390625 
z
" id="DejaVuSans-56"/>
       <path d="M 8.203125 72.90625 
L 55.078125 72.90625 
L 55.078125 68.703125 
L 28.609375 0 
L 18.3125 0 
L 43.21875 64.59375 
L 8.203125 64.59375 
z
" id="DejaVuSans-55"/>
      </defs>
      <g transform="translate(29.595312 150.623847)scale(0.1 -0.1)">
       <use xlink:href="#DejaVuSans-71"/>
       <use x="77.490234" xlink:href="#DejaVuSans-80"/>
       <use x="137.792969" xlink:href="#DejaVuSans-82"/>
       <use x="207.275391" xlink:href="#DejaVuSans-56"/>
       <use x="270.898438" xlink:href="#DejaVuSans-55"/>
      </g>
     </g>
    </g>
    <g id="ytick_8">
     <g id="line2d_15">
      <g>
       <use style="stroke:#000000;stroke-width:0.8;" x="70.046875" xlink:href="#mb7fe0ef5fd" y="119.869256"/>
      </g>
     </g>
     <g id="text_16">
      <!-- MGRN1* -->
      <g transform="translate(20.878125 123.668475)scale(0.1 -0.1)">
       <use xlink:href="#DejaVuSans-77"/>
       <use x="86.279297" xlink:href="#DejaVuSans-71"/>
       <use x="163.769531" xlink:href="#DejaVuSans-82"/>
       <use x="233.251953" xlink:href="#DejaVuSans-78"/>
       <use x="308.056641" xlink:href="#DejaVuSans-49"/>
       <use x="371.679688" xlink:href="#DejaVuSans-42"/>
      </g>
     </g>
    </g>
    <g id="ytick_9">
     <g id="line2d_16">
      <g>
       <use style="stroke:#000000;stroke-width:0.8;" x="70.046875" xlink:href="#mb7fe0ef5fd" y="92.913884"/>
      </g>
     </g>
     <g id="text_17">
      <!-- MCM7 -->
      <g transform="translate(32.445312 96.713103)scale(0.1 -0.1)">
       <use xlink:href="#DejaVuSans-77"/>
       <use x="86.279297" xlink:href="#DejaVuSans-67"/>
       <use x="156.103516" xlink:href="#DejaVuSans-77"/>
       <use x="242.382812" xlink:href="#DejaVuSans-55"/>
      </g>
     </g>
    </g>
    <g id="ytick_10">
     <g id="line2d_17">
      <g>
       <use style="stroke:#000000;stroke-width:0.8;" x="70.046875" xlink:href="#mb7fe0ef5fd" y="65.958512"/>
      </g>
     </g>
     <g id="text_18">
      <!-- RFC2 -->
      <g transform="translate(37.001562 69.757731)scale(0.1 -0.1)">
       <use xlink:href="#DejaVuSans-82"/>
       <use x="69.482422" xlink:href="#DejaVuSans-70"/>
       <use x="127.001953" xlink:href="#DejaVuSans-67"/>
       <use x="196.826172" xlink:href="#DejaVuSans-50"/>
      </g>
     </g>
    </g>
    <g id="ytick_11">
     <g id="line2d_18">
      <g>
       <use style="stroke:#000000;stroke-width:0.8;" x="70.046875" xlink:href="#mb7fe0ef5fd" y="39.00314"/>
      </g>
     </g>
     <g id="text_19">
      <!-- IMA1 -->
      <g transform="translate(38.265625 42.802359)scale(0.1 -0.1)">
       <use xlink:href="#DejaVuSans-73"/>
       <use x="29.492188" xlink:href="#DejaVuSans-77"/>
       <use x="115.771484" xlink:href="#DejaVuSans-65"/>
       <use x="184.179688" xlink:href="#DejaVuSans-49"/>
      </g>
     </g>
    </g>
    <g id="text_20">
     <!-- (*E3 ubiquitin-protein ligases) -->
     <defs>
      <path d="M 31 75.875 
Q 24.46875 64.65625 21.28125 53.65625 
Q 18.109375 42.671875 18.109375 31.390625 
Q 18.109375 20.125 21.3125 9.0625 
Q 24.515625 -2 31 -13.1875 
L 23.1875 -13.1875 
Q 15.875 -1.703125 12.234375 9.375 
Q 8.59375 20.453125 8.59375 31.390625 
Q 8.59375 42.28125 12.203125 53.3125 
Q 15.828125 64.359375 23.1875 75.875 
z
" id="DejaVuSans-40"/>
      <path d="M 48.6875 27.296875 
Q 48.6875 37.203125 44.609375 42.84375 
Q 40.53125 48.484375 33.40625 48.484375 
Q 26.265625 48.484375 22.1875 42.84375 
Q 18.109375 37.203125 18.109375 27.296875 
Q 18.109375 17.390625 22.1875 11.75 
Q 26.265625 6.109375 33.40625 6.109375 
Q 40.53125 6.109375 44.609375 11.75 
Q 48.6875 17.390625 48.6875 27.296875 
z
M 18.109375 46.390625 
Q 20.953125 51.265625 25.265625 53.625 
Q 29.59375 56 35.59375 56 
Q 45.5625 56 51.78125 48.09375 
Q 58.015625 40.1875 58.015625 27.296875 
Q 58.015625 14.40625 51.78125 6.484375 
Q 45.5625 -1.421875 35.59375 -1.421875 
Q 29.59375 -1.421875 25.265625 0.953125 
Q 20.953125 3.328125 18.109375 8.203125 
L 18.109375 0 
L 9.078125 0 
L 9.078125 75.984375 
L 18.109375 75.984375 
z
" id="DejaVuSans-98"/>
      <path d="M 9.421875 54.6875 
L 18.40625 54.6875 
L 18.40625 0 
L 9.421875 0 
z
M 9.421875 75.984375 
L 18.40625 75.984375 
L 18.40625 64.59375 
L 9.421875 64.59375 
z
" id="DejaVuSans-105"/>
      <path d="M 14.796875 27.296875 
Q 14.796875 17.390625 18.875 11.75 
Q 22.953125 6.109375 30.078125 6.109375 
Q 37.203125 6.109375 41.296875 11.75 
Q 45.40625 17.390625 45.40625 27.296875 
Q 45.40625 37.203125 41.296875 42.84375 
Q 37.203125 48.484375 30.078125 48.484375 
Q 22.953125 48.484375 18.875 42.84375 
Q 14.796875 37.203125 14.796875 27.296875 
z
M 45.40625 8.203125 
Q 42.578125 3.328125 38.25 0.953125 
Q 33.9375 -1.421875 27.875 -1.421875 
Q 17.96875 -1.421875 11.734375 6.484375 
Q 5.515625 14.40625 5.515625 27.296875 
Q 5.515625 40.1875 11.734375 48.09375 
Q 17.96875 56 27.875 56 
Q 33.9375 56 38.25 53.625 
Q 42.578125 51.265625 45.40625 46.390625 
L 45.40625 54.6875 
L 54.390625 54.6875 
L 54.390625 -20.796875 
L 45.40625 -20.796875 
z
" id="DejaVuSans-113"/>
      <path d="M 54.890625 33.015625 
L 54.890625 0 
L 45.90625 0 
L 45.90625 32.71875 
Q 45.90625 40.484375 42.875 44.328125 
Q 39.84375 48.1875 33.796875 48.1875 
Q 26.515625 48.1875 22.3125 43.546875 
Q 18.109375 38.921875 18.109375 30.90625 
L 18.109375 0 
L 9.078125 0 
L 9.078125 54.6875 
L 18.109375 54.6875 
L 18.109375 46.1875 
Q 21.34375 51.125 25.703125 53.5625 
Q 30.078125 56 35.796875 56 
Q 45.21875 56 50.046875 50.171875 
Q 54.890625 44.34375 54.890625 33.015625 
z
" id="DejaVuSans-110"/>
      <path d="M 4.890625 31.390625 
L 31.203125 31.390625 
L 31.203125 23.390625 
L 4.890625 23.390625 
z
" id="DejaVuSans-45"/>
      <path d="M 18.109375 8.203125 
L 18.109375 -20.796875 
L 9.078125 -20.796875 
L 9.078125 54.6875 
L 18.109375 54.6875 
L 18.109375 46.390625 
Q 20.953125 51.265625 25.265625 53.625 
Q 29.59375 56 35.59375 56 
Q 45.5625 56 51.78125 48.09375 
Q 58.015625 40.1875 58.015625 27.296875 
Q 58.015625 14.40625 51.78125 6.484375 
Q 45.5625 -1.421875 35.59375 -1.421875 
Q 29.59375 -1.421875 25.265625 0.953125 
Q 20.953125 3.328125 18.109375 8.203125 
z
M 48.6875 27.296875 
Q 48.6875 37.203125 44.609375 42.84375 
Q 40.53125 48.484375 33.40625 48.484375 
Q 26.265625 48.484375 22.1875 42.84375 
Q 18.109375 37.203125 18.109375 27.296875 
Q 18.109375 17.390625 22.1875 11.75 
Q 26.265625 6.109375 33.40625 6.109375 
Q 40.53125 6.109375 44.609375 11.75 
Q 48.6875 17.390625 48.6875 27.296875 
z
" id="DejaVuSans-112"/>
      <path d="M 9.421875 75.984375 
L 18.40625 75.984375 
L 18.40625 0 
L 9.421875 0 
z
" id="DejaVuSans-108"/>
      <path d="M 45.40625 27.984375 
Q 45.40625 37.75 41.375 43.109375 
Q 37.359375 48.484375 30.078125 48.484375 
Q 22.859375 48.484375 18.828125 43.109375 
Q 14.796875 37.75 14.796875 27.984375 
Q 14.796875 18.265625 18.828125 12.890625 
Q 22.859375 7.515625 30.078125 7.515625 
Q 37.359375 7.515625 41.375 12.890625 
Q 45.40625 18.265625 45.40625 27.984375 
z
M 54.390625 6.78125 
Q 54.390625 -7.171875 48.1875 -13.984375 
Q 42 -20.796875 29.203125 -20.796875 
Q 24.46875 -20.796875 20.265625 -20.09375 
Q 16.0625 -19.390625 12.109375 -17.921875 
L 12.109375 -9.1875 
Q 16.0625 -11.328125 19.921875 -12.34375 
Q 23.78125 -13.375 27.78125 -13.375 
Q 36.625 -13.375 41.015625 -8.765625 
Q 45.40625 -4.15625 45.40625 5.171875 
L 45.40625 9.625 
Q 42.625 4.78125 38.28125 2.390625 
Q 33.9375 0 27.875 0 
Q 17.828125 0 11.671875 7.65625 
Q 5.515625 15.328125 5.515625 27.984375 
Q 5.515625 40.671875 11.671875 48.328125 
Q 17.828125 56 27.875 56 
Q 33.9375 56 38.28125 53.609375 
Q 42.625 51.21875 45.40625 46.390625 
L 45.40625 54.6875 
L 54.390625 54.6875 
z
" id="DejaVuSans-103"/>
      <path d="M 34.28125 27.484375 
Q 23.390625 27.484375 19.1875 25 
Q 14.984375 22.515625 14.984375 16.5 
Q 14.984375 11.71875 18.140625 8.90625 
Q 21.296875 6.109375 26.703125 6.109375 
Q 34.1875 6.109375 38.703125 11.40625 
Q 43.21875 16.703125 43.21875 25.484375 
L 43.21875 27.484375 
z
M 52.203125 31.203125 
L 52.203125 0 
L 43.21875 0 
L 43.21875 8.296875 
Q 40.140625 3.328125 35.546875 0.953125 
Q 30.953125 -1.421875 24.3125 -1.421875 
Q 15.921875 -1.421875 10.953125 3.296875 
Q 6 8.015625 6 15.921875 
Q 6 25.140625 12.171875 29.828125 
Q 18.359375 34.515625 30.609375 34.515625 
L 43.21875 34.515625 
L 43.21875 35.40625 
Q 43.21875 41.609375 39.140625 45 
Q 35.0625 48.390625 27.6875 48.390625 
Q 23 48.390625 18.546875 47.265625 
Q 14.109375 46.140625 10.015625 43.890625 
L 10.015625 52.203125 
Q 14.9375 54.109375 19.578125 55.046875 
Q 24.21875 56 28.609375 56 
Q 40.484375 56 46.34375 49.84375 
Q 52.203125 43.703125 52.203125 31.203125 
z
" id="DejaVuSans-97"/>
      <path d="M 8.015625 75.875 
L 15.828125 75.875 
Q 23.140625 64.359375 26.78125 53.3125 
Q 30.421875 42.28125 30.421875 31.390625 
Q 30.421875 20.453125 26.78125 9.375 
Q 23.140625 -1.703125 15.828125 -13.1875 
L 8.015625 -13.1875 
Q 14.5 -2 17.703125 9.0625 
Q 20.90625 20.125 20.90625 31.390625 
Q 20.90625 42.671875 17.703125 53.65625 
Q 14.5 64.65625 8.015625 75.875 
z
" id="DejaVuSans-41"/>
     </defs>
     <g transform="translate(14.798437 248.670625)rotate(-90)scale(0.1 -0.1)">
      <use xlink:href="#DejaVuSans-40"/>
      <use x="39.013672" xlink:href="#DejaVuSans-42"/>
      <use x="89.013672" xlink:href="#DejaVuSans-69"/>
      <use x="152.197266" xlink:href="#DejaVuSans-51"/>
      <use x="215.820312" xlink:href="#DejaVuSans-32"/>
      <use x="247.607422" xlink:href="#DejaVuSans-117"/>
      <use x="310.986328" xlink:href="#DejaVuSans-98"/>
      <use x="374.462891" xlink:href="#DejaVuSans-105"/>
      <use x="402.246094" xlink:href="#DejaVuSans-113"/>
      <use x="465.722656" xlink:href="#DejaVuSans-117"/>
      <use x="529.101562" xlink:href="#DejaVuSans-105"/>
      <use x="556.884766" xlink:href="#DejaVuSans-116"/>
      <use x="596.09375" xlink:href="#DejaVuSans-105"/>
      <use x="623.876953" xlink:href="#DejaVuSans-110"/>
      <use x="687.255859" xlink:href="#DejaVuSans-45"/>
      <use x="723.339844" xlink:href="#DejaVuSans-112"/>
      <use x="786.816406" xlink:href="#DejaVuSans-114"/>
      <use x="827.898438" xlink:href="#DejaVuSans-111"/>
      <use x="889.080078" xlink:href="#DejaVuSans-116"/>
      <use x="928.289062" xlink:href="#DejaVuSans-101"/>
      <use x="989.8125" xlink:href="#DejaVuSans-105"/>
      <use x="1017.595703" xlink:href="#DejaVuSans-110"/>
      <use x="1080.974609" xlink:href="#DejaVuSans-32"/>
      <use x="1112.761719" xlink:href="#DejaVuSans-108"/>
      <use x="1140.544922" xlink:href="#DejaVuSans-105"/>
      <use x="1168.328125" xlink:href="#DejaVuSans-103"/>
      <use x="1231.804688" xlink:href="#DejaVuSans-97"/>
      <use x="1293.083984" xlink:href="#DejaVuSans-115"/>
      <use x="1345.183594" xlink:href="#DejaVuSans-101"/>
      <use x="1406.707031" xlink:href="#DejaVuSans-115"/>
      <use x="1458.806641" xlink:href="#DejaVuSans-41"/>
     </g>
    </g>
   </g>
   <g id="patch_14">
    <path d="M 70.046875 336.86 
L 70.046875 10.7 
" style="fill:none;stroke:#000000;stroke-linecap:square;stroke-linejoin:miter;stroke-width:0.8;"/>
   </g>
   <g id="patch_15">
    <path d="M 404.846875 336.86 
L 404.846875 10.7 
" style="fill:none;stroke:#000000;stroke-linecap:square;stroke-linejoin:miter;stroke-width:0.8;"/>
   </g>
   <g id="patch_16">
    <path d="M 70.046875 336.86 
L 404.846875 336.86 
" style="fill:none;stroke:#000000;stroke-linecap:square;stroke-linejoin:miter;stroke-width:0.8;"/>
   </g>
   <g id="patch_17">
    <path d="M 70.046875 10.7 
L 404.846875 10.7 
" style="fill:none;stroke:#000000;stroke-linecap:square;stroke-linejoin:miter;stroke-width:0.8;"/>
   </g>
   <g id="text_21">
    <!-- Proteasome degradation -->
    <defs>
     <path d="M 16.890625 72.90625 
L 39.703125 72.90625 
Q 49.65625 72.90625 54.875 68.265625 
Q 60.109375 63.625 60.109375 54.6875 
Q 60.109375 42.671875 52.390625 35.984375 
Q 44.671875 29.296875 30.71875 29.296875 
L 18.3125 29.296875 
L 12.59375 0 
L 2.6875 0 
z
M 25.203125 64.796875 
L 19.921875 37.40625 
L 32.328125 37.40625 
Q 40.71875 37.40625 45.203125 41.703125 
Q 49.703125 46 49.703125 54 
Q 49.703125 59.125 46.65625 61.953125 
Q 43.609375 64.796875 38.09375 64.796875 
z
" id="DejaVuSans-Oblique-80"/>
     <path d="M 44.578125 46.390625 
Q 43.21875 47.125 41.453125 47.515625 
Q 39.703125 47.90625 37.703125 47.90625 
Q 30.515625 47.90625 25.140625 42.453125 
Q 19.78125 37.015625 18.015625 27.875 
L 12.5 0 
L 3.515625 0 
L 14.203125 54.6875 
L 23.1875 54.6875 
L 21.484375 46.1875 
Q 25.046875 50.921875 30 53.453125 
Q 34.96875 56 40.578125 56 
Q 42.046875 56 43.453125 55.828125 
Q 44.875 55.671875 46.296875 55.28125 
z
" id="DejaVuSans-Oblique-114"/>
     <path d="M 25.390625 -1.421875 
Q 15.765625 -1.421875 10.171875 4.515625 
Q 4.59375 10.453125 4.59375 20.703125 
Q 4.59375 26.65625 6.515625 32.828125 
Q 8.453125 39.015625 11.53125 43.21875 
Q 16.359375 49.75 22.3125 52.875 
Q 28.265625 56 35.796875 56 
Q 45.125 56 50.859375 50.1875 
Q 56.59375 44.390625 56.59375 35.015625 
Q 56.59375 28.515625 54.6875 22.0625 
Q 52.78125 15.625 49.703125 11.375 
Q 44.921875 4.828125 38.96875 1.703125 
Q 33.015625 -1.421875 25.390625 -1.421875 
z
M 13.921875 21 
Q 13.921875 13.578125 17.015625 9.890625 
Q 20.125 6.203125 26.421875 6.203125 
Q 35.453125 6.203125 41.375 14.078125 
Q 47.3125 21.96875 47.3125 34.078125 
Q 47.3125 41.15625 44.140625 44.765625 
Q 40.96875 48.390625 34.8125 48.390625 
Q 29.734375 48.390625 25.78125 46.015625 
Q 21.828125 43.65625 18.703125 38.8125 
Q 16.40625 35.203125 15.15625 30.5625 
Q 13.921875 25.921875 13.921875 21 
z
" id="DejaVuSans-Oblique-111"/>
     <path d="M 42.28125 54.6875 
L 40.921875 47.703125 
L 23 47.703125 
L 17.1875 18.015625 
Q 16.890625 16.359375 16.75 15.234375 
Q 16.609375 14.109375 16.609375 13.484375 
Q 16.609375 10.359375 18.484375 8.9375 
Q 20.359375 7.515625 24.515625 7.515625 
L 33.59375 7.515625 
L 32.078125 0 
L 23.484375 0 
Q 15.484375 0 11.546875 3.125 
Q 7.625 6.25 7.625 12.59375 
Q 7.625 13.71875 7.765625 15.0625 
Q 7.90625 16.40625 8.203125 18.015625 
L 14.015625 47.703125 
L 6.390625 47.703125 
L 7.8125 54.6875 
L 15.28125 54.6875 
L 18.3125 70.21875 
L 27.296875 70.21875 
L 24.3125 54.6875 
z
" id="DejaVuSans-Oblique-116"/>
     <path d="M 48.09375 32.234375 
Q 48.25 33.015625 48.3125 33.84375 
Q 48.390625 34.671875 48.390625 35.5 
Q 48.390625 41.453125 44.890625 44.921875 
Q 41.40625 48.390625 35.40625 48.390625 
Q 28.71875 48.390625 23.578125 44.15625 
Q 18.453125 39.9375 15.828125 32.171875 
z
M 55.90625 25.203125 
L 14.109375 25.203125 
Q 13.8125 23.34375 13.71875 22.265625 
Q 13.625 21.1875 13.625 20.40625 
Q 13.625 13.625 17.796875 9.90625 
Q 21.96875 6.203125 29.59375 6.203125 
Q 35.453125 6.203125 40.671875 7.515625 
Q 45.90625 8.84375 50.390625 11.375 
L 48.6875 2.484375 
Q 43.84375 0.53125 38.6875 -0.4375 
Q 33.546875 -1.421875 28.21875 -1.421875 
Q 16.84375 -1.421875 10.71875 4.015625 
Q 4.59375 9.46875 4.59375 19.484375 
Q 4.59375 28.03125 7.640625 35.375 
Q 10.6875 42.71875 16.609375 48.484375 
Q 20.40625 52.09375 25.65625 54.046875 
Q 30.90625 56 36.8125 56 
Q 46.09375 56 51.578125 50.4375 
Q 57.078125 44.875 57.078125 35.5 
Q 57.078125 33.25 56.78125 30.6875 
Q 56.5 28.125 55.90625 25.203125 
z
" id="DejaVuSans-Oblique-101"/>
     <path d="M 53.71875 31.203125 
L 47.609375 0 
L 38.625 0 
L 40.28125 8.296875 
Q 36.328125 3.421875 31.265625 1 
Q 26.21875 -1.421875 20.015625 -1.421875 
Q 13.03125 -1.421875 8.5625 2.84375 
Q 4.109375 7.125 4.109375 13.8125 
Q 4.109375 23.390625 11.75 28.953125 
Q 19.390625 34.515625 32.8125 34.515625 
L 45.3125 34.515625 
L 45.796875 36.921875 
Q 45.90625 37.3125 45.953125 37.765625 
Q 46 38.234375 46 39.203125 
Q 46 43.5625 42.453125 45.96875 
Q 38.921875 48.390625 32.515625 48.390625 
Q 28.125 48.390625 23.5 47.265625 
Q 18.890625 46.140625 14.015625 43.890625 
L 15.578125 52.203125 
Q 20.65625 54.109375 25.515625 55.046875 
Q 30.375 56 34.90625 56 
Q 44.578125 56 49.625 51.796875 
Q 54.6875 47.609375 54.6875 39.59375 
Q 54.6875 37.984375 54.4375 35.8125 
Q 54.203125 33.640625 53.71875 31.203125 
z
M 44 27.484375 
L 35.015625 27.484375 
Q 23.96875 27.484375 18.671875 24.53125 
Q 13.375 21.578125 13.375 15.375 
Q 13.375 11.078125 16.078125 8.640625 
Q 18.796875 6.203125 23.578125 6.203125 
Q 30.90625 6.203125 36.375 11.453125 
Q 41.84375 16.703125 43.609375 25.484375 
z
" id="DejaVuSans-Oblique-97"/>
     <path d="M 50 53.078125 
L 48.296875 44.578125 
Q 44.734375 46.53125 40.765625 47.5 
Q 36.8125 48.484375 32.625 48.484375 
Q 25.53125 48.484375 21.453125 46.0625 
Q 17.390625 43.65625 17.390625 39.5 
Q 17.390625 34.671875 26.859375 32.078125 
Q 27.59375 31.890625 27.9375 31.78125 
L 30.8125 30.90625 
Q 39.796875 28.421875 42.796875 25.6875 
Q 45.796875 22.953125 45.796875 18.21875 
Q 45.796875 9.515625 38.890625 4.046875 
Q 31.984375 -1.421875 20.796875 -1.421875 
Q 16.453125 -1.421875 11.671875 -0.578125 
Q 6.890625 0.25 1.125 2 
L 2.875 11.28125 
Q 7.8125 8.734375 12.59375 7.421875 
Q 17.390625 6.109375 21.78125 6.109375 
Q 28.375 6.109375 32.5 8.9375 
Q 36.625 11.765625 36.625 16.109375 
Q 36.625 20.796875 25.78125 23.6875 
L 24.859375 23.921875 
L 21.78125 24.703125 
Q 14.9375 26.515625 11.765625 29.46875 
Q 8.59375 32.421875 8.59375 37.015625 
Q 8.59375 45.75 15.15625 50.875 
Q 21.734375 56 33.015625 56 
Q 37.453125 56 41.671875 55.265625 
Q 45.90625 54.546875 50 53.078125 
z
" id="DejaVuSans-Oblique-115"/>
     <path d="M 89.796875 33.015625 
L 83.40625 0 
L 74.421875 0 
L 80.71875 32.71875 
Q 81.109375 34.8125 81.296875 36.328125 
Q 81.5 37.84375 81.5 38.921875 
Q 81.5 43.3125 79.046875 45.75 
Q 76.609375 48.1875 72.21875 48.1875 
Q 65.671875 48.1875 60.546875 43.28125 
Q 55.421875 38.375 53.90625 30.515625 
L 47.90625 0 
L 38.921875 0 
L 45.3125 32.71875 
Q 45.703125 34.515625 45.890625 36.046875 
Q 46.09375 37.59375 46.09375 38.8125 
Q 46.09375 43.265625 43.65625 45.71875 
Q 41.21875 48.1875 36.921875 48.1875 
Q 30.28125 48.1875 25.140625 43.28125 
Q 20.015625 38.375 18.5 30.515625 
L 12.5 0 
L 3.515625 0 
L 14.203125 54.6875 
L 23.1875 54.6875 
L 21.484375 46.1875 
Q 25.140625 50.984375 30.046875 53.484375 
Q 34.96875 56 40.578125 56 
Q 46.53125 56 50.359375 52.875 
Q 54.203125 49.75 54.984375 44.1875 
Q 59.078125 49.953125 64.46875 52.96875 
Q 69.875 56 75.875 56 
Q 82.90625 56 86.734375 51.953125 
Q 90.578125 47.90625 90.578125 40.484375 
Q 90.578125 38.875 90.375 36.9375 
Q 90.1875 35.015625 89.796875 33.015625 
z
" id="DejaVuSans-Oblique-109"/>
     <path id="DejaVuSans-Oblique-32"/>
     <path d="M 41.796875 8.203125 
Q 38.1875 3.46875 33.25 1.015625 
Q 28.328125 -1.421875 22.3125 -1.421875 
Q 14.109375 -1.421875 9.34375 4.171875 
Q 4.59375 9.765625 4.59375 19.484375 
Q 4.59375 27.59375 7.46875 34.9375 
Q 10.359375 42.28125 15.828125 48.09375 
Q 19.4375 51.953125 23.96875 53.96875 
Q 28.515625 56 33.5 56 
Q 38.765625 56 42.796875 53.453125 
Q 46.828125 50.921875 49.03125 46.1875 
L 54.890625 75.984375 
L 63.921875 75.984375 
L 49.125 0 
L 40.09375 0 
z
M 13.921875 21.09375 
Q 13.921875 14.015625 17.109375 10.0625 
Q 20.3125 6.109375 25.984375 6.109375 
Q 30.171875 6.109375 33.765625 8.125 
Q 37.359375 10.15625 40.09375 14.109375 
Q 42.96875 18.21875 44.625 23.578125 
Q 46.296875 28.953125 46.296875 34.1875 
Q 46.296875 40.96875 43.09375 44.765625 
Q 39.890625 48.578125 34.28125 48.578125 
Q 30.03125 48.578125 26.359375 46.578125 
Q 22.703125 44.578125 20.125 40.828125 
Q 17.28125 36.765625 15.59375 31.390625 
Q 13.921875 26.03125 13.921875 21.09375 
z
" id="DejaVuSans-Oblique-100"/>
     <path d="M 59.625 54.6875 
L 50.296875 6.78125 
Q 47.609375 -7.125 40.015625 -13.953125 
Q 32.421875 -20.796875 19.578125 -20.796875 
Q 14.84375 -20.796875 10.78125 -20.09375 
Q 6.734375 -19.390625 3.21875 -17.921875 
L 4.890625 -9.1875 
Q 8.203125 -11.328125 11.90625 -12.34375 
Q 15.625 -13.375 19.828125 -13.375 
Q 28.375 -13.375 33.859375 -8.703125 
Q 39.359375 -4.046875 41.109375 4.6875 
L 41.890625 8.796875 
Q 38.140625 4.5 33.15625 2.25 
Q 28.171875 0 22.40625 0 
Q 14.109375 0 9.34375 5.484375 
Q 4.59375 10.984375 4.59375 20.609375 
Q 4.59375 28.171875 7.46875 35.421875 
Q 10.359375 42.671875 15.578125 48.296875 
Q 19.046875 52 23.65625 54 
Q 28.265625 56 33.296875 56 
Q 38.8125 56 42.90625 53.4375 
Q 47.015625 50.875 49.03125 46.1875 
L 50.59375 54.6875 
z
M 46.09375 34.625 
Q 46.09375 41.265625 42.96875 44.875 
Q 39.84375 48.484375 34.078125 48.484375 
Q 30.515625 48.484375 27.296875 47.0625 
Q 24.078125 45.65625 21.78125 43.109375 
Q 18.0625 38.921875 15.984375 33.234375 
Q 13.921875 27.546875 13.921875 21.484375 
Q 13.921875 14.75 17.0625 11.125 
Q 20.21875 7.515625 26.125 7.515625 
Q 34.671875 7.515625 40.375 15.25 
Q 46.09375 23 46.09375 34.625 
z
" id="DejaVuSans-Oblique-103"/>
     <path d="M 18.3125 75.984375 
L 27.296875 75.984375 
L 25.09375 64.59375 
L 16.109375 64.59375 
z
M 14.203125 54.6875 
L 23.1875 54.6875 
L 12.5 0 
L 3.515625 0 
z
" id="DejaVuSans-Oblique-105"/>
     <path d="M 55.71875 33.015625 
L 49.3125 0 
L 40.28125 0 
L 46.6875 32.671875 
Q 47.125 34.96875 47.359375 36.71875 
Q 47.609375 38.484375 47.609375 39.5 
Q 47.609375 43.609375 45.015625 45.890625 
Q 42.4375 48.1875 37.796875 48.1875 
Q 30.5625 48.1875 25.34375 43.375 
Q 20.125 38.578125 18.5 30.328125 
L 12.5 0 
L 3.515625 0 
L 14.109375 54.6875 
L 23.09375 54.6875 
L 21.296875 46.09375 
Q 25.046875 50.828125 30.3125 53.40625 
Q 35.59375 56 41.40625 56 
Q 48.640625 56 52.609375 52.09375 
Q 56.59375 48.1875 56.59375 41.109375 
Q 56.59375 39.359375 56.375 37.359375 
Q 56.15625 35.359375 55.71875 33.015625 
z
" id="DejaVuSans-Oblique-110"/>
    </defs>
    <g transform="translate(86.786875 300.341575)scale(0.08 -0.08)">
     <use xlink:href="#DejaVuSans-Oblique-80"/>
     <use x="60.302734" xlink:href="#DejaVuSans-Oblique-114"/>
     <use x="101.416016" xlink:href="#DejaVuSans-Oblique-111"/>
     <use x="162.597656" xlink:href="#DejaVuSans-Oblique-116"/>
     <use x="201.806641" xlink:href="#DejaVuSans-Oblique-101"/>
     <use x="263.330078" xlink:href="#DejaVuSans-Oblique-97"/>
     <use x="324.609375" xlink:href="#DejaVuSans-Oblique-115"/>
     <use x="376.708984" xlink:href="#DejaVuSans-Oblique-111"/>
     <use x="437.890625" xlink:href="#DejaVuSans-Oblique-109"/>
     <use x="535.302734" xlink:href="#DejaVuSans-Oblique-101"/>
     <use x="596.826172" xlink:href="#DejaVuSans-Oblique-32"/>
     <use x="628.613281" xlink:href="#DejaVuSans-Oblique-100"/>
     <use x="692.089844" xlink:href="#DejaVuSans-Oblique-101"/>
     <use x="753.613281" xlink:href="#DejaVuSans-Oblique-103"/>
     <use x="817.089844" xlink:href="#DejaVuSans-Oblique-114"/>
     <use x="858.203125" xlink:href="#DejaVuSans-Oblique-97"/>
     <use x="919.482422" xlink:href="#DejaVuSans-Oblique-100"/>
     <use x="982.958984" xlink:href="#DejaVuSans-Oblique-97"/>
     <use x="1044.238281" xlink:href="#DejaVuSans-Oblique-116"/>
     <use x="1083.447266" xlink:href="#DejaVuSans-Oblique-105"/>
     <use x="1111.230469" xlink:href="#DejaVuSans-Oblique-111"/>
     <use x="1172.412109" xlink:href="#DejaVuSans-Oblique-110"/>
    </g>
    <!-- pathway -->
    <defs>
     <path d="M 49.609375 33.6875 
Q 49.609375 40.875 46.484375 44.671875 
Q 43.359375 48.484375 37.5 48.484375 
Q 33.5 48.484375 29.859375 46.4375 
Q 26.21875 44.390625 23.390625 40.484375 
Q 20.609375 36.625 18.9375 31.15625 
Q 17.28125 25.6875 17.28125 20.3125 
Q 17.28125 13.484375 20.40625 9.796875 
Q 23.53125 6.109375 29.296875 6.109375 
Q 33.546875 6.109375 37.1875 8.109375 
Q 40.828125 10.109375 43.40625 13.921875 
Q 46.1875 17.921875 47.890625 23.34375 
Q 49.609375 28.765625 49.609375 33.6875 
z
M 21.78125 46.390625 
Q 25.390625 51.125 30.296875 53.5625 
Q 35.203125 56 41.21875 56 
Q 49.609375 56 54.25 50.5 
Q 58.890625 45.015625 58.890625 35.109375 
Q 58.890625 27 56 19.65625 
Q 53.125 12.3125 47.703125 6.5 
Q 44.09375 2.640625 39.546875 0.609375 
Q 35.015625 -1.421875 29.984375 -1.421875 
Q 24.171875 -1.421875 20.21875 1 
Q 16.265625 3.421875 14.3125 8.203125 
L 8.6875 -20.796875 
L -0.296875 -20.796875 
L 14.40625 54.6875 
L 23.390625 54.6875 
z
" id="DejaVuSans-Oblique-112"/>
     <path d="M 55.71875 33.015625 
L 49.3125 0 
L 40.28125 0 
L 46.6875 32.671875 
Q 47.125 34.96875 47.359375 36.71875 
Q 47.609375 38.484375 47.609375 39.5 
Q 47.609375 43.609375 45.015625 45.890625 
Q 42.4375 48.1875 37.796875 48.1875 
Q 30.5625 48.1875 25.265625 43.296875 
Q 19.96875 38.421875 18.40625 30.328125 
L 12.5 0 
L 3.515625 0 
L 18.3125 75.984375 
L 27.296875 75.984375 
L 21.484375 46.09375 
Q 24.90625 50.6875 30.21875 53.34375 
Q 35.546875 56 41.40625 56 
Q 48.640625 56 52.609375 52.09375 
Q 56.59375 48.1875 56.59375 41.109375 
Q 56.59375 39.359375 56.375 37.359375 
Q 56.15625 35.359375 55.71875 33.015625 
z
" id="DejaVuSans-Oblique-104"/>
     <path d="M 8.5 54.6875 
L 17.390625 54.6875 
L 19.671875 10.6875 
L 40.09375 54.6875 
L 50.484375 54.6875 
L 53.515625 10.6875 
L 72.90625 54.6875 
L 81.890625 54.6875 
L 56.890625 0 
L 46.390625 0 
L 43.703125 45.3125 
L 22.796875 0 
L 12.203125 0 
z
" id="DejaVuSans-Oblique-119"/>
     <path d="M 24.8125 -5.078125 
Q 18.5625 -15.578125 14.625 -18.1875 
Q 10.6875 -20.796875 4.59375 -20.796875 
L -2.484375 -20.796875 
L -0.984375 -13.28125 
L 4.203125 -13.28125 
Q 7.953125 -13.28125 10.59375 -11.234375 
Q 13.234375 -9.1875 16.5 -3.21875 
L 19.28125 2 
L 7.171875 54.6875 
L 16.703125 54.6875 
L 25.78125 12.796875 
L 50.875 54.6875 
L 60.296875 54.6875 
z
" id="DejaVuSans-Oblique-121"/>
    </defs>
    <g transform="translate(86.786875 309.299825)scale(0.08 -0.08)">
     <use xlink:href="#DejaVuSans-Oblique-112"/>
     <use x="63.476562" xlink:href="#DejaVuSans-Oblique-97"/>
     <use x="124.755859" xlink:href="#DejaVuSans-Oblique-116"/>
     <use x="163.964844" xlink:href="#DejaVuSans-Oblique-104"/>
     <use x="227.34375" xlink:href="#DejaVuSans-Oblique-119"/>
     <use x="309.130859" xlink:href="#DejaVuSans-Oblique-97"/>
     <use x="370.410156" xlink:href="#DejaVuSans-Oblique-121"/>
    </g>
   </g>
   <g id="text_22">
    <!-- UBE3A -->
    <g transform="translate(254.186875 285.2511)scale(0.08 -0.08)">
     <use xlink:href="#DejaVuSans-85"/>
     <use x="73.193359" xlink:href="#DejaVuSans-66"/>
     <use x="141.796875" xlink:href="#DejaVuSans-69"/>
     <use x="204.980469" xlink:href="#DejaVuSans-51"/>
     <use x="268.603516" xlink:href="#DejaVuSans-65"/>
    </g>
   </g>
   <g id="text_23">
    <!-- Cell cycle -->
    <defs>
     <path d="M 69.484375 67.28125 
L 67.484375 56.890625 
Q 62.796875 61.625 57.546875 63.921875 
Q 52.296875 66.21875 46.1875 66.21875 
Q 37.84375 66.21875 31.515625 62.203125 
Q 25.203125 58.203125 20.609375 50 
Q 17.671875 44.734375 16.125 38.84375 
Q 14.59375 32.953125 14.59375 27 
Q 14.59375 17.046875 19.75 11.8125 
Q 24.90625 6.59375 34.71875 6.59375 
Q 41.5 6.59375 47.75 8.765625 
Q 54 10.9375 59.90625 15.28125 
L 57.625 3.609375 
Q 51.8125 1.125 45.875 -0.140625 
Q 39.9375 -1.421875 33.984375 -1.421875 
Q 19.96875 -1.421875 12.078125 6.1875 
Q 4.203125 13.8125 4.203125 27.390625 
Q 4.203125 36.078125 7.203125 44.46875 
Q 10.203125 52.875 15.828125 59.8125 
Q 21.78125 67.1875 29.421875 70.703125 
Q 37.0625 74.21875 47.21875 74.21875 
Q 53.46875 74.21875 59.0625 72.484375 
Q 64.65625 70.75 69.484375 67.28125 
z
" id="DejaVuSans-Oblique-67"/>
     <path d="M 18.3125 75.984375 
L 27.296875 75.984375 
L 12.5 0 
L 3.515625 0 
z
" id="DejaVuSans-Oblique-108"/>
     <path d="M 53.609375 52.59375 
L 51.8125 43.703125 
Q 48.578125 46.046875 44.9375 47.21875 
Q 41.3125 48.390625 37.40625 48.390625 
Q 33.109375 48.390625 29.21875 46.875 
Q 25.34375 45.359375 22.703125 42.578125 
Q 18.5 38.328125 16.203125 32.609375 
Q 13.921875 26.90625 13.921875 20.796875 
Q 13.921875 13.421875 17.609375 9.8125 
Q 21.296875 6.203125 28.8125 6.203125 
Q 32.515625 6.203125 36.6875 7.328125 
Q 40.875 8.453125 45.40625 10.6875 
L 43.703125 1.8125 
Q 39.796875 0.203125 35.671875 -0.609375 
Q 31.546875 -1.421875 27.203125 -1.421875 
Q 16.3125 -1.421875 10.453125 4.015625 
Q 4.59375 9.46875 4.59375 19.578125 
Q 4.59375 28.078125 7.640625 35.234375 
Q 10.6875 42.390625 16.703125 48.09375 
Q 20.796875 52 26.3125 54 
Q 31.84375 56 38.375 56 
Q 42.1875 56 45.9375 55.140625 
Q 49.703125 54.296875 53.609375 52.59375 
z
" id="DejaVuSans-Oblique-99"/>
    </defs>
    <g transform="translate(86.786875 259.1583)scale(0.08 -0.08)">
     <use xlink:href="#DejaVuSans-Oblique-67"/>
     <use x="69.824219" xlink:href="#DejaVuSans-Oblique-101"/>
     <use x="131.347656" xlink:href="#DejaVuSans-Oblique-108"/>
     <use x="159.130859" xlink:href="#DejaVuSans-Oblique-108"/>
     <use x="186.914062" xlink:href="#DejaVuSans-Oblique-32"/>
     <use x="218.701172" xlink:href="#DejaVuSans-Oblique-99"/>
     <use x="273.681641" xlink:href="#DejaVuSans-Oblique-121"/>
     <use x="332.861328" xlink:href="#DejaVuSans-Oblique-99"/>
     <use x="387.841797" xlink:href="#DejaVuSans-Oblique-108"/>
     <use x="415.625" xlink:href="#DejaVuSans-Oblique-101"/>
    </g>
   </g>
   <g id="text_24">
    <!-- Co/Transcription -->
    <defs>
     <path d="M 33.984375 72.90625 
L 42.671875 72.90625 
L 1.3125 -9.28125 
L -7.328125 -9.28125 
z
" id="DejaVuSans-Oblique-47"/>
     <path d="M 5.90625 72.90625 
L 67.578125 72.90625 
L 66.015625 64.59375 
L 39.984375 64.59375 
L 27.484375 0 
L 17.578125 0 
L 30.078125 64.59375 
L 4.296875 64.59375 
z
" id="DejaVuSans-Oblique-84"/>
    </defs>
    <g transform="translate(254.186875 192.708775)scale(0.08 -0.08)">
     <use xlink:href="#DejaVuSans-Oblique-67"/>
     <use x="69.824219" xlink:href="#DejaVuSans-Oblique-111"/>
     <use x="131.005859" xlink:href="#DejaVuSans-Oblique-47"/>
     <use x="164.697266" xlink:href="#DejaVuSans-Oblique-84"/>
     <use x="225.671875" xlink:href="#DejaVuSans-Oblique-114"/>
     <use x="266.785156" xlink:href="#DejaVuSans-Oblique-97"/>
     <use x="328.064453" xlink:href="#DejaVuSans-Oblique-110"/>
     <use x="391.443359" xlink:href="#DejaVuSans-Oblique-115"/>
     <use x="443.542969" xlink:href="#DejaVuSans-Oblique-99"/>
     <use x="498.523438" xlink:href="#DejaVuSans-Oblique-114"/>
     <use x="539.636719" xlink:href="#DejaVuSans-Oblique-105"/>
     <use x="567.419922" xlink:href="#DejaVuSans-Oblique-112"/>
     <use x="630.896484" xlink:href="#DejaVuSans-Oblique-116"/>
     <use x="670.105469" xlink:href="#DejaVuSans-Oblique-105"/>
     <use x="697.888672" xlink:href="#DejaVuSans-Oblique-111"/>
     <use x="759.070312" xlink:href="#DejaVuSans-Oblique-110"/>
    </g>
    <!-- factors -->
    <defs>
     <path d="M 47.796875 75.984375 
L 46.390625 68.5 
L 37.796875 68.5 
Q 32.90625 68.5 30.6875 66.578125 
Q 28.46875 64.65625 27.390625 59.515625 
L 26.421875 54.6875 
L 41.21875 54.6875 
L 39.890625 47.703125 
L 25.09375 47.703125 
L 15.828125 0 
L 6.78125 0 
L 16.109375 47.703125 
L 7.515625 47.703125 
L 8.796875 54.6875 
L 17.390625 54.6875 
L 18.109375 58.5 
Q 19.96875 68.171875 24.625 72.078125 
Q 29.296875 75.984375 39.3125 75.984375 
z
" id="DejaVuSans-Oblique-102"/>
    </defs>
    <g transform="translate(254.186875 201.667025)scale(0.08 -0.08)">
     <use xlink:href="#DejaVuSans-Oblique-102"/>
     <use x="35.205078" xlink:href="#DejaVuSans-Oblique-97"/>
     <use x="96.484375" xlink:href="#DejaVuSans-Oblique-99"/>
     <use x="151.464844" xlink:href="#DejaVuSans-Oblique-116"/>
     <use x="190.673828" xlink:href="#DejaVuSans-Oblique-111"/>
     <use x="251.855469" xlink:href="#DejaVuSans-Oblique-114"/>
     <use x="292.96875" xlink:href="#DejaVuSans-Oblique-115"/>
    </g>
   </g>
   <g id="text_25">
    <!-- Signal transduction -->
    <defs>
     <path d="M 60.296875 70.515625 
L 58.40625 60.890625 
Q 53.46875 63.53125 48.609375 64.875 
Q 43.75 66.21875 39.203125 66.21875 
Q 30.375 66.21875 25.140625 62.359375 
Q 19.921875 58.5 19.921875 52.09375 
Q 19.921875 48.578125 21.84375 46.703125 
Q 23.78125 44.828125 31.78125 42.671875 
L 37.703125 41.21875 
Q 47.703125 38.625 51.609375 34.640625 
Q 55.515625 30.671875 55.515625 23.484375 
Q 55.515625 12.453125 46.84375 5.515625 
Q 38.1875 -1.421875 24.03125 -1.421875 
Q 18.21875 -1.421875 12.359375 -0.265625 
Q 6.5 0.875 0.59375 3.21875 
L 2.59375 13.375 
Q 8.015625 10.015625 13.453125 8.296875 
Q 18.890625 6.59375 24.3125 6.59375 
Q 33.546875 6.59375 39.109375 10.6875 
Q 44.671875 14.796875 44.671875 21.390625 
Q 44.671875 25.78125 42.453125 28.046875 
Q 40.234375 30.328125 32.90625 32.171875 
L 27 33.6875 
Q 16.890625 36.328125 13.203125 39.765625 
Q 9.515625 43.21875 9.515625 49.421875 
Q 9.515625 60.296875 17.890625 67.25 
Q 26.265625 74.21875 39.703125 74.21875 
Q 44.921875 74.21875 50.046875 73.28125 
Q 55.171875 72.359375 60.296875 70.515625 
z
" id="DejaVuSans-Oblique-83"/>
     <path d="M 6.6875 21.6875 
L 13.09375 54.6875 
L 22.125 54.6875 
L 15.71875 22.015625 
Q 15.234375 19.625 15.015625 17.921875 
Q 14.796875 16.21875 14.796875 15.09375 
Q 14.796875 10.9375 17.328125 8.65625 
Q 19.875 6.390625 24.515625 6.390625 
Q 31.734375 6.390625 37 11.265625 
Q 42.28125 16.15625 43.890625 24.421875 
L 49.90625 54.6875 
L 58.890625 54.6875 
L 48.296875 0 
L 39.3125 0 
L 41.109375 8.59375 
Q 37.3125 3.8125 32.0625 1.1875 
Q 26.8125 -1.421875 20.90625 -1.421875 
Q 13.71875 -1.421875 9.71875 2.515625 
Q 5.71875 6.453125 5.71875 13.484375 
Q 5.71875 14.9375 5.953125 17.140625 
Q 6.203125 19.34375 6.6875 21.6875 
z
" id="DejaVuSans-Oblique-117"/>
    </defs>
    <g transform="translate(254.186875 135.2175)scale(0.08 -0.08)">
     <use xlink:href="#DejaVuSans-Oblique-83"/>
     <use x="63.476562" xlink:href="#DejaVuSans-Oblique-105"/>
     <use x="91.259766" xlink:href="#DejaVuSans-Oblique-103"/>
     <use x="154.736328" xlink:href="#DejaVuSans-Oblique-110"/>
     <use x="218.115234" xlink:href="#DejaVuSans-Oblique-97"/>
     <use x="279.394531" xlink:href="#DejaVuSans-Oblique-108"/>
     <use x="307.177734" xlink:href="#DejaVuSans-Oblique-32"/>
     <use x="338.964844" xlink:href="#DejaVuSans-Oblique-116"/>
     <use x="378.173828" xlink:href="#DejaVuSans-Oblique-114"/>
     <use x="419.287109" xlink:href="#DejaVuSans-Oblique-97"/>
     <use x="480.566406" xlink:href="#DejaVuSans-Oblique-110"/>
     <use x="543.945312" xlink:href="#DejaVuSans-Oblique-115"/>
     <use x="596.044922" xlink:href="#DejaVuSans-Oblique-100"/>
     <use x="659.521484" xlink:href="#DejaVuSans-Oblique-117"/>
     <use x="722.900391" xlink:href="#DejaVuSans-Oblique-99"/>
     <use x="777.880859" xlink:href="#DejaVuSans-Oblique-116"/>
     <use x="817.089844" xlink:href="#DejaVuSans-Oblique-105"/>
     <use x="844.873047" xlink:href="#DejaVuSans-Oblique-111"/>
     <use x="906.054688" xlink:href="#DejaVuSans-Oblique-110"/>
    </g>
   </g>
   <g id="text_26">
    <!-- MGRN1 -->
    <g transform="translate(187.226875 122.1711)scale(0.08 -0.08)">
     <use xlink:href="#DejaVuSans-77"/>
     <use x="86.279297" xlink:href="#DejaVuSans-71"/>
     <use x="163.769531" xlink:href="#DejaVuSans-82"/>
     <use x="233.251953" xlink:href="#DejaVuSans-78"/>
     <use x="308.056641" xlink:href="#DejaVuSans-49"/>
    </g>
   </g>
   <g id="text_27">
    <!-- DNA replication -->
    <defs>
     <path d="M 16.890625 72.90625 
L 38.09375 72.90625 
Q 54.984375 72.90625 63.59375 65.75 
Q 72.21875 58.59375 72.21875 44.484375 
Q 72.21875 35.15625 68.9375 26.53125 
Q 65.671875 17.921875 59.90625 12.015625 
Q 54.109375 5.953125 45.171875 2.96875 
Q 36.234375 0 24.03125 0 
L 2.6875 0 
z
M 25.203125 64.796875 
L 14.203125 8.109375 
L 27.09375 8.109375 
Q 43.65625 8.109375 52.734375 17.625 
Q 61.8125 27.15625 61.8125 44.484375 
Q 61.8125 54.984375 55.953125 59.890625 
Q 50.09375 64.796875 37.59375 64.796875 
z
" id="DejaVuSans-Oblique-68"/>
     <path d="M 16.890625 72.90625 
L 30.171875 72.90625 
L 50.296875 10.40625 
L 62.5 72.90625 
L 72.125 72.90625 
L 57.90625 0 
L 44.578125 0 
L 24.515625 62.890625 
L 12.3125 0 
L 2.6875 0 
z
" id="DejaVuSans-Oblique-78"/>
     <path d="M 36.8125 72.90625 
L 48 72.90625 
L 61.53125 0 
L 51.21875 0 
L 48.1875 18.703125 
L 15.375 18.703125 
L 5.078125 0 
L -5.328125 0 
z
M 40.375 63.1875 
L 19.921875 26.90625 
L 46.6875 26.90625 
z
" id="DejaVuSans-Oblique-65"/>
    </defs>
    <g transform="translate(86.786875 79.7703)scale(0.08 -0.08)">
     <use xlink:href="#DejaVuSans-Oblique-68"/>
     <use x="77.001953" xlink:href="#DejaVuSans-Oblique-78"/>
     <use x="151.806641" xlink:href="#DejaVuSans-Oblique-65"/>
     <use x="220.214844" xlink:href="#DejaVuSans-Oblique-32"/>
     <use x="252.001953" xlink:href="#DejaVuSans-Oblique-114"/>
     <use x="293.115234" xlink:href="#DejaVuSans-Oblique-101"/>
     <use x="354.638672" xlink:href="#DejaVuSans-Oblique-112"/>
     <use x="418.115234" xlink:href="#DejaVuSans-Oblique-108"/>
     <use x="445.898438" xlink:href="#DejaVuSans-Oblique-105"/>
     <use x="473.681641" xlink:href="#DejaVuSans-Oblique-99"/>
     <use x="528.662109" xlink:href="#DejaVuSans-Oblique-97"/>
     <use x="589.941406" xlink:href="#DejaVuSans-Oblique-116"/>
     <use x="629.150391" xlink:href="#DejaVuSans-Oblique-105"/>
     <use x="656.933594" xlink:href="#DejaVuSans-Oblique-111"/>
     <use x="718.115234" xlink:href="#DejaVuSans-Oblique-110"/>
    </g>
   </g>
   <g id="text_28">
    <!-- Nuclear importin -->
    <g transform="translate(86.786875 42.2619)scale(0.08 -0.08)">
     <use xlink:href="#DejaVuSans-Oblique-78"/>
     <use x="74.804688" xlink:href="#DejaVuSans-Oblique-117"/>
     <use x="138.183594" xlink:href="#DejaVuSans-Oblique-99"/>
     <use x="193.164062" xlink:href="#DejaVuSans-Oblique-108"/>
     <use x="220.947266" xlink:href="#DejaVuSans-Oblique-101"/>
     <use x="282.470703" xlink:href="#DejaVuSans-Oblique-97"/>
     <use x="343.75" xlink:href="#DejaVuSans-Oblique-114"/>
     <use x="384.863281" xlink:href="#DejaVuSans-Oblique-32"/>
     <use x="416.650391" xlink:href="#DejaVuSans-Oblique-105"/>
     <use x="444.433594" xlink:href="#DejaVuSans-Oblique-109"/>
     <use x="541.845703" xlink:href="#DejaVuSans-Oblique-112"/>
     <use x="605.322266" xlink:href="#DejaVuSans-Oblique-111"/>
     <use x="666.503906" xlink:href="#DejaVuSans-Oblique-114"/>
     <use x="707.617188" xlink:href="#DejaVuSans-Oblique-116"/>
     <use x="746.826172" xlink:href="#DejaVuSans-Oblique-105"/>
     <use x="774.609375" xlink:href="#DejaVuSans-Oblique-110"/>
    </g>
   </g>
  </g>
 </g>
 <defs>
  <clipPath id="pe46fc45118">
   <rect height="326.16" width="334.8" x="70.046875" y="10.7"/>
  </clipPath>
 </defs>
</svg>
