<?xml version="1.0" encoding="utf-8" standalone="no"?>
<!DOCTYPE svg PUBLIC "-//W3C//DTD SVG 1.1//EN"
  "http://www.w3.org/Graphics/SVG/1.1/DTD/svg11.dtd">
<!-- Created with matplotlib (https://matplotlib.org/) -->
<svg height="432pt" version="1.1" viewBox="0 0 576 432" width="576pt" xmlns="http://www.w3.org/2000/svg" xmlns:xlink="http://www.w3.org/1999/xlink">
 <defs>
  <style type="text/css">
*{stroke-linecap:butt;stroke-linejoin:round;}
  </style>
 </defs>
 <g id="figure_1">
  <g id="patch_1">
   <path d="M 0 432 
L 576 432 
L 576 0 
L 0 0 
z
" style="fill:#ffffff;"/>
  </g>
  <g id="axes_1">
   <g id="patch_2">
    <path d="M 89.175 295.12084 
L 544.949229 295.12084 
L 544.949229 14.3 
L 89.175 14.3 
z
" style="fill:#ffffff;"/>
   </g>
   <g id="PolyCollection_1">
    <defs>
     <path d="M 151.49946 -147.028766 
L 146.927989 -147.028766 
L 146.478601 -149.079191 
L 145.961428 -151.129617 
L 145.370637 -153.180042 
L 144.700747 -155.230468 
L 143.946821 -157.280893 
L 143.104665 -159.331318 
L 142.171041 -161.381744 
L 141.143866 -163.432169 
L 140.022414 -165.482594 
L 138.807497 -167.53302 
L 137.50162 -169.583445 
L 136.109104 -171.633871 
L 134.636173 -173.684296 
L 133.090987 -175.734721 
L 131.483634 -177.785147 
L 129.826062 -179.835572 
L 128.131956 -181.885997 
L 126.416573 -183.936423 
L 124.696508 -185.986848 
L 122.989435 -188.037274 
L 121.313795 -190.087699 
L 119.688466 -192.138124 
L 118.132397 -194.18855 
L 116.66425 -196.238975 
L 115.302019 -198.2894 
L 114.062678 -200.339826 
L 112.961827 -202.390251 
L 112.013372 -204.440677 
L 111.22924 -206.491102 
L 110.619117 -208.541527 
L 110.190243 -210.591953 
L 109.947243 -212.642378 
L 109.89201 -214.692803 
L 110.023637 -216.743229 
L 110.338394 -218.793654 
L 110.829771 -220.844079 
L 111.488553 -222.894505 
L 112.302963 -224.94493 
L 113.258842 -226.995356 
L 114.339887 -229.045781 
L 115.527923 -231.096206 
L 116.80323 -233.146632 
L 118.144895 -235.197057 
L 119.531209 -237.247482 
L 120.940073 -239.297908 
L 122.349444 -241.348333 
L 123.737766 -243.398759 
L 125.084421 -245.449184 
L 126.370153 -247.499609 
L 127.577481 -249.550035 
L 128.691075 -251.60046 
L 129.698083 -253.650885 
L 130.588416 -255.701311 
L 131.354954 -257.751736 
L 131.993699 -259.802162 
L 132.503831 -261.852587 
L 132.887705 -263.903012 
L 133.150747 -265.953438 
L 133.301275 -268.003863 
L 133.350249 -270.054288 
L 133.310936 -272.104714 
L 133.19852 -274.155139 
L 133.02966 -276.205565 
L 132.822002 -278.25599 
L 132.593672 -280.306415 
L 132.36276 -282.356841 
L 132.146809 -284.407266 
L 131.962335 -286.457691 
L 131.824375 -288.508117 
L 131.746108 -290.558542 
L 131.738526 -292.608968 
L 131.810197 -294.659393 
L 131.967102 -296.709818 
L 132.212569 -298.760244 
L 132.547288 -300.810669 
L 132.969417 -302.861094 
L 133.474762 -304.91152 
L 134.057024 -306.961945 
L 134.708109 -309.01237 
L 135.418471 -311.062796 
L 136.177485 -313.113221 
L 136.973833 -315.163647 
L 137.795882 -317.214072 
L 138.632047 -319.264497 
L 139.471118 -321.314923 
L 140.302556 -323.365348 
L 141.116729 -325.415773 
L 141.905101 -327.466199 
L 142.660371 -329.516624 
L 143.376547 -331.56705 
L 144.048972 -333.617475 
L 144.674308 -335.6679 
L 145.250474 -337.718326 
L 145.776551 -339.768751 
L 146.25266 -341.819176 
L 146.679828 -343.869602 
L 147.059837 -345.920027 
L 147.395077 -347.970453 
L 147.688393 -350.020878 
L 150.739056 -350.020878 
L 150.739056 -350.020878 
L 151.032372 -347.970453 
L 151.367612 -345.920027 
L 151.747622 -343.869602 
L 152.17479 -341.819176 
L 152.650899 -339.768751 
L 153.176975 -337.718326 
L 153.753142 -335.6679 
L 154.378478 -333.617475 
L 155.050903 -331.56705 
L 155.767078 -329.516624 
L 156.522348 -327.466199 
L 157.310721 -325.415773 
L 158.124893 -323.365348 
L 158.956331 -321.314923 
L 159.795403 -319.264497 
L 160.631568 -317.214072 
L 161.453617 -315.163647 
L 162.249965 -313.113221 
L 163.008978 -311.062796 
L 163.71934 -309.01237 
L 164.370425 -306.961945 
L 164.952688 -304.91152 
L 165.458032 -302.861094 
L 165.880161 -300.810669 
L 166.214881 -298.760244 
L 166.460348 -296.709818 
L 166.617253 -294.659393 
L 166.688923 -292.608968 
L 166.681341 -290.558542 
L 166.603074 -288.508117 
L 166.465115 -286.457691 
L 166.28064 -284.407266 
L 166.06469 -282.356841 
L 165.833778 -280.306415 
L 165.605447 -278.25599 
L 165.397789 -276.205565 
L 165.228929 -274.155139 
L 165.116514 -272.104714 
L 165.077201 -270.054288 
L 165.126174 -268.003863 
L 165.276703 -265.953438 
L 165.539744 -263.903012 
L 165.923618 -261.852587 
L 166.433751 -259.802162 
L 167.072495 -257.751736 
L 167.839034 -255.701311 
L 168.729366 -253.650885 
L 169.736375 -251.60046 
L 170.849968 -249.550035 
L 172.057297 -247.499609 
L 173.343029 -245.449184 
L 174.689683 -243.398759 
L 176.078006 -241.348333 
L 177.487376 -239.297908 
L 178.896241 -237.247482 
L 180.282554 -235.197057 
L 181.62422 -233.146632 
L 182.899526 -231.096206 
L 184.087563 -229.045781 
L 185.168607 -226.995356 
L 186.124487 -224.94493 
L 186.938896 -222.894505 
L 187.597679 -220.844079 
L 188.089055 -218.793654 
L 188.403813 -216.743229 
L 188.535439 -214.692803 
L 188.480207 -212.642378 
L 188.237207 -210.591953 
L 187.808333 -208.541527 
L 187.19821 -206.491102 
L 186.414077 -204.440677 
L 185.465623 -202.390251 
L 184.364771 -200.339826 
L 183.12543 -198.2894 
L 181.7632 -196.238975 
L 180.295052 -194.18855 
L 178.738984 -192.138124 
L 177.113654 -190.087699 
L 175.438015 -188.037274 
L 173.730942 -185.986848 
L 172.010877 -183.936423 
L 170.295493 -181.885997 
L 168.601388 -179.835572 
L 166.943815 -177.785147 
L 165.336462 -175.734721 
L 163.791276 -173.684296 
L 162.318345 -171.633871 
L 160.92583 -169.583445 
L 159.619952 -167.53302 
L 158.405036 -165.482594 
L 157.283584 -163.432169 
L 156.256409 -161.381744 
L 155.322784 -159.331318 
L 154.480629 -157.280893 
L 153.726702 -155.230468 
L 153.056812 -153.180042 
L 152.466021 -151.129617 
L 151.948849 -149.079191 
L 151.49946 -147.028766 
z
" id="m4293ffe38f" style="stroke:#4c4c4c;stroke-width:1.5;"/>
    </defs>
    <g clip-path="url(#pe7edf6d3dc)">
     <use style="fill:#df2020;stroke:#4c4c4c;stroke-width:1.5;" x="0" xlink:href="#m4293ffe38f" y="432"/>
    </g>
   </g>
   <g id="PolyCollection_2">
    <defs>
     <path d="M 315.594163 -158.895078 
L 307.226639 -158.895078 
L 306.671911 -159.947293 
L 306.064611 -160.999508 
L 305.403003 -162.051722 
L 304.685785 -163.103937 
L 303.912152 -164.156152 
L 303.081861 -165.208366 
L 302.19529 -166.260581 
L 301.253486 -167.312796 
L 300.2582 -168.365011 
L 299.211918 -169.417225 
L 298.117868 -170.46944 
L 296.980014 -171.521655 
L 295.80303 -172.573869 
L 294.592256 -173.626084 
L 293.353634 -174.678299 
L 292.093619 -175.730513 
L 290.819078 -176.782728 
L 289.537163 -177.834943 
L 288.255173 -178.887157 
L 286.980399 -179.939372 
L 285.719964 -180.991587 
L 284.480647 -182.043801 
L 283.268716 -183.096016 
L 282.089762 -184.148231 
L 280.948534 -185.200445 
L 279.848799 -186.25266 
L 278.793217 -187.304875 
L 277.783235 -188.35709 
L 276.819023 -189.409304 
L 275.899432 -190.461519 
L 275.021992 -191.513734 
L 274.182952 -192.565948 
L 273.377358 -193.618163 
L 272.59917 -194.670378 
L 271.841417 -195.722592 
L 271.096394 -196.774807 
L 270.355883 -197.827022 
L 269.611408 -198.879236 
L 268.854507 -199.931451 
L 268.07702 -200.983666 
L 267.271381 -202.03588 
L 266.430909 -203.088095 
L 265.550089 -204.14031 
L 264.624825 -205.192525 
L 263.652679 -206.244739 
L 262.633056 -207.296954 
L 261.567361 -208.349169 
L 260.459098 -209.401383 
L 259.313913 -210.453598 
L 258.139591 -211.505813 
L 256.945979 -212.558027 
L 255.744861 -213.610242 
L 254.549775 -214.662457 
L 253.375776 -215.714671 
L 252.239149 -216.766886 
L 251.157086 -217.819101 
L 250.14733 -218.871315 
L 249.227793 -219.92353 
L 248.416168 -220.975745 
L 247.729529 -222.02796 
L 247.183948 -223.080174 
L 246.794127 -224.132389 
L 246.573061 -225.184604 
L 246.531731 -226.236818 
L 246.678856 -227.289033 
L 247.020684 -228.341248 
L 247.56085 -229.393462 
L 248.300285 -230.445677 
L 249.237195 -231.497892 
L 250.367096 -232.550106 
L 251.682911 -233.602321 
L 253.175118 -234.654536 
L 254.831958 -235.70675 
L 256.639673 -236.758965 
L 258.582791 -237.81118 
L 260.644434 -238.863395 
L 262.80665 -239.915609 
L 265.050745 -240.967824 
L 267.35763 -242.020039 
L 269.70815 -243.072253 
L 272.083404 -244.124468 
L 274.465044 -245.176683 
L 276.835542 -246.228897 
L 279.178427 -247.281112 
L 281.478489 -248.333327 
L 283.721939 -249.385541 
L 285.896533 -250.437756 
L 287.991657 -251.489971 
L 289.998369 -252.542185 
L 291.909411 -253.5944 
L 293.719183 -254.646615 
L 295.423688 -255.698829 
L 297.02045 -256.751044 
L 298.508411 -257.803259 
L 299.887813 -258.855474 
L 301.160063 -259.907688 
L 302.327593 -260.959903 
L 303.393711 -262.012118 
L 304.36246 -263.064332 
L 318.458342 -263.064332 
L 318.458342 -263.064332 
L 319.427092 -262.012118 
L 320.49321 -260.959903 
L 321.660739 -259.907688 
L 322.932989 -258.855474 
L 324.312391 -257.803259 
L 325.800352 -256.751044 
L 327.397114 -255.698829 
L 329.101619 -254.646615 
L 330.911392 -253.5944 
L 332.822434 -252.542185 
L 334.829146 -251.489971 
L 336.924269 -250.437756 
L 339.098863 -249.385541 
L 341.342313 -248.333327 
L 343.642375 -247.281112 
L 345.98526 -246.228897 
L 348.355758 -245.176683 
L 350.737398 -244.124468 
L 353.112653 -243.072253 
L 355.463173 -242.020039 
L 357.770057 -240.967824 
L 360.014152 -239.915609 
L 362.176368 -238.863395 
L 364.238012 -237.81118 
L 366.181129 -236.758965 
L 367.988844 -235.70675 
L 369.645684 -234.654536 
L 371.137892 -233.602321 
L 372.453706 -232.550106 
L 373.583607 -231.497892 
L 374.520517 -230.445677 
L 375.259952 -229.393462 
L 375.800118 -228.341248 
L 376.141947 -227.289033 
L 376.289072 -226.236818 
L 376.247742 -225.184604 
L 376.026675 -224.132389 
L 375.636855 -223.080174 
L 375.091274 -222.02796 
L 374.404634 -220.975745 
L 373.593009 -219.92353 
L 372.673473 -218.871315 
L 371.663717 -217.819101 
L 370.581653 -216.766886 
L 369.445026 -215.714671 
L 368.271027 -214.662457 
L 367.075942 -213.610242 
L 365.874824 -212.558027 
L 364.681211 -211.505813 
L 363.506889 -210.453598 
L 362.361705 -209.401383 
L 361.253441 -208.349169 
L 360.187747 -207.296954 
L 359.168124 -206.244739 
L 358.195977 -205.192525 
L 357.270714 -204.14031 
L 356.389893 -203.088095 
L 355.549421 -202.03588 
L 354.743782 -200.983666 
L 353.966295 -199.931451 
L 353.209394 -198.879236 
L 352.464919 -197.827022 
L 351.724408 -196.774807 
L 350.979385 -195.722592 
L 350.221633 -194.670378 
L 349.443444 -193.618163 
L 348.637851 -192.565948 
L 347.798811 -191.513734 
L 346.921371 -190.461519 
L 346.001779 -189.409304 
L 345.037567 -188.35709 
L 344.027586 -187.304875 
L 342.972003 -186.25266 
L 341.872268 -185.200445 
L 340.731041 -184.148231 
L 339.552086 -183.096016 
L 338.340156 -182.043801 
L 337.100839 -180.991587 
L 335.840403 -179.939372 
L 334.56563 -178.887157 
L 333.28364 -177.834943 
L 332.001725 -176.782728 
L 330.727184 -175.730513 
L 329.467169 -174.678299 
L 328.228546 -173.626084 
L 327.017773 -172.573869 
L 325.840788 -171.521655 
L 324.702934 -170.46944 
L 323.608884 -169.417225 
L 322.562602 -168.365011 
L 321.567317 -167.312796 
L 320.625512 -166.260581 
L 319.738941 -165.208366 
L 318.908651 -164.156152 
L 318.135017 -163.103937 
L 317.417799 -162.051722 
L 316.756192 -160.999508 
L 316.148891 -159.947293 
L 315.594163 -158.895078 
z
" id="m72701e68d3" style="stroke:#4c4c4c;stroke-width:1.5;"/>
    </defs>
    <g clip-path="url(#pe7edf6d3dc)">
     <use style="fill:#df9c20;stroke:#4c4c4c;stroke-width:1.5;" x="0" xlink:href="#m72701e68d3" y="432"/>
    </g>
   </g>
   <g id="PolyCollection_3">
    <defs>
     <path d="M 476.665879 -155.282536 
L 470.548276 -155.282536 
L 470.00118 -156.588454 
L 469.382061 -157.894372 
L 468.686502 -159.20029 
L 467.910713 -160.506207 
L 467.051694 -161.812125 
L 466.107385 -163.118043 
L 465.0768 -164.423961 
L 463.960146 -165.729879 
L 462.758901 -167.035797 
L 461.475865 -168.341715 
L 460.115171 -169.647633 
L 458.68225 -170.953551 
L 457.18375 -172.259469 
L 455.627422 -173.565387 
L 454.021959 -174.871305 
L 452.376807 -176.177223 
L 450.701957 -177.483141 
L 449.007716 -178.789058 
L 447.304483 -180.094976 
L 445.602536 -181.400894 
L 443.911838 -182.706812 
L 442.241871 -184.01273 
L 440.601523 -185.318648 
L 438.999004 -186.624566 
L 437.441817 -187.930484 
L 435.936775 -189.236402 
L 434.490054 -190.54232 
L 433.107277 -191.848238 
L 431.793626 -193.154156 
L 430.553951 -194.460074 
L 429.39288 -195.765992 
L 428.314911 -197.071909 
L 427.324464 -198.377827 
L 426.425901 -199.683745 
L 425.623495 -200.989663 
L 424.921345 -202.295581 
L 424.323252 -203.601499 
L 423.832542 -204.907417 
L 423.451872 -206.213335 
L 423.183003 -207.519253 
L 423.026581 -208.825171 
L 422.981937 -210.131089 
L 423.046906 -211.437007 
L 423.217714 -212.742925 
L 423.488914 -214.048843 
L 423.853404 -215.35476 
L 424.30252 -216.660678 
L 424.826214 -217.966596 
L 425.413302 -219.272514 
L 426.05179 -220.578432 
L 426.72925 -221.88435 
L 427.43323 -223.190268 
L 428.151696 -224.496186 
L 428.87346 -225.802104 
L 429.588598 -227.108022 
L 430.288812 -228.41394 
L 430.967746 -229.719858 
L 431.621215 -231.025776 
L 432.24735 -232.331694 
L 432.846653 -233.637611 
L 433.421943 -234.943529 
L 433.978212 -236.249447 
L 434.522393 -237.555365 
L 435.06304 -238.861283 
L 435.609944 -240.167201 
L 436.173703 -241.473119 
L 436.765256 -242.779037 
L 437.395404 -244.084955 
L 438.074343 -245.390873 
L 438.811225 -246.696791 
L 439.613762 -248.002709 
L 440.487891 -249.308627 
L 441.437518 -250.614545 
L 442.464339 -251.920462 
L 443.567753 -253.22638 
L 444.744864 -254.532298 
L 445.99057 -255.838216 
L 447.297729 -257.144134 
L 448.657403 -258.450052 
L 450.059155 -259.75597 
L 451.49139 -261.061888 
L 452.941728 -262.367806 
L 454.397381 -263.673724 
L 455.845539 -264.979642 
L 457.273726 -266.28556 
L 458.670126 -267.591478 
L 460.023873 -268.897396 
L 461.325287 -270.203313 
L 462.566051 -271.509231 
L 463.739333 -272.815149 
L 464.839854 -274.121067 
L 465.86389 -275.426985 
L 466.80924 -276.732903 
L 467.675133 -278.038821 
L 468.462113 -279.344739 
L 469.171891 -280.650657 
L 469.807175 -281.956575 
L 470.371498 -283.262493 
L 470.869036 -284.568411 
L 476.345119 -284.568411 
L 476.345119 -284.568411 
L 476.842658 -283.262493 
L 477.406981 -281.956575 
L 478.042265 -280.650657 
L 478.752042 -279.344739 
L 479.539022 -278.038821 
L 480.404916 -276.732903 
L 481.350265 -275.426985 
L 482.374302 -274.121067 
L 483.474822 -272.815149 
L 484.648104 -271.509231 
L 485.888868 -270.203313 
L 487.190282 -268.897396 
L 488.54403 -267.591478 
L 489.94043 -266.28556 
L 491.368616 -264.979642 
L 492.816774 -263.673724 
L 494.272428 -262.367806 
L 495.722765 -261.061888 
L 497.155 -259.75597 
L 498.556752 -258.450052 
L 499.916427 -257.144134 
L 501.223586 -255.838216 
L 502.469291 -254.532298 
L 503.646402 -253.22638 
L 504.749817 -251.920462 
L 505.776638 -250.614545 
L 506.726265 -249.308627 
L 507.600394 -248.002709 
L 508.40293 -246.696791 
L 509.139813 -245.390873 
L 509.818752 -244.084955 
L 510.448899 -242.779037 
L 511.040452 -241.473119 
L 511.604212 -240.167201 
L 512.151116 -238.861283 
L 512.691762 -237.555365 
L 513.235943 -236.249447 
L 513.792213 -234.943529 
L 514.367502 -233.637611 
L 514.966805 -232.331694 
L 515.592941 -231.025776 
L 516.246409 -229.719858 
L 516.925343 -228.41394 
L 517.625557 -227.108022 
L 518.340695 -225.802104 
L 519.06246 -224.496186 
L 519.780926 -223.190268 
L 520.484906 -221.88435 
L 521.162365 -220.578432 
L 521.800854 -219.272514 
L 522.387942 -217.966596 
L 522.911635 -216.660678 
L 523.360751 -215.35476 
L 523.725242 -214.048843 
L 523.996442 -212.742925 
L 524.16725 -211.437007 
L 524.232219 -210.131089 
L 524.187574 -208.825171 
L 524.031153 -207.519253 
L 523.762283 -206.213335 
L 523.381613 -204.907417 
L 522.890904 -203.601499 
L 522.29281 -202.295581 
L 521.590661 -200.989663 
L 520.788254 -199.683745 
L 519.889692 -198.377827 
L 518.899245 -197.071909 
L 517.821275 -195.765992 
L 516.660205 -194.460074 
L 515.420529 -193.154156 
L 514.106878 -191.848238 
L 512.724102 -190.54232 
L 511.27738 -189.236402 
L 509.772338 -187.930484 
L 508.215152 -186.624566 
L 506.612632 -185.318648 
L 504.972284 -184.01273 
L 503.302318 -182.706812 
L 501.611619 -181.400894 
L 499.909672 -180.094976 
L 498.206439 -178.789058 
L 496.512198 -177.483141 
L 494.837348 -176.177223 
L 493.192197 -174.871305 
L 491.586734 -173.565387 
L 490.030406 -172.259469 
L 488.531906 -170.953551 
L 487.098984 -169.647633 
L 485.738291 -168.341715 
L 484.455255 -167.035797 
L 483.254009 -165.729879 
L 482.137355 -164.423961 
L 481.106771 -163.118043 
L 480.162461 -161.812125 
L 479.303442 -160.506207 
L 478.527653 -159.20029 
L 477.832094 -157.894372 
L 477.212976 -156.588454 
L 476.665879 -155.282536 
z
" id="m528b809f09" style="stroke:#4c4c4c;stroke-width:1.5;"/>
    </defs>
    <g clip-path="url(#pe7edf6d3dc)">
     <use style="fill:#20df20;stroke:#4c4c4c;stroke-width:1.5;" x="0" xlink:href="#m528b809f09" y="432"/>
    </g>
   </g>
   <g id="matplotlib.axis_1">
    <g id="xtick_1">
     <g id="line2d_1">
      <defs>
       <path d="M 0 0 
L 0 3.5 
" id="m77e7920585" style="stroke:#000000;stroke-width:0.8;"/>
      </defs>
      <g>
       <use style="stroke:#000000;stroke-width:0.8;" x="149.213725" xlink:href="#m77e7920585" y="295.12084"/>
      </g>
     </g>
     <g id="text_1">
      <!-- High risk -->
      <defs>
       <path d="M 9.8125 72.90625 
L 19.671875 72.90625 
L 19.671875 43.015625 
L 55.515625 43.015625 
L 55.515625 72.90625 
L 65.375 72.90625 
L 65.375 0 
L 55.515625 0 
L 55.515625 34.71875 
L 19.671875 34.71875 
L 19.671875 0 
L 9.8125 0 
z
" id="DejaVuSans-72"/>
       <path d="M 9.421875 54.6875 
L 18.40625 54.6875 
L 18.40625 0 
L 9.421875 0 
z
M 9.421875 75.984375 
L 18.40625 75.984375 
L 18.40625 64.59375 
L 9.421875 64.59375 
z
" id="DejaVuSans-105"/>
       <path d="M 45.40625 27.984375 
Q 45.40625 37.75 41.375 43.109375 
Q 37.359375 48.484375 30.078125 48.484375 
Q 22.859375 48.484375 18.828125 43.109375 
Q 14.796875 37.75 14.796875 27.984375 
Q 14.796875 18.265625 18.828125 12.890625 
Q 22.859375 7.515625 30.078125 7.515625 
Q 37.359375 7.515625 41.375 12.890625 
Q 45.40625 18.265625 45.40625 27.984375 
z
M 54.390625 6.78125 
Q 54.390625 -7.171875 48.1875 -13.984375 
Q 42 -20.796875 29.203125 -20.796875 
Q 24.46875 -20.796875 20.265625 -20.09375 
Q 16.0625 -19.390625 12.109375 -17.921875 
L 12.109375 -9.1875 
Q 16.0625 -11.328125 19.921875 -12.34375 
Q 23.78125 -13.375 27.78125 -13.375 
Q 36.625 -13.375 41.015625 -8.765625 
Q 45.40625 -4.15625 45.40625 5.171875 
L 45.40625 9.625 
Q 42.625 4.78125 38.28125 2.390625 
Q 33.9375 0 27.875 0 
Q 17.828125 0 11.671875 7.65625 
Q 5.515625 15.328125 5.515625 27.984375 
Q 5.515625 40.671875 11.671875 48.328125 
Q 17.828125 56 27.875 56 
Q 33.9375 56 38.28125 53.609375 
Q 42.625 51.21875 45.40625 46.390625 
L 45.40625 54.6875 
L 54.390625 54.6875 
z
" id="DejaVuSans-103"/>
       <path d="M 54.890625 33.015625 
L 54.890625 0 
L 45.90625 0 
L 45.90625 32.71875 
Q 45.90625 40.484375 42.875 44.328125 
Q 39.84375 48.1875 33.796875 48.1875 
Q 26.515625 48.1875 22.3125 43.546875 
Q 18.109375 38.921875 18.109375 30.90625 
L 18.109375 0 
L 9.078125 0 
L 9.078125 75.984375 
L 18.109375 75.984375 
L 18.109375 46.1875 
Q 21.34375 51.125 25.703125 53.5625 
Q 30.078125 56 35.796875 56 
Q 45.21875 56 50.046875 50.171875 
Q 54.890625 44.34375 54.890625 33.015625 
z
" id="DejaVuSans-104"/>
       <path id="DejaVuSans-32"/>
       <path d="M 41.109375 46.296875 
Q 39.59375 47.171875 37.8125 47.578125 
Q 36.03125 48 33.890625 48 
Q 26.265625 48 22.1875 43.046875 
Q 18.109375 38.09375 18.109375 28.8125 
L 18.109375 0 
L 9.078125 0 
L 9.078125 54.6875 
L 18.109375 54.6875 
L 18.109375 46.1875 
Q 20.953125 51.171875 25.484375 53.578125 
Q 30.03125 56 36.53125 56 
Q 37.453125 56 38.578125 55.875 
Q 39.703125 55.765625 41.0625 55.515625 
z
" id="DejaVuSans-114"/>
       <path d="M 44.28125 53.078125 
L 44.28125 44.578125 
Q 40.484375 46.53125 36.375 47.5 
Q 32.28125 48.484375 27.875 48.484375 
Q 21.1875 48.484375 17.84375 46.4375 
Q 14.5 44.390625 14.5 40.28125 
Q 14.5 37.15625 16.890625 35.375 
Q 19.28125 33.59375 26.515625 31.984375 
L 29.59375 31.296875 
Q 39.15625 29.25 43.1875 25.515625 
Q 47.21875 21.78125 47.21875 15.09375 
Q 47.21875 7.46875 41.1875 3.015625 
Q 35.15625 -1.421875 24.609375 -1.421875 
Q 20.21875 -1.421875 15.453125 -0.5625 
Q 10.6875 0.296875 5.421875 2 
L 5.421875 11.28125 
Q 10.40625 8.6875 15.234375 7.390625 
Q 20.0625 6.109375 24.8125 6.109375 
Q 31.15625 6.109375 34.5625 8.28125 
Q 37.984375 10.453125 37.984375 14.40625 
Q 37.984375 18.0625 35.515625 20.015625 
Q 33.0625 21.96875 24.703125 23.78125 
L 21.578125 24.515625 
Q 13.234375 26.265625 9.515625 29.90625 
Q 5.8125 33.546875 5.8125 39.890625 
Q 5.8125 47.609375 11.28125 51.796875 
Q 16.75 56 26.8125 56 
Q 31.78125 56 36.171875 55.265625 
Q 40.578125 54.546875 44.28125 53.078125 
z
" id="DejaVuSans-115"/>
       <path d="M 9.078125 75.984375 
L 18.109375 75.984375 
L 18.109375 31.109375 
L 44.921875 54.6875 
L 56.390625 54.6875 
L 27.390625 29.109375 
L 57.625 0 
L 45.90625 0 
L 18.109375 26.703125 
L 18.109375 0 
L 9.078125 0 
z
" id="DejaVuSans-107"/>
      </defs>
      <g transform="translate(103.206208 376.497015)rotate(-30)scale(0.26 -0.26)">
       <use xlink:href="#DejaVuSans-72"/>
       <use x="75.195312" xlink:href="#DejaVuSans-105"/>
       <use x="102.978516" xlink:href="#DejaVuSans-103"/>
       <use x="166.455078" xlink:href="#DejaVuSans-104"/>
       <use x="229.833984" xlink:href="#DejaVuSans-32"/>
       <use x="261.621094" xlink:href="#DejaVuSans-114"/>
       <use x="302.734375" xlink:href="#DejaVuSans-105"/>
       <use x="330.517578" xlink:href="#DejaVuSans-115"/>
       <use x="382.617188" xlink:href="#DejaVuSans-107"/>
      </g>
     </g>
    </g>
    <g id="xtick_2">
     <g id="line2d_2">
      <g>
       <use style="stroke:#000000;stroke-width:0.8;" x="311.410401" xlink:href="#m77e7920585" y="295.12084"/>
      </g>
     </g>
     <g id="text_2">
      <!-- Low risk -->
      <defs>
       <path d="M 9.8125 72.90625 
L 19.671875 72.90625 
L 19.671875 8.296875 
L 55.171875 8.296875 
L 55.171875 0 
L 9.8125 0 
z
" id="DejaVuSans-76"/>
       <path d="M 30.609375 48.390625 
Q 23.390625 48.390625 19.1875 42.75 
Q 14.984375 37.109375 14.984375 27.296875 
Q 14.984375 17.484375 19.15625 11.84375 
Q 23.34375 6.203125 30.609375 6.203125 
Q 37.796875 6.203125 41.984375 11.859375 
Q 46.1875 17.53125 46.1875 27.296875 
Q 46.1875 37.015625 41.984375 42.703125 
Q 37.796875 48.390625 30.609375 48.390625 
z
M 30.609375 56 
Q 42.328125 56 49.015625 48.375 
Q 55.71875 40.765625 55.71875 27.296875 
Q 55.71875 13.875 49.015625 6.21875 
Q 42.328125 -1.421875 30.609375 -1.421875 
Q 18.84375 -1.421875 12.171875 6.21875 
Q 5.515625 13.875 5.515625 27.296875 
Q 5.515625 40.765625 12.171875 48.375 
Q 18.84375 56 30.609375 56 
z
" id="DejaVuSans-111"/>
       <path d="M 4.203125 54.6875 
L 13.1875 54.6875 
L 24.421875 12.015625 
L 35.59375 54.6875 
L 46.1875 54.6875 
L 57.421875 12.015625 
L 68.609375 54.6875 
L 77.59375 54.6875 
L 63.28125 0 
L 52.6875 0 
L 40.921875 44.828125 
L 29.109375 0 
L 18.5 0 
z
" id="DejaVuSans-119"/>
      </defs>
      <g transform="translate(268.912317 372.444671)rotate(-30)scale(0.26 -0.26)">
       <use xlink:href="#DejaVuSans-76"/>
       <use x="55.697266" xlink:href="#DejaVuSans-111"/>
       <use x="116.878906" xlink:href="#DejaVuSans-119"/>
       <use x="198.666016" xlink:href="#DejaVuSans-32"/>
       <use x="230.453125" xlink:href="#DejaVuSans-114"/>
       <use x="271.566406" xlink:href="#DejaVuSans-105"/>
       <use x="299.349609" xlink:href="#DejaVuSans-115"/>
       <use x="351.449219" xlink:href="#DejaVuSans-107"/>
      </g>
     </g>
    </g>
    <g id="xtick_3">
     <g id="line2d_3">
      <g>
       <use style="stroke:#000000;stroke-width:0.8;" x="473.607078" xlink:href="#m77e7920585" y="295.12084"/>
      </g>
     </g>
     <g id="text_3">
      <!-- Non oncogenic -->
      <defs>
       <path d="M 9.8125 72.90625 
L 23.09375 72.90625 
L 55.421875 11.921875 
L 55.421875 72.90625 
L 64.984375 72.90625 
L 64.984375 0 
L 51.703125 0 
L 19.390625 60.984375 
L 19.390625 0 
L 9.8125 0 
z
" id="DejaVuSans-78"/>
       <path d="M 54.890625 33.015625 
L 54.890625 0 
L 45.90625 0 
L 45.90625 32.71875 
Q 45.90625 40.484375 42.875 44.328125 
Q 39.84375 48.1875 33.796875 48.1875 
Q 26.515625 48.1875 22.3125 43.546875 
Q 18.109375 38.921875 18.109375 30.90625 
L 18.109375 0 
L 9.078125 0 
L 9.078125 54.6875 
L 18.109375 54.6875 
L 18.109375 46.1875 
Q 21.34375 51.125 25.703125 53.5625 
Q 30.078125 56 35.796875 56 
Q 45.21875 56 50.046875 50.171875 
Q 54.890625 44.34375 54.890625 33.015625 
z
" id="DejaVuSans-110"/>
       <path d="M 48.78125 52.59375 
L 48.78125 44.1875 
Q 44.96875 46.296875 41.140625 47.34375 
Q 37.3125 48.390625 33.40625 48.390625 
Q 24.65625 48.390625 19.8125 42.84375 
Q 14.984375 37.3125 14.984375 27.296875 
Q 14.984375 17.28125 19.8125 11.734375 
Q 24.65625 6.203125 33.40625 6.203125 
Q 37.3125 6.203125 41.140625 7.25 
Q 44.96875 8.296875 48.78125 10.40625 
L 48.78125 2.09375 
Q 45.015625 0.34375 40.984375 -0.53125 
Q 36.96875 -1.421875 32.421875 -1.421875 
Q 20.0625 -1.421875 12.78125 6.34375 
Q 5.515625 14.109375 5.515625 27.296875 
Q 5.515625 40.671875 12.859375 48.328125 
Q 20.21875 56 33.015625 56 
Q 37.15625 56 41.109375 55.140625 
Q 45.0625 54.296875 48.78125 52.59375 
z
" id="DejaVuSans-99"/>
       <path d="M 56.203125 29.59375 
L 56.203125 25.203125 
L 14.890625 25.203125 
Q 15.484375 15.921875 20.484375 11.0625 
Q 25.484375 6.203125 34.421875 6.203125 
Q 39.59375 6.203125 44.453125 7.46875 
Q 49.3125 8.734375 54.109375 11.28125 
L 54.109375 2.78125 
Q 49.265625 0.734375 44.1875 -0.34375 
Q 39.109375 -1.421875 33.890625 -1.421875 
Q 20.796875 -1.421875 13.15625 6.1875 
Q 5.515625 13.8125 5.515625 26.8125 
Q 5.515625 40.234375 12.765625 48.109375 
Q 20.015625 56 32.328125 56 
Q 43.359375 56 49.78125 48.890625 
Q 56.203125 41.796875 56.203125 29.59375 
z
M 47.21875 32.234375 
Q 47.125 39.59375 43.09375 43.984375 
Q 39.0625 48.390625 32.421875 48.390625 
Q 24.90625 48.390625 20.390625 44.140625 
Q 15.875 39.890625 15.1875 32.171875 
z
" id="DejaVuSans-101"/>
      </defs>
      <g transform="translate(393.539594 415.826077)rotate(-30)scale(0.26 -0.26)">
       <use xlink:href="#DejaVuSans-78"/>
       <use x="74.804688" xlink:href="#DejaVuSans-111"/>
       <use x="135.986328" xlink:href="#DejaVuSans-110"/>
       <use x="199.365234" xlink:href="#DejaVuSans-32"/>
       <use x="231.152344" xlink:href="#DejaVuSans-111"/>
       <use x="292.333984" xlink:href="#DejaVuSans-110"/>
       <use x="355.712891" xlink:href="#DejaVuSans-99"/>
       <use x="410.693359" xlink:href="#DejaVuSans-111"/>
       <use x="471.875" xlink:href="#DejaVuSans-103"/>
       <use x="535.351562" xlink:href="#DejaVuSans-101"/>
       <use x="596.875" xlink:href="#DejaVuSans-110"/>
       <use x="660.253906" xlink:href="#DejaVuSans-105"/>
       <use x="688.037109" xlink:href="#DejaVuSans-99"/>
      </g>
     </g>
    </g>
   </g>
   <g id="matplotlib.axis_2">
    <g id="ytick_1">
     <g id="line2d_4">
      <defs>
       <path d="M 0 0 
L -3.5 0 
" id="m2979d0f2f8" style="stroke:#000000;stroke-width:0.8;"/>
      </defs>
      <g>
       <use style="stroke:#000000;stroke-width:0.8;" x="89.175" xlink:href="#m2979d0f2f8" y="289.333431"/>
      </g>
     </g>
     <g id="text_4">
      <!-- 0.1 -->
      <defs>
       <path d="M 31.78125 66.40625 
Q 24.171875 66.40625 20.328125 58.90625 
Q 16.5 51.421875 16.5 36.375 
Q 16.5 21.390625 20.328125 13.890625 
Q 24.171875 6.390625 31.78125 6.390625 
Q 39.453125 6.390625 43.28125 13.890625 
Q 47.125 21.390625 47.125 36.375 
Q 47.125 51.421875 43.28125 58.90625 
Q 39.453125 66.40625 31.78125 66.40625 
z
M 31.78125 74.21875 
Q 44.046875 74.21875 50.515625 64.515625 
Q 56.984375 54.828125 56.984375 36.375 
Q 56.984375 17.96875 50.515625 8.265625 
Q 44.046875 -1.421875 31.78125 -1.421875 
Q 19.53125 -1.421875 13.0625 8.265625 
Q 6.59375 17.96875 6.59375 36.375 
Q 6.59375 54.828125 13.0625 64.515625 
Q 19.53125 74.21875 31.78125 74.21875 
z
" id="DejaVuSans-48"/>
       <path d="M 10.6875 12.40625 
L 21 12.40625 
L 21 0 
L 10.6875 0 
z
" id="DejaVuSans-46"/>
       <path d="M 12.40625 8.296875 
L 28.515625 8.296875 
L 28.515625 63.921875 
L 10.984375 60.40625 
L 10.984375 69.390625 
L 28.421875 72.90625 
L 38.28125 72.90625 
L 38.28125 8.296875 
L 54.390625 8.296875 
L 54.390625 0 
L 12.40625 0 
z
" id="DejaVuSans-49"/>
      </defs>
      <g transform="translate(40.826875 299.2114)scale(0.26 -0.26)">
       <use xlink:href="#DejaVuSans-48"/>
       <use x="63.623047" xlink:href="#DejaVuSans-46"/>
       <use x="95.410156" xlink:href="#DejaVuSans-49"/>
      </g>
     </g>
    </g>
    <g id="ytick_2">
     <g id="line2d_5">
      <g>
       <use style="stroke:#000000;stroke-width:0.8;" x="89.175" xlink:href="#m2979d0f2f8" y="208.008269"/>
      </g>
     </g>
     <g id="text_5">
      <!-- 0.4 -->
      <defs>
       <path d="M 37.796875 64.3125 
L 12.890625 25.390625 
L 37.796875 25.390625 
z
M 35.203125 72.90625 
L 47.609375 72.90625 
L 47.609375 25.390625 
L 58.015625 25.390625 
L 58.015625 17.1875 
L 47.609375 17.1875 
L 47.609375 0 
L 37.796875 0 
L 37.796875 17.1875 
L 4.890625 17.1875 
L 4.890625 26.703125 
z
" id="DejaVuSans-52"/>
      </defs>
      <g transform="translate(40.826875 217.886237)scale(0.26 -0.26)">
       <use xlink:href="#DejaVuSans-48"/>
       <use x="63.623047" xlink:href="#DejaVuSans-46"/>
       <use x="95.410156" xlink:href="#DejaVuSans-52"/>
      </g>
     </g>
    </g>
    <g id="ytick_3">
     <g id="line2d_6">
      <g>
       <use style="stroke:#000000;stroke-width:0.8;" x="89.175" xlink:href="#m2979d0f2f8" y="126.683106"/>
      </g>
     </g>
     <g id="text_6">
      <!-- 0.7 -->
      <defs>
       <path d="M 8.203125 72.90625 
L 55.078125 72.90625 
L 55.078125 68.703125 
L 28.609375 0 
L 18.3125 0 
L 43.21875 64.59375 
L 8.203125 64.59375 
z
" id="DejaVuSans-55"/>
      </defs>
      <g transform="translate(40.826875 136.561075)scale(0.26 -0.26)">
       <use xlink:href="#DejaVuSans-48"/>
       <use x="63.623047" xlink:href="#DejaVuSans-46"/>
       <use x="95.410156" xlink:href="#DejaVuSans-55"/>
      </g>
     </g>
    </g>
    <g id="ytick_4">
     <g id="line2d_7">
      <g>
       <use style="stroke:#000000;stroke-width:0.8;" x="89.175" xlink:href="#m2979d0f2f8" y="45.357944"/>
      </g>
     </g>
     <g id="text_7">
      <!-- 1.0 -->
      <g transform="translate(40.826875 55.235912)scale(0.26 -0.26)">
       <use xlink:href="#DejaVuSans-49"/>
       <use x="63.623047" xlink:href="#DejaVuSans-46"/>
       <use x="95.410156" xlink:href="#DejaVuSans-48"/>
      </g>
     </g>
    </g>
    <g id="text_8">
     <!-- AFM Score -->
     <defs>
      <path d="M 34.1875 63.1875 
L 20.796875 26.90625 
L 47.609375 26.90625 
z
M 28.609375 72.90625 
L 39.796875 72.90625 
L 67.578125 0 
L 57.328125 0 
L 50.6875 18.703125 
L 17.828125 18.703125 
L 11.1875 0 
L 0.78125 0 
z
" id="DejaVuSans-65"/>
      <path d="M 9.8125 72.90625 
L 51.703125 72.90625 
L 51.703125 64.59375 
L 19.671875 64.59375 
L 19.671875 43.109375 
L 48.578125 43.109375 
L 48.578125 34.8125 
L 19.671875 34.8125 
L 19.671875 0 
L 9.8125 0 
z
" id="DejaVuSans-70"/>
      <path d="M 9.8125 72.90625 
L 24.515625 72.90625 
L 43.109375 23.296875 
L 61.8125 72.90625 
L 76.515625 72.90625 
L 76.515625 0 
L 66.890625 0 
L 66.890625 64.015625 
L 48.09375 14.015625 
L 38.1875 14.015625 
L 19.390625 64.015625 
L 19.390625 0 
L 9.8125 0 
z
" id="DejaVuSans-77"/>
      <path d="M 53.515625 70.515625 
L 53.515625 60.890625 
Q 47.90625 63.578125 42.921875 64.890625 
Q 37.9375 66.21875 33.296875 66.21875 
Q 25.25 66.21875 20.875 63.09375 
Q 16.5 59.96875 16.5 54.203125 
Q 16.5 49.359375 19.40625 46.890625 
Q 22.3125 44.4375 30.421875 42.921875 
L 36.375 41.703125 
Q 47.40625 39.59375 52.65625 34.296875 
Q 57.90625 29 57.90625 20.125 
Q 57.90625 9.515625 50.796875 4.046875 
Q 43.703125 -1.421875 29.984375 -1.421875 
Q 24.8125 -1.421875 18.96875 -0.25 
Q 13.140625 0.921875 6.890625 3.21875 
L 6.890625 13.375 
Q 12.890625 10.015625 18.65625 8.296875 
Q 24.421875 6.59375 29.984375 6.59375 
Q 38.421875 6.59375 43.015625 9.90625 
Q 47.609375 13.234375 47.609375 19.390625 
Q 47.609375 24.75 44.3125 27.78125 
Q 41.015625 30.8125 33.5 32.328125 
L 27.484375 33.5 
Q 16.453125 35.6875 11.515625 40.375 
Q 6.59375 45.0625 6.59375 53.421875 
Q 6.59375 63.09375 13.40625 68.65625 
Q 20.21875 74.21875 32.171875 74.21875 
Q 37.3125 74.21875 42.625 73.28125 
Q 47.953125 72.359375 53.515625 70.515625 
z
" id="DejaVuSans-83"/>
     </defs>
     <g transform="translate(31.419688 223.12292)rotate(-90)scale(0.26 -0.26)">
      <use xlink:href="#DejaVuSans-65"/>
      <use x="68.408203" xlink:href="#DejaVuSans-70"/>
      <use x="125.927734" xlink:href="#DejaVuSans-77"/>
      <use x="212.207031" xlink:href="#DejaVuSans-32"/>
      <use x="243.994141" xlink:href="#DejaVuSans-83"/>
      <use x="307.470703" xlink:href="#DejaVuSans-99"/>
      <use x="362.451172" xlink:href="#DejaVuSans-111"/>
      <use x="423.632812" xlink:href="#DejaVuSans-114"/>
      <use x="464.714844" xlink:href="#DejaVuSans-101"/>
     </g>
    </g>
   </g>
   <g id="line2d_8">
    <path clip-path="url(#pe7edf6d3dc)" d="M 149.213725 235.658824 
L 149.213725 131.291532 
" style="fill:none;stroke:#4c4c4c;stroke-linecap:square;stroke-width:1.5;"/>
   </g>
   <g id="line2d_9">
    <path clip-path="url(#pe7edf6d3dc)" d="M 149.213725 226.035346 
L 149.213725 170.869778 
" style="fill:none;stroke:#4c4c4c;stroke-linecap:square;stroke-width:4.5;"/>
   </g>
   <g id="line2d_10">
    <path clip-path="url(#pe7edf6d3dc)" d="M 311.410401 239.725082 
L 311.410401 202.315507 
" style="fill:none;stroke:#4c4c4c;stroke-linecap:square;stroke-width:1.5;"/>
   </g>
   <g id="line2d_11">
    <path clip-path="url(#pe7edf6d3dc)" d="M 311.410401 222.511256 
L 311.410401 203.806469 
" style="fill:none;stroke:#4c4c4c;stroke-linecap:square;stroke-width:4.5;"/>
   </g>
   <g id="line2d_12">
    <path clip-path="url(#pe7edf6d3dc)" d="M 473.607078 244.333508 
L 473.607078 179.815546 
" style="fill:none;stroke:#4c4c4c;stroke-linecap:square;stroke-width:1.5;"/>
   </g>
   <g id="line2d_13">
    <path clip-path="url(#pe7edf6d3dc)" d="M 473.607078 227.932934 
L 473.607078 195.470639 
" style="fill:none;stroke:#4c4c4c;stroke-linecap:square;stroke-width:4.5;"/>
   </g>
   <g id="line2d_14">
    <path clip-path="url(#pe7edf6d3dc)" d="M 149.213725 117.894053 
L 149.213725 113.428226 
L 311.410401 113.428226 
L 311.410401 117.894053 
" style="fill:none;stroke:#333333;stroke-linecap:square;stroke-width:1.5;"/>
   </g>
   <g id="line2d_15">
    <path clip-path="url(#pe7edf6d3dc)" d="M 311.410401 83.779279 
L 311.410401 79.313453 
L 473.607078 79.313453 
L 473.607078 83.779279 
" style="fill:none;stroke:#333333;stroke-linecap:square;stroke-width:1.5;"/>
   </g>
   <g id="line2d_16">
    <path clip-path="url(#pe7edf6d3dc)" d="M 149.213725 49.421771 
L 149.213725 44.955944 
L 473.607078 44.955944 
L 473.607078 49.421771 
" style="fill:none;stroke:#333333;stroke-linecap:square;stroke-width:1.5;"/>
   </g>
   <g id="patch_3">
    <path d="M 89.175 295.12084 
L 89.175 14.3 
" style="fill:none;stroke:#000000;stroke-linecap:square;stroke-linejoin:miter;stroke-width:0.8;"/>
   </g>
   <g id="patch_4">
    <path d="M 544.949229 295.12084 
L 544.949229 14.3 
" style="fill:none;stroke:#000000;stroke-linecap:square;stroke-linejoin:miter;stroke-width:0.8;"/>
   </g>
   <g id="patch_5">
    <path d="M 89.175 295.12084 
L 544.949229 295.12084 
" style="fill:none;stroke:#000000;stroke-linecap:square;stroke-linejoin:miter;stroke-width:0.8;"/>
   </g>
   <g id="patch_6">
    <path d="M 89.175 14.3 
L 544.949229 14.3 
" style="fill:none;stroke:#000000;stroke-linecap:square;stroke-linejoin:miter;stroke-width:0.8;"/>
   </g>
   <g id="PathCollection_1">
    <defs>
     <path d="M 0 1.5 
C 0.397805 1.5 0.77937 1.341951 1.06066 1.06066 
C 1.341951 0.77937 1.5 0.397805 1.5 0 
C 1.5 -0.397805 1.341951 -0.77937 1.06066 -1.06066 
C 0.77937 -1.341951 0.397805 -1.5 0 -1.5 
C -0.397805 -1.5 -0.77937 -1.341951 -1.06066 -1.06066 
C -1.341951 -0.77937 -1.5 -0.397805 -1.5 0 
C -1.5 0.397805 -1.341951 0.77937 -1.06066 1.06066 
C -0.77937 1.341951 -0.397805 1.5 0 1.5 
z
" id="ma9d8623061" style="stroke:#4c4c4c;"/>
    </defs>
    <g clip-path="url(#pe7edf6d3dc)">
     <use style="fill:#ffffff;stroke:#4c4c4c;" x="149.213725" xlink:href="#ma9d8623061" y="206.381765"/>
    </g>
   </g>
   <g id="PathCollection_2">
    <g clip-path="url(#pe7edf6d3dc)">
     <use style="fill:#ffffff;stroke:#4c4c4c;" x="311.410401" xlink:href="#ma9d8623061" y="205.29743"/>
    </g>
   </g>
   <g id="PathCollection_3">
    <g clip-path="url(#pe7edf6d3dc)">
     <use style="fill:#ffffff;stroke:#4c4c4c;" x="473.607078" xlink:href="#ma9d8623061" y="218.716082"/>
    </g>
   </g>
   <g id="text_9">
    <!-- ns -->
    <g transform="translate(215.301125 107.021039)scale(0.26 -0.26)">
     <use xlink:href="#DejaVuSans-110"/>
     <use x="63.378906" xlink:href="#DejaVuSans-115"/>
    </g>
   </g>
   <g id="text_10">
    <!-- ns -->
    <g transform="translate(377.497802 72.906265)scale(0.26 -0.26)">
     <use xlink:href="#DejaVuSans-110"/>
     <use x="63.378906" xlink:href="#DejaVuSans-115"/>
    </g>
   </g>
   <g id="text_11">
    <!-- ns -->
    <g transform="translate(296.399464 38.548757)scale(0.26 -0.26)">
     <use xlink:href="#DejaVuSans-110"/>
     <use x="63.378906" xlink:href="#DejaVuSans-115"/>
    </g>
   </g>
  </g>
 </g>
 <defs>
  <clipPath id="pe7edf6d3dc">
   <rect height="280.82084" width="455.774229" x="89.175" y="14.3"/>
  </clipPath>
 </defs>
</svg>
