<?xml version="1.0" encoding="utf-8" standalone="no"?>
<!DOCTYPE svg PUBLIC "-//W3C//DTD SVG 1.1//EN"
  "http://www.w3.org/Graphics/SVG/1.1/DTD/svg11.dtd">
<svg xmlns:xlink="http://www.w3.org/1999/xlink" width="681.22125pt" height="366.815161pt" viewBox="0 0 681.22125 366.815161" xmlns="http://www.w3.org/2000/svg" version="1.1">
 <metadata>
  <rdf:RDF xmlns:dc="http://purl.org/dc/elements/1.1/" xmlns:cc="http://creativecommons.org/ns#" xmlns:rdf="http://www.w3.org/1999/02/22-rdf-syntax-ns#">
   <cc:Work>
    <dc:type rdf:resource="http://purl.org/dc/dcmitype/StillImage"/>
    <dc:date>2024-07-03T23:23:21.820196</dc:date>
    <dc:format>image/svg+xml</dc:format>
    <dc:creator>
     <cc:Agent>
      <dc:title>Matplotlib v3.8.1, https://matplotlib.org/</dc:title>
     </cc:Agent>
    </dc:creator>
   </cc:Work>
  </rdf:RDF>
 </metadata>
 <defs>
  <style type="text/css">*{stroke-linejoin: round; stroke-linecap: butt}</style>
 </defs>
 <g id="figure_1">
  <g id="patch_1">
   <path d="M 0 366.815161 
L 681.22125 366.815161 
L 681.22125 0 
L 0 0 
z
" style="fill: #ffffff"/>
  </g>
  <g id="axes_1">
   <g id="patch_2">
    <path d="M 150.333125 340.802661 
L 540.933125 340.802661 
L 540.933125 8.162661 
L 150.333125 8.162661 
z
" style="fill: #ffffff"/>
   </g>
   <g id="patch_3">
    <path d="M 153.123125 340.802661 
L 203.343125 340.802661 
L 203.343125 24.002661 
L 153.123125 24.002661 
z
" clip-path="url(#pe746ceb4bf)" style="fill: #87ceeb"/>
   </g>
   <g id="patch_4">
    <path d="M 208.923125 340.802661 
L 259.143125 340.802661 
L 259.143125 24.002661 
L 208.923125 24.002661 
z
" clip-path="url(#pe746ceb4bf)" style="fill: #87ceeb"/>
   </g>
   <g id="patch_5">
    <path d="M 264.723125 340.802661 
L 314.943125 340.802661 
L 314.943125 210.738145 
L 264.723125 210.738145 
z
" clip-path="url(#pe746ceb4bf)" style="fill: #87ceeb"/>
   </g>
   <g id="patch_6">
    <path d="M 320.523125 340.802661 
L 370.743125 340.802661 
L 370.743125 340.802661 
L 320.523125 340.802661 
z
" clip-path="url(#pe746ceb4bf)" style="fill: #87ceeb"/>
   </g>
   <g id="patch_7">
    <path d="M 376.323125 340.802661 
L 426.543125 340.802661 
L 426.543125 33.161893 
L 376.323125 33.161893 
z
" clip-path="url(#pe746ceb4bf)" style="fill: #87ceeb"/>
   </g>
   <g id="patch_8">
    <path d="M 432.123125 340.802661 
L 482.343125 340.802661 
L 482.343125 33.161893 
L 432.123125 33.161893 
z
" clip-path="url(#pe746ceb4bf)" style="fill: #87ceeb"/>
   </g>
   <g id="patch_9">
    <path d="M 487.923125 340.802661 
L 538.143125 340.802661 
L 538.143125 135.708816 
L 487.923125 135.708816 
z
" clip-path="url(#pe746ceb4bf)" style="fill: #87ceeb"/>
   </g>
   <g id="matplotlib.axis_1"/>
   <g id="matplotlib.axis_2">
    <g id="ytick_1">
     <g id="line2d_1">
      <defs>
       <path id="m1b0e7ffaa1" d="M 0 0 
L -3.5 0 
" style="stroke: #000000; stroke-width: 0.8"/>
      </defs>
      <g>
       <use xlink:href="#m1b0e7ffaa1" x="150.333125" y="340.802661" style="stroke: #000000; stroke-width: 0.8"/>
      </g>
     </g>
     <g id="text_1">
      <!-- 0% -->
      <g transform="translate(92.568125 352.960161) scale(0.32 -0.32)">
       <defs>
        <path id="DejaVuSans-30" d="M 2034 4250 
Q 1547 4250 1301 3770 
Q 1056 3291 1056 2328 
Q 1056 1369 1301 889 
Q 1547 409 2034 409 
Q 2525 409 2770 889 
Q 3016 1369 3016 2328 
Q 3016 3291 2770 3770 
Q 2525 4250 2034 4250 
z
M 2034 4750 
Q 2819 4750 3233 4129 
Q 3647 3509 3647 2328 
Q 3647 1150 3233 529 
Q 2819 -91 2034 -91 
Q 1250 -91 836 529 
Q 422 1150 422 2328 
Q 422 3509 836 4129 
Q 1250 4750 2034 4750 
z
" transform="scale(0.015625)"/>
        <path id="DejaVuSans-25" d="M 4653 2053 
Q 4381 2053 4226 1822 
Q 4072 1591 4072 1178 
Q 4072 772 4226 539 
Q 4381 306 4653 306 
Q 4919 306 5073 539 
Q 5228 772 5228 1178 
Q 5228 1588 5073 1820 
Q 4919 2053 4653 2053 
z
M 4653 2450 
Q 5147 2450 5437 2106 
Q 5728 1763 5728 1178 
Q 5728 594 5436 251 
Q 5144 -91 4653 -91 
Q 4153 -91 3862 251 
Q 3572 594 3572 1178 
Q 3572 1766 3864 2108 
Q 4156 2450 4653 2450 
z
M 1428 4353 
Q 1159 4353 1004 4120 
Q 850 3888 850 3481 
Q 850 3069 1003 2837 
Q 1156 2606 1428 2606 
Q 1700 2606 1854 2837 
Q 2009 3069 2009 3481 
Q 2009 3884 1853 4118 
Q 1697 4353 1428 4353 
z
M 4250 4750 
L 4750 4750 
L 1831 -91 
L 1331 -91 
L 4250 4750 
z
M 1428 4750 
Q 1922 4750 2215 4408 
Q 2509 4066 2509 3481 
Q 2509 2891 2217 2550 
Q 1925 2209 1428 2209 
Q 931 2209 642 2551 
Q 353 2894 353 3481 
Q 353 4063 643 4406 
Q 934 4750 1428 4750 
z
" transform="scale(0.015625)"/>
       </defs>
       <use xlink:href="#DejaVuSans-30"/>
       <use xlink:href="#DejaVuSans-25" x="63.623047"/>
      </g>
     </g>
    </g>
    <g id="ytick_2">
     <g id="line2d_2">
      <g>
       <use xlink:href="#m1b0e7ffaa1" x="150.333125" y="180.080081" style="stroke: #000000; stroke-width: 0.8"/>
      </g>
     </g>
     <g id="text_2">
      <!-- 50% -->
      <g transform="translate(72.208125 192.237581) scale(0.32 -0.32)">
       <defs>
        <path id="DejaVuSans-35" d="M 691 4666 
L 3169 4666 
L 3169 4134 
L 1269 4134 
L 1269 2991 
Q 1406 3038 1543 3061 
Q 1681 3084 1819 3084 
Q 2600 3084 3056 2656 
Q 3513 2228 3513 1497 
Q 3513 744 3044 326 
Q 2575 -91 1722 -91 
Q 1428 -91 1123 -41 
Q 819 9 494 109 
L 494 744 
Q 775 591 1075 516 
Q 1375 441 1709 441 
Q 2250 441 2565 725 
Q 2881 1009 2881 1497 
Q 2881 1984 2565 2268 
Q 2250 2553 1709 2553 
Q 1456 2553 1204 2497 
Q 953 2441 691 2322 
L 691 4666 
z
" transform="scale(0.015625)"/>
       </defs>
       <use xlink:href="#DejaVuSans-35"/>
       <use xlink:href="#DejaVuSans-30" x="63.623047"/>
       <use xlink:href="#DejaVuSans-25" x="127.246094"/>
      </g>
     </g>
    </g>
    <g id="ytick_3">
     <g id="line2d_3">
      <g>
       <use xlink:href="#m1b0e7ffaa1" x="150.333125" y="19.3575" style="stroke: #000000; stroke-width: 0.8"/>
      </g>
     </g>
     <g id="text_3">
      <!-- 100% -->
      <g transform="translate(51.848125 31.515) scale(0.32 -0.32)">
       <defs>
        <path id="DejaVuSans-31" d="M 794 531 
L 1825 531 
L 1825 4091 
L 703 3866 
L 703 4441 
L 1819 4666 
L 2450 4666 
L 2450 531 
L 3481 531 
L 3481 0 
L 794 0 
L 794 531 
z
" transform="scale(0.015625)"/>
       </defs>
       <use xlink:href="#DejaVuSans-31"/>
       <use xlink:href="#DejaVuSans-30" x="63.623047"/>
       <use xlink:href="#DejaVuSans-30" x="127.246094"/>
       <use xlink:href="#DejaVuSans-25" x="190.869141"/>
      </g>
     </g>
    </g>
    <g id="text_4">
     <!-- Percent of MSAs -->
     <g style="fill: #87ceeb" transform="translate(39.113437 344.215161) rotate(-90) scale(0.42 -0.42)">
      <defs>
       <path id="DejaVuSans-50" d="M 1259 4147 
L 1259 2394 
L 2053 2394 
Q 2494 2394 2734 2622 
Q 2975 2850 2975 3272 
Q 2975 3691 2734 3919 
Q 2494 4147 2053 4147 
L 1259 4147 
z
M 628 4666 
L 2053 4666 
Q 2838 4666 3239 4311 
Q 3641 3956 3641 3272 
Q 3641 2581 3239 2228 
Q 2838 1875 2053 1875 
L 1259 1875 
L 1259 0 
L 628 0 
L 628 4666 
z
" transform="scale(0.015625)"/>
       <path id="DejaVuSans-65" d="M 3597 1894 
L 3597 1613 
L 953 1613 
Q 991 1019 1311 708 
Q 1631 397 2203 397 
Q 2534 397 2845 478 
Q 3156 559 3463 722 
L 3463 178 
Q 3153 47 2828 -22 
Q 2503 -91 2169 -91 
Q 1331 -91 842 396 
Q 353 884 353 1716 
Q 353 2575 817 3079 
Q 1281 3584 2069 3584 
Q 2775 3584 3186 3129 
Q 3597 2675 3597 1894 
z
M 3022 2063 
Q 3016 2534 2758 2815 
Q 2500 3097 2075 3097 
Q 1594 3097 1305 2825 
Q 1016 2553 972 2059 
L 3022 2063 
z
" transform="scale(0.015625)"/>
       <path id="DejaVuSans-72" d="M 2631 2963 
Q 2534 3019 2420 3045 
Q 2306 3072 2169 3072 
Q 1681 3072 1420 2755 
Q 1159 2438 1159 1844 
L 1159 0 
L 581 0 
L 581 3500 
L 1159 3500 
L 1159 2956 
Q 1341 3275 1631 3429 
Q 1922 3584 2338 3584 
Q 2397 3584 2469 3576 
Q 2541 3569 2628 3553 
L 2631 2963 
z
" transform="scale(0.015625)"/>
       <path id="DejaVuSans-63" d="M 3122 3366 
L 3122 2828 
Q 2878 2963 2633 3030 
Q 2388 3097 2138 3097 
Q 1578 3097 1268 2742 
Q 959 2388 959 1747 
Q 959 1106 1268 751 
Q 1578 397 2138 397 
Q 2388 397 2633 464 
Q 2878 531 3122 666 
L 3122 134 
Q 2881 22 2623 -34 
Q 2366 -91 2075 -91 
Q 1284 -91 818 406 
Q 353 903 353 1747 
Q 353 2603 823 3093 
Q 1294 3584 2113 3584 
Q 2378 3584 2631 3529 
Q 2884 3475 3122 3366 
z
" transform="scale(0.015625)"/>
       <path id="DejaVuSans-6e" d="M 3513 2113 
L 3513 0 
L 2938 0 
L 2938 2094 
Q 2938 2591 2744 2837 
Q 2550 3084 2163 3084 
Q 1697 3084 1428 2787 
Q 1159 2491 1159 1978 
L 1159 0 
L 581 0 
L 581 3500 
L 1159 3500 
L 1159 2956 
Q 1366 3272 1645 3428 
Q 1925 3584 2291 3584 
Q 2894 3584 3203 3211 
Q 3513 2838 3513 2113 
z
" transform="scale(0.015625)"/>
       <path id="DejaVuSans-74" d="M 1172 4494 
L 1172 3500 
L 2356 3500 
L 2356 3053 
L 1172 3053 
L 1172 1153 
Q 1172 725 1289 603 
Q 1406 481 1766 481 
L 2356 481 
L 2356 0 
L 1766 0 
Q 1100 0 847 248 
Q 594 497 594 1153 
L 594 3053 
L 172 3053 
L 172 3500 
L 594 3500 
L 594 4494 
L 1172 4494 
z
" transform="scale(0.015625)"/>
       <path id="DejaVuSans-20" transform="scale(0.015625)"/>
       <path id="DejaVuSans-6f" d="M 1959 3097 
Q 1497 3097 1228 2736 
Q 959 2375 959 1747 
Q 959 1119 1226 758 
Q 1494 397 1959 397 
Q 2419 397 2687 759 
Q 2956 1122 2956 1747 
Q 2956 2369 2687 2733 
Q 2419 3097 1959 3097 
z
M 1959 3584 
Q 2709 3584 3137 3096 
Q 3566 2609 3566 1747 
Q 3566 888 3137 398 
Q 2709 -91 1959 -91 
Q 1206 -91 779 398 
Q 353 888 353 1747 
Q 353 2609 779 3096 
Q 1206 3584 1959 3584 
z
" transform="scale(0.015625)"/>
       <path id="DejaVuSans-66" d="M 2375 4863 
L 2375 4384 
L 1825 4384 
Q 1516 4384 1395 4259 
Q 1275 4134 1275 3809 
L 1275 3500 
L 2222 3500 
L 2222 3053 
L 1275 3053 
L 1275 0 
L 697 0 
L 697 3053 
L 147 3053 
L 147 3500 
L 697 3500 
L 697 3744 
Q 697 4328 969 4595 
Q 1241 4863 1831 4863 
L 2375 4863 
z
" transform="scale(0.015625)"/>
       <path id="DejaVuSans-4d" d="M 628 4666 
L 1569 4666 
L 2759 1491 
L 3956 4666 
L 4897 4666 
L 4897 0 
L 4281 0 
L 4281 4097 
L 3078 897 
L 2444 897 
L 1241 4097 
L 1241 0 
L 628 0 
L 628 4666 
z
" transform="scale(0.015625)"/>
       <path id="DejaVuSans-53" d="M 3425 4513 
L 3425 3897 
Q 3066 4069 2747 4153 
Q 2428 4238 2131 4238 
Q 1616 4238 1336 4038 
Q 1056 3838 1056 3469 
Q 1056 3159 1242 3001 
Q 1428 2844 1947 2747 
L 2328 2669 
Q 3034 2534 3370 2195 
Q 3706 1856 3706 1288 
Q 3706 609 3251 259 
Q 2797 -91 1919 -91 
Q 1588 -91 1214 -16 
Q 841 59 441 206 
L 441 856 
Q 825 641 1194 531 
Q 1563 422 1919 422 
Q 2459 422 2753 634 
Q 3047 847 3047 1241 
Q 3047 1584 2836 1778 
Q 2625 1972 2144 2069 
L 1759 2144 
Q 1053 2284 737 2584 
Q 422 2884 422 3419 
Q 422 4038 858 4394 
Q 1294 4750 2059 4750 
Q 2388 4750 2728 4690 
Q 3069 4631 3425 4513 
z
" transform="scale(0.015625)"/>
       <path id="DejaVuSans-41" d="M 2188 4044 
L 1331 1722 
L 3047 1722 
L 2188 4044 
z
M 1831 4666 
L 2547 4666 
L 4325 0 
L 3669 0 
L 3244 1197 
L 1141 1197 
L 716 0 
L 50 0 
L 1831 4666 
z
" transform="scale(0.015625)"/>
       <path id="DejaVuSans-73" d="M 2834 3397 
L 2834 2853 
Q 2591 2978 2328 3040 
Q 2066 3103 1784 3103 
Q 1356 3103 1142 2972 
Q 928 2841 928 2578 
Q 928 2378 1081 2264 
Q 1234 2150 1697 2047 
L 1894 2003 
Q 2506 1872 2764 1633 
Q 3022 1394 3022 966 
Q 3022 478 2636 193 
Q 2250 -91 1575 -91 
Q 1294 -91 989 -36 
Q 684 19 347 128 
L 347 722 
Q 666 556 975 473 
Q 1284 391 1588 391 
Q 1994 391 2212 530 
Q 2431 669 2431 922 
Q 2431 1156 2273 1281 
Q 2116 1406 1581 1522 
L 1381 1569 
Q 847 1681 609 1914 
Q 372 2147 372 2553 
Q 372 3047 722 3315 
Q 1072 3584 1716 3584 
Q 2034 3584 2315 3537 
Q 2597 3491 2834 3397 
z
" transform="scale(0.015625)"/>
      </defs>
      <use xlink:href="#DejaVuSans-50"/>
      <use xlink:href="#DejaVuSans-65" x="56.677734"/>
      <use xlink:href="#DejaVuSans-72" x="118.201172"/>
      <use xlink:href="#DejaVuSans-63" x="157.064453"/>
      <use xlink:href="#DejaVuSans-65" x="212.044922"/>
      <use xlink:href="#DejaVuSans-6e" x="273.568359"/>
      <use xlink:href="#DejaVuSans-74" x="336.947266"/>
      <use xlink:href="#DejaVuSans-20" x="376.15625"/>
      <use xlink:href="#DejaVuSans-6f" x="407.943359"/>
      <use xlink:href="#DejaVuSans-66" x="469.125"/>
      <use xlink:href="#DejaVuSans-20" x="504.330078"/>
      <use xlink:href="#DejaVuSans-4d" x="536.117188"/>
      <use xlink:href="#DejaVuSans-53" x="622.396484"/>
      <use xlink:href="#DejaVuSans-41" x="687.748047"/>
      <use xlink:href="#DejaVuSans-73" x="756.15625"/>
     </g>
    </g>
   </g>
   <g id="patch_10">
    <path d="M 150.333125 340.802661 
L 150.333125 8.162661 
" style="fill: none; stroke: #000000; stroke-width: 0.8; stroke-linejoin: miter; stroke-linecap: square"/>
   </g>
   <g id="patch_11">
    <path d="M 540.933125 340.802661 
L 540.933125 8.162661 
" style="fill: none; stroke: #000000; stroke-width: 0.8; stroke-linejoin: miter; stroke-linecap: square"/>
   </g>
   <g id="patch_12">
    <path d="M 150.333125 340.802661 
L 540.933125 340.802661 
" style="fill: none; stroke: #000000; stroke-width: 0.8; stroke-linejoin: miter; stroke-linecap: square"/>
   </g>
   <g id="patch_13">
    <path d="M 150.333125 8.162661 
L 540.933125 8.162661 
" style="fill: none; stroke: #000000; stroke-width: 0.8; stroke-linejoin: miter; stroke-linecap: square"/>
   </g>
  </g>
  <g id="axes_2">
   <g id="PolyCollection_1">
    <defs>
     <path id="meeccd12fd5" d="M 178.69778 -25.857741 
L 177.76847 -25.857741 
L 177.777919 -29.059229 
L 177.805127 -32.260718 
L 177.846906 -35.462207 
L 177.898623 -38.663696 
L 177.955049 -41.865184 
L 178.011198 -45.066673 
L 178.063009 -48.268162 
L 178.107721 -51.469651 
L 178.143936 -54.67114 
L 178.171419 -57.872628 
L 178.19075 -61.074117 
L 178.202944 -64.275606 
L 178.209125 -67.477095 
L 178.210315 -70.678584 
L 178.20735 -73.880072 
L 178.200884 -77.081561 
L 178.19147 -80.28305 
L 178.179653 -83.484539 
L 178.16604 -86.686027 
L 178.151326 -89.887516 
L 178.136262 -93.089005 
L 178.121582 -96.290494 
L 178.107912 -99.491983 
L 178.095697 -102.693471 
L 178.085171 -105.89496 
L 178.076397 -109.096449 
L 178.069343 -112.297938 
L 178.063985 -115.499427 
L 178.060393 -118.700915 
L 178.058757 -121.902404 
L 178.059358 -125.103893 
L 178.062478 -128.305382 
L 178.068297 -131.506871 
L 178.076803 -134.708359 
L 178.087749 -137.909848 
L 178.100675 -141.111337 
L 178.114968 -144.312826 
L 178.129951 -147.514314 
L 178.144966 -150.715803 
L 178.159443 -153.917292 
L 178.172925 -157.118781 
L 178.185086 -160.32027 
L 178.195716 -163.521758 
L 178.204711 -166.723247 
L 178.212047 -169.924736 
L 178.217761 -173.126225 
L 178.221924 -176.327714 
L 178.224605 -179.529202 
L 178.225842 -182.730691 
L 178.225615 -185.93218 
L 178.223836 -189.133669 
L 178.220353 -192.335157 
L 178.214991 -195.536646 
L 178.20761 -198.738135 
L 178.198187 -201.939624 
L 178.186902 -205.141113 
L 178.174201 -208.342601 
L 178.160819 -211.54409 
L 178.147745 -214.745579 
L 178.136116 -217.947068 
L 178.12706 -221.148557 
L 178.121511 -224.350045 
L 178.12004 -227.551534 
L 178.122735 -230.753023 
L 178.12917 -233.954512 
L 178.138463 -237.156001 
L 178.149407 -240.357489 
L 178.160657 -243.558978 
L 178.170912 -246.760467 
L 178.17908 -249.961956 
L 178.184381 -253.163444 
L 178.186401 -256.364933 
L 178.185083 -259.566422 
L 178.180681 -262.767911 
L 178.173681 -265.9694 
L 178.164706 -269.170888 
L 178.154372 -272.372377 
L 178.143101 -275.573866 
L 178.130823 -278.775355 
L 178.116499 -281.976844 
L 178.097379 -285.178332 
L 178.067893 -288.379821 
L 178.018105 -291.58131 
L 177.931773 -294.782799 
L 177.784249 -297.984287 
L 177.540756 -301.185776 
L 177.155903 -304.387265 
L 176.575601 -307.588754 
L 175.742495 -310.790243 
L 174.605588 -313.991731 
L 173.133638 -317.19322 
L 171.330418 -320.394709 
L 169.248325 -323.596198 
L 166.995839 -326.797687 
L 164.734618 -329.999175 
L 162.663907 -333.200664 
L 160.993214 -336.402153 
L 159.907998 -339.603642 
L 159.535997 -342.805131 
L 196.930253 -342.805131 
L 196.930253 -342.805131 
L 196.558252 -339.603642 
L 195.473036 -336.402153 
L 193.802343 -333.200664 
L 191.731632 -329.999175 
L 189.470411 -326.797687 
L 187.217925 -323.596198 
L 185.135832 -320.394709 
L 183.332612 -317.19322 
L 181.860662 -313.991731 
L 180.723755 -310.790243 
L 179.890649 -307.588754 
L 179.310347 -304.387265 
L 178.925494 -301.185776 
L 178.682001 -297.984287 
L 178.534477 -294.782799 
L 178.448145 -291.58131 
L 178.398357 -288.379821 
L 178.368871 -285.178332 
L 178.349751 -281.976844 
L 178.335427 -278.775355 
L 178.323149 -275.573866 
L 178.311878 -272.372377 
L 178.301544 -269.170888 
L 178.292569 -265.9694 
L 178.285569 -262.767911 
L 178.281167 -259.566422 
L 178.279849 -256.364933 
L 178.281869 -253.163444 
L 178.28717 -249.961956 
L 178.295338 -246.760467 
L 178.305593 -243.558978 
L 178.316843 -240.357489 
L 178.327787 -237.156001 
L 178.33708 -233.954512 
L 178.343515 -230.753023 
L 178.34621 -227.551534 
L 178.344739 -224.350045 
L 178.33919 -221.148557 
L 178.330134 -217.947068 
L 178.318505 -214.745579 
L 178.305431 -211.54409 
L 178.292049 -208.342601 
L 178.279348 -205.141113 
L 178.268063 -201.939624 
L 178.25864 -198.738135 
L 178.251259 -195.536646 
L 178.245897 -192.335157 
L 178.242414 -189.133669 
L 178.240635 -185.93218 
L 178.240408 -182.730691 
L 178.241645 -179.529202 
L 178.244326 -176.327714 
L 178.248489 -173.126225 
L 178.254203 -169.924736 
L 178.261539 -166.723247 
L 178.270534 -163.521758 
L 178.281164 -160.32027 
L 178.293325 -157.118781 
L 178.306807 -153.917292 
L 178.321284 -150.715803 
L 178.336299 -147.514314 
L 178.351282 -144.312826 
L 178.365575 -141.111337 
L 178.378501 -137.909848 
L 178.389447 -134.708359 
L 178.397953 -131.506871 
L 178.403772 -128.305382 
L 178.406892 -125.103893 
L 178.407493 -121.902404 
L 178.405857 -118.700915 
L 178.402265 -115.499427 
L 178.396907 -112.297938 
L 178.389853 -109.096449 
L 178.381079 -105.89496 
L 178.370553 -102.693471 
L 178.358338 -99.491983 
L 178.344668 -96.290494 
L 178.329988 -93.089005 
L 178.314924 -89.887516 
L 178.30021 -86.686027 
L 178.286597 -83.484539 
L 178.27478 -80.28305 
L 178.265366 -77.081561 
L 178.2589 -73.880072 
L 178.255935 -70.678584 
L 178.257125 -67.477095 
L 178.263306 -64.275606 
L 178.2755 -61.074117 
L 178.294831 -57.872628 
L 178.322314 -54.67114 
L 178.358529 -51.469651 
L 178.403241 -48.268162 
L 178.455052 -45.066673 
L 178.511201 -41.865184 
L 178.567627 -38.663696 
L 178.619344 -35.462207 
L 178.661123 -32.260718 
L 178.688331 -29.059229 
L 178.69778 -25.857741 
z
" style="stroke: #4c4c4c; stroke-width: 1.25"/>
    </defs>
    <g clip-path="url(#pe746ceb4bf)">
     <use xlink:href="#meeccd12fd5" x="0" y="366.815161" style="fill: #df9c20; stroke: #4c4c4c; stroke-width: 1.25"/>
    </g>
   </g>
   <g id="PolyCollection_2">
    <defs>
     <path id="mddf75efbd8" d="M 236.407403 -25.857741 
L 231.658847 -25.857741 
L 231.583566 -29.059229 
L 231.518689 -32.260718 
L 231.464902 -35.462207 
L 231.422705 -38.663696 
L 231.392397 -41.865184 
L 231.374078 -45.066673 
L 231.367647 -48.268162 
L 231.372813 -51.469651 
L 231.389109 -54.67114 
L 231.415904 -57.872628 
L 231.452433 -61.074117 
L 231.497816 -64.275606 
L 231.551087 -67.477095 
L 231.611221 -70.678584 
L 231.67716 -73.880072 
L 231.747842 -77.081561 
L 231.822222 -80.28305 
L 231.899295 -83.484539 
L 231.978115 -86.686027 
L 232.05781 -89.887516 
L 232.137592 -93.089005 
L 232.216765 -96.290494 
L 232.294732 -99.491983 
L 232.37099 -102.693471 
L 232.445133 -105.89496 
L 232.516846 -109.096449 
L 232.585895 -112.297938 
L 232.652126 -115.499427 
L 232.715446 -118.700915 
L 232.775823 -121.902404 
L 232.833269 -125.103893 
L 232.887832 -128.305382 
L 232.939591 -131.506871 
L 232.98864 -134.708359 
L 233.03509 -137.909848 
L 233.079054 -141.111337 
L 233.120647 -144.312826 
L 233.159982 -147.514314 
L 233.197167 -150.715803 
L 233.232299 -153.917292 
L 233.26547 -157.118781 
L 233.296762 -160.32027 
L 233.326246 -163.521758 
L 233.353986 -166.723247 
L 233.380038 -169.924736 
L 233.40445 -173.126225 
L 233.427263 -176.327714 
L 233.44851 -179.529202 
L 233.468217 -182.730691 
L 233.486403 -185.93218 
L 233.503076 -189.133669 
L 233.518235 -192.335157 
L 233.531866 -195.536646 
L 233.54394 -198.738135 
L 233.55441 -201.939624 
L 233.563211 -205.141113 
L 233.570248 -208.342601 
L 233.575404 -211.54409 
L 233.578528 -214.745579 
L 233.579431 -217.947068 
L 233.577887 -221.148557 
L 233.573629 -224.350045 
L 233.566341 -227.551534 
L 233.555661 -230.753023 
L 233.541179 -233.954512 
L 233.522435 -237.156001 
L 233.498927 -240.357489 
L 233.470109 -243.558978 
L 233.435401 -246.760467 
L 233.394201 -249.961956 
L 233.345893 -253.163444 
L 233.289869 -256.364933 
L 233.225543 -259.566422 
L 233.152377 -262.767911 
L 233.069905 -265.9694 
L 232.97776 -269.170888 
L 232.875703 -272.372377 
L 232.763655 -275.573866 
L 232.64172 -278.775355 
L 232.510217 -281.976844 
L 232.3697 -285.178332 
L 232.220978 -288.379821 
L 232.065125 -291.58131 
L 231.903485 -294.782799 
L 231.737667 -297.984287 
L 231.569533 -301.185776 
L 231.401166 -304.387265 
L 231.234846 -307.588754 
L 231.072995 -310.790243 
L 230.918133 -313.991731 
L 230.772811 -317.19322 
L 230.639547 -320.394709 
L 230.52076 -323.596198 
L 230.418697 -326.797687 
L 230.335369 -329.999175 
L 230.272487 -333.200664 
L 230.231407 -336.402153 
L 230.213091 -339.603642 
L 230.218067 -342.805131 
L 237.848183 -342.805131 
L 237.848183 -342.805131 
L 237.853159 -339.603642 
L 237.834843 -336.402153 
L 237.793763 -333.200664 
L 237.730881 -329.999175 
L 237.647553 -326.797687 
L 237.54549 -323.596198 
L 237.426703 -320.394709 
L 237.293439 -317.19322 
L 237.148117 -313.991731 
L 236.993255 -310.790243 
L 236.831404 -307.588754 
L 236.665084 -304.387265 
L 236.496717 -301.185776 
L 236.328583 -297.984287 
L 236.162765 -294.782799 
L 236.001125 -291.58131 
L 235.845272 -288.379821 
L 235.69655 -285.178332 
L 235.556033 -281.976844 
L 235.42453 -278.775355 
L 235.302595 -275.573866 
L 235.190547 -272.372377 
L 235.08849 -269.170888 
L 234.996345 -265.9694 
L 234.913873 -262.767911 
L 234.840707 -259.566422 
L 234.776381 -256.364933 
L 234.720357 -253.163444 
L 234.672049 -249.961956 
L 234.630849 -246.760467 
L 234.596141 -243.558978 
L 234.567323 -240.357489 
L 234.543815 -237.156001 
L 234.525071 -233.954512 
L 234.510589 -230.753023 
L 234.499909 -227.551534 
L 234.492621 -224.350045 
L 234.488363 -221.148557 
L 234.486819 -217.947068 
L 234.487722 -214.745579 
L 234.490846 -211.54409 
L 234.496002 -208.342601 
L 234.503039 -205.141113 
L 234.51184 -201.939624 
L 234.52231 -198.738135 
L 234.534384 -195.536646 
L 234.548015 -192.335157 
L 234.563174 -189.133669 
L 234.579847 -185.93218 
L 234.598033 -182.730691 
L 234.61774 -179.529202 
L 234.638987 -176.327714 
L 234.6618 -173.126225 
L 234.686212 -169.924736 
L 234.712264 -166.723247 
L 234.740004 -163.521758 
L 234.769488 -160.32027 
L 234.80078 -157.118781 
L 234.833951 -153.917292 
L 234.869083 -150.715803 
L 234.906268 -147.514314 
L 234.945603 -144.312826 
L 234.987196 -141.111337 
L 235.03116 -137.909848 
L 235.07761 -134.708359 
L 235.126659 -131.506871 
L 235.178418 -128.305382 
L 235.232981 -125.103893 
L 235.290427 -121.902404 
L 235.350804 -118.700915 
L 235.414124 -115.499427 
L 235.480355 -112.297938 
L 235.549404 -109.096449 
L 235.621117 -105.89496 
L 235.69526 -102.693471 
L 235.771518 -99.491983 
L 235.849485 -96.290494 
L 235.928658 -93.089005 
L 236.00844 -89.887516 
L 236.088135 -86.686027 
L 236.166955 -83.484539 
L 236.244028 -80.28305 
L 236.318408 -77.081561 
L 236.38909 -73.880072 
L 236.455029 -70.678584 
L 236.515163 -67.477095 
L 236.568434 -64.275606 
L 236.613817 -61.074117 
L 236.650346 -57.872628 
L 236.677141 -54.67114 
L 236.693437 -51.469651 
L 236.698603 -48.268162 
L 236.692172 -45.066673 
L 236.673853 -41.865184 
L 236.643545 -38.663696 
L 236.601348 -35.462207 
L 236.547561 -32.260718 
L 236.482684 -29.059229 
L 236.407403 -25.857741 
z
" style="stroke: #4c4c4c; stroke-width: 1.25"/>
    </defs>
    <g clip-path="url(#pe746ceb4bf)">
     <use xlink:href="#mddf75efbd8" x="0" y="366.815161" style="fill: #df9c20; stroke: #4c4c4c; stroke-width: 1.25"/>
    </g>
   </g>
   <g id="PolyCollection_3">
    <defs>
     <path id="me342a9e01e" d="M 312.144428 -25.857741 
L 267.521822 -25.857741 
L 267.513125 -27.458485 
L 267.88448 -29.059229 
L 268.615277 -30.659974 
L 269.667176 -32.260718 
L 270.987367 -33.861463 
L 272.512892 -35.462207 
L 274.175519 -37.062951 
L 275.906672 -38.663696 
L 277.641903 -40.26444 
L 279.324542 -41.865184 
L 280.908262 -43.465929 
L 282.358473 -45.066673 
L 283.652578 -46.667418 
L 284.779273 -48.268162 
L 285.737121 -49.868906 
L 286.532661 -51.469651 
L 287.178338 -53.070395 
L 287.69046 -54.67114 
L 288.087359 -56.271884 
L 288.387869 -57.872628 
L 288.610155 -59.473373 
L 288.770905 -61.074117 
L 288.884838 -62.674862 
L 288.964485 -64.275606 
L 289.020162 -65.87635 
L 289.060093 -67.477095 
L 289.09061 -69.077839 
L 289.116398 -70.678584 
L 289.14076 -72.279328 
L 289.165863 -73.880072 
L 289.192969 -75.480817 
L 289.222636 -77.081561 
L 289.254899 -78.682306 
L 289.28941 -80.28305 
L 289.325567 -81.883794 
L 289.362611 -83.484539 
L 289.399702 -85.085283 
L 289.435986 -86.686027 
L 289.470638 -88.286772 
L 289.502896 -89.887516 
L 289.532084 -91.488261 
L 289.55763 -93.089005 
L 289.579074 -94.689749 
L 289.596075 -96.290494 
L 289.608415 -97.891238 
L 289.616007 -99.491983 
L 289.618896 -101.092727 
L 289.617262 -102.693471 
L 289.611425 -104.294216 
L 289.601841 -105.89496 
L 289.589098 -107.495705 
L 289.5739 -109.096449 
L 289.557054 -110.697193 
L 289.539436 -112.297938 
L 289.52196 -113.898682 
L 289.505536 -115.499427 
L 289.491022 -117.100171 
L 289.479184 -118.700915 
L 289.470642 -120.30166 
L 289.465839 -121.902404 
L 289.465011 -123.503149 
L 289.468166 -125.103893 
L 289.475082 -126.704637 
L 289.485324 -128.305382 
L 289.498262 -129.906126 
L 289.513117 -131.506871 
L 289.529009 -133.107615 
L 289.545007 -134.708359 
L 289.560192 -136.309104 
L 289.573708 -137.909848 
L 289.584803 -139.510592 
L 289.592865 -141.111337 
L 289.597435 -142.712081 
L 289.598204 -144.312826 
L 289.594993 -145.91357 
L 289.587711 -147.514314 
L 289.576302 -149.115059 
L 289.560683 -150.715803 
L 289.540674 -152.316548 
L 289.515953 -153.917292 
L 289.486007 -155.518036 
L 289.450129 -157.118781 
L 289.407445 -158.719525 
L 289.356985 -160.32027 
L 289.297797 -161.921014 
L 289.229095 -163.521758 
L 289.150445 -165.122503 
L 289.061939 -166.723247 
L 288.964372 -168.323992 
L 288.859364 -169.924736 
L 288.749421 -171.52548 
L 288.637908 -173.126225 
L 288.528923 -174.726969 
L 288.42708 -176.327714 
L 288.337201 -177.928458 
L 288.26396 -179.529202 
L 288.211503 -181.129947 
L 288.183094 -182.730691 
L 288.180818 -184.331436 
L 291.485432 -184.331436 
L 291.485432 -184.331436 
L 291.483156 -182.730691 
L 291.454747 -181.129947 
L 291.40229 -179.529202 
L 291.329049 -177.928458 
L 291.23917 -176.327714 
L 291.137327 -174.726969 
L 291.028342 -173.126225 
L 290.916829 -171.52548 
L 290.806886 -169.924736 
L 290.701878 -168.323992 
L 290.604311 -166.723247 
L 290.515805 -165.122503 
L 290.437155 -163.521758 
L 290.368453 -161.921014 
L 290.309265 -160.32027 
L 290.258805 -158.719525 
L 290.216121 -157.118781 
L 290.180243 -155.518036 
L 290.150297 -153.917292 
L 290.125576 -152.316548 
L 290.105567 -150.715803 
L 290.089948 -149.115059 
L 290.078539 -147.514314 
L 290.071257 -145.91357 
L 290.068046 -144.312826 
L 290.068815 -142.712081 
L 290.073385 -141.111337 
L 290.081447 -139.510592 
L 290.092542 -137.909848 
L 290.106058 -136.309104 
L 290.121243 -134.708359 
L 290.137241 -133.107615 
L 290.153133 -131.506871 
L 290.167988 -129.906126 
L 290.180926 -128.305382 
L 290.191168 -126.704637 
L 290.198084 -125.103893 
L 290.201239 -123.503149 
L 290.200411 -121.902404 
L 290.195608 -120.30166 
L 290.187066 -118.700915 
L 290.175228 -117.100171 
L 290.160714 -115.499427 
L 290.14429 -113.898682 
L 290.126814 -112.297938 
L 290.109196 -110.697193 
L 290.09235 -109.096449 
L 290.077152 -107.495705 
L 290.064409 -105.89496 
L 290.054825 -104.294216 
L 290.048988 -102.693471 
L 290.047354 -101.092727 
L 290.050243 -99.491983 
L 290.057835 -97.891238 
L 290.070175 -96.290494 
L 290.087176 -94.689749 
L 290.10862 -93.089005 
L 290.134166 -91.488261 
L 290.163354 -89.887516 
L 290.195612 -88.286772 
L 290.230264 -86.686027 
L 290.266548 -85.085283 
L 290.303639 -83.484539 
L 290.340683 -81.883794 
L 290.37684 -80.28305 
L 290.411351 -78.682306 
L 290.443614 -77.081561 
L 290.473281 -75.480817 
L 290.500387 -73.880072 
L 290.52549 -72.279328 
L 290.549852 -70.678584 
L 290.57564 -69.077839 
L 290.606157 -67.477095 
L 290.646088 -65.87635 
L 290.701765 -64.275606 
L 290.781412 -62.674862 
L 290.895345 -61.074117 
L 291.056095 -59.473373 
L 291.278381 -57.872628 
L 291.578891 -56.271884 
L 291.97579 -54.67114 
L 292.487912 -53.070395 
L 293.133589 -51.469651 
L 293.929129 -49.868906 
L 294.886977 -48.268162 
L 296.013672 -46.667418 
L 297.307777 -45.066673 
L 298.757988 -43.465929 
L 300.341708 -41.865184 
L 302.024347 -40.26444 
L 303.759578 -38.663696 
L 305.490731 -37.062951 
L 307.153358 -35.462207 
L 308.678883 -33.861463 
L 309.999074 -32.260718 
L 311.050973 -30.659974 
L 311.78177 -29.059229 
L 312.153125 -27.458485 
L 312.144428 -25.857741 
z
" style="stroke: #4c4c4c; stroke-width: 1.25"/>
    </defs>
    <g clip-path="url(#pe746ceb4bf)">
     <use xlink:href="#me342a9e01e" x="0" y="366.815161" style="fill: #df9c20; stroke: #4c4c4c; stroke-width: 1.25"/>
    </g>
   </g>
   <g id="PolyCollection_4">
    <defs>
     <path id="me271b1e854" d="M 402.410906 -25.857741 
L 400.455344 -25.857741 
L 400.464557 -29.059229 
L 400.491676 -32.260718 
L 400.535197 -35.462207 
L 400.592768 -38.663696 
L 400.661398 -41.865184 
L 400.737714 -45.066673 
L 400.818236 -48.268162 
L 400.89963 -51.469651 
L 400.978931 -54.67114 
L 401.053696 -57.872628 
L 401.122099 -61.074117 
L 401.182951 -64.275606 
L 401.235672 -67.477095 
L 401.280205 -70.678584 
L 401.316916 -73.880072 
L 401.346469 -77.081561 
L 401.369719 -80.28305 
L 401.387601 -83.484539 
L 401.401053 -86.686027 
L 401.410953 -89.887516 
L 401.418085 -93.089005 
L 401.423114 -96.290494 
L 401.426587 -99.491983 
L 401.428935 -102.693471 
L 401.43049 -105.89496 
L 401.431499 -109.096449 
L 401.43214 -112.297938 
L 401.43254 -115.499427 
L 401.432784 -118.700915 
L 401.43293 -121.902404 
L 401.433015 -125.103893 
L 401.433065 -128.305382 
L 401.433092 -131.506871 
L 401.433108 -134.708359 
L 401.433116 -137.909848 
L 401.43312 -141.111337 
L 401.433123 -144.312826 
L 401.433124 -147.514314 
L 401.433124 -150.715803 
L 401.433125 -153.917292 
L 401.433125 -157.118781 
L 401.433125 -160.32027 
L 401.433125 -163.521758 
L 401.433125 -166.723247 
L 401.433125 -169.924736 
L 401.433125 -173.126225 
L 401.433125 -176.327714 
L 401.433125 -179.529202 
L 401.433125 -182.730691 
L 401.433125 -185.93218 
L 401.433125 -189.133669 
L 401.433125 -192.335157 
L 401.433125 -195.536646 
L 401.433125 -198.738135 
L 401.433125 -201.939624 
L 401.433124 -205.141113 
L 401.433124 -208.342601 
L 401.433122 -211.54409 
L 401.433119 -214.745579 
L 401.433111 -217.947068 
L 401.433097 -221.148557 
L 401.433069 -224.350045 
L 401.433014 -227.551534 
L 401.432908 -230.753023 
L 401.432711 -233.954512 
L 401.432349 -237.156001 
L 401.431696 -240.357489 
L 401.430544 -243.558978 
L 401.428548 -246.760467 
L 401.425159 -249.961956 
L 401.419515 -253.163444 
L 401.410303 -256.364933 
L 401.395563 -259.566422 
L 401.372446 -262.767911 
L 401.336918 -265.9694 
L 401.283417 -269.170888 
L 401.204487 -272.372377 
L 401.090428 -275.573866 
L 400.929013 -278.775355 
L 400.70536 -281.976844 
L 400.402032 -285.178332 
L 399.999476 -288.379821 
L 399.476888 -291.58131 
L 398.813559 -294.782799 
L 397.990712 -297.984287 
L 396.993782 -301.185776 
L 395.814976 -304.387265 
L 394.455886 -307.588754 
L 392.929837 -310.790243 
L 391.263604 -313.991731 
L 389.498138 -317.19322 
L 387.687989 -320.394709 
L 385.899255 -323.596198 
L 384.206037 -326.797687 
L 382.685602 -329.999175 
L 381.412665 -333.200664 
L 380.453351 -336.402153 
L 379.859518 -339.603642 
L 379.664121 -342.805131 
L 423.202129 -342.805131 
L 423.202129 -342.805131 
L 423.006732 -339.603642 
L 422.412899 -336.402153 
L 421.453585 -333.200664 
L 420.180648 -329.999175 
L 418.660213 -326.797687 
L 416.966995 -323.596198 
L 415.178261 -320.394709 
L 413.368112 -317.19322 
L 411.602646 -313.991731 
L 409.936413 -310.790243 
L 408.410364 -307.588754 
L 407.051274 -304.387265 
L 405.872468 -301.185776 
L 404.875538 -297.984287 
L 404.052691 -294.782799 
L 403.389362 -291.58131 
L 402.866774 -288.379821 
L 402.464218 -285.178332 
L 402.16089 -281.976844 
L 401.937237 -278.775355 
L 401.775822 -275.573866 
L 401.661763 -272.372377 
L 401.582833 -269.170888 
L 401.529332 -265.9694 
L 401.493804 -262.767911 
L 401.470687 -259.566422 
L 401.455947 -256.364933 
L 401.446735 -253.163444 
L 401.441091 -249.961956 
L 401.437702 -246.760467 
L 401.435706 -243.558978 
L 401.434554 -240.357489 
L 401.433901 -237.156001 
L 401.433539 -233.954512 
L 401.433342 -230.753023 
L 401.433236 -227.551534 
L 401.433181 -224.350045 
L 401.433153 -221.148557 
L 401.433139 -217.947068 
L 401.433131 -214.745579 
L 401.433128 -211.54409 
L 401.433126 -208.342601 
L 401.433126 -205.141113 
L 401.433125 -201.939624 
L 401.433125 -198.738135 
L 401.433125 -195.536646 
L 401.433125 -192.335157 
L 401.433125 -189.133669 
L 401.433125 -185.93218 
L 401.433125 -182.730691 
L 401.433125 -179.529202 
L 401.433125 -176.327714 
L 401.433125 -173.126225 
L 401.433125 -169.924736 
L 401.433125 -166.723247 
L 401.433125 -163.521758 
L 401.433125 -160.32027 
L 401.433125 -157.118781 
L 401.433125 -153.917292 
L 401.433126 -150.715803 
L 401.433126 -147.514314 
L 401.433127 -144.312826 
L 401.43313 -141.111337 
L 401.433134 -137.909848 
L 401.433142 -134.708359 
L 401.433158 -131.506871 
L 401.433185 -128.305382 
L 401.433235 -125.103893 
L 401.43332 -121.902404 
L 401.433466 -118.700915 
L 401.43371 -115.499427 
L 401.43411 -112.297938 
L 401.434751 -109.096449 
L 401.43576 -105.89496 
L 401.437315 -102.693471 
L 401.439663 -99.491983 
L 401.443136 -96.290494 
L 401.448165 -93.089005 
L 401.455297 -89.887516 
L 401.465197 -86.686027 
L 401.478649 -83.484539 
L 401.496531 -80.28305 
L 401.519781 -77.081561 
L 401.549334 -73.880072 
L 401.586045 -70.678584 
L 401.630578 -67.477095 
L 401.683299 -64.275606 
L 401.744151 -61.074117 
L 401.812554 -57.872628 
L 401.887319 -54.67114 
L 401.96662 -51.469651 
L 402.048014 -48.268162 
L 402.128536 -45.066673 
L 402.204852 -41.865184 
L 402.273482 -38.663696 
L 402.331053 -35.462207 
L 402.374574 -32.260718 
L 402.401693 -29.059229 
L 402.410906 -25.857741 
z
" style="stroke: #4c4c4c; stroke-width: 1.25"/>
    </defs>
    <g clip-path="url(#pe746ceb4bf)">
     <use xlink:href="#me271b1e854" x="0" y="366.815161" style="fill: #df9c20; stroke: #4c4c4c; stroke-width: 1.25"/>
    </g>
   </g>
   <g id="PolyCollection_5">
    <defs>
     <path id="m4179c428d9" d="M 461.183482 -25.857741 
L 453.282768 -25.857741 
L 453.185235 -29.059229 
L 453.098761 -32.260718 
L 453.024 -35.462207 
L 452.961489 -38.663696 
L 452.911646 -41.865184 
L 452.874762 -45.066673 
L 452.851001 -48.268162 
L 452.840398 -51.469651 
L 452.84286 -54.67114 
L 452.858173 -57.872628 
L 452.886009 -61.074117 
L 452.925927 -64.275606 
L 452.977388 -67.477095 
L 453.039765 -70.678584 
L 453.11235 -73.880072 
L 453.19437 -77.081561 
L 453.284997 -80.28305 
L 453.383361 -83.484539 
L 453.488562 -86.686027 
L 453.599681 -89.887516 
L 453.715792 -93.089005 
L 453.835975 -96.290494 
L 453.959319 -99.491983 
L 454.084939 -102.693471 
L 454.211977 -105.89496 
L 454.339613 -109.096449 
L 454.467068 -112.297938 
L 454.593609 -115.499427 
L 454.718554 -118.700915 
L 454.841273 -121.902404 
L 454.96119 -125.103893 
L 455.077785 -128.305382 
L 455.19059 -131.506871 
L 455.299193 -134.708359 
L 455.403235 -137.909848 
L 455.502407 -141.111337 
L 455.596448 -144.312826 
L 455.685144 -147.514314 
L 455.768322 -150.715803 
L 455.845852 -153.917292 
L 455.917638 -157.118781 
L 455.983614 -160.32027 
L 456.043749 -163.521758 
L 456.098031 -166.723247 
L 456.146473 -169.924736 
L 456.189105 -173.126225 
L 456.225969 -176.327714 
L 456.257118 -179.529202 
L 456.282611 -182.730691 
L 456.30251 -185.93218 
L 456.316875 -189.133669 
L 456.325762 -192.335157 
L 456.32922 -195.536646 
L 456.327286 -198.738135 
L 456.319986 -201.939624 
L 456.30733 -205.141113 
L 456.289312 -208.342601 
L 456.265906 -211.54409 
L 456.237071 -214.745579 
L 456.202745 -217.947068 
L 456.162851 -221.148557 
L 456.117295 -224.350045 
L 456.065973 -227.551534 
L 456.00877 -230.753023 
L 455.945572 -233.954512 
L 455.876262 -237.156001 
L 455.800738 -240.357489 
L 455.71891 -243.558978 
L 455.630717 -246.760467 
L 455.536134 -249.961956 
L 455.435179 -253.163444 
L 455.327925 -256.364933 
L 455.214512 -259.566422 
L 455.095153 -262.767911 
L 454.970146 -265.9694 
L 454.839879 -269.170888 
L 454.704841 -272.372377 
L 454.565625 -275.573866 
L 454.422928 -278.775355 
L 454.277558 -281.976844 
L 454.130427 -285.178332 
L 453.982552 -288.379821 
L 453.835041 -291.58131 
L 453.68909 -294.782799 
L 453.545964 -297.984287 
L 453.406985 -301.185776 
L 453.273516 -304.387265 
L 453.146934 -307.588754 
L 453.028616 -310.790243 
L 452.919909 -313.991731 
L 452.822112 -317.19322 
L 452.736447 -320.394709 
L 452.664039 -323.596198 
L 452.605893 -326.797687 
L 452.562871 -329.999175 
L 452.535677 -333.200664 
L 452.524839 -336.402153 
L 452.530697 -339.603642 
L 452.553396 -342.805131 
L 461.912854 -342.805131 
L 461.912854 -342.805131 
L 461.935553 -339.603642 
L 461.941411 -336.402153 
L 461.930573 -333.200664 
L 461.903379 -329.999175 
L 461.860357 -326.797687 
L 461.802211 -323.596198 
L 461.729803 -320.394709 
L 461.644138 -317.19322 
L 461.546341 -313.991731 
L 461.437634 -310.790243 
L 461.319316 -307.588754 
L 461.192734 -304.387265 
L 461.059265 -301.185776 
L 460.920286 -297.984287 
L 460.77716 -294.782799 
L 460.631209 -291.58131 
L 460.483698 -288.379821 
L 460.335823 -285.178332 
L 460.188692 -281.976844 
L 460.043322 -278.775355 
L 459.900625 -275.573866 
L 459.761409 -272.372377 
L 459.626371 -269.170888 
L 459.496104 -265.9694 
L 459.371097 -262.767911 
L 459.251738 -259.566422 
L 459.138325 -256.364933 
L 459.031071 -253.163444 
L 458.930116 -249.961956 
L 458.835533 -246.760467 
L 458.74734 -243.558978 
L 458.665512 -240.357489 
L 458.589988 -237.156001 
L 458.520678 -233.954512 
L 458.45748 -230.753023 
L 458.400277 -227.551534 
L 458.348955 -224.350045 
L 458.303399 -221.148557 
L 458.263505 -217.947068 
L 458.229179 -214.745579 
L 458.200344 -211.54409 
L 458.176938 -208.342601 
L 458.15892 -205.141113 
L 458.146264 -201.939624 
L 458.138964 -198.738135 
L 458.13703 -195.536646 
L 458.140488 -192.335157 
L 458.149375 -189.133669 
L 458.16374 -185.93218 
L 458.183639 -182.730691 
L 458.209132 -179.529202 
L 458.240281 -176.327714 
L 458.277145 -173.126225 
L 458.319777 -169.924736 
L 458.368219 -166.723247 
L 458.422501 -163.521758 
L 458.482636 -160.32027 
L 458.548612 -157.118781 
L 458.620398 -153.917292 
L 458.697928 -150.715803 
L 458.781106 -147.514314 
L 458.869802 -144.312826 
L 458.963843 -141.111337 
L 459.063015 -137.909848 
L 459.167057 -134.708359 
L 459.27566 -131.506871 
L 459.388465 -128.305382 
L 459.50506 -125.103893 
L 459.624977 -121.902404 
L 459.747696 -118.700915 
L 459.872641 -115.499427 
L 459.999182 -112.297938 
L 460.126637 -109.096449 
L 460.254273 -105.89496 
L 460.381311 -102.693471 
L 460.506931 -99.491983 
L 460.630275 -96.290494 
L 460.750458 -93.089005 
L 460.866569 -89.887516 
L 460.977688 -86.686027 
L 461.082889 -83.484539 
L 461.181253 -80.28305 
L 461.27188 -77.081561 
L 461.3539 -73.880072 
L 461.426485 -70.678584 
L 461.488862 -67.477095 
L 461.540323 -64.275606 
L 461.580241 -61.074117 
L 461.608077 -57.872628 
L 461.62339 -54.67114 
L 461.625852 -51.469651 
L 461.615249 -48.268162 
L 461.591488 -45.066673 
L 461.554604 -41.865184 
L 461.504761 -38.663696 
L 461.44225 -35.462207 
L 461.367489 -32.260718 
L 461.281015 -29.059229 
L 461.183482 -25.857741 
z
" style="stroke: #4c4c4c; stroke-width: 1.25"/>
    </defs>
    <g clip-path="url(#pe746ceb4bf)">
     <use xlink:href="#m4179c428d9" x="0" y="366.815161" style="fill: #df9c20; stroke: #4c4c4c; stroke-width: 1.25"/>
    </g>
   </g>
   <g id="PolyCollection_6">
    <defs>
     <path id="mc352c6fcdd" d="M 535.272044 -25.857741 
L 490.794206 -25.857741 
L 490.713125 -27.458485 
L 490.781058 -29.059229 
L 490.995785 -30.659974 
L 491.352078 -32.260718 
L 491.841888 -33.861463 
L 492.454625 -35.462207 
L 493.177521 -37.062951 
L 493.996056 -38.663696 
L 494.894425 -40.26444 
L 495.856035 -41.865184 
L 496.863997 -43.465929 
L 497.901606 -45.066673 
L 498.952778 -46.667418 
L 500.002445 -48.268162 
L 501.036875 -49.868906 
L 502.04393 -51.469651 
L 503.013247 -53.070395 
L 503.936332 -54.67114 
L 504.806597 -56.271884 
L 505.619318 -57.872628 
L 506.37154 -59.473373 
L 507.061936 -61.074117 
L 507.690621 -62.674862 
L 508.258956 -64.275606 
L 508.769319 -65.87635 
L 509.224891 -67.477095 
L 509.629438 -69.077839 
L 509.987109 -70.678584 
L 510.302252 -72.279328 
L 510.579254 -73.880072 
L 510.822414 -75.480817 
L 511.035826 -77.081561 
L 511.223309 -78.682306 
L 511.388346 -80.28305 
L 511.534051 -81.883794 
L 511.663158 -83.484539 
L 511.778024 -85.085283 
L 511.880644 -86.686027 
L 511.972676 -88.286772 
L 512.055477 -89.887516 
L 512.130137 -91.488261 
L 512.197517 -93.089005 
L 512.258294 -94.689749 
L 512.312989 -96.290494 
L 512.362009 -97.891238 
L 512.405672 -99.491983 
L 512.444239 -101.092727 
L 512.477934 -102.693471 
L 512.50696 -104.294216 
L 512.531518 -105.89496 
L 512.551811 -107.495705 
L 512.568055 -109.096449 
L 512.580477 -110.697193 
L 512.589318 -112.297938 
L 512.594824 -113.898682 
L 512.597246 -115.499427 
L 512.596825 -117.100171 
L 512.593789 -118.700915 
L 512.588334 -120.30166 
L 512.580622 -121.902404 
L 512.57076 -123.503149 
L 512.558798 -125.103893 
L 512.544713 -126.704637 
L 512.528402 -128.305382 
L 512.509682 -129.906126 
L 512.488277 -131.506871 
L 512.463829 -133.107615 
L 512.435893 -134.708359 
L 512.403952 -136.309104 
L 512.367423 -137.909848 
L 512.325675 -139.510592 
L 512.27805 -141.111337 
L 512.223883 -142.712081 
L 512.162532 -144.312826 
L 512.093406 -145.91357 
L 512.016 -147.514314 
L 511.92992 -149.115059 
L 511.834925 -150.715803 
L 511.730954 -152.316548 
L 511.618155 -153.917292 
L 511.496912 -155.518036 
L 511.367868 -157.118781 
L 511.231931 -158.719525 
L 511.090289 -160.32027 
L 510.944397 -161.921014 
L 510.795972 -163.521758 
L 510.646962 -165.122503 
L 510.499518 -166.723247 
L 510.355943 -168.323992 
L 510.218645 -169.924736 
L 510.090069 -171.52548 
L 509.972638 -173.126225 
L 509.868677 -174.726969 
L 509.780343 -176.327714 
L 509.709561 -177.928458 
L 509.657955 -179.529202 
L 509.626797 -181.129947 
L 509.616961 -182.730691 
L 509.628893 -184.331436 
L 516.437357 -184.331436 
L 516.437357 -184.331436 
L 516.449289 -182.730691 
L 516.439453 -181.129947 
L 516.408295 -179.529202 
L 516.356689 -177.928458 
L 516.285907 -176.327714 
L 516.197573 -174.726969 
L 516.093612 -173.126225 
L 515.976181 -171.52548 
L 515.847605 -169.924736 
L 515.710307 -168.323992 
L 515.566732 -166.723247 
L 515.419288 -165.122503 
L 515.270278 -163.521758 
L 515.121853 -161.921014 
L 514.975961 -160.32027 
L 514.834319 -158.719525 
L 514.698382 -157.118781 
L 514.569338 -155.518036 
L 514.448095 -153.917292 
L 514.335296 -152.316548 
L 514.231325 -150.715803 
L 514.13633 -149.115059 
L 514.05025 -147.514314 
L 513.972844 -145.91357 
L 513.903718 -144.312826 
L 513.842367 -142.712081 
L 513.7882 -141.111337 
L 513.740575 -139.510592 
L 513.698827 -137.909848 
L 513.662298 -136.309104 
L 513.630357 -134.708359 
L 513.602421 -133.107615 
L 513.577973 -131.506871 
L 513.556568 -129.906126 
L 513.537848 -128.305382 
L 513.521537 -126.704637 
L 513.507452 -125.103893 
L 513.49549 -123.503149 
L 513.485628 -121.902404 
L 513.477916 -120.30166 
L 513.472461 -118.700915 
L 513.469425 -117.100171 
L 513.469004 -115.499427 
L 513.471426 -113.898682 
L 513.476932 -112.297938 
L 513.485773 -110.697193 
L 513.498195 -109.096449 
L 513.514439 -107.495705 
L 513.534732 -105.89496 
L 513.55929 -104.294216 
L 513.588316 -102.693471 
L 513.622011 -101.092727 
L 513.660578 -99.491983 
L 513.704241 -97.891238 
L 513.753261 -96.290494 
L 513.807956 -94.689749 
L 513.868733 -93.089005 
L 513.936113 -91.488261 
L 514.010773 -89.887516 
L 514.093574 -88.286772 
L 514.185606 -86.686027 
L 514.288226 -85.085283 
L 514.403092 -83.484539 
L 514.532199 -81.883794 
L 514.677904 -80.28305 
L 514.842941 -78.682306 
L 515.030424 -77.081561 
L 515.243836 -75.480817 
L 515.486996 -73.880072 
L 515.763998 -72.279328 
L 516.079141 -70.678584 
L 516.436812 -69.077839 
L 516.841359 -67.477095 
L 517.296931 -65.87635 
L 517.807294 -64.275606 
L 518.375629 -62.674862 
L 519.004314 -61.074117 
L 519.69471 -59.473373 
L 520.446932 -57.872628 
L 521.259653 -56.271884 
L 522.129918 -54.67114 
L 523.053003 -53.070395 
L 524.02232 -51.469651 
L 525.029375 -49.868906 
L 526.063805 -48.268162 
L 527.113472 -46.667418 
L 528.164644 -45.066673 
L 529.202253 -43.465929 
L 530.210215 -41.865184 
L 531.171825 -40.26444 
L 532.070194 -38.663696 
L 532.888729 -37.062951 
L 533.611625 -35.462207 
L 534.224362 -33.861463 
L 534.714172 -32.260718 
L 535.070465 -30.659974 
L 535.285192 -29.059229 
L 535.353125 -27.458485 
L 535.272044 -25.857741 
z
" style="stroke: #4c4c4c; stroke-width: 1.25"/>
    </defs>
    <g clip-path="url(#pe746ceb4bf)">
     <use xlink:href="#mc352c6fcdd" x="0" y="366.815161" style="fill: #df9c20; stroke: #4c4c4c; stroke-width: 1.25"/>
    </g>
   </g>
   <g id="matplotlib.axis_3">
    <g id="ytick_4">
     <g id="line2d_4">
      <defs>
       <path id="m8a33aad0b1" d="M 0 0 
L 3.5 0 
" style="stroke: #000000; stroke-width: 0.8"/>
      </defs>
      <g>
       <use xlink:href="#m8a33aad0b1" x="540.933125" y="340.802661" style="stroke: #000000; stroke-width: 0.8"/>
      </g>
     </g>
     <g id="text_5">
      <!-- 0 -->
      <g transform="translate(547.933125 352.960161) scale(0.32 -0.32)">
       <use xlink:href="#DejaVuSans-30"/>
      </g>
     </g>
    </g>
    <g id="ytick_5">
     <g id="line2d_5">
      <g>
       <use xlink:href="#m8a33aad0b1" x="540.933125" y="186.043194" style="stroke: #000000; stroke-width: 0.8"/>
      </g>
     </g>
     <g id="text_6">
      <!-- 1000 -->
      <g transform="translate(547.933125 198.200694) scale(0.32 -0.32)">
       <use xlink:href="#DejaVuSans-31"/>
       <use xlink:href="#DejaVuSans-30" x="63.623047"/>
       <use xlink:href="#DejaVuSans-30" x="127.246094"/>
       <use xlink:href="#DejaVuSans-30" x="190.869141"/>
      </g>
     </g>
    </g>
    <g id="ytick_6">
     <g id="line2d_6">
      <g>
       <use xlink:href="#m8a33aad0b1" x="540.933125" y="31.283726" style="stroke: #000000; stroke-width: 0.8"/>
      </g>
     </g>
     <g id="text_7">
      <!-- 2000 -->
      <g transform="translate(547.933125 43.441226) scale(0.32 -0.32)">
       <defs>
        <path id="DejaVuSans-32" d="M 1228 531 
L 3431 531 
L 3431 0 
L 469 0 
L 469 531 
Q 828 903 1448 1529 
Q 2069 2156 2228 2338 
Q 2531 2678 2651 2914 
Q 2772 3150 2772 3378 
Q 2772 3750 2511 3984 
Q 2250 4219 1831 4219 
Q 1534 4219 1204 4116 
Q 875 4013 500 3803 
L 500 4441 
Q 881 4594 1212 4672 
Q 1544 4750 1819 4750 
Q 2544 4750 2975 4387 
Q 3406 4025 3406 3419 
Q 3406 3131 3298 2873 
Q 3191 2616 2906 2266 
Q 2828 2175 2409 1742 
Q 1991 1309 1228 531 
z
" transform="scale(0.015625)"/>
       </defs>
       <use xlink:href="#DejaVuSans-32"/>
       <use xlink:href="#DejaVuSans-30" x="63.623047"/>
       <use xlink:href="#DejaVuSans-30" x="127.246094"/>
       <use xlink:href="#DejaVuSans-30" x="190.869141"/>
      </g>
     </g>
    </g>
    <g id="text_8">
     <!-- MSA Depth -->
     <g style="fill: #ffa500" transform="translate(665.286563 291.331255) rotate(-90) scale(0.42 -0.42)">
      <defs>
       <path id="DejaVuSans-44" d="M 1259 4147 
L 1259 519 
L 2022 519 
Q 2988 519 3436 956 
Q 3884 1394 3884 2338 
Q 3884 3275 3436 3711 
Q 2988 4147 2022 4147 
L 1259 4147 
z
M 628 4666 
L 1925 4666 
Q 3281 4666 3915 4102 
Q 4550 3538 4550 2338 
Q 4550 1131 3912 565 
Q 3275 0 1925 0 
L 628 0 
L 628 4666 
z
" transform="scale(0.015625)"/>
       <path id="DejaVuSans-70" d="M 1159 525 
L 1159 -1331 
L 581 -1331 
L 581 3500 
L 1159 3500 
L 1159 2969 
Q 1341 3281 1617 3432 
Q 1894 3584 2278 3584 
Q 2916 3584 3314 3078 
Q 3713 2572 3713 1747 
Q 3713 922 3314 415 
Q 2916 -91 2278 -91 
Q 1894 -91 1617 61 
Q 1341 213 1159 525 
z
M 3116 1747 
Q 3116 2381 2855 2742 
Q 2594 3103 2138 3103 
Q 1681 3103 1420 2742 
Q 1159 2381 1159 1747 
Q 1159 1113 1420 752 
Q 1681 391 2138 391 
Q 2594 391 2855 752 
Q 3116 1113 3116 1747 
z
" transform="scale(0.015625)"/>
       <path id="DejaVuSans-68" d="M 3513 2113 
L 3513 0 
L 2938 0 
L 2938 2094 
Q 2938 2591 2744 2837 
Q 2550 3084 2163 3084 
Q 1697 3084 1428 2787 
Q 1159 2491 1159 1978 
L 1159 0 
L 581 0 
L 581 4863 
L 1159 4863 
L 1159 2956 
Q 1366 3272 1645 3428 
Q 1925 3584 2291 3584 
Q 2894 3584 3203 3211 
Q 3513 2838 3513 2113 
z
" transform="scale(0.015625)"/>
      </defs>
      <use xlink:href="#DejaVuSans-4d"/>
      <use xlink:href="#DejaVuSans-53" x="86.279297"/>
      <use xlink:href="#DejaVuSans-41" x="151.630859"/>
      <use xlink:href="#DejaVuSans-20" x="220.039062"/>
      <use xlink:href="#DejaVuSans-44" x="251.826172"/>
      <use xlink:href="#DejaVuSans-65" x="328.828125"/>
      <use xlink:href="#DejaVuSans-70" x="390.351562"/>
      <use xlink:href="#DejaVuSans-74" x="453.828125"/>
      <use xlink:href="#DejaVuSans-68" x="493.037109"/>
     </g>
    </g>
   </g>
   <g id="line2d_7">
    <path d="M 159.535997 24.010031 
L 196.930253 24.010031 
" clip-path="url(#pe746ceb4bf)" style="fill: none; stroke-dasharray: 1.5625,0.9375; stroke-dashoffset: 0; stroke: #4c4c4c; stroke-width: 1.25"/>
   </g>
   <g id="line2d_8">
    <path d="M 159.535997 24.010031 
L 196.930253 24.010031 
" clip-path="url(#pe746ceb4bf)" style="fill: none; stroke-dasharray: 3.125,1.25; stroke-dashoffset: 0; stroke: #4c4c4c; stroke-width: 1.25"/>
   </g>
   <g id="line2d_9">
    <path d="M 159.535997 24.010031 
L 196.930253 24.010031 
" clip-path="url(#pe746ceb4bf)" style="fill: none; stroke-dasharray: 1.5625,0.9375; stroke-dashoffset: 0; stroke: #4c4c4c; stroke-width: 1.25"/>
   </g>
   <g id="line2d_10">
    <path d="M 231.38739 312.481679 
L 236.67886 312.481679 
" clip-path="url(#pe746ceb4bf)" style="fill: none; stroke-dasharray: 1.5625,0.9375; stroke-dashoffset: 0; stroke: #4c4c4c; stroke-width: 1.25"/>
   </g>
   <g id="line2d_11">
    <path d="M 232.924489 95.973183 
L 235.141761 95.973183 
" clip-path="url(#pe746ceb4bf)" style="fill: none; stroke-dasharray: 3.125,1.25; stroke-dashoffset: 0; stroke: #4c4c4c; stroke-width: 1.25"/>
   </g>
   <g id="line2d_12">
    <path d="M 230.218067 24.010031 
L 237.848183 24.010031 
" clip-path="url(#pe746ceb4bf)" style="fill: none; stroke-dasharray: 1.5625,0.9375; stroke-dashoffset: 0; stroke: #4c4c4c; stroke-width: 1.25"/>
   </g>
   <g id="line2d_13">
    <path d="M 267.520981 340.802661 
L 312.145269 340.802661 
" clip-path="url(#pe746ceb4bf)" style="fill: none; stroke-dasharray: 1.5625,0.9375; stroke-dashoffset: 0; stroke: #4c4c4c; stroke-width: 1.25"/>
   </g>
   <g id="line2d_14">
    <path d="M 267.520981 340.802661 
L 312.145269 340.802661 
" clip-path="url(#pe746ceb4bf)" style="fill: none; stroke-dasharray: 3.125,1.25; stroke-dashoffset: 0; stroke: #4c4c4c; stroke-width: 1.25"/>
   </g>
   <g id="line2d_15">
    <path d="M 267.514255 339.564586 
L 312.151995 339.564586 
" clip-path="url(#pe746ceb4bf)" style="fill: none; stroke-dasharray: 1.5625,0.9375; stroke-dashoffset: 0; stroke: #4c4c4c; stroke-width: 1.25"/>
   </g>
   <g id="line2d_16">
    <path d="M 379.664121 24.010031 
L 423.202129 24.010031 
" clip-path="url(#pe746ceb4bf)" style="fill: none; stroke-dasharray: 1.5625,0.9375; stroke-dashoffset: 0; stroke: #4c4c4c; stroke-width: 1.25"/>
   </g>
   <g id="line2d_17">
    <path d="M 379.664121 24.010031 
L 423.202129 24.010031 
" clip-path="url(#pe746ceb4bf)" style="fill: none; stroke-dasharray: 3.125,1.25; stroke-dashoffset: 0; stroke: #4c4c4c; stroke-width: 1.25"/>
   </g>
   <g id="line2d_18">
    <path d="M 379.664121 24.010031 
L 423.202129 24.010031 
" clip-path="url(#pe746ceb4bf)" style="fill: none; stroke-dasharray: 1.5625,0.9375; stroke-dashoffset: 0; stroke: #4c4c4c; stroke-width: 1.25"/>
   </g>
   <g id="line2d_19">
    <path d="M 452.886568 322.773183 
L 461.579682 322.773183 
" clip-path="url(#pe746ceb4bf)" style="fill: none; stroke-dasharray: 1.5625,0.9375; stroke-dashoffset: 0; stroke: #4c4c4c; stroke-width: 1.25"/>
   </g>
   <g id="line2d_20">
    <path d="M 456.274775 156.484135 
L 458.191475 156.484135 
" clip-path="url(#pe746ceb4bf)" style="fill: none; stroke-dasharray: 3.125,1.25; stroke-dashoffset: 0; stroke: #4c4c4c; stroke-width: 1.25"/>
   </g>
   <g id="line2d_21">
    <path d="M 452.553396 24.010031 
L 461.912854 24.010031 
" clip-path="url(#pe746ceb4bf)" style="fill: none; stroke-dasharray: 1.5625,0.9375; stroke-dashoffset: 0; stroke: #4c4c4c; stroke-width: 1.25"/>
   </g>
   <g id="line2d_22">
    <path d="M 490.786367 340.802661 
L 535.279883 340.802661 
" clip-path="url(#pe746ceb4bf)" style="fill: none; stroke-dasharray: 1.5625,0.9375; stroke-dashoffset: 0; stroke: #4c4c4c; stroke-width: 1.25"/>
   </g>
   <g id="line2d_23">
    <path d="M 490.770689 340.493142 
L 535.295561 340.493142 
" clip-path="url(#pe746ceb4bf)" style="fill: none; stroke-dasharray: 3.125,1.25; stroke-dashoffset: 0; stroke: #4c4c4c; stroke-width: 1.25"/>
   </g>
   <g id="line2d_24">
    <path d="M 491.358057 334.534903 
L 534.708193 334.534903 
" clip-path="url(#pe746ceb4bf)" style="fill: none; stroke-dasharray: 1.5625,0.9375; stroke-dashoffset: 0; stroke: #4c4c4c; stroke-width: 1.25"/>
   </g>
   <g id="patch_14">
    <path d="M 150.333125 340.802661 
L 150.333125 8.162661 
" style="fill: none; stroke: #000000; stroke-width: 0.8; stroke-linejoin: miter; stroke-linecap: square"/>
   </g>
   <g id="patch_15">
    <path d="M 540.933125 340.802661 
L 540.933125 8.162661 
" style="fill: none; stroke: #000000; stroke-width: 0.8; stroke-linejoin: miter; stroke-linecap: square"/>
   </g>
   <g id="patch_16">
    <path d="M 150.333125 340.802661 
L 540.933125 340.802661 
" style="fill: none; stroke: #000000; stroke-width: 0.8; stroke-linejoin: miter; stroke-linecap: square"/>
   </g>
   <g id="patch_17">
    <path d="M 150.333125 8.162661 
L 540.933125 8.162661 
" style="fill: none; stroke: #000000; stroke-width: 0.8; stroke-linejoin: miter; stroke-linecap: square"/>
   </g>
  </g>
 </g>
 <defs>
  <clipPath id="pe746ceb4bf">
   <rect x="150.333125" y="8.162661" width="390.6" height="332.64"/>
  </clipPath>
 </defs>
</svg>
