<?xml version="1.0" encoding="utf-8" standalone="no"?>
<!DOCTYPE svg PUBLIC "-//W3C//DTD SVG 1.1//EN"
  "http://www.w3.org/Graphics/SVG/1.1/DTD/svg11.dtd">
<svg xmlns:xlink="http://www.w3.org/1999/xlink" width="402.01pt" height="321.8275pt" viewBox="0 0 402.01 321.8275" xmlns="http://www.w3.org/2000/svg" version="1.1">
 <metadata>
  <rdf:RDF xmlns:dc="http://purl.org/dc/elements/1.1/" xmlns:cc="http://creativecommons.org/ns#" xmlns:rdf="http://www.w3.org/1999/02/22-rdf-syntax-ns#">
   <cc:Work>
    <dc:type rdf:resource="http://purl.org/dc/dcmitype/StillImage"/>
    <dc:date>2024-07-03T21:58:37.041643</dc:date>
    <dc:format>image/svg+xml</dc:format>
    <dc:creator>
     <cc:Agent>
      <dc:title>Matplotlib v3.8.1, https://matplotlib.org/</dc:title>
     </cc:Agent>
    </dc:creator>
   </cc:Work>
  </rdf:RDF>
 </metadata>
 <defs>
  <style type="text/css">*{stroke-linejoin: round; stroke-linecap: butt}</style>
 </defs>
 <g id="figure_1">
  <g id="patch_1">
   <path d="M 0 321.8275 
L 402.01 321.8275 
L 402.01 0 
L 0 0 
z
" style="fill: #ffffff"/>
  </g>
  <g id="axes_1">
   <g id="patch_2">
    <path d="M 60.01 284.4 
L 394.81 284.4 
L 394.81 7.2 
L 60.01 7.2 
z
" style="fill: #ffffff"/>
   </g>
   <g id="PolyCollection_1">
    <defs>
     <path id="meb0935b9b4" d="M 141.729479 -38.917548 
L 78.730521 -38.917548 
L 78.13787 -39.64698 
L 77.647356 -40.376412 
L 77.262114 -41.105844 
L 76.983995 -41.835276 
L 76.813543 -42.564708 
L 76.75 -43.29414 
L 76.791342 -44.023572 
L 76.934335 -44.753003 
L 77.174621 -45.482435 
L 77.506826 -46.211867 
L 77.924679 -46.941299 
L 78.421157 -47.670731 
L 78.988631 -48.400163 
L 79.619029 -49.129595 
L 80.303989 -49.859027 
L 81.035022 -50.588459 
L 81.803662 -51.317891 
L 82.601603 -52.047323 
L 83.420837 -52.776754 
L 84.253759 -53.506186 
L 85.093265 -54.235618 
L 85.932828 -54.96505 
L 86.766551 -55.694482 
L 87.589205 -56.423914 
L 88.396247 -57.153346 
L 89.183811 -57.882778 
L 89.948696 -58.61221 
L 90.688329 -59.341642 
L 91.400718 -60.071074 
L 92.084405 -60.800505 
L 92.738395 -61.529937 
L 93.362098 -62.259369 
L 93.955263 -62.988801 
L 94.517909 -63.718233 
L 95.050267 -64.447665 
L 95.552725 -65.177097 
L 96.025777 -65.906529 
L 96.469986 -66.635961 
L 96.885946 -67.365393 
L 97.274264 -68.094824 
L 97.635541 -68.824256 
L 97.970368 -69.553688 
L 98.279322 -70.28312 
L 98.562977 -71.012552 
L 98.821913 -71.741984 
L 99.056728 -72.471416 
L 99.268062 -73.200848 
L 99.456607 -73.93028 
L 99.62313 -74.659712 
L 99.768488 -75.389144 
L 99.893638 -76.118575 
L 99.999652 -76.848007 
L 100.087718 -77.577439 
L 100.159148 -78.306871 
L 100.215368 -79.036303 
L 100.257917 -79.765735 
L 100.288431 -80.495167 
L 100.308634 -81.224599 
L 100.320311 -81.954031 
L 100.325297 -82.683463 
L 100.325446 -83.412894 
L 100.322612 -84.142326 
L 100.318622 -84.871758 
L 100.315257 -85.60119 
L 100.314223 -86.330622 
L 100.317133 -87.060054 
L 100.325488 -87.789486 
L 100.340662 -88.518918 
L 100.363885 -89.24835 
L 100.396237 -89.977782 
L 100.438637 -90.707214 
L 100.491841 -91.436645 
L 100.556442 -92.166077 
L 100.632872 -92.895509 
L 100.721402 -93.624941 
L 100.822158 -94.354373 
L 100.935123 -95.083805 
L 101.060148 -95.813237 
L 101.19697 -96.542669 
L 101.345217 -97.272101 
L 101.504428 -98.001533 
L 101.674061 -98.730965 
L 101.85351 -99.460396 
L 102.042116 -100.189828 
L 102.239178 -100.91926 
L 102.443965 -101.648692 
L 102.655726 -102.378124 
L 102.8737 -103.107556 
L 103.097119 -103.836988 
L 103.325217 -104.56642 
L 103.557237 -105.295852 
L 103.792431 -106.025284 
L 104.030064 -106.754715 
L 104.269419 -107.484147 
L 104.509794 -108.213579 
L 104.750505 -108.943011 
L 104.990888 -109.672443 
L 105.230297 -110.401875 
L 105.468104 -111.131307 
L 114.991896 -111.131307 
L 114.991896 -111.131307 
L 115.229703 -110.401875 
L 115.469112 -109.672443 
L 115.709495 -108.943011 
L 115.950206 -108.213579 
L 116.190581 -107.484147 
L 116.429936 -106.754715 
L 116.667569 -106.025284 
L 116.902763 -105.295852 
L 117.134783 -104.56642 
L 117.362881 -103.836988 
L 117.5863 -103.107556 
L 117.804274 -102.378124 
L 118.016035 -101.648692 
L 118.220822 -100.91926 
L 118.417884 -100.189828 
L 118.60649 -99.460396 
L 118.785939 -98.730965 
L 118.955572 -98.001533 
L 119.114783 -97.272101 
L 119.26303 -96.542669 
L 119.399852 -95.813237 
L 119.524877 -95.083805 
L 119.637842 -94.354373 
L 119.738598 -93.624941 
L 119.827128 -92.895509 
L 119.903558 -92.166077 
L 119.968159 -91.436645 
L 120.021363 -90.707214 
L 120.063763 -89.977782 
L 120.096115 -89.24835 
L 120.119338 -88.518918 
L 120.134512 -87.789486 
L 120.142867 -87.060054 
L 120.145777 -86.330622 
L 120.144743 -85.60119 
L 120.141378 -84.871758 
L 120.137388 -84.142326 
L 120.134554 -83.412894 
L 120.134703 -82.683463 
L 120.139689 -81.954031 
L 120.151366 -81.224599 
L 120.171569 -80.495167 
L 120.202083 -79.765735 
L 120.244632 -79.036303 
L 120.300852 -78.306871 
L 120.372282 -77.577439 
L 120.460348 -76.848007 
L 120.566362 -76.118575 
L 120.691512 -75.389144 
L 120.83687 -74.659712 
L 121.003393 -73.93028 
L 121.191938 -73.200848 
L 121.403272 -72.471416 
L 121.638087 -71.741984 
L 121.897023 -71.012552 
L 122.180678 -70.28312 
L 122.489632 -69.553688 
L 122.824459 -68.824256 
L 123.185736 -68.094824 
L 123.574054 -67.365393 
L 123.990014 -66.635961 
L 124.434223 -65.906529 
L 124.907275 -65.177097 
L 125.409733 -64.447665 
L 125.942091 -63.718233 
L 126.504737 -62.988801 
L 127.097902 -62.259369 
L 127.721605 -61.529937 
L 128.375595 -60.800505 
L 129.059282 -60.071074 
L 129.771671 -59.341642 
L 130.511304 -58.61221 
L 131.276189 -57.882778 
L 132.063753 -57.153346 
L 132.870795 -56.423914 
L 133.693449 -55.694482 
L 134.527172 -54.96505 
L 135.366735 -54.235618 
L 136.206241 -53.506186 
L 137.039163 -52.776754 
L 137.858397 -52.047323 
L 138.656338 -51.317891 
L 139.424978 -50.588459 
L 140.156011 -49.859027 
L 140.840971 -49.129595 
L 141.471369 -48.400163 
L 142.038843 -47.670731 
L 142.535321 -46.941299 
L 142.953174 -46.211867 
L 143.285379 -45.482435 
L 143.525665 -44.753003 
L 143.668658 -44.023572 
L 143.71 -43.29414 
L 143.646457 -42.564708 
L 143.476005 -41.835276 
L 143.197886 -41.105844 
L 142.812644 -40.376412 
L 142.32213 -39.64698 
L 141.729479 -38.917548 
z
" style="stroke: #4c4c4c; stroke-width: 1.25"/>
    </defs>
    <g clip-path="url(#p51ea073aa3)">
     <use xlink:href="#meb0935b9b4" x="0" y="321.8275" style="fill: #e090e0; stroke: #4c4c4c; stroke-width: 1.25"/>
    </g>
   </g>
   <g id="PolyCollection_2">
    <defs>
     <path id="m94124f56b7" d="M 209.375664 -38.67516 
L 145.004336 -38.67516 
L 144.482393 -39.910836 
L 144.090861 -41.146513 
L 143.832953 -42.382189 
L 143.71 -43.617865 
L 143.72143 -44.853541 
L 143.86478 -46.089217 
L 144.135759 -47.324893 
L 144.52834 -48.560569 
L 145.034908 -49.796246 
L 145.646419 -51.031922 
L 146.35261 -52.267598 
L 147.142216 -53.503274 
L 148.003209 -54.73895 
L 148.923048 -55.974626 
L 149.88893 -57.210303 
L 150.888039 -58.445979 
L 151.907789 -59.681655 
L 152.936041 -60.917331 
L 153.961314 -62.153007 
L 154.972966 -63.388683 
L 155.961343 -64.624359 
L 156.917908 -65.860036 
L 157.835336 -67.095712 
L 158.707571 -68.331388 
L 159.529867 -69.567064 
L 160.298781 -70.80274 
L 161.012157 -72.038416 
L 161.669067 -73.274093 
L 162.269746 -74.509769 
L 162.815493 -75.745445 
L 163.308567 -76.981121 
L 163.752062 -78.216797 
L 164.14978 -79.452473 
L 164.506097 -80.688149 
L 164.825817 -81.923826 
L 165.114044 -83.159502 
L 165.376045 -84.395178 
L 165.617121 -85.630854 
L 165.842491 -86.86653 
L 166.057181 -88.102206 
L 166.26593 -89.337883 
L 166.473106 -90.573559 
L 166.682633 -91.809235 
L 166.89794 -93.044911 
L 167.121917 -94.280587 
L 167.356891 -95.516263 
L 167.60461 -96.751939 
L 167.866249 -97.987616 
L 168.142415 -99.223292 
L 168.43318 -100.458968 
L 168.738108 -101.694644 
L 169.056302 -102.93032 
L 169.386449 -104.165996 
L 169.72688 -105.401673 
L 170.075625 -106.637349 
L 170.430471 -107.873025 
L 170.789032 -109.108701 
L 171.148799 -110.344377 
L 171.507208 -111.580053 
L 171.861688 -112.815729 
L 172.209714 -114.051406 
L 172.548858 -115.287082 
L 172.876821 -116.522758 
L 173.191475 -117.758434 
L 173.49089 -118.99411 
L 173.773353 -120.229786 
L 174.037389 -121.465463 
L 174.281772 -122.701139 
L 174.505527 -123.936815 
L 174.707939 -125.172491 
L 174.888542 -126.408167 
L 175.04712 -127.643843 
L 175.183697 -128.879519 
L 175.298522 -130.115196 
L 175.392064 -131.350872 
L 175.464992 -132.586548 
L 175.518164 -133.822224 
L 175.552609 -135.0579 
L 175.569516 -136.293576 
L 175.57021 -137.529253 
L 175.556146 -138.764929 
L 175.52888 -140.000605 
L 175.490064 -141.236281 
L 175.441415 -142.471957 
L 175.384709 -143.707633 
L 175.321751 -144.943309 
L 175.254361 -146.178986 
L 175.184351 -147.414662 
L 175.113504 -148.650338 
L 175.043552 -149.886014 
L 174.976155 -151.12169 
L 174.912878 -152.357366 
L 174.855174 -153.593043 
L 174.804361 -154.828719 
L 174.761606 -156.064395 
L 174.727911 -157.300071 
L 174.704098 -158.535747 
L 174.6908 -159.771423 
L 174.688456 -161.007099 
L 179.691544 -161.007099 
L 179.691544 -161.007099 
L 179.6892 -159.771423 
L 179.675902 -158.535747 
L 179.652089 -157.300071 
L 179.618394 -156.064395 
L 179.575639 -154.828719 
L 179.524826 -153.593043 
L 179.467122 -152.357366 
L 179.403845 -151.12169 
L 179.336448 -149.886014 
L 179.266496 -148.650338 
L 179.195649 -147.414662 
L 179.125639 -146.178986 
L 179.058249 -144.943309 
L 178.995291 -143.707633 
L 178.938585 -142.471957 
L 178.889936 -141.236281 
L 178.85112 -140.000605 
L 178.823854 -138.764929 
L 178.80979 -137.529253 
L 178.810484 -136.293576 
L 178.827391 -135.0579 
L 178.861836 -133.822224 
L 178.915008 -132.586548 
L 178.987936 -131.350872 
L 179.081478 -130.115196 
L 179.196303 -128.879519 
L 179.33288 -127.643843 
L 179.491458 -126.408167 
L 179.672061 -125.172491 
L 179.874473 -123.936815 
L 180.098228 -122.701139 
L 180.342611 -121.465463 
L 180.606647 -120.229786 
L 180.88911 -118.99411 
L 181.188525 -117.758434 
L 181.503179 -116.522758 
L 181.831142 -115.287082 
L 182.170286 -114.051406 
L 182.518312 -112.815729 
L 182.872792 -111.580053 
L 183.231201 -110.344377 
L 183.590968 -109.108701 
L 183.949529 -107.873025 
L 184.304375 -106.637349 
L 184.65312 -105.401673 
L 184.993551 -104.165996 
L 185.323698 -102.93032 
L 185.641892 -101.694644 
L 185.94682 -100.458968 
L 186.237585 -99.223292 
L 186.513751 -97.987616 
L 186.77539 -96.751939 
L 187.023109 -95.516263 
L 187.258083 -94.280587 
L 187.48206 -93.044911 
L 187.697367 -91.809235 
L 187.906894 -90.573559 
L 188.11407 -89.337883 
L 188.322819 -88.102206 
L 188.537509 -86.86653 
L 188.762879 -85.630854 
L 189.003955 -84.395178 
L 189.265956 -83.159502 
L 189.554183 -81.923826 
L 189.873903 -80.688149 
L 190.23022 -79.452473 
L 190.627938 -78.216797 
L 191.071433 -76.981121 
L 191.564507 -75.745445 
L 192.110254 -74.509769 
L 192.710933 -73.274093 
L 193.367843 -72.038416 
L 194.081219 -70.80274 
L 194.850133 -69.567064 
L 195.672429 -68.331388 
L 196.544664 -67.095712 
L 197.462092 -65.860036 
L 198.418657 -64.624359 
L 199.407034 -63.388683 
L 200.418686 -62.153007 
L 201.443959 -60.917331 
L 202.472211 -59.681655 
L 203.491961 -58.445979 
L 204.49107 -57.210303 
L 205.456952 -55.974626 
L 206.376791 -54.73895 
L 207.237784 -53.503274 
L 208.02739 -52.267598 
L 208.733581 -51.031922 
L 209.345092 -49.796246 
L 209.85166 -48.560569 
L 210.244241 -47.324893 
L 210.51522 -46.089217 
L 210.65857 -44.853541 
L 210.67 -43.617865 
L 210.547047 -42.382189 
L 210.289139 -41.146513 
L 209.897607 -39.910836 
L 209.375664 -38.67516 
z
" style="stroke: #4c4c4c; stroke-width: 1.25"/>
    </defs>
    <g clip-path="url(#p51ea073aa3)">
     <use xlink:href="#m94124f56b7" x="0" y="321.8275" style="fill: #20df20; stroke: #4c4c4c; stroke-width: 1.25"/>
    </g>
   </g>
   <g id="PolyCollection_3">
    <defs>
     <path id="m25d8a1cb00" d="M 291.765856 -39.889652 
L 263.494144 -39.889652 
L 263.248302 -41.723373 
L 263.059063 -43.557094 
L 262.92808 -45.390815 
L 262.856193 -47.224536 
L 262.843418 -49.058257 
L 262.88894 -50.891978 
L 262.991146 -52.7257 
L 263.147653 -54.559421 
L 263.355373 -56.393142 
L 263.610583 -58.226863 
L 263.909004 -60.060584 
L 264.245905 -61.894305 
L 264.616198 -63.728026 
L 265.014548 -65.561748 
L 265.435479 -67.395469 
L 265.873483 -69.22919 
L 266.323118 -71.062911 
L 266.779104 -72.896632 
L 267.236408 -74.730353 
L 267.690319 -76.564075 
L 268.136511 -78.397796 
L 268.571088 -80.231517 
L 268.990627 -82.065238 
L 269.392191 -83.898959 
L 269.773349 -85.73268 
L 270.132168 -87.566401 
L 270.467202 -89.400123 
L 270.777471 -91.233844 
L 271.062433 -93.067565 
L 271.321947 -94.901286 
L 271.556235 -96.735007 
L 271.765843 -98.568728 
L 271.95159 -100.402449 
L 272.114534 -102.236171 
L 272.255926 -104.069892 
L 272.377168 -105.903613 
L 272.479782 -107.737334 
L 272.565373 -109.571055 
L 272.635599 -111.404776 
L 272.692147 -113.238497 
L 272.736709 -115.072219 
L 272.770964 -116.90594 
L 272.796558 -118.739661 
L 272.815099 -120.573382 
L 272.828137 -122.407103 
L 272.83716 -124.240824 
L 272.843584 -126.074545 
L 272.848748 -127.908267 
L 272.853905 -129.741988 
L 272.86022 -131.575709 
L 272.868761 -133.40943 
L 272.880496 -135.243151 
L 272.896287 -137.076872 
L 272.916888 -138.910593 
L 272.942937 -140.744315 
L 272.974953 -142.578036 
L 273.013335 -144.411757 
L 273.05836 -146.245478 
L 273.11018 -148.079199 
L 273.168826 -149.91292 
L 273.234208 -151.746641 
L 273.30612 -153.580363 
L 273.384247 -155.414084 
L 273.468173 -157.247805 
L 273.557388 -159.081526 
L 273.651307 -160.915247 
L 273.749274 -162.748968 
L 273.850583 -164.582689 
L 273.954492 -166.416411 
L 274.060237 -168.250132 
L 274.167051 -170.083853 
L 274.274179 -171.917574 
L 274.380895 -173.751295 
L 274.486512 -175.585016 
L 274.590403 -177.418737 
L 274.692003 -179.252459 
L 274.790827 -181.08618 
L 274.886472 -182.919901 
L 274.978625 -184.753622 
L 275.067063 -186.587343 
L 275.151654 -188.421064 
L 275.232357 -190.254785 
L 275.309213 -192.088507 
L 275.382344 -193.922228 
L 275.451939 -195.755949 
L 275.518251 -197.58967 
L 275.581579 -199.423391 
L 275.642264 -201.257112 
L 275.700672 -203.090833 
L 275.757183 -204.924555 
L 275.81218 -206.758276 
L 275.866041 -208.591997 
L 275.919123 -210.425718 
L 275.971758 -212.259439 
L 276.02424 -214.09316 
L 276.076825 -215.926881 
L 276.129722 -217.760603 
L 276.18309 -219.594324 
L 276.237037 -221.428045 
L 279.022963 -221.428045 
L 279.022963 -221.428045 
L 279.07691 -219.594324 
L 279.130278 -217.760603 
L 279.183175 -215.926881 
L 279.23576 -214.09316 
L 279.288242 -212.259439 
L 279.340877 -210.425718 
L 279.393959 -208.591997 
L 279.44782 -206.758276 
L 279.502817 -204.924555 
L 279.559328 -203.090833 
L 279.617736 -201.257112 
L 279.678421 -199.423391 
L 279.741749 -197.58967 
L 279.808061 -195.755949 
L 279.877656 -193.922228 
L 279.950787 -192.088507 
L 280.027643 -190.254785 
L 280.108346 -188.421064 
L 280.192937 -186.587343 
L 280.281375 -184.753622 
L 280.373528 -182.919901 
L 280.469173 -181.08618 
L 280.567997 -179.252459 
L 280.669597 -177.418737 
L 280.773488 -175.585016 
L 280.879105 -173.751295 
L 280.985821 -171.917574 
L 281.092949 -170.083853 
L 281.199763 -168.250132 
L 281.305508 -166.416411 
L 281.409417 -164.582689 
L 281.510726 -162.748968 
L 281.608693 -160.915247 
L 281.702612 -159.081526 
L 281.791827 -157.247805 
L 281.875753 -155.414084 
L 281.95388 -153.580363 
L 282.025792 -151.746641 
L 282.091174 -149.91292 
L 282.14982 -148.079199 
L 282.20164 -146.245478 
L 282.246665 -144.411757 
L 282.285047 -142.578036 
L 282.317063 -140.744315 
L 282.343112 -138.910593 
L 282.363713 -137.076872 
L 282.379504 -135.243151 
L 282.391239 -133.40943 
L 282.39978 -131.575709 
L 282.406095 -129.741988 
L 282.411252 -127.908267 
L 282.416416 -126.074545 
L 282.42284 -124.240824 
L 282.431863 -122.407103 
L 282.444901 -120.573382 
L 282.463442 -118.739661 
L 282.489036 -116.90594 
L 282.523291 -115.072219 
L 282.567853 -113.238497 
L 282.624401 -111.404776 
L 282.694627 -109.571055 
L 282.780218 -107.737334 
L 282.882832 -105.903613 
L 283.004074 -104.069892 
L 283.145466 -102.236171 
L 283.30841 -100.402449 
L 283.494157 -98.568728 
L 283.703765 -96.735007 
L 283.938053 -94.901286 
L 284.197567 -93.067565 
L 284.482529 -91.233844 
L 284.792798 -89.400123 
L 285.127832 -87.566401 
L 285.486651 -85.73268 
L 285.867809 -83.898959 
L 286.269373 -82.065238 
L 286.688912 -80.231517 
L 287.123489 -78.397796 
L 287.569681 -76.564075 
L 288.023592 -74.730353 
L 288.480896 -72.896632 
L 288.936882 -71.062911 
L 289.386517 -69.22919 
L 289.824521 -67.395469 
L 290.245452 -65.561748 
L 290.643802 -63.728026 
L 291.014095 -61.894305 
L 291.350996 -60.060584 
L 291.649417 -58.226863 
L 291.904627 -56.393142 
L 292.112347 -54.559421 
L 292.268854 -52.7257 
L 292.37106 -50.891978 
L 292.416582 -49.058257 
L 292.403807 -47.224536 
L 292.33192 -45.390815 
L 292.200937 -43.557094 
L 292.011698 -41.723373 
L 291.765856 -39.889652 
z
" style="stroke: #4c4c4c; stroke-width: 1.25"/>
    </defs>
    <g clip-path="url(#p51ea073aa3)">
     <use xlink:href="#m25d8a1cb00" x="0" y="321.8275" style="fill: #e090e0; stroke: #4c4c4c; stroke-width: 1.25"/>
    </g>
   </g>
   <g id="PolyCollection_4">
    <defs>
     <path id="mc44fffad34" d="M 358.508935 -39.159936 
L 330.671065 -39.159936 
L 330.468937 -41.684714 
L 330.311083 -44.209493 
L 330.198755 -46.734271 
L 330.132724 -49.259049 
L 330.113264 -51.783827 
L 330.140147 -54.308605 
L 330.212649 -56.833383 
L 330.329555 -59.358162 
L 330.489188 -61.88294 
L 330.689429 -64.407718 
L 330.927757 -66.932496 
L 331.201289 -69.457274 
L 331.50683 -71.982052 
L 331.84092 -74.506831 
L 332.199896 -77.031609 
L 332.579944 -79.556387 
L 332.977162 -82.081165 
L 333.387617 -84.605943 
L 333.807402 -87.130722 
L 334.232693 -89.6555 
L 334.659796 -92.180278 
L 335.085202 -94.705056 
L 335.505623 -97.229834 
L 335.918029 -99.754612 
L 336.319683 -102.279391 
L 336.708161 -104.804169 
L 337.081369 -107.328947 
L 337.437559 -109.853725 
L 337.775326 -112.378503 
L 338.093612 -114.903281 
L 338.391696 -117.42806 
L 338.669179 -119.952838 
L 338.925971 -122.477616 
L 339.162263 -125.002394 
L 339.378506 -127.527172 
L 339.57538 -130.05195 
L 339.753764 -132.576729 
L 339.914706 -135.101507 
L 340.059389 -137.626285 
L 340.189099 -140.151063 
L 340.305192 -142.675841 
L 340.409068 -145.20062 
L 340.502136 -147.725398 
L 340.585793 -150.250176 
L 340.661396 -152.774954 
L 340.730245 -155.299732 
L 340.793559 -157.82451 
L 340.852468 -160.349289 
L 340.907993 -162.874067 
L 340.961046 -165.398845 
L 341.012416 -167.923623 
L 341.062774 -170.448401 
L 341.112666 -172.973179 
L 341.162523 -175.497958 
L 341.212659 -178.022736 
L 341.263283 -180.547514 
L 341.314506 -183.072292 
L 341.366351 -185.59707 
L 341.418764 -188.121849 
L 341.471626 -190.646627 
L 341.524765 -193.171405 
L 341.57797 -195.696183 
L 341.630998 -198.220961 
L 341.683593 -200.745739 
L 341.735492 -203.270518 
L 341.786435 -205.795296 
L 341.836177 -208.320074 
L 341.884494 -210.844852 
L 341.931188 -213.36963 
L 341.976098 -215.894408 
L 342.019098 -218.419187 
L 342.060103 -220.943965 
L 342.099071 -223.468743 
L 342.136002 -225.993521 
L 342.170938 -228.518299 
L 342.203962 -231.043077 
L 342.235195 -233.567856 
L 342.264793 -236.092634 
L 342.292942 -238.617412 
L 342.319858 -241.14219 
L 342.345776 -243.666968 
L 342.37095 -246.191747 
L 342.395645 -248.716525 
L 342.420136 -251.241303 
L 342.444698 -253.766081 
L 342.469605 -256.290859 
L 342.495122 -258.815637 
L 342.521504 -261.340416 
L 342.548991 -263.865194 
L 342.577801 -266.389972 
L 342.608132 -268.91475 
L 342.640157 -271.439528 
L 342.674019 -273.964306 
L 342.709833 -276.489085 
L 342.747682 -279.013863 
L 342.787619 -281.538641 
L 342.829662 -284.063419 
L 342.873797 -286.588197 
L 342.91998 -289.112975 
L 346.26002 -289.112975 
L 346.26002 -289.112975 
L 346.306203 -286.588197 
L 346.350338 -284.063419 
L 346.392381 -281.538641 
L 346.432318 -279.013863 
L 346.470167 -276.489085 
L 346.505981 -273.964306 
L 346.539843 -271.439528 
L 346.571868 -268.91475 
L 346.602199 -266.389972 
L 346.631009 -263.865194 
L 346.658496 -261.340416 
L 346.684878 -258.815637 
L 346.710395 -256.290859 
L 346.735302 -253.766081 
L 346.759864 -251.241303 
L 346.784355 -248.716525 
L 346.80905 -246.191747 
L 346.834224 -243.666968 
L 346.860142 -241.14219 
L 346.887058 -238.617412 
L 346.915207 -236.092634 
L 346.944805 -233.567856 
L 346.976038 -231.043077 
L 347.009062 -228.518299 
L 347.043998 -225.993521 
L 347.080929 -223.468743 
L 347.119897 -220.943965 
L 347.160902 -218.419187 
L 347.203902 -215.894408 
L 347.248812 -213.36963 
L 347.295506 -210.844852 
L 347.343823 -208.320074 
L 347.393565 -205.795296 
L 347.444508 -203.270518 
L 347.496407 -200.745739 
L 347.549002 -198.220961 
L 347.60203 -195.696183 
L 347.655235 -193.171405 
L 347.708374 -190.646627 
L 347.761236 -188.121849 
L 347.813649 -185.59707 
L 347.865494 -183.072292 
L 347.916717 -180.547514 
L 347.967341 -178.022736 
L 348.017477 -175.497958 
L 348.067334 -172.973179 
L 348.117226 -170.448401 
L 348.167584 -167.923623 
L 348.218954 -165.398845 
L 348.272007 -162.874067 
L 348.327532 -160.349289 
L 348.386441 -157.82451 
L 348.449755 -155.299732 
L 348.518604 -152.774954 
L 348.594207 -150.250176 
L 348.677864 -147.725398 
L 348.770932 -145.20062 
L 348.874808 -142.675841 
L 348.990901 -140.151063 
L 349.120611 -137.626285 
L 349.265294 -135.101507 
L 349.426236 -132.576729 
L 349.60462 -130.05195 
L 349.801494 -127.527172 
L 350.017737 -125.002394 
L 350.254029 -122.477616 
L 350.510821 -119.952838 
L 350.788304 -117.42806 
L 351.086388 -114.903281 
L 351.404674 -112.378503 
L 351.742441 -109.853725 
L 352.098631 -107.328947 
L 352.471839 -104.804169 
L 352.860317 -102.279391 
L 353.261971 -99.754612 
L 353.674377 -97.229834 
L 354.094798 -94.705056 
L 354.520204 -92.180278 
L 354.947307 -89.6555 
L 355.372598 -87.130722 
L 355.792383 -84.605943 
L 356.202838 -82.081165 
L 356.600056 -79.556387 
L 356.980104 -77.031609 
L 357.33908 -74.506831 
L 357.67317 -71.982052 
L 357.978711 -69.457274 
L 358.252243 -66.932496 
L 358.490571 -64.407718 
L 358.690812 -61.88294 
L 358.850445 -59.358162 
L 358.967351 -56.833383 
L 359.039853 -54.308605 
L 359.066736 -51.783827 
L 359.047276 -49.259049 
L 358.981245 -46.734271 
L 358.868917 -44.209493 
L 358.711063 -41.684714 
L 358.508935 -39.159936 
z
" style="stroke: #4c4c4c; stroke-width: 1.25"/>
    </defs>
    <g clip-path="url(#p51ea073aa3)">
     <use xlink:href="#mc44fffad34" x="0" y="321.8275" style="fill: #20df20; stroke: #4c4c4c; stroke-width: 1.25"/>
    </g>
   </g>
   <g id="patch_3">
    <path d="M 143.71 284.4 
L 143.71 284.4 
L 143.71 284.4 
L 143.71 284.4 
z
" clip-path="url(#p51ea073aa3)" style="fill: #e090e0; stroke: #4c4c4c; stroke-width: 1.25; stroke-linejoin: miter"/>
   </g>
   <g id="patch_4">
    <path d="M 143.71 284.4 
L 143.71 284.4 
L 143.71 284.4 
L 143.71 284.4 
z
" clip-path="url(#p51ea073aa3)" style="fill: #20df20; stroke: #4c4c4c; stroke-width: 1.25; stroke-linejoin: miter"/>
   </g>
   <g id="matplotlib.axis_1">
    <g id="xtick_1">
     <g id="line2d_1">
      <defs>
       <path id="m40b8379f2c" d="M 0 0 
L 0 3.5 
" style="stroke: #000000; stroke-width: 0.8"/>
      </defs>
      <g>
       <use xlink:href="#m40b8379f2c" x="143.71" y="284.4" style="stroke: #000000; stroke-width: 0.8"/>
      </g>
     </g>
     <g id="text_1">
      <!-- iRMSD -->
      <g transform="translate(104.82625 309.63625) scale(0.24 -0.24)">
       <defs>
        <path id="DejaVuSans-69" d="M 603 3500 
L 1178 3500 
L 1178 0 
L 603 0 
L 603 3500 
z
M 603 4863 
L 1178 4863 
L 1178 4134 
L 603 4134 
L 603 4863 
z
" transform="scale(0.015625)"/>
        <path id="DejaVuSans-52" d="M 2841 2188 
Q 3044 2119 3236 1894 
Q 3428 1669 3622 1275 
L 4263 0 
L 3584 0 
L 2988 1197 
Q 2756 1666 2539 1819 
Q 2322 1972 1947 1972 
L 1259 1972 
L 1259 0 
L 628 0 
L 628 4666 
L 2053 4666 
Q 2853 4666 3247 4331 
Q 3641 3997 3641 3322 
Q 3641 2881 3436 2590 
Q 3231 2300 2841 2188 
z
M 1259 4147 
L 1259 2491 
L 2053 2491 
Q 2509 2491 2742 2702 
Q 2975 2913 2975 3322 
Q 2975 3731 2742 3939 
Q 2509 4147 2053 4147 
L 1259 4147 
z
" transform="scale(0.015625)"/>
        <path id="DejaVuSans-4d" d="M 628 4666 
L 1569 4666 
L 2759 1491 
L 3956 4666 
L 4897 4666 
L 4897 0 
L 4281 0 
L 4281 4097 
L 3078 897 
L 2444 897 
L 1241 4097 
L 1241 0 
L 628 0 
L 628 4666 
z
" transform="scale(0.015625)"/>
        <path id="DejaVuSans-53" d="M 3425 4513 
L 3425 3897 
Q 3066 4069 2747 4153 
Q 2428 4238 2131 4238 
Q 1616 4238 1336 4038 
Q 1056 3838 1056 3469 
Q 1056 3159 1242 3001 
Q 1428 2844 1947 2747 
L 2328 2669 
Q 3034 2534 3370 2195 
Q 3706 1856 3706 1288 
Q 3706 609 3251 259 
Q 2797 -91 1919 -91 
Q 1588 -91 1214 -16 
Q 841 59 441 206 
L 441 856 
Q 825 641 1194 531 
Q 1563 422 1919 422 
Q 2459 422 2753 634 
Q 3047 847 3047 1241 
Q 3047 1584 2836 1778 
Q 2625 1972 2144 2069 
L 1759 2144 
Q 1053 2284 737 2584 
Q 422 2884 422 3419 
Q 422 4038 858 4394 
Q 1294 4750 2059 4750 
Q 2388 4750 2728 4690 
Q 3069 4631 3425 4513 
z
" transform="scale(0.015625)"/>
        <path id="DejaVuSans-44" d="M 1259 4147 
L 1259 519 
L 2022 519 
Q 2988 519 3436 956 
Q 3884 1394 3884 2338 
Q 3884 3275 3436 3711 
Q 2988 4147 2022 4147 
L 1259 4147 
z
M 628 4666 
L 1925 4666 
Q 3281 4666 3915 4102 
Q 4550 3538 4550 2338 
Q 4550 1131 3912 565 
Q 3275 0 1925 0 
L 628 0 
L 628 4666 
z
" transform="scale(0.015625)"/>
       </defs>
       <use xlink:href="#DejaVuSans-69"/>
       <use xlink:href="#DejaVuSans-52" x="27.783203"/>
       <use xlink:href="#DejaVuSans-4d" x="97.265625"/>
       <use xlink:href="#DejaVuSans-53" x="183.544922"/>
       <use xlink:href="#DejaVuSans-44" x="247.021484"/>
      </g>
     </g>
    </g>
    <g id="xtick_2">
     <g id="line2d_2">
      <g>
       <use xlink:href="#m40b8379f2c" x="311.11" y="284.4" style="stroke: #000000; stroke-width: 0.8"/>
      </g>
     </g>
     <g id="text_2">
      <!-- lRMSD -->
      <g transform="translate(272.22625 309.63625) scale(0.24 -0.24)">
       <defs>
        <path id="DejaVuSans-6c" d="M 603 4863 
L 1178 4863 
L 1178 0 
L 603 0 
L 603 4863 
z
" transform="scale(0.015625)"/>
       </defs>
       <use xlink:href="#DejaVuSans-6c"/>
       <use xlink:href="#DejaVuSans-52" x="27.783203"/>
       <use xlink:href="#DejaVuSans-4d" x="97.265625"/>
       <use xlink:href="#DejaVuSans-53" x="183.544922"/>
       <use xlink:href="#DejaVuSans-44" x="247.021484"/>
      </g>
     </g>
    </g>
   </g>
   <g id="matplotlib.axis_2">
    <g id="ytick_1">
     <g id="line2d_3">
      <defs>
       <path id="m29e1c2241e" d="M 0 0 
L -3.5 0 
" style="stroke: #000000; stroke-width: 0.8"/>
      </defs>
      <g>
       <use xlink:href="#m29e1c2241e" x="60.01" y="284.4" style="stroke: #000000; stroke-width: 0.8"/>
      </g>
     </g>
     <g id="text_3">
      <!-- 0 -->
      <g transform="translate(37.74 293.518125) scale(0.24 -0.24)">
       <defs>
        <path id="DejaVuSans-30" d="M 2034 4250 
Q 1547 4250 1301 3770 
Q 1056 3291 1056 2328 
Q 1056 1369 1301 889 
Q 1547 409 2034 409 
Q 2525 409 2770 889 
Q 3016 1369 3016 2328 
Q 3016 3291 2770 3770 
Q 2525 4250 2034 4250 
z
M 2034 4750 
Q 2819 4750 3233 4129 
Q 3647 3509 3647 2328 
Q 3647 1150 3233 529 
Q 2819 -91 2034 -91 
Q 1250 -91 836 529 
Q 422 1150 422 2328 
Q 422 3509 836 4129 
Q 1250 4750 2034 4750 
z
" transform="scale(0.015625)"/>
       </defs>
       <use xlink:href="#DejaVuSans-30"/>
      </g>
     </g>
    </g>
    <g id="ytick_2">
     <g id="line2d_4">
      <g>
       <use xlink:href="#m29e1c2241e" x="60.01" y="156.827377" style="stroke: #000000; stroke-width: 0.8"/>
      </g>
     </g>
     <g id="text_4">
      <!-- 50 -->
      <g transform="translate(22.47 165.945502) scale(0.24 -0.24)">
       <defs>
        <path id="DejaVuSans-35" d="M 691 4666 
L 3169 4666 
L 3169 4134 
L 1269 4134 
L 1269 2991 
Q 1406 3038 1543 3061 
Q 1681 3084 1819 3084 
Q 2600 3084 3056 2656 
Q 3513 2228 3513 1497 
Q 3513 744 3044 326 
Q 2575 -91 1722 -91 
Q 1428 -91 1123 -41 
Q 819 9 494 109 
L 494 744 
Q 775 591 1075 516 
Q 1375 441 1709 441 
Q 2250 441 2565 725 
Q 2881 1009 2881 1497 
Q 2881 1984 2565 2268 
Q 2250 2553 1709 2553 
Q 1456 2553 1204 2497 
Q 953 2441 691 2322 
L 691 4666 
z
" transform="scale(0.015625)"/>
       </defs>
       <use xlink:href="#DejaVuSans-35"/>
       <use xlink:href="#DejaVuSans-30" x="63.623047"/>
      </g>
     </g>
    </g>
    <g id="ytick_3">
     <g id="line2d_5">
      <g>
       <use xlink:href="#m29e1c2241e" x="60.01" y="29.254755" style="stroke: #000000; stroke-width: 0.8"/>
      </g>
     </g>
     <g id="text_5">
      <!-- 100 -->
      <g transform="translate(7.2 38.37288) scale(0.24 -0.24)">
       <defs>
        <path id="DejaVuSans-31" d="M 794 531 
L 1825 531 
L 1825 4091 
L 703 3866 
L 703 4441 
L 1819 4666 
L 2450 4666 
L 2450 531 
L 3481 531 
L 3481 0 
L 794 0 
L 794 531 
z
" transform="scale(0.015625)"/>
       </defs>
       <use xlink:href="#DejaVuSans-31"/>
       <use xlink:href="#DejaVuSans-30" x="63.623047"/>
       <use xlink:href="#DejaVuSans-30" x="127.246094"/>
      </g>
     </g>
    </g>
   </g>
   <g id="line2d_6">
    <path d="M 110.23 282.909952 
L 110.23 219.623725 
" clip-path="url(#p51ea073aa3)" style="fill: none; stroke: #4c4c4c; stroke-width: 1.875; stroke-linecap: square"/>
   </g>
   <g id="line2d_7">
    <path d="M 110.23 281.075457 
L 110.23 256.101841 
" clip-path="url(#p51ea073aa3)" style="fill: none; stroke: #4c4c4c; stroke-width: 5.625; stroke-linecap: square"/>
   </g>
   <g id="line2d_8">
    <path d="M 110.23 277.294205 
" clip-path="url(#p51ea073aa3)" style="fill: none; stroke: #4c4c4c; stroke-width: 1.5; stroke-linecap: square"/>
    <defs>
     <path id="m8f542516a1" d="M 2.34375 0 
L -2.34375 -0 
" style="stroke: #ffffff; stroke-width: 1.125"/>
    </defs>
    <g clip-path="url(#p51ea073aa3)">
     <use xlink:href="#m8f542516a1" x="110.23" y="277.294205" style="fill: #ffffff; stroke: #ffffff; stroke-width: 1.125"/>
    </g>
   </g>
   <g id="line2d_9">
    <path d="M 177.19 283.15234 
L 177.19 221.590895 
" clip-path="url(#p51ea073aa3)" style="fill: none; stroke: #4c4c4c; stroke-width: 1.875; stroke-linecap: square"/>
   </g>
   <g id="line2d_10">
    <path d="M 177.19 280.699118 
L 177.19 252.369066 
" clip-path="url(#p51ea073aa3)" style="fill: none; stroke: #4c4c4c; stroke-width: 5.625; stroke-linecap: square"/>
   </g>
   <g id="line2d_11">
    <path d="M 177.19 280.057428 
" clip-path="url(#p51ea073aa3)" style="fill: none; stroke: #4c4c4c; stroke-width: 1.5; stroke-linecap: square"/>
    <g clip-path="url(#p51ea073aa3)">
     <use xlink:href="#m8f542516a1" x="177.19" y="280.057428" style="fill: #ffffff; stroke: #ffffff; stroke-width: 1.125"/>
    </g>
   </g>
   <g id="line2d_12">
    <path d="M 277.63 281.937848 
L 277.63 100.399455 
" clip-path="url(#p51ea073aa3)" style="fill: none; stroke: #4c4c4c; stroke-width: 1.875; stroke-linecap: square"/>
   </g>
   <g id="line2d_13">
    <path d="M 277.63 277.378403 
L 277.63 204.739189 
" clip-path="url(#p51ea073aa3)" style="fill: none; stroke: #4c4c4c; stroke-width: 5.625; stroke-linecap: square"/>
   </g>
   <g id="line2d_14">
    <path d="M 277.63 271.460309 
" clip-path="url(#p51ea073aa3)" style="fill: none; stroke: #4c4c4c; stroke-width: 1.5; stroke-linecap: square"/>
    <g clip-path="url(#p51ea073aa3)">
     <use xlink:href="#m8f542516a1" x="277.63" y="271.460309" style="fill: #ffffff; stroke: #ffffff; stroke-width: 1.125"/>
    </g>
   </g>
   <g id="line2d_15">
    <path d="M 344.59 282.667564 
L 344.59 138.31659 
" clip-path="url(#p51ea073aa3)" style="fill: none; stroke: #4c4c4c; stroke-width: 1.875; stroke-linecap: square"/>
   </g>
   <g id="line2d_16">
    <path d="M 344.59 277.832561 
L 344.59 212.813899 
" clip-path="url(#p51ea073aa3)" style="fill: none; stroke: #4c4c4c; stroke-width: 5.625; stroke-linecap: square"/>
   </g>
   <g id="line2d_17">
    <path d="M 344.59 269.241821 
" clip-path="url(#p51ea073aa3)" style="fill: none; stroke: #4c4c4c; stroke-width: 1.5; stroke-linecap: square"/>
    <g clip-path="url(#p51ea073aa3)">
     <use xlink:href="#m8f542516a1" x="344.59" y="269.241821" style="fill: #ffffff; stroke: #ffffff; stroke-width: 1.125"/>
    </g>
   </g>
   <g id="patch_5">
    <path d="M 60.01 284.4 
L 60.01 7.2 
" style="fill: none; stroke: #000000; stroke-width: 0.8; stroke-linejoin: miter; stroke-linecap: square"/>
   </g>
   <g id="patch_6">
    <path d="M 394.81 284.4 
L 394.81 7.2 
" style="fill: none; stroke: #000000; stroke-width: 0.8; stroke-linejoin: miter; stroke-linecap: square"/>
   </g>
   <g id="patch_7">
    <path d="M 60.01 284.4 
L 394.81 284.4 
" style="fill: none; stroke: #000000; stroke-width: 0.8; stroke-linejoin: miter; stroke-linecap: square"/>
   </g>
   <g id="patch_8">
    <path d="M 60.01 7.2 
L 394.81 7.2 
" style="fill: none; stroke: #000000; stroke-width: 0.8; stroke-linejoin: miter; stroke-linecap: square"/>
   </g>
   <g id="legend_1">
    <g id="patch_9">
     <path d="M 155.2375 96.855 
L 378.01 96.855 
Q 382.81 96.855 382.81 92.055 
L 382.81 24 
Q 382.81 19.2 378.01 19.2 
L 155.2375 19.2 
Q 150.4375 19.2 150.4375 24 
L 150.4375 92.055 
Q 150.4375 96.855 155.2375 96.855 
z
" style="fill: #ffffff; opacity: 0.8; stroke: #cccccc; stroke-linejoin: miter"/>
    </g>
    <g id="patch_10">
     <path d="M 160.0375 47.03625 
L 208.0375 47.03625 
L 208.0375 30.23625 
L 160.0375 30.23625 
z
" style="fill: #e090e0; stroke: #4c4c4c; stroke-width: 1.25; stroke-linejoin: miter"/>
    </g>
    <g id="text_6">
     <!-- Interspecies -->
     <g transform="translate(227.2375 47.03625) scale(0.24 -0.24)">
      <defs>
       <path id="DejaVuSans-49" d="M 628 4666 
L 1259 4666 
L 1259 0 
L 628 0 
L 628 4666 
z
" transform="scale(0.015625)"/>
       <path id="DejaVuSans-6e" d="M 3513 2113 
L 3513 0 
L 2938 0 
L 2938 2094 
Q 2938 2591 2744 2837 
Q 2550 3084 2163 3084 
Q 1697 3084 1428 2787 
Q 1159 2491 1159 1978 
L 1159 0 
L 581 0 
L 581 3500 
L 1159 3500 
L 1159 2956 
Q 1366 3272 1645 3428 
Q 1925 3584 2291 3584 
Q 2894 3584 3203 3211 
Q 3513 2838 3513 2113 
z
" transform="scale(0.015625)"/>
       <path id="DejaVuSans-74" d="M 1172 4494 
L 1172 3500 
L 2356 3500 
L 2356 3053 
L 1172 3053 
L 1172 1153 
Q 1172 725 1289 603 
Q 1406 481 1766 481 
L 2356 481 
L 2356 0 
L 1766 0 
Q 1100 0 847 248 
Q 594 497 594 1153 
L 594 3053 
L 172 3053 
L 172 3500 
L 594 3500 
L 594 4494 
L 1172 4494 
z
" transform="scale(0.015625)"/>
       <path id="DejaVuSans-65" d="M 3597 1894 
L 3597 1613 
L 953 1613 
Q 991 1019 1311 708 
Q 1631 397 2203 397 
Q 2534 397 2845 478 
Q 3156 559 3463 722 
L 3463 178 
Q 3153 47 2828 -22 
Q 2503 -91 2169 -91 
Q 1331 -91 842 396 
Q 353 884 353 1716 
Q 353 2575 817 3079 
Q 1281 3584 2069 3584 
Q 2775 3584 3186 3129 
Q 3597 2675 3597 1894 
z
M 3022 2063 
Q 3016 2534 2758 2815 
Q 2500 3097 2075 3097 
Q 1594 3097 1305 2825 
Q 1016 2553 972 2059 
L 3022 2063 
z
" transform="scale(0.015625)"/>
       <path id="DejaVuSans-72" d="M 2631 2963 
Q 2534 3019 2420 3045 
Q 2306 3072 2169 3072 
Q 1681 3072 1420 2755 
Q 1159 2438 1159 1844 
L 1159 0 
L 581 0 
L 581 3500 
L 1159 3500 
L 1159 2956 
Q 1341 3275 1631 3429 
Q 1922 3584 2338 3584 
Q 2397 3584 2469 3576 
Q 2541 3569 2628 3553 
L 2631 2963 
z
" transform="scale(0.015625)"/>
       <path id="DejaVuSans-73" d="M 2834 3397 
L 2834 2853 
Q 2591 2978 2328 3040 
Q 2066 3103 1784 3103 
Q 1356 3103 1142 2972 
Q 928 2841 928 2578 
Q 928 2378 1081 2264 
Q 1234 2150 1697 2047 
L 1894 2003 
Q 2506 1872 2764 1633 
Q 3022 1394 3022 966 
Q 3022 478 2636 193 
Q 2250 -91 1575 -91 
Q 1294 -91 989 -36 
Q 684 19 347 128 
L 347 722 
Q 666 556 975 473 
Q 1284 391 1588 391 
Q 1994 391 2212 530 
Q 2431 669 2431 922 
Q 2431 1156 2273 1281 
Q 2116 1406 1581 1522 
L 1381 1569 
Q 847 1681 609 1914 
Q 372 2147 372 2553 
Q 372 3047 722 3315 
Q 1072 3584 1716 3584 
Q 2034 3584 2315 3537 
Q 2597 3491 2834 3397 
z
" transform="scale(0.015625)"/>
       <path id="DejaVuSans-70" d="M 1159 525 
L 1159 -1331 
L 581 -1331 
L 581 3500 
L 1159 3500 
L 1159 2969 
Q 1341 3281 1617 3432 
Q 1894 3584 2278 3584 
Q 2916 3584 3314 3078 
Q 3713 2572 3713 1747 
Q 3713 922 3314 415 
Q 2916 -91 2278 -91 
Q 1894 -91 1617 61 
Q 1341 213 1159 525 
z
M 3116 1747 
Q 3116 2381 2855 2742 
Q 2594 3103 2138 3103 
Q 1681 3103 1420 2742 
Q 1159 2381 1159 1747 
Q 1159 1113 1420 752 
Q 1681 391 2138 391 
Q 2594 391 2855 752 
Q 3116 1113 3116 1747 
z
" transform="scale(0.015625)"/>
       <path id="DejaVuSans-63" d="M 3122 3366 
L 3122 2828 
Q 2878 2963 2633 3030 
Q 2388 3097 2138 3097 
Q 1578 3097 1268 2742 
Q 959 2388 959 1747 
Q 959 1106 1268 751 
Q 1578 397 2138 397 
Q 2388 397 2633 464 
Q 2878 531 3122 666 
L 3122 134 
Q 2881 22 2623 -34 
Q 2366 -91 2075 -91 
Q 1284 -91 818 406 
Q 353 903 353 1747 
Q 353 2603 823 3093 
Q 1294 3584 2113 3584 
Q 2378 3584 2631 3529 
Q 2884 3475 3122 3366 
z
" transform="scale(0.015625)"/>
      </defs>
      <use xlink:href="#DejaVuSans-49"/>
      <use xlink:href="#DejaVuSans-6e" x="29.492188"/>
      <use xlink:href="#DejaVuSans-74" x="92.871094"/>
      <use xlink:href="#DejaVuSans-65" x="132.080078"/>
      <use xlink:href="#DejaVuSans-72" x="193.603516"/>
      <use xlink:href="#DejaVuSans-73" x="234.716797"/>
      <use xlink:href="#DejaVuSans-70" x="286.816406"/>
      <use xlink:href="#DejaVuSans-65" x="350.292969"/>
      <use xlink:href="#DejaVuSans-63" x="411.816406"/>
      <use xlink:href="#DejaVuSans-69" x="466.796875"/>
      <use xlink:href="#DejaVuSans-65" x="494.580078"/>
      <use xlink:href="#DejaVuSans-73" x="556.103516"/>
     </g>
    </g>
    <g id="patch_11">
     <path d="M 160.0375 82.26375 
L 208.0375 82.26375 
L 208.0375 65.46375 
L 160.0375 65.46375 
z
" style="fill: #20df20; stroke: #4c4c4c; stroke-width: 1.25; stroke-linejoin: miter"/>
    </g>
    <g id="text_7">
     <!-- Intraspecies -->
     <g transform="translate(227.2375 82.26375) scale(0.24 -0.24)">
      <defs>
       <path id="DejaVuSans-61" d="M 2194 1759 
Q 1497 1759 1228 1600 
Q 959 1441 959 1056 
Q 959 750 1161 570 
Q 1363 391 1709 391 
Q 2188 391 2477 730 
Q 2766 1069 2766 1631 
L 2766 1759 
L 2194 1759 
z
M 3341 1997 
L 3341 0 
L 2766 0 
L 2766 531 
Q 2569 213 2275 61 
Q 1981 -91 1556 -91 
Q 1019 -91 701 211 
Q 384 513 384 1019 
Q 384 1609 779 1909 
Q 1175 2209 1959 2209 
L 2766 2209 
L 2766 2266 
Q 2766 2663 2505 2880 
Q 2244 3097 1772 3097 
Q 1472 3097 1187 3025 
Q 903 2953 641 2809 
L 641 3341 
Q 956 3463 1253 3523 
Q 1550 3584 1831 3584 
Q 2591 3584 2966 3190 
Q 3341 2797 3341 1997 
z
" transform="scale(0.015625)"/>
      </defs>
      <use xlink:href="#DejaVuSans-49"/>
      <use xlink:href="#DejaVuSans-6e" x="29.492188"/>
      <use xlink:href="#DejaVuSans-74" x="92.871094"/>
      <use xlink:href="#DejaVuSans-72" x="132.080078"/>
      <use xlink:href="#DejaVuSans-61" x="173.193359"/>
      <use xlink:href="#DejaVuSans-73" x="234.472656"/>
      <use xlink:href="#DejaVuSans-70" x="286.572266"/>
      <use xlink:href="#DejaVuSans-65" x="350.048828"/>
      <use xlink:href="#DejaVuSans-63" x="411.572266"/>
      <use xlink:href="#DejaVuSans-69" x="466.552734"/>
      <use xlink:href="#DejaVuSans-65" x="494.335938"/>
      <use xlink:href="#DejaVuSans-73" x="555.859375"/>
     </g>
    </g>
   </g>
  </g>
 </g>
 <defs>
  <clipPath id="p51ea073aa3">
   <rect x="60.01" y="7.2" width="334.8" height="277.2"/>
  </clipPath>
 </defs>
</svg>
