<?xml version="1.0" encoding="utf-8" standalone="no"?>
<!DOCTYPE svg PUBLIC "-//W3C//DTD SVG 1.1//EN"
  "http://www.w3.org/Graphics/SVG/1.1/DTD/svg11.dtd">
<svg xmlns:xlink="http://www.w3.org/1999/xlink" width="459.2925pt" height="354.827625pt" viewBox="0 0 459.2925 354.827625" xmlns="http://www.w3.org/2000/svg" version="1.1">
 <metadata>
  <rdf:RDF xmlns:dc="http://purl.org/dc/elements/1.1/" xmlns:cc="http://creativecommons.org/ns#" xmlns:rdf="http://www.w3.org/1999/02/22-rdf-syntax-ns#">
   <cc:Work>
    <dc:type rdf:resource="http://purl.org/dc/dcmitype/StillImage"/>
    <dc:date>2024-07-03T21:58:36.613007</dc:date>
    <dc:format>image/svg+xml</dc:format>
    <dc:creator>
     <cc:Agent>
      <dc:title>Matplotlib v3.8.1, https://matplotlib.org/</dc:title>
     </cc:Agent>
    </dc:creator>
   </cc:Work>
  </rdf:RDF>
 </metadata>
 <defs>
  <style type="text/css">*{stroke-linejoin: round; stroke-linecap: butt}</style>
 </defs>
 <g id="figure_1">
  <g id="patch_1">
   <path d="M 0 354.827625 
L 459.2925 354.827625 
L 459.2925 0 
L 0 0 
z
" style="fill: #ffffff"/>
  </g>
  <g id="axes_1">
   <g id="patch_2">
    <path d="M 87.3375 282.430125 
L 444.4575 282.430125 
L 444.4575 16.318125 
L 87.3375 16.318125 
z
" style="fill: #ffffff"/>
   </g>
   <g id="PathCollection_1">
    <defs>
     <path id="maefef9dbc1" d="M 0 1.118034 
C 0.296506 1.118034 0.580908 1.000231 0.790569 0.790569 
C 1.000231 0.580908 1.118034 0.296506 1.118034 0 
C 1.118034 -0.296506 1.000231 -0.580908 0.790569 -0.790569 
C 0.580908 -1.000231 0.296506 -1.118034 0 -1.118034 
C -0.296506 -1.118034 -0.580908 -1.000231 -0.790569 -0.790569 
C -1.000231 -0.580908 -1.118034 -0.296506 -1.118034 0 
C -1.118034 0.296506 -1.000231 0.580908 -0.790569 0.790569 
C -0.580908 1.000231 -0.296506 1.118034 0 1.118034 
z
" style="stroke: #800080"/>
    </defs>
    <g clip-path="url(#pf533e18496)">
     <use xlink:href="#maefef9dbc1" x="114.808262" y="122.763244" style="fill: #800080; stroke: #800080"/>
     <use xlink:href="#maefef9dbc1" x="345.679573" y="129.077473" style="fill: #800080; stroke: #800080"/>
     <use xlink:href="#maefef9dbc1" x="323.17144" y="109.950141" style="fill: #800080; stroke: #800080"/>
     <use xlink:href="#maefef9dbc1" x="143.356313" y="231.742137" style="fill: #800080; stroke: #800080"/>
     <use xlink:href="#maefef9dbc1" x="98.857496" y="149.37479" style="fill: #800080; stroke: #800080"/>
     <use xlink:href="#maefef9dbc1" x="320.838949" y="126.433489" style="fill: #800080; stroke: #800080"/>
     <use xlink:href="#maefef9dbc1" x="297.85032" y="102.884701" style="fill: #800080; stroke: #800080"/>
     <use xlink:href="#maefef9dbc1" x="189.371767" y="210.264171" style="fill: #800080; stroke: #800080"/>
     <use xlink:href="#maefef9dbc1" x="125.430295" y="229.207738" style="fill: #800080; stroke: #800080"/>
     <use xlink:href="#maefef9dbc1" x="87.3375" y="282.430125" style="fill: #800080; stroke: #800080"/>
     <use xlink:href="#maefef9dbc1" x="336.49093" y="137.278151" style="fill: #800080; stroke: #800080"/>
     <use xlink:href="#maefef9dbc1" x="155.826258" y="63.279195" style="fill: #800080; stroke: #800080"/>
     <use xlink:href="#maefef9dbc1" x="246.057324" y="258.23813" style="fill: #800080; stroke: #800080"/>
     <use xlink:href="#maefef9dbc1" x="233.431979" y="199.843671" style="fill: #800080; stroke: #800080"/>
     <use xlink:href="#maefef9dbc1" x="263.232399" y="176.626571" style="fill: #800080; stroke: #800080"/>
     <use xlink:href="#maefef9dbc1" x="273.495778" y="87.81093" style="fill: #800080; stroke: #800080"/>
     <use xlink:href="#maefef9dbc1" x="124.929069" y="252.862133" style="fill: #800080; stroke: #800080"/>
     <use xlink:href="#maefef9dbc1" x="327.846839" y="73.342175" style="fill: #800080; stroke: #800080"/>
     <use xlink:href="#maefef9dbc1" x="312.042194" y="113.086144" style="fill: #800080; stroke: #800080"/>
     <use xlink:href="#maefef9dbc1" x="234.153484" y="128.584149" style="fill: #800080; stroke: #800080"/>
     <use xlink:href="#maefef9dbc1" x="337.321464" y="134.254142" style="fill: #800080; stroke: #800080"/>
     <use xlink:href="#maefef9dbc1" x="344.01742" y="197.422137" style="fill: #800080; stroke: #800080"/>
     <use xlink:href="#maefef9dbc1" x="309.957731" y="109.816959" style="fill: #800080; stroke: #800080"/>
     <use xlink:href="#maefef9dbc1" x="388.657406" y="88.24034" style="fill: #800080; stroke: #800080"/>
     <use xlink:href="#maefef9dbc1" x="323.666877" y="89.28435" style="fill: #800080; stroke: #800080"/>
     <use xlink:href="#maefef9dbc1" x="91.692621" y="269.758131" style="fill: #800080; stroke: #800080"/>
     <use xlink:href="#maefef9dbc1" x="87.3375" y="282.430125" style="fill: #800080; stroke: #800080"/>
     <use xlink:href="#maefef9dbc1" x="179.168331" y="254.253564" style="fill: #800080; stroke: #800080"/>
     <use xlink:href="#maefef9dbc1" x="284.254117" y="134.311196" style="fill: #800080; stroke: #800080"/>
     <use xlink:href="#maefef9dbc1" x="291.406042" y="69.540568" style="fill: #800080; stroke: #800080"/>
     <use xlink:href="#maefef9dbc1" x="108.100288" y="263.422128" style="fill: #800080; stroke: #800080"/>
     <use xlink:href="#maefef9dbc1" x="403.643695" y="184.222137" style="fill: #800080; stroke: #800080"/>
     <use xlink:href="#maefef9dbc1" x="331.68272" y="177.598136" style="fill: #800080; stroke: #800080"/>
    </g>
   </g>
   <g id="PathCollection_2">
    <defs>
     <path id="mdf832c4195" d="M 0 1.118034 
C 0.296506 1.118034 0.580908 1.000231 0.790569 0.790569 
C 1.000231 0.580908 1.118034 0.296506 1.118034 0 
C 1.118034 -0.296506 1.000231 -0.580908 0.790569 -0.790569 
C 0.580908 -1.000231 0.296506 -1.118034 0 -1.118034 
C -0.296506 -1.118034 -0.580908 -1.000231 -0.790569 -0.790569 
C -1.000231 -0.580908 -1.118034 -0.296506 -1.118034 0 
C -1.118034 0.296506 -1.000231 0.580908 -0.790569 0.790569 
C -0.580908 1.000231 -0.296506 1.118034 0 1.118034 
z
" style="stroke: #008000"/>
    </defs>
    <g clip-path="url(#pf533e18496)">
     <use xlink:href="#mdf832c4195" x="410.553682" y="16.318144" style="fill: #008000; stroke: #008000"/>
     <use xlink:href="#mdf832c4195" x="394.094384" y="62.312819" style="fill: #008000; stroke: #008000"/>
     <use xlink:href="#mdf832c4195" x="284.369156" y="185.662147" style="fill: #008000; stroke: #008000"/>
     <use xlink:href="#mdf832c4195" x="374.586133" y="42.28033" style="fill: #008000; stroke: #008000"/>
     <use xlink:href="#mdf832c4195" x="112.846062" y="260.254134" style="fill: #008000; stroke: #008000"/>
     <use xlink:href="#mdf832c4195" x="396.841431" y="86.611898" style="fill: #008000; stroke: #008000"/>
     <use xlink:href="#mdf832c4195" x="381.436266" y="172.854606" style="fill: #008000; stroke: #008000"/>
     <use xlink:href="#mdf832c4195" x="176.617484" y="245.904952" style="fill: #008000; stroke: #008000"/>
     <use xlink:href="#mdf832c4195" x="383.017468" y="41.363989" style="fill: #008000; stroke: #008000"/>
     <use xlink:href="#mdf832c4195" x="429.064367" y="112.669031" style="fill: #008000; stroke: #008000"/>
     <use xlink:href="#mdf832c4195" x="205.502197" y="32.950177" style="fill: #008000; stroke: #008000"/>
     <use xlink:href="#mdf832c4195" x="416.986646" y="174.789328" style="fill: #008000; stroke: #008000"/>
     <use xlink:href="#mdf832c4195" x="328.918653" y="23.814274" style="fill: #008000; stroke: #008000"/>
     <use xlink:href="#mdf832c4195" x="124.929076" y="231.742133" style="fill: #008000; stroke: #008000"/>
     <use xlink:href="#mdf832c4195" x="422.681849" y="115.8397" style="fill: #008000; stroke: #008000"/>
     <use xlink:href="#mdf832c4195" x="408.998754" y="26.398144" style="fill: #008000; stroke: #008000"/>
     <use xlink:href="#mdf832c4195" x="127.017485" y="260.254131" style="fill: #008000; stroke: #008000"/>
     <use xlink:href="#mdf832c4195" x="359.428864" y="118.668926" style="fill: #008000; stroke: #008000"/>
     <use xlink:href="#mdf832c4195" x="113.93154" y="222.340338" style="fill: #008000; stroke: #008000"/>
    </g>
   </g>
   <g id="matplotlib.axis_1">
    <g id="xtick_1">
     <g id="line2d_1">
      <defs>
       <path id="m6583a379b3" d="M 0 0 
L 0 3.5 
" style="stroke: #000000; stroke-width: 0.8"/>
      </defs>
      <g>
       <use xlink:href="#m6583a379b3" x="87.3375" y="282.430125" style="stroke: #000000; stroke-width: 0.8"/>
      </g>
     </g>
     <g id="text_1">
      <!-- 0 -->
      <g transform="translate(79.7025 307.666375) scale(0.24 -0.24)">
       <defs>
        <path id="DejaVuSans-30" d="M 2034 4250 
Q 1547 4250 1301 3770 
Q 1056 3291 1056 2328 
Q 1056 1369 1301 889 
Q 1547 409 2034 409 
Q 2525 409 2770 889 
Q 3016 1369 3016 2328 
Q 3016 3291 2770 3770 
Q 2525 4250 2034 4250 
z
M 2034 4750 
Q 2819 4750 3233 4129 
Q 3647 3509 3647 2328 
Q 3647 1150 3233 529 
Q 2819 -91 2034 -91 
Q 1250 -91 836 529 
Q 422 1150 422 2328 
Q 422 3509 836 4129 
Q 1250 4750 2034 4750 
z
" transform="scale(0.015625)"/>
       </defs>
       <use xlink:href="#DejaVuSans-30"/>
      </g>
     </g>
    </g>
    <g id="xtick_2">
     <g id="line2d_2">
      <g>
       <use xlink:href="#m6583a379b3" x="265.8975" y="282.430125" style="stroke: #000000; stroke-width: 0.8"/>
      </g>
     </g>
     <g id="text_2">
      <!-- 0.5 -->
      <g transform="translate(246.81375 307.666375) scale(0.24 -0.24)">
       <defs>
        <path id="DejaVuSans-2e" d="M 684 794 
L 1344 794 
L 1344 0 
L 684 0 
L 684 794 
z
" transform="scale(0.015625)"/>
        <path id="DejaVuSans-35" d="M 691 4666 
L 3169 4666 
L 3169 4134 
L 1269 4134 
L 1269 2991 
Q 1406 3038 1543 3061 
Q 1681 3084 1819 3084 
Q 2600 3084 3056 2656 
Q 3513 2228 3513 1497 
Q 3513 744 3044 326 
Q 2575 -91 1722 -91 
Q 1428 -91 1123 -41 
Q 819 9 494 109 
L 494 744 
Q 775 591 1075 516 
Q 1375 441 1709 441 
Q 2250 441 2565 725 
Q 2881 1009 2881 1497 
Q 2881 1984 2565 2268 
Q 2250 2553 1709 2553 
Q 1456 2553 1204 2497 
Q 953 2441 691 2322 
L 691 4666 
z
" transform="scale(0.015625)"/>
       </defs>
       <use xlink:href="#DejaVuSans-30"/>
       <use xlink:href="#DejaVuSans-2e" x="63.623047"/>
       <use xlink:href="#DejaVuSans-35" x="95.410156"/>
      </g>
     </g>
    </g>
    <g id="xtick_3">
     <g id="line2d_3">
      <g>
       <use xlink:href="#m6583a379b3" x="444.4575" y="282.430125" style="stroke: #000000; stroke-width: 0.8"/>
      </g>
     </g>
     <g id="text_3">
      <!-- 1 -->
      <g transform="translate(436.8225 307.666375) scale(0.24 -0.24)">
       <defs>
        <path id="DejaVuSans-31" d="M 794 531 
L 1825 531 
L 1825 4091 
L 703 3866 
L 703 4441 
L 1819 4666 
L 2450 4666 
L 2450 531 
L 3481 531 
L 3481 0 
L 794 0 
L 794 531 
z
" transform="scale(0.015625)"/>
       </defs>
       <use xlink:href="#DejaVuSans-31"/>
      </g>
     </g>
    </g>
    <g id="text_4">
     <!-- Recall -->
     <g transform="translate(218.1625 340.972625) scale(0.32 -0.32)">
      <defs>
       <path id="DejaVuSans-52" d="M 2841 2188 
Q 3044 2119 3236 1894 
Q 3428 1669 3622 1275 
L 4263 0 
L 3584 0 
L 2988 1197 
Q 2756 1666 2539 1819 
Q 2322 1972 1947 1972 
L 1259 1972 
L 1259 0 
L 628 0 
L 628 4666 
L 2053 4666 
Q 2853 4666 3247 4331 
Q 3641 3997 3641 3322 
Q 3641 2881 3436 2590 
Q 3231 2300 2841 2188 
z
M 1259 4147 
L 1259 2491 
L 2053 2491 
Q 2509 2491 2742 2702 
Q 2975 2913 2975 3322 
Q 2975 3731 2742 3939 
Q 2509 4147 2053 4147 
L 1259 4147 
z
" transform="scale(0.015625)"/>
       <path id="DejaVuSans-65" d="M 3597 1894 
L 3597 1613 
L 953 1613 
Q 991 1019 1311 708 
Q 1631 397 2203 397 
Q 2534 397 2845 478 
Q 3156 559 3463 722 
L 3463 178 
Q 3153 47 2828 -22 
Q 2503 -91 2169 -91 
Q 1331 -91 842 396 
Q 353 884 353 1716 
Q 353 2575 817 3079 
Q 1281 3584 2069 3584 
Q 2775 3584 3186 3129 
Q 3597 2675 3597 1894 
z
M 3022 2063 
Q 3016 2534 2758 2815 
Q 2500 3097 2075 3097 
Q 1594 3097 1305 2825 
Q 1016 2553 972 2059 
L 3022 2063 
z
" transform="scale(0.015625)"/>
       <path id="DejaVuSans-63" d="M 3122 3366 
L 3122 2828 
Q 2878 2963 2633 3030 
Q 2388 3097 2138 3097 
Q 1578 3097 1268 2742 
Q 959 2388 959 1747 
Q 959 1106 1268 751 
Q 1578 397 2138 397 
Q 2388 397 2633 464 
Q 2878 531 3122 666 
L 3122 134 
Q 2881 22 2623 -34 
Q 2366 -91 2075 -91 
Q 1284 -91 818 406 
Q 353 903 353 1747 
Q 353 2603 823 3093 
Q 1294 3584 2113 3584 
Q 2378 3584 2631 3529 
Q 2884 3475 3122 3366 
z
" transform="scale(0.015625)"/>
       <path id="DejaVuSans-61" d="M 2194 1759 
Q 1497 1759 1228 1600 
Q 959 1441 959 1056 
Q 959 750 1161 570 
Q 1363 391 1709 391 
Q 2188 391 2477 730 
Q 2766 1069 2766 1631 
L 2766 1759 
L 2194 1759 
z
M 3341 1997 
L 3341 0 
L 2766 0 
L 2766 531 
Q 2569 213 2275 61 
Q 1981 -91 1556 -91 
Q 1019 -91 701 211 
Q 384 513 384 1019 
Q 384 1609 779 1909 
Q 1175 2209 1959 2209 
L 2766 2209 
L 2766 2266 
Q 2766 2663 2505 2880 
Q 2244 3097 1772 3097 
Q 1472 3097 1187 3025 
Q 903 2953 641 2809 
L 641 3341 
Q 956 3463 1253 3523 
Q 1550 3584 1831 3584 
Q 2591 3584 2966 3190 
Q 3341 2797 3341 1997 
z
" transform="scale(0.015625)"/>
       <path id="DejaVuSans-6c" d="M 603 4863 
L 1178 4863 
L 1178 0 
L 603 0 
L 603 4863 
z
" transform="scale(0.015625)"/>
      </defs>
      <use xlink:href="#DejaVuSans-52"/>
      <use xlink:href="#DejaVuSans-65" x="64.982422"/>
      <use xlink:href="#DejaVuSans-63" x="126.505859"/>
      <use xlink:href="#DejaVuSans-61" x="181.486328"/>
      <use xlink:href="#DejaVuSans-6c" x="242.765625"/>
      <use xlink:href="#DejaVuSans-6c" x="270.548828"/>
     </g>
    </g>
   </g>
   <g id="matplotlib.axis_2">
    <g id="ytick_1">
     <g id="line2d_4">
      <defs>
       <path id="mdf3e357e67" d="M 0 0 
L -3.5 0 
" style="stroke: #000000; stroke-width: 0.8"/>
      </defs>
      <g>
       <use xlink:href="#mdf3e357e67" x="87.3375" y="282.430125" style="stroke: #000000; stroke-width: 0.8"/>
      </g>
     </g>
     <g id="text_5">
      <!-- 0 -->
      <g transform="translate(65.0675 291.54825) scale(0.24 -0.24)">
       <use xlink:href="#DejaVuSans-30"/>
      </g>
     </g>
    </g>
    <g id="ytick_2">
     <g id="line2d_5">
      <g>
       <use xlink:href="#mdf3e357e67" x="87.3375" y="149.374125" style="stroke: #000000; stroke-width: 0.8"/>
      </g>
     </g>
     <g id="text_6">
      <!-- 0.5 -->
      <g transform="translate(42.17 158.49225) scale(0.24 -0.24)">
       <use xlink:href="#DejaVuSans-30"/>
       <use xlink:href="#DejaVuSans-2e" x="63.623047"/>
       <use xlink:href="#DejaVuSans-35" x="95.410156"/>
      </g>
     </g>
    </g>
    <g id="ytick_3">
     <g id="line2d_6">
      <g>
       <use xlink:href="#mdf3e357e67" x="87.3375" y="16.318125" style="stroke: #000000; stroke-width: 0.8"/>
      </g>
     </g>
     <g id="text_7">
      <!-- 1 -->
      <g transform="translate(65.0675 25.43625) scale(0.24 -0.24)">
       <use xlink:href="#DejaVuSans-31"/>
      </g>
     </g>
    </g>
    <g id="text_8">
     <!-- Precison -->
     <g transform="translate(31.515 216.311625) rotate(-90) scale(0.32 -0.32)">
      <defs>
       <path id="DejaVuSans-50" d="M 1259 4147 
L 1259 2394 
L 2053 2394 
Q 2494 2394 2734 2622 
Q 2975 2850 2975 3272 
Q 2975 3691 2734 3919 
Q 2494 4147 2053 4147 
L 1259 4147 
z
M 628 4666 
L 2053 4666 
Q 2838 4666 3239 4311 
Q 3641 3956 3641 3272 
Q 3641 2581 3239 2228 
Q 2838 1875 2053 1875 
L 1259 1875 
L 1259 0 
L 628 0 
L 628 4666 
z
" transform="scale(0.015625)"/>
       <path id="DejaVuSans-72" d="M 2631 2963 
Q 2534 3019 2420 3045 
Q 2306 3072 2169 3072 
Q 1681 3072 1420 2755 
Q 1159 2438 1159 1844 
L 1159 0 
L 581 0 
L 581 3500 
L 1159 3500 
L 1159 2956 
Q 1341 3275 1631 3429 
Q 1922 3584 2338 3584 
Q 2397 3584 2469 3576 
Q 2541 3569 2628 3553 
L 2631 2963 
z
" transform="scale(0.015625)"/>
       <path id="DejaVuSans-69" d="M 603 3500 
L 1178 3500 
L 1178 0 
L 603 0 
L 603 3500 
z
M 603 4863 
L 1178 4863 
L 1178 4134 
L 603 4134 
L 603 4863 
z
" transform="scale(0.015625)"/>
       <path id="DejaVuSans-73" d="M 2834 3397 
L 2834 2853 
Q 2591 2978 2328 3040 
Q 2066 3103 1784 3103 
Q 1356 3103 1142 2972 
Q 928 2841 928 2578 
Q 928 2378 1081 2264 
Q 1234 2150 1697 2047 
L 1894 2003 
Q 2506 1872 2764 1633 
Q 3022 1394 3022 966 
Q 3022 478 2636 193 
Q 2250 -91 1575 -91 
Q 1294 -91 989 -36 
Q 684 19 347 128 
L 347 722 
Q 666 556 975 473 
Q 1284 391 1588 391 
Q 1994 391 2212 530 
Q 2431 669 2431 922 
Q 2431 1156 2273 1281 
Q 2116 1406 1581 1522 
L 1381 1569 
Q 847 1681 609 1914 
Q 372 2147 372 2553 
Q 372 3047 722 3315 
Q 1072 3584 1716 3584 
Q 2034 3584 2315 3537 
Q 2597 3491 2834 3397 
z
" transform="scale(0.015625)"/>
       <path id="DejaVuSans-6f" d="M 1959 3097 
Q 1497 3097 1228 2736 
Q 959 2375 959 1747 
Q 959 1119 1226 758 
Q 1494 397 1959 397 
Q 2419 397 2687 759 
Q 2956 1122 2956 1747 
Q 2956 2369 2687 2733 
Q 2419 3097 1959 3097 
z
M 1959 3584 
Q 2709 3584 3137 3096 
Q 3566 2609 3566 1747 
Q 3566 888 3137 398 
Q 2709 -91 1959 -91 
Q 1206 -91 779 398 
Q 353 888 353 1747 
Q 353 2609 779 3096 
Q 1206 3584 1959 3584 
z
" transform="scale(0.015625)"/>
       <path id="DejaVuSans-6e" d="M 3513 2113 
L 3513 0 
L 2938 0 
L 2938 2094 
Q 2938 2591 2744 2837 
Q 2550 3084 2163 3084 
Q 1697 3084 1428 2787 
Q 1159 2491 1159 1978 
L 1159 0 
L 581 0 
L 581 3500 
L 1159 3500 
L 1159 2956 
Q 1366 3272 1645 3428 
Q 1925 3584 2291 3584 
Q 2894 3584 3203 3211 
Q 3513 2838 3513 2113 
z
" transform="scale(0.015625)"/>
      </defs>
      <use xlink:href="#DejaVuSans-50"/>
      <use xlink:href="#DejaVuSans-72" x="58.552734"/>
      <use xlink:href="#DejaVuSans-65" x="97.416016"/>
      <use xlink:href="#DejaVuSans-63" x="158.939453"/>
      <use xlink:href="#DejaVuSans-69" x="213.919922"/>
      <use xlink:href="#DejaVuSans-73" x="241.703125"/>
      <use xlink:href="#DejaVuSans-6f" x="293.802734"/>
      <use xlink:href="#DejaVuSans-6e" x="354.984375"/>
     </g>
    </g>
   </g>
   <g id="QuadContourSet_1">
    <path d="M 87.3375 217.086943 
L 94.552045 211.930611 
L 101.766591 207.031931 
L 112.588409 200.012566 
L 145.053864 180.207112 
L 148.964092 177.598125 
L 152.748682 174.910125 
L 156.264745 172.222125 
L 159.495005 169.534125 
L 163.090227 166.113439 
L 166.6975 162.167255 
L 167.284061 161.470125 
L 170.304773 157.328667 
L 171.104501 156.094125 
L 174.097549 150.718125 
L 176.386389 145.342125 
L 177.519318 142.509833 
L 180.245866 134.590125 
L 183.473499 126.526125 
L 186.282421 121.150125 
L 189.811962 115.774125 
L 194.066351 110.398125 
L 201.627345 102.334125 
L 206.3775 97.854161 
L 207.292406 96.958125 
L 216.543297 88.894125 
L 220.806591 85.419305 
L 226.595359 80.830125 
L 237.56329 72.766125 
L 246.0575 66.999832 
L 253.871514 62.014125 
L 260.486591 58.034839 
L 267.767202 53.950125 
L 274.915682 50.158894 
L 283.740309 45.886125 
L 289.750476 43.198125 
L 296.559318 40.370528 
L 303.773864 37.644346 
L 310.988409 35.203603 
L 320.439465 32.446125 
L 325.4175 31.161803 
L 332.632045 29.627704 
L 339.846591 28.371871 
L 347.061136 27.482372 
L 354.275682 26.941409 
L 361.490227 26.762325 
L 368.704773 26.994773 
L 375.919318 27.641378 
L 379.526591 28.137492 
L 383.133864 28.760677 
L 387.719684 29.758125 
L 390.348409 30.39634 
L 393.955682 31.41529 
L 397.562955 32.595007 
L 401.170227 33.914144 
L 404.7775 35.420605 
L 409.777652 37.822125 
L 411.992045 39.014188 
L 415.599318 41.180488 
L 419.206591 43.6661 
L 422.813864 46.580812 
L 424.960768 48.574125 
L 427.443556 51.262125 
L 430.028409 54.727989 
L 431.241419 56.638125 
L 432.63026 59.326125 
L 433.713608 62.014125 
L 434.557096 64.702125 
L 435.152989 67.390125 
L 435.52859 70.078125 
L 435.707342 72.766125 
L 435.709204 75.454125 
L 435.551004 78.142125 
L 435.246765 80.830125 
L 434.808009 83.518125 
L 433.567332 88.894125 
L 432.000568 94.270125 
L 430.028409 99.757895 
L 427.993403 105.022125 
L 417.871922 129.214125 
L 415.599318 135.775105 
L 414.429386 139.966125 
L 413.262014 145.342125 
L 412.473129 150.718125 
L 411.974387 156.094125 
L 411.524486 161.470125 
L 411.19426 164.158125 
L 410.729946 166.846125 
L 410.088613 169.534125 
L 409.235305 172.222125 
L 408.147099 174.910125 
L 406.810767 177.598125 
L 404.7775 180.891613 
L 403.319362 182.974125 
L 401.152732 185.662125 
L 397.562955 189.46648 
L 395.950134 191.038125 
L 392.902272 193.726125 
L 389.547173 196.414125 
L 385.87511 199.102125 
L 381.87518 201.790125 
L 375.919318 205.421355 
L 372.312045 207.459122 
L 365.0975 211.207198 
L 357.882955 214.628 
L 350.362815 217.918125 
L 339.846591 222.169883 
L 329.024773 226.260463 
L 307.381136 234.083673 
L 292.82758 239.422125 
L 278.522955 244.929107 
L 264.093864 250.758645 
L 231.628409 264.029169 
L 185.573456 282.430125 
M 87.3375 132.748606 
L 87.802095 131.902125 
L 90.944773 127.18055 
L 91.424574 126.526125 
L 94.552045 122.672032 
L 98.379443 118.462125 
L 101.766591 115.126756 
L 107.11646 110.398125 
L 110.441813 107.710125 
L 114.03917 105.022125 
L 117.985579 102.334125 
L 119.802955 101.146652 
L 123.410227 99.049363 
L 127.667711 96.958125 
L 130.624773 95.723608 
L 134.232045 94.564111 
L 137.839318 93.881954 
L 141.446591 93.810499 
L 145.053864 94.618203 
L 148.701955 96.958125 
L 150.663567 99.646125 
L 151.879838 102.334125 
L 152.530077 105.022125 
L 152.766239 107.710125 
L 152.658239 110.398125 
L 152.215665 113.086125 
L 151.451685 115.774125 
L 150.364985 118.462125 
L 148.661136 121.541809 
L 147.165589 123.838125 
L 145.04434 126.526125 
L 142.614776 129.214125 
L 139.83082 131.902125 
L 136.704272 134.590125 
L 133.221011 137.278125 
L 129.340533 139.966125 
L 124.991493 142.654125 
L 119.802955 145.473393 
L 114.130068 148.030125 
L 112.588409 148.654134 
L 108.981136 149.92238 
L 105.373864 150.974921 
L 101.766591 151.722568 
L 98.159318 152.16584 
L 94.552045 152.202025 
L 90.944773 151.653338 
L 88.492262 150.718125 
L 87.3375 150.040372 
L 87.3375 150.040372 
" clip-path="url(#pf533e18496)" style="fill: none; stroke: #fcfbfd; stroke-opacity: 0.8; stroke-width: 1.5"/>
    <path d="M 87.3375 229.306718 
L 94.552045 224.141035 
L 101.766591 219.30467 
L 108.981136 214.772406 
L 117.314814 209.854125 
L 123.410227 206.416493 
L 134.232045 200.625949 
L 152.83992 191.038125 
L 163.090227 185.439406 
L 167.267947 182.974125 
L 171.496114 180.286125 
L 175.37362 177.598125 
L 178.890925 174.910125 
L 182.056663 172.222125 
L 184.894784 169.534125 
L 188.341136 165.744495 
L 189.638209 164.158125 
L 191.948409 161.022375 
L 193.404835 158.782125 
L 195.555682 155.102774 
L 197.755632 150.718125 
L 200.138542 145.342125 
L 205.717132 131.902125 
L 209.577962 123.838125 
L 213.592045 116.834411 
L 214.227682 115.774125 
L 217.199318 111.380544 
L 217.869267 110.398125 
L 221.96563 105.022125 
L 226.548412 99.646125 
L 231.659832 94.270125 
L 237.212315 88.894125 
L 243.340485 83.518125 
L 250.046521 78.142125 
L 257.383499 72.766125 
L 264.093864 68.261332 
L 269.834551 64.702125 
L 274.915682 61.759382 
L 282.130227 57.88545 
L 289.344773 54.388864 
L 296.559318 51.24343 
L 303.773864 48.43059 
L 310.988409 45.965932 
L 318.202955 43.835278 
L 325.4175 42.064097 
L 332.632045 40.674553 
L 339.846591 39.639973 
L 347.061136 39.013975 
L 354.275682 38.814947 
L 357.882955 38.883544 
L 361.490227 39.070715 
L 365.0975 39.382753 
L 368.704773 39.827129 
L 372.805483 40.510125 
L 375.919318 41.130609 
L 379.526591 42.006116 
L 383.566723 43.198125 
L 386.741136 44.27468 
L 390.77541 45.886125 
L 393.955682 47.344189 
L 397.562955 49.252398 
L 401.170227 51.474445 
L 404.7775 54.104423 
L 408.384773 57.315526 
L 410.294379 59.326125 
L 412.434721 62.014125 
L 414.185719 64.702125 
L 415.599318 67.449232 
L 416.667222 70.078125 
L 417.47301 72.766125 
L 418.022715 75.454125 
L 418.343535 78.142125 
L 418.458962 80.830125 
L 418.389091 83.518125 
L 418.150906 86.206125 
L 417.758534 88.894125 
L 417.223487 91.582125 
L 416.554879 94.270125 
L 414.883362 99.646125 
L 412.832503 105.022125 
L 410.472236 110.398125 
L 407.841755 115.774125 
L 404.7775 121.601043 
L 401.170227 128.14264 
L 395.965876 137.278125 
L 386.660848 153.406125 
L 381.982877 161.470125 
L 378.653158 166.846125 
L 374.96664 172.222125 
L 372.312045 175.645311 
L 370.667521 177.598125 
L 368.187557 180.286125 
L 365.0975 183.288296 
L 361.490227 186.388661 
L 357.882955 189.135832 
L 354.275682 191.599829 
L 350.668409 193.833598 
L 346.049607 196.414125 
L 339.846591 199.495649 
L 332.632045 202.645014 
L 325.4175 205.440348 
L 318.202955 207.971072 
L 307.381136 211.439358 
L 282.130227 219.195574 
L 274.915682 221.626143 
L 267.701136 224.263463 
L 260.486591 227.151969 
L 253.272045 230.314685 
L 245.468627 234.046125 
L 238.842955 237.451033 
L 230.291615 242.110125 
L 220.771349 247.486125 
L 191.948409 264.008944 
L 177.519318 271.994419 
L 162.99214 279.742125 
L 157.827169 282.430125 
L 157.827169 282.430125 
" clip-path="url(#pf533e18496)" style="fill: none; stroke: #f1eff6; stroke-opacity: 0.8; stroke-width: 1.5"/>
    <path d="M 87.3375 239.287212 
L 94.552045 233.834255 
L 102.01691 228.670125 
L 108.981136 224.217515 
L 116.195682 219.940815 
L 124.80935 215.230125 
L 130.624773 212.234177 
L 137.839318 208.714825 
L 148.661136 203.737629 
L 170.947452 193.726125 
L 177.519318 190.472178 
L 181.490981 188.350125 
L 186.074963 185.662125 
L 190.157479 182.974125 
L 193.764283 180.286125 
L 196.934229 177.598125 
L 199.713972 174.910125 
L 202.770227 171.468127 
L 204.28711 169.534125 
L 206.3775 166.526568 
L 207.828633 164.158125 
L 209.984773 160.120024 
L 211.813622 156.094125 
L 213.92761 150.718125 
L 220.806591 131.461088 
L 222.890482 126.526125 
L 225.529494 121.150125 
L 228.586044 115.774125 
L 231.628409 111.100946 
L 232.095982 110.398125 
L 235.235682 106.149028 
L 236.092115 105.022125 
L 240.612324 99.646125 
L 245.706828 94.270125 
L 251.37488 88.894125 
L 256.879318 84.201721 
L 261.157159 80.830125 
L 267.701136 76.105708 
L 272.763423 72.766125 
L 278.522955 69.26469 
L 285.7375 65.306024 
L 292.473974 62.014125 
L 296.559318 60.180914 
L 303.773864 57.28524 
L 310.988409 54.791446 
L 318.202955 52.701637 
L 325.4175 51.031131 
L 329.024773 50.343077 
L 332.632045 49.76848 
L 336.239318 49.307089 
L 339.846591 48.959945 
L 343.453864 48.729353 
L 347.061136 48.618881 
L 350.668409 48.633376 
L 354.275682 48.779003 
L 357.882955 49.063305 
L 361.490227 49.495289 
L 365.0975 50.085548 
L 370.326431 51.262125 
L 372.312045 51.788645 
L 375.919318 52.93173 
L 379.526591 54.301902 
L 384.505774 56.638125 
L 386.741136 57.879348 
L 390.348409 60.216712 
L 393.955682 63.090874 
L 395.672854 64.702125 
L 398.085046 67.390125 
L 400.027078 70.078125 
L 401.567361 72.766125 
L 402.756688 75.454125 
L 403.631413 78.142125 
L 404.225544 80.830125 
L 404.568741 83.518125 
L 404.686703 86.206125 
L 404.601488 88.894125 
L 404.331792 91.582125 
L 403.893194 94.270125 
L 403.298369 96.958125 
L 402.557279 99.646125 
L 400.682022 105.022125 
L 398.369323 110.398125 
L 395.671759 115.774125 
L 392.633039 121.150125 
L 389.299977 126.526125 
L 385.705339 131.902125 
L 381.867539 137.278125 
L 377.788536 142.654125 
L 372.312045 149.391907 
L 368.704773 153.519313 
L 363.813491 158.782125 
L 361.128475 161.470125 
L 357.882955 164.560654 
L 354.275682 167.766988 
L 350.668409 170.729197 
L 347.061136 173.463824 
L 343.453864 175.986095 
L 339.846591 178.310019 
L 336.239318 180.448465 
L 331.608776 182.974125 
L 326.154954 185.662125 
L 321.810227 187.629499 
L 314.595682 190.561412 
L 305.854504 193.726125 
L 300.166591 195.653632 
L 271.308409 204.92492 
L 264.093864 207.47071 
L 256.879318 210.25419 
L 249.664773 213.348202 
L 242.450227 216.819751 
L 238.842955 218.715816 
L 231.628409 222.842465 
L 224.413864 227.392815 
L 214.721363 234.046125 
L 209.984773 237.404108 
L 195.555682 247.768796 
L 184.368766 255.550125 
L 173.912045 262.446552 
L 166.6975 266.985414 
L 158.904342 271.678125 
L 148.661136 277.49598 
L 139.367509 282.430125 
L 139.367509 282.430125 
" clip-path="url(#pf533e18496)" style="fill: none; stroke: #dfdfed; stroke-opacity: 0.8; stroke-width: 1.5"/>
    <path d="M 87.3375 249.445921 
L 90.944773 246.285604 
L 96.106589 242.110125 
L 101.766591 237.93153 
L 107.507281 234.046125 
L 112.588409 230.853354 
L 119.802955 226.696725 
L 127.0175 222.911865 
L 134.232045 219.469833 
L 141.446591 216.322135 
L 148.661136 213.435802 
L 158.515748 209.854125 
L 163.090227 208.300476 
L 173.912045 204.807598 
L 183.464791 201.790125 
L 191.948409 198.868811 
L 195.555682 197.493346 
L 199.162955 195.90935 
L 203.3942 193.726125 
L 207.56655 191.038125 
L 210.82213 188.350125 
L 213.592045 185.480193 
L 215.625267 182.974125 
L 217.439096 180.286125 
L 219.028815 177.598125 
L 220.806591 174.016504 
L 222.668946 169.534125 
L 224.479403 164.158125 
L 225.989409 158.782125 
L 228.021136 150.379743 
L 229.856941 142.654125 
L 231.628409 136.258196 
L 233.011744 131.902125 
L 235.06436 126.526125 
L 237.511231 121.150125 
L 240.435871 115.774125 
L 243.877427 110.398125 
L 247.875468 105.022125 
L 252.47724 99.646125 
L 256.879318 95.107318 
L 260.486591 91.70872 
L 263.707646 88.894125 
L 267.701136 85.659094 
L 271.308409 82.941695 
L 274.915682 80.402738 
L 278.522955 78.028274 
L 282.730189 75.454125 
L 287.505124 72.766125 
L 292.952045 69.972946 
L 298.618187 67.390125 
L 303.773864 65.277671 
L 310.988409 62.744038 
L 318.202955 60.678747 
L 324.282585 59.326125 
L 325.4175 59.092339 
L 329.024773 58.476915 
L 332.632045 57.989105 
L 336.239318 57.631157 
L 339.846591 57.406798 
L 343.453864 57.321275 
L 347.061136 57.381424 
L 350.668409 57.595769 
L 354.275682 57.974661 
L 357.882955 58.530466 
L 361.679632 59.326125 
L 365.0975 60.242873 
L 370.147871 62.014125 
L 372.312045 62.932777 
L 375.919318 64.747442 
L 380.062331 67.390125 
L 383.368272 70.078125 
L 385.97027 72.766125 
L 388.025086 75.454125 
L 389.622821 78.142125 
L 390.827594 80.830125 
L 391.687849 83.518125 
L 392.247274 86.206125 
L 392.537276 88.894125 
L 392.584878 91.582125 
L 392.413085 94.270125 
L 392.041184 96.958125 
L 391.485003 99.646125 
L 390.348409 103.563767 
L 389.875374 105.022125 
L 388.852741 107.710125 
L 386.741136 112.356558 
L 386.393472 113.086125 
L 384.988012 115.774125 
L 381.823473 121.150125 
L 378.233317 126.526125 
L 374.235643 131.902125 
L 369.827092 137.278125 
L 367.463615 139.966125 
L 362.39066 145.342125 
L 359.665737 148.030125 
L 356.795371 150.718125 
L 353.76608 153.406125 
L 350.559239 156.094125 
L 347.061136 158.852218 
L 343.453864 161.509808 
L 339.593338 164.158125 
L 335.359216 166.846125 
L 330.749821 169.534125 
L 329.024773 170.501265 
L 321.810227 174.142362 
L 314.595682 177.328894 
L 307.003643 180.286125 
L 300.166591 182.684028 
L 289.344773 186.057653 
L 278.522955 189.08626 
L 260.486591 193.783068 
L 249.664773 196.678398 
L 241.509722 199.102125 
L 238.842955 199.978418 
L 233.928595 201.790125 
L 231.628409 202.72803 
L 227.928722 204.478125 
L 223.085342 207.166125 
L 220.806591 208.61674 
L 217.199318 211.267444 
L 212.565266 215.230125 
L 209.658944 217.918125 
L 199.162955 228.123999 
L 198.633321 228.670125 
L 191.948409 235.025691 
L 187.181207 239.422125 
L 180.997439 244.798125 
L 173.912045 250.562319 
L 167.382349 255.550125 
L 159.482955 261.149792 
L 151.642851 266.302125 
L 145.053864 270.316908 
L 137.839318 274.42745 
L 130.624773 278.195107 
L 123.410227 281.638387 
L 121.627935 282.430125 
L 121.627935 282.430125 
" clip-path="url(#pf533e18496)" style="fill: none; stroke: #c6c7e1; stroke-opacity: 0.8; stroke-width: 1.5"/>
    <path d="M 87.3375 265.041204 
L 88.090516 263.614125 
L 89.855017 260.926125 
L 90.944773 259.498146 
L 91.928962 258.238125 
L 94.273487 255.550125 
L 94.552045 255.263955 
L 96.950473 252.862125 
L 98.159318 251.734707 
L 99.882129 250.174125 
L 101.766591 248.571612 
L 103.085274 247.486125 
L 105.373864 245.704461 
L 106.580283 244.798125 
L 108.981136 243.080527 
L 110.390584 242.110125 
L 112.588409 240.659791 
L 114.541826 239.422125 
L 116.195682 238.411638 
L 119.060591 236.734125 
L 119.802955 236.31251 
L 123.410227 234.372943 
L 124.057127 234.046125 
L 127.0175 232.59177 
L 129.649576 231.358125 
L 130.624773 230.911127 
L 134.232045 229.383991 
L 136.041509 228.670125 
L 137.839318 227.974792 
L 141.446591 226.699391 
L 143.673743 225.982125 
L 145.053864 225.545389 
L 148.661136 224.563699 
L 152.268409 223.697826 
L 154.405811 223.294125 
L 155.875682 223.022017 
L 159.482955 222.596927 
L 163.090227 222.450799 
L 166.6975 222.733916 
L 168.878829 223.294125 
L 170.304773 223.9963 
L 172.25278 225.982125 
L 172.793958 228.670125 
L 172.259288 231.358125 
L 171.123096 234.046125 
L 170.304773 235.400319 
L 169.534082 236.734125 
L 167.605271 239.422125 
L 166.6975 240.500844 
L 165.385982 242.110125 
L 163.090227 244.631983 
L 162.942801 244.798125 
L 160.232709 247.486125 
L 159.482955 248.165909 
L 157.304036 250.174125 
L 155.875682 251.388861 
L 154.161838 252.862125 
L 152.268409 254.371881 
L 150.798274 255.550125 
L 148.661136 257.147336 
L 147.200854 258.238125 
L 145.053864 259.741622 
L 143.351901 260.926125 
L 141.446591 262.175922 
L 139.227784 263.614125 
L 137.839318 264.466908 
L 134.797873 266.302125 
L 134.232045 266.627363 
L 130.624773 268.633659 
L 129.958019 268.990125 
L 127.0175 270.490612 
L 124.602179 271.678125 
L 123.410227 272.240684 
L 119.802955 273.838447 
L 118.515416 274.366125 
L 116.195682 275.281057 
L 112.588409 276.583221 
L 111.093004 277.054125 
L 108.981136 277.695777 
L 105.373864 278.600959 
L 101.766591 279.299905 
L 98.159318 279.713925 
L 94.552045 279.704679 
L 90.944773 279.016522 
L 87.3375 277.13622 
M 242.126168 164.158125 
L 241.7446 161.470125 
L 241.518687 158.782125 
L 241.413262 156.094125 
L 241.407096 153.406125 
L 241.488272 150.718125 
L 241.651285 148.030125 
L 241.895144 145.342125 
L 242.222074 142.654125 
L 242.450227 141.19222 
L 242.637203 139.966125 
L 243.144673 137.278125 
L 243.749566 134.590125 
L 244.459388 131.902125 
L 245.282223 129.214125 
L 246.0575 127.011585 
L 246.225687 126.526125 
L 247.291237 123.838125 
L 248.489691 121.150125 
L 249.664773 118.794809 
L 249.829193 118.462125 
L 251.307394 115.774125 
L 252.939188 113.086125 
L 253.272045 112.585868 
L 254.724154 110.398125 
L 256.673369 107.710125 
L 256.879318 107.447616 
L 258.789778 105.022125 
L 260.486591 103.030307 
L 261.085373 102.334125 
L 263.566063 99.646125 
L 264.093864 99.110012 
L 266.247279 96.958125 
L 267.701136 95.592774 
L 269.141204 94.270125 
L 271.308409 92.389082 
L 272.264825 91.582125 
L 274.915682 89.456695 
L 275.641987 88.894125 
L 278.522955 86.761681 
L 279.3049 86.206125 
L 282.130227 84.277157 
L 283.296133 83.518125 
L 285.7375 81.982255 
L 287.671271 80.830125 
L 289.344773 79.861267 
L 292.502492 78.142125 
L 292.952045 77.902979 
L 296.559318 76.103921 
L 297.963872 75.454125 
L 300.166591 74.451692 
L 303.773864 72.942645 
L 304.235756 72.766125 
L 307.381136 71.575562 
L 310.988409 70.345619 
L 311.869905 70.078125 
L 314.595682 69.253178 
L 318.202955 68.298466 
L 321.810227 67.480713 
L 322.295669 67.390125 
L 325.4175 66.804229 
L 329.024773 66.271806 
L 332.632045 65.887218 
L 336.239318 65.656288 
L 339.846591 65.586782 
L 343.453864 65.688576 
L 347.061136 65.973867 
L 350.668409 66.457469 
L 354.275682 67.157193 
L 355.200332 67.390125 
L 357.882955 68.115115 
L 361.490227 69.357146 
L 363.209551 70.078125 
L 365.0975 70.952415 
L 368.362176 72.766125 
L 368.704773 72.98195 
L 372.08558 75.454125 
L 372.312045 75.648303 
L 374.883997 78.142125 
L 375.919318 79.373179 
L 377.026714 80.830125 
L 378.637971 83.518125 
L 379.526591 85.512046 
L 379.813489 86.206125 
L 380.602041 88.894125 
L 381.067925 91.582125 
L 381.245382 94.270125 
L 381.163555 96.958125 
L 380.846947 99.646125 
L 380.315796 102.334125 
L 379.586366 105.022125 
L 379.526591 105.195789 
L 378.671021 107.710125 
L 377.585472 110.398125 
L 376.337397 113.086125 
L 375.919318 113.885352 
L 374.933714 115.774125 
L 373.383236 118.462125 
L 372.312045 120.162918 
L 371.687218 121.150125 
L 369.852524 123.838125 
L 368.704773 125.407731 
L 367.876817 126.526125 
L 365.76369 129.214125 
L 365.0975 130.019066 
L 363.507892 131.902125 
L 361.490227 134.171137 
L 361.108032 134.590125 
L 358.557827 137.278125 
L 357.882955 137.963863 
L 355.846382 139.966125 
L 354.275682 141.456919 
L 352.96461 142.654125 
L 350.668409 144.689065 
L 349.898132 145.342125 
L 347.061136 147.688557 
L 346.627035 148.030125 
L 343.453864 150.478132 
L 343.125069 150.718125 
L 339.846591 153.075951 
L 339.358768 153.406125 
L 336.239318 155.496369 
L 335.286564 156.094125 
L 332.632045 157.750574 
L 330.858031 158.782125 
L 329.024773 159.847126 
L 326.013488 161.470125 
L 325.4175 161.792431 
L 321.810227 163.609698 
L 320.633915 164.158125 
L 318.202955 165.302153 
L 314.632456 166.846125 
L 314.595682 166.862241 
L 310.988409 168.330686 
L 307.759219 169.534125 
L 307.381136 169.677751 
L 303.773864 170.94035 
L 300.166591 172.095596 
L 299.733005 172.222125 
L 296.559318 173.173559 
L 292.952045 174.157524 
L 289.911047 174.910125 
L 289.344773 175.054915 
L 285.7375 175.872494 
L 282.130227 176.599126 
L 278.522955 177.234424 
L 276.050121 177.598125 
L 274.915682 177.772523 
L 271.308409 178.197916 
L 267.701136 178.493743 
L 264.093864 178.632713 
L 260.486591 178.570871 
L 256.879318 178.236852 
L 253.656623 177.598125 
L 253.272045 177.505138 
L 249.664773 176.061824 
L 247.886106 174.910125 
L 246.0575 173.254094 
L 245.23483 172.222125 
L 243.717762 169.534125 
L 242.739233 166.846125 
L 242.450227 165.689603 
L 242.126168 164.158125 
z
" clip-path="url(#pf533e18496)" style="fill: none; stroke: #acaad1; stroke-opacity: 0.8; stroke-width: 1.5"/>
    <path d="M 256.153069 150.718125 
L 255.514406 148.030125 
L 255.11177 145.342125 
L 254.912046 142.654125 
L 254.893569 139.966125 
L 255.042636 137.278125 
L 255.351174 134.590125 
L 255.815136 131.902125 
L 256.433411 129.214125 
L 256.879318 127.677706 
L 257.212734 126.526125 
L 258.156412 123.838125 
L 259.258385 121.150125 
L 260.486591 118.540754 
L 260.523772 118.462125 
L 261.975232 115.774125 
L 263.595604 113.086125 
L 264.093864 112.342231 
L 265.411676 110.398125 
L 267.413607 107.710125 
L 267.701136 107.356448 
L 269.634906 105.022125 
L 271.308409 103.157998 
L 272.06686 102.334125 
L 274.731557 99.646125 
L 274.915682 99.472386 
L 277.667791 96.958125 
L 278.522955 96.223593 
L 280.887818 94.270125 
L 282.130227 93.299371 
L 284.431622 91.582125 
L 285.7375 90.654842 
L 288.35301 88.894125 
L 289.344773 88.254946 
L 292.723779 86.206125 
L 292.952045 86.072823 
L 296.559318 84.104945 
L 297.722324 83.518125 
L 300.166591 82.322289 
L 303.496262 80.830125 
L 303.773864 80.708772 
L 307.381136 79.28165 
L 310.603059 78.142125 
L 310.988409 78.008252 
L 314.595682 76.912876 
L 318.202955 75.973113 
L 320.613187 75.454125 
L 321.810227 75.198892 
L 325.4175 74.600803 
L 329.024773 74.174458 
L 332.632045 73.929101 
L 336.239318 73.876716 
L 339.846591 74.032388 
L 343.453864 74.414767 
L 347.061136 75.046691 
L 348.716351 75.454125 
L 350.668409 75.983135 
L 354.275682 77.278049 
L 356.178816 78.142125 
L 357.882955 79.026689 
L 360.723028 80.830125 
L 361.490227 81.408167 
L 363.871656 83.518125 
L 365.0975 84.874297 
L 366.152889 86.206125 
L 367.785991 88.894125 
L 368.704773 91.031053 
L 368.919458 91.582125 
L 369.607748 94.270125 
L 369.942298 96.958125 
L 369.962547 99.646125 
L 369.701526 102.334125 
L 369.186523 105.022125 
L 368.704773 106.742316 
L 368.433122 107.710125 
L 367.452696 110.398125 
L 366.274304 113.086125 
L 365.0975 115.39938 
L 364.904788 115.774125 
L 363.332483 118.462125 
L 361.592336 121.150125 
L 361.490227 121.2942 
L 359.651952 123.838125 
L 357.882955 126.103399 
L 357.544318 126.526125 
L 355.240449 129.214125 
L 354.275682 130.274474 
L 352.745435 131.902125 
L 350.668409 133.996842 
L 350.056853 134.590125 
L 347.155654 137.278125 
L 347.061136 137.36249 
L 344.007232 139.966125 
L 343.453864 140.422225 
L 340.602115 142.654125 
L 339.846591 143.229179 
L 336.90599 145.342125 
L 336.239318 145.810681 
L 332.875169 148.030125 
L 332.632045 148.187893 
L 329.024773 150.37733 
L 328.420496 150.718125 
L 325.4175 152.395064 
L 323.456978 153.406125 
L 321.810227 154.251562 
L 318.202955 155.954045 
L 317.878302 156.094125 
L 314.595682 157.513767 
L 311.37048 158.782125 
L 310.988409 158.933502 
L 307.381136 160.218998 
L 303.773864 161.372483 
L 303.423846 161.470125 
L 300.166591 162.393904 
L 296.559318 163.281153 
L 292.952045 164.032831 
L 292.184134 164.158125 
L 289.344773 164.634002 
L 285.7375 165.072628 
L 282.130227 165.32921 
L 278.522955 165.371294 
L 274.915682 165.149873 
L 271.308409 164.591423 
L 269.662851 164.158125 
L 267.701136 163.550682 
L 264.093864 161.804231 
L 263.594849 161.470125 
L 260.486591 158.821264 
L 260.451301 158.782125 
L 258.493194 156.094125 
L 257.092802 153.406125 
L 256.879318 152.862547 
L 256.153069 150.718125 
z
" clip-path="url(#pf533e18496)" style="fill: none; stroke: #908dc2; stroke-opacity: 0.8; stroke-width: 1.5"/>
    <path d="M 271.153795 145.342125 
L 269.739811 142.654125 
L 268.798123 139.966125 
L 268.240311 137.278125 
L 268.005709 134.590125 
L 268.052334 131.902125 
L 268.351092 129.214125 
L 268.881986 126.526125 
L 269.631589 123.838125 
L 270.591349 121.150125 
L 271.308409 119.509632 
L 271.776666 118.462125 
L 273.199224 115.774125 
L 274.822737 113.086125 
L 274.915682 112.950969 
L 276.724785 110.398125 
L 278.522955 108.108286 
L 278.847568 107.710125 
L 281.267594 105.022125 
L 282.130227 104.143238 
L 283.988153 102.334125 
L 285.7375 100.757584 
L 287.038492 99.646125 
L 289.344773 97.809225 
L 290.481864 96.958125 
L 292.952045 95.221954 
L 294.406633 94.270125 
L 296.559318 92.93798 
L 298.936604 91.582125 
L 300.166591 90.914085 
L 303.773864 89.131173 
L 304.310726 88.894125 
L 307.381136 87.594082 
L 310.988409 86.244332 
L 311.108726 86.206125 
L 314.595682 85.136715 
L 318.202955 84.219559 
L 321.72907 83.518125 
L 321.810227 83.502419 
L 325.4175 83.026228 
L 329.024773 82.773039 
L 332.632045 82.76291 
L 336.239318 83.021192 
L 339.464295 83.518125 
L 339.846591 83.584633 
L 343.453864 84.562016 
L 347.061136 85.979182 
L 347.509017 86.206125 
L 350.668409 88.135395 
L 351.657592 88.894125 
L 354.275682 91.464906 
L 354.375501 91.582125 
L 356.113198 94.270125 
L 357.253692 96.958125 
L 357.882955 99.637325 
L 357.884784 99.646125 
L 358.066749 102.334125 
L 357.894018 105.022125 
L 357.882955 105.081202 
L 357.380337 107.710125 
L 356.574641 110.398125 
L 355.508331 113.086125 
L 354.275682 115.625084 
L 354.201239 115.774125 
L 352.605333 118.462125 
L 350.807274 121.150125 
L 350.668409 121.335437 
L 348.724287 123.838125 
L 347.061136 125.802966 
L 346.42217 126.526125 
L 343.856711 129.214125 
L 343.453864 129.60894 
L 340.994354 131.902125 
L 339.846591 132.914548 
L 337.836104 134.590125 
L 336.239318 135.859315 
L 334.336901 137.278125 
L 332.632045 138.500069 
L 330.436801 139.966125 
L 329.024773 140.879054 
L 326.057519 142.654125 
L 325.4175 143.027399 
L 321.810227 144.955237 
L 321.011886 145.342125 
L 318.202955 146.679479 
L 315.059035 148.030125 
L 314.595682 148.227017 
L 310.988409 149.57344 
L 307.494355 150.718125 
L 307.381136 150.75511 
L 303.773864 151.729929 
L 300.166591 152.520464 
L 296.559318 153.109452 
L 293.553204 153.406125 
L 292.952045 153.466074 
L 289.344773 153.549135 
L 287.053458 153.406125 
L 285.7375 153.312366 
L 282.130227 152.645213 
L 278.522955 151.424284 
L 277.13278 150.718125 
L 274.915682 149.313933 
L 273.435499 148.030125 
L 271.308409 145.56657 
L 271.153795 145.342125 
z
" clip-path="url(#pf533e18496)" style="fill: none; stroke: #796eb2; stroke-opacity: 0.8; stroke-width: 1.5"/>
    <path d="M 285.01458 134.590125 
L 283.750354 131.902125 
L 283.129741 129.214125 
L 283.023767 126.526125 
L 283.344831 123.838125 
L 284.032496 121.150125 
L 285.044763 118.462125 
L 285.7375 117.064023 
L 286.415261 115.774125 
L 288.142543 113.086125 
L 289.344773 111.484556 
L 290.217719 110.398125 
L 292.677555 107.710125 
L 292.952045 107.443911 
L 295.650713 105.022125 
L 296.559318 104.281628 
L 299.174906 102.334125 
L 300.166591 101.656725 
L 303.43532 99.646125 
L 303.773864 99.45324 
L 307.381136 97.657523 
L 309.020821 96.958125 
L 310.988409 96.175143 
L 314.595682 95.003275 
L 317.549967 94.270125 
L 318.202955 94.117804 
L 321.810227 93.587518 
L 325.4175 93.381611 
L 329.024773 93.550663 
L 332.632045 94.161514 
L 332.997234 94.270125 
L 336.239318 95.484082 
L 338.773398 96.958125 
L 339.846591 97.819242 
L 341.530956 99.646125 
L 343.07038 102.334125 
L 343.453864 103.684546 
L 343.763185 105.022125 
L 343.846417 107.710125 
L 343.46102 110.398125 
L 343.453864 110.421574 
L 342.592712 113.086125 
L 341.359027 115.774125 
L 339.846591 118.401567 
L 339.809387 118.462125 
L 337.800947 121.150125 
L 336.239318 122.99667 
L 335.474158 123.838125 
L 332.75516 126.526125 
L 332.632045 126.636715 
L 329.525486 129.214125 
L 329.024773 129.600673 
L 325.763903 131.902125 
L 325.4175 132.132218 
L 321.810227 134.285553 
L 321.231543 134.590125 
L 318.202955 136.104388 
L 315.511718 137.278125 
L 314.595682 137.661628 
L 310.988409 138.90182 
L 307.381136 139.892912 
L 306.979056 139.966125 
L 303.773864 140.53193 
L 300.166591 140.832931 
L 296.559318 140.726581 
L 292.952045 140.101874 
L 292.540641 139.966125 
L 289.344773 138.600792 
L 287.441625 137.278125 
L 285.7375 135.577757 
L 285.01458 134.590125 
z
" clip-path="url(#pf533e18496)" style="fill: none; stroke: #65479e; stroke-opacity: 0.8; stroke-width: 1.5"/>
    <path clip-path="url(#pf533e18496)" style="fill: none; stroke: #51228d; stroke-opacity: 0.8; stroke-width: 1.5"/>
    <path clip-path="url(#pf533e18496)" style="fill: none; stroke: #3f007d; stroke-opacity: 0.8; stroke-width: 1.5"/>
   </g>
   <g id="QuadContourSet_2">
    <path d="M 87.3375 211.609693 
L 94.552045 206.475251 
L 101.766591 201.699211 
L 108.981136 197.23426 
L 116.195682 193.079412 
L 125.107434 188.350125 
L 130.624773 185.617511 
L 137.839318 182.267152 
L 145.053864 179.169234 
L 152.268409 176.305974 
L 159.482955 173.659767 
L 170.304773 170.055856 
L 184.733864 165.751103 
L 202.770227 160.608315 
L 209.984773 158.354266 
L 217.199318 155.790875 
L 222.943218 153.406125 
L 224.413864 152.730641 
L 228.457879 150.718125 
L 233.109329 148.030125 
L 237.095737 145.342125 
L 240.53869 142.654125 
L 243.539376 139.966125 
L 246.180885 137.278125 
L 249.664773 133.068875 
L 250.521062 131.902125 
L 253.272045 127.671067 
L 253.933158 126.526125 
L 255.347707 123.838125 
L 256.879318 120.568894 
L 258.743576 115.774125 
L 260.486591 110.369189 
L 261.872267 105.022125 
L 263.670526 96.958125 
L 267.738927 78.142125 
L 269.142617 72.766125 
L 270.816241 67.390125 
L 272.739982 62.014125 
L 275.051237 56.638125 
L 276.30933 53.950125 
L 279.231855 48.574125 
L 282.130227 43.993602 
L 282.647357 43.198125 
L 285.7375 38.97375 
L 286.607309 37.822125 
L 291.177035 32.446125 
L 296.559318 26.959073 
L 300.166591 23.601086 
L 303.773864 20.464013 
L 307.381136 17.508551 
L 308.863994 16.318125 
M 444.4575 174.06679 
L 440.012752 177.598125 
L 432.791485 182.974125 
L 426.421136 187.379211 
L 419.206591 192.003812 
L 411.721648 196.414125 
L 404.7775 200.191155 
L 397.562955 203.78243 
L 390.071884 207.166125 
L 383.133864 210.008728 
L 375.919318 212.656054 
L 368.704773 214.998519 
L 361.490227 217.04247 
L 354.275682 218.789691 
L 347.061136 220.254236 
L 339.846591 221.465991 
L 332.632045 222.450109 
L 321.810227 223.610268 
L 297.511782 225.982125 
L 292.952045 226.576386 
L 285.7375 227.723793 
L 278.522955 229.17548 
L 271.308409 230.979443 
L 264.093864 233.16704 
L 256.879318 235.748517 
L 249.664773 238.714136 
L 242.299996 242.110125 
L 235.235682 245.663946 
L 226.908468 250.174125 
L 217.470995 255.550125 
L 212.893017 258.238125 
L 176.283557 279.742125 
L 171.470345 282.430125 
L 171.470345 282.430125 
" clip-path="url(#pf533e18496)" style="fill: none; stroke: #f7fcf5; stroke-opacity: 0.8; stroke-width: 1.5"/>
    <path d="M 87.3375 231.91919 
L 91.059436 228.670125 
L 94.552045 225.804205 
L 101.403219 220.606125 
L 105.373864 217.8204 
L 112.588409 213.146602 
L 118.153932 209.854125 
L 123.410227 206.956332 
L 130.624773 203.33542 
L 137.839318 200.088531 
L 145.053864 197.202231 
L 152.268409 194.665924 
L 159.482955 192.469529 
L 166.6975 190.600933 
L 173.912045 189.054534 
L 181.126591 187.806238 
L 188.341136 186.841191 
L 195.555682 186.112526 
L 202.770227 185.578219 
L 228.021136 184.150106 
L 231.628409 183.765141 
L 236.617154 182.974125 
L 238.842955 182.555889 
L 242.450227 181.657799 
L 246.304368 180.286125 
L 249.664773 178.837435 
L 253.272045 176.787433 
L 256.879318 174.246236 
L 260.486591 171.193464 
L 264.740099 166.846125 
L 267.701136 163.420125 
L 271.308409 158.64112 
L 274.915682 153.176207 
L 277.865879 148.030125 
L 279.254821 145.342125 
L 281.73058 139.966125 
L 282.8212 137.278125 
L 284.724364 131.902125 
L 286.282477 126.526125 
L 287.522198 121.150125 
L 288.503101 115.774125 
L 289.344773 109.95298 
L 291.975589 88.894125 
L 292.952045 83.474828 
L 294.137529 78.142125 
L 295.641732 72.766125 
L 297.487584 67.390125 
L 299.719429 62.014125 
L 302.35484 56.638125 
L 305.448768 51.262125 
L 309.026125 45.886125 
L 313.117758 40.510125 
L 317.763221 35.134125 
L 322.965909 29.758125 
L 328.791478 24.382125 
L 332.632045 21.120629 
L 338.714953 16.318125 
M 444.4575 148.83145 
L 439.811493 153.406125 
L 433.853622 158.782125 
L 430.028409 161.970763 
L 423.702676 166.846125 
L 419.206591 170.043967 
L 415.599318 172.453424 
L 408.384773 176.882841 
L 402.202434 180.286125 
L 397.562955 182.633307 
L 390.348409 185.904145 
L 383.133864 188.743542 
L 375.919318 191.166392 
L 368.704773 193.180649 
L 361.490227 194.80344 
L 354.275682 196.055821 
L 347.061136 196.96096 
L 339.846591 197.55776 
L 332.632045 197.897729 
L 325.4175 198.037683 
L 314.595682 198.008789 
L 292.952045 197.847069 
L 285.7375 197.989491 
L 278.522955 198.377058 
L 271.964679 199.102125 
L 271.308409 199.184844 
L 267.701136 199.767176 
L 264.093864 200.564104 
L 260.166697 201.790125 
L 256.879318 202.961862 
L 253.272045 204.66359 
L 248.813302 207.166125 
L 246.0575 208.841382 
L 235.235682 216.803737 
L 230.553101 220.606125 
L 223.93781 225.982125 
L 209.984773 237.18037 
L 202.770227 242.760188 
L 195.555682 248.145038 
L 188.341136 253.314326 
L 181.126591 258.256289 
L 172.865096 263.614125 
L 164.026525 268.990125 
L 159.360522 271.678125 
L 152.268409 275.550581 
L 144.00202 279.742125 
L 138.292557 282.430125 
L 138.292557 282.430125 
" clip-path="url(#pf533e18496)" style="fill: none; stroke: #e7f6e3; stroke-opacity: 0.8; stroke-width: 1.5"/>
    <path d="M 444.4575 113.697094 
L 443.386487 115.774125 
L 441.898153 118.462125 
L 440.850227 120.232402 
L 440.291058 121.150125 
L 438.545175 123.838125 
L 437.242955 125.734151 
L 436.681266 126.526125 
L 434.667531 129.214125 
L 433.635682 130.525358 
L 432.513419 131.902125 
L 430.223086 134.590125 
L 430.028409 134.808351 
L 427.739342 137.278125 
L 426.421136 138.647217 
L 425.096584 139.966125 
L 422.813864 142.159764 
L 422.275122 142.654125 
L 419.246856 145.342125 
L 419.206591 145.376697 
L 415.961373 148.030125 
L 415.599318 148.317791 
L 412.4142 150.718125 
L 411.992045 151.027975 
L 408.561971 153.406125 
L 408.384773 153.526044 
L 404.7775 155.817886 
L 404.311883 156.094125 
L 401.170227 157.91795 
L 399.570179 158.782125 
L 397.562955 159.845129 
L 394.249364 161.470125 
L 393.955682 161.611632 
L 390.348409 163.194875 
L 387.941763 164.158125 
L 386.741136 164.631297 
L 383.133864 165.903078 
L 380.132379 166.846125 
L 379.526591 167.033908 
L 375.919318 167.997179 
L 372.312045 168.822745 
L 368.704773 169.507877 
L 368.525354 169.534125 
L 365.0975 170.029676 
L 361.490227 170.408014 
L 357.882955 170.640904 
L 354.275682 170.724643 
L 350.668409 170.654288 
L 347.061136 170.422948 
L 343.453864 170.02082 
L 340.440943 169.534125 
L 339.846591 169.427691 
L 336.239318 168.582255 
L 332.632045 167.476234 
L 330.97084 166.846125 
L 329.024773 165.987663 
L 325.692243 164.158125 
L 325.4175 163.976239 
L 322.274667 161.470125 
L 321.810227 161.000505 
L 319.942372 158.782125 
L 318.280863 156.094125 
L 318.202955 155.92903 
L 317.158107 153.406125 
L 316.37724 150.718125 
L 315.849876 148.030125 
L 315.510998 145.342125 
L 315.309826 142.654125 
L 315.206366 139.966125 
L 315.168926 137.278125 
L 315.172341 134.590125 
L 315.196699 131.902125 
L 315.226442 129.214125 
L 315.249738 126.526125 
L 315.258057 123.838125 
L 315.245875 121.150125 
L 315.210462 118.462125 
L 315.151707 115.774125 
L 315.071942 113.086125 
L 314.975739 110.398125 
L 314.869647 107.710125 
L 314.761881 105.022125 
L 314.661954 102.334125 
L 314.595682 100.161825 
L 314.580562 99.646125 
L 314.528907 96.958125 
L 314.516509 94.270125 
L 314.55404 91.582125 
L 314.595682 90.447815 
L 314.652465 88.894125 
L 314.82168 86.206125 
L 315.069548 83.518125 
L 315.403698 80.830125 
L 315.830984 78.142125 
L 316.35764 75.454125 
L 316.989483 72.766125 
L 317.732159 70.078125 
L 318.202955 68.610472 
L 318.591458 67.390125 
L 319.569369 64.702125 
L 320.669854 62.014125 
L 321.810227 59.52115 
L 321.898955 59.326125 
L 323.256122 56.638125 
L 324.747918 53.950125 
L 325.4175 52.847361 
L 326.377247 51.262125 
L 328.146102 48.574125 
L 329.024773 47.340348 
L 330.060496 45.886125 
L 332.122526 43.198125 
L 332.632045 42.578006 
L 334.336382 40.510125 
L 336.239318 38.351755 
L 336.709158 37.822125 
L 339.241847 35.134125 
L 339.846591 34.528053 
L 341.943338 32.446125 
L 343.453864 31.02643 
L 344.820122 29.758125 
L 347.061136 27.78049 
L 347.878678 27.070125 
L 350.668409 24.756123 
L 351.12778 24.382125 
L 354.275682 21.925522 
L 354.578732 21.694125 
L 357.882955 19.266074 
L 358.245666 19.006125 
L 361.490227 16.759488 
L 362.145895 16.318125 
M 93.567989 266.302125 
L 92.784007 263.614125 
L 92.719422 260.926125 
L 93.182118 258.238125 
L 94.047873 255.550125 
L 94.552045 254.451924 
L 95.301902 252.862125 
L 96.873085 250.174125 
L 98.159318 248.275216 
L 98.709764 247.486125 
L 100.848641 244.798125 
L 101.766591 243.754299 
L 103.259293 242.110125 
L 105.373864 239.95469 
L 105.915339 239.422125 
L 108.855158 236.734125 
L 108.981136 236.626641 
L 112.122996 234.046125 
L 112.588409 233.684043 
L 115.705557 231.358125 
L 116.195682 231.009938 
L 119.64233 228.670125 
L 119.802955 228.565802 
L 123.410227 226.353332 
L 124.051249 225.982125 
L 127.0175 224.335558 
L 129.006995 223.294125 
L 130.624773 222.478453 
L 134.232045 220.778214 
L 134.634021 220.606125 
L 137.839318 219.281883 
L 141.391016 217.918125 
L 141.446591 217.897435 
L 145.053864 216.732708 
L 148.661136 215.693008 
L 150.576227 215.230125 
L 152.268409 214.834062 
L 155.875682 214.175868 
L 159.482955 213.701554 
L 163.090227 213.443755 
L 166.6975 213.44846 
L 170.304773 213.781526 
L 173.912045 214.539768 
L 175.898929 215.230125 
L 177.519318 216.054615 
L 179.969862 217.918125 
L 181.126591 219.607797 
L 181.64863 220.606125 
L 182.094541 223.294125 
L 181.776541 225.982125 
L 181.126591 227.923225 
L 180.88293 228.670125 
L 179.501284 231.358125 
L 177.780951 234.046125 
L 177.519318 234.37785 
L 175.689269 236.734125 
L 173.912045 238.756565 
L 173.332594 239.422125 
L 170.693936 242.110125 
L 170.304773 242.467582 
L 167.774097 244.798125 
L 166.6975 245.71221 
L 164.602506 247.486125 
L 163.090227 248.675695 
L 161.170149 250.174125 
L 159.482955 251.405796 
L 157.461842 252.862125 
L 155.875682 253.938084 
L 153.455863 255.550125 
L 152.268409 256.299263 
L 149.123279 258.238125 
L 148.661136 258.509423 
L 145.053864 260.549695 
L 144.359966 260.926125 
L 141.446591 262.434956 
L 139.076147 263.614125 
L 137.839318 264.204652 
L 134.232045 265.824858 
L 133.085452 266.302125 
L 130.624773 267.287919 
L 127.0175 268.624272 
L 125.899292 268.990125 
L 123.410227 269.77613 
L 119.802955 270.761813 
L 116.195682 271.585024 
L 115.611951 271.678125 
L 112.588409 272.143522 
L 108.981136 272.441505 
L 105.373864 272.414236 
L 101.766591 271.951145 
L 100.758777 271.678125 
L 98.159318 270.69931 
L 95.577578 268.990125 
L 94.552045 267.85284 
L 93.567989 266.302125 
z
" clip-path="url(#pf533e18496)" style="fill: none; stroke: #ceecc8; stroke-opacity: 0.8; stroke-width: 1.5"/>
    <path d="M 436.524163 16.318125 
L 437.242955 17.551366 
L 437.939626 19.006125 
L 438.797543 21.694125 
L 439.291626 24.382125 
L 439.501788 27.070125 
L 439.487548 29.758125 
L 439.293936 32.446125 
L 438.955532 35.134125 
L 437.946521 40.510125 
L 436.594406 45.886125 
L 434.166804 53.950125 
L 431.463469 62.014125 
L 425.847432 78.142125 
L 421.974837 88.894125 
L 419.206591 95.909678 
L 417.512087 99.646125 
L 415.599318 103.552182 
L 413.209143 107.710125 
L 411.491621 110.398125 
L 408.384773 114.586733 
L 404.7775 118.633646 
L 401.170227 121.958212 
L 397.562955 124.73215 
L 393.955682 127.03284 
L 389.603728 129.214125 
L 386.741136 130.362712 
L 383.133864 131.462117 
L 379.526591 132.175087 
L 375.919318 132.483799 
L 372.312045 132.375415 
L 368.704773 131.793058 
L 365.0975 130.616081 
L 361.490227 128.756279 
L 357.882955 125.972719 
L 354.275682 121.998127 
L 351.865839 118.462125 
L 350.234131 115.774125 
L 347.061136 109.630722 
L 343.948478 102.334125 
L 342.936054 99.646125 
L 341.190666 94.270125 
L 339.811931 88.894125 
L 339.33352 86.206125 
L 338.980139 83.518125 
L 338.762472 80.830125 
L 338.688925 78.142125 
L 338.765644 75.454125 
L 338.996754 72.766125 
L 339.384734 70.078125 
L 339.935191 67.390125 
L 340.672782 64.702125 
L 341.570352 62.014125 
L 343.453864 57.507791 
L 343.857745 56.638125 
L 345.282332 53.950125 
L 347.061136 50.955308 
L 348.653684 48.574125 
L 350.668409 45.804219 
L 354.275682 41.487005 
L 355.149939 40.510125 
L 357.882955 37.662653 
L 361.490227 34.282779 
L 365.0975 31.211084 
L 368.704773 28.405269 
L 372.312045 25.831194 
L 375.919318 23.461433 
L 379.526591 21.274117 
L 383.634235 19.006125 
L 389.121658 16.318125 
L 389.121658 16.318125 
" clip-path="url(#pf533e18496)" style="fill: none; stroke: #aedea7; stroke-opacity: 0.8; stroke-width: 1.5"/>
    <path d="M 374.933466 62.014125 
L 374.678242 59.326125 
L 375.036535 56.638125 
L 375.874512 53.950125 
L 375.919318 53.860131 
L 377.417344 51.262125 
L 379.272748 48.574125 
L 379.526591 48.275889 
L 381.889313 45.886125 
L 383.133864 44.760616 
L 385.199831 43.198125 
L 386.741136 42.144926 
L 389.720087 40.510125 
L 390.348409 40.19564 
L 393.955682 39.007552 
L 397.562955 38.524125 
L 401.170227 39.309987 
L 402.715147 40.510125 
L 404.173301 43.198125 
L 404.371823 45.886125 
L 403.867383 48.574125 
L 402.925999 51.262125 
L 401.68765 53.950125 
L 401.170227 54.868908 
L 399.970522 56.638125 
L 397.96437 59.326125 
L 397.562955 59.815111 
L 395.313056 62.014125 
L 393.955682 63.279829 
L 391.921438 64.702125 
L 390.348409 65.761108 
L 386.741136 67.370878 
L 386.628749 67.390125 
L 383.133864 67.968182 
L 379.526591 67.431035 
L 379.44874 67.390125 
L 376.006509 64.702125 
L 375.919318 64.575121 
L 374.933466 62.014125 
z
" clip-path="url(#pf533e18496)" style="fill: none; stroke: #88ce87; stroke-opacity: 0.8; stroke-width: 1.5"/>
    <path clip-path="url(#pf533e18496)" style="fill: none; stroke: #5db96b; stroke-opacity: 0.8; stroke-width: 1.5"/>
    <path clip-path="url(#pf533e18496)" style="fill: none; stroke: #37a055; stroke-opacity: 0.8; stroke-width: 1.5"/>
    <path clip-path="url(#pf533e18496)" style="fill: none; stroke: #1a843f; stroke-opacity: 0.8; stroke-width: 1.5"/>
    <path clip-path="url(#pf533e18496)" style="fill: none; stroke: #00682a; stroke-opacity: 0.8; stroke-width: 1.5"/>
    <path clip-path="url(#pf533e18496)" style="fill: none; stroke: #00441b; stroke-opacity: 0.8; stroke-width: 1.5"/>
   </g>
   <g id="patch_3">
    <path d="M 87.3375 282.430125 
L 87.3375 16.318125 
" style="fill: none; stroke: #000000; stroke-width: 0.8; stroke-linejoin: miter; stroke-linecap: square"/>
   </g>
   <g id="patch_4">
    <path d="M 444.4575 282.430125 
L 444.4575 16.318125 
" style="fill: none; stroke: #000000; stroke-width: 0.8; stroke-linejoin: miter; stroke-linecap: square"/>
   </g>
   <g id="patch_5">
    <path d="M 87.3375 282.430125 
L 444.4575 282.430125 
" style="fill: none; stroke: #000000; stroke-width: 0.8; stroke-linejoin: miter; stroke-linecap: square"/>
   </g>
   <g id="patch_6">
    <path d="M 87.3375 16.318125 
L 444.4575 16.318125 
" style="fill: none; stroke: #000000; stroke-width: 0.8; stroke-linejoin: miter; stroke-linecap: square"/>
   </g>
   <g id="legend_1">
    <g id="patch_7">
     <path d="M 204.885 270.430125 
L 427.6575 270.430125 
Q 432.4575 270.430125 432.4575 265.630125 
L 432.4575 197.575125 
Q 432.4575 192.775125 427.6575 192.775125 
L 204.885 192.775125 
Q 200.085 192.775125 200.085 197.575125 
L 200.085 265.630125 
Q 200.085 270.430125 204.885 270.430125 
z
" style="fill: #ffffff; opacity: 0.8; stroke: #cccccc; stroke-linejoin: miter"/>
    </g>
    <g id="PathCollection_3">
     <g>
      <use xlink:href="#maefef9dbc1" x="233.685" y="214.311375" style="fill: #800080; stroke: #800080"/>
     </g>
    </g>
    <g id="text_9">
     <!-- Interspecies -->
     <g transform="translate(276.885 220.611375) scale(0.24 -0.24)">
      <defs>
       <path id="DejaVuSans-49" d="M 628 4666 
L 1259 4666 
L 1259 0 
L 628 0 
L 628 4666 
z
" transform="scale(0.015625)"/>
       <path id="DejaVuSans-74" d="M 1172 4494 
L 1172 3500 
L 2356 3500 
L 2356 3053 
L 1172 3053 
L 1172 1153 
Q 1172 725 1289 603 
Q 1406 481 1766 481 
L 2356 481 
L 2356 0 
L 1766 0 
Q 1100 0 847 248 
Q 594 497 594 1153 
L 594 3053 
L 172 3053 
L 172 3500 
L 594 3500 
L 594 4494 
L 1172 4494 
z
" transform="scale(0.015625)"/>
       <path id="DejaVuSans-70" d="M 1159 525 
L 1159 -1331 
L 581 -1331 
L 581 3500 
L 1159 3500 
L 1159 2969 
Q 1341 3281 1617 3432 
Q 1894 3584 2278 3584 
Q 2916 3584 3314 3078 
Q 3713 2572 3713 1747 
Q 3713 922 3314 415 
Q 2916 -91 2278 -91 
Q 1894 -91 1617 61 
Q 1341 213 1159 525 
z
M 3116 1747 
Q 3116 2381 2855 2742 
Q 2594 3103 2138 3103 
Q 1681 3103 1420 2742 
Q 1159 2381 1159 1747 
Q 1159 1113 1420 752 
Q 1681 391 2138 391 
Q 2594 391 2855 752 
Q 3116 1113 3116 1747 
z
" transform="scale(0.015625)"/>
      </defs>
      <use xlink:href="#DejaVuSans-49"/>
      <use xlink:href="#DejaVuSans-6e" x="29.492188"/>
      <use xlink:href="#DejaVuSans-74" x="92.871094"/>
      <use xlink:href="#DejaVuSans-65" x="132.080078"/>
      <use xlink:href="#DejaVuSans-72" x="193.603516"/>
      <use xlink:href="#DejaVuSans-73" x="234.716797"/>
      <use xlink:href="#DejaVuSans-70" x="286.816406"/>
      <use xlink:href="#DejaVuSans-65" x="350.292969"/>
      <use xlink:href="#DejaVuSans-63" x="411.816406"/>
      <use xlink:href="#DejaVuSans-69" x="466.796875"/>
      <use xlink:href="#DejaVuSans-65" x="494.580078"/>
      <use xlink:href="#DejaVuSans-73" x="556.103516"/>
     </g>
    </g>
    <g id="PathCollection_4">
     <g>
      <use xlink:href="#mdf832c4195" x="233.685" y="249.538875" style="fill: #008000; stroke: #008000"/>
     </g>
    </g>
    <g id="text_10">
     <!-- Intraspecies -->
     <g transform="translate(276.885 255.838875) scale(0.24 -0.24)">
      <use xlink:href="#DejaVuSans-49"/>
      <use xlink:href="#DejaVuSans-6e" x="29.492188"/>
      <use xlink:href="#DejaVuSans-74" x="92.871094"/>
      <use xlink:href="#DejaVuSans-72" x="132.080078"/>
      <use xlink:href="#DejaVuSans-61" x="173.193359"/>
      <use xlink:href="#DejaVuSans-73" x="234.472656"/>
      <use xlink:href="#DejaVuSans-70" x="286.572266"/>
      <use xlink:href="#DejaVuSans-65" x="350.048828"/>
      <use xlink:href="#DejaVuSans-63" x="411.572266"/>
      <use xlink:href="#DejaVuSans-69" x="466.552734"/>
      <use xlink:href="#DejaVuSans-65" x="494.335938"/>
      <use xlink:href="#DejaVuSans-73" x="555.859375"/>
     </g>
    </g>
   </g>
  </g>
 </g>
 <defs>
  <clipPath id="pf533e18496">
   <rect x="87.3375" y="16.318125" width="357.12" height="266.112"/>
  </clipPath>
 </defs>
</svg>
