<?xml version="1.0" encoding="utf-8" standalone="no"?>
<!DOCTYPE svg PUBLIC "-//W3C//DTD SVG 1.1//EN"
  "http://www.w3.org/Graphics/SVG/1.1/DTD/svg11.dtd">
<svg xmlns:xlink="http://www.w3.org/1999/xlink" width="604.362375pt" height="359.348906pt" viewBox="0 0 604.362375 359.348906" xmlns="http://www.w3.org/2000/svg" version="1.1">
 <metadata>
  <rdf:RDF xmlns:dc="http://purl.org/dc/elements/1.1/" xmlns:cc="http://creativecommons.org/ns#" xmlns:rdf="http://www.w3.org/1999/02/22-rdf-syntax-ns#">
   <cc:Work>
    <dc:type rdf:resource="http://purl.org/dc/dcmitype/StillImage"/>
    <dc:date>2025-02-23T10:23:46.193068</dc:date>
    <dc:format>image/svg+xml</dc:format>
    <dc:creator>
     <cc:Agent>
      <dc:title>Matplotlib v3.8.1, https://matplotlib.org/</dc:title>
     </cc:Agent>
    </dc:creator>
   </cc:Work>
  </rdf:RDF>
 </metadata>
 <defs>
  <style type="text/css">*{stroke-linejoin: round; stroke-linecap: butt}</style>
 </defs>
 <g id="figure_1">
  <g id="patch_1">
   <path d="M 0 359.348906 
L 604.362375 359.348906 
L 604.362375 0 
L 0 0 
z
" style="fill: #ffffff"/>
  </g>
  <g id="axes_1">
   <g id="patch_2">
    <path d="M 80.285625 292.758281 
L 415.085625 292.758281 
L 415.085625 15.558281 
L 80.285625 15.558281 
z
" style="fill: #ffffff"/>
   </g>
   <g id="PathCollection_1">
    <defs>
     <path id="m1256e15ff6" d="M 0 3 
C 0.795609 3 1.55874 2.683901 2.12132 2.12132 
C 2.683901 1.55874 3 0.795609 3 0 
C 3 -0.795609 2.683901 -1.55874 2.12132 -2.12132 
C 1.55874 -2.683901 0.795609 -3 0 -3 
C -0.795609 -3 -1.55874 -2.683901 -2.12132 -2.12132 
C -2.683901 -1.55874 -3 -0.795609 -3 0 
C -3 0.795609 -2.683901 1.55874 -2.12132 2.12132 
C -1.55874 2.683901 -0.795609 3 0 3 
z
" style="stroke: #ff0000"/>
    </defs>
    <g clip-path="url(#peb943be4b2)">
     <use xlink:href="#m1256e15ff6" x="345.893625" y="79.314281" style="fill: #ff0000; stroke: #ff0000"/>
    </g>
   </g>
   <g id="PathCollection_2">
    <defs>
     <path id="m03c09d2eba" d="M 0 3 
C 0.795609 3 1.55874 2.683901 2.12132 2.12132 
C 2.683901 1.55874 3 0.795609 3 0 
C 3 -0.795609 2.683901 -1.55874 2.12132 -2.12132 
C 1.55874 -2.683901 0.795609 -3 0 -3 
C -0.795609 -3 -1.55874 -2.683901 -2.12132 -2.12132 
C -2.683901 -1.55874 -3 -0.795609 -3 0 
C -3 0.795609 -2.683901 1.55874 -2.12132 2.12132 
C -1.55874 2.683901 -0.795609 3 0 3 
z
" style="stroke: #ffa500"/>
    </defs>
    <g clip-path="url(#peb943be4b2)">
     <use xlink:href="#m03c09d2eba" x="145.013625" y="241.476281" style="fill: #ffa500; stroke: #ffa500"/>
    </g>
   </g>
   <g id="PathCollection_3">
    <defs>
     <path id="m9e846fac5d" d="M 0 3 
C 0.795609 3 1.55874 2.683901 2.12132 2.12132 
C 2.683901 1.55874 3 0.795609 3 0 
C 3 -0.795609 2.683901 -1.55874 2.12132 -2.12132 
C 1.55874 -2.683901 0.795609 -3 0 -3 
C -0.795609 -3 -1.55874 -2.683901 -2.12132 -2.12132 
C -2.683901 -1.55874 -3 -0.795609 -3 0 
C -3 0.795609 -2.683901 1.55874 -2.12132 2.12132 
C -1.55874 2.683901 -0.795609 3 0 3 
z
" style="stroke: #ffff00"/>
    </defs>
    <g clip-path="url(#peb943be4b2)">
     <use xlink:href="#m9e846fac5d" x="144.455625" y="212.370281" style="fill: #ffff00; stroke: #ffff00"/>
    </g>
   </g>
   <g id="PathCollection_4">
    <defs>
     <path id="m6b255bd792" d="M 0 3 
C 0.795609 3 1.55874 2.683901 2.12132 2.12132 
C 2.683901 1.55874 3 0.795609 3 0 
C 3 -0.795609 2.683901 -1.55874 2.12132 -2.12132 
C 1.55874 -2.683901 0.795609 -3 0 -3 
C -0.795609 -3 -1.55874 -2.683901 -2.12132 -2.12132 
C -2.683901 -1.55874 -3 -0.795609 -3 0 
C -3 0.795609 -2.683901 1.55874 -2.12132 2.12132 
C -1.55874 2.683901 -0.795609 3 0 3 
z
" style="stroke: #00ff00"/>
    </defs>
    <g clip-path="url(#peb943be4b2)">
     <use xlink:href="#m6b255bd792" x="367.097625" y="230.850281" style="fill: #00ff00; stroke: #00ff00"/>
    </g>
   </g>
   <g id="PathCollection_5">
    <defs>
     <path id="m96234de28e" d="M 0 3 
C 0.795609 3 1.55874 2.683901 2.12132 2.12132 
C 2.683901 1.55874 3 0.795609 3 0 
C 3 -0.795609 2.683901 -1.55874 2.12132 -2.12132 
C 1.55874 -2.683901 0.795609 -3 0 -3 
C -0.795609 -3 -1.55874 -2.683901 -2.12132 -2.12132 
C -2.683901 -1.55874 -3 -0.795609 -3 0 
C -3 0.795609 -2.683901 1.55874 -2.12132 2.12132 
C -1.55874 2.683901 -0.795609 3 0 3 
z
" style="stroke: #00ffff"/>
    </defs>
    <g clip-path="url(#peb943be4b2)">
     <use xlink:href="#m96234de28e" x="175.703625" y="225.768281" style="fill: #00ffff; stroke: #00ffff"/>
    </g>
   </g>
   <g id="PathCollection_6">
    <defs>
     <path id="m70649b5893" d="M 0 3 
C 0.795609 3 1.55874 2.683901 2.12132 2.12132 
C 2.683901 1.55874 3 0.795609 3 0 
C 3 -0.795609 2.683901 -1.55874 2.12132 -2.12132 
C 1.55874 -2.683901 0.795609 -3 0 -3 
C -0.795609 -3 -1.55874 -2.683901 -2.12132 -2.12132 
C -2.683901 -1.55874 -3 -0.795609 -3 0 
C -3 0.795609 -2.683901 1.55874 -2.12132 2.12132 
C -1.55874 2.683901 -0.795609 3 0 3 
z
" style="stroke: #0000ff"/>
    </defs>
    <g clip-path="url(#peb943be4b2)">
     <use xlink:href="#m70649b5893" x="301.253625" y="227.616281" style="fill: #0000ff; stroke: #0000ff"/>
    </g>
   </g>
   <g id="PathCollection_7">
    <defs>
     <path id="m2b48239b0b" d="M 0 3 
C 0.795609 3 1.55874 2.683901 2.12132 2.12132 
C 2.683901 1.55874 3 0.795609 3 0 
C 3 -0.795609 2.683901 -1.55874 2.12132 -2.12132 
C 1.55874 -2.683901 0.795609 -3 0 -3 
C -0.795609 -3 -1.55874 -2.683901 -2.12132 -2.12132 
C -2.683901 -1.55874 -3 -0.795609 -3 0 
C -3 0.795609 -2.683901 1.55874 -2.12132 2.12132 
C -1.55874 2.683901 -0.795609 3 0 3 
z
" style="stroke: #800080"/>
    </defs>
    <g clip-path="url(#peb943be4b2)">
     <use xlink:href="#m2b48239b0b" x="144.455625" y="220.686281" style="fill: #800080; stroke: #800080"/>
    </g>
   </g>
   <g id="PathCollection_8">
    <defs>
     <path id="mdaf11522a4" d="M 0 -3 
L -3 3 
L 3 3 
z
" style="stroke: #ff0000"/>
    </defs>
    <g clip-path="url(#peb943be4b2)">
     <use xlink:href="#mdaf11522a4" x="323.573625" y="103.800281" style="fill: #ff0000; stroke: #ff0000"/>
    </g>
   </g>
   <g id="PathCollection_9">
    <defs>
     <path id="md31474ab8c" d="M 0 -3 
L -3 3 
L 3 3 
z
" style="stroke: #ffa500"/>
    </defs>
    <g clip-path="url(#peb943be4b2)">
     <use xlink:href="#md31474ab8c" x="146.129625" y="252.564281" style="fill: #ffa500; stroke: #ffa500"/>
    </g>
   </g>
   <g id="PathCollection_10">
    <defs>
     <path id="m069d226922" d="M 0 -3 
L -3 3 
L 3 3 
z
" style="stroke: #ffff00"/>
    </defs>
    <g clip-path="url(#peb943be4b2)">
     <use xlink:href="#m069d226922" x="128.831625" y="228.540281" style="fill: #ffff00; stroke: #ffff00"/>
    </g>
   </g>
   <g id="PathCollection_11">
    <defs>
     <path id="md44f37f6b7" d="M 0 -3 
L -3 3 
L 3 3 
z
" style="stroke: #00ff00"/>
    </defs>
    <g clip-path="url(#peb943be4b2)">
     <use xlink:href="#md44f37f6b7" x="379.373625" y="234.084281" style="fill: #00ff00; stroke: #00ff00"/>
    </g>
   </g>
   <g id="PathCollection_12">
    <defs>
     <path id="m6ac8410189" d="M 0 -3 
L -3 3 
L 3 3 
z
" style="stroke: #00ffff"/>
    </defs>
    <g clip-path="url(#peb943be4b2)">
     <use xlink:href="#m6ac8410189" x="176.819625" y="218.376281" style="fill: #00ffff; stroke: #00ffff"/>
    </g>
   </g>
   <g id="PathCollection_13">
    <defs>
     <path id="m6cb59e156f" d="M 0 -3 
L -3 3 
L 3 3 
z
" style="stroke: #0000ff"/>
    </defs>
    <g clip-path="url(#peb943be4b2)">
     <use xlink:href="#m6cb59e156f" x="336.407625" y="227.154281" style="fill: #0000ff; stroke: #0000ff"/>
    </g>
   </g>
   <g id="PathCollection_14">
    <defs>
     <path id="mc34ab9ab38" d="M 0 -3 
L -3 3 
L 3 3 
z
" style="stroke: #800080"/>
    </defs>
    <g clip-path="url(#peb943be4b2)">
     <use xlink:href="#mc34ab9ab38" x="146.687625" y="229.002281" style="fill: #800080; stroke: #800080"/>
    </g>
   </g>
   <g id="PathCollection_15">
    <defs>
     <path id="m96626fc0b3" d="M -3 3 
L 3 3 
L 3 -3 
L -3 -3 
z
" style="stroke: #ff0000"/>
    </defs>
    <g clip-path="url(#peb943be4b2)">
     <use xlink:href="#m96626fc0b3" x="376.025625" y="44.664281" style="fill: #ff0000; stroke: #ff0000"/>
    </g>
   </g>
   <g id="PathCollection_16">
    <defs>
     <path id="m5c302126f3" d="M -3 3 
L 3 3 
L 3 -3 
L -3 -3 
z
" style="stroke: #ffa500"/>
    </defs>
    <g clip-path="url(#peb943be4b2)">
     <use xlink:href="#m5c302126f3" x="143.897625" y="211.908281" style="fill: #ffa500; stroke: #ffa500"/>
    </g>
   </g>
   <g id="PathCollection_17">
    <defs>
     <path id="m29d403745d" d="M -3 3 
L 3 3 
L 3 -3 
L -3 -3 
z
" style="stroke: #ffff00"/>
    </defs>
    <g clip-path="url(#peb943be4b2)">
     <use xlink:href="#m29d403745d" x="165.659625" y="193.890281" style="fill: #ffff00; stroke: #ffff00"/>
    </g>
   </g>
   <g id="PathCollection_18">
    <defs>
     <path id="m94b24c4a56" d="M -3 3 
L 3 3 
L 3 -3 
L -3 -3 
z
" style="stroke: #00ff00"/>
    </defs>
    <g clip-path="url(#peb943be4b2)">
     <use xlink:href="#m94b24c4a56" x="351.473625" y="226.230281" style="fill: #00ff00; stroke: #00ff00"/>
    </g>
   </g>
   <g id="PathCollection_19">
    <defs>
     <path id="meb5b3fb094" d="M -3 3 
L 3 3 
L 3 -3 
L -3 -3 
z
" style="stroke: #00ffff"/>
    </defs>
    <g clip-path="url(#peb943be4b2)">
     <use xlink:href="#meb5b3fb094" x="174.587625" y="233.622281" style="fill: #00ffff; stroke: #00ffff"/>
    </g>
   </g>
   <g id="PathCollection_20">
    <defs>
     <path id="mdd12ab250b" d="M -3 3 
L 3 3 
L 3 -3 
L -3 -3 
z
" style="stroke: #0000ff"/>
    </defs>
    <g clip-path="url(#peb943be4b2)">
     <use xlink:href="#mdd12ab250b" x="254.381625" y="227.616281" style="fill: #0000ff; stroke: #0000ff"/>
    </g>
   </g>
   <g id="PathCollection_21">
    <defs>
     <path id="m7f576c762b" d="M -3 3 
L 3 3 
L 3 -3 
L -3 -3 
z
" style="stroke: #800080"/>
    </defs>
    <g clip-path="url(#peb943be4b2)">
     <use xlink:href="#m7f576c762b" x="141.665625" y="204.516281" style="fill: #800080; stroke: #800080"/>
    </g>
   </g>
   <g id="matplotlib.axis_1">
    <g id="xtick_1">
     <g id="line2d_1">
      <defs>
       <path id="m17e569694f" d="M 0 0 
L 0 3.5 
" style="stroke: #000000; stroke-width: 0.8"/>
      </defs>
      <g>
       <use xlink:href="#m17e569694f" x="80.285625" y="292.758281" style="stroke: #000000; stroke-width: 0.8"/>
      </g>
     </g>
     <g id="text_1">
      <!-- 0.0 -->
      <g transform="translate(62.792188 316.474844) scale(0.22 -0.22)">
       <defs>
        <path id="DejaVuSans-30" d="M 2034 4250 
Q 1547 4250 1301 3770 
Q 1056 3291 1056 2328 
Q 1056 1369 1301 889 
Q 1547 409 2034 409 
Q 2525 409 2770 889 
Q 3016 1369 3016 2328 
Q 3016 3291 2770 3770 
Q 2525 4250 2034 4250 
z
M 2034 4750 
Q 2819 4750 3233 4129 
Q 3647 3509 3647 2328 
Q 3647 1150 3233 529 
Q 2819 -91 2034 -91 
Q 1250 -91 836 529 
Q 422 1150 422 2328 
Q 422 3509 836 4129 
Q 1250 4750 2034 4750 
z
" transform="scale(0.015625)"/>
        <path id="DejaVuSans-2e" d="M 684 794 
L 1344 794 
L 1344 0 
L 684 0 
L 684 794 
z
" transform="scale(0.015625)"/>
       </defs>
       <use xlink:href="#DejaVuSans-30"/>
       <use xlink:href="#DejaVuSans-2e" x="63.623047"/>
       <use xlink:href="#DejaVuSans-30" x="95.410156"/>
      </g>
     </g>
    </g>
    <g id="xtick_2">
     <g id="line2d_2">
      <g>
       <use xlink:href="#m17e569694f" x="247.685625" y="292.758281" style="stroke: #000000; stroke-width: 0.8"/>
      </g>
     </g>
     <g id="text_2">
      <!-- 0.3 -->
      <g transform="translate(230.192188 316.474844) scale(0.22 -0.22)">
       <defs>
        <path id="DejaVuSans-33" d="M 2597 2516 
Q 3050 2419 3304 2112 
Q 3559 1806 3559 1356 
Q 3559 666 3084 287 
Q 2609 -91 1734 -91 
Q 1441 -91 1130 -33 
Q 819 25 488 141 
L 488 750 
Q 750 597 1062 519 
Q 1375 441 1716 441 
Q 2309 441 2620 675 
Q 2931 909 2931 1356 
Q 2931 1769 2642 2001 
Q 2353 2234 1838 2234 
L 1294 2234 
L 1294 2753 
L 1863 2753 
Q 2328 2753 2575 2939 
Q 2822 3125 2822 3475 
Q 2822 3834 2567 4026 
Q 2313 4219 1838 4219 
Q 1578 4219 1281 4162 
Q 984 4106 628 3988 
L 628 4550 
Q 988 4650 1302 4700 
Q 1616 4750 1894 4750 
Q 2613 4750 3031 4423 
Q 3450 4097 3450 3541 
Q 3450 3153 3228 2886 
Q 3006 2619 2597 2516 
z
" transform="scale(0.015625)"/>
       </defs>
       <use xlink:href="#DejaVuSans-30"/>
       <use xlink:href="#DejaVuSans-2e" x="63.623047"/>
       <use xlink:href="#DejaVuSans-33" x="95.410156"/>
      </g>
     </g>
    </g>
    <g id="xtick_3">
     <g id="line2d_3">
      <g>
       <use xlink:href="#m17e569694f" x="415.085625" y="292.758281" style="stroke: #000000; stroke-width: 0.8"/>
      </g>
     </g>
     <g id="text_3">
      <!-- 0.6 -->
      <g transform="translate(397.592188 316.474844) scale(0.22 -0.22)">
       <defs>
        <path id="DejaVuSans-36" d="M 2113 2584 
Q 1688 2584 1439 2293 
Q 1191 2003 1191 1497 
Q 1191 994 1439 701 
Q 1688 409 2113 409 
Q 2538 409 2786 701 
Q 3034 994 3034 1497 
Q 3034 2003 2786 2293 
Q 2538 2584 2113 2584 
z
M 3366 4563 
L 3366 3988 
Q 3128 4100 2886 4159 
Q 2644 4219 2406 4219 
Q 1781 4219 1451 3797 
Q 1122 3375 1075 2522 
Q 1259 2794 1537 2939 
Q 1816 3084 2150 3084 
Q 2853 3084 3261 2657 
Q 3669 2231 3669 1497 
Q 3669 778 3244 343 
Q 2819 -91 2113 -91 
Q 1303 -91 875 529 
Q 447 1150 447 2328 
Q 447 3434 972 4092 
Q 1497 4750 2381 4750 
Q 2619 4750 2861 4703 
Q 3103 4656 3366 4563 
z
" transform="scale(0.015625)"/>
       </defs>
       <use xlink:href="#DejaVuSans-30"/>
       <use xlink:href="#DejaVuSans-2e" x="63.623047"/>
       <use xlink:href="#DejaVuSans-36" x="95.410156"/>
      </g>
     </g>
    </g>
    <g id="text_4">
     <!-- Recall -->
     <g transform="translate(205.9175 346.325781) scale(0.28 -0.28)">
      <defs>
       <path id="DejaVuSans-52" d="M 2841 2188 
Q 3044 2119 3236 1894 
Q 3428 1669 3622 1275 
L 4263 0 
L 3584 0 
L 2988 1197 
Q 2756 1666 2539 1819 
Q 2322 1972 1947 1972 
L 1259 1972 
L 1259 0 
L 628 0 
L 628 4666 
L 2053 4666 
Q 2853 4666 3247 4331 
Q 3641 3997 3641 3322 
Q 3641 2881 3436 2590 
Q 3231 2300 2841 2188 
z
M 1259 4147 
L 1259 2491 
L 2053 2491 
Q 2509 2491 2742 2702 
Q 2975 2913 2975 3322 
Q 2975 3731 2742 3939 
Q 2509 4147 2053 4147 
L 1259 4147 
z
" transform="scale(0.015625)"/>
       <path id="DejaVuSans-65" d="M 3597 1894 
L 3597 1613 
L 953 1613 
Q 991 1019 1311 708 
Q 1631 397 2203 397 
Q 2534 397 2845 478 
Q 3156 559 3463 722 
L 3463 178 
Q 3153 47 2828 -22 
Q 2503 -91 2169 -91 
Q 1331 -91 842 396 
Q 353 884 353 1716 
Q 353 2575 817 3079 
Q 1281 3584 2069 3584 
Q 2775 3584 3186 3129 
Q 3597 2675 3597 1894 
z
M 3022 2063 
Q 3016 2534 2758 2815 
Q 2500 3097 2075 3097 
Q 1594 3097 1305 2825 
Q 1016 2553 972 2059 
L 3022 2063 
z
" transform="scale(0.015625)"/>
       <path id="DejaVuSans-63" d="M 3122 3366 
L 3122 2828 
Q 2878 2963 2633 3030 
Q 2388 3097 2138 3097 
Q 1578 3097 1268 2742 
Q 959 2388 959 1747 
Q 959 1106 1268 751 
Q 1578 397 2138 397 
Q 2388 397 2633 464 
Q 2878 531 3122 666 
L 3122 134 
Q 2881 22 2623 -34 
Q 2366 -91 2075 -91 
Q 1284 -91 818 406 
Q 353 903 353 1747 
Q 353 2603 823 3093 
Q 1294 3584 2113 3584 
Q 2378 3584 2631 3529 
Q 2884 3475 3122 3366 
z
" transform="scale(0.015625)"/>
       <path id="DejaVuSans-61" d="M 2194 1759 
Q 1497 1759 1228 1600 
Q 959 1441 959 1056 
Q 959 750 1161 570 
Q 1363 391 1709 391 
Q 2188 391 2477 730 
Q 2766 1069 2766 1631 
L 2766 1759 
L 2194 1759 
z
M 3341 1997 
L 3341 0 
L 2766 0 
L 2766 531 
Q 2569 213 2275 61 
Q 1981 -91 1556 -91 
Q 1019 -91 701 211 
Q 384 513 384 1019 
Q 384 1609 779 1909 
Q 1175 2209 1959 2209 
L 2766 2209 
L 2766 2266 
Q 2766 2663 2505 2880 
Q 2244 3097 1772 3097 
Q 1472 3097 1187 3025 
Q 903 2953 641 2809 
L 641 3341 
Q 956 3463 1253 3523 
Q 1550 3584 1831 3584 
Q 2591 3584 2966 3190 
Q 3341 2797 3341 1997 
z
" transform="scale(0.015625)"/>
       <path id="DejaVuSans-6c" d="M 603 4863 
L 1178 4863 
L 1178 0 
L 603 0 
L 603 4863 
z
" transform="scale(0.015625)"/>
      </defs>
      <use xlink:href="#DejaVuSans-52"/>
      <use xlink:href="#DejaVuSans-65" x="64.982422"/>
      <use xlink:href="#DejaVuSans-63" x="126.505859"/>
      <use xlink:href="#DejaVuSans-61" x="181.486328"/>
      <use xlink:href="#DejaVuSans-6c" x="242.765625"/>
      <use xlink:href="#DejaVuSans-6c" x="270.548828"/>
     </g>
    </g>
   </g>
   <g id="matplotlib.axis_2">
    <g id="ytick_1">
     <g id="line2d_4">
      <defs>
       <path id="m98ab4986fc" d="M 0 0 
L -3.5 0 
" style="stroke: #000000; stroke-width: 0.8"/>
      </defs>
      <g>
       <use xlink:href="#m98ab4986fc" x="80.285625" y="292.758281" style="stroke: #000000; stroke-width: 0.8"/>
      </g>
     </g>
     <g id="text_5">
      <!-- 0.0 -->
      <g transform="translate(38.29875 301.116563) scale(0.22 -0.22)">
       <use xlink:href="#DejaVuSans-30"/>
       <use xlink:href="#DejaVuSans-2e" x="63.623047"/>
       <use xlink:href="#DejaVuSans-30" x="95.410156"/>
      </g>
     </g>
    </g>
    <g id="ytick_2">
     <g id="line2d_5">
      <g>
       <use xlink:href="#m98ab4986fc" x="80.285625" y="154.158281" style="stroke: #000000; stroke-width: 0.8"/>
      </g>
     </g>
     <g id="text_6">
      <!-- 0.3 -->
      <g transform="translate(38.29875 162.516563) scale(0.22 -0.22)">
       <use xlink:href="#DejaVuSans-30"/>
       <use xlink:href="#DejaVuSans-2e" x="63.623047"/>
       <use xlink:href="#DejaVuSans-33" x="95.410156"/>
      </g>
     </g>
    </g>
    <g id="ytick_3">
     <g id="line2d_6">
      <g>
       <use xlink:href="#m98ab4986fc" x="80.285625" y="15.558281" style="stroke: #000000; stroke-width: 0.8"/>
      </g>
     </g>
     <g id="text_7">
      <!-- 0.6 -->
      <g transform="translate(38.29875 23.916562) scale(0.22 -0.22)">
       <use xlink:href="#DejaVuSans-30"/>
       <use xlink:href="#DejaVuSans-2e" x="63.623047"/>
       <use xlink:href="#DejaVuSans-36" x="95.410156"/>
      </g>
     </g>
    </g>
    <g id="text_8">
     <!-- Precision -->
     <g transform="translate(28.475625 216.617969) rotate(-90) scale(0.28 -0.28)">
      <defs>
       <path id="DejaVuSans-50" d="M 1259 4147 
L 1259 2394 
L 2053 2394 
Q 2494 2394 2734 2622 
Q 2975 2850 2975 3272 
Q 2975 3691 2734 3919 
Q 2494 4147 2053 4147 
L 1259 4147 
z
M 628 4666 
L 2053 4666 
Q 2838 4666 3239 4311 
Q 3641 3956 3641 3272 
Q 3641 2581 3239 2228 
Q 2838 1875 2053 1875 
L 1259 1875 
L 1259 0 
L 628 0 
L 628 4666 
z
" transform="scale(0.015625)"/>
       <path id="DejaVuSans-72" d="M 2631 2963 
Q 2534 3019 2420 3045 
Q 2306 3072 2169 3072 
Q 1681 3072 1420 2755 
Q 1159 2438 1159 1844 
L 1159 0 
L 581 0 
L 581 3500 
L 1159 3500 
L 1159 2956 
Q 1341 3275 1631 3429 
Q 1922 3584 2338 3584 
Q 2397 3584 2469 3576 
Q 2541 3569 2628 3553 
L 2631 2963 
z
" transform="scale(0.015625)"/>
       <path id="DejaVuSans-69" d="M 603 3500 
L 1178 3500 
L 1178 0 
L 603 0 
L 603 3500 
z
M 603 4863 
L 1178 4863 
L 1178 4134 
L 603 4134 
L 603 4863 
z
" transform="scale(0.015625)"/>
       <path id="DejaVuSans-73" d="M 2834 3397 
L 2834 2853 
Q 2591 2978 2328 3040 
Q 2066 3103 1784 3103 
Q 1356 3103 1142 2972 
Q 928 2841 928 2578 
Q 928 2378 1081 2264 
Q 1234 2150 1697 2047 
L 1894 2003 
Q 2506 1872 2764 1633 
Q 3022 1394 3022 966 
Q 3022 478 2636 193 
Q 2250 -91 1575 -91 
Q 1294 -91 989 -36 
Q 684 19 347 128 
L 347 722 
Q 666 556 975 473 
Q 1284 391 1588 391 
Q 1994 391 2212 530 
Q 2431 669 2431 922 
Q 2431 1156 2273 1281 
Q 2116 1406 1581 1522 
L 1381 1569 
Q 847 1681 609 1914 
Q 372 2147 372 2553 
Q 372 3047 722 3315 
Q 1072 3584 1716 3584 
Q 2034 3584 2315 3537 
Q 2597 3491 2834 3397 
z
" transform="scale(0.015625)"/>
       <path id="DejaVuSans-6f" d="M 1959 3097 
Q 1497 3097 1228 2736 
Q 959 2375 959 1747 
Q 959 1119 1226 758 
Q 1494 397 1959 397 
Q 2419 397 2687 759 
Q 2956 1122 2956 1747 
Q 2956 2369 2687 2733 
Q 2419 3097 1959 3097 
z
M 1959 3584 
Q 2709 3584 3137 3096 
Q 3566 2609 3566 1747 
Q 3566 888 3137 398 
Q 2709 -91 1959 -91 
Q 1206 -91 779 398 
Q 353 888 353 1747 
Q 353 2609 779 3096 
Q 1206 3584 1959 3584 
z
" transform="scale(0.015625)"/>
       <path id="DejaVuSans-6e" d="M 3513 2113 
L 3513 0 
L 2938 0 
L 2938 2094 
Q 2938 2591 2744 2837 
Q 2550 3084 2163 3084 
Q 1697 3084 1428 2787 
Q 1159 2491 1159 1978 
L 1159 0 
L 581 0 
L 581 3500 
L 1159 3500 
L 1159 2956 
Q 1366 3272 1645 3428 
Q 1925 3584 2291 3584 
Q 2894 3584 3203 3211 
Q 3513 2838 3513 2113 
z
" transform="scale(0.015625)"/>
      </defs>
      <use xlink:href="#DejaVuSans-50"/>
      <use xlink:href="#DejaVuSans-72" x="58.552734"/>
      <use xlink:href="#DejaVuSans-65" x="97.416016"/>
      <use xlink:href="#DejaVuSans-63" x="158.939453"/>
      <use xlink:href="#DejaVuSans-69" x="213.919922"/>
      <use xlink:href="#DejaVuSans-73" x="241.703125"/>
      <use xlink:href="#DejaVuSans-69" x="293.802734"/>
      <use xlink:href="#DejaVuSans-6f" x="321.585938"/>
      <use xlink:href="#DejaVuSans-6e" x="382.767578"/>
     </g>
    </g>
   </g>
   <g id="QuadContourSet_1">
    <path d="M 80.285625 15.558281 
L 80.285625 79.968281 
M 80.285625 135.948281 
L 80.285625 289.958281 
L 83.667443 292.758281 
L 415.085625 292.758281 
L 415.085625 292.758281 
" clip-path="url(#peb943be4b2)" style="fill: none; stroke: #ffc0cb; stroke-width: 0.5"/>
    <path d="M 97.912071 15.558281 
L 98.289832 93.958281 
L 98.729059 141.558281 
L 99.220149 172.358281 
L 99.798026 194.758281 
L 100.339807 208.758281 
L 100.972747 219.958281 
L 101.640944 228.358281 
L 102.562507 236.758281 
L 103.394716 242.358281 
L 103.958352 245.421138 
L 104.544886 247.958281 
L 105.30657 250.758281 
L 106.671608 254.712265 
M 155.354203 274.895686 
L 164.83108 275.463689 
L 178.358352 276.04318 
L 198.649261 276.602853 
L 225.703807 277.08131 
L 262.903807 277.487911 
L 317.012898 277.835424 
L 401.558352 278.131578 
L 415.085625 278.164342 
L 415.085625 278.164342 
" clip-path="url(#peb943be4b2)" style="fill: none; stroke: #ffc0cb; stroke-width: 0.5"/>
    <path d="M 117.485625 15.558281 
L 117.528232 18.358281 
L 118.244809 57.558281 
L 119.028353 88.358281 
L 119.901445 113.558281 
L 120.803741 133.158281 
L 121.647863 147.158281 
L 122.713741 161.158281 
L 123.786525 172.358281 
L 124.785702 180.758281 
L 126.013044 189.158281 
L 127.521083 197.558281 
L 128.779709 203.158281 
L 130.268898 208.758281 
L 131.12147 211.558281 
L 133.167241 217.158281 
L 134.394716 220.047969 
L 135.735539 222.758281 
L 137.776534 226.372122 
L 139.087069 228.358281 
L 141.158352 231.158281 
L 141.158352 231.158281 
L 144.54017 234.86576 
L 147.921989 237.850281 
L 151.303807 240.301138 
L 154.685625 242.358281 
L 158.067443 244.073215 
L 161.449261 245.566615 
L 164.83108 246.848137 
L 168.212898 247.992246 
L 174.976534 249.862567 
L 181.74017 251.374281 
L 188.503807 252.607266 
L 195.267443 253.649354 
L 205.412898 254.897945 
L 215.558352 255.914131 
L 225.703807 256.741407 
L 239.23108 257.629626 
L 256.14017 258.512127 
L 276.43108 259.330576 
L 300.103807 260.049775 
L 330.54017 260.749004 
L 356.662099 261.211446 
M 412.637386 261.932743 
L 415.085625 261.958281 
L 415.085625 261.958281 
" clip-path="url(#peb943be4b2)" style="fill: none; stroke: #ffc0cb; stroke-width: 0.5"/>
    <path d="M 139.375212 15.558281 
L 140.434643 40.758281 
L 141.451273 60.358281 
L 142.328865 74.444759 
M 147.773637 130.237187 
L 148.636096 135.958281 
L 150.064609 144.358281 
L 151.727481 152.758281 
L 153.712261 161.158281 
L 155.247758 166.758281 
L 157.009368 172.358281 
L 159.035114 177.958281 
L 161.449261 183.693906 
L 164.183124 189.158281 
L 165.777519 191.958281 
L 168.212898 195.789642 
L 169.462064 197.558281 
L 171.594716 200.358281 
L 174.976534 204.211853 
L 178.358352 207.529744 
L 181.74017 210.410281 
L 185.121989 212.933515 
L 188.503807 215.164922 
L 191.885625 217.158281 
L 197.403592 219.958281 
L 202.03108 221.97467 
L 205.412898 223.29476 
L 212.176534 225.609642 
L 218.94017 227.557091 
L 225.703807 229.234322 
L 234.819344 231.158281 
L 242.612898 232.541875 
L 252.758352 234.095859 
L 262.903807 235.39717 
L 276.43108 236.867235 
L 289.958352 238.074004 
L 306.867443 239.335791 
L 323.776534 240.367656 
L 344.067443 241.394021 
L 367.74017 242.376069 
L 398.176534 243.371301 
L 415.085625 243.834645 
L 415.085625 243.834645 
" clip-path="url(#peb943be4b2)" style="fill: none; stroke: #ffc0cb; stroke-width: 0.5"/>
    <path d="M 163.990749 15.558281 
L 165.361519 32.358281 
L 166.981878 49.158281 
L 168.563754 63.158281 
L 170.033877 74.358281 
L 171.708102 85.558281 
L 173.664389 96.758281 
L 175.338145 105.158281 
L 177.249354 113.558281 
L 179.433518 121.958281 
L 181.74017 129.693748 
L 183.879257 135.958281 
L 186.019632 141.558281 
L 188.503807 147.339844 
L 191.153529 152.758281 
L 192.657204 155.558281 
L 195.995552 161.158281 
L 198.649261 165.091996 
L 202.03108 169.558281 
L 205.412898 173.489326 
L 208.794716 176.996508 
L 212.176534 180.139741 
L 215.558352 182.970281 
L 218.94017 185.532106 
L 222.321989 187.863043 
L 225.703807 189.995707 
L 229.085625 191.958281 
L 234.47997 194.758281 
L 239.23108 196.955438 
L 243.007086 198.540683 
M 297.094266 212.536883 
L 308.937944 214.358281 
L 320.394716 215.871537 
L 333.921989 217.429769 
L 350.83108 219.078206 
L 367.74017 220.478364 
L 388.03108 221.895864 
L 408.321989 223.096757 
L 415.085625 223.454039 
L 415.085625 223.454039 
" clip-path="url(#peb943be4b2)" style="fill: none; stroke: #ffc0cb; stroke-width: 0.5"/>
    <path d="M 191.885625 15.558281 
L 192.26909 18.358281 
L 192.662519 21.158281 
L 193.066289 23.958281 
L 193.480794 26.758281 
L 193.906449 29.558281 
L 194.34369 32.358281 
L 194.792974 35.158281 
L 195.254783 37.958281 
L 195.267443 38.033368 
L 195.73714 40.758281 
L 196.233616 43.558281 
L 196.744587 46.358281 
L 197.270664 49.158281 
L 197.812495 51.958281 
L 198.370759 54.758281 
L 198.649261 56.118281 
L 198.951209 57.558281 
L 199.554729 60.358281 
L 200.177467 63.158281 
L 200.820305 65.958281 
L 201.083648 67.06898 
M 219.90922 119.715369 
L 221.140034 121.958281 
L 222.321989 124.022567 
L 222.757398 124.758281 
L 224.477278 127.558281 
L 225.703807 129.470125 
L 226.293413 130.358281 
L 228.226899 133.158281 
L 229.085625 134.351463 
L 230.283712 135.958281 
L 232.467443 138.758281 
L 232.467443 138.758281 
L 234.815928 141.558281 
L 235.849261 142.737298 
L 237.324066 144.358281 
L 239.23108 146.366068 
L 240.01275 147.158281 
L 242.612898 149.684844 
L 242.905443 149.958281 
L 245.994716 152.729127 
L 246.028534 152.758281 
L 249.376534 155.530281 
L 249.411747 155.558281 
L 252.758352 158.116067 
L 253.088608 158.358281 
L 256.14017 160.511092 
L 257.097 161.158281 
L 259.521989 162.737206 
L 261.479799 163.958281 
L 262.903807 164.813837 
L 266.285625 166.758281 
L 266.285625 166.758281 
L 269.667443 168.566317 
L 271.608146 169.558281 
L 273.049261 170.269269 
L 276.43108 171.870112 
L 277.503787 172.358281 
L 279.812898 173.373794 
L 283.194716 174.797781 
L 284.083306 175.158281 
L 286.576534 176.136889 
L 289.958352 177.409062 
L 291.475242 177.958281 
L 293.34017 178.61225 
L 296.721989 179.753398 
L 299.829034 180.758281 
L 300.103807 180.844435 
L 303.485625 181.871918 
L 306.867443 182.857502 
L 309.365453 183.558281 
L 310.249261 183.798982 
L 313.63108 184.690984 
L 317.012898 185.548567 
L 320.331482 186.358281 
L 320.394716 186.373278 
L 323.776534 187.153073 
L 327.158352 187.90435 
L 330.54017 188.628552 
L 333.099384 189.158281 
L 333.921989 189.324041 
L 337.303807 189.986259 
L 340.685625 190.625814 
L 344.067443 191.243784 
L 347.449261 191.841185 
L 348.130322 191.958281 
L 350.83108 192.411094 
L 354.212898 192.96075 
L 357.594716 193.492993 
L 360.976534 194.008593 
L 364.358352 194.508281 
L 366.097573 194.758281 
L 367.74017 194.988869 
L 371.121989 195.451088 
L 374.503807 195.8997 
L 377.885625 196.33527 
L 381.267443 196.758332 
L 384.649261 197.169392 
L 387.940391 197.558281 
L 388.03108 197.568763 
L 391.412898 197.951122 
L 394.794716 198.32311 
L 398.176534 198.685126 
L 401.558352 199.03755 
L 404.94017 199.380742 
L 408.321989 199.715046 
L 411.703807 200.040789 
L 415.085625 200.358281 
" clip-path="url(#peb943be4b2)" style="fill: none; stroke: #ffc0cb; stroke-width: 0.5"/>
    <path d="M 223.777195 15.558281 
L 224.407279 18.358281 
L 225.054328 21.158281 
L 225.703807 23.894679 
L 225.719219 23.958281 
L 226.412171 26.758281 
L 227.124584 29.558281 
L 227.857238 32.358281 
L 228.610956 35.158281 
L 229.085625 36.876463 
L 229.391095 37.958281 
L 230.201625 40.758281 
L 231.0365 43.558281 
L 231.896761 46.358281 
L 232.467443 48.165215 
L 232.788334 49.158281 
L 233.716832 51.958281 
L 234.674869 54.758281 
L 235.663779 57.558281 
L 235.849261 58.07038 
L 236.698029 60.358281 
L 237.769716 63.158281 
L 238.877589 65.958281 
L 239.23108 66.827561 
L 240.035952 68.758281 
L 241.240555 71.558281 
L 242.48783 74.358281 
L 242.612898 74.631719 
L 243.79873 77.158281 
L 245.1598 79.958281 
L 245.994716 81.621255 
L 246.580898 82.758281 
L 248.070001 85.558281 
L 249.376534 87.927753 
L 249.620477 88.358281 
L 251.254148 91.158281 
L 252.758352 93.640496 
L 252.956391 93.958281 
L 254.753901 96.758281 
L 256.14017 98.838192 
L 256.634125 99.558281 
L 258.618025 102.358281 
L 259.521989 103.590321 
L 260.707019 105.158281 
L 262.903807 107.958281 
L 262.903807 107.958281 
L 265.237862 110.758281 
L 266.285625 111.969918 
L 267.702422 113.558281 
L 269.667443 115.683281 
L 270.311599 116.358281 
L 273.049261 119.127256 
L 273.080933 119.158281 
L 276.034277 121.958281 
L 276.43108 122.321682 
L 279.181061 124.758281 
L 279.812898 125.299298 
L 282.54128 127.558281 
L 283.194716 128.081415 
L 286.137622 130.358281 
L 286.576534 130.686817 
L 289.958352 133.132059 
L 289.995824 133.158281 
L 293.34017 135.424948 
L 294.15543 135.958281 
L 296.721989 137.585234 
L 298.640402 138.758281 
L 300.103807 139.625784 
L 303.485625 141.558281 
L 303.485625 141.558281 
L 306.867443 143.377127 
L 308.761213 144.358281 
L 310.249261 145.106724 
L 313.63108 146.749308 
L 314.500797 147.158281 
L 317.012898 148.306053 
L 320.394716 149.794314 
L 320.778535 149.958281 
L 323.776534 151.203698 
L 327.158352 152.556307 
L 327.678341 152.758281 
L 330.54017 153.840034 
L 333.921989 155.072948 
L 335.29528 155.558281 
L 337.303807 156.249555 
L 340.685625 157.376463 
L 343.737188 158.358281 
L 344.067443 158.461832 
L 347.449261 159.494522 
L 350.688859 160.449938 
M 405.432468 172.425882 
L 408.321989 172.896022 
L 411.703807 173.431751 
L 415.085625 173.953433 
" clip-path="url(#peb943be4b2)" style="fill: none; stroke: #ffc0cb; stroke-width: 0.5"/>
    <path d="M 260.567278 15.558281 
L 261.563897 18.358281 
L 262.588412 21.158281 
L 262.903807 22.000874 
L 263.651836 23.958281 
L 264.750223 26.758281 
L 265.880618 29.558281 
L 266.285625 30.537772 
L 267.054657 32.358281 
L 268.269566 35.158281 
L 269.521365 37.958281 
L 269.667443 38.277656 
L 270.827407 40.758281 
L 272.176376 43.558281 
L 273.049261 45.320239 
L 273.575269 46.358281 
L 275.031707 49.158281 
L 276.43108 51.765178 
L 276.537161 51.958281 
L 278.112768 54.758281 
L 279.502059 57.146744 
M 315.628377 99.519784 
L 315.674874 99.558281 
L 317.012898 100.634681 
L 319.218905 102.358281 
L 320.394716 103.251271 
L 322.981215 105.158281 
L 323.776534 105.72849 
L 326.981575 107.958281 
L 327.158352 108.077921 
L 330.54017 110.303716 
L 331.251753 110.758281 
L 333.921989 112.418868 
L 335.811877 113.558281 
L 337.303807 114.434251 
L 340.685625 116.358281 
L 340.685625 116.358281 
L 344.067443 118.184908 
L 345.928147 119.158281 
L 347.449261 119.93399 
L 350.83108 121.607275 
L 351.560247 121.958281 
L 354.212898 123.203878 
L 357.594716 124.740417 
L 357.635016 124.758281 
L 360.976534 126.204047 
L 364.2135 127.558281 
L 364.358352 127.617448 
L 367.74017 128.965916 
L 371.121989 130.27045 
L 371.355217 130.358281 
L 374.503807 131.516902 
L 377.885625 132.72277 
L 379.139365 133.158281 
L 381.267443 133.880993 
L 384.649261 134.997881 
L 387.645341 135.958281 
L 388.03108 136.079228 
L 391.412898 137.115663 
L 394.794716 138.121556 
L 396.993513 138.758281 
L 398.176534 139.093609 
L 401.558352 140.029528 
L 404.94017 140.938945 
L 407.304312 141.558281 
L 408.321989 141.819414 
L 411.703807 142.667669 
L 415.085625 143.492827 
" clip-path="url(#peb943be4b2)" style="fill: none; stroke: #ffc0cb; stroke-width: 0.5"/>
    <path d="M 303.485625 15.558281 
L 305.019486 18.358281 
L 306.597947 21.158281 
L 306.867443 21.625967 
L 308.239545 23.958281 
L 309.9336 26.758281 
L 310.249261 27.268385 
L 311.6966 29.558281 
L 313.517766 32.358281 
L 313.63108 32.528716 
L 315.417562 35.158281 
L 317.012898 37.439881 
L 317.383383 37.958281 
L 319.432777 40.758281 
L 320.394716 42.038027 
L 321.56326 43.558281 
L 323.776534 46.358281 
L 323.776534 46.358281 
L 326.092738 49.158281 
L 327.158352 50.411424 
L 328.504495 51.958281 
L 328.650087 52.121091 
M 371.755961 87.621937 
L 372.99027 88.358281 
L 374.503807 89.240564 
L 377.885625 91.158281 
L 377.885625 91.158281 
L 381.267443 92.990777 
L 383.103594 93.958281 
L 384.649261 94.754726 
L 388.03108 96.451536 
L 388.657199 96.758281 
L 391.412898 98.079151 
L 394.588866 99.558281 
L 394.794716 99.6521 
L 398.176534 101.159947 
L 400.942253 102.358281 
L 401.558352 102.619635 
L 404.94017 104.02224 
L 407.757122 105.158281 
L 408.321989 105.381412 
L 411.703807 106.68831 
L 415.085625 107.958281 
" clip-path="url(#peb943be4b2)" style="fill: none; stroke: #ffc0cb; stroke-width: 0.5"/>
    <path d="M 354.212898 15.558281 
L 356.523196 18.358281 
L 357.594716 19.625444 
L 358.917755 21.158281 
L 360.976534 23.486399 
L 361.402564 23.958281 
L 361.69398 24.273861 
M 404.686308 59.844846 
L 404.94017 60.005547 
L 405.510107 60.358281 
L 408.321989 62.062862 
L 410.173338 63.158281 
L 411.703807 64.045453 
L 415.085625 65.958281 
" clip-path="url(#peb943be4b2)" style="fill: none; stroke: #ffc0cb; stroke-width: 0.5"/>
    <path clip-path="url(#peb943be4b2)" style="fill: none; stroke: #ffc0cb; stroke-width: 0.5"/>
   </g>
   <g id="patch_3">
    <path d="M 80.285625 292.758281 
L 80.285625 15.558281 
" style="fill: none; stroke: #000000; stroke-width: 0.8; stroke-linejoin: miter; stroke-linecap: square"/>
   </g>
   <g id="patch_4">
    <path d="M 415.085625 292.758281 
L 415.085625 15.558281 
" style="fill: none; stroke: #000000; stroke-width: 0.8; stroke-linejoin: miter; stroke-linecap: square"/>
   </g>
   <g id="patch_5">
    <path d="M 80.285625 292.758281 
L 415.085625 292.758281 
" style="fill: none; stroke: #000000; stroke-width: 0.8; stroke-linejoin: miter; stroke-linecap: square"/>
   </g>
   <g id="patch_6">
    <path d="M 80.285625 15.558281 
L 415.085625 15.558281 
" style="fill: none; stroke: #000000; stroke-width: 0.8; stroke-linejoin: miter; stroke-linecap: square"/>
   </g>
   <g id="text_9">
    <g clip-path="url(#peb943be4b2)">
     <!-- 0.00 -->
     <g style="fill: #ffc0cb" transform="translate(74.215 83.466094) rotate(-270) scale(0.22 -0.22)">
      <use xlink:href="#DejaVuSans-30"/>
      <use xlink:href="#DejaVuSans-2e" x="63.623047"/>
      <use xlink:href="#DejaVuSans-30" x="95.410156"/>
      <use xlink:href="#DejaVuSans-30" x="159.033203"/>
     </g>
    </g>
   </g>
   <g id="text_10">
    <g clip-path="url(#peb943be4b2)">
     <!-- 0.06 -->
     <g style="fill: #ffc0cb" transform="translate(102.585861 268.2131) rotate(-339.0792) scale(0.22 -0.22)">
      <use xlink:href="#DejaVuSans-30"/>
      <use xlink:href="#DejaVuSans-2e" x="63.623047"/>
      <use xlink:href="#DejaVuSans-30" x="95.410156"/>
      <use xlink:href="#DejaVuSans-36" x="159.033203"/>
     </g>
    </g>
   </g>
   <g id="text_11">
    <g clip-path="url(#peb943be4b2)">
     <!-- 0.12 -->
     <g style="fill: #ffc0cb" transform="translate(360.081076 267.364561) rotate(-359.263605) scale(0.22 -0.22)">
      <defs>
       <path id="DejaVuSans-31" d="M 794 531 
L 1825 531 
L 1825 4091 
L 703 3866 
L 703 4441 
L 1819 4666 
L 2450 4666 
L 2450 531 
L 3481 531 
L 3481 0 
L 794 0 
L 794 531 
z
" transform="scale(0.015625)"/>
       <path id="DejaVuSans-32" d="M 1228 531 
L 3431 531 
L 3431 0 
L 469 0 
L 469 531 
Q 828 903 1448 1529 
Q 2069 2156 2228 2338 
Q 2531 2678 2651 2914 
Q 2772 3150 2772 3378 
Q 2772 3750 2511 3984 
Q 2250 4219 1831 4219 
Q 1534 4219 1204 4116 
Q 875 4013 500 3803 
L 500 4441 
Q 881 4594 1212 4672 
Q 1544 4750 1819 4750 
Q 2544 4750 2975 4387 
Q 3406 4025 3406 3419 
Q 3406 3131 3298 2873 
Q 3191 2616 2906 2266 
Q 2828 2175 2409 1742 
Q 1991 1309 1228 531 
z
" transform="scale(0.015625)"/>
      </defs>
      <use xlink:href="#DejaVuSans-30"/>
      <use xlink:href="#DejaVuSans-2e" x="63.623047"/>
      <use xlink:href="#DejaVuSans-31" x="95.410156"/>
      <use xlink:href="#DejaVuSans-32" x="159.033203"/>
     </g>
    </g>
   </g>
   <g id="text_12">
    <g clip-path="url(#peb943be4b2)">
     <!-- 0.18 -->
     <g style="fill: #ffc0cb" transform="translate(136.136958 78.598656) rotate(-275.531454) scale(0.22 -0.22)">
      <defs>
       <path id="DejaVuSans-38" d="M 2034 2216 
Q 1584 2216 1326 1975 
Q 1069 1734 1069 1313 
Q 1069 891 1326 650 
Q 1584 409 2034 409 
Q 2484 409 2743 651 
Q 3003 894 3003 1313 
Q 3003 1734 2745 1975 
Q 2488 2216 2034 2216 
z
M 1403 2484 
Q 997 2584 770 2862 
Q 544 3141 544 3541 
Q 544 4100 942 4425 
Q 1341 4750 2034 4750 
Q 2731 4750 3128 4425 
Q 3525 4100 3525 3541 
Q 3525 3141 3298 2862 
Q 3072 2584 2669 2484 
Q 3125 2378 3379 2068 
Q 3634 1759 3634 1313 
Q 3634 634 3220 271 
Q 2806 -91 2034 -91 
Q 1263 -91 848 271 
Q 434 634 434 1313 
Q 434 1759 690 2068 
Q 947 2378 1403 2484 
z
M 1172 3481 
Q 1172 3119 1398 2916 
Q 1625 2713 2034 2713 
Q 2441 2713 2670 2916 
Q 2900 3119 2900 3481 
Q 2900 3844 2670 4047 
Q 2441 4250 2034 4250 
Q 1625 4250 1398 4047 
Q 1172 3844 1172 3481 
z
" transform="scale(0.015625)"/>
      </defs>
      <use xlink:href="#DejaVuSans-30"/>
      <use xlink:href="#DejaVuSans-2e" x="63.623047"/>
      <use xlink:href="#DejaVuSans-31" x="95.410156"/>
      <use xlink:href="#DejaVuSans-38" x="159.033203"/>
     </g>
    </g>
   </g>
   <g id="text_13">
    <g clip-path="url(#peb943be4b2)">
     <!-- 0.24 -->
     <g style="fill: #ffc0cb" transform="translate(244.434891 206.792121) rotate(-345.636252) scale(0.22 -0.22)">
      <defs>
       <path id="DejaVuSans-34" d="M 2419 4116 
L 825 1625 
L 2419 1625 
L 2419 4116 
z
M 2253 4666 
L 3047 4666 
L 3047 1625 
L 3713 1625 
L 3713 1100 
L 3047 1100 
L 3047 0 
L 2419 0 
L 2419 1100 
L 313 1100 
L 313 1709 
L 2253 4666 
z
" transform="scale(0.015625)"/>
      </defs>
      <use xlink:href="#DejaVuSans-30"/>
      <use xlink:href="#DejaVuSans-2e" x="63.623047"/>
      <use xlink:href="#DejaVuSans-32" x="95.410156"/>
      <use xlink:href="#DejaVuSans-34" x="159.033203"/>
     </g>
    </g>
   </g>
   <g id="text_14">
    <g clip-path="url(#peb943be4b2)">
     <!-- 0.30 -->
     <g style="fill: #ffc0cb" transform="translate(194.88236 72.959125) rotate(-289.538838) scale(0.22 -0.22)">
      <use xlink:href="#DejaVuSans-30"/>
      <use xlink:href="#DejaVuSans-2e" x="63.623047"/>
      <use xlink:href="#DejaVuSans-33" x="95.410156"/>
      <use xlink:href="#DejaVuSans-30" x="159.033203"/>
     </g>
    </g>
   </g>
   <g id="text_15">
    <g clip-path="url(#peb943be4b2)">
     <!-- 0.36 -->
     <g style="fill: #ffc0cb" transform="translate(352.662617 167.951605) rotate(-347.716189) scale(0.22 -0.22)">
      <use xlink:href="#DejaVuSans-30"/>
      <use xlink:href="#DejaVuSans-2e" x="63.623047"/>
      <use xlink:href="#DejaVuSans-33" x="95.410156"/>
      <use xlink:href="#DejaVuSans-36" x="159.033203"/>
     </g>
    </g>
   </g>
   <g id="text_16">
    <g clip-path="url(#peb943be4b2)">
     <!-- 0.42 -->
     <g style="fill: #ffc0cb" transform="translate(275.162883 65.246926) rotate(-310.416467) scale(0.22 -0.22)">
      <use xlink:href="#DejaVuSans-30"/>
      <use xlink:href="#DejaVuSans-2e" x="63.623047"/>
      <use xlink:href="#DejaVuSans-34" x="95.410156"/>
      <use xlink:href="#DejaVuSans-32" x="159.033203"/>
     </g>
    </g>
   </g>
   <g id="text_17">
    <g clip-path="url(#peb943be4b2)">
     <!-- 0.48 -->
     <g style="fill: #ffc0cb" transform="translate(326.039019 60.687351) rotate(-320.559832) scale(0.22 -0.22)">
      <use xlink:href="#DejaVuSans-30"/>
      <use xlink:href="#DejaVuSans-2e" x="63.623047"/>
      <use xlink:href="#DejaVuSans-34" x="95.410156"/>
      <use xlink:href="#DejaVuSans-38" x="159.033203"/>
     </g>
    </g>
   </g>
   <g id="text_18">
    <g clip-path="url(#peb943be4b2)">
     <!-- 0.54 -->
     <g style="fill: #ffc0cb" transform="translate(359.202035 32.63314) rotate(-320.423352) scale(0.22 -0.22)">
      <defs>
       <path id="DejaVuSans-35" d="M 691 4666 
L 3169 4666 
L 3169 4134 
L 1269 4134 
L 1269 2991 
Q 1406 3038 1543 3061 
Q 1681 3084 1819 3084 
Q 2600 3084 3056 2656 
Q 3513 2228 3513 1497 
Q 3513 744 3044 326 
Q 2575 -91 1722 -91 
Q 1428 -91 1123 -41 
Q 819 9 494 109 
L 494 744 
Q 775 591 1075 516 
Q 1375 441 1709 441 
Q 2250 441 2565 725 
Q 2881 1009 2881 1497 
Q 2881 1984 2565 2268 
Q 2250 2553 1709 2553 
Q 1456 2553 1204 2497 
Q 953 2441 691 2322 
L 691 4666 
z
" transform="scale(0.015625)"/>
      </defs>
      <use xlink:href="#DejaVuSans-30"/>
      <use xlink:href="#DejaVuSans-2e" x="63.623047"/>
      <use xlink:href="#DejaVuSans-35" x="95.410156"/>
      <use xlink:href="#DejaVuSans-34" x="159.033203"/>
     </g>
    </g>
   </g>
   <g id="legend_1">
    <g id="patch_7">
     <path d="M 431.033625 235.058719 
L 593.562375 235.058719 
Q 597.162375 235.058719 597.162375 231.458719 
L 597.162375 28.158281 
Q 597.162375 24.558281 593.562375 24.558281 
L 431.033625 24.558281 
Q 427.433625 24.558281 427.433625 28.158281 
L 427.433625 231.458719 
Q 427.433625 235.058719 431.033625 235.058719 
z
" style="fill: #ffffff; opacity: 0.8; stroke: #cccccc; stroke-linejoin: miter"/>
    </g>
    <g id="line2d_7">
     <defs>
      <path id="ma2eddfb92d" d="M 0 5 
C 1.326016 5 2.597899 4.473168 3.535534 3.535534 
C 4.473168 2.597899 5 1.326016 5 0 
C 5 -1.326016 4.473168 -2.597899 3.535534 -3.535534 
C 2.597899 -4.473168 1.326016 -5 0 -5 
C -1.326016 -5 -2.597899 -4.473168 -3.535534 -3.535534 
C -4.473168 -2.597899 -5 -1.326016 -5 0 
C -5 1.326016 -4.473168 2.597899 -3.535534 3.535534 
C -2.597899 4.473168 -1.326016 5 0 5 
z
" style="stroke: #ff0000"/>
     </defs>
     <g>
      <use xlink:href="#ma2eddfb92d" x="452.633625" y="51.085219" style="fill: #ff0000; stroke: #ff0000"/>
     </g>
    </g>
    <g id="text_19">
     <!-- AlphaFold -->
     <g transform="translate(485.033625 45.435469) scale(0.18 -0.18)">
      <defs>
       <path id="DejaVuSans-41" d="M 2188 4044 
L 1331 1722 
L 3047 1722 
L 2188 4044 
z
M 1831 4666 
L 2547 4666 
L 4325 0 
L 3669 0 
L 3244 1197 
L 1141 1197 
L 716 0 
L 50 0 
L 1831 4666 
z
" transform="scale(0.015625)"/>
       <path id="DejaVuSans-70" d="M 1159 525 
L 1159 -1331 
L 581 -1331 
L 581 3500 
L 1159 3500 
L 1159 2969 
Q 1341 3281 1617 3432 
Q 1894 3584 2278 3584 
Q 2916 3584 3314 3078 
Q 3713 2572 3713 1747 
Q 3713 922 3314 415 
Q 2916 -91 2278 -91 
Q 1894 -91 1617 61 
Q 1341 213 1159 525 
z
M 3116 1747 
Q 3116 2381 2855 2742 
Q 2594 3103 2138 3103 
Q 1681 3103 1420 2742 
Q 1159 2381 1159 1747 
Q 1159 1113 1420 752 
Q 1681 391 2138 391 
Q 2594 391 2855 752 
Q 3116 1113 3116 1747 
z
" transform="scale(0.015625)"/>
       <path id="DejaVuSans-68" d="M 3513 2113 
L 3513 0 
L 2938 0 
L 2938 2094 
Q 2938 2591 2744 2837 
Q 2550 3084 2163 3084 
Q 1697 3084 1428 2787 
Q 1159 2491 1159 1978 
L 1159 0 
L 581 0 
L 581 4863 
L 1159 4863 
L 1159 2956 
Q 1366 3272 1645 3428 
Q 1925 3584 2291 3584 
Q 2894 3584 3203 3211 
Q 3513 2838 3513 2113 
z
" transform="scale(0.015625)"/>
       <path id="DejaVuSans-46" d="M 628 4666 
L 3309 4666 
L 3309 4134 
L 1259 4134 
L 1259 2759 
L 3109 2759 
L 3109 2228 
L 1259 2228 
L 1259 0 
L 628 0 
L 628 4666 
z
" transform="scale(0.015625)"/>
       <path id="DejaVuSans-64" d="M 2906 2969 
L 2906 4863 
L 3481 4863 
L 3481 0 
L 2906 0 
L 2906 525 
Q 2725 213 2448 61 
Q 2172 -91 1784 -91 
Q 1150 -91 751 415 
Q 353 922 353 1747 
Q 353 2572 751 3078 
Q 1150 3584 1784 3584 
Q 2172 3584 2448 3432 
Q 2725 3281 2906 2969 
z
M 947 1747 
Q 947 1113 1208 752 
Q 1469 391 1925 391 
Q 2381 391 2643 752 
Q 2906 1113 2906 1747 
Q 2906 2381 2643 2742 
Q 2381 3103 1925 3103 
Q 1469 3103 1208 2742 
Q 947 2381 947 1747 
z
" transform="scale(0.015625)"/>
      </defs>
      <use xlink:href="#DejaVuSans-41"/>
      <use xlink:href="#DejaVuSans-6c" x="68.408203"/>
      <use xlink:href="#DejaVuSans-70" x="96.191406"/>
      <use xlink:href="#DejaVuSans-68" x="159.667969"/>
      <use xlink:href="#DejaVuSans-61" x="223.046875"/>
      <use xlink:href="#DejaVuSans-46" x="284.326172"/>
      <use xlink:href="#DejaVuSans-6f" x="338.220703"/>
      <use xlink:href="#DejaVuSans-6c" x="399.402344"/>
      <use xlink:href="#DejaVuSans-64" x="427.185547"/>
     </g>
     <!-- Multimer -->
     <g transform="translate(485.033625 65.591531) scale(0.18 -0.18)">
      <defs>
       <path id="DejaVuSans-4d" d="M 628 4666 
L 1569 4666 
L 2759 1491 
L 3956 4666 
L 4897 4666 
L 4897 0 
L 4281 0 
L 4281 4097 
L 3078 897 
L 2444 897 
L 1241 4097 
L 1241 0 
L 628 0 
L 628 4666 
z
" transform="scale(0.015625)"/>
       <path id="DejaVuSans-75" d="M 544 1381 
L 544 3500 
L 1119 3500 
L 1119 1403 
Q 1119 906 1312 657 
Q 1506 409 1894 409 
Q 2359 409 2629 706 
Q 2900 1003 2900 1516 
L 2900 3500 
L 3475 3500 
L 3475 0 
L 2900 0 
L 2900 538 
Q 2691 219 2414 64 
Q 2138 -91 1772 -91 
Q 1169 -91 856 284 
Q 544 659 544 1381 
z
M 1991 3584 
L 1991 3584 
z
" transform="scale(0.015625)"/>
       <path id="DejaVuSans-74" d="M 1172 4494 
L 1172 3500 
L 2356 3500 
L 2356 3053 
L 1172 3053 
L 1172 1153 
Q 1172 725 1289 603 
Q 1406 481 1766 481 
L 2356 481 
L 2356 0 
L 1766 0 
Q 1100 0 847 248 
Q 594 497 594 1153 
L 594 3053 
L 172 3053 
L 172 3500 
L 594 3500 
L 594 4494 
L 1172 4494 
z
" transform="scale(0.015625)"/>
       <path id="DejaVuSans-6d" d="M 3328 2828 
Q 3544 3216 3844 3400 
Q 4144 3584 4550 3584 
Q 5097 3584 5394 3201 
Q 5691 2819 5691 2113 
L 5691 0 
L 5113 0 
L 5113 2094 
Q 5113 2597 4934 2840 
Q 4756 3084 4391 3084 
Q 3944 3084 3684 2787 
Q 3425 2491 3425 1978 
L 3425 0 
L 2847 0 
L 2847 2094 
Q 2847 2600 2669 2842 
Q 2491 3084 2119 3084 
Q 1678 3084 1418 2786 
Q 1159 2488 1159 1978 
L 1159 0 
L 581 0 
L 581 3500 
L 1159 3500 
L 1159 2956 
Q 1356 3278 1631 3431 
Q 1906 3584 2284 3584 
Q 2666 3584 2933 3390 
Q 3200 3197 3328 2828 
z
" transform="scale(0.015625)"/>
      </defs>
      <use xlink:href="#DejaVuSans-4d"/>
      <use xlink:href="#DejaVuSans-75" x="86.279297"/>
      <use xlink:href="#DejaVuSans-6c" x="149.658203"/>
      <use xlink:href="#DejaVuSans-74" x="177.441406"/>
      <use xlink:href="#DejaVuSans-69" x="216.650391"/>
      <use xlink:href="#DejaVuSans-6d" x="244.433594"/>
      <use xlink:href="#DejaVuSans-65" x="341.845703"/>
      <use xlink:href="#DejaVuSans-72" x="403.369141"/>
     </g>
    </g>
    <g id="line2d_8">
     <defs>
      <path id="m93dd61970e" d="M 0 5 
C 1.326016 5 2.597899 4.473168 3.535534 3.535534 
C 4.473168 2.597899 5 1.326016 5 0 
C 5 -1.326016 4.473168 -2.597899 3.535534 -3.535534 
C 2.597899 -4.473168 1.326016 -5 0 -5 
C -1.326016 -5 -2.597899 -4.473168 -3.535534 -3.535534 
C -4.473168 -2.597899 -5 -1.326016 -5 0 
C -5 1.326016 -4.473168 2.597899 -3.535534 3.535534 
C -2.597899 4.473168 -1.326016 5 0 5 
z
" style="stroke: #ffa500"/>
     </defs>
     <g>
      <use xlink:href="#m93dd61970e" x="452.633625" y="85.712156" style="fill: #ffa500; stroke: #ffa500"/>
     </g>
    </g>
    <g id="text_20">
     <!-- ESMFold -->
     <g transform="translate(485.033625 92.012156) scale(0.18 -0.18)">
      <defs>
       <path id="DejaVuSans-45" d="M 628 4666 
L 3578 4666 
L 3578 4134 
L 1259 4134 
L 1259 2753 
L 3481 2753 
L 3481 2222 
L 1259 2222 
L 1259 531 
L 3634 531 
L 3634 0 
L 628 0 
L 628 4666 
z
" transform="scale(0.015625)"/>
       <path id="DejaVuSans-53" d="M 3425 4513 
L 3425 3897 
Q 3066 4069 2747 4153 
Q 2428 4238 2131 4238 
Q 1616 4238 1336 4038 
Q 1056 3838 1056 3469 
Q 1056 3159 1242 3001 
Q 1428 2844 1947 2747 
L 2328 2669 
Q 3034 2534 3370 2195 
Q 3706 1856 3706 1288 
Q 3706 609 3251 259 
Q 2797 -91 1919 -91 
Q 1588 -91 1214 -16 
Q 841 59 441 206 
L 441 856 
Q 825 641 1194 531 
Q 1563 422 1919 422 
Q 2459 422 2753 634 
Q 3047 847 3047 1241 
Q 3047 1584 2836 1778 
Q 2625 1972 2144 2069 
L 1759 2144 
Q 1053 2284 737 2584 
Q 422 2884 422 3419 
Q 422 4038 858 4394 
Q 1294 4750 2059 4750 
Q 2388 4750 2728 4690 
Q 3069 4631 3425 4513 
z
" transform="scale(0.015625)"/>
      </defs>
      <use xlink:href="#DejaVuSans-45"/>
      <use xlink:href="#DejaVuSans-53" x="63.183594"/>
      <use xlink:href="#DejaVuSans-4d" x="126.660156"/>
      <use xlink:href="#DejaVuSans-46" x="212.939453"/>
      <use xlink:href="#DejaVuSans-6f" x="266.833984"/>
      <use xlink:href="#DejaVuSans-6c" x="328.015625"/>
      <use xlink:href="#DejaVuSans-64" x="355.798828"/>
     </g>
    </g>
    <g id="line2d_9">
     <defs>
      <path id="mb381d5bfd7" d="M 0 5 
C 1.326016 5 2.597899 4.473168 3.535534 3.535534 
C 4.473168 2.597899 5 1.326016 5 0 
C 5 -1.326016 4.473168 -2.597899 3.535534 -3.535534 
C 2.597899 -4.473168 1.326016 -5 0 -5 
C -1.326016 -5 -2.597899 -4.473168 -3.535534 -3.535534 
C -4.473168 -2.597899 -5 -1.326016 -5 0 
C -5 1.326016 -4.473168 2.597899 -3.535534 3.535534 
C -2.597899 4.473168 -1.326016 5 0 5 
z
" style="stroke: #ffff00"/>
     </defs>
     <g>
      <use xlink:href="#mb381d5bfd7" x="452.633625" y="112.132781" style="fill: #ffff00; stroke: #ffff00"/>
     </g>
    </g>
    <g id="text_21">
     <!-- DiffDock-PP -->
     <g transform="translate(485.033625 118.432781) scale(0.18 -0.18)">
      <defs>
       <path id="DejaVuSans-44" d="M 1259 4147 
L 1259 519 
L 2022 519 
Q 2988 519 3436 956 
Q 3884 1394 3884 2338 
Q 3884 3275 3436 3711 
Q 2988 4147 2022 4147 
L 1259 4147 
z
M 628 4666 
L 1925 4666 
Q 3281 4666 3915 4102 
Q 4550 3538 4550 2338 
Q 4550 1131 3912 565 
Q 3275 0 1925 0 
L 628 0 
L 628 4666 
z
" transform="scale(0.015625)"/>
       <path id="DejaVuSans-66" d="M 2375 4863 
L 2375 4384 
L 1825 4384 
Q 1516 4384 1395 4259 
Q 1275 4134 1275 3809 
L 1275 3500 
L 2222 3500 
L 2222 3053 
L 1275 3053 
L 1275 0 
L 697 0 
L 697 3053 
L 147 3053 
L 147 3500 
L 697 3500 
L 697 3744 
Q 697 4328 969 4595 
Q 1241 4863 1831 4863 
L 2375 4863 
z
" transform="scale(0.015625)"/>
       <path id="DejaVuSans-6b" d="M 581 4863 
L 1159 4863 
L 1159 1991 
L 2875 3500 
L 3609 3500 
L 1753 1863 
L 3688 0 
L 2938 0 
L 1159 1709 
L 1159 0 
L 581 0 
L 581 4863 
z
" transform="scale(0.015625)"/>
       <path id="DejaVuSans-2d" d="M 313 2009 
L 1997 2009 
L 1997 1497 
L 313 1497 
L 313 2009 
z
" transform="scale(0.015625)"/>
      </defs>
      <use xlink:href="#DejaVuSans-44"/>
      <use xlink:href="#DejaVuSans-69" x="77.001953"/>
      <use xlink:href="#DejaVuSans-66" x="104.785156"/>
      <use xlink:href="#DejaVuSans-66" x="139.990234"/>
      <use xlink:href="#DejaVuSans-44" x="175.195312"/>
      <use xlink:href="#DejaVuSans-6f" x="252.197266"/>
      <use xlink:href="#DejaVuSans-63" x="313.378906"/>
      <use xlink:href="#DejaVuSans-6b" x="368.359375"/>
      <use xlink:href="#DejaVuSans-2d" x="426.269531"/>
      <use xlink:href="#DejaVuSans-50" x="462.353516"/>
      <use xlink:href="#DejaVuSans-50" x="522.65625"/>
     </g>
    </g>
    <g id="line2d_10">
     <defs>
      <path id="m6de558ed8f" d="M 0 5 
C 1.326016 5 2.597899 4.473168 3.535534 3.535534 
C 4.473168 2.597899 5 1.326016 5 0 
C 5 -1.326016 4.473168 -2.597899 3.535534 -3.535534 
C 2.597899 -4.473168 1.326016 -5 0 -5 
C -1.326016 -5 -2.597899 -4.473168 -3.535534 -3.535534 
C -4.473168 -2.597899 -5 -1.326016 -5 0 
C -5 1.326016 -4.473168 2.597899 -3.535534 3.535534 
C -2.597899 4.473168 -1.326016 5 0 5 
z
" style="stroke: #00ff00"/>
     </defs>
     <g>
      <use xlink:href="#m6de558ed8f" x="452.633625" y="138.553406" style="fill: #00ff00; stroke: #00ff00"/>
     </g>
    </g>
    <g id="text_22">
     <!-- DELPHI -->
     <g transform="translate(485.033625 144.853406) scale(0.18 -0.18)">
      <defs>
       <path id="DejaVuSans-4c" d="M 628 4666 
L 1259 4666 
L 1259 531 
L 3531 531 
L 3531 0 
L 628 0 
L 628 4666 
z
" transform="scale(0.015625)"/>
       <path id="DejaVuSans-48" d="M 628 4666 
L 1259 4666 
L 1259 2753 
L 3553 2753 
L 3553 4666 
L 4184 4666 
L 4184 0 
L 3553 0 
L 3553 2222 
L 1259 2222 
L 1259 0 
L 628 0 
L 628 4666 
z
" transform="scale(0.015625)"/>
       <path id="DejaVuSans-49" d="M 628 4666 
L 1259 4666 
L 1259 0 
L 628 0 
L 628 4666 
z
" transform="scale(0.015625)"/>
      </defs>
      <use xlink:href="#DejaVuSans-44"/>
      <use xlink:href="#DejaVuSans-45" x="77.001953"/>
      <use xlink:href="#DejaVuSans-4c" x="140.185547"/>
      <use xlink:href="#DejaVuSans-50" x="195.898438"/>
      <use xlink:href="#DejaVuSans-48" x="256.201172"/>
      <use xlink:href="#DejaVuSans-49" x="331.396484"/>
     </g>
    </g>
    <g id="line2d_11">
     <defs>
      <path id="me7dd218245" d="M 0 5 
C 1.326016 5 2.597899 4.473168 3.535534 3.535534 
C 4.473168 2.597899 5 1.326016 5 0 
C 5 -1.326016 4.473168 -2.597899 3.535534 -3.535534 
C 2.597899 -4.473168 1.326016 -5 0 -5 
C -1.326016 -5 -2.597899 -4.473168 -3.535534 -3.535534 
C -4.473168 -2.597899 -5 -1.326016 -5 0 
C -5 1.326016 -4.473168 2.597899 -3.535534 3.535534 
C -2.597899 4.473168 -1.326016 5 0 5 
z
" style="stroke: #00ffff"/>
     </defs>
     <g>
      <use xlink:href="#me7dd218245" x="452.633625" y="164.974031" style="fill: #00ffff; stroke: #00ffff"/>
     </g>
    </g>
    <g id="text_23">
     <!-- D-Script -->
     <g transform="translate(485.033625 171.274031) scale(0.18 -0.18)">
      <use xlink:href="#DejaVuSans-44"/>
      <use xlink:href="#DejaVuSans-2d" x="77.001953"/>
      <use xlink:href="#DejaVuSans-53" x="113.085938"/>
      <use xlink:href="#DejaVuSans-63" x="176.5625"/>
      <use xlink:href="#DejaVuSans-72" x="231.542969"/>
      <use xlink:href="#DejaVuSans-69" x="272.65625"/>
      <use xlink:href="#DejaVuSans-70" x="300.439453"/>
      <use xlink:href="#DejaVuSans-74" x="363.916016"/>
     </g>
    </g>
    <g id="line2d_12">
     <defs>
      <path id="m10d16ff0cb" d="M 0 5 
C 1.326016 5 2.597899 4.473168 3.535534 3.535534 
C 4.473168 2.597899 5 1.326016 5 0 
C 5 -1.326016 4.473168 -2.597899 3.535534 -3.535534 
C 2.597899 -4.473168 1.326016 -5 0 -5 
C -1.326016 -5 -2.597899 -4.473168 -3.535534 -3.535534 
C -4.473168 -2.597899 -5 -1.326016 -5 0 
C -5 1.326016 -4.473168 2.597899 -3.535534 3.535534 
C -2.597899 4.473168 -1.326016 5 0 5 
z
" style="stroke: #0000ff"/>
     </defs>
     <g>
      <use xlink:href="#m10d16ff0cb" x="452.633625" y="191.394656" style="fill: #0000ff; stroke: #0000ff"/>
     </g>
    </g>
    <g id="text_24">
     <!-- DLPred -->
     <g transform="translate(485.033625 197.694656) scale(0.18 -0.18)">
      <use xlink:href="#DejaVuSans-44"/>
      <use xlink:href="#DejaVuSans-4c" x="77.001953"/>
      <use xlink:href="#DejaVuSans-50" x="132.714844"/>
      <use xlink:href="#DejaVuSans-72" x="191.267578"/>
      <use xlink:href="#DejaVuSans-65" x="230.130859"/>
      <use xlink:href="#DejaVuSans-64" x="291.654297"/>
     </g>
    </g>
    <g id="line2d_13">
     <defs>
      <path id="m1f29fce30d" d="M 0 5 
C 1.326016 5 2.597899 4.473168 3.535534 3.535534 
C 4.473168 2.597899 5 1.326016 5 0 
C 5 -1.326016 4.473168 -2.597899 3.535534 -3.535534 
C 2.597899 -4.473168 1.326016 -5 0 -5 
C -1.326016 -5 -2.597899 -4.473168 -3.535534 -3.535534 
C -4.473168 -2.597899 -5 -1.326016 -5 0 
C -5 1.326016 -4.473168 2.597899 -3.535534 3.535534 
C -2.597899 4.473168 -1.326016 5 0 5 
z
" style="stroke: #800080"/>
     </defs>
     <g>
      <use xlink:href="#m1f29fce30d" x="452.633625" y="217.815281" style="fill: #800080; stroke: #800080"/>
     </g>
    </g>
    <g id="text_25">
     <!-- ECLAIR -->
     <g transform="translate(485.033625 224.115281) scale(0.18 -0.18)">
      <defs>
       <path id="DejaVuSans-43" d="M 4122 4306 
L 4122 3641 
Q 3803 3938 3442 4084 
Q 3081 4231 2675 4231 
Q 1875 4231 1450 3742 
Q 1025 3253 1025 2328 
Q 1025 1406 1450 917 
Q 1875 428 2675 428 
Q 3081 428 3442 575 
Q 3803 722 4122 1019 
L 4122 359 
Q 3791 134 3420 21 
Q 3050 -91 2638 -91 
Q 1578 -91 968 557 
Q 359 1206 359 2328 
Q 359 3453 968 4101 
Q 1578 4750 2638 4750 
Q 3056 4750 3426 4639 
Q 3797 4528 4122 4306 
z
" transform="scale(0.015625)"/>
      </defs>
      <use xlink:href="#DejaVuSans-45"/>
      <use xlink:href="#DejaVuSans-43" x="63.183594"/>
      <use xlink:href="#DejaVuSans-4c" x="133.007812"/>
      <use xlink:href="#DejaVuSans-41" x="190.970703"/>
      <use xlink:href="#DejaVuSans-49" x="259.378906"/>
      <use xlink:href="#DejaVuSans-52" x="288.871094"/>
     </g>
    </g>
   </g>
   <g id="legend_2">
    <g id="patch_8">
     <path d="M 102.929625 109.220156 
L 306.779625 109.220156 
Q 310.379625 109.220156 310.379625 105.620156 
L 310.379625 28.158281 
Q 310.379625 24.558281 306.779625 24.558281 
L 102.929625 24.558281 
Q 99.329625 24.558281 99.329625 28.158281 
L 99.329625 105.620156 
Q 99.329625 109.220156 102.929625 109.220156 
z
" style="fill: #ffffff; opacity: 0.3; stroke: #cccccc; stroke-linejoin: miter"/>
    </g>
    <g id="line2d_14">
     <defs>
      <path id="me134f015c9" d="M 0 5 
C 1.326016 5 2.597899 4.473168 3.535534 3.535534 
C 4.473168 2.597899 5 1.326016 5 0 
C 5 -1.326016 4.473168 -2.597899 3.535534 -3.535534 
C 2.597899 -4.473168 1.326016 -5 0 -5 
C -1.326016 -5 -2.597899 -4.473168 -3.535534 -3.535534 
C -4.473168 -2.597899 -5 -1.326016 -5 0 
C -5 1.326016 -4.473168 2.597899 -3.535534 3.535534 
C -2.597899 4.473168 -1.326016 5 0 5 
z
" style="stroke: #000000"/>
     </defs>
     <g>
      <use xlink:href="#me134f015c9" x="124.529625" y="39.135469" style="stroke: #000000"/>
     </g>
    </g>
    <g id="text_26">
     <!-- All -->
     <g style="opacity: 0.7" transform="translate(156.929625 45.435469) scale(0.18 -0.18)">
      <use xlink:href="#DejaVuSans-41"/>
      <use xlink:href="#DejaVuSans-6c" x="68.408203"/>
      <use xlink:href="#DejaVuSans-6c" x="96.191406"/>
     </g>
    </g>
    <g id="line2d_15">
     <defs>
      <path id="mbbbee4db08" d="M 0 -5 
L -5 5 
L 5 5 
z
" style="stroke: #000000; stroke-linejoin: miter"/>
     </defs>
     <g>
      <use xlink:href="#mbbbee4db08" x="124.529625" y="65.556094" style="stroke: #000000; stroke-linejoin: miter"/>
     </g>
    </g>
    <g id="text_27">
     <!-- Viral-Human -->
     <g style="opacity: 0.7" transform="translate(156.929625 71.856094) scale(0.18 -0.18)">
      <defs>
       <path id="DejaVuSans-56" d="M 1831 0 
L 50 4666 
L 709 4666 
L 2188 738 
L 3669 4666 
L 4325 4666 
L 2547 0 
L 1831 0 
z
" transform="scale(0.015625)"/>
      </defs>
      <use xlink:href="#DejaVuSans-56"/>
      <use xlink:href="#DejaVuSans-69" x="66.158203"/>
      <use xlink:href="#DejaVuSans-72" x="93.941406"/>
      <use xlink:href="#DejaVuSans-61" x="135.054688"/>
      <use xlink:href="#DejaVuSans-6c" x="196.333984"/>
      <use xlink:href="#DejaVuSans-2d" x="224.117188"/>
      <use xlink:href="#DejaVuSans-48" x="260.201172"/>
      <use xlink:href="#DejaVuSans-75" x="335.396484"/>
      <use xlink:href="#DejaVuSans-6d" x="398.775391"/>
      <use xlink:href="#DejaVuSans-61" x="496.1875"/>
      <use xlink:href="#DejaVuSans-6e" x="557.466797"/>
     </g>
    </g>
    <g id="line2d_16">
     <defs>
      <path id="m6792a52e55" d="M -5 5 
L 5 5 
L 5 -5 
L -5 -5 
z
" style="stroke: #000000; stroke-linejoin: miter"/>
     </defs>
     <g>
      <use xlink:href="#m6792a52e55" x="124.529625" y="91.976719" style="stroke: #000000; stroke-linejoin: miter"/>
     </g>
    </g>
    <g id="text_28">
     <!-- Bacteria-Human -->
     <g style="opacity: 0.7" transform="translate(156.929625 98.276719) scale(0.18 -0.18)">
      <defs>
       <path id="DejaVuSans-42" d="M 1259 2228 
L 1259 519 
L 2272 519 
Q 2781 519 3026 730 
Q 3272 941 3272 1375 
Q 3272 1813 3026 2020 
Q 2781 2228 2272 2228 
L 1259 2228 
z
M 1259 4147 
L 1259 2741 
L 2194 2741 
Q 2656 2741 2882 2914 
Q 3109 3088 3109 3444 
Q 3109 3797 2882 3972 
Q 2656 4147 2194 4147 
L 1259 4147 
z
M 628 4666 
L 2241 4666 
Q 2963 4666 3353 4366 
Q 3744 4066 3744 3513 
Q 3744 3084 3544 2831 
Q 3344 2578 2956 2516 
Q 3422 2416 3680 2098 
Q 3938 1781 3938 1306 
Q 3938 681 3513 340 
Q 3088 0 2303 0 
L 628 0 
L 628 4666 
z
" transform="scale(0.015625)"/>
      </defs>
      <use xlink:href="#DejaVuSans-42"/>
      <use xlink:href="#DejaVuSans-61" x="68.603516"/>
      <use xlink:href="#DejaVuSans-63" x="129.882812"/>
      <use xlink:href="#DejaVuSans-74" x="184.863281"/>
      <use xlink:href="#DejaVuSans-65" x="224.072266"/>
      <use xlink:href="#DejaVuSans-72" x="285.595703"/>
      <use xlink:href="#DejaVuSans-69" x="326.708984"/>
      <use xlink:href="#DejaVuSans-61" x="354.492188"/>
      <use xlink:href="#DejaVuSans-2d" x="415.771484"/>
      <use xlink:href="#DejaVuSans-48" x="451.855469"/>
      <use xlink:href="#DejaVuSans-75" x="527.050781"/>
      <use xlink:href="#DejaVuSans-6d" x="590.429688"/>
      <use xlink:href="#DejaVuSans-61" x="687.841797"/>
      <use xlink:href="#DejaVuSans-6e" x="749.121094"/>
     </g>
    </g>
   </g>
  </g>
 </g>
 <defs>
  <clipPath id="peb943be4b2">
   <rect x="80.285625" y="15.558281" width="334.8" height="277.2"/>
  </clipPath>
 </defs>
</svg>
