<?xml version="1.0" encoding="utf-8" standalone="no"?>
<!DOCTYPE svg PUBLIC "-//W3C//DTD SVG 1.1//EN"
  "http://www.w3.org/Graphics/SVG/1.1/DTD/svg11.dtd">
<svg xmlns:xlink="http://www.w3.org/1999/xlink" width="402.01pt" height="321.8275pt" viewBox="0 0 402.01 321.8275" xmlns="http://www.w3.org/2000/svg" version="1.1">
 <metadata>
  <rdf:RDF xmlns:dc="http://purl.org/dc/elements/1.1/" xmlns:cc="http://creativecommons.org/ns#" xmlns:rdf="http://www.w3.org/1999/02/22-rdf-syntax-ns#">
   <cc:Work>
    <dc:type rdf:resource="http://purl.org/dc/dcmitype/StillImage"/>
    <dc:date>2024-06-26T00:10:34.456186</dc:date>
    <dc:format>image/svg+xml</dc:format>
    <dc:creator>
     <cc:Agent>
      <dc:title>Matplotlib v3.8.1, https://matplotlib.org/</dc:title>
     </cc:Agent>
    </dc:creator>
   </cc:Work>
  </rdf:RDF>
 </metadata>
 <defs>
  <style type="text/css">*{stroke-linejoin: round; stroke-linecap: butt}</style>
 </defs>
 <g id="figure_1">
  <g id="patch_1">
   <path d="M 0 321.8275 
L 402.01 321.8275 
L 402.01 0 
L 0 0 
z
" style="fill: #ffffff"/>
  </g>
  <g id="axes_1">
   <g id="patch_2">
    <path d="M 60.01 284.4 
L 394.81 284.4 
L 394.81 7.2 
L 60.01 7.2 
z
" style="fill: #ffffff"/>
   </g>
   <g id="PolyCollection_1">
    <defs>
     <path id="m2a09082404" d="M 142.141861 -38.481715 
L 78.318139 -38.481715 
L 77.368246 -39.646624 
L 76.843905 -40.811533 
L 76.75 -41.976442 
L 77.070769 -43.141351 
L 77.771266 -44.30626 
L 78.800275 -45.471169 
L 80.094364 -46.636078 
L 81.582645 -47.800987 
L 83.191757 -48.965896 
L 84.850593 -50.130805 
L 86.494383 -51.295714 
L 88.067806 -52.460623 
L 89.52699 -53.625532 
L 90.840365 -54.790441 
L 91.988461 -55.95535 
L 92.962853 -57.120259 
L 93.764499 -58.285168 
L 94.401746 -59.450077 
L 94.888242 -60.614986 
L 95.24099 -61.779895 
L 95.478667 -62.944804 
L 95.620306 -64.109713 
L 95.684365 -65.274622 
L 95.688147 -66.439531 
L 95.64751 -67.60444 
L 95.576789 -68.769349 
L 95.488847 -69.934258 
L 95.39517 -71.099167 
L 95.305962 -72.264076 
L 95.230194 -73.428985 
L 95.175601 -74.593894 
L 95.14862 -75.758803 
L 95.154304 -76.923712 
L 95.196225 -78.088621 
L 95.276394 -79.25353 
L 95.39524 -80.418439 
L 95.551655 -81.583348 
L 95.743116 -82.748257 
L 95.965898 -83.913166 
L 96.215354 -85.078075 
L 96.48626 -86.242984 
L 96.773185 -87.407893 
L 97.070876 -88.572802 
L 97.374609 -89.737711 
L 97.680487 -90.90262 
L 97.985658 -92.067529 
L 98.288432 -93.232438 
L 98.588299 -94.397347 
L 98.885828 -95.562256 
L 99.182482 -96.727165 
L 99.48035 -97.892074 
L 99.781837 -99.056983 
L 100.089335 -100.221892 
L 100.404915 -101.386801 
L 100.730054 -102.55171 
L 101.065446 -103.716619 
L 101.410893 -104.881528 
L 101.765287 -106.046437 
L 102.126687 -107.211346 
L 102.492471 -108.376255 
L 102.859557 -109.541164 
L 103.224646 -110.706073 
L 103.584494 -111.870982 
L 103.936146 -113.035891 
L 104.277155 -114.2008 
L 104.60572 -115.365709 
L 104.920775 -116.530618 
L 105.221991 -117.695527 
L 105.509712 -118.860436 
L 105.784832 -120.025345 
L 106.04863 -121.190254 
L 106.302572 -122.355163 
L 106.548123 -123.520072 
L 106.786565 -124.684981 
L 107.018857 -125.84989 
L 107.245538 -127.014799 
L 107.466687 -128.179708 
L 107.681929 -129.344617 
L 107.890499 -130.509526 
L 108.09133 -131.674435 
L 108.283171 -132.839344 
L 108.464714 -134.004253 
L 108.634714 -135.169162 
L 108.792093 -136.334071 
L 108.936027 -137.49898 
L 109.066002 -138.663889 
L 109.181848 -139.828798 
L 109.283747 -140.993707 
L 109.37222 -142.158616 
L 109.448103 -143.323525 
L 109.512498 -144.488434 
L 109.566731 -145.653343 
L 109.612284 -146.818252 
L 109.650733 -147.983161 
L 109.683678 -149.14807 
L 109.712672 -150.312979 
L 109.739153 -151.477888 
L 109.764383 -152.642797 
L 109.789395 -153.807706 
L 110.670605 -153.807706 
L 110.670605 -153.807706 
L 110.695617 -152.642797 
L 110.720847 -151.477888 
L 110.747328 -150.312979 
L 110.776322 -149.14807 
L 110.809267 -147.983161 
L 110.847716 -146.818252 
L 110.893269 -145.653343 
L 110.947502 -144.488434 
L 111.011897 -143.323525 
L 111.08778 -142.158616 
L 111.176253 -140.993707 
L 111.278152 -139.828798 
L 111.393998 -138.663889 
L 111.523973 -137.49898 
L 111.667907 -136.334071 
L 111.825286 -135.169162 
L 111.995286 -134.004253 
L 112.176829 -132.839344 
L 112.36867 -131.674435 
L 112.569501 -130.509526 
L 112.778071 -129.344617 
L 112.993313 -128.179708 
L 113.214462 -127.014799 
L 113.441143 -125.84989 
L 113.673435 -124.684981 
L 113.911877 -123.520072 
L 114.157428 -122.355163 
L 114.41137 -121.190254 
L 114.675168 -120.025345 
L 114.950288 -118.860436 
L 115.238009 -117.695527 
L 115.539225 -116.530618 
L 115.85428 -115.365709 
L 116.182845 -114.2008 
L 116.523854 -113.035891 
L 116.875506 -111.870982 
L 117.235354 -110.706073 
L 117.600443 -109.541164 
L 117.967529 -108.376255 
L 118.333313 -107.211346 
L 118.694713 -106.046437 
L 119.049107 -104.881528 
L 119.394554 -103.716619 
L 119.729946 -102.55171 
L 120.055085 -101.386801 
L 120.370665 -100.221892 
L 120.678163 -99.056983 
L 120.97965 -97.892074 
L 121.277518 -96.727165 
L 121.574172 -95.562256 
L 121.871701 -94.397347 
L 122.171568 -93.232438 
L 122.474342 -92.067529 
L 122.779513 -90.90262 
L 123.085391 -89.737711 
L 123.389124 -88.572802 
L 123.686815 -87.407893 
L 123.97374 -86.242984 
L 124.244646 -85.078075 
L 124.494102 -83.913166 
L 124.716884 -82.748257 
L 124.908345 -81.583348 
L 125.06476 -80.418439 
L 125.183606 -79.25353 
L 125.263775 -78.088621 
L 125.305696 -76.923712 
L 125.31138 -75.758803 
L 125.284399 -74.593894 
L 125.229806 -73.428985 
L 125.154038 -72.264076 
L 125.06483 -71.099167 
L 124.971153 -69.934258 
L 124.883211 -68.769349 
L 124.81249 -67.60444 
L 124.771853 -66.439531 
L 124.775635 -65.274622 
L 124.839694 -64.109713 
L 124.981333 -62.944804 
L 125.21901 -61.779895 
L 125.571758 -60.614986 
L 126.058254 -59.450077 
L 126.695501 -58.285168 
L 127.497147 -57.120259 
L 128.471539 -55.95535 
L 129.619635 -54.790441 
L 130.93301 -53.625532 
L 132.392194 -52.460623 
L 133.965617 -51.295714 
L 135.609407 -50.130805 
L 137.268243 -48.965896 
L 138.877355 -47.800987 
L 140.365636 -46.636078 
L 141.659725 -45.471169 
L 142.688734 -44.30626 
L 143.389231 -43.141351 
L 143.71 -41.976442 
L 143.616095 -40.811533 
L 143.091754 -39.646624 
L 142.141861 -38.481715 
z
" style="stroke: #4c4c4c; stroke-width: 1.25"/>
    </defs>
    <g clip-path="url(#p2d9fd44576)">
     <use xlink:href="#m2a09082404" x="0" y="321.8275" style="fill: #e090e0; stroke: #4c4c4c; stroke-width: 1.25"/>
    </g>
   </g>
   <g id="PolyCollection_2">
    <defs>
     <path id="m8f714ea04f" d="M 209.130686 -37.993982 
L 145.249314 -37.993982 
L 144.14452 -39.23107 
L 143.71 -40.468159 
L 143.960651 -41.705248 
L 144.866783 -42.942337 
L 146.357947 -44.179425 
L 148.330981 -45.416514 
L 150.661 -46.653603 
L 153.213732 -47.890692 
L 155.857492 -49.12778 
L 158.473366 -50.364869 
L 160.962586 -51.601958 
L 163.25063 -52.839047 
L 165.288164 -54.076135 
L 167.049319 -55.313224 
L 168.528133 -56.550313 
L 169.734012 -57.787402 
L 170.687024 -59.024491 
L 171.413636 -60.261579 
L 171.943256 -61.498668 
L 172.305716 -62.735757 
L 172.529645 -63.972846 
L 172.641544 -65.209934 
L 172.66536 -66.447023 
L 172.622351 -67.684112 
L 172.531077 -68.921201 
L 172.407448 -70.158289 
L 172.264793 -71.395378 
L 172.113966 -72.632467 
L 171.963515 -73.869556 
L 171.819939 -75.106644 
L 171.688029 -76.343733 
L 171.571263 -77.580822 
L 171.472208 -78.817911 
L 171.392873 -80.054999 
L 171.334954 -81.292088 
L 171.299956 -82.529177 
L 171.289175 -83.766266 
L 171.303585 -85.003355 
L 171.343674 -86.240443 
L 171.409294 -87.477532 
L 171.49959 -88.714621 
L 171.613025 -89.95171 
L 171.747534 -91.188798 
L 171.900765 -92.425887 
L 172.070372 -93.662976 
L 172.254284 -94.900065 
L 172.450915 -96.137153 
L 172.659245 -97.374242 
L 172.878781 -98.611331 
L 173.109374 -99.84842 
L 173.350964 -101.085508 
L 173.60327 -102.322597 
L 173.865504 -103.559686 
L 174.13615 -104.796775 
L 174.41285 -106.033864 
L 174.692415 -107.270952 
L 174.970963 -108.508041 
L 175.244155 -109.74513 
L 175.507508 -110.982219 
L 175.756728 -112.219307 
L 175.988034 -113.456396 
L 176.198417 -114.693485 
L 176.385824 -115.930574 
L 176.549242 -117.167662 
L 176.688678 -118.404751 
L 176.805052 -119.64184 
L 176.900032 -120.878929 
L 176.975817 -122.116017 
L 177.034923 -123.353106 
L 177.079969 -124.590195 
L 177.11351 -125.827284 
L 177.137899 -127.064372 
L 177.155201 -128.301461 
L 177.167155 -129.53855 
L 177.175155 -130.775639 
L 177.180275 -132.012728 
L 177.183294 -133.249816 
L 177.184734 -134.486905 
L 177.184897 -135.723994 
L 177.183898 -136.961083 
L 177.181694 -138.198171 
L 177.178109 -139.43526 
L 177.172861 -140.672349 
L 177.165587 -141.909438 
L 177.155879 -143.146526 
L 177.143336 -144.383615 
L 177.127612 -145.620704 
L 177.108491 -146.857793 
L 177.085951 -148.094881 
L 177.060226 -149.33197 
L 177.031861 -150.569059 
L 177.001726 -151.806148 
L 176.971001 -153.043237 
L 176.941117 -154.280325 
L 176.913658 -155.517414 
L 176.890223 -156.754503 
L 176.872276 -157.991592 
L 176.860997 -159.22868 
L 176.857149 -160.465769 
L 177.522851 -160.465769 
L 177.522851 -160.465769 
L 177.519003 -159.22868 
L 177.507724 -157.991592 
L 177.489777 -156.754503 
L 177.466342 -155.517414 
L 177.438883 -154.280325 
L 177.408999 -153.043237 
L 177.378274 -151.806148 
L 177.348139 -150.569059 
L 177.319774 -149.33197 
L 177.294049 -148.094881 
L 177.271509 -146.857793 
L 177.252388 -145.620704 
L 177.236664 -144.383615 
L 177.224121 -143.146526 
L 177.214413 -141.909438 
L 177.207139 -140.672349 
L 177.201891 -139.43526 
L 177.198306 -138.198171 
L 177.196102 -136.961083 
L 177.195103 -135.723994 
L 177.195266 -134.486905 
L 177.196706 -133.249816 
L 177.199725 -132.012728 
L 177.204845 -130.775639 
L 177.212845 -129.53855 
L 177.224799 -128.301461 
L 177.242101 -127.064372 
L 177.26649 -125.827284 
L 177.300031 -124.590195 
L 177.345077 -123.353106 
L 177.404183 -122.116017 
L 177.479968 -120.878929 
L 177.574948 -119.64184 
L 177.691322 -118.404751 
L 177.830758 -117.167662 
L 177.994176 -115.930574 
L 178.181583 -114.693485 
L 178.391966 -113.456396 
L 178.623272 -112.219307 
L 178.872492 -110.982219 
L 179.135845 -109.74513 
L 179.409037 -108.508041 
L 179.687585 -107.270952 
L 179.96715 -106.033864 
L 180.24385 -104.796775 
L 180.514496 -103.559686 
L 180.77673 -102.322597 
L 181.029036 -101.085508 
L 181.270626 -99.84842 
L 181.501219 -98.611331 
L 181.720755 -97.374242 
L 181.929085 -96.137153 
L 182.125716 -94.900065 
L 182.309628 -93.662976 
L 182.479235 -92.425887 
L 182.632466 -91.188798 
L 182.766975 -89.95171 
L 182.88041 -88.714621 
L 182.970706 -87.477532 
L 183.036326 -86.240443 
L 183.076415 -85.003355 
L 183.090825 -83.766266 
L 183.080044 -82.529177 
L 183.045046 -81.292088 
L 182.987127 -80.054999 
L 182.907792 -78.817911 
L 182.808737 -77.580822 
L 182.691971 -76.343733 
L 182.560061 -75.106644 
L 182.416485 -73.869556 
L 182.266034 -72.632467 
L 182.115207 -71.395378 
L 181.972552 -70.158289 
L 181.848923 -68.921201 
L 181.757649 -67.684112 
L 181.71464 -66.447023 
L 181.738456 -65.209934 
L 181.850355 -63.972846 
L 182.074284 -62.735757 
L 182.436744 -61.498668 
L 182.966364 -60.261579 
L 183.692976 -59.024491 
L 184.645988 -57.787402 
L 185.851867 -56.550313 
L 187.330681 -55.313224 
L 189.091836 -54.076135 
L 191.12937 -52.839047 
L 193.417414 -51.601958 
L 195.906634 -50.364869 
L 198.522508 -49.12778 
L 201.166268 -47.890692 
L 203.719 -46.653603 
L 206.049019 -45.416514 
L 208.022053 -44.179425 
L 209.513217 -42.942337 
L 210.419349 -41.705248 
L 210.67 -40.468159 
L 210.23548 -39.23107 
L 209.130686 -37.993982 
z
" style="stroke: #4c4c4c; stroke-width: 1.25"/>
    </defs>
    <g clip-path="url(#p2d9fd44576)">
     <use xlink:href="#m8f714ea04f" x="0" y="321.8275" style="fill: #20df20; stroke: #4c4c4c; stroke-width: 1.25"/>
    </g>
   </g>
   <g id="PolyCollection_3">
    <defs>
     <path id="m751ba75ad5" d="M 290.268261 -39.195532 
L 264.991739 -39.195532 
L 264.67323 -41.72108 
L 264.468018 -44.246627 
L 264.379354 -46.772175 
L 264.406862 -49.297722 
L 264.546577 -51.82327 
L 264.791161 -54.348817 
L 265.130282 -56.874365 
L 265.551135 -59.399913 
L 266.039063 -61.92546 
L 266.578237 -64.451008 
L 267.152358 -66.976555 
L 267.745332 -69.502103 
L 268.341876 -72.02765 
L 268.928041 -74.553198 
L 269.491614 -77.078745 
L 270.022394 -79.604293 
L 270.512344 -82.12984 
L 270.955616 -84.655388 
L 271.348478 -87.180936 
L 271.689147 -89.706483 
L 271.977564 -92.232031 
L 272.215127 -94.757578 
L 272.404404 -97.283126 
L 272.548856 -99.808673 
L 272.652569 -102.334221 
L 272.720023 -104.859768 
L 272.755894 -107.385316 
L 272.764893 -109.910864 
L 272.751653 -112.436411 
L 272.720633 -114.961959 
L 272.676066 -117.487506 
L 272.62192 -120.013054 
L 272.561876 -122.538601 
L 272.499312 -125.064149 
L 272.437294 -127.589696 
L 272.378563 -130.115244 
L 272.325528 -132.640792 
L 272.280249 -135.166339 
L 272.244425 -137.691887 
L 272.219383 -140.217434 
L 272.206071 -142.742982 
L 272.205062 -145.268529 
L 272.216564 -147.794077 
L 272.240444 -150.319624 
L 272.276265 -152.845172 
L 272.323329 -155.37072 
L 272.380737 -157.896267 
L 272.447449 -160.421815 
L 272.522348 -162.947362 
L 272.604299 -165.47291 
L 272.692209 -167.998457 
L 272.785064 -170.524005 
L 272.881966 -173.049552 
L 272.982142 -175.5751 
L 273.084952 -178.100647 
L 273.18987 -180.626195 
L 273.296462 -183.151743 
L 273.404355 -185.67729 
L 273.513202 -188.202838 
L 273.622645 -190.728385 
L 273.732293 -193.253933 
L 273.841695 -195.77948 
L 273.950335 -198.305028 
L 274.057634 -200.830575 
L 274.162959 -203.356123 
L 274.265653 -205.881671 
L 274.365061 -208.407218 
L 274.460566 -210.932766 
L 274.551624 -213.458313 
L 274.6378 -215.983861 
L 274.718789 -218.509408 
L 274.794445 -221.034956 
L 274.864786 -223.560503 
L 274.93 -226.086051 
L 274.990437 -228.611599 
L 275.046596 -231.137146 
L 275.099101 -233.662694 
L 275.148678 -236.188241 
L 275.196127 -238.713789 
L 275.242289 -241.239336 
L 275.288022 -243.764884 
L 275.334167 -246.290431 
L 275.381526 -248.815979 
L 275.430842 -251.341527 
L 275.482773 -253.867074 
L 275.537882 -256.392622 
L 275.596619 -258.918169 
L 275.659313 -261.443717 
L 275.726164 -263.969264 
L 275.797239 -266.494812 
L 275.872467 -269.020359 
L 275.951647 -271.545907 
L 276.034446 -274.071454 
L 276.120411 -276.597002 
L 276.208981 -279.12255 
L 276.2995 -281.648097 
L 276.391239 -284.173645 
L 276.483413 -286.699192 
L 276.575209 -289.22474 
L 278.684791 -289.22474 
L 278.684791 -289.22474 
L 278.776587 -286.699192 
L 278.868761 -284.173645 
L 278.9605 -281.648097 
L 279.051019 -279.12255 
L 279.139589 -276.597002 
L 279.225554 -274.071454 
L 279.308353 -271.545907 
L 279.387533 -269.020359 
L 279.462761 -266.494812 
L 279.533836 -263.969264 
L 279.600687 -261.443717 
L 279.663381 -258.918169 
L 279.722118 -256.392622 
L 279.777227 -253.867074 
L 279.829158 -251.341527 
L 279.878474 -248.815979 
L 279.925833 -246.290431 
L 279.971978 -243.764884 
L 280.017711 -241.239336 
L 280.063873 -238.713789 
L 280.111322 -236.188241 
L 280.160899 -233.662694 
L 280.213404 -231.137146 
L 280.269563 -228.611599 
L 280.33 -226.086051 
L 280.395214 -223.560503 
L 280.465555 -221.034956 
L 280.541211 -218.509408 
L 280.6222 -215.983861 
L 280.708376 -213.458313 
L 280.799434 -210.932766 
L 280.894939 -208.407218 
L 280.994347 -205.881671 
L 281.097041 -203.356123 
L 281.202366 -200.830575 
L 281.309665 -198.305028 
L 281.418305 -195.77948 
L 281.527707 -193.253933 
L 281.637355 -190.728385 
L 281.746798 -188.202838 
L 281.855645 -185.67729 
L 281.963538 -183.151743 
L 282.07013 -180.626195 
L 282.175048 -178.100647 
L 282.277858 -175.5751 
L 282.378034 -173.049552 
L 282.474936 -170.524005 
L 282.567791 -167.998457 
L 282.655701 -165.47291 
L 282.737652 -162.947362 
L 282.812551 -160.421815 
L 282.879263 -157.896267 
L 282.936671 -155.37072 
L 282.983735 -152.845172 
L 283.019556 -150.319624 
L 283.043436 -147.794077 
L 283.054938 -145.268529 
L 283.053929 -142.742982 
L 283.040617 -140.217434 
L 283.015575 -137.691887 
L 282.979751 -135.166339 
L 282.934472 -132.640792 
L 282.881437 -130.115244 
L 282.822706 -127.589696 
L 282.760688 -125.064149 
L 282.698124 -122.538601 
L 282.63808 -120.013054 
L 282.583934 -117.487506 
L 282.539367 -114.961959 
L 282.508347 -112.436411 
L 282.495107 -109.910864 
L 282.504106 -107.385316 
L 282.539977 -104.859768 
L 282.607431 -102.334221 
L 282.711144 -99.808673 
L 282.855596 -97.283126 
L 283.044873 -94.757578 
L 283.282436 -92.232031 
L 283.570853 -89.706483 
L 283.911522 -87.180936 
L 284.304384 -84.655388 
L 284.747656 -82.12984 
L 285.237606 -79.604293 
L 285.768386 -77.078745 
L 286.331959 -74.553198 
L 286.918124 -72.02765 
L 287.514668 -69.502103 
L 288.107642 -66.976555 
L 288.681763 -64.451008 
L 289.220937 -61.92546 
L 289.708865 -59.399913 
L 290.129718 -56.874365 
L 290.468839 -54.348817 
L 290.713423 -51.82327 
L 290.853138 -49.297722 
L 290.880646 -46.772175 
L 290.791982 -44.246627 
L 290.58677 -41.72108 
L 290.268261 -39.195532 
z
" style="stroke: #4c4c4c; stroke-width: 1.25"/>
    </defs>
    <g clip-path="url(#p2d9fd44576)">
     <use xlink:href="#m751ba75ad5" x="0" y="321.8275" style="fill: #e090e0; stroke: #4c4c4c; stroke-width: 1.25"/>
    </g>
   </g>
   <g id="PolyCollection_4">
    <defs>
     <path id="m6096eb5fd9" d="M 356.157597 -38.087972 
L 333.022403 -38.087972 
L 332.678102 -40.612442 
L 332.47159 -43.136911 
L 332.407605 -45.661381 
L 332.4853 -48.185851 
L 332.69838 -50.710321 
L 333.035597 -53.234791 
L 333.481541 -55.759261 
L 334.017665 -58.283731 
L 334.623446 -60.808201 
L 335.277583 -63.33267 
L 335.959137 -65.85714 
L 336.64853 -68.38161 
L 337.32834 -70.90608 
L 337.983866 -73.43055 
L 338.603438 -75.95502 
L 339.178489 -78.47949 
L 339.703433 -81.003959 
L 340.175372 -83.528429 
L 340.593702 -86.052899 
L 340.95966 -88.577369 
L 341.275857 -91.101839 
L 341.545841 -93.626309 
L 341.773708 -96.150779 
L 341.963786 -98.675248 
L 342.120391 -101.199718 
L 342.247658 -103.724188 
L 342.349434 -106.248658 
L 342.429225 -108.773128 
L 342.49018 -111.297598 
L 342.53511 -113.822068 
L 342.566513 -116.346537 
L 342.586614 -118.871007 
L 342.5974 -121.395477 
L 342.600656 -123.919947 
L 342.597995 -126.444417 
L 342.590879 -128.968887 
L 342.580643 -131.493357 
L 342.568504 -134.017826 
L 342.555576 -136.542296 
L 342.542878 -139.066766 
L 342.531343 -141.591236 
L 342.521825 -144.115706 
L 342.5151 -146.640176 
L 342.511875 -149.164646 
L 342.512782 -151.689115 
L 342.518381 -154.213585 
L 342.529148 -156.738055 
L 342.545471 -159.262525 
L 342.567635 -161.786995 
L 342.595809 -164.311465 
L 342.630029 -166.835935 
L 342.670186 -169.360404 
L 342.716013 -171.884874 
L 342.767076 -174.409344 
L 342.822775 -176.933814 
L 342.88235 -179.458284 
L 342.944896 -181.982754 
L 343.009394 -184.507224 
L 343.07474 -187.031693 
L 343.139799 -189.556163 
L 343.203451 -192.080633 
L 343.264654 -194.605103 
L 343.322492 -197.129573 
L 343.376235 -199.654043 
L 343.425377 -202.178513 
L 343.469664 -204.702982 
L 343.509112 -207.227452 
L 343.543997 -209.751922 
L 343.574832 -212.276392 
L 343.602326 -214.800862 
L 343.627329 -217.325332 
L 343.650769 -219.849802 
L 343.673577 -222.374272 
L 343.69663 -224.898741 
L 343.720683 -227.423211 
L 343.746324 -229.947681 
L 343.773945 -232.472151 
L 343.803724 -234.996621 
L 343.835629 -237.521091 
L 343.869437 -240.045561 
L 343.904769 -242.57003 
L 343.941125 -245.0945 
L 343.977938 -247.61897 
L 344.014617 -250.14344 
L 344.050594 -252.66791 
L 344.085362 -255.19238 
L 344.118503 -257.71685 
L 344.149709 -260.241319 
L 344.178791 -262.765789 
L 344.205679 -265.290259 
L 344.230411 -267.814729 
L 344.253121 -270.339199 
L 344.274015 -272.863669 
L 344.29335 -275.388139 
L 344.311408 -277.912608 
L 344.328474 -280.437078 
L 344.344815 -282.961548 
L 344.360664 -285.486018 
L 344.376205 -288.010488 
L 344.803795 -288.010488 
L 344.803795 -288.010488 
L 344.819336 -285.486018 
L 344.835185 -282.961548 
L 344.851526 -280.437078 
L 344.868592 -277.912608 
L 344.88665 -275.388139 
L 344.905985 -272.863669 
L 344.926879 -270.339199 
L 344.949589 -267.814729 
L 344.974321 -265.290259 
L 345.001209 -262.765789 
L 345.030291 -260.241319 
L 345.061497 -257.71685 
L 345.094638 -255.19238 
L 345.129406 -252.66791 
L 345.165383 -250.14344 
L 345.202062 -247.61897 
L 345.238875 -245.0945 
L 345.275231 -242.57003 
L 345.310563 -240.045561 
L 345.344371 -237.521091 
L 345.376276 -234.996621 
L 345.406055 -232.472151 
L 345.433676 -229.947681 
L 345.459317 -227.423211 
L 345.48337 -224.898741 
L 345.506423 -222.374272 
L 345.529231 -219.849802 
L 345.552671 -217.325332 
L 345.577674 -214.800862 
L 345.605168 -212.276392 
L 345.636003 -209.751922 
L 345.670888 -207.227452 
L 345.710336 -204.702982 
L 345.754623 -202.178513 
L 345.803765 -199.654043 
L 345.857508 -197.129573 
L 345.915346 -194.605103 
L 345.976549 -192.080633 
L 346.040201 -189.556163 
L 346.10526 -187.031693 
L 346.170606 -184.507224 
L 346.235104 -181.982754 
L 346.29765 -179.458284 
L 346.357225 -176.933814 
L 346.412924 -174.409344 
L 346.463987 -171.884874 
L 346.509814 -169.360404 
L 346.549971 -166.835935 
L 346.584191 -164.311465 
L 346.612365 -161.786995 
L 346.634529 -159.262525 
L 346.650852 -156.738055 
L 346.661619 -154.213585 
L 346.667218 -151.689115 
L 346.668125 -149.164646 
L 346.6649 -146.640176 
L 346.658175 -144.115706 
L 346.648657 -141.591236 
L 346.637122 -139.066766 
L 346.624424 -136.542296 
L 346.611496 -134.017826 
L 346.599357 -131.493357 
L 346.589121 -128.968887 
L 346.582005 -126.444417 
L 346.579344 -123.919947 
L 346.5826 -121.395477 
L 346.593386 -118.871007 
L 346.613487 -116.346537 
L 346.64489 -113.822068 
L 346.68982 -111.297598 
L 346.750775 -108.773128 
L 346.830566 -106.248658 
L 346.932342 -103.724188 
L 347.059609 -101.199718 
L 347.216214 -98.675248 
L 347.406292 -96.150779 
L 347.634159 -93.626309 
L 347.904143 -91.101839 
L 348.22034 -88.577369 
L 348.586298 -86.052899 
L 349.004628 -83.528429 
L 349.476567 -81.003959 
L 350.001511 -78.47949 
L 350.576562 -75.95502 
L 351.196134 -73.43055 
L 351.85166 -70.90608 
L 352.53147 -68.38161 
L 353.220863 -65.85714 
L 353.902417 -63.33267 
L 354.556554 -60.808201 
L 355.162335 -58.283731 
L 355.698459 -55.759261 
L 356.144403 -53.234791 
L 356.48162 -50.710321 
L 356.6947 -48.185851 
L 356.772395 -45.661381 
L 356.70841 -43.136911 
L 356.501898 -40.612442 
L 356.157597 -38.087972 
z
" style="stroke: #4c4c4c; stroke-width: 1.25"/>
    </defs>
    <g clip-path="url(#p2d9fd44576)">
     <use xlink:href="#m6096eb5fd9" x="0" y="321.8275" style="fill: #20df20; stroke: #4c4c4c; stroke-width: 1.25"/>
    </g>
   </g>
   <g id="patch_3">
    <path d="M 143.71 284.4 
L 143.71 284.4 
L 143.71 284.4 
L 143.71 284.4 
z
" clip-path="url(#p2d9fd44576)" style="fill: #e090e0; stroke: #4c4c4c; stroke-width: 1.25; stroke-linejoin: miter"/>
   </g>
   <g id="patch_4">
    <path d="M 143.71 284.4 
L 143.71 284.4 
L 143.71 284.4 
L 143.71 284.4 
z
" clip-path="url(#p2d9fd44576)" style="fill: #20df20; stroke: #4c4c4c; stroke-width: 1.25; stroke-linejoin: miter"/>
   </g>
   <g id="matplotlib.axis_1">
    <g id="xtick_1">
     <g id="line2d_1">
      <defs>
       <path id="mfe5813d805" d="M 0 0 
L 0 3.5 
" style="stroke: #000000; stroke-width: 0.8"/>
      </defs>
      <g>
       <use xlink:href="#mfe5813d805" x="143.71" y="284.4" style="stroke: #000000; stroke-width: 0.8"/>
      </g>
     </g>
     <g id="text_1">
      <!-- iRMSD -->
      <g transform="translate(104.82625 309.63625) scale(0.24 -0.24)">
       <defs>
        <path id="DejaVuSans-69" d="M 603 3500 
L 1178 3500 
L 1178 0 
L 603 0 
L 603 3500 
z
M 603 4863 
L 1178 4863 
L 1178 4134 
L 603 4134 
L 603 4863 
z
" transform="scale(0.015625)"/>
        <path id="DejaVuSans-52" d="M 2841 2188 
Q 3044 2119 3236 1894 
Q 3428 1669 3622 1275 
L 4263 0 
L 3584 0 
L 2988 1197 
Q 2756 1666 2539 1819 
Q 2322 1972 1947 1972 
L 1259 1972 
L 1259 0 
L 628 0 
L 628 4666 
L 2053 4666 
Q 2853 4666 3247 4331 
Q 3641 3997 3641 3322 
Q 3641 2881 3436 2590 
Q 3231 2300 2841 2188 
z
M 1259 4147 
L 1259 2491 
L 2053 2491 
Q 2509 2491 2742 2702 
Q 2975 2913 2975 3322 
Q 2975 3731 2742 3939 
Q 2509 4147 2053 4147 
L 1259 4147 
z
" transform="scale(0.015625)"/>
        <path id="DejaVuSans-4d" d="M 628 4666 
L 1569 4666 
L 2759 1491 
L 3956 4666 
L 4897 4666 
L 4897 0 
L 4281 0 
L 4281 4097 
L 3078 897 
L 2444 897 
L 1241 4097 
L 1241 0 
L 628 0 
L 628 4666 
z
" transform="scale(0.015625)"/>
        <path id="DejaVuSans-53" d="M 3425 4513 
L 3425 3897 
Q 3066 4069 2747 4153 
Q 2428 4238 2131 4238 
Q 1616 4238 1336 4038 
Q 1056 3838 1056 3469 
Q 1056 3159 1242 3001 
Q 1428 2844 1947 2747 
L 2328 2669 
Q 3034 2534 3370 2195 
Q 3706 1856 3706 1288 
Q 3706 609 3251 259 
Q 2797 -91 1919 -91 
Q 1588 -91 1214 -16 
Q 841 59 441 206 
L 441 856 
Q 825 641 1194 531 
Q 1563 422 1919 422 
Q 2459 422 2753 634 
Q 3047 847 3047 1241 
Q 3047 1584 2836 1778 
Q 2625 1972 2144 2069 
L 1759 2144 
Q 1053 2284 737 2584 
Q 422 2884 422 3419 
Q 422 4038 858 4394 
Q 1294 4750 2059 4750 
Q 2388 4750 2728 4690 
Q 3069 4631 3425 4513 
z
" transform="scale(0.015625)"/>
        <path id="DejaVuSans-44" d="M 1259 4147 
L 1259 519 
L 2022 519 
Q 2988 519 3436 956 
Q 3884 1394 3884 2338 
Q 3884 3275 3436 3711 
Q 2988 4147 2022 4147 
L 1259 4147 
z
M 628 4666 
L 1925 4666 
Q 3281 4666 3915 4102 
Q 4550 3538 4550 2338 
Q 4550 1131 3912 565 
Q 3275 0 1925 0 
L 628 0 
L 628 4666 
z
" transform="scale(0.015625)"/>
       </defs>
       <use xlink:href="#DejaVuSans-69"/>
       <use xlink:href="#DejaVuSans-52" x="27.783203"/>
       <use xlink:href="#DejaVuSans-4d" x="97.265625"/>
       <use xlink:href="#DejaVuSans-53" x="183.544922"/>
       <use xlink:href="#DejaVuSans-44" x="247.021484"/>
      </g>
     </g>
    </g>
    <g id="xtick_2">
     <g id="line2d_2">
      <g>
       <use xlink:href="#mfe5813d805" x="311.11" y="284.4" style="stroke: #000000; stroke-width: 0.8"/>
      </g>
     </g>
     <g id="text_2">
      <!-- lRMSD -->
      <g transform="translate(272.22625 309.63625) scale(0.24 -0.24)">
       <defs>
        <path id="DejaVuSans-6c" d="M 603 4863 
L 1178 4863 
L 1178 0 
L 603 0 
L 603 4863 
z
" transform="scale(0.015625)"/>
       </defs>
       <use xlink:href="#DejaVuSans-6c"/>
       <use xlink:href="#DejaVuSans-52" x="27.783203"/>
       <use xlink:href="#DejaVuSans-4d" x="97.265625"/>
       <use xlink:href="#DejaVuSans-53" x="183.544922"/>
       <use xlink:href="#DejaVuSans-44" x="247.021484"/>
      </g>
     </g>
    </g>
   </g>
   <g id="matplotlib.axis_2">
    <g id="ytick_1">
     <g id="line2d_3">
      <defs>
       <path id="m62fb30b1c8" d="M 0 0 
L -3.5 0 
" style="stroke: #000000; stroke-width: 0.8"/>
      </defs>
      <g>
       <use xlink:href="#m62fb30b1c8" x="60.01" y="284.4" style="stroke: #000000; stroke-width: 0.8"/>
      </g>
     </g>
     <g id="text_3">
      <!-- 0 -->
      <g transform="translate(37.74 293.518125) scale(0.24 -0.24)">
       <defs>
        <path id="DejaVuSans-30" d="M 2034 4250 
Q 1547 4250 1301 3770 
Q 1056 3291 1056 2328 
Q 1056 1369 1301 889 
Q 1547 409 2034 409 
Q 2525 409 2770 889 
Q 3016 1369 3016 2328 
Q 3016 3291 2770 3770 
Q 2525 4250 2034 4250 
z
M 2034 4750 
Q 2819 4750 3233 4129 
Q 3647 3509 3647 2328 
Q 3647 1150 3233 529 
Q 2819 -91 2034 -91 
Q 1250 -91 836 529 
Q 422 1150 422 2328 
Q 422 3509 836 4129 
Q 1250 4750 2034 4750 
z
" transform="scale(0.015625)"/>
       </defs>
       <use xlink:href="#DejaVuSans-30"/>
      </g>
     </g>
    </g>
    <g id="ytick_2">
     <g id="line2d_4">
      <g>
       <use xlink:href="#m62fb30b1c8" x="60.01" y="157.386199" style="stroke: #000000; stroke-width: 0.8"/>
      </g>
     </g>
     <g id="text_4">
      <!-- 50 -->
      <g transform="translate(22.47 166.504324) scale(0.24 -0.24)">
       <defs>
        <path id="DejaVuSans-35" d="M 691 4666 
L 3169 4666 
L 3169 4134 
L 1269 4134 
L 1269 2991 
Q 1406 3038 1543 3061 
Q 1681 3084 1819 3084 
Q 2600 3084 3056 2656 
Q 3513 2228 3513 1497 
Q 3513 744 3044 326 
Q 2575 -91 1722 -91 
Q 1428 -91 1123 -41 
Q 819 9 494 109 
L 494 744 
Q 775 591 1075 516 
Q 1375 441 1709 441 
Q 2250 441 2565 725 
Q 2881 1009 2881 1497 
Q 2881 1984 2565 2268 
Q 2250 2553 1709 2553 
Q 1456 2553 1204 2497 
Q 953 2441 691 2322 
L 691 4666 
z
" transform="scale(0.015625)"/>
       </defs>
       <use xlink:href="#DejaVuSans-35"/>
       <use xlink:href="#DejaVuSans-30" x="63.623047"/>
      </g>
     </g>
    </g>
    <g id="ytick_3">
     <g id="line2d_5">
      <g>
       <use xlink:href="#m62fb30b1c8" x="60.01" y="30.372398" style="stroke: #000000; stroke-width: 0.8"/>
      </g>
     </g>
     <g id="text_5">
      <!-- 100 -->
      <g transform="translate(7.2 39.490523) scale(0.24 -0.24)">
       <defs>
        <path id="DejaVuSans-31" d="M 794 531 
L 1825 531 
L 1825 4091 
L 703 3866 
L 703 4441 
L 1819 4666 
L 2450 4666 
L 2450 531 
L 3481 531 
L 3481 0 
L 794 0 
L 794 531 
z
" transform="scale(0.015625)"/>
       </defs>
       <use xlink:href="#DejaVuSans-31"/>
       <use xlink:href="#DejaVuSans-30" x="63.623047"/>
       <use xlink:href="#DejaVuSans-30" x="127.246094"/>
      </g>
     </g>
    </g>
   </g>
   <g id="line2d_6">
    <path d="M 110.23 283.345785 
L 110.23 183.297014 
" clip-path="url(#p2d9fd44576)" style="fill: none; stroke: #4c4c4c; stroke-width: 1.875; stroke-linecap: square"/>
   </g>
   <g id="line2d_7">
    <path d="M 110.23 281.403109 
L 110.23 239.512053 
" clip-path="url(#p2d9fd44576)" style="fill: none; stroke: #4c4c4c; stroke-width: 5.625; stroke-linecap: square"/>
   </g>
   <g id="line2d_8">
    <path d="M 110.23 265.109144 
" clip-path="url(#p2d9fd44576)" style="fill: none; stroke: #4c4c4c; stroke-width: 1.5; stroke-linecap: square"/>
    <defs>
     <path id="m40dd78f721" d="M 2.34375 0 
L -2.34375 -0 
" style="stroke: #ffffff; stroke-width: 1.125"/>
    </defs>
    <g clip-path="url(#p2d9fd44576)">
     <use xlink:href="#m40dd78f721" x="110.23" y="265.109144" style="fill: #ffffff; stroke: #ffffff; stroke-width: 1.125"/>
    </g>
   </g>
   <g id="line2d_9">
    <path d="M 177.19 283.833518 
L 177.19 235.98996 
" clip-path="url(#p2d9fd44576)" style="fill: none; stroke: #4c4c4c; stroke-width: 1.875; stroke-linecap: square"/>
   </g>
   <g id="line2d_10">
    <path d="M 177.19 282.577352 
L 177.19 263.866949 
" clip-path="url(#p2d9fd44576)" style="fill: none; stroke: #4c4c4c; stroke-width: 5.625; stroke-linecap: square"/>
   </g>
   <g id="line2d_11">
    <path d="M 177.19 280.611178 
" clip-path="url(#p2d9fd44576)" style="fill: none; stroke: #4c4c4c; stroke-width: 1.5; stroke-linecap: square"/>
    <g clip-path="url(#p2d9fd44576)">
     <use xlink:href="#m40dd78f721" x="177.19" y="280.611178" style="fill: #ffffff; stroke: #ffffff; stroke-width: 1.125"/>
    </g>
   </g>
   <g id="line2d_12">
    <path d="M 277.63 282.631968 
L 277.63 32.60276 
" clip-path="url(#p2d9fd44576)" style="fill: none; stroke: #4c4c4c; stroke-width: 1.875; stroke-linecap: square"/>
   </g>
   <g id="line2d_13">
    <path d="M 277.63 277.282147 
L 277.63 166.612481 
" clip-path="url(#p2d9fd44576)" style="fill: none; stroke: #4c4c4c; stroke-width: 5.625; stroke-linecap: square"/>
   </g>
   <g id="line2d_14">
    <path d="M 277.63 252.290911 
" clip-path="url(#p2d9fd44576)" style="fill: none; stroke: #4c4c4c; stroke-width: 1.5; stroke-linecap: square"/>
    <g clip-path="url(#p2d9fd44576)">
     <use xlink:href="#m40dd78f721" x="277.63" y="252.290911" style="fill: #ffffff; stroke: #ffffff; stroke-width: 1.125"/>
    </g>
   </g>
   <g id="line2d_15">
    <path d="M 344.59 283.739528 
L 344.59 146.198823 
" clip-path="url(#p2d9fd44576)" style="fill: none; stroke: #4c4c4c; stroke-width: 1.875; stroke-linecap: square"/>
   </g>
   <g id="line2d_16">
    <path d="M 344.59 280.176791 
L 344.59 225.078204 
" clip-path="url(#p2d9fd44576)" style="fill: none; stroke: #4c4c4c; stroke-width: 5.625; stroke-linecap: square"/>
   </g>
   <g id="line2d_17">
    <path d="M 344.59 274.682174 
" clip-path="url(#p2d9fd44576)" style="fill: none; stroke: #4c4c4c; stroke-width: 1.5; stroke-linecap: square"/>
    <g clip-path="url(#p2d9fd44576)">
     <use xlink:href="#m40dd78f721" x="344.59" y="274.682174" style="fill: #ffffff; stroke: #ffffff; stroke-width: 1.125"/>
    </g>
   </g>
   <g id="patch_5">
    <path d="M 60.01 284.4 
L 60.01 7.2 
" style="fill: none; stroke: #000000; stroke-width: 0.8; stroke-linejoin: miter; stroke-linecap: square"/>
   </g>
   <g id="patch_6">
    <path d="M 394.81 284.4 
L 394.81 7.2 
" style="fill: none; stroke: #000000; stroke-width: 0.8; stroke-linejoin: miter; stroke-linecap: square"/>
   </g>
   <g id="patch_7">
    <path d="M 60.01 284.4 
L 394.81 284.4 
" style="fill: none; stroke: #000000; stroke-width: 0.8; stroke-linejoin: miter; stroke-linecap: square"/>
   </g>
   <g id="patch_8">
    <path d="M 60.01 7.2 
L 394.81 7.2 
" style="fill: none; stroke: #000000; stroke-width: 0.8; stroke-linejoin: miter; stroke-linecap: square"/>
   </g>
   <g id="legend_1">
    <g id="patch_9">
     <path d="M 155.2375 96.855 
L 378.01 96.855 
Q 382.81 96.855 382.81 92.055 
L 382.81 24 
Q 382.81 19.2 378.01 19.2 
L 155.2375 19.2 
Q 150.4375 19.2 150.4375 24 
L 150.4375 92.055 
Q 150.4375 96.855 155.2375 96.855 
z
" style="fill: #ffffff; opacity: 0.8; stroke: #cccccc; stroke-linejoin: miter"/>
    </g>
    <g id="patch_10">
     <path d="M 160.0375 47.03625 
L 208.0375 47.03625 
L 208.0375 30.23625 
L 160.0375 30.23625 
z
" style="fill: #e090e0; stroke: #4c4c4c; stroke-width: 1.25; stroke-linejoin: miter"/>
    </g>
    <g id="text_6">
     <!-- Interspecies -->
     <g transform="translate(227.2375 47.03625) scale(0.24 -0.24)">
      <defs>
       <path id="DejaVuSans-49" d="M 628 4666 
L 1259 4666 
L 1259 0 
L 628 0 
L 628 4666 
z
" transform="scale(0.015625)"/>
       <path id="DejaVuSans-6e" d="M 3513 2113 
L 3513 0 
L 2938 0 
L 2938 2094 
Q 2938 2591 2744 2837 
Q 2550 3084 2163 3084 
Q 1697 3084 1428 2787 
Q 1159 2491 1159 1978 
L 1159 0 
L 581 0 
L 581 3500 
L 1159 3500 
L 1159 2956 
Q 1366 3272 1645 3428 
Q 1925 3584 2291 3584 
Q 2894 3584 3203 3211 
Q 3513 2838 3513 2113 
z
" transform="scale(0.015625)"/>
       <path id="DejaVuSans-74" d="M 1172 4494 
L 1172 3500 
L 2356 3500 
L 2356 3053 
L 1172 3053 
L 1172 1153 
Q 1172 725 1289 603 
Q 1406 481 1766 481 
L 2356 481 
L 2356 0 
L 1766 0 
Q 1100 0 847 248 
Q 594 497 594 1153 
L 594 3053 
L 172 3053 
L 172 3500 
L 594 3500 
L 594 4494 
L 1172 4494 
z
" transform="scale(0.015625)"/>
       <path id="DejaVuSans-65" d="M 3597 1894 
L 3597 1613 
L 953 1613 
Q 991 1019 1311 708 
Q 1631 397 2203 397 
Q 2534 397 2845 478 
Q 3156 559 3463 722 
L 3463 178 
Q 3153 47 2828 -22 
Q 2503 -91 2169 -91 
Q 1331 -91 842 396 
Q 353 884 353 1716 
Q 353 2575 817 3079 
Q 1281 3584 2069 3584 
Q 2775 3584 3186 3129 
Q 3597 2675 3597 1894 
z
M 3022 2063 
Q 3016 2534 2758 2815 
Q 2500 3097 2075 3097 
Q 1594 3097 1305 2825 
Q 1016 2553 972 2059 
L 3022 2063 
z
" transform="scale(0.015625)"/>
       <path id="DejaVuSans-72" d="M 2631 2963 
Q 2534 3019 2420 3045 
Q 2306 3072 2169 3072 
Q 1681 3072 1420 2755 
Q 1159 2438 1159 1844 
L 1159 0 
L 581 0 
L 581 3500 
L 1159 3500 
L 1159 2956 
Q 1341 3275 1631 3429 
Q 1922 3584 2338 3584 
Q 2397 3584 2469 3576 
Q 2541 3569 2628 3553 
L 2631 2963 
z
" transform="scale(0.015625)"/>
       <path id="DejaVuSans-73" d="M 2834 3397 
L 2834 2853 
Q 2591 2978 2328 3040 
Q 2066 3103 1784 3103 
Q 1356 3103 1142 2972 
Q 928 2841 928 2578 
Q 928 2378 1081 2264 
Q 1234 2150 1697 2047 
L 1894 2003 
Q 2506 1872 2764 1633 
Q 3022 1394 3022 966 
Q 3022 478 2636 193 
Q 2250 -91 1575 -91 
Q 1294 -91 989 -36 
Q 684 19 347 128 
L 347 722 
Q 666 556 975 473 
Q 1284 391 1588 391 
Q 1994 391 2212 530 
Q 2431 669 2431 922 
Q 2431 1156 2273 1281 
Q 2116 1406 1581 1522 
L 1381 1569 
Q 847 1681 609 1914 
Q 372 2147 372 2553 
Q 372 3047 722 3315 
Q 1072 3584 1716 3584 
Q 2034 3584 2315 3537 
Q 2597 3491 2834 3397 
z
" transform="scale(0.015625)"/>
       <path id="DejaVuSans-70" d="M 1159 525 
L 1159 -1331 
L 581 -1331 
L 581 3500 
L 1159 3500 
L 1159 2969 
Q 1341 3281 1617 3432 
Q 1894 3584 2278 3584 
Q 2916 3584 3314 3078 
Q 3713 2572 3713 1747 
Q 3713 922 3314 415 
Q 2916 -91 2278 -91 
Q 1894 -91 1617 61 
Q 1341 213 1159 525 
z
M 3116 1747 
Q 3116 2381 2855 2742 
Q 2594 3103 2138 3103 
Q 1681 3103 1420 2742 
Q 1159 2381 1159 1747 
Q 1159 1113 1420 752 
Q 1681 391 2138 391 
Q 2594 391 2855 752 
Q 3116 1113 3116 1747 
z
" transform="scale(0.015625)"/>
       <path id="DejaVuSans-63" d="M 3122 3366 
L 3122 2828 
Q 2878 2963 2633 3030 
Q 2388 3097 2138 3097 
Q 1578 3097 1268 2742 
Q 959 2388 959 1747 
Q 959 1106 1268 751 
Q 1578 397 2138 397 
Q 2388 397 2633 464 
Q 2878 531 3122 666 
L 3122 134 
Q 2881 22 2623 -34 
Q 2366 -91 2075 -91 
Q 1284 -91 818 406 
Q 353 903 353 1747 
Q 353 2603 823 3093 
Q 1294 3584 2113 3584 
Q 2378 3584 2631 3529 
Q 2884 3475 3122 3366 
z
" transform="scale(0.015625)"/>
      </defs>
      <use xlink:href="#DejaVuSans-49"/>
      <use xlink:href="#DejaVuSans-6e" x="29.492188"/>
      <use xlink:href="#DejaVuSans-74" x="92.871094"/>
      <use xlink:href="#DejaVuSans-65" x="132.080078"/>
      <use xlink:href="#DejaVuSans-72" x="193.603516"/>
      <use xlink:href="#DejaVuSans-73" x="234.716797"/>
      <use xlink:href="#DejaVuSans-70" x="286.816406"/>
      <use xlink:href="#DejaVuSans-65" x="350.292969"/>
      <use xlink:href="#DejaVuSans-63" x="411.816406"/>
      <use xlink:href="#DejaVuSans-69" x="466.796875"/>
      <use xlink:href="#DejaVuSans-65" x="494.580078"/>
      <use xlink:href="#DejaVuSans-73" x="556.103516"/>
     </g>
    </g>
    <g id="patch_11">
     <path d="M 160.0375 82.26375 
L 208.0375 82.26375 
L 208.0375 65.46375 
L 160.0375 65.46375 
z
" style="fill: #20df20; stroke: #4c4c4c; stroke-width: 1.25; stroke-linejoin: miter"/>
    </g>
    <g id="text_7">
     <!-- Intraspecies -->
     <g transform="translate(227.2375 82.26375) scale(0.24 -0.24)">
      <defs>
       <path id="DejaVuSans-61" d="M 2194 1759 
Q 1497 1759 1228 1600 
Q 959 1441 959 1056 
Q 959 750 1161 570 
Q 1363 391 1709 391 
Q 2188 391 2477 730 
Q 2766 1069 2766 1631 
L 2766 1759 
L 2194 1759 
z
M 3341 1997 
L 3341 0 
L 2766 0 
L 2766 531 
Q 2569 213 2275 61 
Q 1981 -91 1556 -91 
Q 1019 -91 701 211 
Q 384 513 384 1019 
Q 384 1609 779 1909 
Q 1175 2209 1959 2209 
L 2766 2209 
L 2766 2266 
Q 2766 2663 2505 2880 
Q 2244 3097 1772 3097 
Q 1472 3097 1187 3025 
Q 903 2953 641 2809 
L 641 3341 
Q 956 3463 1253 3523 
Q 1550 3584 1831 3584 
Q 2591 3584 2966 3190 
Q 3341 2797 3341 1997 
z
" transform="scale(0.015625)"/>
      </defs>
      <use xlink:href="#DejaVuSans-49"/>
      <use xlink:href="#DejaVuSans-6e" x="29.492188"/>
      <use xlink:href="#DejaVuSans-74" x="92.871094"/>
      <use xlink:href="#DejaVuSans-72" x="132.080078"/>
      <use xlink:href="#DejaVuSans-61" x="173.193359"/>
      <use xlink:href="#DejaVuSans-73" x="234.472656"/>
      <use xlink:href="#DejaVuSans-70" x="286.572266"/>
      <use xlink:href="#DejaVuSans-65" x="350.048828"/>
      <use xlink:href="#DejaVuSans-63" x="411.572266"/>
      <use xlink:href="#DejaVuSans-69" x="466.552734"/>
      <use xlink:href="#DejaVuSans-65" x="494.335938"/>
      <use xlink:href="#DejaVuSans-73" x="555.859375"/>
     </g>
    </g>
   </g>
  </g>
 </g>
 <defs>
  <clipPath id="p2d9fd44576">
   <rect x="60.01" y="7.2" width="334.8" height="277.2"/>
  </clipPath>
 </defs>
</svg>
