<?xml version="1.0" encoding="utf-8" standalone="no"?>
<!DOCTYPE svg PUBLIC "-//W3C//DTD SVG 1.1//EN"
  "http://www.w3.org/Graphics/SVG/1.1/DTD/svg11.dtd">
<svg xmlns:xlink="http://www.w3.org/1999/xlink" width="444.03pt" height="436.798722pt" viewBox="0 0 444.03 436.798722" xmlns="http://www.w3.org/2000/svg" version="1.1">
 <metadata>
  <rdf:RDF xmlns:dc="http://purl.org/dc/elements/1.1/" xmlns:cc="http://creativecommons.org/ns#" xmlns:rdf="http://www.w3.org/1999/02/22-rdf-syntax-ns#">
   <cc:Work>
    <dc:type rdf:resource="http://purl.org/dc/dcmitype/StillImage"/>
    <dc:date>2025-03-23T15:09:57.638695</dc:date>
    <dc:format>image/svg+xml</dc:format>
    <dc:creator>
     <cc:Agent>
      <dc:title>Matplotlib v3.8.1, https://matplotlib.org/</dc:title>
     </cc:Agent>
    </dc:creator>
   </cc:Work>
  </rdf:RDF>
 </metadata>
 <defs>
  <style type="text/css">*{stroke-linejoin: round; stroke-linecap: butt}</style>
 </defs>
 <g id="figure_1">
  <g id="patch_1">
   <path d="M 0 436.798722 
L 444.03 436.798722 
L 444.03 0 
L 0 0 
z
" style="fill: #ffffff"/>
  </g>
  <g id="axes_1">
   <g id="patch_2">
    <path d="M 79.71 279.671222 
L 436.83 279.671222 
L 436.83 13.559222 
L 79.71 13.559222 
z
" style="fill: #ffffff"/>
   </g>
   <g id="PolyCollection_1">
    <defs>
     <path id="m82781281c3" d="M 149.263533 -160.24165 
L 96.731013 -160.24165 
L 96.343307 -162.324002 
L 96.082598 -164.406353 
L 95.949616 -166.488705 
L 95.942727 -168.571057 
L 96.05799 -170.653408 
L 96.289267 -172.73576 
L 96.62841 -174.818111 
L 97.0655 -176.900463 
L 97.589131 -178.982814 
L 98.186742 -181.065166 
L 98.844965 -183.147517 
L 99.549992 -185.229869 
L 100.28794 -187.312221 
L 101.045205 -189.394572 
L 101.808791 -191.476924 
L 102.566608 -193.559275 
L 103.307721 -195.641627 
L 104.022561 -197.723978 
L 104.703075 -199.80633 
L 105.34282 -201.888681 
L 105.937012 -203.971033 
L 106.482512 -206.053385 
L 106.977769 -208.135736 
L 107.42272 -210.218088 
L 107.818652 -212.300439 
L 108.168034 -214.382791 
L 108.474328 -216.465142 
L 108.741791 -218.547494 
L 108.975261 -220.629845 
L 109.179956 -222.712197 
L 109.361269 -224.794549 
L 109.524587 -226.8769 
L 109.675117 -228.959252 
L 109.817743 -231.041603 
L 109.956902 -233.123955 
L 110.096485 -235.206306 
L 110.239763 -237.288658 
L 110.389347 -239.371009 
L 110.547158 -241.453361 
L 110.714437 -243.535713 
L 110.891759 -245.618064 
L 111.079079 -247.700416 
L 111.275783 -249.782767 
L 111.480759 -251.865119 
L 111.69247 -253.94747 
L 111.90904 -256.029822 
L 112.128336 -258.112173 
L 112.348059 -260.194525 
L 112.565821 -262.276877 
L 112.779231 -264.359228 
L 112.985967 -266.44158 
L 113.18384 -268.523931 
L 113.370855 -270.606283 
L 113.545258 -272.688634 
L 113.705575 -274.770986 
L 113.85064 -276.853337 
L 113.979616 -278.935689 
L 114.092006 -281.018041 
L 114.187652 -283.100392 
L 114.266731 -285.182744 
L 114.329742 -287.265095 
L 114.377486 -289.347447 
L 114.411043 -291.429798 
L 114.431743 -293.51215 
L 114.441136 -295.594501 
L 114.440957 -297.676853 
L 114.433092 -299.759205 
L 114.41954 -301.841556 
L 114.402379 -303.923908 
L 114.38373 -306.006259 
L 114.365721 -308.088611 
L 114.350451 -310.170962 
L 114.339965 -312.253314 
L 114.336217 -314.335665 
L 114.341046 -316.418017 
L 114.35615 -318.500369 
L 114.383065 -320.58272 
L 114.423147 -322.665072 
L 114.477553 -324.747423 
L 114.547234 -326.829775 
L 114.632923 -328.912126 
L 114.735129 -330.994478 
L 114.85414 -333.076829 
L 114.990019 -335.159181 
L 115.142614 -337.241533 
L 115.311559 -339.323884 
L 115.496293 -341.406236 
L 115.696066 -343.488587 
L 115.909955 -345.570939 
L 116.136884 -347.65329 
L 116.375637 -349.735642 
L 116.624882 -351.817993 
L 116.883188 -353.900345 
L 117.149047 -355.982697 
L 117.420893 -358.065048 
L 117.697127 -360.1474 
L 117.976132 -362.229751 
L 118.256298 -364.312103 
L 118.53604 -366.394454 
L 127.458506 -366.394454 
L 127.458506 -366.394454 
L 127.738248 -364.312103 
L 128.018414 -362.229751 
L 128.297419 -360.1474 
L 128.573652 -358.065048 
L 128.845499 -355.982697 
L 129.111357 -353.900345 
L 129.369663 -351.817993 
L 129.618908 -349.735642 
L 129.857662 -347.65329 
L 130.08459 -345.570939 
L 130.298479 -343.488587 
L 130.498252 -341.406236 
L 130.682986 -339.323884 
L 130.851932 -337.241533 
L 131.004526 -335.159181 
L 131.140405 -333.076829 
L 131.259416 -330.994478 
L 131.361623 -328.912126 
L 131.447311 -326.829775 
L 131.516993 -324.747423 
L 131.571399 -322.665072 
L 131.61148 -320.58272 
L 131.638396 -318.500369 
L 131.6535 -316.418017 
L 131.658328 -314.335665 
L 131.65458 -312.253314 
L 131.644094 -310.170962 
L 131.628825 -308.088611 
L 131.610815 -306.006259 
L 131.592166 -303.923908 
L 131.575006 -301.841556 
L 131.561454 -299.759205 
L 131.553588 -297.676853 
L 131.553409 -295.594501 
L 131.562802 -293.51215 
L 131.583503 -291.429798 
L 131.61706 -289.347447 
L 131.664804 -287.265095 
L 131.727815 -285.182744 
L 131.806894 -283.100392 
L 131.90254 -281.018041 
L 132.014929 -278.935689 
L 132.143906 -276.853337 
L 132.28897 -274.770986 
L 132.449287 -272.688634 
L 132.62369 -270.606283 
L 132.810705 -268.523931 
L 133.008579 -266.44158 
L 133.215315 -264.359228 
L 133.428725 -262.276877 
L 133.646487 -260.194525 
L 133.866209 -258.112173 
L 134.085506 -256.029822 
L 134.302076 -253.94747 
L 134.513787 -251.865119 
L 134.718762 -249.782767 
L 134.915466 -247.700416 
L 135.102786 -245.618064 
L 135.280108 -243.535713 
L 135.447387 -241.453361 
L 135.605199 -239.371009 
L 135.754782 -237.288658 
L 135.898061 -235.206306 
L 136.037643 -233.123955 
L 136.176802 -231.041603 
L 136.319429 -228.959252 
L 136.469959 -226.8769 
L 136.633276 -224.794549 
L 136.814589 -222.712197 
L 137.019284 -220.629845 
L 137.252755 -218.547494 
L 137.520217 -216.465142 
L 137.826512 -214.382791 
L 138.175893 -212.300439 
L 138.571825 -210.218088 
L 139.016776 -208.135736 
L 139.512034 -206.053385 
L 140.057533 -203.971033 
L 140.651725 -201.888681 
L 141.291471 -199.80633 
L 141.971984 -197.723978 
L 142.686825 -195.641627 
L 143.427938 -193.559275 
L 144.185754 -191.476924 
L 144.94934 -189.394572 
L 145.706605 -187.312221 
L 146.444553 -185.229869 
L 147.14958 -183.147517 
L 147.807803 -181.065166 
L 148.405415 -178.982814 
L 148.929046 -176.900463 
L 149.366135 -174.818111 
L 149.705279 -172.73576 
L 149.936556 -170.653408 
L 150.051818 -168.571057 
L 150.04493 -166.488705 
L 149.911947 -164.406353 
L 149.651239 -162.324002 
L 149.263533 -160.24165 
z
" style="stroke: #757575; stroke-width: 1.25"/>
    </defs>
    <g clip-path="url(#p45d0dc2756)">
     <use xlink:href="#m82781281c3" x="0" y="436.798722" style="fill: #a0c7f1; stroke: #757575; stroke-width: 1.25"/>
    </g>
   </g>
   <g id="PolyCollection_2">
    <defs>
     <path id="m127fc83e38" d="M 193.534784 -160.972455 
L 187.732488 -160.972455 
L 187.63149 -163.465997 
L 187.555925 -165.959538 
L 187.502315 -168.45308 
L 187.464914 -170.946621 
L 187.435867 -173.440163 
L 187.405517 -175.933704 
L 187.362831 -178.427246 
L 187.295922 -180.920787 
L 187.19265 -183.414329 
L 187.041247 -185.90787 
L 186.830952 -188.401412 
L 186.552604 -190.894953 
L 186.199167 -193.388495 
L 185.766131 -195.882036 
L 185.251789 -198.375578 
L 184.657323 -200.869119 
L 183.986719 -203.362661 
L 183.246486 -205.856202 
L 182.445207 -208.349744 
L 181.592945 -210.843285 
L 180.700577 -213.336827 
L 179.779092 -215.830368 
L 178.838939 -218.32391 
L 177.889495 -220.817451 
L 176.938682 -223.310993 
L 175.992799 -225.804534 
L 175.056544 -228.298076 
L 174.13324 -230.791617 
L 173.225187 -233.285159 
L 172.334123 -235.7787 
L 171.461686 -238.272242 
L 170.609851 -240.765783 
L 169.781265 -243.259325 
L 168.979458 -245.752866 
L 168.20892 -248.246408 
L 167.475051 -250.739949 
L 166.784007 -253.233491 
L 166.142485 -255.727032 
L 165.557467 -258.220574 
L 165.035966 -260.714115 
L 164.584783 -263.207657 
L 164.210282 -265.701198 
L 163.918172 -268.19474 
L 163.713304 -270.688281 
L 163.599451 -273.181823 
L 163.579091 -275.675364 
L 163.653197 -278.168906 
L 163.821051 -280.662447 
L 164.080129 -283.155989 
L 164.426079 -285.64953 
L 164.852834 -288.143072 
L 165.352864 -290.636613 
L 165.917575 -293.130155 
L 166.537821 -295.623696 
L 167.204482 -298.117238 
L 167.909039 -300.610779 
L 168.644077 -303.104321 
L 169.403655 -305.597862 
L 170.183486 -308.091404 
L 170.980903 -310.584945 
L 171.794628 -313.078487 
L 172.624369 -315.572028 
L 173.470308 -318.06557 
L 174.332548 -320.559111 
L 175.210604 -323.052653 
L 176.102987 -325.546194 
L 177.006944 -328.039736 
L 177.918362 -330.533277 
L 178.831843 -333.026819 
L 179.740925 -335.52036 
L 180.638399 -338.013902 
L 181.516689 -340.507443 
L 182.36823 -343.000985 
L 183.185822 -345.494526 
L 183.962909 -347.988068 
L 184.693786 -350.481609 
L 185.373714 -352.975151 
L 185.998976 -355.468692 
L 186.566862 -357.962234 
L 187.075631 -360.455775 
L 187.524452 -362.949317 
L 187.913356 -365.442858 
L 188.243201 -367.9364 
L 188.515654 -370.429941 
L 188.733205 -372.923483 
L 188.899177 -375.417024 
L 189.017739 -377.910566 
L 189.093901 -380.404108 
L 189.133463 -382.897649 
L 189.14292 -385.391191 
L 189.129308 -387.884732 
L 189.099983 -390.378274 
L 189.062354 -392.871815 
L 189.023574 -395.365357 
L 188.990223 -397.858898 
L 188.967996 -400.35244 
L 188.96144 -402.845981 
L 188.973755 -405.339523 
L 189.006689 -407.833064 
L 192.260584 -407.833064 
L 192.260584 -407.833064 
L 192.293518 -405.339523 
L 192.305833 -402.845981 
L 192.299277 -400.35244 
L 192.277049 -397.858898 
L 192.243698 -395.365357 
L 192.204919 -392.871815 
L 192.16729 -390.378274 
L 192.137965 -387.884732 
L 192.124353 -385.391191 
L 192.13381 -382.897649 
L 192.173372 -380.404108 
L 192.249533 -377.910566 
L 192.368096 -375.417024 
L 192.534067 -372.923483 
L 192.751619 -370.429941 
L 193.024072 -367.9364 
L 193.353916 -365.442858 
L 193.742821 -362.949317 
L 194.191642 -360.455775 
L 194.70041 -357.962234 
L 195.268296 -355.468692 
L 195.893558 -352.975151 
L 196.573487 -350.481609 
L 197.304363 -347.988068 
L 198.081451 -345.494526 
L 198.899043 -343.000985 
L 199.750584 -340.507443 
L 200.628873 -338.013902 
L 201.526347 -335.52036 
L 202.435429 -333.026819 
L 203.348911 -330.533277 
L 204.260329 -328.039736 
L 205.164286 -325.546194 
L 206.056669 -323.052653 
L 206.934725 -320.559111 
L 207.796965 -318.06557 
L 208.642904 -315.572028 
L 209.472645 -313.078487 
L 210.28637 -310.584945 
L 211.083787 -308.091404 
L 211.863617 -305.597862 
L 212.623196 -303.104321 
L 213.358234 -300.610779 
L 214.06279 -298.117238 
L 214.729452 -295.623696 
L 215.349698 -293.130155 
L 215.914409 -290.636613 
L 216.414438 -288.143072 
L 216.841193 -285.64953 
L 217.187144 -283.155989 
L 217.446222 -280.662447 
L 217.614076 -278.168906 
L 217.688182 -275.675364 
L 217.667822 -273.181823 
L 217.553969 -270.688281 
L 217.349101 -268.19474 
L 217.056991 -265.701198 
L 216.68249 -263.207657 
L 216.231307 -260.714115 
L 215.709806 -258.220574 
L 215.124788 -255.727032 
L 214.483265 -253.233491 
L 213.792222 -250.739949 
L 213.058353 -248.246408 
L 212.287815 -245.752866 
L 211.486008 -243.259325 
L 210.657421 -240.765783 
L 209.805587 -238.272242 
L 208.93315 -235.7787 
L 208.042085 -233.285159 
L 207.134033 -230.791617 
L 206.210728 -228.298076 
L 205.274474 -225.804534 
L 204.328591 -223.310993 
L 203.377778 -220.817451 
L 202.428333 -218.32391 
L 201.488181 -215.830368 
L 200.566696 -213.336827 
L 199.674328 -210.843285 
L 198.822066 -208.349744 
L 198.020786 -205.856202 
L 197.280554 -203.362661 
L 196.60995 -200.869119 
L 196.015484 -198.375578 
L 195.501141 -195.882036 
L 195.068106 -193.388495 
L 194.714668 -190.894953 
L 194.436321 -188.401412 
L 194.226026 -185.90787 
L 194.074623 -183.414329 
L 193.97135 -180.920787 
L 193.904442 -178.427246 
L 193.861755 -175.933704 
L 193.831406 -173.440163 
L 193.802359 -170.946621 
L 193.764958 -168.45308 
L 193.711348 -165.959538 
L 193.635783 -163.465997 
L 193.534784 -160.972455 
z
" style="stroke: #757575; stroke-width: 1.25"/>
    </defs>
    <g clip-path="url(#p45d0dc2756)">
     <use xlink:href="#m127fc83e38" x="0" y="436.798722" style="fill: #a2e5b0; stroke: #757575; stroke-width: 1.25"/>
    </g>
   </g>
   <g id="PolyCollection_3">
    <defs>
     <path id="m64cf80ff78" d="M 262.644846 -180.875365 
L 253.895154 -180.875365 
L 253.571907 -182.698487 
L 253.239366 -184.521609 
L 252.894872 -186.34473 
L 252.535086 -188.167852 
L 252.156114 -189.990974 
L 251.75369 -191.814095 
L 251.32338 -193.637217 
L 250.860832 -195.460339 
L 250.36202 -197.28346 
L 249.823502 -199.106582 
L 249.242664 -200.929704 
L 248.61793 -202.752825 
L 247.948943 -204.575947 
L 247.236696 -206.399069 
L 246.483599 -208.22219 
L 245.69349 -210.045312 
L 244.87158 -211.868434 
L 244.024326 -213.691555 
L 243.159245 -215.514677 
L 242.284679 -217.337799 
L 241.409502 -219.16092 
L 240.542805 -220.984042 
L 239.693568 -222.807164 
L 238.870322 -224.630285 
L 238.080842 -226.453407 
L 237.331867 -228.276529 
L 236.628876 -230.09965 
L 235.975926 -231.922772 
L 235.375557 -233.745894 
L 234.828784 -235.569015 
L 234.335155 -237.392137 
L 233.892895 -239.215259 
L 233.499103 -241.03838 
L 233.15002 -242.861502 
L 232.84132 -244.684624 
L 232.568446 -246.507745 
L 232.326934 -248.330867 
L 232.11274 -250.153989 
L 231.92253 -251.97711 
L 231.753929 -253.800232 
L 231.605708 -255.623354 
L 231.4779 -257.446475 
L 231.371839 -259.269597 
L 231.290113 -261.092719 
L 231.236437 -262.91584 
L 231.215455 -264.738962 
L 231.232463 -266.562084 
L 231.293097 -268.385205 
L 231.402973 -270.208327 
L 231.567322 -272.031449 
L 231.790625 -273.85457 
L 232.076287 -275.677692 
L 232.426352 -277.500814 
L 232.841295 -279.323935 
L 233.319887 -281.147057 
L 233.859166 -282.970179 
L 234.454488 -284.7933 
L 235.099691 -286.616422 
L 235.787328 -288.439544 
L 236.508986 -290.262665 
L 237.255644 -292.085787 
L 238.018068 -293.908909 
L 238.787206 -295.73203 
L 239.554556 -297.555152 
L 240.312494 -299.378274 
L 241.05452 -301.201395 
L 241.775438 -303.024517 
L 242.471426 -304.847639 
L 243.140032 -306.67076 
L 243.780067 -308.493882 
L 244.391442 -310.317004 
L 244.974942 -312.140125 
L 245.531976 -313.963247 
L 246.06432 -315.786369 
L 246.573875 -317.60949 
L 247.062468 -319.432612 
L 247.531696 -321.255734 
L 247.982841 -323.078855 
L 248.416842 -324.901977 
L 248.834323 -326.725099 
L 249.235674 -328.54822 
L 249.621162 -330.371342 
L 249.991059 -332.194464 
L 250.345766 -334.017585 
L 250.685919 -335.840707 
L 251.012465 -337.663829 
L 251.326695 -339.48695 
L 251.630228 -341.310072 
L 251.924957 -343.133194 
L 252.212951 -344.956315 
L 252.496335 -346.779437 
L 252.777143 -348.602559 
L 253.057182 -350.42568 
L 253.337899 -352.248802 
L 253.620271 -354.071924 
L 253.904737 -355.895045 
L 254.19116 -357.718167 
L 254.478832 -359.541289 
L 254.766521 -361.36441 
L 261.773479 -361.36441 
L 261.773479 -361.36441 
L 262.061168 -359.541289 
L 262.34884 -357.718167 
L 262.635263 -355.895045 
L 262.919729 -354.071924 
L 263.202101 -352.248802 
L 263.482818 -350.42568 
L 263.762857 -348.602559 
L 264.043665 -346.779437 
L 264.327049 -344.956315 
L 264.615043 -343.133194 
L 264.909772 -341.310072 
L 265.213305 -339.48695 
L 265.527535 -337.663829 
L 265.854081 -335.840707 
L 266.194234 -334.017585 
L 266.548941 -332.194464 
L 266.918838 -330.371342 
L 267.304326 -328.54822 
L 267.705677 -326.725099 
L 268.123158 -324.901977 
L 268.557159 -323.078855 
L 269.008304 -321.255734 
L 269.477532 -319.432612 
L 269.966125 -317.60949 
L 270.47568 -315.786369 
L 271.008024 -313.963247 
L 271.565058 -312.140125 
L 272.148558 -310.317004 
L 272.759933 -308.493882 
L 273.399968 -306.67076 
L 274.068574 -304.847639 
L 274.764562 -303.024517 
L 275.48548 -301.201395 
L 276.227506 -299.378274 
L 276.985444 -297.555152 
L 277.752794 -295.73203 
L 278.521932 -293.908909 
L 279.284356 -292.085787 
L 280.031014 -290.262665 
L 280.752672 -288.439544 
L 281.440309 -286.616422 
L 282.085512 -284.7933 
L 282.680834 -282.970179 
L 283.220113 -281.147057 
L 283.698705 -279.323935 
L 284.113648 -277.500814 
L 284.463713 -275.677692 
L 284.749375 -273.85457 
L 284.972678 -272.031449 
L 285.137027 -270.208327 
L 285.246903 -268.385205 
L 285.307537 -266.562084 
L 285.324545 -264.738962 
L 285.303563 -262.91584 
L 285.249887 -261.092719 
L 285.168161 -259.269597 
L 285.0621 -257.446475 
L 284.934292 -255.623354 
L 284.786071 -253.800232 
L 284.61747 -251.97711 
L 284.42726 -250.153989 
L 284.213066 -248.330867 
L 283.971554 -246.507745 
L 283.69868 -244.684624 
L 283.38998 -242.861502 
L 283.040897 -241.03838 
L 282.647105 -239.215259 
L 282.204845 -237.392137 
L 281.711216 -235.569015 
L 281.164443 -233.745894 
L 280.564074 -231.922772 
L 279.911124 -230.09965 
L 279.208133 -228.276529 
L 278.459158 -226.453407 
L 277.669678 -224.630285 
L 276.846432 -222.807164 
L 275.997195 -220.984042 
L 275.130498 -219.16092 
L 274.255321 -217.337799 
L 273.380755 -215.514677 
L 272.515674 -213.691555 
L 271.66842 -211.868434 
L 270.84651 -210.045312 
L 270.056401 -208.22219 
L 269.303304 -206.399069 
L 268.591057 -204.575947 
L 267.92207 -202.752825 
L 267.297336 -200.929704 
L 266.716498 -199.106582 
L 266.17798 -197.28346 
L 265.679168 -195.460339 
L 265.21662 -193.637217 
L 264.78631 -191.814095 
L 264.383886 -189.990974 
L 264.004914 -188.167852 
L 263.645128 -186.34473 
L 263.300634 -184.521609 
L 262.968093 -182.698487 
L 262.644846 -180.875365 
z
" style="stroke: #757575; stroke-width: 1.25"/>
    </defs>
    <g clip-path="url(#p45d0dc2756)">
     <use xlink:href="#m64cf80ff78" x="0" y="436.798722" style="fill: #f2aaa7; stroke: #757575; stroke-width: 1.25"/>
    </g>
   </g>
   <g id="PolyCollection_4">
    <defs>
     <path id="m29637bcd22" d="M 330.564907 -164.909584 
L 321.24782 -164.909584 
L 320.828042 -167.317868 
L 320.412087 -169.726153 
L 320.002043 -172.134437 
L 319.598463 -174.542721 
L 319.200103 -176.951005 
L 318.803763 -179.35929 
L 318.404226 -181.767574 
L 317.994344 -184.175858 
L 317.565264 -186.584142 
L 317.106822 -188.992427 
L 316.608078 -191.400711 
L 316.057992 -193.808995 
L 315.446204 -196.217279 
L 314.763861 -198.625564 
L 314.004446 -201.033848 
L 313.164536 -203.442132 
L 312.244431 -205.850416 
L 311.248582 -208.258701 
L 310.18578 -210.666985 
L 309.069079 -213.075269 
L 307.915421 -215.483554 
L 306.745011 -217.891838 
L 305.580451 -220.300122 
L 304.445709 -222.708406 
L 303.364984 -225.116691 
L 302.361558 -227.524975 
L 301.456721 -229.933259 
L 300.668832 -232.341543 
L 300.0126 -234.749828 
L 299.498607 -237.158112 
L 299.133121 -239.566396 
L 298.918161 -241.97468 
L 298.851818 -244.382965 
L 298.928764 -246.791249 
L 299.140884 -249.199533 
L 299.477982 -251.607817 
L 299.928468 -254.016102 
L 300.479984 -256.424386 
L 301.119927 -258.83267 
L 301.835833 -261.240955 
L 302.615628 -263.649239 
L 303.447763 -266.057523 
L 304.321245 -268.465807 
L 305.225623 -270.874092 
L 306.150935 -273.282376 
L 307.08768 -275.69066 
L 308.026805 -278.098944 
L 308.959746 -280.507229 
L 309.878503 -282.915513 
L 310.775748 -285.323797 
L 311.644953 -287.732081 
L 312.480508 -290.140366 
L 313.277831 -292.54865 
L 314.033441 -294.956934 
L 314.744997 -297.365218 
L 315.411296 -299.773503 
L 316.032242 -302.181787 
L 316.608782 -304.590071 
L 317.142818 -306.998356 
L 317.637104 -309.40664 
L 318.095121 -311.814924 
L 318.520947 -314.223208 
L 318.919091 -316.631493 
L 319.294324 -319.039777 
L 319.651478 -321.448061 
L 319.995235 -323.856345 
L 320.329905 -326.26463 
L 320.659206 -328.672914 
L 320.986064 -331.081198 
L 321.312454 -333.489482 
L 321.639279 -335.897767 
L 321.96633 -338.306051 
L 322.292305 -340.714335 
L 322.614907 -343.12262 
L 322.931003 -345.530904 
L 323.23684 -347.939188 
L 323.528293 -350.347472 
L 323.801131 -352.755757 
L 324.05128 -355.164041 
L 324.275067 -357.572325 
L 324.469433 -359.980609 
L 324.632099 -362.388894 
L 324.761695 -364.797178 
L 324.857836 -367.205462 
L 324.921165 -369.613746 
L 324.953344 -372.022031 
L 324.957011 -374.430315 
L 324.935706 -376.838599 
L 324.893748 -379.246883 
L 324.836085 -381.655168 
L 324.768107 -384.063452 
L 324.695427 -386.471736 
L 324.623639 -388.880021 
L 324.558063 -391.288305 
L 324.503491 -393.696589 
L 324.463955 -396.104873 
L 324.442532 -398.513158 
L 324.441209 -400.921442 
L 324.460806 -403.329726 
L 327.351922 -403.329726 
L 327.351922 -403.329726 
L 327.371518 -400.921442 
L 327.370195 -398.513158 
L 327.348773 -396.104873 
L 327.309236 -393.696589 
L 327.254664 -391.288305 
L 327.189088 -388.880021 
L 327.1173 -386.471736 
L 327.044621 -384.063452 
L 326.976642 -381.655168 
L 326.918979 -379.246883 
L 326.877021 -376.838599 
L 326.855716 -374.430315 
L 326.859384 -372.022031 
L 326.891562 -369.613746 
L 326.954891 -367.205462 
L 327.051033 -364.797178 
L 327.180628 -362.388894 
L 327.343294 -359.980609 
L 327.53766 -357.572325 
L 327.761448 -355.164041 
L 328.011597 -352.755757 
L 328.284434 -350.347472 
L 328.575887 -347.939188 
L 328.881724 -345.530904 
L 329.197821 -343.12262 
L 329.520423 -340.714335 
L 329.846398 -338.306051 
L 330.173448 -335.897767 
L 330.500273 -333.489482 
L 330.826663 -331.081198 
L 331.153522 -328.672914 
L 331.482822 -326.26463 
L 331.817492 -323.856345 
L 332.16125 -321.448061 
L 332.518404 -319.039777 
L 332.893636 -316.631493 
L 333.29178 -314.223208 
L 333.717606 -311.814924 
L 334.175624 -309.40664 
L 334.669909 -306.998356 
L 335.203945 -304.590071 
L 335.780485 -302.181787 
L 336.401432 -299.773503 
L 337.067731 -297.365218 
L 337.779286 -294.956934 
L 338.534896 -292.54865 
L 339.332219 -290.140366 
L 340.167775 -287.732081 
L 341.036979 -285.323797 
L 341.934224 -282.915513 
L 342.852981 -280.507229 
L 343.785922 -278.098944 
L 344.725047 -275.69066 
L 345.661792 -273.282376 
L 346.587105 -270.874092 
L 347.491482 -268.465807 
L 348.364965 -266.057523 
L 349.197099 -263.649239 
L 349.976894 -261.240955 
L 350.6928 -258.83267 
L 351.332743 -256.424386 
L 351.88426 -254.016102 
L 352.334745 -251.607817 
L 352.671843 -249.199533 
L 352.883964 -246.791249 
L 352.960909 -244.382965 
L 352.894567 -241.97468 
L 352.679607 -239.566396 
L 352.31412 -237.158112 
L 351.800128 -234.749828 
L 351.143895 -232.341543 
L 350.356006 -229.933259 
L 349.451169 -227.524975 
L 348.447743 -225.116691 
L 347.367018 -222.708406 
L 346.232276 -220.300122 
L 345.067717 -217.891838 
L 343.897307 -215.483554 
L 342.743649 -213.075269 
L 341.626947 -210.666985 
L 340.564146 -208.258701 
L 339.568296 -205.850416 
L 338.648191 -203.442132 
L 337.808281 -201.033848 
L 337.048866 -198.625564 
L 336.366523 -196.217279 
L 335.754735 -193.808995 
L 335.20465 -191.400711 
L 334.705905 -188.992427 
L 334.247463 -186.584142 
L 333.818384 -184.175858 
L 333.408501 -181.767574 
L 333.008964 -179.35929 
L 332.612624 -176.951005 
L 332.214264 -174.542721 
L 331.810684 -172.134437 
L 331.400641 -169.726153 
L 330.984686 -167.317868 
L 330.564907 -164.909584 
z
" style="stroke: #757575; stroke-width: 1.25"/>
    </defs>
    <g clip-path="url(#p45d0dc2756)">
     <use xlink:href="#m29637bcd22" x="0" y="436.798722" style="fill: #d3c4f6; stroke: #757575; stroke-width: 1.25"/>
    </g>
   </g>
   <g id="PolyCollection_5">
    <defs>
     <path id="mf01a41e700" d="M 396.303754 -161.723012 
L 390.7817 -161.723012 
L 390.565569 -164.080687 
L 390.337722 -166.438362 
L 390.091804 -168.796037 
L 389.81997 -171.153713 
L 389.513195 -173.511388 
L 389.161722 -175.869063 
L 388.755627 -178.226738 
L 388.285482 -180.584414 
L 387.743036 -182.942089 
L 387.121895 -185.299764 
L 386.418117 -187.657439 
L 385.630669 -190.015114 
L 384.761713 -192.37279 
L 383.816681 -194.730465 
L 382.804124 -197.08814 
L 381.735354 -199.445815 
L 380.623905 -201.803491 
L 379.484854 -204.161166 
L 378.334082 -206.518841 
L 377.18751 -208.876516 
L 376.060406 -211.234192 
L 374.96679 -213.591867 
L 373.918978 -215.949542 
L 372.927302 -218.307217 
L 371.999966 -220.664893 
L 371.143066 -223.022568 
L 370.360703 -225.380243 
L 369.655174 -227.737918 
L 369.027207 -230.095594 
L 368.476195 -232.453269 
L 368.000429 -234.810944 
L 367.597305 -237.168619 
L 367.263515 -239.526295 
L 366.995222 -241.88397 
L 366.788246 -244.241645 
L 366.638238 -246.59932 
L 366.540879 -248.956996 
L 366.492081 -251.314671 
L 366.488182 -253.672346 
L 366.526127 -256.030021 
L 366.603614 -258.387697 
L 366.719188 -260.745372 
L 366.872275 -263.103047 
L 367.063153 -265.460722 
L 367.292855 -267.818398 
L 367.563023 -270.176073 
L 367.87572 -272.533748 
L 368.233224 -274.891423 
L 368.637808 -277.249099 
L 369.091541 -279.606774 
L 369.596101 -281.964449 
L 370.152616 -284.322124 
L 370.761539 -286.6798 
L 371.422545 -289.037475 
L 372.134453 -291.39515 
L 372.895178 -293.752825 
L 373.701692 -296.110501 
L 374.550009 -298.468176 
L 375.435193 -300.825851 
L 376.351381 -303.183526 
L 377.291842 -305.541202 
L 378.249062 -307.898877 
L 379.214868 -310.256552 
L 380.180591 -312.614227 
L 381.137256 -314.971903 
L 382.07582 -317.329578 
L 382.987416 -319.687253 
L 383.863617 -322.044928 
L 384.6967 -324.402604 
L 385.479883 -326.760279 
L 386.207534 -329.117954 
L 386.875334 -331.475629 
L 387.48037 -333.833305 
L 388.021177 -336.19098 
L 388.497701 -338.548655 
L 388.911206 -340.90633 
L 389.264124 -343.264006 
L 389.559869 -345.621681 
L 389.802619 -347.979356 
L 389.997107 -350.337031 
L 390.148406 -352.694707 
L 390.261752 -355.052382 
L 390.342399 -357.410057 
L 390.395512 -359.767732 
L 390.42611 -362.125408 
L 390.439033 -364.483083 
L 390.438951 -366.840758 
L 390.430369 -369.198433 
L 390.417651 -371.556108 
L 390.405013 -373.913784 
L 390.39651 -376.271459 
L 390.395979 -378.629134 
L 390.406958 -380.986809 
L 390.432582 -383.344485 
L 390.475458 -385.70216 
L 390.537537 -388.059835 
L 390.620004 -390.41751 
L 390.72319 -392.775186 
L 390.846531 -395.132861 
L 396.238924 -395.132861 
L 396.238924 -395.132861 
L 396.362264 -392.775186 
L 396.46545 -390.41751 
L 396.547917 -388.059835 
L 396.609997 -385.70216 
L 396.652873 -383.344485 
L 396.678497 -380.986809 
L 396.689476 -378.629134 
L 396.688944 -376.271459 
L 396.680441 -373.913784 
L 396.667804 -371.556108 
L 396.655085 -369.198433 
L 396.646504 -366.840758 
L 396.646421 -364.483083 
L 396.659345 -362.125408 
L 396.689942 -359.767732 
L 396.743056 -357.410057 
L 396.823703 -355.052382 
L 396.937049 -352.694707 
L 397.088348 -350.337031 
L 397.282835 -347.979356 
L 397.525586 -345.621681 
L 397.82133 -343.264006 
L 398.174248 -340.90633 
L 398.587753 -338.548655 
L 399.064277 -336.19098 
L 399.605084 -333.833305 
L 400.210121 -331.475629 
L 400.87792 -329.117954 
L 401.605572 -326.760279 
L 402.388755 -324.402604 
L 403.221837 -322.044928 
L 404.098039 -319.687253 
L 405.009634 -317.329578 
L 405.948198 -314.971903 
L 406.904864 -312.614227 
L 407.870586 -310.256552 
L 408.836392 -307.898877 
L 409.793612 -305.541202 
L 410.734073 -303.183526 
L 411.650261 -300.825851 
L 412.535445 -298.468176 
L 413.383763 -296.110501 
L 414.190276 -293.752825 
L 414.951001 -291.39515 
L 415.66291 -289.037475 
L 416.323915 -286.6798 
L 416.932838 -284.322124 
L 417.489354 -281.964449 
L 417.993914 -279.606774 
L 418.447647 -277.249099 
L 418.852231 -274.891423 
L 419.209734 -272.533748 
L 419.522432 -270.176073 
L 419.7926 -267.818398 
L 420.022302 -265.460722 
L 420.21318 -263.103047 
L 420.366267 -260.745372 
L 420.481841 -258.387697 
L 420.559328 -256.030021 
L 420.597273 -253.672346 
L 420.593374 -251.314671 
L 420.544576 -248.956996 
L 420.447217 -246.59932 
L 420.297209 -244.241645 
L 420.090232 -241.88397 
L 419.82194 -239.526295 
L 419.488149 -237.168619 
L 419.085025 -234.810944 
L 418.609259 -232.453269 
L 418.058247 -230.095594 
L 417.43028 -227.737918 
L 416.724751 -225.380243 
L 415.942388 -223.022568 
L 415.085489 -220.664893 
L 414.158153 -218.307217 
L 413.166476 -215.949542 
L 412.118665 -213.591867 
L 411.025048 -211.234192 
L 409.897945 -208.876516 
L 408.751373 -206.518841 
L 407.6006 -204.161166 
L 406.46155 -201.803491 
L 405.350101 -199.445815 
L 404.281331 -197.08814 
L 403.268774 -194.730465 
L 402.323742 -192.37279 
L 401.454786 -190.015114 
L 400.667337 -187.657439 
L 399.963559 -185.299764 
L 399.342419 -182.942089 
L 398.799973 -180.584414 
L 398.329827 -178.226738 
L 397.923733 -175.869063 
L 397.572259 -173.511388 
L 397.265485 -171.153713 
L 396.993651 -168.796037 
L 396.747732 -166.438362 
L 396.519885 -164.080687 
L 396.303754 -161.723012 
z
" style="stroke: #757575; stroke-width: 1.25"/>
    </defs>
    <g clip-path="url(#p45d0dc2756)">
     <use xlink:href="#mf01a41e700" x="0" y="436.798722" style="fill: #f3f3ae; stroke: #757575; stroke-width: 1.25"/>
    </g>
   </g>
   <g id="matplotlib.axis_1">
    <g id="xtick_1">
     <g id="line2d_1">
      <defs>
       <path id="m87843048fc" d="M 0 0 
L 0 3.5 
" style="stroke: #000000; stroke-width: 0.8"/>
      </defs>
      <g>
       <use xlink:href="#m87843048fc" x="122.997273" y="279.671222" style="stroke: #000000; stroke-width: 0.8"/>
      </g>
     </g>
     <g id="text_1">
      <!-- AlphaFold -->
      <g transform="translate(116.182398 404.432472) rotate(-90) scale(0.24 -0.24)">
       <defs>
        <path id="DejaVuSans-41" d="M 2188 4044 
L 1331 1722 
L 3047 1722 
L 2188 4044 
z
M 1831 4666 
L 2547 4666 
L 4325 0 
L 3669 0 
L 3244 1197 
L 1141 1197 
L 716 0 
L 50 0 
L 1831 4666 
z
" transform="scale(0.015625)"/>
        <path id="DejaVuSans-6c" d="M 603 4863 
L 1178 4863 
L 1178 0 
L 603 0 
L 603 4863 
z
" transform="scale(0.015625)"/>
        <path id="DejaVuSans-70" d="M 1159 525 
L 1159 -1331 
L 581 -1331 
L 581 3500 
L 1159 3500 
L 1159 2969 
Q 1341 3281 1617 3432 
Q 1894 3584 2278 3584 
Q 2916 3584 3314 3078 
Q 3713 2572 3713 1747 
Q 3713 922 3314 415 
Q 2916 -91 2278 -91 
Q 1894 -91 1617 61 
Q 1341 213 1159 525 
z
M 3116 1747 
Q 3116 2381 2855 2742 
Q 2594 3103 2138 3103 
Q 1681 3103 1420 2742 
Q 1159 2381 1159 1747 
Q 1159 1113 1420 752 
Q 1681 391 2138 391 
Q 2594 391 2855 752 
Q 3116 1113 3116 1747 
z
" transform="scale(0.015625)"/>
        <path id="DejaVuSans-68" d="M 3513 2113 
L 3513 0 
L 2938 0 
L 2938 2094 
Q 2938 2591 2744 2837 
Q 2550 3084 2163 3084 
Q 1697 3084 1428 2787 
Q 1159 2491 1159 1978 
L 1159 0 
L 581 0 
L 581 4863 
L 1159 4863 
L 1159 2956 
Q 1366 3272 1645 3428 
Q 1925 3584 2291 3584 
Q 2894 3584 3203 3211 
Q 3513 2838 3513 2113 
z
" transform="scale(0.015625)"/>
        <path id="DejaVuSans-61" d="M 2194 1759 
Q 1497 1759 1228 1600 
Q 959 1441 959 1056 
Q 959 750 1161 570 
Q 1363 391 1709 391 
Q 2188 391 2477 730 
Q 2766 1069 2766 1631 
L 2766 1759 
L 2194 1759 
z
M 3341 1997 
L 3341 0 
L 2766 0 
L 2766 531 
Q 2569 213 2275 61 
Q 1981 -91 1556 -91 
Q 1019 -91 701 211 
Q 384 513 384 1019 
Q 384 1609 779 1909 
Q 1175 2209 1959 2209 
L 2766 2209 
L 2766 2266 
Q 2766 2663 2505 2880 
Q 2244 3097 1772 3097 
Q 1472 3097 1187 3025 
Q 903 2953 641 2809 
L 641 3341 
Q 956 3463 1253 3523 
Q 1550 3584 1831 3584 
Q 2591 3584 2966 3190 
Q 3341 2797 3341 1997 
z
" transform="scale(0.015625)"/>
        <path id="DejaVuSans-46" d="M 628 4666 
L 3309 4666 
L 3309 4134 
L 1259 4134 
L 1259 2759 
L 3109 2759 
L 3109 2228 
L 1259 2228 
L 1259 0 
L 628 0 
L 628 4666 
z
" transform="scale(0.015625)"/>
        <path id="DejaVuSans-6f" d="M 1959 3097 
Q 1497 3097 1228 2736 
Q 959 2375 959 1747 
Q 959 1119 1226 758 
Q 1494 397 1959 397 
Q 2419 397 2687 759 
Q 2956 1122 2956 1747 
Q 2956 2369 2687 2733 
Q 2419 3097 1959 3097 
z
M 1959 3584 
Q 2709 3584 3137 3096 
Q 3566 2609 3566 1747 
Q 3566 888 3137 398 
Q 2709 -91 1959 -91 
Q 1206 -91 779 398 
Q 353 888 353 1747 
Q 353 2609 779 3096 
Q 1206 3584 1959 3584 
z
" transform="scale(0.015625)"/>
        <path id="DejaVuSans-64" d="M 2906 2969 
L 2906 4863 
L 3481 4863 
L 3481 0 
L 2906 0 
L 2906 525 
Q 2725 213 2448 61 
Q 2172 -91 1784 -91 
Q 1150 -91 751 415 
Q 353 922 353 1747 
Q 353 2572 751 3078 
Q 1150 3584 1784 3584 
Q 2172 3584 2448 3432 
Q 2725 3281 2906 2969 
z
M 947 1747 
Q 947 1113 1208 752 
Q 1469 391 1925 391 
Q 2381 391 2643 752 
Q 2906 1113 2906 1747 
Q 2906 2381 2643 2742 
Q 2381 3103 1925 3103 
Q 1469 3103 1208 2742 
Q 947 2381 947 1747 
z
" transform="scale(0.015625)"/>
       </defs>
       <use xlink:href="#DejaVuSans-41"/>
       <use xlink:href="#DejaVuSans-6c" x="68.408203"/>
       <use xlink:href="#DejaVuSans-70" x="96.191406"/>
       <use xlink:href="#DejaVuSans-68" x="159.667969"/>
       <use xlink:href="#DejaVuSans-61" x="223.046875"/>
       <use xlink:href="#DejaVuSans-46" x="284.326172"/>
       <use xlink:href="#DejaVuSans-6f" x="338.220703"/>
       <use xlink:href="#DejaVuSans-6c" x="399.402344"/>
       <use xlink:href="#DejaVuSans-64" x="427.185547"/>
      </g>
      <!-- Multimer -->
      <g transform="translate(143.057148 398.888097) rotate(-90) scale(0.24 -0.24)">
       <defs>
        <path id="DejaVuSans-4d" d="M 628 4666 
L 1569 4666 
L 2759 1491 
L 3956 4666 
L 4897 4666 
L 4897 0 
L 4281 0 
L 4281 4097 
L 3078 897 
L 2444 897 
L 1241 4097 
L 1241 0 
L 628 0 
L 628 4666 
z
" transform="scale(0.015625)"/>
        <path id="DejaVuSans-75" d="M 544 1381 
L 544 3500 
L 1119 3500 
L 1119 1403 
Q 1119 906 1312 657 
Q 1506 409 1894 409 
Q 2359 409 2629 706 
Q 2900 1003 2900 1516 
L 2900 3500 
L 3475 3500 
L 3475 0 
L 2900 0 
L 2900 538 
Q 2691 219 2414 64 
Q 2138 -91 1772 -91 
Q 1169 -91 856 284 
Q 544 659 544 1381 
z
M 1991 3584 
L 1991 3584 
z
" transform="scale(0.015625)"/>
        <path id="DejaVuSans-74" d="M 1172 4494 
L 1172 3500 
L 2356 3500 
L 2356 3053 
L 1172 3053 
L 1172 1153 
Q 1172 725 1289 603 
Q 1406 481 1766 481 
L 2356 481 
L 2356 0 
L 1766 0 
Q 1100 0 847 248 
Q 594 497 594 1153 
L 594 3053 
L 172 3053 
L 172 3500 
L 594 3500 
L 594 4494 
L 1172 4494 
z
" transform="scale(0.015625)"/>
        <path id="DejaVuSans-69" d="M 603 3500 
L 1178 3500 
L 1178 0 
L 603 0 
L 603 3500 
z
M 603 4863 
L 1178 4863 
L 1178 4134 
L 603 4134 
L 603 4863 
z
" transform="scale(0.015625)"/>
        <path id="DejaVuSans-6d" d="M 3328 2828 
Q 3544 3216 3844 3400 
Q 4144 3584 4550 3584 
Q 5097 3584 5394 3201 
Q 5691 2819 5691 2113 
L 5691 0 
L 5113 0 
L 5113 2094 
Q 5113 2597 4934 2840 
Q 4756 3084 4391 3084 
Q 3944 3084 3684 2787 
Q 3425 2491 3425 1978 
L 3425 0 
L 2847 0 
L 2847 2094 
Q 2847 2600 2669 2842 
Q 2491 3084 2119 3084 
Q 1678 3084 1418 2786 
Q 1159 2488 1159 1978 
L 1159 0 
L 581 0 
L 581 3500 
L 1159 3500 
L 1159 2956 
Q 1356 3278 1631 3431 
Q 1906 3584 2284 3584 
Q 2666 3584 2933 3390 
Q 3200 3197 3328 2828 
z
" transform="scale(0.015625)"/>
        <path id="DejaVuSans-65" d="M 3597 1894 
L 3597 1613 
L 953 1613 
Q 991 1019 1311 708 
Q 1631 397 2203 397 
Q 2534 397 2845 478 
Q 3156 559 3463 722 
L 3463 178 
Q 3153 47 2828 -22 
Q 2503 -91 2169 -91 
Q 1331 -91 842 396 
Q 353 884 353 1716 
Q 353 2575 817 3079 
Q 1281 3584 2069 3584 
Q 2775 3584 3186 3129 
Q 3597 2675 3597 1894 
z
M 3022 2063 
Q 3016 2534 2758 2815 
Q 2500 3097 2075 3097 
Q 1594 3097 1305 2825 
Q 1016 2553 972 2059 
L 3022 2063 
z
" transform="scale(0.015625)"/>
        <path id="DejaVuSans-72" d="M 2631 2963 
Q 2534 3019 2420 3045 
Q 2306 3072 2169 3072 
Q 1681 3072 1420 2755 
Q 1159 2438 1159 1844 
L 1159 0 
L 581 0 
L 581 3500 
L 1159 3500 
L 1159 2956 
Q 1341 3275 1631 3429 
Q 1922 3584 2338 3584 
Q 2397 3584 2469 3576 
Q 2541 3569 2628 3553 
L 2631 2963 
z
" transform="scale(0.015625)"/>
       </defs>
       <use xlink:href="#DejaVuSans-4d"/>
       <use xlink:href="#DejaVuSans-75" x="86.279297"/>
       <use xlink:href="#DejaVuSans-6c" x="149.658203"/>
       <use xlink:href="#DejaVuSans-74" x="177.441406"/>
       <use xlink:href="#DejaVuSans-69" x="216.650391"/>
       <use xlink:href="#DejaVuSans-6d" x="244.433594"/>
       <use xlink:href="#DejaVuSans-65" x="341.845703"/>
       <use xlink:href="#DejaVuSans-72" x="403.369141"/>
      </g>
     </g>
    </g>
    <g id="xtick_2">
     <g id="line2d_2">
      <g>
       <use xlink:href="#m87843048fc" x="190.633636" y="279.671222" style="stroke: #000000; stroke-width: 0.8"/>
      </g>
     </g>
     <g id="text_2">
      <!-- ESMFold -->
      <g transform="translate(197.256136 387.302472) rotate(-90) scale(0.24 -0.24)">
       <defs>
        <path id="DejaVuSans-45" d="M 628 4666 
L 3578 4666 
L 3578 4134 
L 1259 4134 
L 1259 2753 
L 3481 2753 
L 3481 2222 
L 1259 2222 
L 1259 531 
L 3634 531 
L 3634 0 
L 628 0 
L 628 4666 
z
" transform="scale(0.015625)"/>
        <path id="DejaVuSans-53" d="M 3425 4513 
L 3425 3897 
Q 3066 4069 2747 4153 
Q 2428 4238 2131 4238 
Q 1616 4238 1336 4038 
Q 1056 3838 1056 3469 
Q 1056 3159 1242 3001 
Q 1428 2844 1947 2747 
L 2328 2669 
Q 3034 2534 3370 2195 
Q 3706 1856 3706 1288 
Q 3706 609 3251 259 
Q 2797 -91 1919 -91 
Q 1588 -91 1214 -16 
Q 841 59 441 206 
L 441 856 
Q 825 641 1194 531 
Q 1563 422 1919 422 
Q 2459 422 2753 634 
Q 3047 847 3047 1241 
Q 3047 1584 2836 1778 
Q 2625 1972 2144 2069 
L 1759 2144 
Q 1053 2284 737 2584 
Q 422 2884 422 3419 
Q 422 4038 858 4394 
Q 1294 4750 2059 4750 
Q 2388 4750 2728 4690 
Q 3069 4631 3425 4513 
z
" transform="scale(0.015625)"/>
       </defs>
       <use xlink:href="#DejaVuSans-45"/>
       <use xlink:href="#DejaVuSans-53" x="63.183594"/>
       <use xlink:href="#DejaVuSans-4d" x="126.660156"/>
       <use xlink:href="#DejaVuSans-46" x="212.939453"/>
       <use xlink:href="#DejaVuSans-6f" x="266.833984"/>
       <use xlink:href="#DejaVuSans-6c" x="328.015625"/>
       <use xlink:href="#DejaVuSans-64" x="355.798828"/>
      </g>
     </g>
    </g>
    <g id="xtick_3">
     <g id="line2d_3">
      <g>
       <use xlink:href="#m87843048fc" x="258.27" y="279.671222" style="stroke: #000000; stroke-width: 0.8"/>
      </g>
     </g>
     <g id="text_3">
      <!-- DiffDock-PP -->
      <g transform="translate(264.8925 426.576222) rotate(-90) scale(0.24 -0.24)">
       <defs>
        <path id="DejaVuSans-44" d="M 1259 4147 
L 1259 519 
L 2022 519 
Q 2988 519 3436 956 
Q 3884 1394 3884 2338 
Q 3884 3275 3436 3711 
Q 2988 4147 2022 4147 
L 1259 4147 
z
M 628 4666 
L 1925 4666 
Q 3281 4666 3915 4102 
Q 4550 3538 4550 2338 
Q 4550 1131 3912 565 
Q 3275 0 1925 0 
L 628 0 
L 628 4666 
z
" transform="scale(0.015625)"/>
        <path id="DejaVuSans-66" d="M 2375 4863 
L 2375 4384 
L 1825 4384 
Q 1516 4384 1395 4259 
Q 1275 4134 1275 3809 
L 1275 3500 
L 2222 3500 
L 2222 3053 
L 1275 3053 
L 1275 0 
L 697 0 
L 697 3053 
L 147 3053 
L 147 3500 
L 697 3500 
L 697 3744 
Q 697 4328 969 4595 
Q 1241 4863 1831 4863 
L 2375 4863 
z
" transform="scale(0.015625)"/>
        <path id="DejaVuSans-63" d="M 3122 3366 
L 3122 2828 
Q 2878 2963 2633 3030 
Q 2388 3097 2138 3097 
Q 1578 3097 1268 2742 
Q 959 2388 959 1747 
Q 959 1106 1268 751 
Q 1578 397 2138 397 
Q 2388 397 2633 464 
Q 2878 531 3122 666 
L 3122 134 
Q 2881 22 2623 -34 
Q 2366 -91 2075 -91 
Q 1284 -91 818 406 
Q 353 903 353 1747 
Q 353 2603 823 3093 
Q 1294 3584 2113 3584 
Q 2378 3584 2631 3529 
Q 2884 3475 3122 3366 
z
" transform="scale(0.015625)"/>
        <path id="DejaVuSans-6b" d="M 581 4863 
L 1159 4863 
L 1159 1991 
L 2875 3500 
L 3609 3500 
L 1753 1863 
L 3688 0 
L 2938 0 
L 1159 1709 
L 1159 0 
L 581 0 
L 581 4863 
z
" transform="scale(0.015625)"/>
        <path id="DejaVuSans-2d" d="M 313 2009 
L 1997 2009 
L 1997 1497 
L 313 1497 
L 313 2009 
z
" transform="scale(0.015625)"/>
        <path id="DejaVuSans-50" d="M 1259 4147 
L 1259 2394 
L 2053 2394 
Q 2494 2394 2734 2622 
Q 2975 2850 2975 3272 
Q 2975 3691 2734 3919 
Q 2494 4147 2053 4147 
L 1259 4147 
z
M 628 4666 
L 2053 4666 
Q 2838 4666 3239 4311 
Q 3641 3956 3641 3272 
Q 3641 2581 3239 2228 
Q 2838 1875 2053 1875 
L 1259 1875 
L 1259 0 
L 628 0 
L 628 4666 
z
" transform="scale(0.015625)"/>
       </defs>
       <use xlink:href="#DejaVuSans-44"/>
       <use xlink:href="#DejaVuSans-69" x="77.001953"/>
       <use xlink:href="#DejaVuSans-66" x="104.785156"/>
       <use xlink:href="#DejaVuSans-66" x="139.990234"/>
       <use xlink:href="#DejaVuSans-44" x="175.195312"/>
       <use xlink:href="#DejaVuSans-6f" x="252.197266"/>
       <use xlink:href="#DejaVuSans-63" x="313.378906"/>
       <use xlink:href="#DejaVuSans-6b" x="368.359375"/>
       <use xlink:href="#DejaVuSans-2d" x="426.269531"/>
       <use xlink:href="#DejaVuSans-50" x="462.353516"/>
       <use xlink:href="#DejaVuSans-50" x="522.65625"/>
      </g>
     </g>
    </g>
    <g id="xtick_4">
     <g id="line2d_4">
      <g>
       <use xlink:href="#m87843048fc" x="325.906364" y="279.671222" style="stroke: #000000; stroke-width: 0.8"/>
      </g>
     </g>
     <g id="text_4">
      <!-- ECLAIR -->
      <g transform="translate(319.091489 401.139972) rotate(-90) scale(0.24 -0.24)">
       <defs>
        <path id="DejaVuSans-43" d="M 4122 4306 
L 4122 3641 
Q 3803 3938 3442 4084 
Q 3081 4231 2675 4231 
Q 1875 4231 1450 3742 
Q 1025 3253 1025 2328 
Q 1025 1406 1450 917 
Q 1875 428 2675 428 
Q 3081 428 3442 575 
Q 3803 722 4122 1019 
L 4122 359 
Q 3791 134 3420 21 
Q 3050 -91 2638 -91 
Q 1578 -91 968 557 
Q 359 1206 359 2328 
Q 359 3453 968 4101 
Q 1578 4750 2638 4750 
Q 3056 4750 3426 4639 
Q 3797 4528 4122 4306 
z
" transform="scale(0.015625)"/>
        <path id="DejaVuSans-4c" d="M 628 4666 
L 1259 4666 
L 1259 531 
L 3531 531 
L 3531 0 
L 628 0 
L 628 4666 
z
" transform="scale(0.015625)"/>
        <path id="DejaVuSans-49" d="M 628 4666 
L 1259 4666 
L 1259 0 
L 628 0 
L 628 4666 
z
" transform="scale(0.015625)"/>
        <path id="DejaVuSans-52" d="M 2841 2188 
Q 3044 2119 3236 1894 
Q 3428 1669 3622 1275 
L 4263 0 
L 3584 0 
L 2988 1197 
Q 2756 1666 2539 1819 
Q 2322 1972 1947 1972 
L 1259 1972 
L 1259 0 
L 628 0 
L 628 4666 
L 2053 4666 
Q 2853 4666 3247 4331 
Q 3641 3997 3641 3322 
Q 3641 2881 3436 2590 
Q 3231 2300 2841 2188 
z
M 1259 4147 
L 1259 2491 
L 2053 2491 
Q 2509 2491 2742 2702 
Q 2975 2913 2975 3322 
Q 2975 3731 2742 3939 
Q 2509 4147 2053 4147 
L 1259 4147 
z
" transform="scale(0.015625)"/>
       </defs>
       <use xlink:href="#DejaVuSans-45"/>
       <use xlink:href="#DejaVuSans-43" x="63.183594"/>
       <use xlink:href="#DejaVuSans-4c" x="133.007812"/>
       <use xlink:href="#DejaVuSans-41" x="190.970703"/>
       <use xlink:href="#DejaVuSans-49" x="259.378906"/>
       <use xlink:href="#DejaVuSans-52" x="288.871094"/>
      </g>
      <!-- +HADDOCK -->
      <g transform="translate(345.966239 429.598722) rotate(-90) scale(0.24 -0.24)">
       <defs>
        <path id="DejaVuSans-2b" d="M 2944 4013 
L 2944 2272 
L 4684 2272 
L 4684 1741 
L 2944 1741 
L 2944 0 
L 2419 0 
L 2419 1741 
L 678 1741 
L 678 2272 
L 2419 2272 
L 2419 4013 
L 2944 4013 
z
" transform="scale(0.015625)"/>
        <path id="DejaVuSans-48" d="M 628 4666 
L 1259 4666 
L 1259 2753 
L 3553 2753 
L 3553 4666 
L 4184 4666 
L 4184 0 
L 3553 0 
L 3553 2222 
L 1259 2222 
L 1259 0 
L 628 0 
L 628 4666 
z
" transform="scale(0.015625)"/>
        <path id="DejaVuSans-4f" d="M 2522 4238 
Q 1834 4238 1429 3725 
Q 1025 3213 1025 2328 
Q 1025 1447 1429 934 
Q 1834 422 2522 422 
Q 3209 422 3611 934 
Q 4013 1447 4013 2328 
Q 4013 3213 3611 3725 
Q 3209 4238 2522 4238 
z
M 2522 4750 
Q 3503 4750 4090 4092 
Q 4678 3434 4678 2328 
Q 4678 1225 4090 567 
Q 3503 -91 2522 -91 
Q 1538 -91 948 565 
Q 359 1222 359 2328 
Q 359 3434 948 4092 
Q 1538 4750 2522 4750 
z
" transform="scale(0.015625)"/>
        <path id="DejaVuSans-4b" d="M 628 4666 
L 1259 4666 
L 1259 2694 
L 3353 4666 
L 4166 4666 
L 1850 2491 
L 4331 0 
L 3500 0 
L 1259 2247 
L 1259 0 
L 628 0 
L 628 4666 
z
" transform="scale(0.015625)"/>
       </defs>
       <use xlink:href="#DejaVuSans-2b"/>
       <use xlink:href="#DejaVuSans-48" x="83.789062"/>
       <use xlink:href="#DejaVuSans-41" x="158.984375"/>
       <use xlink:href="#DejaVuSans-44" x="227.392578"/>
       <use xlink:href="#DejaVuSans-44" x="304.394531"/>
       <use xlink:href="#DejaVuSans-4f" x="381.396484"/>
       <use xlink:href="#DejaVuSans-43" x="460.107422"/>
       <use xlink:href="#DejaVuSans-4b" x="529.931641"/>
      </g>
     </g>
    </g>
    <g id="xtick_5">
     <g id="line2d_5">
      <g>
       <use xlink:href="#m87843048fc" x="393.542727" y="279.671222" style="stroke: #000000; stroke-width: 0.8"/>
      </g>
     </g>
     <g id="text_5">
      <!-- HADDOCK -->
      <g transform="translate(400.165227 409.487472) rotate(-90) scale(0.24 -0.24)">
       <use xlink:href="#DejaVuSans-48"/>
       <use xlink:href="#DejaVuSans-41" x="75.195312"/>
       <use xlink:href="#DejaVuSans-44" x="143.603516"/>
       <use xlink:href="#DejaVuSans-44" x="220.605469"/>
       <use xlink:href="#DejaVuSans-4f" x="297.607422"/>
       <use xlink:href="#DejaVuSans-43" x="376.318359"/>
       <use xlink:href="#DejaVuSans-4b" x="446.142578"/>
      </g>
     </g>
    </g>
   </g>
   <g id="matplotlib.axis_2">
    <g id="ytick_1">
     <g id="line2d_6">
      <defs>
       <path id="mcaa8bf71bb" d="M 0 0 
L -3.5 0 
" style="stroke: #000000; stroke-width: 0.8"/>
      </defs>
      <g>
       <use xlink:href="#mcaa8bf71bb" x="79.71" y="279.671222" style="stroke: #000000; stroke-width: 0.8"/>
      </g>
     </g>
     <g id="text_6">
      <!-- 0 -->
      <g transform="translate(57.44 288.789347) scale(0.24 -0.24)">
       <defs>
        <path id="DejaVuSans-30" d="M 2034 4250 
Q 1547 4250 1301 3770 
Q 1056 3291 1056 2328 
Q 1056 1369 1301 889 
Q 1547 409 2034 409 
Q 2525 409 2770 889 
Q 3016 1369 3016 2328 
Q 3016 3291 2770 3770 
Q 2525 4250 2034 4250 
z
M 2034 4750 
Q 2819 4750 3233 4129 
Q 3647 3509 3647 2328 
Q 3647 1150 3233 529 
Q 2819 -91 2034 -91 
Q 1250 -91 836 529 
Q 422 1150 422 2328 
Q 422 3509 836 4129 
Q 1250 4750 2034 4750 
z
" transform="scale(0.015625)"/>
       </defs>
       <use xlink:href="#DejaVuSans-30"/>
      </g>
     </g>
    </g>
    <g id="ytick_2">
     <g id="line2d_7">
      <g>
       <use xlink:href="#mcaa8bf71bb" x="79.71" y="213.832947" style="stroke: #000000; stroke-width: 0.8"/>
      </g>
     </g>
     <g id="text_7">
      <!-- 10 -->
      <g transform="translate(42.17 222.951072) scale(0.24 -0.24)">
       <defs>
        <path id="DejaVuSans-31" d="M 794 531 
L 1825 531 
L 1825 4091 
L 703 3866 
L 703 4441 
L 1819 4666 
L 2450 4666 
L 2450 531 
L 3481 531 
L 3481 0 
L 794 0 
L 794 531 
z
" transform="scale(0.015625)"/>
       </defs>
       <use xlink:href="#DejaVuSans-31"/>
       <use xlink:href="#DejaVuSans-30" x="63.623047"/>
      </g>
     </g>
    </g>
    <g id="ytick_3">
     <g id="line2d_8">
      <g>
       <use xlink:href="#mcaa8bf71bb" x="79.71" y="147.994673" style="stroke: #000000; stroke-width: 0.8"/>
      </g>
     </g>
     <g id="text_8">
      <!-- 20 -->
      <g transform="translate(42.17 157.112798) scale(0.24 -0.24)">
       <defs>
        <path id="DejaVuSans-32" d="M 1228 531 
L 3431 531 
L 3431 0 
L 469 0 
L 469 531 
Q 828 903 1448 1529 
Q 2069 2156 2228 2338 
Q 2531 2678 2651 2914 
Q 2772 3150 2772 3378 
Q 2772 3750 2511 3984 
Q 2250 4219 1831 4219 
Q 1534 4219 1204 4116 
Q 875 4013 500 3803 
L 500 4441 
Q 881 4594 1212 4672 
Q 1544 4750 1819 4750 
Q 2544 4750 2975 4387 
Q 3406 4025 3406 3419 
Q 3406 3131 3298 2873 
Q 3191 2616 2906 2266 
Q 2828 2175 2409 1742 
Q 1991 1309 1228 531 
z
" transform="scale(0.015625)"/>
       </defs>
       <use xlink:href="#DejaVuSans-32"/>
       <use xlink:href="#DejaVuSans-30" x="63.623047"/>
      </g>
     </g>
    </g>
    <g id="ytick_4">
     <g id="line2d_9">
      <g>
       <use xlink:href="#mcaa8bf71bb" x="79.71" y="82.156399" style="stroke: #000000; stroke-width: 0.8"/>
      </g>
     </g>
     <g id="text_9">
      <!-- 30 -->
      <g transform="translate(42.17 91.274524) scale(0.24 -0.24)">
       <defs>
        <path id="DejaVuSans-33" d="M 2597 2516 
Q 3050 2419 3304 2112 
Q 3559 1806 3559 1356 
Q 3559 666 3084 287 
Q 2609 -91 1734 -91 
Q 1441 -91 1130 -33 
Q 819 25 488 141 
L 488 750 
Q 750 597 1062 519 
Q 1375 441 1716 441 
Q 2309 441 2620 675 
Q 2931 909 2931 1356 
Q 2931 1769 2642 2001 
Q 2353 2234 1838 2234 
L 1294 2234 
L 1294 2753 
L 1863 2753 
Q 2328 2753 2575 2939 
Q 2822 3125 2822 3475 
Q 2822 3834 2567 4026 
Q 2313 4219 1838 4219 
Q 1578 4219 1281 4162 
Q 984 4106 628 3988 
L 628 4550 
Q 988 4650 1302 4700 
Q 1616 4750 1894 4750 
Q 2613 4750 3031 4423 
Q 3450 4097 3450 3541 
Q 3450 3153 3228 2886 
Q 3006 2619 2597 2516 
z
" transform="scale(0.015625)"/>
       </defs>
       <use xlink:href="#DejaVuSans-33"/>
       <use xlink:href="#DejaVuSans-30" x="63.623047"/>
      </g>
     </g>
    </g>
    <g id="ytick_5">
     <g id="line2d_10">
      <g>
       <use xlink:href="#mcaa8bf71bb" x="79.71" y="16.318125" style="stroke: #000000; stroke-width: 0.8"/>
      </g>
     </g>
     <g id="text_10">
      <!-- 40 -->
      <g transform="translate(42.17 25.43625) scale(0.24 -0.24)">
       <defs>
        <path id="DejaVuSans-34" d="M 2419 4116 
L 825 1625 
L 2419 1625 
L 2419 4116 
z
M 2253 4666 
L 3047 4666 
L 3047 1625 
L 3713 1625 
L 3713 1100 
L 3047 1100 
L 3047 0 
L 2419 0 
L 2419 1100 
L 313 1100 
L 313 1709 
L 2253 4666 
z
" transform="scale(0.015625)"/>
       </defs>
       <use xlink:href="#DejaVuSans-34"/>
       <use xlink:href="#DejaVuSans-30" x="63.623047"/>
      </g>
     </g>
    </g>
    <g id="text_11">
     <!-- Interface RMSD -->
     <g transform="translate(31.515 270.735222) rotate(-90) scale(0.32 -0.32)">
      <defs>
       <path id="DejaVuSans-6e" d="M 3513 2113 
L 3513 0 
L 2938 0 
L 2938 2094 
Q 2938 2591 2744 2837 
Q 2550 3084 2163 3084 
Q 1697 3084 1428 2787 
Q 1159 2491 1159 1978 
L 1159 0 
L 581 0 
L 581 3500 
L 1159 3500 
L 1159 2956 
Q 1366 3272 1645 3428 
Q 1925 3584 2291 3584 
Q 2894 3584 3203 3211 
Q 3513 2838 3513 2113 
z
" transform="scale(0.015625)"/>
       <path id="DejaVuSans-20" transform="scale(0.015625)"/>
      </defs>
      <use xlink:href="#DejaVuSans-49"/>
      <use xlink:href="#DejaVuSans-6e" x="29.492188"/>
      <use xlink:href="#DejaVuSans-74" x="92.871094"/>
      <use xlink:href="#DejaVuSans-65" x="132.080078"/>
      <use xlink:href="#DejaVuSans-72" x="193.603516"/>
      <use xlink:href="#DejaVuSans-66" x="234.716797"/>
      <use xlink:href="#DejaVuSans-61" x="269.921875"/>
      <use xlink:href="#DejaVuSans-63" x="331.201172"/>
      <use xlink:href="#DejaVuSans-65" x="386.181641"/>
      <use xlink:href="#DejaVuSans-20" x="447.705078"/>
      <use xlink:href="#DejaVuSans-52" x="479.492188"/>
      <use xlink:href="#DejaVuSans-4d" x="548.974609"/>
      <use xlink:href="#DejaVuSans-53" x="635.253906"/>
      <use xlink:href="#DejaVuSans-44" x="698.730469"/>
     </g>
    </g>
   </g>
   <g id="line2d_11">
    <path d="M 122.997273 276.557071 
L 122.997273 70.404267 
" clip-path="url(#p45d0dc2756)" style="fill: none; stroke: #757575; stroke-width: 1.875; stroke-linecap: square"/>
   </g>
   <g id="line2d_12">
    <path d="M 122.997273 273.480778 
L 122.997273 181.417473 
" clip-path="url(#p45d0dc2756)" style="fill: none; stroke: #757575; stroke-width: 5.625; stroke-linecap: square"/>
   </g>
   <g id="line2d_13">
    <path d="M 122.997273 255.426277 
" clip-path="url(#p45d0dc2756)" style="fill: none; stroke: #757575; stroke-width: 1.5; stroke-linecap: square"/>
    <defs>
     <path id="mee6be207fc" d="M 2.34375 0 
L -2.34375 -0 
" style="stroke: #ffffff; stroke-width: 1.125"/>
    </defs>
    <g clip-path="url(#p45d0dc2756)">
     <use xlink:href="#mee6be207fc" x="122.997273" y="255.426277" style="fill: #ffffff; stroke: #ffffff; stroke-width: 1.125"/>
    </g>
   </g>
   <g id="line2d_14">
    <path d="M 190.633636 252.131071 
L 190.633636 79.430695 
" clip-path="url(#p45d0dc2756)" style="fill: none; stroke: #757575; stroke-width: 1.875; stroke-linecap: square"/>
   </g>
   <g id="line2d_15">
    <path d="M 190.633636 189.441513 
L 190.633636 138.489272 
" clip-path="url(#p45d0dc2756)" style="fill: none; stroke: #757575; stroke-width: 5.625; stroke-linecap: square"/>
   </g>
   <g id="line2d_16">
    <path d="M 190.633636 161.932636 
" clip-path="url(#p45d0dc2756)" style="fill: none; stroke: #757575; stroke-width: 1.5; stroke-linecap: square"/>
    <g clip-path="url(#p45d0dc2756)">
     <use xlink:href="#mee6be207fc" x="190.633636" y="161.932636" style="fill: #ffffff; stroke: #ffffff; stroke-width: 1.125"/>
    </g>
   </g>
   <g id="line2d_17">
    <path d="M 258.27 255.923356 
L 258.27 75.434311 
" clip-path="url(#p45d0dc2756)" style="fill: none; stroke: #757575; stroke-width: 1.875; stroke-linecap: square"/>
   </g>
   <g id="line2d_18">
    <path d="M 258.27 200.606038 
L 258.27 147.909083 
" clip-path="url(#p45d0dc2756)" style="fill: none; stroke: #757575; stroke-width: 5.625; stroke-linecap: square"/>
   </g>
   <g id="line2d_19">
    <path d="M 258.27 172.012476 
" clip-path="url(#p45d0dc2756)" style="fill: none; stroke: #757575; stroke-width: 1.5; stroke-linecap: square"/>
    <g clip-path="url(#p45d0dc2756)">
     <use xlink:href="#mee6be207fc" x="258.27" y="172.012476" style="fill: #ffffff; stroke: #ffffff; stroke-width: 1.125"/>
    </g>
   </g>
   <g id="line2d_20">
    <path d="M 325.906364 271.889137 
L 325.906364 95.060701 
" clip-path="url(#p45d0dc2756)" style="fill: none; stroke: #757575; stroke-width: 1.875; stroke-linecap: square"/>
   </g>
   <g id="line2d_21">
    <path d="M 325.906364 209.825042 
L 325.906364 162.289809 
" clip-path="url(#p45d0dc2756)" style="fill: none; stroke: #757575; stroke-width: 5.625; stroke-linecap: square"/>
   </g>
   <g id="line2d_22">
    <path d="M 325.906364 190.368186 
" clip-path="url(#p45d0dc2756)" style="fill: none; stroke: #757575; stroke-width: 1.5; stroke-linecap: square"/>
    <g clip-path="url(#p45d0dc2756)">
     <use xlink:href="#mee6be207fc" x="325.906364" y="190.368186" style="fill: #ffffff; stroke: #ffffff; stroke-width: 1.125"/>
    </g>
   </g>
   <g id="line2d_23">
    <path d="M 393.542727 275.07571 
L 393.542727 71.7342 
" clip-path="url(#p45d0dc2756)" style="fill: none; stroke: #757575; stroke-width: 1.875; stroke-linecap: square"/>
   </g>
   <g id="line2d_24">
    <path d="M 393.542727 205.33158 
L 393.542727 147.321477 
" clip-path="url(#p45d0dc2756)" style="fill: none; stroke: #757575; stroke-width: 5.625; stroke-linecap: square"/>
   </g>
   <g id="line2d_25">
    <path d="M 393.542727 175.6665 
" clip-path="url(#p45d0dc2756)" style="fill: none; stroke: #757575; stroke-width: 1.5; stroke-linecap: square"/>
    <g clip-path="url(#p45d0dc2756)">
     <use xlink:href="#mee6be207fc" x="393.542727" y="175.6665" style="fill: #ffffff; stroke: #ffffff; stroke-width: 1.125"/>
    </g>
   </g>
   <g id="line2d_26">
    <path d="M 122.997273 31.006973 
L 122.997273 26.082929 
L 325.906364 26.082929 
L 325.906364 31.006973 
" clip-path="url(#p45d0dc2756)" style="fill: none; stroke: #000000; stroke-width: 1.5; stroke-linecap: square"/>
   </g>
   <g id="patch_3">
    <path d="M 79.71 279.671222 
L 79.71 13.559222 
" style="fill: none; stroke: #000000; stroke-width: 0.8; stroke-linejoin: miter; stroke-linecap: square"/>
   </g>
   <g id="patch_4">
    <path d="M 436.83 279.671222 
L 436.83 13.559222 
" style="fill: none; stroke: #000000; stroke-width: 0.8; stroke-linejoin: miter; stroke-linecap: square"/>
   </g>
   <g id="patch_5">
    <path d="M 79.71 279.671222 
L 436.83 279.671222 
" style="fill: none; stroke: #000000; stroke-width: 0.8; stroke-linejoin: miter; stroke-linecap: square"/>
   </g>
   <g id="patch_6">
    <path d="M 79.71 13.559222 
L 436.83 13.559222 
" style="fill: none; stroke: #000000; stroke-width: 0.8; stroke-linejoin: miter; stroke-linecap: square"/>
   </g>
   <g id="text_12">
    <!-- *** -->
    <g transform="translate(215.451818 23.620906) scale(0.12 -0.12)">
     <defs>
      <path id="DejaVuSans-2a" d="M 3009 3897 
L 1888 3291 
L 3009 2681 
L 2828 2375 
L 1778 3009 
L 1778 1831 
L 1422 1831 
L 1422 3009 
L 372 2375 
L 191 2681 
L 1313 3291 
L 191 3897 
L 372 4206 
L 1422 3572 
L 1422 4750 
L 1778 4750 
L 1778 3572 
L 2828 4206 
L 3009 3897 
z
" transform="scale(0.015625)"/>
     </defs>
     <use xlink:href="#DejaVuSans-2a"/>
     <use xlink:href="#DejaVuSans-2a" x="50"/>
     <use xlink:href="#DejaVuSans-2a" x="100"/>
    </g>
   </g>
  </g>
 </g>
 <defs>
  <clipPath id="p45d0dc2756">
   <rect x="79.71" y="13.559222" width="357.12" height="266.112"/>
  </clipPath>
 </defs>
</svg>
