<?xml version="1.0" encoding="utf-8" standalone="no"?>
<!DOCTYPE svg PUBLIC "-//W3C//DTD SVG 1.1//EN"
  "http://www.w3.org/Graphics/SVG/1.1/DTD/svg11.dtd">
<svg xmlns:xlink="http://www.w3.org/1999/xlink" width="598.07425pt" height="439.557625pt" viewBox="0 0 598.07425 439.557625" xmlns="http://www.w3.org/2000/svg" version="1.1">
 <metadata>
  <rdf:RDF xmlns:dc="http://purl.org/dc/elements/1.1/" xmlns:cc="http://creativecommons.org/ns#" xmlns:rdf="http://www.w3.org/1999/02/22-rdf-syntax-ns#">
   <cc:Work>
    <dc:type rdf:resource="http://purl.org/dc/dcmitype/StillImage"/>
    <dc:date>2025-03-23T15:09:57.446376</dc:date>
    <dc:format>image/svg+xml</dc:format>
    <dc:creator>
     <cc:Agent>
      <dc:title>Matplotlib v3.8.1, https://matplotlib.org/</dc:title>
     </cc:Agent>
    </dc:creator>
   </cc:Work>
  </rdf:RDF>
 </metadata>
 <defs>
  <style type="text/css">*{stroke-linejoin: round; stroke-linecap: butt}</style>
 </defs>
 <g id="figure_1">
  <g id="patch_1">
   <path d="M 0 439.557625 
L 598.07425 439.557625 
L 598.07425 0 
L 0 0 
z
" style="fill: #ffffff"/>
  </g>
  <g id="axes_1">
   <g id="patch_2">
    <path d="M 117.78375 282.430125 
L 474.90375 282.430125 
L 474.90375 16.318125 
L 117.78375 16.318125 
z
" style="fill: #ffffff"/>
   </g>
   <g id="patch_3">
    <path d="M 134.016477 282.430125 
L 193.646904 282.430125 
L 193.646904 154.426884 
L 134.016477 154.426884 
z
" clip-path="url(#p5e8f00b28b)" style="fill: #808080; opacity: 0.6"/>
   </g>
   <g id="patch_4">
    <path d="M 200.272507 282.430125 
L 259.902934 282.430125 
L 259.902934 29.79215 
L 200.272507 29.79215 
z
" clip-path="url(#p5e8f00b28b)" style="fill: #808080; opacity: 0.6"/>
   </g>
   <g id="patch_5">
    <path d="M 266.528537 282.430125 
L 326.158963 282.430125 
L 326.158963 23.055138 
L 266.528537 23.055138 
z
" clip-path="url(#p5e8f00b28b)" style="fill: #808080; opacity: 0.6"/>
   </g>
   <g id="patch_6">
    <path d="M 332.784566 282.430125 
L 392.414993 282.430125 
L 392.414993 33.160657 
L 332.784566 33.160657 
z
" clip-path="url(#p5e8f00b28b)" style="fill: #808080; opacity: 0.6"/>
   </g>
   <g id="patch_7">
    <path d="M 399.040596 282.430125 
L 458.671023 282.430125 
L 458.671023 26.423644 
L 399.040596 26.423644 
z
" clip-path="url(#p5e8f00b28b)" style="fill: #808080; opacity: 0.6"/>
   </g>
   <g id="patch_8">
    <path d="M 134.016477 154.426884 
L 193.646904 154.426884 
L 193.646904 140.952859 
L 134.016477 140.952859 
z
" clip-path="url(#p5e8f00b28b)" style="fill: #ffa500; opacity: 0.6"/>
   </g>
   <g id="patch_9">
    <path d="M 200.272507 29.79215 
L 259.902934 29.79215 
L 259.902934 26.423644 
L 200.272507 26.423644 
z
" clip-path="url(#p5e8f00b28b)" style="fill: #ffa500; opacity: 0.6"/>
   </g>
   <g id="patch_10">
    <path d="M 266.528537 23.055138 
L 326.158963 23.055138 
L 326.158963 16.318125 
L 266.528537 16.318125 
z
" clip-path="url(#p5e8f00b28b)" style="fill: #ffa500; opacity: 0.6"/>
   </g>
   <g id="patch_11">
    <path d="M 332.784566 33.160657 
L 392.414993 33.160657 
L 392.414993 23.055138 
L 332.784566 23.055138 
z
" clip-path="url(#p5e8f00b28b)" style="fill: #ffa500; opacity: 0.6"/>
   </g>
   <g id="patch_12">
    <path d="M 399.040596 26.423644 
L 458.671023 26.423644 
L 458.671023 23.055138 
L 399.040596 23.055138 
z
" clip-path="url(#p5e8f00b28b)" style="fill: #ffa500; opacity: 0.6"/>
   </g>
   <g id="patch_13">
    <path d="M 134.016477 140.952859 
L 193.646904 140.952859 
L 193.646904 93.793771 
L 134.016477 93.793771 
z
" clip-path="url(#p5e8f00b28b)" style="fill: #ffff00; opacity: 0.6"/>
   </g>
   <g id="patch_14">
    <path d="M 200.272507 26.423644 
L 259.902934 26.423644 
L 259.902934 26.423644 
L 200.272507 26.423644 
z
" clip-path="url(#p5e8f00b28b)" style="fill: #ffff00; opacity: 0.6"/>
   </g>
   <g id="patch_15">
    <path d="M 266.528537 16.318125 
L 326.158963 16.318125 
L 326.158963 16.318125 
L 266.528537 16.318125 
z
" clip-path="url(#p5e8f00b28b)" style="fill: #ffff00; opacity: 0.6"/>
   </g>
   <g id="patch_16">
    <path d="M 332.784566 23.055138 
L 392.414993 23.055138 
L 392.414993 19.686631 
L 332.784566 19.686631 
z
" clip-path="url(#p5e8f00b28b)" style="fill: #ffff00; opacity: 0.6"/>
   </g>
   <g id="patch_17">
    <path d="M 399.040596 23.055138 
L 458.671023 23.055138 
L 458.671023 16.318125 
L 399.040596 16.318125 
z
" clip-path="url(#p5e8f00b28b)" style="fill: #ffff00; opacity: 0.6"/>
   </g>
   <g id="patch_18">
    <path d="M 134.016477 93.793771 
L 193.646904 93.793771 
L 193.646904 16.318125 
L 134.016477 16.318125 
z
" clip-path="url(#p5e8f00b28b)" style="fill: #008000; opacity: 0.6"/>
   </g>
   <g id="patch_19">
    <path d="M 200.272507 26.423644 
L 259.902934 26.423644 
L 259.902934 16.318125 
L 200.272507 16.318125 
z
" clip-path="url(#p5e8f00b28b)" style="fill: #008000; opacity: 0.6"/>
   </g>
   <g id="patch_20">
    <path d="M 266.528537 16.318125 
L 326.158963 16.318125 
L 326.158963 16.318125 
L 266.528537 16.318125 
z
" clip-path="url(#p5e8f00b28b)" style="fill: #008000; opacity: 0.6"/>
   </g>
   <g id="patch_21">
    <path d="M 332.784566 19.686631 
L 392.414993 19.686631 
L 392.414993 16.318125 
L 332.784566 16.318125 
z
" clip-path="url(#p5e8f00b28b)" style="fill: #008000; opacity: 0.6"/>
   </g>
   <g id="patch_22">
    <path d="M 399.040596 16.318125 
L 458.671023 16.318125 
L 458.671023 16.318125 
L 399.040596 16.318125 
z
" clip-path="url(#p5e8f00b28b)" style="fill: #008000; opacity: 0.6"/>
   </g>
   <g id="matplotlib.axis_1">
    <g id="xtick_1">
     <g id="line2d_1">
      <defs>
       <path id="m7910bea7dd" d="M 0 0 
L 0 3.5 
" style="stroke: #000000; stroke-width: 0.8"/>
      </defs>
      <g>
       <use xlink:href="#m7910bea7dd" x="163.831691" y="282.430125" style="stroke: #000000; stroke-width: 0.8"/>
      </g>
     </g>
     <g id="text_1">
      <!-- AlphaFold -->
      <g transform="translate(157.016816 407.191375) rotate(-90) scale(0.24 -0.24)">
       <defs>
        <path id="DejaVuSans-41" d="M 2188 4044 
L 1331 1722 
L 3047 1722 
L 2188 4044 
z
M 1831 4666 
L 2547 4666 
L 4325 0 
L 3669 0 
L 3244 1197 
L 1141 1197 
L 716 0 
L 50 0 
L 1831 4666 
z
" transform="scale(0.015625)"/>
        <path id="DejaVuSans-6c" d="M 603 4863 
L 1178 4863 
L 1178 0 
L 603 0 
L 603 4863 
z
" transform="scale(0.015625)"/>
        <path id="DejaVuSans-70" d="M 1159 525 
L 1159 -1331 
L 581 -1331 
L 581 3500 
L 1159 3500 
L 1159 2969 
Q 1341 3281 1617 3432 
Q 1894 3584 2278 3584 
Q 2916 3584 3314 3078 
Q 3713 2572 3713 1747 
Q 3713 922 3314 415 
Q 2916 -91 2278 -91 
Q 1894 -91 1617 61 
Q 1341 213 1159 525 
z
M 3116 1747 
Q 3116 2381 2855 2742 
Q 2594 3103 2138 3103 
Q 1681 3103 1420 2742 
Q 1159 2381 1159 1747 
Q 1159 1113 1420 752 
Q 1681 391 2138 391 
Q 2594 391 2855 752 
Q 3116 1113 3116 1747 
z
" transform="scale(0.015625)"/>
        <path id="DejaVuSans-68" d="M 3513 2113 
L 3513 0 
L 2938 0 
L 2938 2094 
Q 2938 2591 2744 2837 
Q 2550 3084 2163 3084 
Q 1697 3084 1428 2787 
Q 1159 2491 1159 1978 
L 1159 0 
L 581 0 
L 581 4863 
L 1159 4863 
L 1159 2956 
Q 1366 3272 1645 3428 
Q 1925 3584 2291 3584 
Q 2894 3584 3203 3211 
Q 3513 2838 3513 2113 
z
" transform="scale(0.015625)"/>
        <path id="DejaVuSans-61" d="M 2194 1759 
Q 1497 1759 1228 1600 
Q 959 1441 959 1056 
Q 959 750 1161 570 
Q 1363 391 1709 391 
Q 2188 391 2477 730 
Q 2766 1069 2766 1631 
L 2766 1759 
L 2194 1759 
z
M 3341 1997 
L 3341 0 
L 2766 0 
L 2766 531 
Q 2569 213 2275 61 
Q 1981 -91 1556 -91 
Q 1019 -91 701 211 
Q 384 513 384 1019 
Q 384 1609 779 1909 
Q 1175 2209 1959 2209 
L 2766 2209 
L 2766 2266 
Q 2766 2663 2505 2880 
Q 2244 3097 1772 3097 
Q 1472 3097 1187 3025 
Q 903 2953 641 2809 
L 641 3341 
Q 956 3463 1253 3523 
Q 1550 3584 1831 3584 
Q 2591 3584 2966 3190 
Q 3341 2797 3341 1997 
z
" transform="scale(0.015625)"/>
        <path id="DejaVuSans-46" d="M 628 4666 
L 3309 4666 
L 3309 4134 
L 1259 4134 
L 1259 2759 
L 3109 2759 
L 3109 2228 
L 1259 2228 
L 1259 0 
L 628 0 
L 628 4666 
z
" transform="scale(0.015625)"/>
        <path id="DejaVuSans-6f" d="M 1959 3097 
Q 1497 3097 1228 2736 
Q 959 2375 959 1747 
Q 959 1119 1226 758 
Q 1494 397 1959 397 
Q 2419 397 2687 759 
Q 2956 1122 2956 1747 
Q 2956 2369 2687 2733 
Q 2419 3097 1959 3097 
z
M 1959 3584 
Q 2709 3584 3137 3096 
Q 3566 2609 3566 1747 
Q 3566 888 3137 398 
Q 2709 -91 1959 -91 
Q 1206 -91 779 398 
Q 353 888 353 1747 
Q 353 2609 779 3096 
Q 1206 3584 1959 3584 
z
" transform="scale(0.015625)"/>
        <path id="DejaVuSans-64" d="M 2906 2969 
L 2906 4863 
L 3481 4863 
L 3481 0 
L 2906 0 
L 2906 525 
Q 2725 213 2448 61 
Q 2172 -91 1784 -91 
Q 1150 -91 751 415 
Q 353 922 353 1747 
Q 353 2572 751 3078 
Q 1150 3584 1784 3584 
Q 2172 3584 2448 3432 
Q 2725 3281 2906 2969 
z
M 947 1747 
Q 947 1113 1208 752 
Q 1469 391 1925 391 
Q 2381 391 2643 752 
Q 2906 1113 2906 1747 
Q 2906 2381 2643 2742 
Q 2381 3103 1925 3103 
Q 1469 3103 1208 2742 
Q 947 2381 947 1747 
z
" transform="scale(0.015625)"/>
       </defs>
       <use xlink:href="#DejaVuSans-41"/>
       <use xlink:href="#DejaVuSans-6c" x="68.408203"/>
       <use xlink:href="#DejaVuSans-70" x="96.191406"/>
       <use xlink:href="#DejaVuSans-68" x="159.667969"/>
       <use xlink:href="#DejaVuSans-61" x="223.046875"/>
       <use xlink:href="#DejaVuSans-46" x="284.326172"/>
       <use xlink:href="#DejaVuSans-6f" x="338.220703"/>
       <use xlink:href="#DejaVuSans-6c" x="399.402344"/>
       <use xlink:href="#DejaVuSans-64" x="427.185547"/>
      </g>
      <!-- Multimer -->
      <g transform="translate(183.891566 401.647) rotate(-90) scale(0.24 -0.24)">
       <defs>
        <path id="DejaVuSans-4d" d="M 628 4666 
L 1569 4666 
L 2759 1491 
L 3956 4666 
L 4897 4666 
L 4897 0 
L 4281 0 
L 4281 4097 
L 3078 897 
L 2444 897 
L 1241 4097 
L 1241 0 
L 628 0 
L 628 4666 
z
" transform="scale(0.015625)"/>
        <path id="DejaVuSans-75" d="M 544 1381 
L 544 3500 
L 1119 3500 
L 1119 1403 
Q 1119 906 1312 657 
Q 1506 409 1894 409 
Q 2359 409 2629 706 
Q 2900 1003 2900 1516 
L 2900 3500 
L 3475 3500 
L 3475 0 
L 2900 0 
L 2900 538 
Q 2691 219 2414 64 
Q 2138 -91 1772 -91 
Q 1169 -91 856 284 
Q 544 659 544 1381 
z
M 1991 3584 
L 1991 3584 
z
" transform="scale(0.015625)"/>
        <path id="DejaVuSans-74" d="M 1172 4494 
L 1172 3500 
L 2356 3500 
L 2356 3053 
L 1172 3053 
L 1172 1153 
Q 1172 725 1289 603 
Q 1406 481 1766 481 
L 2356 481 
L 2356 0 
L 1766 0 
Q 1100 0 847 248 
Q 594 497 594 1153 
L 594 3053 
L 172 3053 
L 172 3500 
L 594 3500 
L 594 4494 
L 1172 4494 
z
" transform="scale(0.015625)"/>
        <path id="DejaVuSans-69" d="M 603 3500 
L 1178 3500 
L 1178 0 
L 603 0 
L 603 3500 
z
M 603 4863 
L 1178 4863 
L 1178 4134 
L 603 4134 
L 603 4863 
z
" transform="scale(0.015625)"/>
        <path id="DejaVuSans-6d" d="M 3328 2828 
Q 3544 3216 3844 3400 
Q 4144 3584 4550 3584 
Q 5097 3584 5394 3201 
Q 5691 2819 5691 2113 
L 5691 0 
L 5113 0 
L 5113 2094 
Q 5113 2597 4934 2840 
Q 4756 3084 4391 3084 
Q 3944 3084 3684 2787 
Q 3425 2491 3425 1978 
L 3425 0 
L 2847 0 
L 2847 2094 
Q 2847 2600 2669 2842 
Q 2491 3084 2119 3084 
Q 1678 3084 1418 2786 
Q 1159 2488 1159 1978 
L 1159 0 
L 581 0 
L 581 3500 
L 1159 3500 
L 1159 2956 
Q 1356 3278 1631 3431 
Q 1906 3584 2284 3584 
Q 2666 3584 2933 3390 
Q 3200 3197 3328 2828 
z
" transform="scale(0.015625)"/>
        <path id="DejaVuSans-65" d="M 3597 1894 
L 3597 1613 
L 953 1613 
Q 991 1019 1311 708 
Q 1631 397 2203 397 
Q 2534 397 2845 478 
Q 3156 559 3463 722 
L 3463 178 
Q 3153 47 2828 -22 
Q 2503 -91 2169 -91 
Q 1331 -91 842 396 
Q 353 884 353 1716 
Q 353 2575 817 3079 
Q 1281 3584 2069 3584 
Q 2775 3584 3186 3129 
Q 3597 2675 3597 1894 
z
M 3022 2063 
Q 3016 2534 2758 2815 
Q 2500 3097 2075 3097 
Q 1594 3097 1305 2825 
Q 1016 2553 972 2059 
L 3022 2063 
z
" transform="scale(0.015625)"/>
        <path id="DejaVuSans-72" d="M 2631 2963 
Q 2534 3019 2420 3045 
Q 2306 3072 2169 3072 
Q 1681 3072 1420 2755 
Q 1159 2438 1159 1844 
L 1159 0 
L 581 0 
L 581 3500 
L 1159 3500 
L 1159 2956 
Q 1341 3275 1631 3429 
Q 1922 3584 2338 3584 
Q 2397 3584 2469 3576 
Q 2541 3569 2628 3553 
L 2631 2963 
z
" transform="scale(0.015625)"/>
       </defs>
       <use xlink:href="#DejaVuSans-4d"/>
       <use xlink:href="#DejaVuSans-75" x="86.279297"/>
       <use xlink:href="#DejaVuSans-6c" x="149.658203"/>
       <use xlink:href="#DejaVuSans-74" x="177.441406"/>
       <use xlink:href="#DejaVuSans-69" x="216.650391"/>
       <use xlink:href="#DejaVuSans-6d" x="244.433594"/>
       <use xlink:href="#DejaVuSans-65" x="341.845703"/>
       <use xlink:href="#DejaVuSans-72" x="403.369141"/>
      </g>
     </g>
    </g>
    <g id="xtick_2">
     <g id="line2d_2">
      <g>
       <use xlink:href="#m7910bea7dd" x="230.08772" y="282.430125" style="stroke: #000000; stroke-width: 0.8"/>
      </g>
     </g>
     <g id="text_2">
      <!-- ESMFold -->
      <g transform="translate(236.71022 390.061375) rotate(-90) scale(0.24 -0.24)">
       <defs>
        <path id="DejaVuSans-45" d="M 628 4666 
L 3578 4666 
L 3578 4134 
L 1259 4134 
L 1259 2753 
L 3481 2753 
L 3481 2222 
L 1259 2222 
L 1259 531 
L 3634 531 
L 3634 0 
L 628 0 
L 628 4666 
z
" transform="scale(0.015625)"/>
        <path id="DejaVuSans-53" d="M 3425 4513 
L 3425 3897 
Q 3066 4069 2747 4153 
Q 2428 4238 2131 4238 
Q 1616 4238 1336 4038 
Q 1056 3838 1056 3469 
Q 1056 3159 1242 3001 
Q 1428 2844 1947 2747 
L 2328 2669 
Q 3034 2534 3370 2195 
Q 3706 1856 3706 1288 
Q 3706 609 3251 259 
Q 2797 -91 1919 -91 
Q 1588 -91 1214 -16 
Q 841 59 441 206 
L 441 856 
Q 825 641 1194 531 
Q 1563 422 1919 422 
Q 2459 422 2753 634 
Q 3047 847 3047 1241 
Q 3047 1584 2836 1778 
Q 2625 1972 2144 2069 
L 1759 2144 
Q 1053 2284 737 2584 
Q 422 2884 422 3419 
Q 422 4038 858 4394 
Q 1294 4750 2059 4750 
Q 2388 4750 2728 4690 
Q 3069 4631 3425 4513 
z
" transform="scale(0.015625)"/>
       </defs>
       <use xlink:href="#DejaVuSans-45"/>
       <use xlink:href="#DejaVuSans-53" x="63.183594"/>
       <use xlink:href="#DejaVuSans-4d" x="126.660156"/>
       <use xlink:href="#DejaVuSans-46" x="212.939453"/>
       <use xlink:href="#DejaVuSans-6f" x="266.833984"/>
       <use xlink:href="#DejaVuSans-6c" x="328.015625"/>
       <use xlink:href="#DejaVuSans-64" x="355.798828"/>
      </g>
     </g>
    </g>
    <g id="xtick_3">
     <g id="line2d_3">
      <g>
       <use xlink:href="#m7910bea7dd" x="296.34375" y="282.430125" style="stroke: #000000; stroke-width: 0.8"/>
      </g>
     </g>
     <g id="text_3">
      <!-- DiffDock-PP -->
      <g transform="translate(302.96625 429.335125) rotate(-90) scale(0.24 -0.24)">
       <defs>
        <path id="DejaVuSans-44" d="M 1259 4147 
L 1259 519 
L 2022 519 
Q 2988 519 3436 956 
Q 3884 1394 3884 2338 
Q 3884 3275 3436 3711 
Q 2988 4147 2022 4147 
L 1259 4147 
z
M 628 4666 
L 1925 4666 
Q 3281 4666 3915 4102 
Q 4550 3538 4550 2338 
Q 4550 1131 3912 565 
Q 3275 0 1925 0 
L 628 0 
L 628 4666 
z
" transform="scale(0.015625)"/>
        <path id="DejaVuSans-66" d="M 2375 4863 
L 2375 4384 
L 1825 4384 
Q 1516 4384 1395 4259 
Q 1275 4134 1275 3809 
L 1275 3500 
L 2222 3500 
L 2222 3053 
L 1275 3053 
L 1275 0 
L 697 0 
L 697 3053 
L 147 3053 
L 147 3500 
L 697 3500 
L 697 3744 
Q 697 4328 969 4595 
Q 1241 4863 1831 4863 
L 2375 4863 
z
" transform="scale(0.015625)"/>
        <path id="DejaVuSans-63" d="M 3122 3366 
L 3122 2828 
Q 2878 2963 2633 3030 
Q 2388 3097 2138 3097 
Q 1578 3097 1268 2742 
Q 959 2388 959 1747 
Q 959 1106 1268 751 
Q 1578 397 2138 397 
Q 2388 397 2633 464 
Q 2878 531 3122 666 
L 3122 134 
Q 2881 22 2623 -34 
Q 2366 -91 2075 -91 
Q 1284 -91 818 406 
Q 353 903 353 1747 
Q 353 2603 823 3093 
Q 1294 3584 2113 3584 
Q 2378 3584 2631 3529 
Q 2884 3475 3122 3366 
z
" transform="scale(0.015625)"/>
        <path id="DejaVuSans-6b" d="M 581 4863 
L 1159 4863 
L 1159 1991 
L 2875 3500 
L 3609 3500 
L 1753 1863 
L 3688 0 
L 2938 0 
L 1159 1709 
L 1159 0 
L 581 0 
L 581 4863 
z
" transform="scale(0.015625)"/>
        <path id="DejaVuSans-2d" d="M 313 2009 
L 1997 2009 
L 1997 1497 
L 313 1497 
L 313 2009 
z
" transform="scale(0.015625)"/>
        <path id="DejaVuSans-50" d="M 1259 4147 
L 1259 2394 
L 2053 2394 
Q 2494 2394 2734 2622 
Q 2975 2850 2975 3272 
Q 2975 3691 2734 3919 
Q 2494 4147 2053 4147 
L 1259 4147 
z
M 628 4666 
L 2053 4666 
Q 2838 4666 3239 4311 
Q 3641 3956 3641 3272 
Q 3641 2581 3239 2228 
Q 2838 1875 2053 1875 
L 1259 1875 
L 1259 0 
L 628 0 
L 628 4666 
z
" transform="scale(0.015625)"/>
       </defs>
       <use xlink:href="#DejaVuSans-44"/>
       <use xlink:href="#DejaVuSans-69" x="77.001953"/>
       <use xlink:href="#DejaVuSans-66" x="104.785156"/>
       <use xlink:href="#DejaVuSans-66" x="139.990234"/>
       <use xlink:href="#DejaVuSans-44" x="175.195312"/>
       <use xlink:href="#DejaVuSans-6f" x="252.197266"/>
       <use xlink:href="#DejaVuSans-63" x="313.378906"/>
       <use xlink:href="#DejaVuSans-6b" x="368.359375"/>
       <use xlink:href="#DejaVuSans-2d" x="426.269531"/>
       <use xlink:href="#DejaVuSans-50" x="462.353516"/>
       <use xlink:href="#DejaVuSans-50" x="522.65625"/>
      </g>
     </g>
    </g>
    <g id="xtick_4">
     <g id="line2d_4">
      <g>
       <use xlink:href="#m7910bea7dd" x="362.59978" y="282.430125" style="stroke: #000000; stroke-width: 0.8"/>
      </g>
     </g>
     <g id="text_4">
      <!-- ECLAIR -->
      <g transform="translate(355.784905 403.898875) rotate(-90) scale(0.24 -0.24)">
       <defs>
        <path id="DejaVuSans-43" d="M 4122 4306 
L 4122 3641 
Q 3803 3938 3442 4084 
Q 3081 4231 2675 4231 
Q 1875 4231 1450 3742 
Q 1025 3253 1025 2328 
Q 1025 1406 1450 917 
Q 1875 428 2675 428 
Q 3081 428 3442 575 
Q 3803 722 4122 1019 
L 4122 359 
Q 3791 134 3420 21 
Q 3050 -91 2638 -91 
Q 1578 -91 968 557 
Q 359 1206 359 2328 
Q 359 3453 968 4101 
Q 1578 4750 2638 4750 
Q 3056 4750 3426 4639 
Q 3797 4528 4122 4306 
z
" transform="scale(0.015625)"/>
        <path id="DejaVuSans-4c" d="M 628 4666 
L 1259 4666 
L 1259 531 
L 3531 531 
L 3531 0 
L 628 0 
L 628 4666 
z
" transform="scale(0.015625)"/>
        <path id="DejaVuSans-49" d="M 628 4666 
L 1259 4666 
L 1259 0 
L 628 0 
L 628 4666 
z
" transform="scale(0.015625)"/>
        <path id="DejaVuSans-52" d="M 2841 2188 
Q 3044 2119 3236 1894 
Q 3428 1669 3622 1275 
L 4263 0 
L 3584 0 
L 2988 1197 
Q 2756 1666 2539 1819 
Q 2322 1972 1947 1972 
L 1259 1972 
L 1259 0 
L 628 0 
L 628 4666 
L 2053 4666 
Q 2853 4666 3247 4331 
Q 3641 3997 3641 3322 
Q 3641 2881 3436 2590 
Q 3231 2300 2841 2188 
z
M 1259 4147 
L 1259 2491 
L 2053 2491 
Q 2509 2491 2742 2702 
Q 2975 2913 2975 3322 
Q 2975 3731 2742 3939 
Q 2509 4147 2053 4147 
L 1259 4147 
z
" transform="scale(0.015625)"/>
       </defs>
       <use xlink:href="#DejaVuSans-45"/>
       <use xlink:href="#DejaVuSans-43" x="63.183594"/>
       <use xlink:href="#DejaVuSans-4c" x="133.007812"/>
       <use xlink:href="#DejaVuSans-41" x="190.970703"/>
       <use xlink:href="#DejaVuSans-49" x="259.378906"/>
       <use xlink:href="#DejaVuSans-52" x="288.871094"/>
      </g>
      <!-- +HADDOCK -->
      <g transform="translate(382.659655 432.357625) rotate(-90) scale(0.24 -0.24)">
       <defs>
        <path id="DejaVuSans-2b" d="M 2944 4013 
L 2944 2272 
L 4684 2272 
L 4684 1741 
L 2944 1741 
L 2944 0 
L 2419 0 
L 2419 1741 
L 678 1741 
L 678 2272 
L 2419 2272 
L 2419 4013 
L 2944 4013 
z
" transform="scale(0.015625)"/>
        <path id="DejaVuSans-48" d="M 628 4666 
L 1259 4666 
L 1259 2753 
L 3553 2753 
L 3553 4666 
L 4184 4666 
L 4184 0 
L 3553 0 
L 3553 2222 
L 1259 2222 
L 1259 0 
L 628 0 
L 628 4666 
z
" transform="scale(0.015625)"/>
        <path id="DejaVuSans-4f" d="M 2522 4238 
Q 1834 4238 1429 3725 
Q 1025 3213 1025 2328 
Q 1025 1447 1429 934 
Q 1834 422 2522 422 
Q 3209 422 3611 934 
Q 4013 1447 4013 2328 
Q 4013 3213 3611 3725 
Q 3209 4238 2522 4238 
z
M 2522 4750 
Q 3503 4750 4090 4092 
Q 4678 3434 4678 2328 
Q 4678 1225 4090 567 
Q 3503 -91 2522 -91 
Q 1538 -91 948 565 
Q 359 1222 359 2328 
Q 359 3434 948 4092 
Q 1538 4750 2522 4750 
z
" transform="scale(0.015625)"/>
        <path id="DejaVuSans-4b" d="M 628 4666 
L 1259 4666 
L 1259 2694 
L 3353 4666 
L 4166 4666 
L 1850 2491 
L 4331 0 
L 3500 0 
L 1259 2247 
L 1259 0 
L 628 0 
L 628 4666 
z
" transform="scale(0.015625)"/>
       </defs>
       <use xlink:href="#DejaVuSans-2b"/>
       <use xlink:href="#DejaVuSans-48" x="83.789062"/>
       <use xlink:href="#DejaVuSans-41" x="158.984375"/>
       <use xlink:href="#DejaVuSans-44" x="227.392578"/>
       <use xlink:href="#DejaVuSans-44" x="304.394531"/>
       <use xlink:href="#DejaVuSans-4f" x="381.396484"/>
       <use xlink:href="#DejaVuSans-43" x="460.107422"/>
       <use xlink:href="#DejaVuSans-4b" x="529.931641"/>
      </g>
     </g>
    </g>
    <g id="xtick_5">
     <g id="line2d_5">
      <g>
       <use xlink:href="#m7910bea7dd" x="428.855809" y="282.430125" style="stroke: #000000; stroke-width: 0.8"/>
      </g>
     </g>
     <g id="text_5">
      <!-- HADDOCK -->
      <g transform="translate(435.478309 412.246375) rotate(-90) scale(0.24 -0.24)">
       <use xlink:href="#DejaVuSans-48"/>
       <use xlink:href="#DejaVuSans-41" x="75.195312"/>
       <use xlink:href="#DejaVuSans-44" x="143.603516"/>
       <use xlink:href="#DejaVuSans-44" x="220.605469"/>
       <use xlink:href="#DejaVuSans-4f" x="297.607422"/>
       <use xlink:href="#DejaVuSans-43" x="376.318359"/>
       <use xlink:href="#DejaVuSans-4b" x="446.142578"/>
      </g>
     </g>
    </g>
   </g>
   <g id="matplotlib.axis_2">
    <g id="ytick_1">
     <g id="line2d_6">
      <defs>
       <path id="mc71d86ec78" d="M 0 0 
L -3.5 0 
" style="stroke: #000000; stroke-width: 0.8"/>
      </defs>
      <g>
       <use xlink:href="#mc71d86ec78" x="117.78375" y="282.430125" style="stroke: #000000; stroke-width: 0.8"/>
      </g>
     </g>
     <g id="text_6">
      <!-- 0% -->
      <g transform="translate(72.71 291.54825) scale(0.24 -0.24)">
       <defs>
        <path id="DejaVuSans-30" d="M 2034 4250 
Q 1547 4250 1301 3770 
Q 1056 3291 1056 2328 
Q 1056 1369 1301 889 
Q 1547 409 2034 409 
Q 2525 409 2770 889 
Q 3016 1369 3016 2328 
Q 3016 3291 2770 3770 
Q 2525 4250 2034 4250 
z
M 2034 4750 
Q 2819 4750 3233 4129 
Q 3647 3509 3647 2328 
Q 3647 1150 3233 529 
Q 2819 -91 2034 -91 
Q 1250 -91 836 529 
Q 422 1150 422 2328 
Q 422 3509 836 4129 
Q 1250 4750 2034 4750 
z
" transform="scale(0.015625)"/>
        <path id="DejaVuSans-25" d="M 4653 2053 
Q 4381 2053 4226 1822 
Q 4072 1591 4072 1178 
Q 4072 772 4226 539 
Q 4381 306 4653 306 
Q 4919 306 5073 539 
Q 5228 772 5228 1178 
Q 5228 1588 5073 1820 
Q 4919 2053 4653 2053 
z
M 4653 2450 
Q 5147 2450 5437 2106 
Q 5728 1763 5728 1178 
Q 5728 594 5436 251 
Q 5144 -91 4653 -91 
Q 4153 -91 3862 251 
Q 3572 594 3572 1178 
Q 3572 1766 3864 2108 
Q 4156 2450 4653 2450 
z
M 1428 4353 
Q 1159 4353 1004 4120 
Q 850 3888 850 3481 
Q 850 3069 1003 2837 
Q 1156 2606 1428 2606 
Q 1700 2606 1854 2837 
Q 2009 3069 2009 3481 
Q 2009 3884 1853 4118 
Q 1697 4353 1428 4353 
z
M 4250 4750 
L 4750 4750 
L 1831 -91 
L 1331 -91 
L 4250 4750 
z
M 1428 4750 
Q 1922 4750 2215 4408 
Q 2509 4066 2509 3481 
Q 2509 2891 2217 2550 
Q 1925 2209 1428 2209 
Q 931 2209 642 2551 
Q 353 2894 353 3481 
Q 353 4063 643 4406 
Q 934 4750 1428 4750 
z
" transform="scale(0.015625)"/>
       </defs>
       <use xlink:href="#DejaVuSans-30"/>
       <use xlink:href="#DejaVuSans-25" x="63.623047"/>
      </g>
     </g>
    </g>
    <g id="ytick_2">
     <g id="line2d_7">
      <g>
       <use xlink:href="#mc71d86ec78" x="117.78375" y="149.374125" style="stroke: #000000; stroke-width: 0.8"/>
      </g>
     </g>
     <g id="text_7">
      <!-- 50% -->
      <g transform="translate(57.44 158.49225) scale(0.24 -0.24)">
       <defs>
        <path id="DejaVuSans-35" d="M 691 4666 
L 3169 4666 
L 3169 4134 
L 1269 4134 
L 1269 2991 
Q 1406 3038 1543 3061 
Q 1681 3084 1819 3084 
Q 2600 3084 3056 2656 
Q 3513 2228 3513 1497 
Q 3513 744 3044 326 
Q 2575 -91 1722 -91 
Q 1428 -91 1123 -41 
Q 819 9 494 109 
L 494 744 
Q 775 591 1075 516 
Q 1375 441 1709 441 
Q 2250 441 2565 725 
Q 2881 1009 2881 1497 
Q 2881 1984 2565 2268 
Q 2250 2553 1709 2553 
Q 1456 2553 1204 2497 
Q 953 2441 691 2322 
L 691 4666 
z
" transform="scale(0.015625)"/>
       </defs>
       <use xlink:href="#DejaVuSans-35"/>
       <use xlink:href="#DejaVuSans-30" x="63.623047"/>
       <use xlink:href="#DejaVuSans-25" x="127.246094"/>
      </g>
     </g>
    </g>
    <g id="ytick_3">
     <g id="line2d_8">
      <g>
       <use xlink:href="#mc71d86ec78" x="117.78375" y="16.318125" style="stroke: #000000; stroke-width: 0.8"/>
      </g>
     </g>
     <g id="text_8">
      <!-- 100% -->
      <g transform="translate(42.17 25.43625) scale(0.24 -0.24)">
       <defs>
        <path id="DejaVuSans-31" d="M 794 531 
L 1825 531 
L 1825 4091 
L 703 3866 
L 703 4441 
L 1819 4666 
L 2450 4666 
L 2450 531 
L 3481 531 
L 3481 0 
L 794 0 
L 794 531 
z
" transform="scale(0.015625)"/>
       </defs>
       <use xlink:href="#DejaVuSans-31"/>
       <use xlink:href="#DejaVuSans-30" x="63.623047"/>
       <use xlink:href="#DejaVuSans-30" x="127.246094"/>
       <use xlink:href="#DejaVuSans-25" x="190.869141"/>
      </g>
     </g>
    </g>
    <g id="text_9">
     <!-- Percents (Bars) -->
     <g transform="translate(31.515 271.159125) rotate(-90) scale(0.32 -0.32)">
      <defs>
       <path id="DejaVuSans-6e" d="M 3513 2113 
L 3513 0 
L 2938 0 
L 2938 2094 
Q 2938 2591 2744 2837 
Q 2550 3084 2163 3084 
Q 1697 3084 1428 2787 
Q 1159 2491 1159 1978 
L 1159 0 
L 581 0 
L 581 3500 
L 1159 3500 
L 1159 2956 
Q 1366 3272 1645 3428 
Q 1925 3584 2291 3584 
Q 2894 3584 3203 3211 
Q 3513 2838 3513 2113 
z
" transform="scale(0.015625)"/>
       <path id="DejaVuSans-73" d="M 2834 3397 
L 2834 2853 
Q 2591 2978 2328 3040 
Q 2066 3103 1784 3103 
Q 1356 3103 1142 2972 
Q 928 2841 928 2578 
Q 928 2378 1081 2264 
Q 1234 2150 1697 2047 
L 1894 2003 
Q 2506 1872 2764 1633 
Q 3022 1394 3022 966 
Q 3022 478 2636 193 
Q 2250 -91 1575 -91 
Q 1294 -91 989 -36 
Q 684 19 347 128 
L 347 722 
Q 666 556 975 473 
Q 1284 391 1588 391 
Q 1994 391 2212 530 
Q 2431 669 2431 922 
Q 2431 1156 2273 1281 
Q 2116 1406 1581 1522 
L 1381 1569 
Q 847 1681 609 1914 
Q 372 2147 372 2553 
Q 372 3047 722 3315 
Q 1072 3584 1716 3584 
Q 2034 3584 2315 3537 
Q 2597 3491 2834 3397 
z
" transform="scale(0.015625)"/>
       <path id="DejaVuSans-20" transform="scale(0.015625)"/>
       <path id="DejaVuSans-28" d="M 1984 4856 
Q 1566 4138 1362 3434 
Q 1159 2731 1159 2009 
Q 1159 1288 1364 580 
Q 1569 -128 1984 -844 
L 1484 -844 
Q 1016 -109 783 600 
Q 550 1309 550 2009 
Q 550 2706 781 3412 
Q 1013 4119 1484 4856 
L 1984 4856 
z
" transform="scale(0.015625)"/>
       <path id="DejaVuSans-42" d="M 1259 2228 
L 1259 519 
L 2272 519 
Q 2781 519 3026 730 
Q 3272 941 3272 1375 
Q 3272 1813 3026 2020 
Q 2781 2228 2272 2228 
L 1259 2228 
z
M 1259 4147 
L 1259 2741 
L 2194 2741 
Q 2656 2741 2882 2914 
Q 3109 3088 3109 3444 
Q 3109 3797 2882 3972 
Q 2656 4147 2194 4147 
L 1259 4147 
z
M 628 4666 
L 2241 4666 
Q 2963 4666 3353 4366 
Q 3744 4066 3744 3513 
Q 3744 3084 3544 2831 
Q 3344 2578 2956 2516 
Q 3422 2416 3680 2098 
Q 3938 1781 3938 1306 
Q 3938 681 3513 340 
Q 3088 0 2303 0 
L 628 0 
L 628 4666 
z
" transform="scale(0.015625)"/>
       <path id="DejaVuSans-29" d="M 513 4856 
L 1013 4856 
Q 1481 4119 1714 3412 
Q 1947 2706 1947 2009 
Q 1947 1309 1714 600 
Q 1481 -109 1013 -844 
L 513 -844 
Q 928 -128 1133 580 
Q 1338 1288 1338 2009 
Q 1338 2731 1133 3434 
Q 928 4138 513 4856 
z
" transform="scale(0.015625)"/>
      </defs>
      <use xlink:href="#DejaVuSans-50"/>
      <use xlink:href="#DejaVuSans-65" x="56.677734"/>
      <use xlink:href="#DejaVuSans-72" x="118.201172"/>
      <use xlink:href="#DejaVuSans-63" x="157.064453"/>
      <use xlink:href="#DejaVuSans-65" x="212.044922"/>
      <use xlink:href="#DejaVuSans-6e" x="273.568359"/>
      <use xlink:href="#DejaVuSans-74" x="336.947266"/>
      <use xlink:href="#DejaVuSans-73" x="376.15625"/>
      <use xlink:href="#DejaVuSans-20" x="428.255859"/>
      <use xlink:href="#DejaVuSans-28" x="460.042969"/>
      <use xlink:href="#DejaVuSans-42" x="499.056641"/>
      <use xlink:href="#DejaVuSans-61" x="567.660156"/>
      <use xlink:href="#DejaVuSans-72" x="628.939453"/>
      <use xlink:href="#DejaVuSans-73" x="670.052734"/>
      <use xlink:href="#DejaVuSans-29" x="722.152344"/>
     </g>
    </g>
   </g>
   <g id="line2d_9">
    <path d="M 163.831691 28.439527 
L 163.831691 23.41001 
L 362.59978 23.41001 
L 362.59978 28.439527 
" clip-path="url(#p5e8f00b28b)" style="fill: none; stroke: #000000; stroke-width: 1.5; stroke-linecap: square"/>
   </g>
   <g id="patch_23">
    <path d="M 117.78375 282.430125 
L 117.78375 16.318125 
" style="fill: none; stroke: #000000; stroke-width: 0.8; stroke-linejoin: miter; stroke-linecap: square"/>
   </g>
   <g id="patch_24">
    <path d="M 474.90375 282.430125 
L 474.90375 16.318125 
" style="fill: none; stroke: #000000; stroke-width: 0.8; stroke-linejoin: miter; stroke-linecap: square"/>
   </g>
   <g id="patch_25">
    <path d="M 117.78375 282.430125 
L 474.90375 282.430125 
" style="fill: none; stroke: #000000; stroke-width: 0.8; stroke-linejoin: miter; stroke-linecap: square"/>
   </g>
   <g id="patch_26">
    <path d="M 117.78375 16.318125 
L 474.90375 16.318125 
" style="fill: none; stroke: #000000; stroke-width: 0.8; stroke-linejoin: miter; stroke-linecap: square"/>
   </g>
   <g id="text_10">
    <!-- *** -->
    <g transform="translate(254.215735 20.895251) scale(0.12 -0.12)">
     <defs>
      <path id="DejaVuSans-2a" d="M 3009 3897 
L 1888 3291 
L 3009 2681 
L 2828 2375 
L 1778 3009 
L 1778 1831 
L 1422 1831 
L 1422 3009 
L 372 2375 
L 191 2681 
L 1313 3291 
L 191 3897 
L 372 4206 
L 1422 3572 
L 1422 4750 
L 1778 4750 
L 1778 3572 
L 2828 4206 
L 3009 3897 
z
" transform="scale(0.015625)"/>
     </defs>
     <use xlink:href="#DejaVuSans-2a"/>
     <use xlink:href="#DejaVuSans-2a" x="50"/>
     <use xlink:href="#DejaVuSans-2a" x="100"/>
    </g>
   </g>
  </g>
  <g id="axes_2">
   <g id="PolyCollection_1">
    <defs>
     <path id="mebffac35b7" d="M 190.056705 -157.393612 
L 137.606677 -157.393612 
L 137.429989 -159.931084 
L 137.337374 -162.468556 
L 137.329279 -165.006028 
L 137.405269 -167.5435 
L 137.564041 -170.080972 
L 137.803434 -172.618444 
L 138.12047 -175.155916 
L 138.511392 -177.693388 
L 138.971728 -180.23086 
L 139.49636 -182.768332 
L 140.079598 -185.305804 
L 140.715272 -187.843276 
L 141.396821 -190.380748 
L 142.117389 -192.91822 
L 142.869924 -195.455692 
L 143.647277 -197.993164 
L 144.442296 -200.530636 
L 145.247919 -203.068108 
L 146.057263 -205.60558 
L 146.863702 -208.143052 
L 147.660939 -210.680524 
L 148.443072 -213.217996 
L 149.204645 -215.755468 
L 149.940693 -218.29294 
L 150.646774 -220.830412 
L 151.318991 -223.367884 
L 151.954003 -225.905356 
L 152.549031 -228.442828 
L 153.101846 -230.9803 
L 153.610756 -233.517772 
L 154.074582 -236.055244 
L 154.492628 -238.592716 
L 154.864644 -241.130188 
L 155.190788 -243.66766 
L 155.471582 -246.205132 
L 155.707862 -248.742604 
L 155.900736 -251.280076 
L 156.051536 -253.817548 
L 156.161766 -256.35502 
L 156.233064 -258.892492 
L 156.267152 -261.429964 
L 156.265803 -263.967436 
L 156.230798 -266.504908 
L 156.163898 -269.04238 
L 156.066815 -271.579852 
L 155.941191 -274.117324 
L 155.788574 -276.654796 
L 155.610411 -279.192268 
L 155.408037 -281.72974 
L 155.182674 -284.267212 
L 154.935427 -286.804684 
L 154.667297 -289.342156 
L 154.379188 -291.879628 
L 154.071919 -294.4171 
L 153.746245 -296.954572 
L 153.402876 -299.492044 
L 153.0425 -302.029516 
L 152.665806 -304.566988 
L 152.273513 -307.10446 
L 151.866392 -309.641932 
L 151.445295 -312.179404 
L 151.01118 -314.716876 
L 150.565134 -317.254348 
L 150.108394 -319.79182 
L 149.642369 -322.329292 
L 149.168653 -324.866764 
L 148.689037 -327.404236 
L 148.205519 -329.941708 
L 147.720304 -332.47918 
L 147.235806 -335.016652 
L 146.754637 -337.554124 
L 146.279595 -340.091596 
L 145.813652 -342.629068 
L 145.359924 -345.16654 
L 144.921647 -347.704012 
L 144.502147 -350.241484 
L 144.1048 -352.778956 
L 143.732997 -355.316428 
L 143.390098 -357.8539 
L 143.07939 -360.391372 
L 142.804041 -362.928844 
L 142.567058 -365.466316 
L 142.371234 -368.003788 
L 142.219112 -370.54126 
L 142.112942 -373.078732 
L 142.054641 -375.616204 
L 142.045762 -378.153676 
L 142.087464 -380.691148 
L 142.180486 -383.22862 
L 142.325135 -385.766092 
L 142.52127 -388.303564 
L 142.768302 -390.841036 
L 143.065192 -393.378508 
L 143.410464 -395.91598 
L 143.802219 -398.453452 
L 144.238159 -400.990924 
L 144.715614 -403.528396 
L 145.231579 -406.065868 
L 145.782746 -408.60334 
L 181.880635 -408.60334 
L 181.880635 -408.60334 
L 182.431802 -406.065868 
L 182.947767 -403.528396 
L 183.425222 -400.990924 
L 183.861162 -398.453452 
L 184.252917 -395.91598 
L 184.598189 -393.378508 
L 184.895079 -390.841036 
L 185.142111 -388.303564 
L 185.338247 -385.766092 
L 185.482895 -383.22862 
L 185.575918 -380.691148 
L 185.617619 -378.153676 
L 185.60874 -375.616204 
L 185.550439 -373.078732 
L 185.444269 -370.54126 
L 185.292148 -368.003788 
L 185.096324 -365.466316 
L 184.85934 -362.928844 
L 184.583992 -360.391372 
L 184.273284 -357.8539 
L 183.930384 -355.316428 
L 183.558581 -352.778956 
L 183.161234 -350.241484 
L 182.741734 -347.704012 
L 182.303457 -345.16654 
L 181.849729 -342.629068 
L 181.383786 -340.091596 
L 180.908745 -337.554124 
L 180.427575 -335.016652 
L 179.943077 -332.47918 
L 179.457862 -329.941708 
L 178.974344 -327.404236 
L 178.494728 -324.866764 
L 178.021012 -322.329292 
L 177.554987 -319.79182 
L 177.098247 -317.254348 
L 176.652201 -314.716876 
L 176.218086 -312.179404 
L 175.796989 -309.641932 
L 175.389868 -307.10446 
L 174.997575 -304.566988 
L 174.620882 -302.029516 
L 174.260505 -299.492044 
L 173.917137 -296.954572 
L 173.591463 -294.4171 
L 173.284193 -291.879628 
L 172.996084 -289.342156 
L 172.727954 -286.804684 
L 172.480707 -284.267212 
L 172.255344 -281.72974 
L 172.05297 -279.192268 
L 171.874808 -276.654796 
L 171.722191 -274.117324 
L 171.596566 -271.579852 
L 171.499484 -269.04238 
L 171.432584 -266.504908 
L 171.397578 -263.967436 
L 171.396229 -261.429964 
L 171.430317 -258.892492 
L 171.501615 -256.35502 
L 171.611846 -253.817548 
L 171.762645 -251.280076 
L 171.95552 -248.742604 
L 172.1918 -246.205132 
L 172.472593 -243.66766 
L 172.798737 -241.130188 
L 173.170753 -238.592716 
L 173.588799 -236.055244 
L 174.052625 -233.517772 
L 174.561536 -230.9803 
L 175.114351 -228.442828 
L 175.709378 -225.905356 
L 176.344391 -223.367884 
L 177.016607 -220.830412 
L 177.722688 -218.29294 
L 178.458736 -215.755468 
L 179.220309 -213.217996 
L 180.002442 -210.680524 
L 180.799679 -208.143052 
L 181.606118 -205.60558 
L 182.415462 -203.068108 
L 183.221086 -200.530636 
L 184.016105 -197.993164 
L 184.793458 -195.455692 
L 185.545993 -192.91822 
L 186.26656 -190.380748 
L 186.948109 -187.843276 
L 187.583783 -185.305804 
L 188.167021 -182.768332 
L 188.691653 -180.23086 
L 189.15199 -177.693388 
L 189.542911 -175.155916 
L 189.859947 -172.618444 
L 190.09934 -170.080972 
L 190.258112 -167.5435 
L 190.334103 -165.006028 
L 190.326007 -162.468556 
L 190.233393 -159.931084 
L 190.056705 -157.393612 
z
" style="stroke: #757575; stroke-width: 1.25"/>
    </defs>
    <g clip-path="url(#p5e8f00b28b)">
     <use xlink:href="#mebffac35b7" x="0" y="439.557625" style="fill: #a0c7f1; stroke: #757575; stroke-width: 1.25"/>
    </g>
   </g>
   <g id="PolyCollection_2">
    <defs>
     <path id="m6ca9ef918a" d="M 255.847037 -157.659724 
L 204.328404 -157.659724 
L 203.727911 -160.140748 
L 203.585308 -162.621772 
L 203.906789 -165.102796 
L 204.674259 -167.58382 
L 205.847015 -170.064844 
L 207.365322 -172.545868 
L 209.15544 -175.026892 
L 211.135525 -177.507916 
L 213.221745 -179.98894 
L 215.333985 -182.469964 
L 217.400625 -184.950988 
L 219.362035 -187.432012 
L 221.172621 -189.913036 
L 222.801445 -192.39406 
L 224.231583 -194.875084 
L 225.458522 -197.356108 
L 226.487908 -199.837132 
L 227.332998 -202.318156 
L 228.012105 -204.79918 
L 228.546268 -207.280204 
L 228.957308 -209.761228 
L 229.266325 -212.242252 
L 229.492681 -214.723276 
L 229.653395 -217.2043 
L 229.762901 -219.685324 
L 229.833085 -222.166348 
L 229.873501 -224.647372 
L 229.891698 -227.128396 
L 229.893599 -229.60942 
L 229.883859 -232.090444 
L 229.866197 -234.571468 
L 229.84366 -237.052492 
L 229.818812 -239.533516 
L 229.793864 -242.01454 
L 229.770731 -244.495564 
L 229.751049 -246.976588 
L 229.736149 -249.457612 
L 229.727025 -251.938636 
L 229.724299 -254.41966 
L 229.728192 -256.900684 
L 229.738536 -259.381708 
L 229.754791 -261.862732 
L 229.776113 -264.343756 
L 229.801424 -266.82478 
L 229.82951 -269.305804 
L 229.859121 -271.786828 
L 229.889055 -274.267852 
L 229.918243 -276.748876 
L 229.945798 -279.2299 
L 229.971057 -281.710924 
L 229.993581 -284.191948 
L 230.013148 -286.672972 
L 230.029725 -289.153996 
L 230.043431 -291.63502 
L 230.054491 -294.116044 
L 230.063198 -296.597068 
L 230.069869 -299.078092 
L 230.074818 -301.559116 
L 230.078324 -304.04014 
L 230.080611 -306.521164 
L 230.081837 -309.002188 
L 230.082079 -311.483212 
L 230.081325 -313.964236 
L 230.079467 -316.44526 
L 230.076294 -318.926284 
L 230.071491 -321.407308 
L 230.064635 -323.888332 
L 230.055204 -326.369356 
L 230.042594 -328.85038 
L 230.026142 -331.331404 
L 230.005168 -333.812428 
L 229.97903 -336.293452 
L 229.947192 -338.774476 
L 229.909301 -341.2555 
L 229.865262 -343.736524 
L 229.815316 -346.217548 
L 229.760087 -348.698572 
L 229.700616 -351.179596 
L 229.638341 -353.66062 
L 229.575054 -356.141644 
L 229.512795 -358.622668 
L 229.453721 -361.103692 
L 229.39995 -363.584716 
L 229.353391 -366.06574 
L 229.315586 -368.546764 
L 229.287597 -371.027788 
L 229.269923 -373.508812 
L 229.26249 -375.989836 
L 229.2647 -378.47086 
L 229.275529 -380.951884 
L 229.293669 -383.432908 
L 229.317689 -385.913932 
L 229.346184 -388.394956 
L 229.377913 -390.87598 
L 229.411877 -393.357004 
L 229.447364 -395.838028 
L 229.483933 -398.319052 
L 229.521364 -400.800076 
L 229.559579 -403.2811 
L 230.615862 -403.2811 
L 230.615862 -403.2811 
L 230.654076 -400.800076 
L 230.691508 -398.319052 
L 230.728077 -395.838028 
L 230.763564 -393.357004 
L 230.797528 -390.87598 
L 230.829256 -388.394956 
L 230.857752 -385.913932 
L 230.881771 -383.432908 
L 230.899911 -380.951884 
L 230.91074 -378.47086 
L 230.91295 -375.989836 
L 230.905518 -373.508812 
L 230.887843 -371.027788 
L 230.859854 -368.546764 
L 230.82205 -366.06574 
L 230.77549 -363.584716 
L 230.72172 -361.103692 
L 230.662646 -358.622668 
L 230.600387 -356.141644 
L 230.537099 -353.66062 
L 230.474825 -351.179596 
L 230.415353 -348.698572 
L 230.360125 -346.217548 
L 230.310178 -343.736524 
L 230.26614 -341.2555 
L 230.228249 -338.774476 
L 230.196411 -336.293452 
L 230.170273 -333.812428 
L 230.149299 -331.331404 
L 230.132846 -328.85038 
L 230.120236 -326.369356 
L 230.110806 -323.888332 
L 230.10395 -321.407308 
L 230.099146 -318.926284 
L 230.095974 -316.44526 
L 230.094116 -313.964236 
L 230.093362 -311.483212 
L 230.093604 -309.002188 
L 230.09483 -306.521164 
L 230.097117 -304.04014 
L 230.100622 -301.559116 
L 230.105571 -299.078092 
L 230.112243 -296.597068 
L 230.12095 -294.116044 
L 230.13201 -291.63502 
L 230.145716 -289.153996 
L 230.162293 -286.672972 
L 230.18186 -284.191948 
L 230.204383 -281.710924 
L 230.229642 -279.2299 
L 230.257198 -276.748876 
L 230.286385 -274.267852 
L 230.31632 -271.786828 
L 230.34593 -269.305804 
L 230.374017 -266.82478 
L 230.399328 -264.343756 
L 230.420649 -261.862732 
L 230.436905 -259.381708 
L 230.447248 -256.900684 
L 230.451142 -254.41966 
L 230.448415 -251.938636 
L 230.439292 -249.457612 
L 230.424392 -246.976588 
L 230.404709 -244.495564 
L 230.381577 -242.01454 
L 230.356629 -239.533516 
L 230.331781 -237.052492 
L 230.309244 -234.571468 
L 230.291582 -232.090444 
L 230.281842 -229.60942 
L 230.283742 -227.128396 
L 230.30194 -224.647372 
L 230.342355 -222.166348 
L 230.412539 -219.685324 
L 230.522046 -217.2043 
L 230.682759 -214.723276 
L 230.909115 -212.242252 
L 231.218133 -209.761228 
L 231.629172 -207.280204 
L 232.163336 -204.79918 
L 232.842443 -202.318156 
L 233.687533 -199.837132 
L 234.716919 -197.356108 
L 235.943858 -194.875084 
L 237.373996 -192.39406 
L 239.002819 -189.913036 
L 240.813406 -187.432012 
L 242.774816 -184.950988 
L 244.841456 -182.469964 
L 246.953695 -179.98894 
L 249.039915 -177.507916 
L 251.020001 -175.026892 
L 252.810119 -172.545868 
L 254.328426 -170.064844 
L 255.501182 -167.58382 
L 256.268651 -165.102796 
L 256.590132 -162.621772 
L 256.44753 -160.140748 
L 255.847037 -157.659724 
z
" style="stroke: #757575; stroke-width: 1.25"/>
    </defs>
    <g clip-path="url(#p5e8f00b28b)">
     <use xlink:href="#m6ca9ef918a" x="0" y="439.557625" style="fill: #a2e5b0; stroke: #757575; stroke-width: 1.25"/>
    </g>
   </g>
   <g id="PolyCollection_3">
    <defs>
     <path id="m48493f5614" d="M 319.632341 -158.191948 
L 273.055159 -158.191948 
L 271.596187 -159.245644 
L 270.548431 -160.29934 
L 269.957314 -161.353036 
L 269.841338 -162.406732 
L 270.191412 -163.460428 
L 270.972927 -164.514124 
L 272.130135 -165.56782 
L 273.592123 -166.621516 
L 275.279511 -167.675212 
L 277.111032 -168.728908 
L 279.009318 -169.782604 
L 280.905391 -170.8363 
L 282.741684 -171.889996 
L 284.473563 -172.943692 
L 286.069558 -173.997388 
L 287.510561 -175.051084 
L 288.788323 -176.10478 
L 289.903524 -177.158476 
L 290.863688 -178.212172 
L 291.68113 -179.265868 
L 292.371077 -180.319564 
L 292.950041 -181.37326 
L 293.434512 -182.426956 
L 293.839963 -183.480652 
L 294.18018 -184.534348 
L 294.466878 -185.588044 
L 294.709582 -186.64174 
L 294.915717 -187.695436 
L 295.09087 -188.749132 
L 295.239158 -189.802828 
L 295.363664 -190.856524 
L 295.466862 -191.91022 
L 295.55101 -192.963916 
L 295.618437 -194.017612 
L 295.671717 -195.071308 
L 295.713719 -196.125004 
L 295.747522 -197.1787 
L 295.776243 -198.232396 
L 295.802813 -199.286092 
L 295.829736 -200.339788 
L 295.858896 -201.393484 
L 295.891428 -202.44718 
L 295.927692 -203.500876 
L 295.967327 -204.554572 
L 296.009402 -205.608268 
L 296.05261 -206.661964 
L 296.095479 -207.71566 
L 296.136579 -208.769356 
L 296.174683 -209.823052 
L 296.208875 -210.876748 
L 296.238599 -211.930444 
L 296.263655 -212.98414 
L 296.284151 -214.037836 
L 296.300433 -215.091532 
L 296.313001 -216.145228 
L 296.322433 -217.198924 
L 296.329317 -218.25262 
L 296.334205 -219.306316 
L 296.337583 -220.360012 
L 296.33985 -221.413708 
L 296.341326 -222.467404 
L 296.342249 -223.5211 
L 296.342785 -224.574796 
L 296.343041 -225.628492 
L 296.343074 -226.682188 
L 296.342888 -227.735884 
L 296.342446 -228.78958 
L 296.341655 -229.843276 
L 296.340366 -230.896972 
L 296.338362 -231.950668 
L 296.335348 -233.004364 
L 296.330942 -234.05806 
L 296.324673 -235.111756 
L 296.315993 -236.165452 
L 296.304295 -237.219148 
L 296.288955 -238.272844 
L 296.269385 -239.32654 
L 296.245108 -240.380236 
L 296.215835 -241.433932 
L 296.181536 -242.487628 
L 296.142508 -243.541324 
L 296.099401 -244.59502 
L 296.05321 -245.648716 
L 296.005226 -246.702412 
L 295.956937 -247.756108 
L 295.909906 -248.809804 
L 295.865636 -249.8635 
L 295.825441 -250.917196 
L 295.79036 -251.970892 
L 295.761115 -253.024588 
L 295.738125 -254.078284 
L 295.721566 -255.13198 
L 295.711463 -256.185676 
L 295.707781 -257.239372 
L 295.710499 -258.293068 
L 295.719633 -259.346764 
L 295.735219 -260.40046 
L 295.757248 -261.454156 
L 295.785572 -262.507852 
L 296.901928 -262.507852 
L 296.901928 -262.507852 
L 296.930252 -261.454156 
L 296.952281 -260.40046 
L 296.967867 -259.346764 
L 296.977001 -258.293068 
L 296.979719 -257.239372 
L 296.976037 -256.185676 
L 296.965934 -255.13198 
L 296.949375 -254.078284 
L 296.926385 -253.024588 
L 296.89714 -251.970892 
L 296.862059 -250.917196 
L 296.821864 -249.8635 
L 296.777594 -248.809804 
L 296.730563 -247.756108 
L 296.682274 -246.702412 
L 296.63429 -245.648716 
L 296.588099 -244.59502 
L 296.544992 -243.541324 
L 296.505964 -242.487628 
L 296.471665 -241.433932 
L 296.442392 -240.380236 
L 296.418115 -239.32654 
L 296.398545 -238.272844 
L 296.383205 -237.219148 
L 296.371507 -236.165452 
L 296.362827 -235.111756 
L 296.356558 -234.05806 
L 296.352152 -233.004364 
L 296.349138 -231.950668 
L 296.347134 -230.896972 
L 296.345845 -229.843276 
L 296.345054 -228.78958 
L 296.344612 -227.735884 
L 296.344426 -226.682188 
L 296.344459 -225.628492 
L 296.344715 -224.574796 
L 296.345251 -223.5211 
L 296.346174 -222.467404 
L 296.34765 -221.413708 
L 296.349917 -220.360012 
L 296.353295 -219.306316 
L 296.358183 -218.25262 
L 296.365067 -217.198924 
L 296.374499 -216.145228 
L 296.387067 -215.091532 
L 296.403349 -214.037836 
L 296.423845 -212.98414 
L 296.448901 -211.930444 
L 296.478625 -210.876748 
L 296.512817 -209.823052 
L 296.550921 -208.769356 
L 296.592021 -207.71566 
L 296.63489 -206.661964 
L 296.678098 -205.608268 
L 296.720173 -204.554572 
L 296.759808 -203.500876 
L 296.796072 -202.44718 
L 296.828604 -201.393484 
L 296.857764 -200.339788 
L 296.884687 -199.286092 
L 296.911257 -198.232396 
L 296.939978 -197.1787 
L 296.973781 -196.125004 
L 297.015783 -195.071308 
L 297.069063 -194.017612 
L 297.13649 -192.963916 
L 297.220638 -191.91022 
L 297.323836 -190.856524 
L 297.448342 -189.802828 
L 297.59663 -188.749132 
L 297.771783 -187.695436 
L 297.977918 -186.64174 
L 298.220622 -185.588044 
L 298.50732 -184.534348 
L 298.847537 -183.480652 
L 299.252988 -182.426956 
L 299.737459 -181.37326 
L 300.316423 -180.319564 
L 301.00637 -179.265868 
L 301.823812 -178.212172 
L 302.783976 -177.158476 
L 303.899177 -176.10478 
L 305.176939 -175.051084 
L 306.617942 -173.997388 
L 308.213937 -172.943692 
L 309.945816 -171.889996 
L 311.782109 -170.8363 
L 313.678182 -169.782604 
L 315.576468 -168.728908 
L 317.407989 -167.675212 
L 319.095377 -166.621516 
L 320.557365 -165.56782 
L 321.714573 -164.514124 
L 322.496088 -163.460428 
L 322.846162 -162.406732 
L 322.730186 -161.353036 
L 322.139069 -160.29934 
L 321.091313 -159.245644 
L 319.632341 -158.191948 
z
" style="stroke: #757575; stroke-width: 1.25"/>
    </defs>
    <g clip-path="url(#p5e8f00b28b)">
     <use xlink:href="#m48493f5614" x="0" y="439.557625" style="fill: #f2aaa7; stroke: #757575; stroke-width: 1.25"/>
    </g>
   </g>
   <g id="PolyCollection_4">
    <defs>
     <path id="m96dd69ef84" d="M 387.309276 -158.191948 
L 337.890284 -158.191948 
L 336.812858 -160.334284 
L 336.2072 -162.47662 
L 336.097368 -164.618956 
L 336.477587 -166.761292 
L 337.313726 -168.903628 
L 338.547566 -171.045964 
L 340.103181 -173.1883 
L 341.89448 -175.330636 
L 343.832866 -177.472972 
L 345.834103 -179.615308 
L 347.823679 -181.757644 
L 349.7403 -183.89998 
L 351.537465 -186.042316 
L 353.183354 -188.184652 
L 354.659443 -190.326988 
L 355.958343 -192.469324 
L 357.081329 -194.61166 
L 358.035947 -196.753996 
L 358.833942 -198.896332 
L 359.489629 -201.038668 
L 360.018707 -203.181004 
L 360.437436 -205.32334 
L 360.76209 -207.465676 
L 361.008542 -209.608012 
L 361.191927 -211.750348 
L 361.326314 -213.892684 
L 361.424382 -216.03502 
L 361.497121 -218.177356 
L 361.553591 -220.319692 
L 361.600791 -222.462028 
L 361.643663 -224.604364 
L 361.685241 -226.7467 
L 361.726945 -228.889036 
L 361.768984 -231.031372 
L 361.810802 -233.173708 
L 361.851525 -235.316044 
L 361.890348 -237.45838 
L 361.926803 -239.600716 
L 361.960903 -241.743052 
L 361.993146 -243.885388 
L 362.024409 -246.027724 
L 362.055758 -248.17006 
L 362.088237 -250.312396 
L 362.122666 -252.454732 
L 362.159486 -254.597068 
L 362.198691 -256.739404 
L 362.239829 -258.88174 
L 362.282077 -261.024076 
L 362.324371 -263.166412 
L 362.365551 -265.308748 
L 362.404509 -267.451084 
L 362.440309 -269.59342 
L 362.472268 -271.735756 
L 362.499991 -273.878092 
L 362.523371 -276.020428 
L 362.542547 -278.162764 
L 362.557851 -280.3051 
L 362.56974 -282.447436 
L 362.578732 -284.589772 
L 362.585357 -286.732108 
L 362.590108 -288.874444 
L 362.593423 -291.01678 
L 362.595666 -293.159116 
L 362.597122 -295.301452 
L 362.598002 -297.443788 
L 362.598448 -299.586124 
L 362.598536 -301.72846 
L 362.598281 -303.870796 
L 362.597638 -306.013132 
L 362.596497 -308.155468 
L 362.594679 -310.297804 
L 362.591932 -312.44014 
L 362.587919 -314.582476 
L 362.582221 -316.724812 
L 362.574338 -318.867148 
L 362.563708 -321.009484 
L 362.549733 -323.15182 
L 362.531823 -325.294156 
L 362.509449 -327.436492 
L 362.482211 -329.578828 
L 362.449906 -331.721164 
L 362.412585 -333.8635 
L 362.370606 -336.005836 
L 362.324652 -338.148172 
L 362.275725 -340.290508 
L 362.225102 -342.432844 
L 362.174271 -344.57518 
L 362.124834 -346.717516 
L 362.078413 -348.859852 
L 362.036551 -351.002188 
L 362.000632 -353.144524 
L 361.971823 -355.28686 
L 361.951037 -357.429196 
L 361.938914 -359.571532 
L 361.935821 -361.713868 
L 361.941849 -363.856204 
L 361.956819 -365.99854 
L 361.980275 -368.140876 
L 362.011489 -370.283212 
L 363.188071 -370.283212 
L 363.188071 -370.283212 
L 363.219284 -368.140876 
L 363.242741 -365.99854 
L 363.25771 -363.856204 
L 363.263739 -361.713868 
L 363.260645 -359.571532 
L 363.248522 -357.429196 
L 363.227736 -355.28686 
L 363.198927 -353.144524 
L 363.163009 -351.002188 
L 363.121146 -348.859852 
L 363.074725 -346.717516 
L 363.025288 -344.57518 
L 362.974457 -342.432844 
L 362.923834 -340.290508 
L 362.874907 -338.148172 
L 362.828953 -336.005836 
L 362.786974 -333.8635 
L 362.749653 -331.721164 
L 362.717348 -329.578828 
L 362.690111 -327.436492 
L 362.667737 -325.294156 
L 362.649826 -323.15182 
L 362.635852 -321.009484 
L 362.625222 -318.867148 
L 362.617339 -316.724812 
L 362.61164 -314.582476 
L 362.607627 -312.44014 
L 362.60488 -310.297804 
L 362.603063 -308.155468 
L 362.601922 -306.013132 
L 362.601278 -303.870796 
L 362.601023 -301.72846 
L 362.601111 -299.586124 
L 362.601557 -297.443788 
L 362.602438 -295.301452 
L 362.603894 -293.159116 
L 362.606136 -291.01678 
L 362.609451 -288.874444 
L 362.614203 -286.732108 
L 362.620827 -284.589772 
L 362.62982 -282.447436 
L 362.641708 -280.3051 
L 362.657012 -278.162764 
L 362.676188 -276.020428 
L 362.699568 -273.878092 
L 362.727292 -271.735756 
L 362.75925 -269.59342 
L 362.79505 -267.451084 
L 362.834008 -265.308748 
L 362.875188 -263.166412 
L 362.917482 -261.024076 
L 362.95973 -258.88174 
L 363.000868 -256.739404 
L 363.040073 -254.597068 
L 363.076894 -252.454732 
L 363.111322 -250.312396 
L 363.143802 -248.17006 
L 363.175151 -246.027724 
L 363.206413 -243.885388 
L 363.238657 -241.743052 
L 363.272756 -239.600716 
L 363.309211 -237.45838 
L 363.348034 -235.316044 
L 363.388758 -233.173708 
L 363.430575 -231.031372 
L 363.472614 -228.889036 
L 363.514319 -226.7467 
L 363.555896 -224.604364 
L 363.598768 -222.462028 
L 363.645969 -220.319692 
L 363.702439 -218.177356 
L 363.775177 -216.03502 
L 363.873245 -213.892684 
L 364.007633 -211.750348 
L 364.191018 -209.608012 
L 364.437469 -207.465676 
L 364.762123 -205.32334 
L 365.180853 -203.181004 
L 365.70993 -201.038668 
L 366.365617 -198.896332 
L 367.163613 -196.753996 
L 368.11823 -194.61166 
L 369.241216 -192.469324 
L 370.540116 -190.326988 
L 372.016206 -188.184652 
L 373.662095 -186.042316 
L 375.45926 -183.89998 
L 377.375881 -181.757644 
L 379.365457 -179.615308 
L 381.366693 -177.472972 
L 383.305079 -175.330636 
L 385.096378 -173.1883 
L 386.651994 -171.045964 
L 387.885833 -168.903628 
L 388.721972 -166.761292 
L 389.102192 -164.618956 
L 388.992359 -162.47662 
L 388.386702 -160.334284 
L 387.309276 -158.191948 
z
" style="stroke: #757575; stroke-width: 1.25"/>
    </defs>
    <g clip-path="url(#p5e8f00b28b)">
     <use xlink:href="#m96dd69ef84" x="0" y="439.557625" style="fill: #d3c4f6; stroke: #757575; stroke-width: 1.25"/>
    </g>
   </g>
   <g id="PolyCollection_5">
    <defs>
     <path id="m21965172bc" d="M 454.132414 -157.925836 
L 403.579205 -157.925836 
L 402.715794 -159.928396 
L 402.353397 -161.930956 
L 402.505468 -163.933516 
L 403.154251 -165.936076 
L 404.253177 -167.938636 
L 405.73207 -169.941196 
L 407.504409 -171.943756 
L 409.475601 -173.946316 
L 411.551194 -175.948876 
L 413.644041 -177.951436 
L 415.679737 -179.953996 
L 417.599929 -181.956556 
L 419.363504 -183.959116 
L 420.945914 -185.961676 
L 422.337114 -187.964236 
L 423.53866 -189.966796 
L 424.560528 -191.969356 
L 425.418058 -193.971916 
L 426.129363 -195.974476 
L 426.713325 -197.977036 
L 427.188219 -199.979596 
L 427.57089 -201.982156 
L 427.876363 -203.984716 
L 428.11775 -205.987276 
L 428.306334 -207.989836 
L 428.451733 -209.992396 
L 428.562083 -211.994956 
L 428.644201 -213.997516 
L 428.703734 -216.000076 
L 428.745278 -218.002636 
L 428.772488 -220.005196 
L 428.788193 -222.007756 
L 428.794508 -224.010316 
L 428.792963 -226.012876 
L 428.784644 -228.015436 
L 428.770339 -230.017996 
L 428.750684 -232.020556 
L 428.726303 -234.023116 
L 428.697925 -236.025676 
L 428.666478 -238.028236 
L 428.633129 -240.030796 
L 428.599296 -242.033356 
L 428.566592 -244.035916 
L 428.536734 -246.038476 
L 428.511418 -248.041036 
L 428.492169 -250.043596 
L 428.480198 -252.046156 
L 428.476279 -254.048716 
L 428.48067 -256.051276 
L 428.493088 -258.053836 
L 428.512733 -260.056396 
L 428.538383 -262.058956 
L 428.568513 -264.061516 
L 428.601448 -266.064076 
L 428.635513 -268.066636 
L 428.669172 -270.069196 
L 428.701132 -272.071756 
L 428.730412 -274.074316 
L 428.756364 -276.076876 
L 428.778663 -278.079436 
L 428.797266 -280.081996 
L 428.81235 -282.084556 
L 428.82425 -284.087116 
L 428.83339 -286.089676 
L 428.840227 -288.092236 
L 428.845211 -290.094796 
L 428.848748 -292.097356 
L 428.85119 -294.099916 
L 428.85282 -296.102476 
L 428.853855 -298.105036 
L 428.854448 -300.107596 
L 428.854693 -302.110156 
L 428.854627 -304.112716 
L 428.854227 -306.115276 
L 428.85341 -308.117836 
L 428.852023 -310.120396 
L 428.849826 -312.122956 
L 428.846488 -314.125516 
L 428.84156 -316.128076 
L 428.834476 -318.130636 
L 428.824548 -320.133196 
L 428.810978 -322.135756 
L 428.792894 -324.138316 
L 428.769411 -326.140876 
L 428.739707 -328.143436 
L 428.703137 -330.145996 
L 428.659354 -332.148556 
L 428.608436 -334.151116 
L 428.551 -336.153676 
L 428.488282 -338.156236 
L 428.422159 -340.158796 
L 428.355108 -342.161356 
L 428.290081 -344.163916 
L 428.230308 -346.166476 
L 428.179043 -348.169036 
L 428.139269 -350.171596 
L 428.113415 -352.174156 
L 428.103112 -354.176716 
L 428.10902 -356.179276 
L 429.602599 -356.179276 
L 429.602599 -356.179276 
L 429.608507 -354.176716 
L 429.598204 -352.174156 
L 429.57235 -350.171596 
L 429.532576 -348.169036 
L 429.48131 -346.166476 
L 429.421538 -344.163916 
L 429.356511 -342.161356 
L 429.28946 -340.158796 
L 429.223337 -338.156236 
L 429.160618 -336.153676 
L 429.103183 -334.151116 
L 429.052265 -332.148556 
L 429.008482 -330.145996 
L 428.971912 -328.143436 
L 428.942208 -326.140876 
L 428.918724 -324.138316 
L 428.900641 -322.135756 
L 428.887071 -320.133196 
L 428.877142 -318.130636 
L 428.870059 -316.128076 
L 428.865131 -314.125516 
L 428.861792 -312.122956 
L 428.859596 -310.120396 
L 428.858208 -308.117836 
L 428.857392 -306.115276 
L 428.856992 -304.112716 
L 428.856925 -302.110156 
L 428.857171 -300.107596 
L 428.857764 -298.105036 
L 428.858799 -296.102476 
L 428.860429 -294.099916 
L 428.86287 -292.097356 
L 428.866408 -290.094796 
L 428.871392 -288.092236 
L 428.878229 -286.089676 
L 428.887369 -284.087116 
L 428.899269 -282.084556 
L 428.914353 -280.081996 
L 428.932956 -278.079436 
L 428.955254 -276.076876 
L 428.981206 -274.074316 
L 429.010486 -272.071756 
L 429.042447 -270.069196 
L 429.076106 -268.066636 
L 429.110171 -266.064076 
L 429.143105 -264.061516 
L 429.173235 -262.058956 
L 429.198885 -260.056396 
L 429.218531 -258.053836 
L 429.230948 -256.051276 
L 429.23534 -254.048716 
L 429.231421 -252.046156 
L 429.21945 -250.043596 
L 429.2002 -248.041036 
L 429.174885 -246.038476 
L 429.145027 -244.035916 
L 429.112322 -242.033356 
L 429.078489 -240.030796 
L 429.045141 -238.028236 
L 429.013693 -236.025676 
L 428.985316 -234.023116 
L 428.960935 -232.020556 
L 428.94128 -230.017996 
L 428.926975 -228.015436 
L 428.918656 -226.012876 
L 428.917111 -224.010316 
L 428.923425 -222.007756 
L 428.93913 -220.005196 
L 428.966341 -218.002636 
L 429.007885 -216.000076 
L 429.067418 -213.997516 
L 429.149536 -211.994956 
L 429.259885 -209.992396 
L 429.405285 -207.989836 
L 429.593869 -205.987276 
L 429.835256 -203.984716 
L 430.140729 -201.982156 
L 430.5234 -199.979596 
L 430.998294 -197.977036 
L 431.582256 -195.974476 
L 432.293561 -193.971916 
L 433.151091 -191.969356 
L 434.172958 -189.966796 
L 435.374505 -187.964236 
L 436.765704 -185.961676 
L 438.348115 -183.959116 
L 440.11169 -181.956556 
L 442.031882 -179.953996 
L 444.067577 -177.951436 
L 446.160425 -175.948876 
L 448.236017 -173.946316 
L 450.20721 -171.943756 
L 451.979549 -169.941196 
L 453.458441 -167.938636 
L 454.557367 -165.936076 
L 455.206151 -163.933516 
L 455.358221 -161.930956 
L 454.995825 -159.928396 
L 454.132414 -157.925836 
z
" style="stroke: #757575; stroke-width: 1.25"/>
    </defs>
    <g clip-path="url(#p5e8f00b28b)">
     <use xlink:href="#m21965172bc" x="0" y="439.557625" style="fill: #f3f3ae; stroke: #757575; stroke-width: 1.25"/>
    </g>
   </g>
   <g id="matplotlib.axis_3">
    <g id="ytick_4">
     <g id="line2d_10">
      <defs>
       <path id="me1f9cdab90" d="M 0 0 
L 3.5 0 
" style="stroke: #000000; stroke-width: 0.8"/>
      </defs>
      <g>
       <use xlink:href="#me1f9cdab90" x="474.90375" y="282.430125" style="stroke: #000000; stroke-width: 0.8"/>
      </g>
     </g>
     <g id="text_11">
      <!-- 0.0 -->
      <g transform="translate(481.90375 291.54825) scale(0.24 -0.24)">
       <defs>
        <path id="DejaVuSans-2e" d="M 684 794 
L 1344 794 
L 1344 0 
L 684 0 
L 684 794 
z
" transform="scale(0.015625)"/>
       </defs>
       <use xlink:href="#DejaVuSans-30"/>
       <use xlink:href="#DejaVuSans-2e" x="63.623047"/>
       <use xlink:href="#DejaVuSans-30" x="95.410156"/>
      </g>
     </g>
    </g>
    <g id="ytick_5">
     <g id="line2d_11">
      <g>
       <use xlink:href="#me1f9cdab90" x="474.90375" y="149.374125" style="stroke: #000000; stroke-width: 0.8"/>
      </g>
     </g>
     <g id="text_12">
      <!-- 0.5 -->
      <g transform="translate(481.90375 158.49225) scale(0.24 -0.24)">
       <use xlink:href="#DejaVuSans-30"/>
       <use xlink:href="#DejaVuSans-2e" x="63.623047"/>
       <use xlink:href="#DejaVuSans-35" x="95.410156"/>
      </g>
     </g>
    </g>
    <g id="ytick_6">
     <g id="line2d_12">
      <g>
       <use xlink:href="#me1f9cdab90" x="474.90375" y="16.318125" style="stroke: #000000; stroke-width: 0.8"/>
      </g>
     </g>
     <g id="text_13">
      <!-- 1.0 -->
      <g transform="translate(481.90375 25.43625) scale(0.24 -0.24)">
       <use xlink:href="#DejaVuSans-31"/>
       <use xlink:href="#DejaVuSans-2e" x="63.623047"/>
       <use xlink:href="#DejaVuSans-30" x="95.410156"/>
      </g>
     </g>
    </g>
    <g id="text_14">
     <!-- DockQ Scores -->
     <g transform="translate(548.38625 260.369125) rotate(-90) scale(0.32 -0.32)">
      <defs>
       <path id="DejaVuSans-51" d="M 2522 4238 
Q 1834 4238 1429 3725 
Q 1025 3213 1025 2328 
Q 1025 1447 1429 934 
Q 1834 422 2522 422 
Q 3209 422 3611 934 
Q 4013 1447 4013 2328 
Q 4013 3213 3611 3725 
Q 3209 4238 2522 4238 
z
M 3406 84 
L 4238 -825 
L 3475 -825 
L 2784 -78 
Q 2681 -84 2626 -87 
Q 2572 -91 2522 -91 
Q 1538 -91 948 567 
Q 359 1225 359 2328 
Q 359 3434 948 4092 
Q 1538 4750 2522 4750 
Q 3503 4750 4090 4092 
Q 4678 3434 4678 2328 
Q 4678 1516 4351 937 
Q 4025 359 3406 84 
z
" transform="scale(0.015625)"/>
      </defs>
      <use xlink:href="#DejaVuSans-44"/>
      <use xlink:href="#DejaVuSans-6f" x="77.001953"/>
      <use xlink:href="#DejaVuSans-63" x="138.183594"/>
      <use xlink:href="#DejaVuSans-6b" x="193.164062"/>
      <use xlink:href="#DejaVuSans-51" x="251.074219"/>
      <use xlink:href="#DejaVuSans-20" x="329.785156"/>
      <use xlink:href="#DejaVuSans-53" x="361.572266"/>
      <use xlink:href="#DejaVuSans-63" x="425.048828"/>
      <use xlink:href="#DejaVuSans-6f" x="480.029297"/>
      <use xlink:href="#DejaVuSans-72" x="541.210938"/>
      <use xlink:href="#DejaVuSans-65" x="580.074219"/>
      <use xlink:href="#DejaVuSans-73" x="641.597656"/>
     </g>
     <!-- (Violins) -->
     <g transform="translate(584.21925 214.044125) rotate(-90) scale(0.32 -0.32)">
      <defs>
       <path id="DejaVuSans-56" d="M 1831 0 
L 50 4666 
L 709 4666 
L 2188 738 
L 3669 4666 
L 4325 4666 
L 2547 0 
L 1831 0 
z
" transform="scale(0.015625)"/>
      </defs>
      <use xlink:href="#DejaVuSans-28"/>
      <use xlink:href="#DejaVuSans-56" x="39.013672"/>
      <use xlink:href="#DejaVuSans-69" x="105.171875"/>
      <use xlink:href="#DejaVuSans-6f" x="132.955078"/>
      <use xlink:href="#DejaVuSans-6c" x="194.136719"/>
      <use xlink:href="#DejaVuSans-69" x="221.919922"/>
      <use xlink:href="#DejaVuSans-6e" x="249.703125"/>
      <use xlink:href="#DejaVuSans-73" x="313.082031"/>
      <use xlink:href="#DejaVuSans-29" x="365.181641"/>
     </g>
    </g>
   </g>
   <g id="line2d_13">
    <path d="M 163.831691 282.164013 
L 163.831691 30.954285 
" clip-path="url(#p5e8f00b28b)" style="fill: none; stroke: #757575; stroke-width: 1.875; stroke-linecap: square"/>
   </g>
   <g id="line2d_14">
    <path d="M 163.831691 278.305389 
L 163.831691 65.548845 
" clip-path="url(#p5e8f00b28b)" style="fill: none; stroke: #757575; stroke-width: 5.625; stroke-linecap: square"/>
   </g>
   <g id="line2d_15">
    <path d="M 163.831691 162.679725 
" clip-path="url(#p5e8f00b28b)" style="fill: none; stroke: #757575; stroke-width: 1.5; stroke-linecap: square"/>
    <defs>
     <path id="m4a00148655" d="M 2.34375 0 
L -2.34375 -0 
" style="stroke: #ffffff; stroke-width: 1.125"/>
    </defs>
    <g clip-path="url(#p5e8f00b28b)">
     <use xlink:href="#m4a00148655" x="163.831691" y="162.679725" style="fill: #ffffff; stroke: #ffffff; stroke-width: 1.125"/>
    </g>
   </g>
   <g id="line2d_16">
    <path d="M 230.08772 281.897901 
L 230.08772 266.197293 
" clip-path="url(#p5e8f00b28b)" style="fill: none; stroke: #757575; stroke-width: 1.875; stroke-linecap: square"/>
   </g>
   <g id="line2d_17">
    <path d="M 230.08772 280.035117 
L 230.08772 274.313709 
" clip-path="url(#p5e8f00b28b)" style="fill: none; stroke: #757575; stroke-width: 5.625; stroke-linecap: square"/>
   </g>
   <g id="line2d_18">
    <path d="M 230.08772 278.970669 
" clip-path="url(#p5e8f00b28b)" style="fill: none; stroke: #757575; stroke-width: 1.5; stroke-linecap: square"/>
    <g clip-path="url(#p5e8f00b28b)">
     <use xlink:href="#m4a00148655" x="230.08772" y="278.970669" style="fill: #ffffff; stroke: #ffffff; stroke-width: 1.125"/>
    </g>
   </g>
   <g id="line2d_19">
    <path d="M 296.34375 281.365677 
L 296.34375 261.407277 
" clip-path="url(#p5e8f00b28b)" style="fill: none; stroke: #757575; stroke-width: 1.875; stroke-linecap: square"/>
   </g>
   <g id="line2d_20">
    <path d="M 296.34375 279.902061 
L 296.34375 272.051757 
" clip-path="url(#p5e8f00b28b)" style="fill: none; stroke: #757575; stroke-width: 5.625; stroke-linecap: square"/>
   </g>
   <g id="line2d_21">
    <path d="M 296.34375 277.906221 
" clip-path="url(#p5e8f00b28b)" style="fill: none; stroke: #757575; stroke-width: 1.5; stroke-linecap: square"/>
    <g clip-path="url(#p5e8f00b28b)">
     <use xlink:href="#m4a00148655" x="296.34375" y="277.906221" style="fill: #ffffff; stroke: #ffffff; stroke-width: 1.125"/>
    </g>
   </g>
   <g id="line2d_22">
    <path d="M 362.59978 281.365677 
L 362.59978 257.415597 
" clip-path="url(#p5e8f00b28b)" style="fill: none; stroke: #757575; stroke-width: 1.875; stroke-linecap: square"/>
   </g>
   <g id="line2d_23">
    <path d="M 362.59978 279.635949 
L 362.59978 270.322029 
" clip-path="url(#p5e8f00b28b)" style="fill: none; stroke: #757575; stroke-width: 5.625; stroke-linecap: square"/>
   </g>
   <g id="line2d_24">
    <path d="M 362.59978 276.309549 
" clip-path="url(#p5e8f00b28b)" style="fill: none; stroke: #757575; stroke-width: 1.5; stroke-linecap: square"/>
    <g clip-path="url(#p5e8f00b28b)">
     <use xlink:href="#m4a00148655" x="362.59978" y="276.309549" style="fill: #ffffff; stroke: #ffffff; stroke-width: 1.125"/>
    </g>
   </g>
   <g id="line2d_25">
    <path d="M 428.855809 281.631789 
L 428.855809 269.922861 
" clip-path="url(#p5e8f00b28b)" style="fill: none; stroke: #757575; stroke-width: 1.875; stroke-linecap: square"/>
   </g>
   <g id="line2d_26">
    <path d="M 428.855809 279.769005 
L 428.855809 275.644269 
" clip-path="url(#p5e8f00b28b)" style="fill: none; stroke: #757575; stroke-width: 5.625; stroke-linecap: square"/>
   </g>
   <g id="line2d_27">
    <path d="M 428.855809 277.906221 
" clip-path="url(#p5e8f00b28b)" style="fill: none; stroke: #757575; stroke-width: 1.5; stroke-linecap: square"/>
    <g clip-path="url(#p5e8f00b28b)">
     <use xlink:href="#m4a00148655" x="428.855809" y="277.906221" style="fill: #ffffff; stroke: #ffffff; stroke-width: 1.125"/>
    </g>
   </g>
   <g id="patch_27">
    <path d="M 117.78375 282.430125 
L 117.78375 16.318125 
" style="fill: none; stroke: #000000; stroke-width: 0.8; stroke-linejoin: miter; stroke-linecap: square"/>
   </g>
   <g id="patch_28">
    <path d="M 474.90375 282.430125 
L 474.90375 16.318125 
" style="fill: none; stroke: #000000; stroke-width: 0.8; stroke-linejoin: miter; stroke-linecap: square"/>
   </g>
   <g id="patch_29">
    <path d="M 117.78375 282.430125 
L 474.90375 282.430125 
" style="fill: none; stroke: #000000; stroke-width: 0.8; stroke-linejoin: miter; stroke-linecap: square"/>
   </g>
   <g id="patch_30">
    <path d="M 117.78375 16.318125 
L 474.90375 16.318125 
" style="fill: none; stroke: #000000; stroke-width: 0.8; stroke-linejoin: miter; stroke-linecap: square"/>
   </g>
  </g>
 </g>
 <defs>
  <clipPath id="p5e8f00b28b">
   <rect x="117.78375" y="16.318125" width="357.12" height="266.112"/>
  </clipPath>
 </defs>
</svg>
