<?xml version="1.0" encoding="utf-8" standalone="no"?>
<!DOCTYPE svg PUBLIC "-//W3C//DTD SVG 1.1//EN"
  "http://www.w3.org/Graphics/SVG/1.1/DTD/svg11.dtd">
<svg xmlns:xlink="http://www.w3.org/1999/xlink" width="681.22125pt" height="365.8525pt" viewBox="0 0 681.22125 365.8525" xmlns="http://www.w3.org/2000/svg" version="1.1">
 <metadata>
  <rdf:RDF xmlns:dc="http://purl.org/dc/elements/1.1/" xmlns:cc="http://creativecommons.org/ns#" xmlns:rdf="http://www.w3.org/1999/02/22-rdf-syntax-ns#">
   <cc:Work>
    <dc:type rdf:resource="http://purl.org/dc/dcmitype/StillImage"/>
    <dc:date>2024-07-03T22:07:37.358878</dc:date>
    <dc:format>image/svg+xml</dc:format>
    <dc:creator>
     <cc:Agent>
      <dc:title>Matplotlib v3.8.1, https://matplotlib.org/</dc:title>
     </cc:Agent>
    </dc:creator>
   </cc:Work>
  </rdf:RDF>
 </metadata>
 <defs>
  <style type="text/css">*{stroke-linejoin: round; stroke-linecap: butt}</style>
 </defs>
 <g id="figure_1">
  <g id="patch_1">
   <path d="M 0 365.8525 
L 681.22125 365.8525 
L 681.22125 0 
L 0 0 
z
" style="fill: #ffffff"/>
  </g>
  <g id="axes_1">
   <g id="patch_2">
    <path d="M 150.333125 339.84 
L 540.933125 339.84 
L 540.933125 7.2 
L 150.333125 7.2 
z
" style="fill: #ffffff"/>
   </g>
   <g id="patch_3">
    <path d="M 153.123125 339.84 
L 203.343125 339.84 
L 203.343125 23.04 
L 153.123125 23.04 
z
" clip-path="url(#pba0b3ff203)" style="fill: #87ceeb"/>
   </g>
   <g id="patch_4">
    <path d="M 208.923125 339.84 
L 259.143125 339.84 
L 259.143125 23.04 
L 208.923125 23.04 
z
" clip-path="url(#pba0b3ff203)" style="fill: #87ceeb"/>
   </g>
   <g id="patch_5">
    <path d="M 264.723125 339.84 
L 314.943125 339.84 
L 314.943125 184.30841 
L 264.723125 184.30841 
z
" clip-path="url(#pba0b3ff203)" style="fill: #87ceeb"/>
   </g>
   <g id="patch_6">
    <path d="M 320.523125 339.84 
L 370.743125 339.84 
L 370.743125 339.84 
L 320.523125 339.84 
z
" clip-path="url(#pba0b3ff203)" style="fill: #87ceeb"/>
   </g>
   <g id="patch_7">
    <path d="M 376.323125 339.84 
L 426.543125 339.84 
L 426.543125 23.04 
L 376.323125 23.04 
z
" clip-path="url(#pba0b3ff203)" style="fill: #87ceeb"/>
   </g>
   <g id="patch_8">
    <path d="M 432.123125 339.84 
L 482.343125 339.84 
L 482.343125 23.04 
L 432.123125 23.04 
z
" clip-path="url(#pba0b3ff203)" style="fill: #87ceeb"/>
   </g>
   <g id="patch_9">
    <path d="M 487.923125 339.84 
L 538.143125 339.84 
L 538.143125 24.734118 
L 487.923125 24.734118 
z
" clip-path="url(#pba0b3ff203)" style="fill: #87ceeb"/>
   </g>
   <g id="matplotlib.axis_1"/>
   <g id="matplotlib.axis_2">
    <g id="ytick_1">
     <g id="line2d_1">
      <defs>
       <path id="m07633bc4d1" d="M 0 0 
L -3.5 0 
" style="stroke: #000000; stroke-width: 0.8"/>
      </defs>
      <g>
       <use xlink:href="#m07633bc4d1" x="150.333125" y="339.84" style="stroke: #000000; stroke-width: 0.8"/>
      </g>
     </g>
     <g id="text_1">
      <!-- 0% -->
      <g transform="translate(92.568125 351.9975) scale(0.32 -0.32)">
       <defs>
        <path id="DejaVuSans-30" d="M 2034 4250 
Q 1547 4250 1301 3770 
Q 1056 3291 1056 2328 
Q 1056 1369 1301 889 
Q 1547 409 2034 409 
Q 2525 409 2770 889 
Q 3016 1369 3016 2328 
Q 3016 3291 2770 3770 
Q 2525 4250 2034 4250 
z
M 2034 4750 
Q 2819 4750 3233 4129 
Q 3647 3509 3647 2328 
Q 3647 1150 3233 529 
Q 2819 -91 2034 -91 
Q 1250 -91 836 529 
Q 422 1150 422 2328 
Q 422 3509 836 4129 
Q 1250 4750 2034 4750 
z
" transform="scale(0.015625)"/>
        <path id="DejaVuSans-25" d="M 4653 2053 
Q 4381 2053 4226 1822 
Q 4072 1591 4072 1178 
Q 4072 772 4226 539 
Q 4381 306 4653 306 
Q 4919 306 5073 539 
Q 5228 772 5228 1178 
Q 5228 1588 5073 1820 
Q 4919 2053 4653 2053 
z
M 4653 2450 
Q 5147 2450 5437 2106 
Q 5728 1763 5728 1178 
Q 5728 594 5436 251 
Q 5144 -91 4653 -91 
Q 4153 -91 3862 251 
Q 3572 594 3572 1178 
Q 3572 1766 3864 2108 
Q 4156 2450 4653 2450 
z
M 1428 4353 
Q 1159 4353 1004 4120 
Q 850 3888 850 3481 
Q 850 3069 1003 2837 
Q 1156 2606 1428 2606 
Q 1700 2606 1854 2837 
Q 2009 3069 2009 3481 
Q 2009 3884 1853 4118 
Q 1697 4353 1428 4353 
z
M 4250 4750 
L 4750 4750 
L 1831 -91 
L 1331 -91 
L 4250 4750 
z
M 1428 4750 
Q 1922 4750 2215 4408 
Q 2509 4066 2509 3481 
Q 2509 2891 2217 2550 
Q 1925 2209 1428 2209 
Q 931 2209 642 2551 
Q 353 2894 353 3481 
Q 353 4063 643 4406 
Q 934 4750 1428 4750 
z
" transform="scale(0.015625)"/>
       </defs>
       <use xlink:href="#DejaVuSans-30"/>
       <use xlink:href="#DejaVuSans-25" x="63.623047"/>
      </g>
     </g>
    </g>
    <g id="ytick_2">
     <g id="line2d_2">
      <g>
       <use xlink:href="#m07633bc4d1" x="150.333125" y="181.44" style="stroke: #000000; stroke-width: 0.8"/>
      </g>
     </g>
     <g id="text_2">
      <!-- 50% -->
      <g transform="translate(72.208125 193.5975) scale(0.32 -0.32)">
       <defs>
        <path id="DejaVuSans-35" d="M 691 4666 
L 3169 4666 
L 3169 4134 
L 1269 4134 
L 1269 2991 
Q 1406 3038 1543 3061 
Q 1681 3084 1819 3084 
Q 2600 3084 3056 2656 
Q 3513 2228 3513 1497 
Q 3513 744 3044 326 
Q 2575 -91 1722 -91 
Q 1428 -91 1123 -41 
Q 819 9 494 109 
L 494 744 
Q 775 591 1075 516 
Q 1375 441 1709 441 
Q 2250 441 2565 725 
Q 2881 1009 2881 1497 
Q 2881 1984 2565 2268 
Q 2250 2553 1709 2553 
Q 1456 2553 1204 2497 
Q 953 2441 691 2322 
L 691 4666 
z
" transform="scale(0.015625)"/>
       </defs>
       <use xlink:href="#DejaVuSans-35"/>
       <use xlink:href="#DejaVuSans-30" x="63.623047"/>
       <use xlink:href="#DejaVuSans-25" x="127.246094"/>
      </g>
     </g>
    </g>
    <g id="ytick_3">
     <g id="line2d_3">
      <g>
       <use xlink:href="#m07633bc4d1" x="150.333125" y="23.04" style="stroke: #000000; stroke-width: 0.8"/>
      </g>
     </g>
     <g id="text_3">
      <!-- 100% -->
      <g transform="translate(51.848125 35.1975) scale(0.32 -0.32)">
       <defs>
        <path id="DejaVuSans-31" d="M 794 531 
L 1825 531 
L 1825 4091 
L 703 3866 
L 703 4441 
L 1819 4666 
L 2450 4666 
L 2450 531 
L 3481 531 
L 3481 0 
L 794 0 
L 794 531 
z
" transform="scale(0.015625)"/>
       </defs>
       <use xlink:href="#DejaVuSans-31"/>
       <use xlink:href="#DejaVuSans-30" x="63.623047"/>
       <use xlink:href="#DejaVuSans-30" x="127.246094"/>
       <use xlink:href="#DejaVuSans-25" x="190.869141"/>
      </g>
     </g>
    </g>
    <g id="text_4">
     <!-- Percent of MSAs -->
     <g style="fill: #87ceeb" transform="translate(39.113437 343.2525) rotate(-90) scale(0.42 -0.42)">
      <defs>
       <path id="DejaVuSans-50" d="M 1259 4147 
L 1259 2394 
L 2053 2394 
Q 2494 2394 2734 2622 
Q 2975 2850 2975 3272 
Q 2975 3691 2734 3919 
Q 2494 4147 2053 4147 
L 1259 4147 
z
M 628 4666 
L 2053 4666 
Q 2838 4666 3239 4311 
Q 3641 3956 3641 3272 
Q 3641 2581 3239 2228 
Q 2838 1875 2053 1875 
L 1259 1875 
L 1259 0 
L 628 0 
L 628 4666 
z
" transform="scale(0.015625)"/>
       <path id="DejaVuSans-65" d="M 3597 1894 
L 3597 1613 
L 953 1613 
Q 991 1019 1311 708 
Q 1631 397 2203 397 
Q 2534 397 2845 478 
Q 3156 559 3463 722 
L 3463 178 
Q 3153 47 2828 -22 
Q 2503 -91 2169 -91 
Q 1331 -91 842 396 
Q 353 884 353 1716 
Q 353 2575 817 3079 
Q 1281 3584 2069 3584 
Q 2775 3584 3186 3129 
Q 3597 2675 3597 1894 
z
M 3022 2063 
Q 3016 2534 2758 2815 
Q 2500 3097 2075 3097 
Q 1594 3097 1305 2825 
Q 1016 2553 972 2059 
L 3022 2063 
z
" transform="scale(0.015625)"/>
       <path id="DejaVuSans-72" d="M 2631 2963 
Q 2534 3019 2420 3045 
Q 2306 3072 2169 3072 
Q 1681 3072 1420 2755 
Q 1159 2438 1159 1844 
L 1159 0 
L 581 0 
L 581 3500 
L 1159 3500 
L 1159 2956 
Q 1341 3275 1631 3429 
Q 1922 3584 2338 3584 
Q 2397 3584 2469 3576 
Q 2541 3569 2628 3553 
L 2631 2963 
z
" transform="scale(0.015625)"/>
       <path id="DejaVuSans-63" d="M 3122 3366 
L 3122 2828 
Q 2878 2963 2633 3030 
Q 2388 3097 2138 3097 
Q 1578 3097 1268 2742 
Q 959 2388 959 1747 
Q 959 1106 1268 751 
Q 1578 397 2138 397 
Q 2388 397 2633 464 
Q 2878 531 3122 666 
L 3122 134 
Q 2881 22 2623 -34 
Q 2366 -91 2075 -91 
Q 1284 -91 818 406 
Q 353 903 353 1747 
Q 353 2603 823 3093 
Q 1294 3584 2113 3584 
Q 2378 3584 2631 3529 
Q 2884 3475 3122 3366 
z
" transform="scale(0.015625)"/>
       <path id="DejaVuSans-6e" d="M 3513 2113 
L 3513 0 
L 2938 0 
L 2938 2094 
Q 2938 2591 2744 2837 
Q 2550 3084 2163 3084 
Q 1697 3084 1428 2787 
Q 1159 2491 1159 1978 
L 1159 0 
L 581 0 
L 581 3500 
L 1159 3500 
L 1159 2956 
Q 1366 3272 1645 3428 
Q 1925 3584 2291 3584 
Q 2894 3584 3203 3211 
Q 3513 2838 3513 2113 
z
" transform="scale(0.015625)"/>
       <path id="DejaVuSans-74" d="M 1172 4494 
L 1172 3500 
L 2356 3500 
L 2356 3053 
L 1172 3053 
L 1172 1153 
Q 1172 725 1289 603 
Q 1406 481 1766 481 
L 2356 481 
L 2356 0 
L 1766 0 
Q 1100 0 847 248 
Q 594 497 594 1153 
L 594 3053 
L 172 3053 
L 172 3500 
L 594 3500 
L 594 4494 
L 1172 4494 
z
" transform="scale(0.015625)"/>
       <path id="DejaVuSans-20" transform="scale(0.015625)"/>
       <path id="DejaVuSans-6f" d="M 1959 3097 
Q 1497 3097 1228 2736 
Q 959 2375 959 1747 
Q 959 1119 1226 758 
Q 1494 397 1959 397 
Q 2419 397 2687 759 
Q 2956 1122 2956 1747 
Q 2956 2369 2687 2733 
Q 2419 3097 1959 3097 
z
M 1959 3584 
Q 2709 3584 3137 3096 
Q 3566 2609 3566 1747 
Q 3566 888 3137 398 
Q 2709 -91 1959 -91 
Q 1206 -91 779 398 
Q 353 888 353 1747 
Q 353 2609 779 3096 
Q 1206 3584 1959 3584 
z
" transform="scale(0.015625)"/>
       <path id="DejaVuSans-66" d="M 2375 4863 
L 2375 4384 
L 1825 4384 
Q 1516 4384 1395 4259 
Q 1275 4134 1275 3809 
L 1275 3500 
L 2222 3500 
L 2222 3053 
L 1275 3053 
L 1275 0 
L 697 0 
L 697 3053 
L 147 3053 
L 147 3500 
L 697 3500 
L 697 3744 
Q 697 4328 969 4595 
Q 1241 4863 1831 4863 
L 2375 4863 
z
" transform="scale(0.015625)"/>
       <path id="DejaVuSans-4d" d="M 628 4666 
L 1569 4666 
L 2759 1491 
L 3956 4666 
L 4897 4666 
L 4897 0 
L 4281 0 
L 4281 4097 
L 3078 897 
L 2444 897 
L 1241 4097 
L 1241 0 
L 628 0 
L 628 4666 
z
" transform="scale(0.015625)"/>
       <path id="DejaVuSans-53" d="M 3425 4513 
L 3425 3897 
Q 3066 4069 2747 4153 
Q 2428 4238 2131 4238 
Q 1616 4238 1336 4038 
Q 1056 3838 1056 3469 
Q 1056 3159 1242 3001 
Q 1428 2844 1947 2747 
L 2328 2669 
Q 3034 2534 3370 2195 
Q 3706 1856 3706 1288 
Q 3706 609 3251 259 
Q 2797 -91 1919 -91 
Q 1588 -91 1214 -16 
Q 841 59 441 206 
L 441 856 
Q 825 641 1194 531 
Q 1563 422 1919 422 
Q 2459 422 2753 634 
Q 3047 847 3047 1241 
Q 3047 1584 2836 1778 
Q 2625 1972 2144 2069 
L 1759 2144 
Q 1053 2284 737 2584 
Q 422 2884 422 3419 
Q 422 4038 858 4394 
Q 1294 4750 2059 4750 
Q 2388 4750 2728 4690 
Q 3069 4631 3425 4513 
z
" transform="scale(0.015625)"/>
       <path id="DejaVuSans-41" d="M 2188 4044 
L 1331 1722 
L 3047 1722 
L 2188 4044 
z
M 1831 4666 
L 2547 4666 
L 4325 0 
L 3669 0 
L 3244 1197 
L 1141 1197 
L 716 0 
L 50 0 
L 1831 4666 
z
" transform="scale(0.015625)"/>
       <path id="DejaVuSans-73" d="M 2834 3397 
L 2834 2853 
Q 2591 2978 2328 3040 
Q 2066 3103 1784 3103 
Q 1356 3103 1142 2972 
Q 928 2841 928 2578 
Q 928 2378 1081 2264 
Q 1234 2150 1697 2047 
L 1894 2003 
Q 2506 1872 2764 1633 
Q 3022 1394 3022 966 
Q 3022 478 2636 193 
Q 2250 -91 1575 -91 
Q 1294 -91 989 -36 
Q 684 19 347 128 
L 347 722 
Q 666 556 975 473 
Q 1284 391 1588 391 
Q 1994 391 2212 530 
Q 2431 669 2431 922 
Q 2431 1156 2273 1281 
Q 2116 1406 1581 1522 
L 1381 1569 
Q 847 1681 609 1914 
Q 372 2147 372 2553 
Q 372 3047 722 3315 
Q 1072 3584 1716 3584 
Q 2034 3584 2315 3537 
Q 2597 3491 2834 3397 
z
" transform="scale(0.015625)"/>
      </defs>
      <use xlink:href="#DejaVuSans-50"/>
      <use xlink:href="#DejaVuSans-65" x="56.677734"/>
      <use xlink:href="#DejaVuSans-72" x="118.201172"/>
      <use xlink:href="#DejaVuSans-63" x="157.064453"/>
      <use xlink:href="#DejaVuSans-65" x="212.044922"/>
      <use xlink:href="#DejaVuSans-6e" x="273.568359"/>
      <use xlink:href="#DejaVuSans-74" x="336.947266"/>
      <use xlink:href="#DejaVuSans-20" x="376.15625"/>
      <use xlink:href="#DejaVuSans-6f" x="407.943359"/>
      <use xlink:href="#DejaVuSans-66" x="469.125"/>
      <use xlink:href="#DejaVuSans-20" x="504.330078"/>
      <use xlink:href="#DejaVuSans-4d" x="536.117188"/>
      <use xlink:href="#DejaVuSans-53" x="622.396484"/>
      <use xlink:href="#DejaVuSans-41" x="687.748047"/>
      <use xlink:href="#DejaVuSans-73" x="756.15625"/>
     </g>
    </g>
   </g>
   <g id="patch_10">
    <path d="M 150.333125 339.84 
L 150.333125 7.2 
" style="fill: none; stroke: #000000; stroke-width: 0.8; stroke-linejoin: miter; stroke-linecap: square"/>
   </g>
   <g id="patch_11">
    <path d="M 540.933125 339.84 
L 540.933125 7.2 
" style="fill: none; stroke: #000000; stroke-width: 0.8; stroke-linejoin: miter; stroke-linecap: square"/>
   </g>
   <g id="patch_12">
    <path d="M 150.333125 339.84 
L 540.933125 339.84 
" style="fill: none; stroke: #000000; stroke-width: 0.8; stroke-linejoin: miter; stroke-linecap: square"/>
   </g>
   <g id="patch_13">
    <path d="M 150.333125 7.2 
L 540.933125 7.2 
" style="fill: none; stroke: #000000; stroke-width: 0.8; stroke-linejoin: miter; stroke-linecap: square"/>
   </g>
  </g>
  <g id="axes_2">
   <g id="PolyCollection_1">
    <defs>
     <path id="me9dcb61051" d="M 178.338629 -99.370194 
L 178.127621 -99.370194 
L 178.120038 -101.829207 
L 178.118993 -104.288221 
L 178.123416 -106.747234 
L 178.131024 -109.206247 
L 178.138872 -111.66526 
L 178.143891 -114.124273 
L 178.143499 -116.583287 
L 178.136404 -119.0423 
L 178.123415 -121.501313 
L 178.107755 -123.960326 
L 178.094321 -126.419339 
L 178.087927 -128.878352 
L 178.091261 -131.337366 
L 178.103686 -133.796379 
L 178.121612 -136.255392 
L 178.140232 -138.714405 
L 178.155668 -141.173418 
L 178.166365 -143.632432 
L 178.173175 -146.091445 
L 178.178313 -148.550458 
L 178.183943 -151.009471 
L 178.191158 -153.468484 
L 178.199752 -155.927498 
L 178.208668 -158.386511 
L 178.216702 -160.845524 
L 178.223049 -163.304537 
L 178.227484 -165.76355 
L 178.230245 -168.222564 
L 178.231785 -170.681577 
L 178.232557 -173.14059 
L 178.232905 -175.599603 
L 178.233048 -178.058616 
L 178.2331 -180.517629 
L 178.233117 -182.976643 
L 178.233121 -185.435656 
L 178.233118 -187.894669 
L 178.233103 -190.353682 
L 178.233055 -192.812695 
L 178.232919 -195.271709 
L 178.23257 -197.730722 
L 178.231758 -200.189735 
L 178.230035 -202.648748 
L 178.226716 -205.107761 
L 178.220907 -207.566775 
L 178.211684 -210.025788 
L 178.198432 -212.484801 
L 178.181274 -214.943814 
L 178.161418 -217.402827 
L 178.141211 -219.86184 
L 178.123774 -222.320854 
L 178.11225 -224.779867 
L 178.108915 -227.23888 
L 178.114472 -229.697893 
L 178.127817 -232.156906 
L 178.146376 -234.61592 
L 178.166892 -237.074933 
L 178.186329 -239.533946 
L 178.202577 -241.992959 
L 178.214717 -244.451972 
L 178.222857 -246.910986 
L 178.227705 -249.369999 
L 178.230103 -251.829012 
L 178.230686 -254.288025 
L 178.229721 -256.747038 
L 178.227123 -259.206052 
L 178.222621 -261.665065 
L 178.216031 -264.124078 
L 178.207527 -266.583091 
L 178.197785 -269.042104 
L 178.187837 -271.501117 
L 178.178655 -273.960131 
L 178.170677 -276.419144 
L 178.163625 -278.878157 
L 178.15681 -281.33717 
L 178.149829 -283.796183 
L 178.143162 -286.255197 
L 178.138236 -288.71421 
L 178.136783 -291.173223 
L 178.139851 -293.632236 
L 178.147057 -296.091249 
L 178.156558 -298.550263 
L 178.165794 -301.009276 
L 178.172553 -303.468289 
L 178.175695 -305.927302 
L 178.174831 -308.386315 
L 178.168365 -310.845329 
L 178.149163 -313.304342 
L 178.096627 -315.763355 
L 177.963849 -318.222368 
L 177.660343 -320.681381 
L 177.036658 -323.140394 
L 175.886355 -325.599408 
L 173.987259 -328.058421 
L 171.195724 -330.517434 
L 167.576734 -332.976447 
L 163.508809 -335.43546 
L 159.679227 -337.894474 
L 156.918437 -340.353487 
L 155.913125 -342.8125 
L 200.553125 -342.8125 
L 200.553125 -342.8125 
L 199.547813 -340.353487 
L 196.787023 -337.894474 
L 192.957441 -335.43546 
L 188.889516 -332.976447 
L 185.270526 -330.517434 
L 182.478991 -328.058421 
L 180.579895 -325.599408 
L 179.429592 -323.140394 
L 178.805907 -320.681381 
L 178.502401 -318.222368 
L 178.369623 -315.763355 
L 178.317087 -313.304342 
L 178.297885 -310.845329 
L 178.291419 -308.386315 
L 178.290555 -305.927302 
L 178.293697 -303.468289 
L 178.300456 -301.009276 
L 178.309692 -298.550263 
L 178.319193 -296.091249 
L 178.326399 -293.632236 
L 178.329467 -291.173223 
L 178.328014 -288.71421 
L 178.323088 -286.255197 
L 178.316421 -283.796183 
L 178.30944 -281.33717 
L 178.302625 -278.878157 
L 178.295573 -276.419144 
L 178.287595 -273.960131 
L 178.278413 -271.501117 
L 178.268465 -269.042104 
L 178.258723 -266.583091 
L 178.250219 -264.124078 
L 178.243629 -261.665065 
L 178.239127 -259.206052 
L 178.236529 -256.747038 
L 178.235564 -254.288025 
L 178.236147 -251.829012 
L 178.238545 -249.369999 
L 178.243393 -246.910986 
L 178.251533 -244.451972 
L 178.263673 -241.992959 
L 178.279921 -239.533946 
L 178.299358 -237.074933 
L 178.319874 -234.61592 
L 178.338433 -232.156906 
L 178.351778 -229.697893 
L 178.357335 -227.23888 
L 178.354 -224.779867 
L 178.342476 -222.320854 
L 178.325039 -219.86184 
L 178.304832 -217.402827 
L 178.284976 -214.943814 
L 178.267818 -212.484801 
L 178.254566 -210.025788 
L 178.245343 -207.566775 
L 178.239534 -205.107761 
L 178.236215 -202.648748 
L 178.234492 -200.189735 
L 178.23368 -197.730722 
L 178.233331 -195.271709 
L 178.233195 -192.812695 
L 178.233147 -190.353682 
L 178.233132 -187.894669 
L 178.233129 -185.435656 
L 178.233133 -182.976643 
L 178.23315 -180.517629 
L 178.233202 -178.058616 
L 178.233345 -175.599603 
L 178.233693 -173.14059 
L 178.234465 -170.681577 
L 178.236005 -168.222564 
L 178.238766 -165.76355 
L 178.243201 -163.304537 
L 178.249548 -160.845524 
L 178.257582 -158.386511 
L 178.266498 -155.927498 
L 178.275092 -153.468484 
L 178.282307 -151.009471 
L 178.287937 -148.550458 
L 178.293075 -146.091445 
L 178.299885 -143.632432 
L 178.310582 -141.173418 
L 178.326018 -138.714405 
L 178.344638 -136.255392 
L 178.362564 -133.796379 
L 178.374989 -131.337366 
L 178.378323 -128.878352 
L 178.371929 -126.419339 
L 178.358495 -123.960326 
L 178.342835 -121.501313 
L 178.329846 -119.0423 
L 178.322751 -116.583287 
L 178.322359 -114.124273 
L 178.327378 -111.66526 
L 178.335226 -109.206247 
L 178.342834 -106.747234 
L 178.347257 -104.288221 
L 178.346212 -101.829207 
L 178.338629 -99.370194 
z
" style="stroke: #4c4c4c; stroke-width: 1.25"/>
    </defs>
    <g clip-path="url(#pba0b3ff203)">
     <use xlink:href="#me9dcb61051" x="0" y="365.8525" style="fill: #df9c20; stroke: #4c4c4c; stroke-width: 1.25"/>
    </g>
   </g>
   <g id="PolyCollection_2">
    <defs>
     <path id="mc230dfc7d1" d="M 235.378697 -26.167263 
L 232.687553 -26.167263 
L 232.641362 -29.3657 
L 232.600901 -32.564137 
L 232.566609 -35.762573 
L 232.538818 -38.96101 
L 232.517751 -42.159447 
L 232.503516 -45.357883 
L 232.496107 -48.55632 
L 232.495405 -51.754757 
L 232.501189 -54.953194 
L 232.51314 -58.15163 
L 232.530857 -61.350067 
L 232.553867 -64.548504 
L 232.581643 -67.746941 
L 232.613618 -70.945377 
L 232.649198 -74.143814 
L 232.687783 -77.342251 
L 232.728776 -80.540688 
L 232.771599 -83.739124 
L 232.815701 -86.937561 
L 232.860572 -90.135998 
L 232.905745 -93.334435 
L 232.950805 -96.532871 
L 232.99539 -99.731308 
L 233.039192 -102.929745 
L 233.081959 -106.128181 
L 233.12349 -109.326618 
L 233.163631 -112.525055 
L 233.202273 -115.723492 
L 233.239346 -118.921928 
L 233.274815 -122.120365 
L 233.308669 -125.318802 
L 233.340923 -128.517239 
L 233.371609 -131.715675 
L 233.400768 -134.914112 
L 233.428452 -138.112549 
L 233.454718 -141.310986 
L 233.479624 -144.509422 
L 233.503224 -147.707859 
L 233.525575 -150.906296 
L 233.546728 -154.104733 
L 233.566728 -157.303169 
L 233.585619 -160.501606 
L 233.603437 -163.700043 
L 233.620217 -166.898479 
L 233.635989 -170.096916 
L 233.650776 -173.295353 
L 233.664603 -176.49379 
L 233.677486 -179.692226 
L 233.68944 -182.890663 
L 233.700475 -186.0891 
L 233.710597 -189.287537 
L 233.719803 -192.485973 
L 233.728086 -195.68441 
L 233.735428 -198.882847 
L 233.741803 -202.081284 
L 233.747169 -205.27972 
L 233.751472 -208.478157 
L 233.75464 -211.676594 
L 233.756581 -214.875031 
L 233.757184 -218.073467 
L 233.75631 -221.271904 
L 233.753796 -224.470341 
L 233.749451 -227.668777 
L 233.743053 -230.867214 
L 233.734351 -234.065651 
L 233.723064 -237.264088 
L 233.708883 -240.462524 
L 233.69147 -243.660961 
L 233.670469 -246.859398 
L 233.645505 -250.057835 
L 233.616196 -253.256271 
L 233.582163 -256.454708 
L 233.543039 -259.653145 
L 233.498485 -262.851582 
L 233.448205 -266.050018 
L 233.391965 -269.248455 
L 233.329606 -272.446892 
L 233.261068 -275.645329 
L 233.186405 -278.843765 
L 233.105803 -282.042202 
L 233.019594 -285.240639 
L 232.928266 -288.439075 
L 232.832474 -291.637512 
L 232.733043 -294.835949 
L 232.63096 -298.034386 
L 232.527373 -301.232822 
L 232.42357 -304.431259 
L 232.320959 -307.629696 
L 232.221044 -310.828133 
L 232.125387 -314.026569 
L 232.035574 -317.225006 
L 231.95317 -320.423443 
L 231.879681 -323.62188 
L 231.816506 -326.820316 
L 231.7649 -330.018753 
L 231.725928 -333.21719 
L 231.700439 -336.415627 
L 231.68903 -339.614063 
L 231.692034 -342.8125 
L 236.374216 -342.8125 
L 236.374216 -342.8125 
L 236.37722 -339.614063 
L 236.365811 -336.415627 
L 236.340322 -333.21719 
L 236.30135 -330.018753 
L 236.249744 -326.820316 
L 236.186569 -323.62188 
L 236.11308 -320.423443 
L 236.030676 -317.225006 
L 235.940863 -314.026569 
L 235.845206 -310.828133 
L 235.745291 -307.629696 
L 235.64268 -304.431259 
L 235.538877 -301.232822 
L 235.43529 -298.034386 
L 235.333207 -294.835949 
L 235.233776 -291.637512 
L 235.137984 -288.439075 
L 235.046656 -285.240639 
L 234.960447 -282.042202 
L 234.879845 -278.843765 
L 234.805182 -275.645329 
L 234.736644 -272.446892 
L 234.674285 -269.248455 
L 234.618045 -266.050018 
L 234.567765 -262.851582 
L 234.523211 -259.653145 
L 234.484087 -256.454708 
L 234.450054 -253.256271 
L 234.420745 -250.057835 
L 234.395781 -246.859398 
L 234.37478 -243.660961 
L 234.357367 -240.462524 
L 234.343186 -237.264088 
L 234.331899 -234.065651 
L 234.323197 -230.867214 
L 234.316799 -227.668777 
L 234.312454 -224.470341 
L 234.30994 -221.271904 
L 234.309066 -218.073467 
L 234.309669 -214.875031 
L 234.31161 -211.676594 
L 234.314778 -208.478157 
L 234.319081 -205.27972 
L 234.324447 -202.081284 
L 234.330822 -198.882847 
L 234.338164 -195.68441 
L 234.346447 -192.485973 
L 234.355653 -189.287537 
L 234.365775 -186.0891 
L 234.37681 -182.890663 
L 234.388764 -179.692226 
L 234.401647 -176.49379 
L 234.415474 -173.295353 
L 234.430261 -170.096916 
L 234.446033 -166.898479 
L 234.462813 -163.700043 
L 234.480631 -160.501606 
L 234.499522 -157.303169 
L 234.519522 -154.104733 
L 234.540675 -150.906296 
L 234.563026 -147.707859 
L 234.586626 -144.509422 
L 234.611532 -141.310986 
L 234.637798 -138.112549 
L 234.665482 -134.914112 
L 234.694641 -131.715675 
L 234.725327 -128.517239 
L 234.757581 -125.318802 
L 234.791435 -122.120365 
L 234.826904 -118.921928 
L 234.863977 -115.723492 
L 234.902619 -112.525055 
L 234.94276 -109.326618 
L 234.984291 -106.128181 
L 235.027058 -102.929745 
L 235.07086 -99.731308 
L 235.115445 -96.532871 
L 235.160505 -93.334435 
L 235.205678 -90.135998 
L 235.250549 -86.937561 
L 235.294651 -83.739124 
L 235.337474 -80.540688 
L 235.378467 -77.342251 
L 235.417052 -74.143814 
L 235.452632 -70.945377 
L 235.484607 -67.746941 
L 235.512383 -64.548504 
L 235.535393 -61.350067 
L 235.55311 -58.15163 
L 235.565061 -54.953194 
L 235.570845 -51.754757 
L 235.570143 -48.55632 
L 235.562734 -45.357883 
L 235.548499 -42.159447 
L 235.527432 -38.96101 
L 235.499641 -35.762573 
L 235.465349 -32.564137 
L 235.424888 -29.3657 
L 235.378697 -26.167263 
z
" style="stroke: #4c4c4c; stroke-width: 1.25"/>
    </defs>
    <g clip-path="url(#pba0b3ff203)">
     <use xlink:href="#mc230dfc7d1" x="0" y="365.8525" style="fill: #df9c20; stroke: #4c4c4c; stroke-width: 1.25"/>
    </g>
   </g>
   <g id="PolyCollection_3">
    <defs>
     <path id="ma082351fa1" d="M 302.904394 -26.0125 
L 276.761856 -26.0125 
L 276.773816 -27.611718 
L 277.000681 -29.210937 
L 277.430302 -30.810155 
L 278.040871 -32.409373 
L 278.802722 -34.008592 
L 279.68067 -35.60781 
L 280.636654 -37.207029 
L 281.632395 -38.806247 
L 282.631826 -40.405465 
L 283.603074 -42.004684 
L 284.519886 -43.603902 
L 285.362424 -45.20312 
L 286.117448 -46.802339 
L 286.77799 -48.401557 
L 287.34262 -50.000776 
L 287.814444 -51.599994 
L 288.199996 -53.199212 
L 288.508118 -54.798431 
L 288.748941 -56.397649 
L 288.933022 -57.996867 
L 289.070666 -59.596086 
L 289.171446 -61.195304 
L 289.243894 -62.794522 
L 289.295346 -64.393741 
L 289.331903 -65.992959 
L 289.358476 -67.592178 
L 289.378886 -69.191396 
L 289.395994 -70.790614 
L 289.411842 -72.389833 
L 289.427796 -73.989051 
L 289.444675 -75.588269 
L 289.462874 -77.187488 
L 289.482462 -78.786706 
L 289.503275 -80.385925 
L 289.524986 -81.985143 
L 289.547167 -83.584361 
L 289.569337 -85.18358 
L 289.591 -86.782798 
L 289.611672 -88.382016 
L 289.630904 -89.981235 
L 289.648297 -91.580453 
L 289.663511 -93.179671 
L 289.676274 -94.77889 
L 289.686385 -96.378108 
L 289.693719 -97.977327 
L 289.698228 -99.576545 
L 289.699945 -101.175763 
L 289.698986 -102.774982 
L 289.695548 -104.3742 
L 289.689909 -105.973418 
L 289.682425 -107.572637 
L 289.673517 -109.171855 
L 289.663663 -110.771074 
L 289.653381 -112.370292 
L 289.643206 -113.96951 
L 289.633669 -115.568729 
L 289.625265 -117.167947 
L 289.618435 -118.767165 
L 289.613534 -120.366384 
L 289.610812 -121.965602 
L 289.610398 -123.56482 
L 289.612292 -125.164039 
L 289.616359 -126.763257 
L 289.622344 -128.362476 
L 289.629881 -129.961694 
L 289.638517 -131.560912 
L 289.647743 -133.160131 
L 289.657022 -134.759349 
L 289.66582 -136.358567 
L 289.673641 -137.957786 
L 289.680045 -139.557004 
L 289.684669 -141.156223 
L 289.687234 -142.755441 
L 289.687543 -144.354659 
L 289.685468 -145.953878 
L 289.680927 -147.553096 
L 289.673853 -149.152314 
L 289.664164 -150.751533 
L 289.651721 -152.350751 
L 289.636306 -153.949969 
L 289.617604 -155.549188 
L 289.595198 -157.148406 
L 289.568592 -158.747625 
L 289.537253 -160.346843 
L 289.500682 -161.946061 
L 289.458492 -163.54528 
L 289.410514 -165.144498 
L 289.356894 -166.743716 
L 289.298184 -168.342935 
L 289.235402 -169.942153 
L 289.170063 -171.541372 
L 289.104155 -173.14059 
L 289.040061 -174.739808 
L 288.980437 -176.339027 
L 288.928037 -177.938245 
L 288.885514 -179.537463 
L 288.855212 -181.136682 
L 288.838967 -182.7359 
L 288.837949 -184.335118 
L 290.828301 -184.335118 
L 290.828301 -184.335118 
L 290.827283 -182.7359 
L 290.811038 -181.136682 
L 290.780736 -179.537463 
L 290.738213 -177.938245 
L 290.685813 -176.339027 
L 290.626189 -174.739808 
L 290.562095 -173.14059 
L 290.496187 -171.541372 
L 290.430848 -169.942153 
L 290.368066 -168.342935 
L 290.309356 -166.743716 
L 290.255736 -165.144498 
L 290.207758 -163.54528 
L 290.165568 -161.946061 
L 290.128997 -160.346843 
L 290.097658 -158.747625 
L 290.071052 -157.148406 
L 290.048646 -155.549188 
L 290.029944 -153.949969 
L 290.014529 -152.350751 
L 290.002086 -150.751533 
L 289.992397 -149.152314 
L 289.985323 -147.553096 
L 289.980782 -145.953878 
L 289.978707 -144.354659 
L 289.979016 -142.755441 
L 289.981581 -141.156223 
L 289.986205 -139.557004 
L 289.992609 -137.957786 
L 290.00043 -136.358567 
L 290.009228 -134.759349 
L 290.018507 -133.160131 
L 290.027733 -131.560912 
L 290.036369 -129.961694 
L 290.043906 -128.362476 
L 290.049891 -126.763257 
L 290.053958 -125.164039 
L 290.055852 -123.56482 
L 290.055438 -121.965602 
L 290.052716 -120.366384 
L 290.047815 -118.767165 
L 290.040985 -117.167947 
L 290.032581 -115.568729 
L 290.023044 -113.96951 
L 290.012869 -112.370292 
L 290.002587 -110.771074 
L 289.992733 -109.171855 
L 289.983825 -107.572637 
L 289.976341 -105.973418 
L 289.970702 -104.3742 
L 289.967264 -102.774982 
L 289.966305 -101.175763 
L 289.968022 -99.576545 
L 289.972531 -97.977327 
L 289.979865 -96.378108 
L 289.989976 -94.77889 
L 290.002739 -93.179671 
L 290.017953 -91.580453 
L 290.035346 -89.981235 
L 290.054578 -88.382016 
L 290.07525 -86.782798 
L 290.096913 -85.18358 
L 290.119083 -83.584361 
L 290.141264 -81.985143 
L 290.162975 -80.385925 
L 290.183788 -78.786706 
L 290.203376 -77.187488 
L 290.221575 -75.588269 
L 290.238454 -73.989051 
L 290.254408 -72.389833 
L 290.270256 -70.790614 
L 290.287364 -69.191396 
L 290.307774 -67.592178 
L 290.334347 -65.992959 
L 290.370904 -64.393741 
L 290.422356 -62.794522 
L 290.494804 -61.195304 
L 290.595584 -59.596086 
L 290.733228 -57.996867 
L 290.917309 -56.397649 
L 291.158132 -54.798431 
L 291.466254 -53.199212 
L 291.851806 -51.599994 
L 292.32363 -50.000776 
L 292.88826 -48.401557 
L 293.548802 -46.802339 
L 294.303826 -45.20312 
L 295.146364 -43.603902 
L 296.063176 -42.004684 
L 297.034424 -40.405465 
L 298.033855 -38.806247 
L 299.029596 -37.207029 
L 299.98558 -35.60781 
L 300.863528 -34.008592 
L 301.625379 -32.409373 
L 302.235948 -30.810155 
L 302.665569 -29.210937 
L 302.892434 -27.611718 
L 302.904394 -26.0125 
z
" style="stroke: #4c4c4c; stroke-width: 1.25"/>
    </defs>
    <g clip-path="url(#pba0b3ff203)">
     <use xlink:href="#ma082351fa1" x="0" y="365.8525" style="fill: #df9c20; stroke: #4c4c4c; stroke-width: 1.25"/>
    </g>
   </g>
   <g id="PolyCollection_4">
    <defs>
     <path id="m8f341516e2" d="M 402.320319 -27.250605 
L 400.545931 -27.250605 
L 400.46482 -30.438098 
L 400.379151 -33.625592 
L 400.288598 -36.813086 
L 400.19282 -40.00058 
L 400.09149 -43.188074 
L 399.984338 -46.375568 
L 399.871194 -49.563062 
L 399.752039 -52.750556 
L 399.627053 -55.93805 
L 399.496658 -59.125543 
L 399.36156 -62.313037 
L 399.222764 -65.500531 
L 399.081594 -68.688025 
L 398.939674 -71.875519 
L 398.798905 -75.063013 
L 398.661415 -78.250507 
L 398.529487 -81.438001 
L 398.405481 -84.625495 
L 398.291739 -87.812989 
L 398.19048 -91.000482 
L 398.103706 -94.187976 
L 398.033103 -97.37547 
L 397.979965 -100.562964 
L 397.945131 -103.750458 
L 397.928943 -106.937952 
L 397.931238 -110.125446 
L 397.951351 -113.31294 
L 397.988161 -116.500434 
L 398.040144 -119.687927 
L 398.105454 -122.875421 
L 398.182008 -126.062915 
L 398.267589 -129.250409 
L 398.359937 -132.437903 
L 398.456845 -135.625397 
L 398.556243 -138.812891 
L 398.65626 -142.000385 
L 398.75528 -145.187879 
L 398.851977 -148.375372 
L 398.945326 -151.562866 
L 399.034602 -154.75036 
L 399.119367 -157.937854 
L 399.199433 -161.125348 
L 399.274827 -164.312842 
L 399.345745 -167.500336 
L 399.412499 -170.68783 
L 399.475468 -173.875324 
L 399.535049 -177.062818 
L 399.591614 -180.250311 
L 399.645472 -183.437805 
L 399.696836 -186.625299 
L 399.745802 -189.812793 
L 399.792338 -193.000287 
L 399.83627 -196.187781 
L 399.877295 -199.375275 
L 399.91498 -202.562769 
L 399.948783 -205.750263 
L 399.978067 -208.937756 
L 400.002121 -212.12525 
L 400.020175 -215.312744 
L 400.031412 -218.500238 
L 400.034981 -221.687732 
L 400.029982 -224.875226 
L 400.01546 -228.06272 
L 399.99037 -231.250214 
L 399.953535 -234.437708 
L 399.903586 -237.625202 
L 399.838889 -240.812695 
L 399.757466 -244.000189 
L 399.656902 -247.187683 
L 399.53426 -250.375177 
L 399.386004 -253.562671 
L 399.207942 -256.750165 
L 398.995192 -259.937659 
L 398.742204 -263.125153 
L 398.442827 -266.312647 
L 398.090439 -269.50014 
L 397.678159 -272.687634 
L 397.199127 -275.875128 
L 396.646868 -279.062622 
L 396.015715 -282.250116 
L 395.301298 -285.43761 
L 394.50106 -288.625104 
L 393.614779 -291.812598 
L 392.645062 -295.000092 
L 391.597772 -298.187585 
L 390.482342 -301.375079 
L 389.311953 -304.562573 
L 388.10352 -307.750067 
L 386.877482 -310.937561 
L 385.657371 -314.125055 
L 384.469169 -317.312549 
L 383.340458 -320.500043 
L 382.299415 -323.687537 
L 381.373689 -326.875031 
L 380.589215 -330.062524 
L 379.969053 -333.250018 
L 379.532308 -336.437512 
L 379.293202 -339.625006 
L 379.260372 -342.8125 
L 423.605878 -342.8125 
L 423.605878 -342.8125 
L 423.573048 -339.625006 
L 423.333942 -336.437512 
L 422.897197 -333.250018 
L 422.277035 -330.062524 
L 421.492561 -326.875031 
L 420.566835 -323.687537 
L 419.525792 -320.500043 
L 418.397081 -317.312549 
L 417.208879 -314.125055 
L 415.988768 -310.937561 
L 414.76273 -307.750067 
L 413.554297 -304.562573 
L 412.383908 -301.375079 
L 411.268478 -298.187585 
L 410.221188 -295.000092 
L 409.251471 -291.812598 
L 408.36519 -288.625104 
L 407.564952 -285.43761 
L 406.850535 -282.250116 
L 406.219382 -279.062622 
L 405.667123 -275.875128 
L 405.188091 -272.687634 
L 404.775811 -269.50014 
L 404.423423 -266.312647 
L 404.124046 -263.125153 
L 403.871058 -259.937659 
L 403.658308 -256.750165 
L 403.480246 -253.562671 
L 403.33199 -250.375177 
L 403.209348 -247.187683 
L 403.108784 -244.000189 
L 403.027361 -240.812695 
L 402.962664 -237.625202 
L 402.912715 -234.437708 
L 402.87588 -231.250214 
L 402.85079 -228.06272 
L 402.836268 -224.875226 
L 402.831269 -221.687732 
L 402.834838 -218.500238 
L 402.846075 -215.312744 
L 402.864129 -212.12525 
L 402.888183 -208.937756 
L 402.917467 -205.750263 
L 402.95127 -202.562769 
L 402.988955 -199.375275 
L 403.02998 -196.187781 
L 403.073912 -193.000287 
L 403.120448 -189.812793 
L 403.169414 -186.625299 
L 403.220778 -183.437805 
L 403.274636 -180.250311 
L 403.331201 -177.062818 
L 403.390782 -173.875324 
L 403.453751 -170.68783 
L 403.520505 -167.500336 
L 403.591423 -164.312842 
L 403.666817 -161.125348 
L 403.746883 -157.937854 
L 403.831648 -154.75036 
L 403.920924 -151.562866 
L 404.014273 -148.375372 
L 404.11097 -145.187879 
L 404.20999 -142.000385 
L 404.310007 -138.812891 
L 404.409405 -135.625397 
L 404.506313 -132.437903 
L 404.598661 -129.250409 
L 404.684242 -126.062915 
L 404.760796 -122.875421 
L 404.826106 -119.687927 
L 404.878089 -116.500434 
L 404.914899 -113.31294 
L 404.935012 -110.125446 
L 404.937307 -106.937952 
L 404.921119 -103.750458 
L 404.886285 -100.562964 
L 404.833147 -97.37547 
L 404.762544 -94.187976 
L 404.67577 -91.000482 
L 404.574511 -87.812989 
L 404.460769 -84.625495 
L 404.336763 -81.438001 
L 404.204835 -78.250507 
L 404.067345 -75.063013 
L 403.926576 -71.875519 
L 403.784656 -68.688025 
L 403.643486 -65.500531 
L 403.50469 -62.313037 
L 403.369592 -59.125543 
L 403.239197 -55.93805 
L 403.114211 -52.750556 
L 402.995056 -49.563062 
L 402.881912 -46.375568 
L 402.77476 -43.188074 
L 402.67343 -40.00058 
L 402.577652 -36.813086 
L 402.487099 -33.625592 
L 402.40143 -30.438098 
L 402.320319 -27.250605 
z
" style="stroke: #4c4c4c; stroke-width: 1.25"/>
    </defs>
    <g clip-path="url(#pba0b3ff203)">
     <use xlink:href="#m8f341516e2" x="0" y="365.8525" style="fill: #df9c20; stroke: #4c4c4c; stroke-width: 1.25"/>
    </g>
   </g>
   <g id="PolyCollection_5">
    <defs>
     <path id="mfe23bceadb" d="M 457.895193 -31.58397 
L 456.571057 -31.58397 
L 456.481355 -34.727693 
L 456.381526 -37.871415 
L 456.270988 -41.015138 
L 456.149314 -44.158861 
L 456.01629 -47.302583 
L 455.871961 -50.446306 
L 455.716686 -53.590028 
L 455.55118 -56.733751 
L 455.37655 -59.877473 
L 455.194309 -63.021196 
L 455.00638 -66.164918 
L 454.815079 -69.308641 
L 454.623068 -72.452363 
L 454.433298 -75.596086 
L 454.248925 -78.739808 
L 454.073204 -81.883531 
L 453.909379 -85.027253 
L 453.760557 -88.170976 
L 453.629585 -91.314698 
L 453.51893 -94.458421 
L 453.430575 -97.602143 
L 453.365923 -100.745866 
L 453.325742 -103.889588 
L 453.310123 -107.033311 
L 453.318477 -110.177033 
L 453.349557 -113.320756 
L 453.401514 -116.464479 
L 453.471975 -119.608201 
L 453.558144 -122.751924 
L 453.656919 -125.895646 
L 453.765014 -129.039369 
L 453.879087 -132.183091 
L 453.99587 -135.326814 
L 454.112276 -138.470536 
L 454.225508 -141.614259 
L 454.33314 -144.757981 
L 454.433189 -147.901704 
L 454.524153 -151.045426 
L 454.605043 -154.189149 
L 454.675381 -157.332871 
L 454.73519 -160.476594 
L 454.784956 -163.620316 
L 454.82558 -166.764039 
L 454.858315 -169.907761 
L 454.884688 -173.051484 
L 454.906423 -176.195206 
L 454.925348 -179.338929 
L 454.943307 -182.482651 
L 454.962074 -185.626374 
L 454.983273 -188.770096 
L 455.008298 -191.913819 
L 455.038258 -195.057542 
L 455.073926 -198.201264 
L 455.115705 -201.344987 
L 455.163613 -204.488709 
L 455.217282 -207.632432 
L 455.275966 -210.776154 
L 455.338573 -213.919877 
L 455.403688 -217.063599 
L 455.469618 -220.207322 
L 455.534427 -223.351044 
L 455.595968 -226.494767 
L 455.65191 -229.638489 
L 455.69975 -232.782212 
L 455.736816 -235.925934 
L 455.760244 -239.069657 
L 455.766952 -242.213379 
L 455.753591 -245.357102 
L 455.716491 -248.500824 
L 455.6516 -251.644547 
L 455.554434 -254.788269 
L 455.420029 -257.931992 
L 455.242933 -261.075714 
L 455.017226 -264.219437 
L 454.736586 -267.36316 
L 454.394427 -270.506882 
L 453.98409 -273.650605 
L 453.499116 -276.794327 
L 452.933589 -279.93805 
L 452.282536 -283.081772 
L 451.542392 -286.225495 
L 450.711483 -289.369217 
L 449.790523 -292.51294 
L 448.783071 -295.656662 
L 447.695928 -298.800385 
L 446.539428 -301.944107 
L 445.32758 -305.08783 
L 444.078043 -308.231552 
L 442.811893 -311.375275 
L 441.55319 -314.518997 
L 440.328319 -317.66272 
L 439.16516 -320.806442 
L 438.09208 -323.950165 
L 437.136828 -327.093887 
L 436.325367 -330.23761 
L 435.680734 -333.381332 
L 435.221978 -336.525055 
L 434.963253 -339.668777 
L 434.913125 -342.8125 
L 479.553125 -342.8125 
L 479.553125 -342.8125 
L 479.502997 -339.668777 
L 479.244272 -336.525055 
L 478.785516 -333.381332 
L 478.140883 -330.23761 
L 477.329422 -327.093887 
L 476.37417 -323.950165 
L 475.30109 -320.806442 
L 474.137931 -317.66272 
L 472.91306 -314.518997 
L 471.654357 -311.375275 
L 470.388207 -308.231552 
L 469.13867 -305.08783 
L 467.926822 -301.944107 
L 466.770322 -298.800385 
L 465.683179 -295.656662 
L 464.675727 -292.51294 
L 463.754767 -289.369217 
L 462.923858 -286.225495 
L 462.183714 -283.081772 
L 461.532661 -279.93805 
L 460.967134 -276.794327 
L 460.48216 -273.650605 
L 460.071823 -270.506882 
L 459.729664 -267.36316 
L 459.449024 -264.219437 
L 459.223317 -261.075714 
L 459.046221 -257.931992 
L 458.911816 -254.788269 
L 458.81465 -251.644547 
L 458.749759 -248.500824 
L 458.712659 -245.357102 
L 458.699298 -242.213379 
L 458.706006 -239.069657 
L 458.729434 -235.925934 
L 458.7665 -232.782212 
L 458.81434 -229.638489 
L 458.870282 -226.494767 
L 458.931823 -223.351044 
L 458.996632 -220.207322 
L 459.062562 -217.063599 
L 459.127677 -213.919877 
L 459.190284 -210.776154 
L 459.248968 -207.632432 
L 459.302637 -204.488709 
L 459.350545 -201.344987 
L 459.392324 -198.201264 
L 459.427992 -195.057542 
L 459.457952 -191.913819 
L 459.482977 -188.770096 
L 459.504176 -185.626374 
L 459.522943 -182.482651 
L 459.540902 -179.338929 
L 459.559827 -176.195206 
L 459.581562 -173.051484 
L 459.607935 -169.907761 
L 459.64067 -166.764039 
L 459.681294 -163.620316 
L 459.73106 -160.476594 
L 459.790869 -157.332871 
L 459.861207 -154.189149 
L 459.942097 -151.045426 
L 460.033061 -147.901704 
L 460.13311 -144.757981 
L 460.240742 -141.614259 
L 460.353974 -138.470536 
L 460.47038 -135.326814 
L 460.587163 -132.183091 
L 460.701236 -129.039369 
L 460.809331 -125.895646 
L 460.908106 -122.751924 
L 460.994275 -119.608201 
L 461.064736 -116.464479 
L 461.116693 -113.320756 
L 461.147773 -110.177033 
L 461.156127 -107.033311 
L 461.140508 -103.889588 
L 461.100327 -100.745866 
L 461.035675 -97.602143 
L 460.94732 -94.458421 
L 460.836665 -91.314698 
L 460.705693 -88.170976 
L 460.556871 -85.027253 
L 460.393046 -81.883531 
L 460.217325 -78.739808 
L 460.032952 -75.596086 
L 459.843182 -72.452363 
L 459.651171 -69.308641 
L 459.45987 -66.164918 
L 459.271941 -63.021196 
L 459.0897 -59.877473 
L 458.91507 -56.733751 
L 458.749564 -53.590028 
L 458.594289 -50.446306 
L 458.44996 -47.302583 
L 458.316936 -44.158861 
L 458.195262 -41.015138 
L 458.084724 -37.871415 
L 457.984895 -34.727693 
L 457.895193 -31.58397 
z
" style="stroke: #4c4c4c; stroke-width: 1.25"/>
    </defs>
    <g clip-path="url(#pba0b3ff203)">
     <use xlink:href="#mfe23bceadb" x="0" y="365.8525" style="fill: #df9c20; stroke: #4c4c4c; stroke-width: 1.25"/>
    </g>
   </g>
   <g id="PolyCollection_6">
    <defs>
     <path id="mee37b6bc55" d="M 516.038014 -26.0125 
L 510.028236 -26.0125 
L 509.837482 -29.2125 
L 509.652067 -32.4125 
L 509.473224 -35.6125 
L 509.301964 -38.8125 
L 509.139068 -42.0125 
L 508.985091 -45.2125 
L 508.840375 -48.4125 
L 508.705079 -51.6125 
L 508.579203 -54.8125 
L 508.462629 -58.0125 
L 508.355144 -61.2125 
L 508.256467 -64.4125 
L 508.166256 -67.6125 
L 508.084108 -70.8125 
L 508.009535 -74.0125 
L 507.941926 -77.2125 
L 507.880499 -80.4125 
L 507.82423 -83.6125 
L 507.771782 -86.8125 
L 507.721437 -90.0125 
L 507.671025 -93.2125 
L 507.617877 -96.4125 
L 507.558799 -99.6125 
L 507.490082 -102.8125 
L 507.407544 -106.0125 
L 507.306622 -109.2125 
L 507.182506 -112.4125 
L 507.030324 -115.6125 
L 506.845361 -118.8125 
L 506.623317 -122.0125 
L 506.36059 -125.2125 
L 506.054565 -128.4125 
L 505.703895 -131.6125 
L 505.308768 -134.8125 
L 504.871119 -138.0125 
L 504.394789 -141.2125 
L 503.885606 -144.4125 
L 503.351372 -147.6125 
L 502.801757 -150.8125 
L 502.248091 -154.0125 
L 501.703049 -157.2125 
L 501.180255 -160.4125 
L 500.693807 -163.6125 
L 500.25775 -166.8125 
L 499.88552 -170.0125 
L 499.589392 -173.2125 
L 499.379953 -176.4125 
L 499.265648 -179.6125 
L 499.252398 -182.8125 
L 499.343341 -186.0125 
L 499.538687 -189.2125 
L 499.835708 -192.4125 
L 500.228865 -195.6125 
L 500.710049 -198.8125 
L 501.268933 -202.0125 
L 501.893414 -205.2125 
L 502.570106 -208.4125 
L 503.284866 -211.6125 
L 504.023323 -214.8125 
L 504.771376 -218.0125 
L 505.515643 -221.2125 
L 506.243836 -224.4125 
L 506.945055 -227.6125 
L 507.609986 -230.8125 
L 508.231009 -234.0125 
L 508.802211 -237.2125 
L 509.319328 -240.4125 
L 509.779612 -243.6125 
L 510.181656 -246.8125 
L 510.525176 -250.0125 
L 510.810786 -253.2125 
L 511.039772 -256.4125 
L 511.213875 -259.6125 
L 511.335108 -262.8125 
L 511.405609 -266.0125 
L 511.427536 -269.2125 
L 511.403002 -272.4125 
L 511.334068 -275.6125 
L 511.222769 -278.8125 
L 511.07118 -282.0125 
L 510.881511 -285.2125 
L 510.656218 -288.4125 
L 510.398131 -291.6125 
L 510.110565 -294.8125 
L 509.797429 -298.0125 
L 509.463297 -301.2125 
L 509.11345 -304.4125 
L 508.753871 -307.6125 
L 508.391192 -310.8125 
L 508.032584 -314.0125 
L 507.685609 -317.2125 
L 507.358018 -320.4125 
L 507.057513 -323.6125 
L 506.791495 -326.8125 
L 506.566792 -330.0125 
L 506.389392 -333.2125 
L 506.264211 -336.4125 
L 506.194878 -339.6125 
L 506.183583 -342.8125 
L 519.882667 -342.8125 
L 519.882667 -342.8125 
L 519.871372 -339.6125 
L 519.802039 -336.4125 
L 519.676858 -333.2125 
L 519.499458 -330.0125 
L 519.274755 -326.8125 
L 519.008737 -323.6125 
L 518.708232 -320.4125 
L 518.380641 -317.2125 
L 518.033666 -314.0125 
L 517.675058 -310.8125 
L 517.312379 -307.6125 
L 516.9528 -304.4125 
L 516.602953 -301.2125 
L 516.268821 -298.0125 
L 515.955685 -294.8125 
L 515.668119 -291.6125 
L 515.410032 -288.4125 
L 515.184739 -285.2125 
L 514.99507 -282.0125 
L 514.843481 -278.8125 
L 514.732182 -275.6125 
L 514.663248 -272.4125 
L 514.638714 -269.2125 
L 514.660641 -266.0125 
L 514.731142 -262.8125 
L 514.852375 -259.6125 
L 515.026478 -256.4125 
L 515.255464 -253.2125 
L 515.541074 -250.0125 
L 515.884594 -246.8125 
L 516.286638 -243.6125 
L 516.746922 -240.4125 
L 517.264039 -237.2125 
L 517.835241 -234.0125 
L 518.456264 -230.8125 
L 519.121195 -227.6125 
L 519.822414 -224.4125 
L 520.550607 -221.2125 
L 521.294874 -218.0125 
L 522.042927 -214.8125 
L 522.781384 -211.6125 
L 523.496144 -208.4125 
L 524.172836 -205.2125 
L 524.797317 -202.0125 
L 525.356201 -198.8125 
L 525.837385 -195.6125 
L 526.230542 -192.4125 
L 526.527563 -189.2125 
L 526.722909 -186.0125 
L 526.813852 -182.8125 
L 526.800602 -179.6125 
L 526.686297 -176.4125 
L 526.476858 -173.2125 
L 526.18073 -170.0125 
L 525.8085 -166.8125 
L 525.372443 -163.6125 
L 524.885995 -160.4125 
L 524.363201 -157.2125 
L 523.818159 -154.0125 
L 523.264493 -150.8125 
L 522.714878 -147.6125 
L 522.180644 -144.4125 
L 521.671461 -141.2125 
L 521.195131 -138.0125 
L 520.757482 -134.8125 
L 520.362355 -131.6125 
L 520.011685 -128.4125 
L 519.70566 -125.2125 
L 519.442933 -122.0125 
L 519.220889 -118.8125 
L 519.035926 -115.6125 
L 518.883744 -112.4125 
L 518.759628 -109.2125 
L 518.658706 -106.0125 
L 518.576168 -102.8125 
L 518.507451 -99.6125 
L 518.448373 -96.4125 
L 518.395225 -93.2125 
L 518.344813 -90.0125 
L 518.294468 -86.8125 
L 518.24202 -83.6125 
L 518.185751 -80.4125 
L 518.124324 -77.2125 
L 518.056715 -74.0125 
L 517.982142 -70.8125 
L 517.899994 -67.6125 
L 517.809783 -64.4125 
L 517.711106 -61.2125 
L 517.603621 -58.0125 
L 517.487047 -54.8125 
L 517.361171 -51.6125 
L 517.225875 -48.4125 
L 517.081159 -45.2125 
L 516.927182 -42.0125 
L 516.764286 -38.8125 
L 516.593026 -35.6125 
L 516.414183 -32.4125 
L 516.228768 -29.2125 
L 516.038014 -26.0125 
z
" style="stroke: #4c4c4c; stroke-width: 1.25"/>
    </defs>
    <g clip-path="url(#pba0b3ff203)">
     <use xlink:href="#mee37b6bc55" x="0" y="365.8525" style="fill: #df9c20; stroke: #4c4c4c; stroke-width: 1.25"/>
    </g>
   </g>
   <g id="matplotlib.axis_3">
    <g id="ytick_4">
     <g id="line2d_4">
      <defs>
       <path id="mfadfdfdda5" d="M 0 0 
L 3.5 0 
" style="stroke: #000000; stroke-width: 0.8"/>
      </defs>
      <g>
       <use xlink:href="#mfadfdfdda5" x="540.933125" y="339.84" style="stroke: #000000; stroke-width: 0.8"/>
      </g>
     </g>
     <g id="text_5">
      <!-- 0 -->
      <g transform="translate(547.933125 351.9975) scale(0.32 -0.32)">
       <use xlink:href="#DejaVuSans-30"/>
      </g>
     </g>
    </g>
    <g id="ytick_5">
     <g id="line2d_5">
      <g>
       <use xlink:href="#mfadfdfdda5" x="540.933125" y="185.076932" style="stroke: #000000; stroke-width: 0.8"/>
      </g>
     </g>
     <g id="text_6">
      <!-- 1000 -->
      <g transform="translate(547.933125 197.234432) scale(0.32 -0.32)">
       <use xlink:href="#DejaVuSans-31"/>
       <use xlink:href="#DejaVuSans-30" x="63.623047"/>
       <use xlink:href="#DejaVuSans-30" x="127.246094"/>
       <use xlink:href="#DejaVuSans-30" x="190.869141"/>
      </g>
     </g>
    </g>
    <g id="ytick_6">
     <g id="line2d_6">
      <g>
       <use xlink:href="#mfadfdfdda5" x="540.933125" y="30.313864" style="stroke: #000000; stroke-width: 0.8"/>
      </g>
     </g>
     <g id="text_7">
      <!-- 2000 -->
      <g transform="translate(547.933125 42.471364) scale(0.32 -0.32)">
       <defs>
        <path id="DejaVuSans-32" d="M 1228 531 
L 3431 531 
L 3431 0 
L 469 0 
L 469 531 
Q 828 903 1448 1529 
Q 2069 2156 2228 2338 
Q 2531 2678 2651 2914 
Q 2772 3150 2772 3378 
Q 2772 3750 2511 3984 
Q 2250 4219 1831 4219 
Q 1534 4219 1204 4116 
Q 875 4013 500 3803 
L 500 4441 
Q 881 4594 1212 4672 
Q 1544 4750 1819 4750 
Q 2544 4750 2975 4387 
Q 3406 4025 3406 3419 
Q 3406 3131 3298 2873 
Q 3191 2616 2906 2266 
Q 2828 2175 2409 1742 
Q 1991 1309 1228 531 
z
" transform="scale(0.015625)"/>
       </defs>
       <use xlink:href="#DejaVuSans-32"/>
       <use xlink:href="#DejaVuSans-30" x="63.623047"/>
       <use xlink:href="#DejaVuSans-30" x="127.246094"/>
       <use xlink:href="#DejaVuSans-30" x="190.869141"/>
      </g>
     </g>
    </g>
    <g id="text_8">
     <!-- MSA Depth -->
     <g style="fill: #ffa500" transform="translate(665.286563 290.368594) rotate(-90) scale(0.42 -0.42)">
      <defs>
       <path id="DejaVuSans-44" d="M 1259 4147 
L 1259 519 
L 2022 519 
Q 2988 519 3436 956 
Q 3884 1394 3884 2338 
Q 3884 3275 3436 3711 
Q 2988 4147 2022 4147 
L 1259 4147 
z
M 628 4666 
L 1925 4666 
Q 3281 4666 3915 4102 
Q 4550 3538 4550 2338 
Q 4550 1131 3912 565 
Q 3275 0 1925 0 
L 628 0 
L 628 4666 
z
" transform="scale(0.015625)"/>
       <path id="DejaVuSans-70" d="M 1159 525 
L 1159 -1331 
L 581 -1331 
L 581 3500 
L 1159 3500 
L 1159 2969 
Q 1341 3281 1617 3432 
Q 1894 3584 2278 3584 
Q 2916 3584 3314 3078 
Q 3713 2572 3713 1747 
Q 3713 922 3314 415 
Q 2916 -91 2278 -91 
Q 1894 -91 1617 61 
Q 1341 213 1159 525 
z
M 3116 1747 
Q 3116 2381 2855 2742 
Q 2594 3103 2138 3103 
Q 1681 3103 1420 2742 
Q 1159 2381 1159 1747 
Q 1159 1113 1420 752 
Q 1681 391 2138 391 
Q 2594 391 2855 752 
Q 3116 1113 3116 1747 
z
" transform="scale(0.015625)"/>
       <path id="DejaVuSans-68" d="M 3513 2113 
L 3513 0 
L 2938 0 
L 2938 2094 
Q 2938 2591 2744 2837 
Q 2550 3084 2163 3084 
Q 1697 3084 1428 2787 
Q 1159 2491 1159 1978 
L 1159 0 
L 581 0 
L 581 4863 
L 1159 4863 
L 1159 2956 
Q 1366 3272 1645 3428 
Q 1925 3584 2291 3584 
Q 2894 3584 3203 3211 
Q 3513 2838 3513 2113 
z
" transform="scale(0.015625)"/>
      </defs>
      <use xlink:href="#DejaVuSans-4d"/>
      <use xlink:href="#DejaVuSans-53" x="86.279297"/>
      <use xlink:href="#DejaVuSans-41" x="151.630859"/>
      <use xlink:href="#DejaVuSans-20" x="220.039062"/>
      <use xlink:href="#DejaVuSans-44" x="251.826172"/>
      <use xlink:href="#DejaVuSans-65" x="328.828125"/>
      <use xlink:href="#DejaVuSans-70" x="390.351562"/>
      <use xlink:href="#DejaVuSans-74" x="453.828125"/>
      <use xlink:href="#DejaVuSans-68" x="493.037109"/>
     </g>
    </g>
   </g>
   <g id="line2d_7">
    <path d="M 155.913125 23.04 
L 200.553125 23.04 
" clip-path="url(#pba0b3ff203)" style="fill: none; stroke-dasharray: 1.5625,0.9375; stroke-dashoffset: 0; stroke: #4c4c4c; stroke-width: 1.25"/>
   </g>
   <g id="line2d_8">
    <path d="M 155.913125 23.04 
L 200.553125 23.04 
" clip-path="url(#pba0b3ff203)" style="fill: none; stroke-dasharray: 3.125,1.25; stroke-dashoffset: 0; stroke: #4c4c4c; stroke-width: 1.25"/>
   </g>
   <g id="line2d_9">
    <path d="M 155.913125 23.04 
L 200.553125 23.04 
" clip-path="url(#pba0b3ff203)" style="fill: none; stroke-dasharray: 1.5625,0.9375; stroke-dashoffset: 0; stroke: #4c4c4c; stroke-width: 1.25"/>
   </g>
   <g id="line2d_10">
    <path d="M 232.521141 306.256414 
L 235.545109 306.256414 
" clip-path="url(#pba0b3ff203)" style="fill: none; stroke-dasharray: 1.5625,0.9375; stroke-dashoffset: 0; stroke: #4c4c4c; stroke-width: 1.25"/>
   </g>
   <g id="line2d_11">
    <path d="M 232.805211 73.337997 
L 235.261039 73.337997 
" clip-path="url(#pba0b3ff203)" style="fill: none; stroke-dasharray: 3.125,1.25; stroke-dashoffset: 0; stroke: #4c4c4c; stroke-width: 1.25"/>
   </g>
   <g id="line2d_12">
    <path d="M 231.692034 23.04 
L 236.374216 23.04 
" clip-path="url(#pba0b3ff203)" style="fill: none; stroke-dasharray: 1.5625,0.9375; stroke-dashoffset: 0; stroke: #4c4c4c; stroke-width: 1.25"/>
   </g>
   <g id="line2d_13">
    <path d="M 276.761856 339.84 
L 302.904394 339.84 
" clip-path="url(#pba0b3ff203)" style="fill: none; stroke-dasharray: 1.5625,0.9375; stroke-dashoffset: 0; stroke: #4c4c4c; stroke-width: 1.25"/>
   </g>
   <g id="line2d_14">
    <path d="M 276.761856 339.84 
L 302.904394 339.84 
" clip-path="url(#pba0b3ff203)" style="fill: none; stroke-dasharray: 3.125,1.25; stroke-dashoffset: 0; stroke: #4c4c4c; stroke-width: 1.25"/>
   </g>
   <g id="line2d_15">
    <path d="M 276.772273 338.447132 
L 302.893977 338.447132 
" clip-path="url(#pba0b3ff203)" style="fill: none; stroke-dasharray: 1.5625,0.9375; stroke-dashoffset: 0; stroke: #4c4c4c; stroke-width: 1.25"/>
   </g>
   <g id="line2d_16">
    <path d="M 393.001037 72.022511 
L 409.865213 72.022511 
" clip-path="url(#pba0b3ff203)" style="fill: none; stroke-dasharray: 1.5625,0.9375; stroke-dashoffset: 0; stroke: #4c4c4c; stroke-width: 1.25"/>
   </g>
   <g id="line2d_17">
    <path d="M 379.260372 23.04 
L 423.605878 23.04 
" clip-path="url(#pba0b3ff203)" style="fill: none; stroke-dasharray: 3.125,1.25; stroke-dashoffset: 0; stroke: #4c4c4c; stroke-width: 1.25"/>
   </g>
   <g id="line2d_18">
    <path d="M 379.260372 23.04 
L 423.605878 23.04 
" clip-path="url(#pba0b3ff203)" style="fill: none; stroke-dasharray: 1.5625,0.9375; stroke-dashoffset: 0; stroke: #4c4c4c; stroke-width: 1.25"/>
   </g>
   <g id="line2d_19">
    <path d="M 449.69083 73.028471 
L 464.77542 73.028471 
" clip-path="url(#pba0b3ff203)" style="fill: none; stroke-dasharray: 1.5625,0.9375; stroke-dashoffset: 0; stroke: #4c4c4c; stroke-width: 1.25"/>
   </g>
   <g id="line2d_20">
    <path d="M 434.913125 23.04 
L 479.553125 23.04 
" clip-path="url(#pba0b3ff203)" style="fill: none; stroke-dasharray: 3.125,1.25; stroke-dashoffset: 0; stroke: #4c4c4c; stroke-width: 1.25"/>
   </g>
   <g id="line2d_21">
    <path d="M 434.913125 23.04 
L 479.553125 23.04 
" clip-path="url(#pba0b3ff203)" style="fill: none; stroke-dasharray: 1.5625,0.9375; stroke-dashoffset: 0; stroke: #4c4c4c; stroke-width: 1.25"/>
   </g>
   <g id="line2d_22">
    <path d="M 505.528723 232.821339 
L 520.537527 232.821339 
" clip-path="url(#pba0b3ff203)" style="fill: none; stroke-dasharray: 1.5625,0.9375; stroke-dashoffset: 0; stroke: #4c4c4c; stroke-width: 1.25"/>
   </g>
   <g id="line2d_23">
    <path d="M 499.295671 181.517382 
L 526.770579 181.517382 
" clip-path="url(#pba0b3ff203)" style="fill: none; stroke-dasharray: 3.125,1.25; stroke-dashoffset: 0; stroke: #4c4c4c; stroke-width: 1.25"/>
   </g>
   <g id="line2d_24">
    <path d="M 511.377454 101.117968 
L 514.688796 101.117968 
" clip-path="url(#pba0b3ff203)" style="fill: none; stroke-dasharray: 1.5625,0.9375; stroke-dashoffset: 0; stroke: #4c4c4c; stroke-width: 1.25"/>
   </g>
   <g id="patch_14">
    <path d="M 150.333125 339.84 
L 150.333125 7.2 
" style="fill: none; stroke: #000000; stroke-width: 0.8; stroke-linejoin: miter; stroke-linecap: square"/>
   </g>
   <g id="patch_15">
    <path d="M 540.933125 339.84 
L 540.933125 7.2 
" style="fill: none; stroke: #000000; stroke-width: 0.8; stroke-linejoin: miter; stroke-linecap: square"/>
   </g>
   <g id="patch_16">
    <path d="M 150.333125 339.84 
L 540.933125 339.84 
" style="fill: none; stroke: #000000; stroke-width: 0.8; stroke-linejoin: miter; stroke-linecap: square"/>
   </g>
   <g id="patch_17">
    <path d="M 150.333125 7.2 
L 540.933125 7.2 
" style="fill: none; stroke: #000000; stroke-width: 0.8; stroke-linejoin: miter; stroke-linecap: square"/>
   </g>
  </g>
 </g>
 <defs>
  <clipPath id="pba0b3ff203">
   <rect x="150.333125" y="7.2" width="390.6" height="332.64"/>
  </clipPath>
 </defs>
</svg>
