<?xml version="1.0" encoding="utf-8" standalone="no"?>
<!DOCTYPE svg PUBLIC "-//W3C//DTD SVG 1.1//EN"
  "http://www.w3.org/Graphics/SVG/1.1/DTD/svg11.dtd">
<svg xmlns:xlink="http://www.w3.org/1999/xlink" width="444.03pt" height="430.4395pt" viewBox="0 0 444.03 430.4395" xmlns="http://www.w3.org/2000/svg" version="1.1">
 <metadata>
  <rdf:RDF xmlns:dc="http://purl.org/dc/elements/1.1/" xmlns:cc="http://creativecommons.org/ns#" xmlns:rdf="http://www.w3.org/1999/02/22-rdf-syntax-ns#">
   <cc:Work>
    <dc:type rdf:resource="http://purl.org/dc/dcmitype/StillImage"/>
    <dc:date>2025-03-23T15:09:57.804117</dc:date>
    <dc:format>image/svg+xml</dc:format>
    <dc:creator>
     <cc:Agent>
      <dc:title>Matplotlib v3.8.1, https://matplotlib.org/</dc:title>
     </cc:Agent>
    </dc:creator>
   </cc:Work>
  </rdf:RDF>
 </metadata>
 <defs>
  <style type="text/css">*{stroke-linejoin: round; stroke-linecap: butt}</style>
 </defs>
 <g id="figure_1">
  <g id="patch_1">
   <path d="M 0 430.4395 
L 444.03 430.4395 
L 444.03 0 
L 0 0 
z
" style="fill: #ffffff"/>
  </g>
  <g id="axes_1">
   <g id="patch_2">
    <path d="M 79.71 273.312 
L 436.83 273.312 
L 436.83 7.2 
L 79.71 7.2 
z
" style="fill: #ffffff"/>
   </g>
   <g id="PolyCollection_1">
    <defs>
     <path id="m70bd158f47" d="M 149.064904 -159.410424 
L 96.929641 -159.410424 
L 96.474291 -161.7779 
L 96.157041 -164.145377 
L 95.980031 -166.512853 
L 95.942727 -168.880329 
L 96.041957 -171.247806 
L 96.272038 -173.615282 
L 96.624973 -175.982759 
L 97.090721 -178.350235 
L 97.657519 -180.717712 
L 98.312242 -183.085188 
L 99.040794 -185.452665 
L 99.828509 -187.820141 
L 100.66054 -190.187617 
L 101.522234 -192.555094 
L 102.399475 -194.92257 
L 103.278985 -197.290047 
L 104.148569 -199.657523 
L 104.997316 -202.025 
L 105.815734 -204.392476 
L 106.59584 -206.759952 
L 107.331187 -209.127429 
L 108.016853 -211.494905 
L 108.649385 -213.862382 
L 109.226708 -216.229858 
L 109.748014 -218.597335 
L 110.213626 -220.964811 
L 110.624858 -223.332287 
L 110.983865 -225.699764 
L 111.293496 -228.06724 
L 111.557152 -230.434717 
L 111.778651 -232.802193 
L 111.962107 -235.16967 
L 112.111812 -237.537146 
L 112.232139 -239.904623 
L 112.327448 -242.272099 
L 112.402007 -244.639575 
L 112.459924 -247.007052 
L 112.50508 -249.374528 
L 112.541081 -251.742005 
L 112.57121 -254.109481 
L 112.598393 -256.476958 
L 112.625168 -258.844434 
L 112.653664 -261.21191 
L 112.685595 -263.579387 
L 112.722254 -265.946863 
L 112.764526 -268.31434 
L 112.812904 -270.681816 
L 112.867522 -273.049293 
L 112.928195 -275.416769 
L 112.994465 -277.784246 
L 113.065657 -280.151722 
L 113.140942 -282.519198 
L 113.219397 -284.886675 
L 113.300075 -287.254151 
L 113.382062 -289.621628 
L 113.464535 -291.989104 
L 113.546817 -294.356581 
L 113.628412 -296.724057 
L 113.709039 -299.091533 
L 113.788646 -301.45901 
L 113.867419 -303.826486 
L 113.945771 -306.193963 
L 114.024323 -308.561439 
L 114.103878 -310.928916 
L 114.185377 -313.296392 
L 114.269861 -315.663868 
L 114.358416 -318.031345 
L 114.452132 -320.398821 
L 114.552048 -322.766298 
L 114.659113 -325.133774 
L 114.774148 -327.501251 
L 114.897812 -329.868727 
L 115.030585 -332.236204 
L 115.172751 -334.60368 
L 115.324397 -336.971156 
L 115.485415 -339.338633 
L 115.655515 -341.706109 
L 115.834247 -344.073586 
L 116.021017 -346.441062 
L 116.215121 -348.808539 
L 116.415768 -351.176015 
L 116.622111 -353.543491 
L 116.83327 -355.910968 
L 117.048363 -358.278444 
L 117.266517 -360.645921 
L 117.486894 -363.013397 
L 117.708696 -365.380874 
L 117.931176 -367.74835 
L 118.153641 -370.115827 
L 118.375454 -372.483303 
L 118.596026 -374.850779 
L 118.814817 -377.218256 
L 119.031323 -379.585732 
L 119.245075 -381.953209 
L 119.455625 -384.320685 
L 119.662545 -386.688162 
L 119.865418 -389.055638 
L 120.063836 -391.423114 
L 120.257393 -393.790591 
L 125.737152 -393.790591 
L 125.737152 -393.790591 
L 125.93071 -391.423114 
L 126.129127 -389.055638 
L 126.332 -386.688162 
L 126.53892 -384.320685 
L 126.749471 -381.953209 
L 126.963222 -379.585732 
L 127.179729 -377.218256 
L 127.398519 -374.850779 
L 127.619091 -372.483303 
L 127.840904 -370.115827 
L 128.06337 -367.74835 
L 128.28585 -365.380874 
L 128.507651 -363.013397 
L 128.728028 -360.645921 
L 128.946183 -358.278444 
L 129.161275 -355.910968 
L 129.372435 -353.543491 
L 129.578777 -351.176015 
L 129.779424 -348.808539 
L 129.973528 -346.441062 
L 130.160299 -344.073586 
L 130.33903 -341.706109 
L 130.509131 -339.338633 
L 130.670148 -336.971156 
L 130.821794 -334.60368 
L 130.96396 -332.236204 
L 131.096733 -329.868727 
L 131.220397 -327.501251 
L 131.335432 -325.133774 
L 131.442497 -322.766298 
L 131.542413 -320.398821 
L 131.636129 -318.031345 
L 131.724685 -315.663868 
L 131.809168 -313.296392 
L 131.890668 -310.928916 
L 131.970222 -308.561439 
L 132.048775 -306.193963 
L 132.127127 -303.826486 
L 132.205899 -301.45901 
L 132.285507 -299.091533 
L 132.366133 -296.724057 
L 132.447729 -294.356581 
L 132.53001 -291.989104 
L 132.612484 -289.621628 
L 132.69447 -287.254151 
L 132.775148 -284.886675 
L 132.853604 -282.519198 
L 132.928888 -280.151722 
L 133.000081 -277.784246 
L 133.06635 -275.416769 
L 133.127023 -273.049293 
L 133.181642 -270.681816 
L 133.23002 -268.31434 
L 133.272291 -265.946863 
L 133.30895 -263.579387 
L 133.340881 -261.21191 
L 133.369378 -258.844434 
L 133.396152 -256.476958 
L 133.423335 -254.109481 
L 133.453465 -251.742005 
L 133.489466 -249.374528 
L 133.534622 -247.007052 
L 133.592538 -244.639575 
L 133.667098 -242.272099 
L 133.762407 -239.904623 
L 133.882734 -237.537146 
L 134.032439 -235.16967 
L 134.215895 -232.802193 
L 134.437394 -230.434717 
L 134.701049 -228.06724 
L 135.01068 -225.699764 
L 135.369687 -223.332287 
L 135.780919 -220.964811 
L 136.246532 -218.597335 
L 136.767837 -216.229858 
L 137.34516 -213.862382 
L 137.977692 -211.494905 
L 138.663358 -209.127429 
L 139.398706 -206.759952 
L 140.178811 -204.392476 
L 140.997229 -202.025 
L 141.845976 -199.657523 
L 142.71556 -197.290047 
L 143.59507 -194.92257 
L 144.472312 -192.555094 
L 145.334006 -190.187617 
L 146.166036 -187.820141 
L 146.953751 -185.452665 
L 147.682304 -183.085188 
L 148.337027 -180.717712 
L 148.903824 -178.350235 
L 149.369573 -175.982759 
L 149.722508 -173.615282 
L 149.952588 -171.247806 
L 150.051818 -168.880329 
L 150.014514 -166.512853 
L 149.837505 -164.145377 
L 149.520254 -161.7779 
L 149.064904 -159.410424 
z
" style="stroke: #757575; stroke-width: 1.25"/>
    </defs>
    <g clip-path="url(#pc9eac28cc8)">
     <use xlink:href="#m70bd158f47" x="0" y="430.4395" style="fill: #a0c7f1; stroke: #757575; stroke-width: 1.25"/>
    </g>
   </g>
   <g id="PolyCollection_2">
    <defs>
     <path id="m612e2a6602" d="M 194.330972 -159.181862 
L 186.9363 -159.181862 
L 186.70487 -161.50512 
L 186.483419 -163.828379 
L 186.270851 -166.151637 
L 186.064698 -168.474895 
L 185.861145 -170.798153 
L 185.655132 -173.121411 
L 185.440565 -175.444669 
L 185.210596 -177.767927 
L 184.957977 -180.091185 
L 184.675461 -182.414443 
L 184.356231 -184.737701 
L 183.994319 -187.060959 
L 183.585011 -189.384217 
L 183.125189 -191.707475 
L 182.613609 -194.030733 
L 182.051086 -196.353991 
L 181.440571 -198.677249 
L 180.787128 -201.000507 
L 180.097781 -203.323765 
L 179.381267 -205.647023 
L 178.647669 -207.970281 
L 177.907976 -210.293539 
L 177.173564 -212.616798 
L 176.455646 -214.940056 
L 175.7647 -217.263314 
L 175.109932 -219.586572 
L 174.498788 -221.90983 
L 173.936573 -224.233088 
L 173.426181 -226.556346 
L 172.967982 -228.879604 
L 172.55987 -231.202862 
L 172.197465 -233.52612 
L 171.874474 -235.849378 
L 171.583168 -238.172636 
L 171.314946 -240.495894 
L 171.060934 -242.819152 
L 170.812574 -245.14241 
L 170.562154 -247.465668 
L 170.303231 -249.788926 
L 170.030918 -252.112184 
L 169.74202 -254.435442 
L 169.435022 -256.7587 
L 169.109937 -259.081958 
L 168.768053 -261.405217 
L 168.41161 -263.728475 
L 168.043468 -266.051733 
L 167.666798 -268.374991 
L 167.284836 -270.698249 
L 166.900744 -273.021507 
L 166.517568 -275.344765 
L 166.138311 -277.668023 
L 165.7661 -279.991281 
L 165.404412 -282.314539 
L 165.057324 -284.637797 
L 164.729755 -286.961055 
L 164.427645 -289.284313 
L 164.158039 -291.607571 
L 163.929062 -293.930829 
L 163.749756 -296.254087 
L 163.629798 -298.577345 
L 163.579091 -300.900603 
L 163.607281 -303.223861 
L 163.723216 -305.547119 
L 163.934399 -307.870377 
L 164.246476 -310.193636 
L 164.662795 -312.516894 
L 165.184082 -314.840152 
L 165.808251 -317.16341 
L 166.530363 -319.486668 
L 167.342745 -321.809926 
L 168.235256 -324.133184 
L 169.195678 -326.456442 
L 170.210213 -328.7797 
L 171.26405 -331.102958 
L 172.341955 -333.426216 
L 173.428874 -335.749474 
L 174.510477 -338.072732 
L 175.573654 -340.39599 
L 176.606904 -342.719248 
L 177.600626 -345.042506 
L 178.547293 -347.365764 
L 179.441511 -349.689022 
L 180.279973 -352.01228 
L 181.061316 -354.335538 
L 181.785901 -356.658796 
L 182.455542 -358.982055 
L 183.073195 -361.305313 
L 183.642639 -363.628571 
L 184.168159 -365.951829 
L 184.654261 -368.275087 
L 185.105413 -370.598345 
L 185.525845 -372.921603 
L 185.919385 -375.244861 
L 186.289358 -377.568119 
L 186.638533 -379.891377 
L 186.969101 -382.214635 
L 187.282708 -384.537893 
L 187.580497 -386.861151 
L 187.863183 -389.184409 
L 193.404089 -389.184409 
L 193.404089 -389.184409 
L 193.686776 -386.861151 
L 193.984565 -384.537893 
L 194.298171 -382.214635 
L 194.62874 -379.891377 
L 194.977914 -377.568119 
L 195.347888 -375.244861 
L 195.741428 -372.921603 
L 196.161859 -370.598345 
L 196.613012 -368.275087 
L 197.099114 -365.951829 
L 197.624634 -363.628571 
L 198.194078 -361.305313 
L 198.811731 -358.982055 
L 199.481372 -356.658796 
L 200.205957 -354.335538 
L 200.987299 -352.01228 
L 201.825762 -349.689022 
L 202.71998 -347.365764 
L 203.666647 -345.042506 
L 204.660369 -342.719248 
L 205.693618 -340.39599 
L 206.756795 -338.072732 
L 207.838399 -335.749474 
L 208.925317 -333.426216 
L 210.003223 -331.102958 
L 211.057059 -328.7797 
L 212.071595 -326.456442 
L 213.032017 -324.133184 
L 213.924528 -321.809926 
L 214.73691 -319.486668 
L 215.459022 -317.16341 
L 216.083191 -314.840152 
L 216.604478 -312.516894 
L 217.020797 -310.193636 
L 217.332874 -307.870377 
L 217.544057 -305.547119 
L 217.659992 -303.223861 
L 217.688182 -300.900603 
L 217.637475 -298.577345 
L 217.517516 -296.254087 
L 217.338211 -293.930829 
L 217.109234 -291.607571 
L 216.839628 -289.284313 
L 216.537517 -286.961055 
L 216.209949 -284.637797 
L 215.862861 -282.314539 
L 215.501172 -279.991281 
L 215.128962 -277.668023 
L 214.749705 -275.344765 
L 214.366529 -273.021507 
L 213.982437 -270.698249 
L 213.600475 -268.374991 
L 213.223804 -266.051733 
L 212.855663 -263.728475 
L 212.49922 -261.405217 
L 212.157335 -259.081958 
L 211.832251 -256.7587 
L 211.525253 -254.435442 
L 211.236355 -252.112184 
L 210.964042 -249.788926 
L 210.705119 -247.465668 
L 210.454699 -245.14241 
L 210.206339 -242.819152 
L 209.952326 -240.495894 
L 209.684104 -238.172636 
L 209.392799 -235.849378 
L 209.069808 -233.52612 
L 208.707403 -231.202862 
L 208.29929 -228.879604 
L 207.841092 -226.556346 
L 207.3307 -224.233088 
L 206.768484 -221.90983 
L 206.157341 -219.586572 
L 205.502572 -217.263314 
L 204.811626 -214.940056 
L 204.093708 -212.616798 
L 203.359297 -210.293539 
L 202.619604 -207.970281 
L 201.886006 -205.647023 
L 201.169491 -203.323765 
L 200.480145 -201.000507 
L 199.826701 -198.677249 
L 199.216187 -196.353991 
L 198.653663 -194.030733 
L 198.142084 -191.707475 
L 197.682262 -189.384217 
L 197.272954 -187.060959 
L 196.911042 -184.737701 
L 196.591811 -182.414443 
L 196.309296 -180.091185 
L 196.056677 -177.767927 
L 195.826707 -175.444669 
L 195.612141 -173.121411 
L 195.406128 -170.798153 
L 195.202575 -168.474895 
L 194.996422 -166.151637 
L 194.783854 -163.828379 
L 194.562403 -161.50512 
L 194.330972 -159.181862 
z
" style="stroke: #757575; stroke-width: 1.25"/>
    </defs>
    <g clip-path="url(#pc9eac28cc8)">
     <use xlink:href="#m612e2a6602" x="0" y="430.4395" style="fill: #a2e5b0; stroke: #757575; stroke-width: 1.25"/>
    </g>
   </g>
   <g id="PolyCollection_3">
    <defs>
     <path id="m1e45ea76df" d="M 262.820585 -179.553394 
L 253.719415 -179.553394 
L 253.191689 -181.506825 
L 252.625532 -183.460257 
L 252.021164 -185.413688 
L 251.379376 -187.36712 
L 250.701616 -189.320551 
L 249.990071 -191.273983 
L 249.247733 -193.227414 
L 248.47844 -195.180846 
L 247.686891 -197.134277 
L 246.878624 -199.087709 
L 246.059945 -201.04114 
L 245.237814 -202.994572 
L 244.419673 -204.948003 
L 243.613234 -206.901435 
L 242.826218 -208.854866 
L 242.066059 -210.808298 
L 241.339588 -212.76173 
L 240.652718 -214.715161 
L 240.010138 -216.668593 
L 239.415048 -218.622024 
L 238.868946 -220.575456 
L 238.371507 -222.528887 
L 237.920536 -224.482319 
L 237.512042 -226.43575 
L 237.140419 -228.389182 
L 236.79873 -230.342613 
L 236.479094 -232.296045 
L 236.173155 -234.249476 
L 235.87261 -236.202908 
L 235.569753 -238.156339 
L 235.258027 -240.109771 
L 234.932521 -242.063202 
L 234.590396 -244.016634 
L 234.231201 -245.970065 
L 233.857058 -247.923497 
L 233.472683 -249.876928 
L 233.085266 -251.83036 
L 232.70418 -253.783792 
L 232.340547 -255.737223 
L 232.00669 -257.690655 
L 231.715488 -259.644086 
L 231.479679 -261.597518 
L 231.311164 -263.550949 
L 231.220329 -265.504381 
L 231.215455 -267.457812 
L 231.302235 -269.411244 
L 231.483431 -271.364675 
L 231.758695 -273.318107 
L 232.124555 -275.271538 
L 232.574577 -277.22497 
L 233.099677 -279.178401 
L 233.688568 -281.131833 
L 234.328321 -283.085264 
L 235.00498 -285.038696 
L 235.704225 -286.992127 
L 236.412019 -288.945559 
L 237.115215 -290.89899 
L 237.802091 -292.852422 
L 238.462784 -294.805854 
L 239.089603 -296.759285 
L 239.677222 -298.712717 
L 240.22273 -300.666148 
L 240.725569 -302.61958 
L 241.187344 -304.573011 
L 241.61155 -306.526443 
L 242.003211 -308.479874 
L 242.368477 -310.433306 
L 242.714181 -312.386737 
L 243.04741 -314.340169 
L 243.375075 -316.2936 
L 243.703538 -318.247032 
L 244.038282 -320.200463 
L 244.383662 -322.153895 
L 244.742726 -324.107326 
L 245.117119 -326.060758 
L 245.507081 -328.014189 
L 245.91151 -329.967621 
L 246.32811 -331.921052 
L 246.753595 -333.874484 
L 247.183943 -335.827916 
L 247.614683 -337.781347 
L 248.041192 -339.734779 
L 248.459002 -341.68821 
L 248.864072 -343.641642 
L 249.253037 -345.595073 
L 249.623398 -347.548505 
L 249.973657 -349.501936 
L 250.303381 -351.455368 
L 250.613198 -353.408799 
L 250.904728 -355.362231 
L 251.180438 -357.315662 
L 251.443467 -359.269094 
L 251.697391 -361.222525 
L 251.945983 -363.175957 
L 252.192958 -365.129388 
L 252.441731 -367.08282 
L 252.695211 -369.036251 
L 252.955622 -370.989683 
L 253.224388 -372.943114 
L 263.315612 -372.943114 
L 263.315612 -372.943114 
L 263.584378 -370.989683 
L 263.844789 -369.036251 
L 264.098269 -367.08282 
L 264.347042 -365.129388 
L 264.594017 -363.175957 
L 264.842609 -361.222525 
L 265.096533 -359.269094 
L 265.359562 -357.315662 
L 265.635272 -355.362231 
L 265.926802 -353.408799 
L 266.236619 -351.455368 
L 266.566343 -349.501936 
L 266.916602 -347.548505 
L 267.286963 -345.595073 
L 267.675928 -343.641642 
L 268.080998 -341.68821 
L 268.498808 -339.734779 
L 268.925317 -337.781347 
L 269.356057 -335.827916 
L 269.786405 -333.874484 
L 270.21189 -331.921052 
L 270.62849 -329.967621 
L 271.032919 -328.014189 
L 271.422881 -326.060758 
L 271.797274 -324.107326 
L 272.156338 -322.153895 
L 272.501718 -320.200463 
L 272.836462 -318.247032 
L 273.164925 -316.2936 
L 273.49259 -314.340169 
L 273.825819 -312.386737 
L 274.171523 -310.433306 
L 274.536789 -308.479874 
L 274.92845 -306.526443 
L 275.352656 -304.573011 
L 275.814431 -302.61958 
L 276.31727 -300.666148 
L 276.862778 -298.712717 
L 277.450397 -296.759285 
L 278.077216 -294.805854 
L 278.737909 -292.852422 
L 279.424785 -290.89899 
L 280.127981 -288.945559 
L 280.835775 -286.992127 
L 281.53502 -285.038696 
L 282.211679 -283.085264 
L 282.851432 -281.131833 
L 283.440323 -279.178401 
L 283.965423 -277.22497 
L 284.415445 -275.271538 
L 284.781305 -273.318107 
L 285.056569 -271.364675 
L 285.237765 -269.411244 
L 285.324545 -267.457812 
L 285.319671 -265.504381 
L 285.228836 -263.550949 
L 285.060321 -261.597518 
L 284.824512 -259.644086 
L 284.53331 -257.690655 
L 284.199453 -255.737223 
L 283.83582 -253.783792 
L 283.454734 -251.83036 
L 283.067317 -249.876928 
L 282.682942 -247.923497 
L 282.308799 -245.970065 
L 281.949604 -244.016634 
L 281.607479 -242.063202 
L 281.281973 -240.109771 
L 280.970247 -238.156339 
L 280.66739 -236.202908 
L 280.366845 -234.249476 
L 280.060906 -232.296045 
L 279.74127 -230.342613 
L 279.399581 -228.389182 
L 279.027958 -226.43575 
L 278.619464 -224.482319 
L 278.168493 -222.528887 
L 277.671054 -220.575456 
L 277.124952 -218.622024 
L 276.529862 -216.668593 
L 275.887282 -214.715161 
L 275.200412 -212.76173 
L 274.473941 -210.808298 
L 273.713782 -208.854866 
L 272.926766 -206.901435 
L 272.120327 -204.948003 
L 271.302186 -202.994572 
L 270.480055 -201.04114 
L 269.661376 -199.087709 
L 268.853109 -197.134277 
L 268.06156 -195.180846 
L 267.292267 -193.227414 
L 266.549929 -191.273983 
L 265.838384 -189.320551 
L 265.160624 -187.36712 
L 264.518836 -185.413688 
L 263.914468 -183.460257 
L 263.348311 -181.506825 
L 262.820585 -179.553394 
z
" style="stroke: #757575; stroke-width: 1.25"/>
    </defs>
    <g clip-path="url(#pc9eac28cc8)">
     <use xlink:href="#m1e45ea76df" x="0" y="430.4395" style="fill: #f2aaa7; stroke: #757575; stroke-width: 1.25"/>
    </g>
   </g>
   <g id="PolyCollection_4">
    <defs>
     <path id="mce28fc2a56" d="M 331.29379 -164.930851 
L 320.518937 -164.930851 
L 319.955364 -167.254353 
L 319.358048 -169.577856 
L 318.726781 -171.901358 
L 318.061653 -174.224861 
L 317.363175 -176.548363 
L 316.632394 -178.871866 
L 315.871002 -181.195368 
L 315.081408 -183.518871 
L 314.266767 -185.842373 
L 313.430971 -188.165876 
L 312.57857 -190.489378 
L 311.714651 -192.81288 
L 310.844669 -195.136383 
L 309.974249 -197.459885 
L 309.108976 -199.783388 
L 308.254195 -202.10689 
L 307.414838 -204.430393 
L 306.59531 -206.753895 
L 305.799432 -209.077398 
L 305.030459 -211.4009 
L 304.291175 -213.724403 
L 303.584044 -216.047905 
L 302.911417 -218.371408 
L 302.275756 -220.69491 
L 301.679858 -223.018413 
L 301.127047 -225.341915 
L 300.621307 -227.665418 
L 300.167332 -229.98892 
L 299.770483 -232.312423 
L 299.436646 -234.635925 
L 299.171988 -236.959428 
L 298.982636 -239.28293 
L 298.874292 -241.606433 
L 298.851818 -243.929935 
L 298.918825 -246.253438 
L 299.077294 -248.57694 
L 299.32726 -250.900443 
L 299.666601 -253.223945 
L 300.090923 -255.547448 
L 300.593582 -257.87095 
L 301.165821 -260.194453 
L 301.79703 -262.517955 
L 302.475105 -264.841458 
L 303.186891 -267.16496 
L 303.918669 -269.488463 
L 304.656679 -271.811965 
L 305.387623 -274.135468 
L 306.099146 -276.45897 
L 306.780244 -278.782473 
L 307.42161 -281.105975 
L 308.015874 -283.429478 
L 308.55775 -285.75298 
L 309.044082 -288.076483 
L 309.473797 -290.399985 
L 309.847776 -292.723488 
L 310.168649 -295.04699 
L 310.440549 -297.370493 
L 310.668827 -299.693995 
L 310.859752 -302.017498 
L 311.02022 -304.341 
L 311.157474 -306.664503 
L 311.278857 -308.988005 
L 311.391594 -311.311508 
L 311.502619 -313.63501 
L 311.618431 -315.958513 
L 311.744987 -318.282015 
L 311.887625 -320.605518 
L 312.051 -322.92902 
L 312.239043 -325.252523 
L 312.454929 -327.576025 
L 312.701047 -329.899528 
L 312.978981 -332.22303 
L 313.289498 -334.546533 
L 313.632543 -336.870035 
L 314.007248 -339.193538 
L 314.41196 -341.51704 
L 314.844285 -343.840543 
L 315.301156 -346.164045 
L 315.778923 -348.487548 
L 316.273456 -350.81105 
L 316.780275 -353.134553 
L 317.294683 -355.458055 
L 317.811906 -357.781558 
L 318.327233 -360.10506 
L 318.836152 -362.428563 
L 319.334467 -364.752065 
L 319.818405 -367.075568 
L 320.284694 -369.39907 
L 320.730633 -371.722573 
L 321.154116 -374.046075 
L 321.553654 -376.369578 
L 321.928358 -378.69308 
L 322.277907 -381.016583 
L 322.602494 -383.340085 
L 322.902761 -385.663588 
L 323.179712 -387.98709 
L 323.434631 -390.310593 
L 323.668992 -392.634095 
L 323.884364 -394.957598 
L 327.928363 -394.957598 
L 327.928363 -394.957598 
L 328.143735 -392.634095 
L 328.378096 -390.310593 
L 328.633016 -387.98709 
L 328.909967 -385.663588 
L 329.210233 -383.340085 
L 329.53482 -381.016583 
L 329.884369 -378.69308 
L 330.259073 -376.369578 
L 330.658612 -374.046075 
L 331.082095 -371.722573 
L 331.528033 -369.39907 
L 331.994323 -367.075568 
L 332.47826 -364.752065 
L 332.976575 -362.428563 
L 333.485494 -360.10506 
L 334.000821 -357.781558 
L 334.518044 -355.458055 
L 335.032452 -353.134553 
L 335.539271 -350.81105 
L 336.033804 -348.487548 
L 336.511571 -346.164045 
L 336.968442 -343.840543 
L 337.400768 -341.51704 
L 337.80548 -339.193538 
L 338.180184 -336.870035 
L 338.523229 -334.546533 
L 338.833746 -332.22303 
L 339.11168 -329.899528 
L 339.357798 -327.576025 
L 339.573684 -325.252523 
L 339.761727 -322.92902 
L 339.925102 -320.605518 
L 340.06774 -318.282015 
L 340.194297 -315.958513 
L 340.310108 -313.63501 
L 340.421133 -311.311508 
L 340.533871 -308.988005 
L 340.655253 -306.664503 
L 340.792507 -304.341 
L 340.952975 -302.017498 
L 341.1439 -299.693995 
L 341.372178 -297.370493 
L 341.644078 -295.04699 
L 341.964952 -292.723488 
L 342.33893 -290.399985 
L 342.768646 -288.076483 
L 343.254977 -285.75298 
L 343.796853 -283.429478 
L 344.391117 -281.105975 
L 345.032483 -278.782473 
L 345.713582 -276.45897 
L 346.425104 -274.135468 
L 347.156048 -271.811965 
L 347.894058 -269.488463 
L 348.625837 -267.16496 
L 349.337622 -264.841458 
L 350.015697 -262.517955 
L 350.646906 -260.194453 
L 351.219145 -257.87095 
L 351.721804 -255.547448 
L 352.146126 -253.223945 
L 352.485467 -250.900443 
L 352.735434 -248.57694 
L 352.893902 -246.253438 
L 352.960909 -243.929935 
L 352.938435 -241.606433 
L 352.830091 -239.28293 
L 352.640739 -236.959428 
L 352.376081 -234.635925 
L 352.042244 -232.312423 
L 351.645395 -229.98892 
L 351.19142 -227.665418 
L 350.68568 -225.341915 
L 350.13287 -223.018413 
L 349.536972 -220.69491 
L 348.901311 -218.371408 
L 348.228683 -216.047905 
L 347.521552 -213.724403 
L 346.782268 -211.4009 
L 346.013295 -209.077398 
L 345.217417 -206.753895 
L 344.397889 -204.430393 
L 343.558532 -202.10689 
L 342.703751 -199.783388 
L 341.838478 -197.459885 
L 340.968058 -195.136383 
L 340.098076 -192.81288 
L 339.234157 -190.489378 
L 338.381756 -188.165876 
L 337.54596 -185.842373 
L 336.73132 -183.518871 
L 335.941725 -181.195368 
L 335.180333 -178.871866 
L 334.449553 -176.548363 
L 333.751074 -174.224861 
L 333.085947 -171.901358 
L 332.45468 -169.577856 
L 331.857363 -167.254353 
L 331.29379 -164.930851 
z
" style="stroke: #757575; stroke-width: 1.25"/>
    </defs>
    <g clip-path="url(#pc9eac28cc8)">
     <use xlink:href="#mce28fc2a56" x="0" y="430.4395" style="fill: #d3c4f6; stroke: #757575; stroke-width: 1.25"/>
    </g>
   </g>
   <g id="PolyCollection_5">
    <defs>
     <path id="mb84e56be9f" d="M 396.609598 -158.69785 
L 390.475857 -158.69785 
L 390.163375 -161.242744 
L 389.835571 -163.787637 
L 389.4917 -166.33253 
L 389.130765 -168.877423 
L 388.751604 -171.422316 
L 388.35303 -173.96721 
L 387.933987 -176.512103 
L 387.493714 -179.056996 
L 387.031914 -181.601889 
L 386.548876 -184.146782 
L 386.04557 -186.691676 
L 385.523663 -189.236569 
L 384.985473 -191.781462 
L 384.43384 -194.326355 
L 383.87193 -196.871249 
L 383.302979 -199.416142 
L 382.729997 -201.961035 
L 382.155468 -204.505928 
L 381.581065 -207.050821 
L 381.007422 -209.595715 
L 380.43399 -212.140608 
L 379.85899 -214.685501 
L 379.279501 -217.230394 
L 378.69166 -219.775287 
L 378.090987 -222.320181 
L 377.472803 -224.865074 
L 376.832723 -227.409967 
L 376.167173 -229.95486 
L 375.473906 -232.499754 
L 374.752469 -235.044647 
L 374.004577 -237.58954 
L 373.234377 -240.134433 
L 372.448572 -242.679326 
L 371.656393 -245.22422 
L 370.869416 -247.769113 
L 370.101235 -250.314006 
L 369.367004 -252.858899 
L 368.682866 -255.403792 
L 368.065307 -257.948686 
L 367.530447 -260.493579 
L 367.093326 -263.038472 
L 366.767197 -265.583365 
L 366.562876 -268.128259 
L 366.488182 -270.673152 
L 366.547498 -273.218045 
L 366.741489 -275.762938 
L 367.066987 -278.307831 
L 367.517076 -280.852725 
L 368.081356 -283.397618 
L 368.746398 -285.942511 
L 369.496341 -288.487404 
L 370.313614 -291.032298 
L 371.179727 -293.577191 
L 372.076072 -296.122084 
L 372.984693 -298.666977 
L 373.888966 -301.21187 
L 374.774149 -303.756764 
L 375.627787 -306.301657 
L 376.439935 -308.84655 
L 377.203235 -311.391443 
L 377.912842 -313.936336 
L 378.566231 -316.48123 
L 379.162941 -319.026123 
L 379.70426 -321.571016 
L 380.192919 -324.115909 
L 380.632801 -326.660803 
L 381.028692 -329.205696 
L 381.386071 -331.750589 
L 381.710953 -334.295482 
L 382.00975 -336.840375 
L 382.289156 -339.385269 
L 382.556021 -341.930162 
L 382.817208 -344.475055 
L 383.079418 -347.019948 
L 383.348991 -349.564841 
L 383.63167 -352.109735 
L 383.932363 -354.654628 
L 384.254904 -357.199521 
L 384.601848 -359.744414 
L 384.974318 -362.289308 
L 385.371917 -364.834201 
L 385.792738 -367.379094 
L 386.233453 -369.923987 
L 386.689498 -372.46888 
L 387.155341 -375.013774 
L 387.6248 -377.558667 
L 388.091408 -380.10356 
L 388.54878 -382.648453 
L 388.990964 -385.193346 
L 389.412745 -387.73824 
L 389.809887 -390.283133 
L 390.17929 -392.828026 
L 390.519058 -395.372919 
L 390.828489 -397.917813 
L 391.10797 -400.462706 
L 391.358826 -403.007599 
L 391.583106 -405.552492 
L 391.783359 -408.097385 
L 391.962397 -410.642279 
L 395.123058 -410.642279 
L 395.123058 -410.642279 
L 395.302095 -408.097385 
L 395.502349 -405.552492 
L 395.726629 -403.007599 
L 395.977484 -400.462706 
L 396.256966 -397.917813 
L 396.566396 -395.372919 
L 396.906165 -392.828026 
L 397.275568 -390.283133 
L 397.67271 -387.73824 
L 398.094491 -385.193346 
L 398.536674 -382.648453 
L 398.994046 -380.10356 
L 399.460654 -377.558667 
L 399.930114 -375.013774 
L 400.395956 -372.46888 
L 400.852002 -369.923987 
L 401.292716 -367.379094 
L 401.713537 -364.834201 
L 402.111137 -362.289308 
L 402.483606 -359.744414 
L 402.830551 -357.199521 
L 403.153092 -354.654628 
L 403.453785 -352.109735 
L 403.736464 -349.564841 
L 404.006037 -347.019948 
L 404.268247 -344.475055 
L 404.529433 -341.930162 
L 404.796298 -339.385269 
L 405.075705 -336.840375 
L 405.374502 -334.295482 
L 405.699384 -331.750589 
L 406.056763 -329.205696 
L 406.452653 -326.660803 
L 406.892536 -324.115909 
L 407.381195 -321.571016 
L 407.922513 -319.026123 
L 408.519223 -316.48123 
L 409.172613 -313.936336 
L 409.882219 -311.391443 
L 410.64552 -308.84655 
L 411.457668 -306.301657 
L 412.311305 -303.756764 
L 413.196489 -301.21187 
L 414.100761 -298.666977 
L 415.009382 -296.122084 
L 415.905727 -293.577191 
L 416.77184 -291.032298 
L 417.589114 -288.487404 
L 418.339056 -285.942511 
L 419.004098 -283.397618 
L 419.568379 -280.852725 
L 420.018468 -278.307831 
L 420.343966 -275.762938 
L 420.537956 -273.218045 
L 420.597273 -270.673152 
L 420.522578 -268.128259 
L 420.318257 -265.583365 
L 419.992128 -263.038472 
L 419.555007 -260.493579 
L 419.020148 -257.948686 
L 418.402588 -255.403792 
L 417.718451 -252.858899 
L 416.984219 -250.314006 
L 416.216039 -247.769113 
L 415.429061 -245.22422 
L 414.636882 -242.679326 
L 413.851078 -240.134433 
L 413.080878 -237.58954 
L 412.332985 -235.044647 
L 411.611548 -232.499754 
L 410.918282 -229.95486 
L 410.252732 -227.409967 
L 409.612651 -224.865074 
L 408.994468 -222.320181 
L 408.393794 -219.775287 
L 407.805954 -217.230394 
L 407.226465 -214.685501 
L 406.651465 -212.140608 
L 406.078032 -209.595715 
L 405.50439 -207.050821 
L 404.929987 -204.505928 
L 404.355457 -201.961035 
L 403.782476 -199.416142 
L 403.213524 -196.871249 
L 402.651615 -194.326355 
L 402.099982 -191.781462 
L 401.561791 -189.236569 
L 401.039885 -186.691676 
L 400.536578 -184.146782 
L 400.053541 -181.601889 
L 399.59174 -179.056996 
L 399.151468 -176.512103 
L 398.732424 -173.96721 
L 398.333851 -171.422316 
L 397.95469 -168.877423 
L 397.593754 -166.33253 
L 397.249884 -163.787637 
L 396.92208 -161.242744 
L 396.609598 -158.69785 
z
" style="stroke: #757575; stroke-width: 1.25"/>
    </defs>
    <g clip-path="url(#pc9eac28cc8)">
     <use xlink:href="#mb84e56be9f" x="0" y="430.4395" style="fill: #f3f3ae; stroke: #757575; stroke-width: 1.25"/>
    </g>
   </g>
   <g id="matplotlib.axis_1">
    <g id="xtick_1">
     <g id="line2d_1">
      <defs>
       <path id="m1e2b436e89" d="M 0 0 
L 0 3.5 
" style="stroke: #000000; stroke-width: 0.8"/>
      </defs>
      <g>
       <use xlink:href="#m1e2b436e89" x="122.997273" y="273.312" style="stroke: #000000; stroke-width: 0.8"/>
      </g>
     </g>
     <g id="text_1">
      <!-- AlphaFold -->
      <g transform="translate(116.182398 398.07325) rotate(-90) scale(0.24 -0.24)">
       <defs>
        <path id="DejaVuSans-41" d="M 2188 4044 
L 1331 1722 
L 3047 1722 
L 2188 4044 
z
M 1831 4666 
L 2547 4666 
L 4325 0 
L 3669 0 
L 3244 1197 
L 1141 1197 
L 716 0 
L 50 0 
L 1831 4666 
z
" transform="scale(0.015625)"/>
        <path id="DejaVuSans-6c" d="M 603 4863 
L 1178 4863 
L 1178 0 
L 603 0 
L 603 4863 
z
" transform="scale(0.015625)"/>
        <path id="DejaVuSans-70" d="M 1159 525 
L 1159 -1331 
L 581 -1331 
L 581 3500 
L 1159 3500 
L 1159 2969 
Q 1341 3281 1617 3432 
Q 1894 3584 2278 3584 
Q 2916 3584 3314 3078 
Q 3713 2572 3713 1747 
Q 3713 922 3314 415 
Q 2916 -91 2278 -91 
Q 1894 -91 1617 61 
Q 1341 213 1159 525 
z
M 3116 1747 
Q 3116 2381 2855 2742 
Q 2594 3103 2138 3103 
Q 1681 3103 1420 2742 
Q 1159 2381 1159 1747 
Q 1159 1113 1420 752 
Q 1681 391 2138 391 
Q 2594 391 2855 752 
Q 3116 1113 3116 1747 
z
" transform="scale(0.015625)"/>
        <path id="DejaVuSans-68" d="M 3513 2113 
L 3513 0 
L 2938 0 
L 2938 2094 
Q 2938 2591 2744 2837 
Q 2550 3084 2163 3084 
Q 1697 3084 1428 2787 
Q 1159 2491 1159 1978 
L 1159 0 
L 581 0 
L 581 4863 
L 1159 4863 
L 1159 2956 
Q 1366 3272 1645 3428 
Q 1925 3584 2291 3584 
Q 2894 3584 3203 3211 
Q 3513 2838 3513 2113 
z
" transform="scale(0.015625)"/>
        <path id="DejaVuSans-61" d="M 2194 1759 
Q 1497 1759 1228 1600 
Q 959 1441 959 1056 
Q 959 750 1161 570 
Q 1363 391 1709 391 
Q 2188 391 2477 730 
Q 2766 1069 2766 1631 
L 2766 1759 
L 2194 1759 
z
M 3341 1997 
L 3341 0 
L 2766 0 
L 2766 531 
Q 2569 213 2275 61 
Q 1981 -91 1556 -91 
Q 1019 -91 701 211 
Q 384 513 384 1019 
Q 384 1609 779 1909 
Q 1175 2209 1959 2209 
L 2766 2209 
L 2766 2266 
Q 2766 2663 2505 2880 
Q 2244 3097 1772 3097 
Q 1472 3097 1187 3025 
Q 903 2953 641 2809 
L 641 3341 
Q 956 3463 1253 3523 
Q 1550 3584 1831 3584 
Q 2591 3584 2966 3190 
Q 3341 2797 3341 1997 
z
" transform="scale(0.015625)"/>
        <path id="DejaVuSans-46" d="M 628 4666 
L 3309 4666 
L 3309 4134 
L 1259 4134 
L 1259 2759 
L 3109 2759 
L 3109 2228 
L 1259 2228 
L 1259 0 
L 628 0 
L 628 4666 
z
" transform="scale(0.015625)"/>
        <path id="DejaVuSans-6f" d="M 1959 3097 
Q 1497 3097 1228 2736 
Q 959 2375 959 1747 
Q 959 1119 1226 758 
Q 1494 397 1959 397 
Q 2419 397 2687 759 
Q 2956 1122 2956 1747 
Q 2956 2369 2687 2733 
Q 2419 3097 1959 3097 
z
M 1959 3584 
Q 2709 3584 3137 3096 
Q 3566 2609 3566 1747 
Q 3566 888 3137 398 
Q 2709 -91 1959 -91 
Q 1206 -91 779 398 
Q 353 888 353 1747 
Q 353 2609 779 3096 
Q 1206 3584 1959 3584 
z
" transform="scale(0.015625)"/>
        <path id="DejaVuSans-64" d="M 2906 2969 
L 2906 4863 
L 3481 4863 
L 3481 0 
L 2906 0 
L 2906 525 
Q 2725 213 2448 61 
Q 2172 -91 1784 -91 
Q 1150 -91 751 415 
Q 353 922 353 1747 
Q 353 2572 751 3078 
Q 1150 3584 1784 3584 
Q 2172 3584 2448 3432 
Q 2725 3281 2906 2969 
z
M 947 1747 
Q 947 1113 1208 752 
Q 1469 391 1925 391 
Q 2381 391 2643 752 
Q 2906 1113 2906 1747 
Q 2906 2381 2643 2742 
Q 2381 3103 1925 3103 
Q 1469 3103 1208 2742 
Q 947 2381 947 1747 
z
" transform="scale(0.015625)"/>
       </defs>
       <use xlink:href="#DejaVuSans-41"/>
       <use xlink:href="#DejaVuSans-6c" x="68.408203"/>
       <use xlink:href="#DejaVuSans-70" x="96.191406"/>
       <use xlink:href="#DejaVuSans-68" x="159.667969"/>
       <use xlink:href="#DejaVuSans-61" x="223.046875"/>
       <use xlink:href="#DejaVuSans-46" x="284.326172"/>
       <use xlink:href="#DejaVuSans-6f" x="338.220703"/>
       <use xlink:href="#DejaVuSans-6c" x="399.402344"/>
       <use xlink:href="#DejaVuSans-64" x="427.185547"/>
      </g>
      <!-- Multimer -->
      <g transform="translate(143.057148 392.528875) rotate(-90) scale(0.24 -0.24)">
       <defs>
        <path id="DejaVuSans-4d" d="M 628 4666 
L 1569 4666 
L 2759 1491 
L 3956 4666 
L 4897 4666 
L 4897 0 
L 4281 0 
L 4281 4097 
L 3078 897 
L 2444 897 
L 1241 4097 
L 1241 0 
L 628 0 
L 628 4666 
z
" transform="scale(0.015625)"/>
        <path id="DejaVuSans-75" d="M 544 1381 
L 544 3500 
L 1119 3500 
L 1119 1403 
Q 1119 906 1312 657 
Q 1506 409 1894 409 
Q 2359 409 2629 706 
Q 2900 1003 2900 1516 
L 2900 3500 
L 3475 3500 
L 3475 0 
L 2900 0 
L 2900 538 
Q 2691 219 2414 64 
Q 2138 -91 1772 -91 
Q 1169 -91 856 284 
Q 544 659 544 1381 
z
M 1991 3584 
L 1991 3584 
z
" transform="scale(0.015625)"/>
        <path id="DejaVuSans-74" d="M 1172 4494 
L 1172 3500 
L 2356 3500 
L 2356 3053 
L 1172 3053 
L 1172 1153 
Q 1172 725 1289 603 
Q 1406 481 1766 481 
L 2356 481 
L 2356 0 
L 1766 0 
Q 1100 0 847 248 
Q 594 497 594 1153 
L 594 3053 
L 172 3053 
L 172 3500 
L 594 3500 
L 594 4494 
L 1172 4494 
z
" transform="scale(0.015625)"/>
        <path id="DejaVuSans-69" d="M 603 3500 
L 1178 3500 
L 1178 0 
L 603 0 
L 603 3500 
z
M 603 4863 
L 1178 4863 
L 1178 4134 
L 603 4134 
L 603 4863 
z
" transform="scale(0.015625)"/>
        <path id="DejaVuSans-6d" d="M 3328 2828 
Q 3544 3216 3844 3400 
Q 4144 3584 4550 3584 
Q 5097 3584 5394 3201 
Q 5691 2819 5691 2113 
L 5691 0 
L 5113 0 
L 5113 2094 
Q 5113 2597 4934 2840 
Q 4756 3084 4391 3084 
Q 3944 3084 3684 2787 
Q 3425 2491 3425 1978 
L 3425 0 
L 2847 0 
L 2847 2094 
Q 2847 2600 2669 2842 
Q 2491 3084 2119 3084 
Q 1678 3084 1418 2786 
Q 1159 2488 1159 1978 
L 1159 0 
L 581 0 
L 581 3500 
L 1159 3500 
L 1159 2956 
Q 1356 3278 1631 3431 
Q 1906 3584 2284 3584 
Q 2666 3584 2933 3390 
Q 3200 3197 3328 2828 
z
" transform="scale(0.015625)"/>
        <path id="DejaVuSans-65" d="M 3597 1894 
L 3597 1613 
L 953 1613 
Q 991 1019 1311 708 
Q 1631 397 2203 397 
Q 2534 397 2845 478 
Q 3156 559 3463 722 
L 3463 178 
Q 3153 47 2828 -22 
Q 2503 -91 2169 -91 
Q 1331 -91 842 396 
Q 353 884 353 1716 
Q 353 2575 817 3079 
Q 1281 3584 2069 3584 
Q 2775 3584 3186 3129 
Q 3597 2675 3597 1894 
z
M 3022 2063 
Q 3016 2534 2758 2815 
Q 2500 3097 2075 3097 
Q 1594 3097 1305 2825 
Q 1016 2553 972 2059 
L 3022 2063 
z
" transform="scale(0.015625)"/>
        <path id="DejaVuSans-72" d="M 2631 2963 
Q 2534 3019 2420 3045 
Q 2306 3072 2169 3072 
Q 1681 3072 1420 2755 
Q 1159 2438 1159 1844 
L 1159 0 
L 581 0 
L 581 3500 
L 1159 3500 
L 1159 2956 
Q 1341 3275 1631 3429 
Q 1922 3584 2338 3584 
Q 2397 3584 2469 3576 
Q 2541 3569 2628 3553 
L 2631 2963 
z
" transform="scale(0.015625)"/>
       </defs>
       <use xlink:href="#DejaVuSans-4d"/>
       <use xlink:href="#DejaVuSans-75" x="86.279297"/>
       <use xlink:href="#DejaVuSans-6c" x="149.658203"/>
       <use xlink:href="#DejaVuSans-74" x="177.441406"/>
       <use xlink:href="#DejaVuSans-69" x="216.650391"/>
       <use xlink:href="#DejaVuSans-6d" x="244.433594"/>
       <use xlink:href="#DejaVuSans-65" x="341.845703"/>
       <use xlink:href="#DejaVuSans-72" x="403.369141"/>
      </g>
     </g>
    </g>
    <g id="xtick_2">
     <g id="line2d_2">
      <g>
       <use xlink:href="#m1e2b436e89" x="190.633636" y="273.312" style="stroke: #000000; stroke-width: 0.8"/>
      </g>
     </g>
     <g id="text_2">
      <!-- ESMFold -->
      <g transform="translate(197.256136 380.94325) rotate(-90) scale(0.24 -0.24)">
       <defs>
        <path id="DejaVuSans-45" d="M 628 4666 
L 3578 4666 
L 3578 4134 
L 1259 4134 
L 1259 2753 
L 3481 2753 
L 3481 2222 
L 1259 2222 
L 1259 531 
L 3634 531 
L 3634 0 
L 628 0 
L 628 4666 
z
" transform="scale(0.015625)"/>
        <path id="DejaVuSans-53" d="M 3425 4513 
L 3425 3897 
Q 3066 4069 2747 4153 
Q 2428 4238 2131 4238 
Q 1616 4238 1336 4038 
Q 1056 3838 1056 3469 
Q 1056 3159 1242 3001 
Q 1428 2844 1947 2747 
L 2328 2669 
Q 3034 2534 3370 2195 
Q 3706 1856 3706 1288 
Q 3706 609 3251 259 
Q 2797 -91 1919 -91 
Q 1588 -91 1214 -16 
Q 841 59 441 206 
L 441 856 
Q 825 641 1194 531 
Q 1563 422 1919 422 
Q 2459 422 2753 634 
Q 3047 847 3047 1241 
Q 3047 1584 2836 1778 
Q 2625 1972 2144 2069 
L 1759 2144 
Q 1053 2284 737 2584 
Q 422 2884 422 3419 
Q 422 4038 858 4394 
Q 1294 4750 2059 4750 
Q 2388 4750 2728 4690 
Q 3069 4631 3425 4513 
z
" transform="scale(0.015625)"/>
       </defs>
       <use xlink:href="#DejaVuSans-45"/>
       <use xlink:href="#DejaVuSans-53" x="63.183594"/>
       <use xlink:href="#DejaVuSans-4d" x="126.660156"/>
       <use xlink:href="#DejaVuSans-46" x="212.939453"/>
       <use xlink:href="#DejaVuSans-6f" x="266.833984"/>
       <use xlink:href="#DejaVuSans-6c" x="328.015625"/>
       <use xlink:href="#DejaVuSans-64" x="355.798828"/>
      </g>
     </g>
    </g>
    <g id="xtick_3">
     <g id="line2d_3">
      <g>
       <use xlink:href="#m1e2b436e89" x="258.27" y="273.312" style="stroke: #000000; stroke-width: 0.8"/>
      </g>
     </g>
     <g id="text_3">
      <!-- DiffDock-PP -->
      <g transform="translate(264.8925 420.217) rotate(-90) scale(0.24 -0.24)">
       <defs>
        <path id="DejaVuSans-44" d="M 1259 4147 
L 1259 519 
L 2022 519 
Q 2988 519 3436 956 
Q 3884 1394 3884 2338 
Q 3884 3275 3436 3711 
Q 2988 4147 2022 4147 
L 1259 4147 
z
M 628 4666 
L 1925 4666 
Q 3281 4666 3915 4102 
Q 4550 3538 4550 2338 
Q 4550 1131 3912 565 
Q 3275 0 1925 0 
L 628 0 
L 628 4666 
z
" transform="scale(0.015625)"/>
        <path id="DejaVuSans-66" d="M 2375 4863 
L 2375 4384 
L 1825 4384 
Q 1516 4384 1395 4259 
Q 1275 4134 1275 3809 
L 1275 3500 
L 2222 3500 
L 2222 3053 
L 1275 3053 
L 1275 0 
L 697 0 
L 697 3053 
L 147 3053 
L 147 3500 
L 697 3500 
L 697 3744 
Q 697 4328 969 4595 
Q 1241 4863 1831 4863 
L 2375 4863 
z
" transform="scale(0.015625)"/>
        <path id="DejaVuSans-63" d="M 3122 3366 
L 3122 2828 
Q 2878 2963 2633 3030 
Q 2388 3097 2138 3097 
Q 1578 3097 1268 2742 
Q 959 2388 959 1747 
Q 959 1106 1268 751 
Q 1578 397 2138 397 
Q 2388 397 2633 464 
Q 2878 531 3122 666 
L 3122 134 
Q 2881 22 2623 -34 
Q 2366 -91 2075 -91 
Q 1284 -91 818 406 
Q 353 903 353 1747 
Q 353 2603 823 3093 
Q 1294 3584 2113 3584 
Q 2378 3584 2631 3529 
Q 2884 3475 3122 3366 
z
" transform="scale(0.015625)"/>
        <path id="DejaVuSans-6b" d="M 581 4863 
L 1159 4863 
L 1159 1991 
L 2875 3500 
L 3609 3500 
L 1753 1863 
L 3688 0 
L 2938 0 
L 1159 1709 
L 1159 0 
L 581 0 
L 581 4863 
z
" transform="scale(0.015625)"/>
        <path id="DejaVuSans-2d" d="M 313 2009 
L 1997 2009 
L 1997 1497 
L 313 1497 
L 313 2009 
z
" transform="scale(0.015625)"/>
        <path id="DejaVuSans-50" d="M 1259 4147 
L 1259 2394 
L 2053 2394 
Q 2494 2394 2734 2622 
Q 2975 2850 2975 3272 
Q 2975 3691 2734 3919 
Q 2494 4147 2053 4147 
L 1259 4147 
z
M 628 4666 
L 2053 4666 
Q 2838 4666 3239 4311 
Q 3641 3956 3641 3272 
Q 3641 2581 3239 2228 
Q 2838 1875 2053 1875 
L 1259 1875 
L 1259 0 
L 628 0 
L 628 4666 
z
" transform="scale(0.015625)"/>
       </defs>
       <use xlink:href="#DejaVuSans-44"/>
       <use xlink:href="#DejaVuSans-69" x="77.001953"/>
       <use xlink:href="#DejaVuSans-66" x="104.785156"/>
       <use xlink:href="#DejaVuSans-66" x="139.990234"/>
       <use xlink:href="#DejaVuSans-44" x="175.195312"/>
       <use xlink:href="#DejaVuSans-6f" x="252.197266"/>
       <use xlink:href="#DejaVuSans-63" x="313.378906"/>
       <use xlink:href="#DejaVuSans-6b" x="368.359375"/>
       <use xlink:href="#DejaVuSans-2d" x="426.269531"/>
       <use xlink:href="#DejaVuSans-50" x="462.353516"/>
       <use xlink:href="#DejaVuSans-50" x="522.65625"/>
      </g>
     </g>
    </g>
    <g id="xtick_4">
     <g id="line2d_4">
      <g>
       <use xlink:href="#m1e2b436e89" x="325.906364" y="273.312" style="stroke: #000000; stroke-width: 0.8"/>
      </g>
     </g>
     <g id="text_4">
      <!-- ECLAIR -->
      <g transform="translate(319.091489 394.78075) rotate(-90) scale(0.24 -0.24)">
       <defs>
        <path id="DejaVuSans-43" d="M 4122 4306 
L 4122 3641 
Q 3803 3938 3442 4084 
Q 3081 4231 2675 4231 
Q 1875 4231 1450 3742 
Q 1025 3253 1025 2328 
Q 1025 1406 1450 917 
Q 1875 428 2675 428 
Q 3081 428 3442 575 
Q 3803 722 4122 1019 
L 4122 359 
Q 3791 134 3420 21 
Q 3050 -91 2638 -91 
Q 1578 -91 968 557 
Q 359 1206 359 2328 
Q 359 3453 968 4101 
Q 1578 4750 2638 4750 
Q 3056 4750 3426 4639 
Q 3797 4528 4122 4306 
z
" transform="scale(0.015625)"/>
        <path id="DejaVuSans-4c" d="M 628 4666 
L 1259 4666 
L 1259 531 
L 3531 531 
L 3531 0 
L 628 0 
L 628 4666 
z
" transform="scale(0.015625)"/>
        <path id="DejaVuSans-49" d="M 628 4666 
L 1259 4666 
L 1259 0 
L 628 0 
L 628 4666 
z
" transform="scale(0.015625)"/>
        <path id="DejaVuSans-52" d="M 2841 2188 
Q 3044 2119 3236 1894 
Q 3428 1669 3622 1275 
L 4263 0 
L 3584 0 
L 2988 1197 
Q 2756 1666 2539 1819 
Q 2322 1972 1947 1972 
L 1259 1972 
L 1259 0 
L 628 0 
L 628 4666 
L 2053 4666 
Q 2853 4666 3247 4331 
Q 3641 3997 3641 3322 
Q 3641 2881 3436 2590 
Q 3231 2300 2841 2188 
z
M 1259 4147 
L 1259 2491 
L 2053 2491 
Q 2509 2491 2742 2702 
Q 2975 2913 2975 3322 
Q 2975 3731 2742 3939 
Q 2509 4147 2053 4147 
L 1259 4147 
z
" transform="scale(0.015625)"/>
       </defs>
       <use xlink:href="#DejaVuSans-45"/>
       <use xlink:href="#DejaVuSans-43" x="63.183594"/>
       <use xlink:href="#DejaVuSans-4c" x="133.007812"/>
       <use xlink:href="#DejaVuSans-41" x="190.970703"/>
       <use xlink:href="#DejaVuSans-49" x="259.378906"/>
       <use xlink:href="#DejaVuSans-52" x="288.871094"/>
      </g>
      <!-- +HADDOCK -->
      <g transform="translate(345.966239 423.2395) rotate(-90) scale(0.24 -0.24)">
       <defs>
        <path id="DejaVuSans-2b" d="M 2944 4013 
L 2944 2272 
L 4684 2272 
L 4684 1741 
L 2944 1741 
L 2944 0 
L 2419 0 
L 2419 1741 
L 678 1741 
L 678 2272 
L 2419 2272 
L 2419 4013 
L 2944 4013 
z
" transform="scale(0.015625)"/>
        <path id="DejaVuSans-48" d="M 628 4666 
L 1259 4666 
L 1259 2753 
L 3553 2753 
L 3553 4666 
L 4184 4666 
L 4184 0 
L 3553 0 
L 3553 2222 
L 1259 2222 
L 1259 0 
L 628 0 
L 628 4666 
z
" transform="scale(0.015625)"/>
        <path id="DejaVuSans-4f" d="M 2522 4238 
Q 1834 4238 1429 3725 
Q 1025 3213 1025 2328 
Q 1025 1447 1429 934 
Q 1834 422 2522 422 
Q 3209 422 3611 934 
Q 4013 1447 4013 2328 
Q 4013 3213 3611 3725 
Q 3209 4238 2522 4238 
z
M 2522 4750 
Q 3503 4750 4090 4092 
Q 4678 3434 4678 2328 
Q 4678 1225 4090 567 
Q 3503 -91 2522 -91 
Q 1538 -91 948 565 
Q 359 1222 359 2328 
Q 359 3434 948 4092 
Q 1538 4750 2522 4750 
z
" transform="scale(0.015625)"/>
        <path id="DejaVuSans-4b" d="M 628 4666 
L 1259 4666 
L 1259 2694 
L 3353 4666 
L 4166 4666 
L 1850 2491 
L 4331 0 
L 3500 0 
L 1259 2247 
L 1259 0 
L 628 0 
L 628 4666 
z
" transform="scale(0.015625)"/>
       </defs>
       <use xlink:href="#DejaVuSans-2b"/>
       <use xlink:href="#DejaVuSans-48" x="83.789062"/>
       <use xlink:href="#DejaVuSans-41" x="158.984375"/>
       <use xlink:href="#DejaVuSans-44" x="227.392578"/>
       <use xlink:href="#DejaVuSans-44" x="304.394531"/>
       <use xlink:href="#DejaVuSans-4f" x="381.396484"/>
       <use xlink:href="#DejaVuSans-43" x="460.107422"/>
       <use xlink:href="#DejaVuSans-4b" x="529.931641"/>
      </g>
     </g>
    </g>
    <g id="xtick_5">
     <g id="line2d_5">
      <g>
       <use xlink:href="#m1e2b436e89" x="393.542727" y="273.312" style="stroke: #000000; stroke-width: 0.8"/>
      </g>
     </g>
     <g id="text_5">
      <!-- HADDOCK -->
      <g transform="translate(400.165227 403.12825) rotate(-90) scale(0.24 -0.24)">
       <use xlink:href="#DejaVuSans-48"/>
       <use xlink:href="#DejaVuSans-41" x="75.195312"/>
       <use xlink:href="#DejaVuSans-44" x="143.603516"/>
       <use xlink:href="#DejaVuSans-44" x="220.605469"/>
       <use xlink:href="#DejaVuSans-4f" x="297.607422"/>
       <use xlink:href="#DejaVuSans-43" x="376.318359"/>
       <use xlink:href="#DejaVuSans-4b" x="446.142578"/>
      </g>
     </g>
    </g>
   </g>
   <g id="matplotlib.axis_2">
    <g id="ytick_1">
     <g id="line2d_6">
      <defs>
       <path id="me4f7aec060" d="M 0 0 
L -3.5 0 
" style="stroke: #000000; stroke-width: 0.8"/>
      </defs>
      <g>
       <use xlink:href="#me4f7aec060" x="79.71" y="273.312" style="stroke: #000000; stroke-width: 0.8"/>
      </g>
     </g>
     <g id="text_6">
      <!-- 0 -->
      <g transform="translate(57.44 282.430125) scale(0.24 -0.24)">
       <defs>
        <path id="DejaVuSans-30" d="M 2034 4250 
Q 1547 4250 1301 3770 
Q 1056 3291 1056 2328 
Q 1056 1369 1301 889 
Q 1547 409 2034 409 
Q 2525 409 2770 889 
Q 3016 1369 3016 2328 
Q 3016 3291 2770 3770 
Q 2525 4250 2034 4250 
z
M 2034 4750 
Q 2819 4750 3233 4129 
Q 3647 3509 3647 2328 
Q 3647 1150 3233 529 
Q 2819 -91 2034 -91 
Q 1250 -91 836 529 
Q 422 1150 422 2328 
Q 422 3509 836 4129 
Q 1250 4750 2034 4750 
z
" transform="scale(0.015625)"/>
       </defs>
       <use xlink:href="#DejaVuSans-30"/>
      </g>
     </g>
    </g>
    <g id="ytick_2">
     <g id="line2d_7">
      <g>
       <use xlink:href="#me4f7aec060" x="79.71" y="219.532879" style="stroke: #000000; stroke-width: 0.8"/>
      </g>
     </g>
     <g id="text_7">
      <!-- 20 -->
      <g transform="translate(42.17 228.651004) scale(0.24 -0.24)">
       <defs>
        <path id="DejaVuSans-32" d="M 1228 531 
L 3431 531 
L 3431 0 
L 469 0 
L 469 531 
Q 828 903 1448 1529 
Q 2069 2156 2228 2338 
Q 2531 2678 2651 2914 
Q 2772 3150 2772 3378 
Q 2772 3750 2511 3984 
Q 2250 4219 1831 4219 
Q 1534 4219 1204 4116 
Q 875 4013 500 3803 
L 500 4441 
Q 881 4594 1212 4672 
Q 1544 4750 1819 4750 
Q 2544 4750 2975 4387 
Q 3406 4025 3406 3419 
Q 3406 3131 3298 2873 
Q 3191 2616 2906 2266 
Q 2828 2175 2409 1742 
Q 1991 1309 1228 531 
z
" transform="scale(0.015625)"/>
       </defs>
       <use xlink:href="#DejaVuSans-32"/>
       <use xlink:href="#DejaVuSans-30" x="63.623047"/>
      </g>
     </g>
    </g>
    <g id="ytick_3">
     <g id="line2d_8">
      <g>
       <use xlink:href="#me4f7aec060" x="79.71" y="165.753757" style="stroke: #000000; stroke-width: 0.8"/>
      </g>
     </g>
     <g id="text_8">
      <!-- 40 -->
      <g transform="translate(42.17 174.871882) scale(0.24 -0.24)">
       <defs>
        <path id="DejaVuSans-34" d="M 2419 4116 
L 825 1625 
L 2419 1625 
L 2419 4116 
z
M 2253 4666 
L 3047 4666 
L 3047 1625 
L 3713 1625 
L 3713 1100 
L 3047 1100 
L 3047 0 
L 2419 0 
L 2419 1100 
L 313 1100 
L 313 1709 
L 2253 4666 
z
" transform="scale(0.015625)"/>
       </defs>
       <use xlink:href="#DejaVuSans-34"/>
       <use xlink:href="#DejaVuSans-30" x="63.623047"/>
      </g>
     </g>
    </g>
    <g id="ytick_4">
     <g id="line2d_9">
      <g>
       <use xlink:href="#me4f7aec060" x="79.71" y="111.974636" style="stroke: #000000; stroke-width: 0.8"/>
      </g>
     </g>
     <g id="text_9">
      <!-- 60 -->
      <g transform="translate(42.17 121.092761) scale(0.24 -0.24)">
       <defs>
        <path id="DejaVuSans-36" d="M 2113 2584 
Q 1688 2584 1439 2293 
Q 1191 2003 1191 1497 
Q 1191 994 1439 701 
Q 1688 409 2113 409 
Q 2538 409 2786 701 
Q 3034 994 3034 1497 
Q 3034 2003 2786 2293 
Q 2538 2584 2113 2584 
z
M 3366 4563 
L 3366 3988 
Q 3128 4100 2886 4159 
Q 2644 4219 2406 4219 
Q 1781 4219 1451 3797 
Q 1122 3375 1075 2522 
Q 1259 2794 1537 2939 
Q 1816 3084 2150 3084 
Q 2853 3084 3261 2657 
Q 3669 2231 3669 1497 
Q 3669 778 3244 343 
Q 2819 -91 2113 -91 
Q 1303 -91 875 529 
Q 447 1150 447 2328 
Q 447 3434 972 4092 
Q 1497 4750 2381 4750 
Q 2619 4750 2861 4703 
Q 3103 4656 3366 4563 
z
" transform="scale(0.015625)"/>
       </defs>
       <use xlink:href="#DejaVuSans-36"/>
       <use xlink:href="#DejaVuSans-30" x="63.623047"/>
      </g>
     </g>
    </g>
    <g id="ytick_5">
     <g id="line2d_10">
      <g>
       <use xlink:href="#me4f7aec060" x="79.71" y="58.195514" style="stroke: #000000; stroke-width: 0.8"/>
      </g>
     </g>
     <g id="text_10">
      <!-- 80 -->
      <g transform="translate(42.17 67.313639) scale(0.24 -0.24)">
       <defs>
        <path id="DejaVuSans-38" d="M 2034 2216 
Q 1584 2216 1326 1975 
Q 1069 1734 1069 1313 
Q 1069 891 1326 650 
Q 1584 409 2034 409 
Q 2484 409 2743 651 
Q 3003 894 3003 1313 
Q 3003 1734 2745 1975 
Q 2488 2216 2034 2216 
z
M 1403 2484 
Q 997 2584 770 2862 
Q 544 3141 544 3541 
Q 544 4100 942 4425 
Q 1341 4750 2034 4750 
Q 2731 4750 3128 4425 
Q 3525 4100 3525 3541 
Q 3525 3141 3298 2862 
Q 3072 2584 2669 2484 
Q 3125 2378 3379 2068 
Q 3634 1759 3634 1313 
Q 3634 634 3220 271 
Q 2806 -91 2034 -91 
Q 1263 -91 848 271 
Q 434 634 434 1313 
Q 434 1759 690 2068 
Q 947 2378 1403 2484 
z
M 1172 3481 
Q 1172 3119 1398 2916 
Q 1625 2713 2034 2713 
Q 2441 2713 2670 2916 
Q 2900 3119 2900 3481 
Q 2900 3844 2670 4047 
Q 2441 4250 2034 4250 
Q 1625 4250 1398 4047 
Q 1172 3844 1172 3481 
z
" transform="scale(0.015625)"/>
       </defs>
       <use xlink:href="#DejaVuSans-38"/>
       <use xlink:href="#DejaVuSans-30" x="63.623047"/>
      </g>
     </g>
    </g>
    <g id="text_11">
     <!-- Ligand RMSD -->
     <g transform="translate(31.515 246.361) rotate(-90) scale(0.32 -0.32)">
      <defs>
       <path id="DejaVuSans-67" d="M 2906 1791 
Q 2906 2416 2648 2759 
Q 2391 3103 1925 3103 
Q 1463 3103 1205 2759 
Q 947 2416 947 1791 
Q 947 1169 1205 825 
Q 1463 481 1925 481 
Q 2391 481 2648 825 
Q 2906 1169 2906 1791 
z
M 3481 434 
Q 3481 -459 3084 -895 
Q 2688 -1331 1869 -1331 
Q 1566 -1331 1297 -1286 
Q 1028 -1241 775 -1147 
L 775 -588 
Q 1028 -725 1275 -790 
Q 1522 -856 1778 -856 
Q 2344 -856 2625 -561 
Q 2906 -266 2906 331 
L 2906 616 
Q 2728 306 2450 153 
Q 2172 0 1784 0 
Q 1141 0 747 490 
Q 353 981 353 1791 
Q 353 2603 747 3093 
Q 1141 3584 1784 3584 
Q 2172 3584 2450 3431 
Q 2728 3278 2906 2969 
L 2906 3500 
L 3481 3500 
L 3481 434 
z
" transform="scale(0.015625)"/>
       <path id="DejaVuSans-6e" d="M 3513 2113 
L 3513 0 
L 2938 0 
L 2938 2094 
Q 2938 2591 2744 2837 
Q 2550 3084 2163 3084 
Q 1697 3084 1428 2787 
Q 1159 2491 1159 1978 
L 1159 0 
L 581 0 
L 581 3500 
L 1159 3500 
L 1159 2956 
Q 1366 3272 1645 3428 
Q 1925 3584 2291 3584 
Q 2894 3584 3203 3211 
Q 3513 2838 3513 2113 
z
" transform="scale(0.015625)"/>
       <path id="DejaVuSans-20" transform="scale(0.015625)"/>
      </defs>
      <use xlink:href="#DejaVuSans-4c"/>
      <use xlink:href="#DejaVuSans-69" x="55.712891"/>
      <use xlink:href="#DejaVuSans-67" x="83.496094"/>
      <use xlink:href="#DejaVuSans-61" x="146.972656"/>
      <use xlink:href="#DejaVuSans-6e" x="208.251953"/>
      <use xlink:href="#DejaVuSans-64" x="271.630859"/>
      <use xlink:href="#DejaVuSans-20" x="335.107422"/>
      <use xlink:href="#DejaVuSans-52" x="366.894531"/>
      <use xlink:href="#DejaVuSans-4d" x="436.376953"/>
      <use xlink:href="#DejaVuSans-53" x="522.65625"/>
      <use xlink:href="#DejaVuSans-44" x="586.132812"/>
     </g>
    </g>
   </g>
   <g id="line2d_11">
    <path d="M 122.997273 271.029076 
L 122.997273 36.648909 
" clip-path="url(#pc9eac28cc8)" style="fill: none; stroke: #757575; stroke-width: 1.875; stroke-linecap: square"/>
   </g>
   <g id="line2d_12">
    <path d="M 122.997273 267.216137 
L 122.997273 156.857346 
" clip-path="url(#pc9eac28cc8)" style="fill: none; stroke: #757575; stroke-width: 5.625; stroke-linecap: square"/>
   </g>
   <g id="line2d_13">
    <path d="M 122.997273 251.167102 
" clip-path="url(#pc9eac28cc8)" style="fill: none; stroke: #757575; stroke-width: 1.5; stroke-linecap: square"/>
    <defs>
     <path id="m31e8295e2c" d="M 2.34375 0 
L -2.34375 -0 
" style="stroke: #ffffff; stroke-width: 1.125"/>
    </defs>
    <g clip-path="url(#pc9eac28cc8)">
     <use xlink:href="#m31e8295e2c" x="122.997273" y="251.167102" style="fill: #ffffff; stroke: #ffffff; stroke-width: 1.125"/>
    </g>
   </g>
   <g id="line2d_14">
    <path d="M 190.633636 271.257638 
L 190.633636 41.255091 
" clip-path="url(#pc9eac28cc8)" style="fill: none; stroke: #757575; stroke-width: 1.875; stroke-linecap: square"/>
   </g>
   <g id="line2d_15">
    <path d="M 190.633636 193.983762 
L 190.633636 116.508888 
" clip-path="url(#pc9eac28cc8)" style="fill: none; stroke: #757575; stroke-width: 5.625; stroke-linecap: square"/>
   </g>
   <g id="line2d_16">
    <path d="M 190.633636 148.787789 
" clip-path="url(#pc9eac28cc8)" style="fill: none; stroke: #757575; stroke-width: 1.5; stroke-linecap: square"/>
    <g clip-path="url(#pc9eac28cc8)">
     <use xlink:href="#m31e8295e2c" x="190.633636" y="148.787789" style="fill: #ffffff; stroke: #ffffff; stroke-width: 1.125"/>
    </g>
   </g>
   <g id="line2d_17">
    <path d="M 258.27 250.886106 
L 258.27 57.496386 
" clip-path="url(#pc9eac28cc8)" style="fill: none; stroke: #757575; stroke-width: 1.875; stroke-linecap: square"/>
   </g>
   <g id="line2d_18">
    <path d="M 258.27 197.980896 
L 258.27 125.547141 
" clip-path="url(#pc9eac28cc8)" style="fill: none; stroke: #757575; stroke-width: 5.625; stroke-linecap: square"/>
   </g>
   <g id="line2d_19">
    <path d="M 258.27 162.492053 
" clip-path="url(#pc9eac28cc8)" style="fill: none; stroke: #757575; stroke-width: 1.5; stroke-linecap: square"/>
    <g clip-path="url(#pc9eac28cc8)">
     <use xlink:href="#m31e8295e2c" x="258.27" y="162.492053" style="fill: #ffffff; stroke: #ffffff; stroke-width: 1.125"/>
    </g>
   </g>
   <g id="line2d_20">
    <path d="M 325.906364 265.508649 
L 325.906364 35.481902 
" clip-path="url(#pc9eac28cc8)" style="fill: none; stroke: #757575; stroke-width: 1.875; stroke-linecap: square"/>
   </g>
   <g id="line2d_21">
    <path d="M 325.906364 205.035372 
L 325.906364 125.001283 
" clip-path="url(#pc9eac28cc8)" style="fill: none; stroke: #757575; stroke-width: 5.625; stroke-linecap: square"/>
   </g>
   <g id="line2d_22">
    <path d="M 325.906364 176.349588 
" clip-path="url(#pc9eac28cc8)" style="fill: none; stroke: #757575; stroke-width: 1.5; stroke-linecap: square"/>
    <g clip-path="url(#pc9eac28cc8)">
     <use xlink:href="#m31e8295e2c" x="325.906364" y="176.349588" style="fill: #ffffff; stroke: #ffffff; stroke-width: 1.125"/>
    </g>
   </g>
   <g id="line2d_23">
    <path d="M 393.542727 271.74165 
L 393.542727 54.336862 
" clip-path="url(#pc9eac28cc8)" style="fill: none; stroke: #757575; stroke-width: 1.875; stroke-linecap: square"/>
   </g>
   <g id="line2d_24">
    <path d="M 393.542727 185.418093 
L 393.542727 125.506807 
" clip-path="url(#pc9eac28cc8)" style="fill: none; stroke: #757575; stroke-width: 5.625; stroke-linecap: square"/>
   </g>
   <g id="line2d_25">
    <path d="M 393.542727 156.944737 
" clip-path="url(#pc9eac28cc8)" style="fill: none; stroke: #757575; stroke-width: 1.5; stroke-linecap: square"/>
    <g clip-path="url(#pc9eac28cc8)">
     <use xlink:href="#m31e8295e2c" x="393.542727" y="156.944737" style="fill: #ffffff; stroke: #ffffff; stroke-width: 1.125"/>
    </g>
   </g>
   <g id="line2d_26">
    <path d="M 122.997273 33.103601 
L 122.997273 28.346999 
L 325.906364 28.346999 
L 325.906364 33.103601 
" clip-path="url(#pc9eac28cc8)" style="fill: none; stroke: #000000; stroke-width: 1.5; stroke-linecap: square"/>
   </g>
   <g id="patch_3">
    <path d="M 79.71 273.312 
L 79.71 7.2 
" style="fill: none; stroke: #000000; stroke-width: 0.8; stroke-linejoin: miter; stroke-linecap: square"/>
   </g>
   <g id="patch_4">
    <path d="M 436.83 273.312 
L 436.83 7.2 
" style="fill: none; stroke: #000000; stroke-width: 0.8; stroke-linejoin: miter; stroke-linecap: square"/>
   </g>
   <g id="patch_5">
    <path d="M 79.71 273.312 
L 436.83 273.312 
" style="fill: none; stroke: #000000; stroke-width: 0.8; stroke-linejoin: miter; stroke-linecap: square"/>
   </g>
   <g id="patch_6">
    <path d="M 79.71 7.2 
L 436.83 7.2 
" style="fill: none; stroke: #000000; stroke-width: 0.8; stroke-linejoin: miter; stroke-linecap: square"/>
   </g>
   <g id="text_12">
    <!-- *** -->
    <g transform="translate(215.451818 25.968698) scale(0.12 -0.12)">
     <defs>
      <path id="DejaVuSans-2a" d="M 3009 3897 
L 1888 3291 
L 3009 2681 
L 2828 2375 
L 1778 3009 
L 1778 1831 
L 1422 1831 
L 1422 3009 
L 372 2375 
L 191 2681 
L 1313 3291 
L 191 3897 
L 372 4206 
L 1422 3572 
L 1422 4750 
L 1778 4750 
L 1778 3572 
L 2828 4206 
L 3009 3897 
z
" transform="scale(0.015625)"/>
     </defs>
     <use xlink:href="#DejaVuSans-2a"/>
     <use xlink:href="#DejaVuSans-2a" x="50"/>
     <use xlink:href="#DejaVuSans-2a" x="100"/>
    </g>
   </g>
  </g>
 </g>
 <defs>
  <clipPath id="pc9eac28cc8">
   <rect x="79.71" y="7.2" width="357.12" height="266.112"/>
  </clipPath>
 </defs>
</svg>
